<?xml version="1.0" encoding="UTF-8" standalone="no"?>
<!DOCTYPE svg PUBLIC "-//W3C//DTD SVG 1.1//EN"
 "http://www.w3.org/Graphics/SVG/1.1/DTD/svg11.dtd">
<!-- Generated by graphviz version 2.43.0 (0)
 -->
<!-- Title: types Pages: 1 -->
<svg width="1452pt" height="1304pt"
 viewBox="0.00 0.00 1451.98 1304.37" xmlns="http://www.w3.org/2000/svg" xmlns:xlink="http://www.w3.org/1999/xlink">
<g id="graph0" class="graph" transform="scale(1 1) rotate(0) translate(4 1300.37)">
<title>types</title>
<polygon fill="white" stroke="transparent" points="-4,4 -4,-1300.37 1447.98,-1300.37 1447.98,4 -4,4"/>
<text text-anchor="middle" x="721.99" y="-1277.97" font-family="Times,serif" font-size="18.00">graph</text>
<!-- Armor -->
<g id="node1" class="node">
<title>Armor</title>
<polygon fill="#add8e6" stroke="black" points="242,-481.37 188,-481.37 188,-445.37 242,-445.37 242,-481.37"/>
<text text-anchor="middle" x="215" y="-459.67" font-family="Times,serif" font-size="14.00">Armor</text>
</g>
<!-- Item -->
<g id="node11" class="node">
<title>Item</title>
<polygon fill="#add8e6" stroke="black" points="420,-187.37 366,-187.37 366,-151.37 420,-151.37 420,-187.37"/>
<text text-anchor="middle" x="393" y="-165.67" font-family="Times,serif" font-size="14.00">Item</text>
</g>
<!-- Armor&#45;&gt;Item -->
<g id="edge45" class="edge">
<title>Armor&#45;&gt;Item</title>
<path fill="none" stroke="black" stroke-dasharray="5,2" d="M220.6,-444.96C227.37,-420.15 241.69,-375.3 264,-342.37 289.39,-304.89 311.41,-309.01 338,-272.37 348.98,-257.25 347.47,-251 356,-234.37 362.51,-221.69 370.1,-207.85 376.63,-196.22"/>
<polygon fill="black" stroke="black" points="379.73,-197.85 381.6,-187.42 373.64,-194.4 379.73,-197.85"/>
<text text-anchor="middle" x="301" y="-346.17" font-family="Times,serif" font-size="14.00">(extends)</text>
</g>
<!-- WorldObject -->
<g id="node23" class="node">
<title>WorldObject</title>
<polygon fill="#ffb347" stroke="black" points="634,-795.37 547,-795.37 547,-759.37 634,-759.37 634,-795.37"/>
<text text-anchor="middle" x="590.5" y="-773.67" font-family="Times,serif" font-size="14.00">WorldObject</text>
</g>
<!-- Armor&#45;&gt;WorldObject -->
<g id="edge46" class="edge">
<title>Armor&#45;&gt;WorldObject</title>
<path fill="none" stroke="black" stroke-dasharray="5,2" d="M242.39,-469.2C296.13,-481.21 414.5,-508.53 430,-519.37 441.51,-527.43 436.8,-536.88 448,-545.37 478.35,-568.4 504.94,-543.85 529,-573.37 568.08,-621.32 525.74,-653.29 547,-711.37 552.11,-725.35 560.6,-739.4 568.64,-750.93"/>
<polygon fill="black" stroke="black" points="565.94,-753.17 574.65,-759.21 571.61,-749.06 565.94,-753.17"/>
<text text-anchor="middle" x="393" y="-523.17" font-family="Times,serif" font-size="14.00">(implements)</text>
</g>
<!-- string -->
<g id="node28" class="node">
<title>string</title>
<ellipse fill="#ffffe0" stroke="black" cx="1276.44" cy="-1102.37" rx="30.59" ry="18"/>
<text text-anchor="middle" x="1276.44" y="-1098.67" font-family="Times,serif" font-size="14.00">string</text>
</g>
<!-- Armor&#45;&gt;string -->
<g id="edge44" class="edge">
<title>Armor&#45;&gt;string</title>
<path fill="none" stroke="black" d="M242.01,-459.88C285.12,-455.5 372.35,-452.8 430,-492.37 442.2,-500.75 436.37,-511.23 448,-520.37 477.95,-543.91 495.83,-529.65 529,-548.37 632.32,-606.71 627.79,-666.48 734,-719.37 936.68,-820.32 1086.16,-682.73 1222.69,-863.37 1247.73,-896.5 1265.29,-1018.38 1272.19,-1074.16"/>
<polygon fill="black" stroke="black" points="1268.75,-1074.89 1273.42,-1084.39 1275.7,-1074.04 1268.75,-1074.89"/>
<text text-anchor="middle" x="776.5" y="-753.17" font-family="Times,serif" font-size="14.00">slot</text>
</g>
<!-- uint16 -->
<g id="node29" class="node">
<title>uint16</title>
<ellipse fill="#ffffe0" stroke="black" cx="776.5" cy="-364.37" rx="33.29" ry="18"/>
<text text-anchor="middle" x="776.5" y="-360.67" font-family="Times,serif" font-size="14.00">uint16</text>
</g>
<!-- Armor&#45;&gt;uint16 -->
<g id="edge43" class="edge">
<title>Armor&#45;&gt;uint16</title>
<path fill="none" stroke="black" d="M242.24,-454.53C249.26,-452.34 256.88,-450.12 264,-448.37 434.18,-406.6 478.63,-403.81 652,-378.37 679.06,-374.4 709.6,-370.93 733.54,-368.44"/>
<polygon fill="black" stroke="black" points="734.11,-371.9 743.7,-367.4 733.39,-364.94 734.11,-371.9"/>
<text text-anchor="middle" x="488.5" y="-412.17" font-family="Times,serif" font-size="14.00">defense_bonus</text>
</g>
<!-- Boss -->
<g id="node2" class="node">
<title>Boss</title>
<polygon fill="#add8e6" stroke="black" points="75.5,-1138.37 21.5,-1138.37 21.5,-1102.37 75.5,-1102.37 75.5,-1138.37"/>
<text text-anchor="middle" x="48.5" y="-1116.67" font-family="Times,serif" font-size="14.00">Boss</text>
</g>
<!-- Combatant -->
<g id="node3" class="node">
<title>Combatant</title>
<polygon fill="#ffb347" stroke="black" points="629,-464.37 552,-464.37 552,-428.37 629,-428.37 629,-464.37"/>
<text text-anchor="middle" x="590.5" y="-442.67" font-family="Times,serif" font-size="14.00">Combatant</text>
</g>
<!-- Boss&#45;&gt;Combatant -->
<g id="edge65" class="edge">
<title>Boss&#45;&gt;Combatant</title>
<path fill="none" stroke="black" stroke-dasharray="5,2" d="M55.5,-1101.9C65.76,-1071.33 88.19,-1008.68 115,-959.37 133.91,-924.6 153.37,-923.88 166,-886.37 181.97,-838.95 149.24,-472.37 184,-436.37 232.08,-386.58 445.44,-419.16 541.88,-436.96"/>
<polygon fill="black" stroke="black" points="541.47,-440.45 551.95,-438.84 542.76,-433.57 541.47,-440.45"/>
<text text-anchor="middle" x="301" y="-414.17" font-family="Times,serif" font-size="14.00">(implements)</text>
</g>
<!-- NPC -->
<g id="node14" class="node">
<title>NPC</title>
<polygon fill="#add8e6" stroke="black" points="242,-930.37 188,-930.37 188,-894.37 242,-894.37 242,-930.37"/>
<text text-anchor="middle" x="215" y="-908.67" font-family="Times,serif" font-size="14.00">NPC</text>
</g>
<!-- Boss&#45;&gt;NPC -->
<g id="edge64" class="edge">
<title>Boss&#45;&gt;NPC</title>
<path fill="none" stroke="black" stroke-dasharray="5,2" d="M67.01,-1102.18C90.65,-1077.23 133.55,-1030.57 166,-987.37 177.61,-971.92 189.33,-953.67 198.28,-939.04"/>
<polygon fill="black" stroke="black" points="201.3,-940.82 203.48,-930.46 195.31,-937.2 201.3,-940.82"/>
<text text-anchor="middle" x="140.5" y="-1051.17" font-family="Times,serif" font-size="14.00">(extends)</text>
</g>
<!-- Boss&#45;&gt;WorldObject -->
<g id="edge66" class="edge">
<title>Boss&#45;&gt;WorldObject</title>
<path fill="none" stroke="black" stroke-dasharray="5,2" d="M75.91,-1122.48C99.85,-1123.63 135.89,-1123.47 166,-1115.37 341.86,-1068.11 406.44,-1060.05 529,-925.37 560.39,-890.88 576.64,-837.92 584.1,-805.58"/>
<polygon fill="black" stroke="black" points="587.59,-805.98 586.3,-795.47 580.75,-804.49 587.59,-805.98"/>
<text text-anchor="middle" x="301" y="-1092.17" font-family="Times,serif" font-size="14.00">(implements)</text>
</g>
<!-- Boss&#45;&gt;string -->
<g id="edge62" class="edge">
<title>Boss&#45;&gt;string</title>
<path fill="none" stroke="black" d="M60.33,-1138.59C83.53,-1175.01 141.83,-1253.37 214,-1253.37 214,-1253.37 214,-1253.37 1110.19,-1253.37 1161.32,-1253.37 1183.38,-1262.06 1222.69,-1229.37 1252.61,-1204.49 1265.82,-1159.82 1271.46,-1130.64"/>
<polygon fill="black" stroke="black" points="1274.93,-1131.11 1273.21,-1120.65 1268.04,-1129.89 1274.93,-1131.11"/>
<text text-anchor="middle" x="684" y="-1257.17" font-family="Times,serif" font-size="14.00">title</text>
</g>
<!-- uint32 -->
<g id="node30" class="node">
<title>uint32</title>
<ellipse fill="#ffffe0" stroke="black" cx="1109.19" cy="-237.37" rx="33.29" ry="18"/>
<text text-anchor="middle" x="1109.19" y="-233.67" font-family="Times,serif" font-size="14.00">uint32</text>
</g>
<!-- Boss&#45;&gt;uint32 -->
<g id="edge63" class="edge">
<title>Boss&#45;&gt;uint32</title>
<path fill="none" stroke="black" d="M56.26,-1102.13C66.6,-1075.49 88.02,-1025.04 115,-987.37 133.66,-961.31 153.2,-965.76 166,-936.37 188.19,-885.4 149.34,-479.83 184,-436.37 228.17,-381 270.07,-415.43 338,-395.37 492.61,-349.73 521.79,-283.37 683,-283.37 683,-283.37 683,-283.37 945.35,-283.37 991.14,-283.37 1041.54,-266.32 1073.96,-252.98"/>
<polygon fill="black" stroke="black" points="1075.57,-256.1 1083.42,-248.98 1072.85,-249.65 1075.57,-256.1"/>
<text text-anchor="middle" x="590.5" y="-308.17" font-family="Times,serif" font-size="14.00">reward_gold</text>
</g>
<!-- uint8 -->
<g id="node32" class="node">
<title>uint8</title>
<ellipse fill="#ffffe0" stroke="black" cx="944.35" cy="-1029.37" rx="28.7" ry="18"/>
<text text-anchor="middle" x="944.35" y="-1025.67" font-family="Times,serif" font-size="14.00">uint8</text>
</g>
<!-- Boss&#45;&gt;uint8 -->
<g id="edge61" class="edge">
<title>Boss&#45;&gt;uint8</title>
<path fill="none" stroke="black" d="M75.8,-1126.32C87.7,-1128.72 101.99,-1131.19 115,-1132.37 137.57,-1134.42 143.37,-1133.69 166,-1132.37 457.69,-1115.46 529.56,-1096.27 819,-1056.37 849.76,-1052.13 857.69,-1052.14 888,-1045.37 894.76,-1043.86 901.9,-1042 908.74,-1040.09"/>
<polygon fill="black" stroke="black" points="909.81,-1043.42 918.44,-1037.28 907.86,-1036.7 909.81,-1043.42"/>
<text text-anchor="middle" x="488.5" y="-1112.17" font-family="Times,serif" font-size="14.00">phase</text>
</g>
<!-- Damageable -->
<g id="node5" class="node">
<title>Damageable</title>
<polygon fill="#ffb347" stroke="black" points="819,-601.37 734,-601.37 734,-565.37 819,-565.37 819,-601.37"/>
<text text-anchor="middle" x="776.5" y="-579.67" font-family="Times,serif" font-size="14.00">Damageable</text>
</g>
<!-- Combatant&#45;&gt;Damageable -->
<g id="edge27" class="edge">
<title>Combatant&#45;&gt;Damageable</title>
<path fill="none" stroke="black" stroke-dasharray="5,2" d="M615.93,-464.57C648.6,-488.89 706.61,-532.08 742.96,-559.14"/>
<polygon fill="black" stroke="black" points="741.15,-562.16 751.26,-565.32 745.33,-556.54 741.15,-562.16"/>
<text text-anchor="middle" x="684" y="-542.17" font-family="Times,serif" font-size="14.00">(extends)</text>
</g>
<!-- GameEntity -->
<g id="node9" class="node">
<title>GameEntity</title>
<polygon fill="#ffb347" stroke="black" points="818,-710.37 735,-710.37 735,-674.37 818,-674.37 818,-710.37"/>
<text text-anchor="middle" x="776.5" y="-688.67" font-family="Times,serif" font-size="14.00">GameEntity</text>
</g>
<!-- Combatant&#45;&gt;GameEntity -->
<g id="edge26" class="edge">
<title>Combatant&#45;&gt;GameEntity</title>
<path fill="none" stroke="black" stroke-dasharray="5,2" d="M593.49,-464.45C598.03,-497.31 612.03,-567.25 652,-608.37 673.4,-630.39 690.31,-617.57 716,-634.37 729.73,-643.36 743.01,-655.81 753.52,-666.87"/>
<polygon fill="black" stroke="black" points="750.98,-669.27 760.33,-674.25 756.12,-664.53 750.98,-669.27"/>
<text text-anchor="middle" x="684" y="-638.17" font-family="Times,serif" font-size="14.00">(extends)</text>
</g>
<!-- Combatant&#45;&gt;uint16 -->
<g id="edge24" class="edge">
<title>Combatant&#45;&gt;uint16</title>
<path fill="none" stroke="black" d="M615.66,-428.34C626.41,-420.87 639.45,-412.53 652,-406.37 679.16,-393.05 711.61,-382.2 736.43,-374.86"/>
<polygon fill="black" stroke="black" points="737.58,-378.17 746.22,-372.03 735.64,-371.44 737.58,-378.17"/>
<text text-anchor="middle" x="684" y="-410.17" font-family="Times,serif" font-size="14.00">attack</text>
</g>
<!-- Combatant&#45;&gt;uint16 -->
<g id="edge25" class="edge">
<title>Combatant&#45;&gt;uint16</title>
<path fill="none" stroke="black" d="M629,-444.34C654.71,-441.66 688.93,-435.5 716,-421.37 731.25,-413.41 745.3,-400.36 755.92,-388.74"/>
<polygon fill="black" stroke="black" points="758.73,-390.85 762.69,-381.02 753.46,-386.23 758.73,-390.85"/>
<text text-anchor="middle" x="684" y="-444.17" font-family="Times,serif" font-size="14.00">defense</text>
</g>
<!-- Creature -->
<g id="node4" class="node">
<title>Creature</title>
<polygon fill="#add8e6" stroke="black" points="424.5,-727.37 361.5,-727.37 361.5,-691.37 424.5,-691.37 424.5,-727.37"/>
<text text-anchor="middle" x="393" y="-705.67" font-family="Times,serif" font-size="14.00">Creature</text>
</g>
<!-- Creature&#45;&gt;Combatant -->
<g id="edge34" class="edge">
<title>Creature&#45;&gt;Combatant</title>
<path fill="none" stroke="black" stroke-dasharray="5,2" d="M418.39,-691.05C422.72,-686.93 426.84,-682.3 430,-677.37 444.8,-654.29 434.83,-642.42 448,-618.37 474.65,-569.71 493.85,-566.31 529,-523.37 542.59,-506.77 557.49,-487.82 569.1,-472.87"/>
<polygon fill="black" stroke="black" points="572.17,-474.63 575.52,-464.58 566.63,-470.35 572.17,-474.63"/>
<text text-anchor="middle" x="488.5" y="-622.17" font-family="Times,serif" font-size="14.00">(implements)</text>
</g>
<!-- Faction -->
<g id="node8" class="node">
<title>Faction</title>
<polygon fill="#90ee90" stroke="black" points="619,-702.37 562,-702.37 562,-666.37 619,-666.37 619,-702.37"/>
<text text-anchor="middle" x="590.5" y="-680.67" font-family="Times,serif" font-size="14.00">Faction</text>
</g>
<!-- Creature&#45;&gt;Faction -->
<g id="edge33" class="edge">
<title>Creature&#45;&gt;Faction</title>
<path fill="none" stroke="black" d="M424.67,-693.15C432.11,-689.95 440.18,-687.06 448,-685.37 482.54,-677.92 522.94,-678.52 551.7,-680.49"/>
<polygon fill="black" stroke="black" points="551.51,-683.98 561.74,-681.26 552.04,-677 551.51,-683.98"/>
<text text-anchor="middle" x="488.5" y="-689.17" font-family="Times,serif" font-size="14.00">faction</text>
</g>
<!-- Creature&#45;&gt;WorldObject -->
<g id="edge35" class="edge">
<title>Creature&#45;&gt;WorldObject</title>
<path fill="none" stroke="black" stroke-dasharray="5,2" d="M424.54,-718.49C432.19,-720.75 440.39,-723.17 448,-725.37 483.94,-735.8 494,-735.13 529,-748.37 534.24,-750.36 539.65,-752.62 544.98,-754.99"/>
<polygon fill="black" stroke="black" points="543.88,-758.33 554.43,-759.32 546.8,-751.97 543.88,-758.33"/>
<text text-anchor="middle" x="488.5" y="-752.17" font-family="Times,serif" font-size="14.00">(implements)</text>
</g>
<!-- float32 -->
<g id="node26" class="node">
<title>float32</title>
<ellipse fill="#ffffe0" stroke="black" cx="1276.44" cy="-436.37" rx="36" ry="18"/>
<text text-anchor="middle" x="1276.44" y="-432.67" font-family="Times,serif" font-size="14.00">float32</text>
</g>
<!-- Creature&#45;&gt;float32 -->
<g id="edge31" class="edge">
<title>Creature&#45;&gt;float32</title>
<path fill="none" stroke="black" d="M422.33,-691.35C424.93,-689.67 427.52,-688 430,-686.37 438.05,-681.12 439.7,-679.22 448,-674.37 482.85,-654.04 493.57,-652.69 529,-633.37 584.62,-603.06 591.91,-581.41 652,-561.37 740.91,-531.73 767.78,-537.37 861.5,-537.37 861.5,-537.37 861.5,-537.37 1110.19,-537.37 1161.23,-537.37 1180.26,-542.72 1222.69,-514.37 1241.39,-501.89 1255.22,-480.3 1264.02,-463"/>
<polygon fill="black" stroke="black" points="1267.21,-464.45 1268.39,-453.92 1260.9,-461.41 1267.21,-464.45"/>
<text text-anchor="middle" x="862.5" y="-541.17" font-family="Times,serif" font-size="14.00">speed</text>
</g>
<!-- Creature&#45;&gt;uint8 -->
<g id="edge32" class="edge">
<title>Creature&#45;&gt;uint8</title>
<path fill="none" stroke="black" d="M424.59,-708.92C472.03,-709.44 565.04,-715.33 634,-750.37 651.03,-759.03 850.8,-943.57 919.96,-1007.67"/>
<polygon fill="black" stroke="black" points="917.64,-1010.29 927.35,-1014.52 922.4,-1005.16 917.64,-1010.29"/>
<text text-anchor="middle" x="684" y="-821.17" font-family="Times,serif" font-size="14.00">level</text>
</g>
<!-- int16 -->
<g id="node27" class="node">
<title>int16</title>
<ellipse fill="#ffffe0" stroke="black" cx="944.35" cy="-598.37" rx="28.7" ry="18"/>
<text text-anchor="middle" x="944.35" y="-594.67" font-family="Times,serif" font-size="14.00">int16</text>
</g>
<!-- Damageable&#45;&gt;int16 -->
<g id="edge8" class="edge">
<title>Damageable&#45;&gt;int16</title>
<path fill="none" stroke="black" d="M819.07,-589.33C825.08,-590.08 831.19,-590.79 837,-591.37 859.73,-593.65 885.28,-595.36 905.63,-596.52"/>
<polygon fill="black" stroke="black" points="905.58,-600.02 915.76,-597.07 905.97,-593.03 905.58,-600.02"/>
<text text-anchor="middle" x="862.5" y="-598.17" font-family="Times,serif" font-size="14.00">hp</text>
</g>
<!-- Damageable&#45;&gt;int16 -->
<g id="edge9" class="edge">
<title>Damageable&#45;&gt;int16</title>
<path fill="none" stroke="black" d="M819.07,-573.05C839.94,-569.42 865.51,-567.36 888,-572.37 896.79,-574.33 905.83,-577.85 913.99,-581.68"/>
<polygon fill="black" stroke="black" points="912.59,-584.89 923.1,-586.23 915.72,-578.63 912.59,-584.89"/>
<text text-anchor="middle" x="862.5" y="-576.17" font-family="Times,serif" font-size="14.00">max_hp</text>
</g>
<!-- Element -->
<g id="node6" class="node">
<title>Element</title>
<polygon fill="#90ee90" stroke="black" points="424,-279.37 362,-279.37 362,-243.37 424,-243.37 424,-279.37"/>
<text text-anchor="middle" x="393" y="-257.67" font-family="Times,serif" font-size="14.00">Element</text>
</g>
<!-- Entity -->
<g id="node7" class="node">
<title>Entity</title>
<polygon fill="#ffb347" stroke="black" points="971.35,-689.37 917.35,-689.37 917.35,-653.37 971.35,-653.37 971.35,-689.37"/>
<text text-anchor="middle" x="944.35" y="-667.67" font-family="Times,serif" font-size="14.00">Entity</text>
</g>
<!-- Identifiable -->
<g id="node10" class="node">
<title>Identifiable</title>
<polygon fill="#ffb347" stroke="black" points="1148.69,-884.37 1069.69,-884.37 1069.69,-848.37 1148.69,-848.37 1148.69,-884.37"/>
<text text-anchor="middle" x="1109.19" y="-862.67" font-family="Times,serif" font-size="14.00">Identifiable</text>
</g>
<!-- Entity&#45;&gt;Identifiable -->
<g id="edge11" class="edge">
<title>Entity&#45;&gt;Identifiable</title>
<path fill="none" stroke="black" stroke-dasharray="5,2" d="M963.38,-689.64C985.14,-711.98 1022.44,-751.3 1051.69,-787.37 1065.37,-804.23 1079.58,-824.11 1090.32,-839.71"/>
<polygon fill="black" stroke="black" points="1087.69,-842.07 1096.22,-848.35 1093.47,-838.12 1087.69,-842.07"/>
<text text-anchor="middle" x="1026.19" y="-791.17" font-family="Times,serif" font-size="14.00">(extends)</text>
</g>
<!-- Positioned -->
<g id="node17" class="node">
<title>Positioned</title>
<polygon fill="#ffb347" stroke="black" points="1146.19,-509.37 1072.19,-509.37 1072.19,-473.37 1146.19,-473.37 1146.19,-509.37"/>
<text text-anchor="middle" x="1109.19" y="-487.67" font-family="Times,serif" font-size="14.00">Positioned</text>
</g>
<!-- Entity&#45;&gt;Positioned -->
<g id="edge12" class="edge">
<title>Entity&#45;&gt;Positioned</title>
<path fill="none" stroke="black" stroke-dasharray="5,2" d="M961.86,-653.12C990.95,-620.97 1051.42,-554.13 1084.8,-517.23"/>
<polygon fill="black" stroke="black" points="1087.77,-519.17 1091.88,-509.4 1082.58,-514.47 1087.77,-519.17"/>
<text text-anchor="middle" x="1026.19" y="-611.17" font-family="Times,serif" font-size="14.00">(extends)</text>
</g>
<!-- Entity&#45;&gt;uint32 -->
<g id="edge10" class="edge">
<title>Entity&#45;&gt;uint32</title>
<path fill="none" stroke="black" d="M964.22,-653.37C971.27,-645.49 978.57,-635.69 982.69,-625.37 1001.41,-578.6 971.7,-440.57 1000.69,-399.37 1015,-379.04 1034.44,-394.28 1051.69,-376.37 1081.6,-345.32 1096.45,-296.33 1103.21,-265.57"/>
<polygon fill="black" stroke="black" points="1106.7,-266.01 1105.28,-255.51 1099.84,-264.6 1106.7,-266.01"/>
<text text-anchor="middle" x="1026.19" y="-403.17" font-family="Times,serif" font-size="14.00">id</text>
</g>
<!-- GameEntity&#45;&gt;Entity -->
<g id="edge19" class="edge">
<title>GameEntity&#45;&gt;Entity</title>
<path fill="none" stroke="black" stroke-dasharray="5,2" d="M818.07,-687.24C845.33,-683.78 880.94,-679.28 907.22,-675.95"/>
<polygon fill="black" stroke="black" points="907.67,-679.42 917.15,-674.69 906.79,-672.47 907.67,-679.42"/>
<text text-anchor="middle" x="862.5" y="-687.17" font-family="Times,serif" font-size="14.00">(extends)</text>
</g>
<!-- Trackable -->
<g id="node21" class="node">
<title>Trackable</title>
<polygon fill="#ffb347" stroke="black" points="979.85,-846.37 908.85,-846.37 908.85,-810.37 979.85,-810.37 979.85,-846.37"/>
<text text-anchor="middle" x="944.35" y="-824.67" font-family="Times,serif" font-size="14.00">Trackable</text>
</g>
<!-- GameEntity&#45;&gt;Trackable -->
<g id="edge20" class="edge">
<title>GameEntity&#45;&gt;Trackable</title>
<path fill="none" stroke="black" stroke-dasharray="5,2" d="M799.52,-710.43C828.77,-734.41 880.53,-776.86 913.33,-803.76"/>
<polygon fill="black" stroke="black" points="911.28,-806.6 921.23,-810.24 915.72,-801.19 911.28,-806.6"/>
<text text-anchor="middle" x="862.5" y="-784.17" font-family="Times,serif" font-size="14.00">(extends)</text>
</g>
<!-- Identifiable&#45;&gt;string -->
<g id="edge2" class="edge">
<title>Identifiable&#45;&gt;string</title>
<path fill="none" stroke="black" d="M1148.89,-865.61C1173.15,-867.23 1203.38,-873.42 1222.69,-892.37 1248.43,-917.63 1265.22,-1022.97 1272.01,-1074.18"/>
<polygon fill="black" stroke="black" points="1268.56,-1074.77 1273.31,-1084.24 1275.5,-1073.87 1268.56,-1074.77"/>
<text text-anchor="middle" x="1194.69" y="-896.17" font-family="Times,serif" font-size="14.00">name</text>
</g>
<!-- Item&#45;&gt;WorldObject -->
<g id="edge30" class="edge">
<title>Item&#45;&gt;WorldObject</title>
<path fill="none" stroke="black" stroke-dasharray="5,2" d="M406.54,-187.57C414.57,-200.15 424.49,-217.58 430,-234.37 449.55,-293.99 429.26,-314.5 448,-374.37 471.34,-448.93 506.73,-455.49 529,-530.37 552.04,-607.86 520.38,-635.04 547,-711.37 551.9,-725.42 560.35,-739.49 568.43,-751.01"/>
<polygon fill="black" stroke="black" points="565.75,-753.27 574.47,-759.28 571.4,-749.14 565.75,-753.27"/>
<text text-anchor="middle" x="488.5" y="-534.17" font-family="Times,serif" font-size="14.00">(implements)</text>
</g>
<!-- Item&#45;&gt;float32 -->
<g id="edge28" class="edge">
<title>Item&#45;&gt;float32</title>
<path fill="none" stroke="black" d="M420.02,-158.28C456.98,-143.55 527.14,-119.37 589.5,-119.37 589.5,-119.37 589.5,-119.37 1110.19,-119.37 1239.71,-119.37 1267.88,-330.02 1273.86,-407.89"/>
<polygon fill="black" stroke="black" points="1270.38,-408.23 1274.57,-417.96 1277.36,-407.74 1270.38,-408.23"/>
<text text-anchor="middle" x="862.5" y="-123.17" font-family="Times,serif" font-size="14.00">weight</text>
</g>
<!-- Item&#45;&gt;uint32 -->
<g id="edge29" class="edge">
<title>Item&#45;&gt;uint32</title>
<path fill="none" stroke="black" d="M420.25,-169.37C457.77,-169.37 528.92,-169.37 589.5,-169.37 589.5,-169.37 589.5,-169.37 945.35,-169.37 995.54,-169.37 1048.18,-197.22 1079.58,-217.28"/>
<polygon fill="black" stroke="black" points="1077.96,-220.4 1088.24,-222.95 1081.8,-214.54 1077.96,-220.4"/>
<text text-anchor="middle" x="776.5" y="-173.17" font-family="Times,serif" font-size="14.00">value</text>
</g>
<!-- MagicWeapon -->
<g id="node12" class="node">
<title>MagicWeapon</title>
<polygon fill="#add8e6" stroke="black" points="97,-857.37 0,-857.37 0,-821.37 97,-821.37 97,-857.37"/>
<text text-anchor="middle" x="48.5" y="-835.67" font-family="Times,serif" font-size="14.00">MagicWeapon</text>
</g>
<!-- Weapon -->
<g id="node22" class="node">
<title>Weapon</title>
<polygon fill="#add8e6" stroke="black" points="246,-256.37 184,-256.37 184,-220.37 246,-220.37 246,-256.37"/>
<text text-anchor="middle" x="215" y="-234.67" font-family="Times,serif" font-size="14.00">Weapon</text>
</g>
<!-- MagicWeapon&#45;&gt;Weapon -->
<g id="edge59" class="edge">
<title>MagicWeapon&#45;&gt;Weapon</title>
<path fill="none" stroke="black" stroke-dasharray="5,2" d="M84.59,-821.3C89.33,-817.58 93.7,-813.27 97,-808.37 209.17,-642.01 141.59,-561.49 184,-365.37 191.41,-331.12 200.82,-291.89 207.1,-266.21"/>
<polygon fill="black" stroke="black" points="210.52,-266.96 209.51,-256.41 203.73,-265.29 210.52,-266.96"/>
<text text-anchor="middle" x="140.5" y="-782.17" font-family="Times,serif" font-size="14.00">(extends)</text>
</g>
<!-- MagicWeapon&#45;&gt;WorldObject -->
<g id="edge60" class="edge">
<title>MagicWeapon&#45;&gt;WorldObject</title>
<path fill="none" stroke="black" stroke-dasharray="5,2" d="M97.22,-840.6C184.31,-841.77 374.29,-839.32 529,-802.37 533.04,-801.41 537.16,-800.21 541.26,-798.86"/>
<polygon fill="black" stroke="black" points="542.47,-802.14 550.72,-795.49 540.12,-795.55 542.47,-802.14"/>
<text text-anchor="middle" x="301" y="-840.17" font-family="Times,serif" font-size="14.00">(implements)</text>
</g>
<!-- MagicWeapon&#45;&gt;string -->
<g id="edge58" class="edge">
<title>MagicWeapon&#45;&gt;string</title>
<path fill="none" stroke="black" d="M49.03,-857.45C48.94,-900.33 55.01,-1008.93 115,-1066.37 188.65,-1136.9 244.15,-1080.49 338,-1120.37 410.45,-1151.16 408.78,-1215.37 487.5,-1215.37 487.5,-1215.37 487.5,-1215.37 1110.19,-1215.37 1165.09,-1215.37 1178.85,-1197.41 1222.69,-1164.37 1236.36,-1154.08 1248.89,-1139.65 1258.31,-1127.31"/>
<polygon fill="black" stroke="black" points="1261.2,-1129.3 1264.31,-1119.17 1255.56,-1125.14 1261.2,-1129.3"/>
<text text-anchor="middle" x="684" y="-1219.17" font-family="Times,serif" font-size="14.00">spell_name</text>
</g>
<!-- MagicWeapon&#45;&gt;uint16 -->
<g id="edge57" class="edge">
<title>MagicWeapon&#45;&gt;uint16</title>
<path fill="none" stroke="black" d="M85.51,-821.21C90.01,-817.54 94.06,-813.27 97,-808.37 119.88,-770.32 109.2,-653.4 115,-609.37 144.39,-386.23 74.91,-247.45 264,-125.37 436.09,-14.28 572.64,-69.07 716,-215.37 749.07,-249.12 764.44,-303.57 771.05,-336.47"/>
<polygon fill="black" stroke="black" points="767.61,-337.15 772.89,-346.34 774.49,-335.86 767.61,-337.15"/>
<text text-anchor="middle" x="393" y="-83.17" font-family="Times,serif" font-size="14.00">mana_cost</text>
</g>
<!-- Merchant -->
<g id="node13" class="node">
<title>Merchant</title>
<polygon fill="#add8e6" stroke="black" points="83,-799.37 14,-799.37 14,-763.37 83,-763.37 83,-799.37"/>
<text text-anchor="middle" x="48.5" y="-777.67" font-family="Times,serif" font-size="14.00">Merchant</text>
</g>
<!-- Merchant&#45;&gt;Combatant -->
<g id="edge70" class="edge">
<title>Merchant&#45;&gt;Combatant</title>
<path fill="none" stroke="black" stroke-dasharray="5,2" d="M49.53,-763.18C50.5,-688.49 62.3,-400.57 184,-211.37 208.34,-173.54 222.02,-165.54 264,-149.37 379.55,-104.87 465.39,-129.14 529,-235.37 544.84,-261.83 538.64,-272.7 547,-302.37 558.4,-342.82 572.29,-389.43 581.02,-418.4"/>
<polygon fill="black" stroke="black" points="577.75,-419.67 583.99,-428.23 584.45,-417.64 577.75,-419.67"/>
<text text-anchor="middle" x="301" y="-153.17" font-family="Times,serif" font-size="14.00">(implements)</text>
</g>
<!-- Merchant&#45;&gt;NPC -->
<g id="edge69" class="edge">
<title>Merchant&#45;&gt;NPC</title>
<path fill="none" stroke="black" stroke-dasharray="5,2" d="M78.54,-799.48C84.74,-803.57 91.17,-808.01 97,-812.37 128.95,-836.3 163.45,-866.35 186.65,-887.24"/>
<polygon fill="black" stroke="black" points="184.6,-890.1 194.36,-894.22 189.3,-884.91 184.6,-890.1"/>
<text text-anchor="middle" x="140.5" y="-871.17" font-family="Times,serif" font-size="14.00">(extends)</text>
</g>
<!-- Merchant&#45;&gt;WorldObject -->
<g id="edge71" class="edge">
<title>Merchant&#45;&gt;WorldObject</title>
<path fill="none" stroke="black" stroke-dasharray="5,2" d="M83.09,-782.16C151.66,-783.73 312.73,-787.19 448,-788.37 484,-788.69 493.15,-791.61 529,-788.37 531.65,-788.13 534.36,-787.84 537.09,-787.5"/>
<polygon fill="black" stroke="black" points="537.58,-790.96 546.99,-786.09 536.6,-784.03 537.58,-790.96"/>
<text text-anchor="middle" x="301" y="-790.17" font-family="Times,serif" font-size="14.00">(implements)</text>
</g>
<!-- Merchant&#45;&gt;string -->
<g id="edge68" class="edge">
<title>Merchant&#45;&gt;string</title>
<path fill="none" stroke="black" d="M83.44,-798.85C88.57,-802.72 93.36,-807.23 97,-812.37 116.55,-840.01 96.53,-858.01 115,-886.37 178.37,-983.7 241.74,-966.6 356,-987.37 440.07,-1002.66 461.69,-1004.48 547,-1009.37 585.6,-1011.59 602.81,-1032.23 634,-1009.37 655.43,-993.67 630.95,-968.58 652,-952.37 681.13,-929.95 947.09,-931.18 982.69,-940.37 1090.13,-968.12 1200.24,-1044.66 1249.2,-1081.73"/>
<polygon fill="black" stroke="black" points="1247.28,-1084.66 1257.35,-1087.96 1251.53,-1079.1 1247.28,-1084.66"/>
<text text-anchor="middle" x="684" y="-956.17" font-family="Times,serif" font-size="14.00">specialty</text>
</g>
<!-- Merchant&#45;&gt;uint32 -->
<g id="edge67" class="edge">
<title>Merchant&#45;&gt;uint32</title>
<path fill="none" stroke="black" d="M50.35,-763.2C54.46,-680.15 73.68,-336.62 115,-238.37 152.17,-149.99 178.14,-125.05 264,-82.37 512.42,41.09 634.56,15.43 888,-97.37 961.45,-130.07 987.19,-126.38 1051.69,-174.37 1066.2,-185.17 1079.81,-200.14 1090.04,-212.78"/>
<polygon fill="black" stroke="black" points="1087.32,-214.98 1096.25,-220.68 1092.82,-210.66 1087.32,-214.98"/>
<text text-anchor="middle" x="590.5" y="-12.17" font-family="Times,serif" font-size="14.00">gold</text>
</g>
<!-- NPC&#45;&gt;Combatant -->
<g id="edge50" class="edge">
<title>NPC&#45;&gt;Combatant</title>
<path fill="none" stroke="black" stroke-dasharray="5,2" d="M218.79,-894.24C223.99,-864.36 237.17,-803.66 264,-759.37 293.96,-709.92 309.45,-701.68 356,-667.37 385.93,-645.31 408.16,-658.46 430,-628.37 457.81,-590.05 417.36,-559.47 448,-523.37 472.65,-494.34 495.7,-513.86 529,-495.37 540.94,-488.75 552.87,-479.72 562.95,-471.22"/>
<polygon fill="black" stroke="black" points="565.34,-473.78 570.59,-464.58 560.75,-468.49 565.34,-473.78"/>
<text text-anchor="middle" x="393" y="-671.17" font-family="Times,serif" font-size="14.00">(implements)</text>
</g>
<!-- NPC&#45;&gt;Creature -->
<g id="edge49" class="edge">
<title>NPC&#45;&gt;Creature</title>
<path fill="none" stroke="black" stroke-dasharray="5,2" d="M242.04,-895.08C248.99,-890.9 256.63,-886.69 264,-883.37 295.41,-869.25 315.56,-886.5 338,-860.37 372.86,-819.8 330.49,-788.39 356,-741.37 357.1,-739.34 358.38,-737.38 359.8,-735.49"/>
<polygon fill="black" stroke="black" points="362.67,-737.53 366.66,-727.71 357.42,-732.9 362.67,-737.53"/>
<text text-anchor="middle" x="301" y="-887.17" font-family="Times,serif" font-size="14.00">(extends)</text>
</g>
<!-- NPC&#45;&gt;WorldObject -->
<g id="edge51" class="edge">
<title>NPC&#45;&gt;WorldObject</title>
<path fill="none" stroke="black" stroke-dasharray="5,2" d="M242.16,-910.46C308.46,-905.19 481.23,-888.85 529,-858.37 549.54,-845.27 565.59,-822.56 575.98,-804.52"/>
<polygon fill="black" stroke="black" points="579.15,-806.03 580.9,-795.58 573.01,-802.66 579.15,-806.03"/>
<text text-anchor="middle" x="393" y="-902.17" font-family="Times,serif" font-size="14.00">(implements)</text>
</g>
<!-- boolean -->
<g id="node24" class="node">
<title>boolean</title>
<ellipse fill="#ffffe0" stroke="black" cx="944.35" cy="-967.37" rx="38.19" ry="18"/>
<text text-anchor="middle" x="944.35" y="-963.67" font-family="Times,serif" font-size="14.00">boolean</text>
</g>
<!-- NPC&#45;&gt;boolean -->
<g id="edge48" class="edge">
<title>NPC&#45;&gt;boolean</title>
<path fill="none" stroke="black" d="M242.19,-926.31C269.65,-940.08 314.51,-960.24 356,-968.37 554.12,-1007.22 797.11,-985.38 897.06,-973.49"/>
<polygon fill="black" stroke="black" points="897.62,-976.95 907.13,-972.27 896.78,-970 897.62,-976.95"/>
<text text-anchor="middle" x="590.5" y="-994.17" font-family="Times,serif" font-size="14.00">quest_giver</text>
</g>
<!-- NPC&#45;&gt;string -->
<g id="edge47" class="edge">
<title>NPC&#45;&gt;string</title>
<path fill="none" stroke="black" d="M228.61,-930.4C259.91,-973.5 346.06,-1082.26 448,-1127.37 617.05,-1202.19 676.64,-1172.37 861.5,-1172.37 861.5,-1172.37 861.5,-1172.37 1110.19,-1172.37 1162.09,-1172.37 1216.4,-1142.74 1248.02,-1122.04"/>
<polygon fill="black" stroke="black" points="1250.36,-1124.69 1256.7,-1116.2 1246.45,-1118.88 1250.36,-1124.69"/>
<text text-anchor="middle" x="776.5" y="-1179.17" font-family="Times,serif" font-size="14.00">greeting</text>
</g>
<!-- Physical -->
<g id="node15" class="node">
<title>Physical</title>
<polygon fill="#ffb347" stroke="black" points="807.5,-509.37 745.5,-509.37 745.5,-473.37 807.5,-473.37 807.5,-509.37"/>
<text text-anchor="middle" x="776.5" y="-487.67" font-family="Times,serif" font-size="14.00">Physical</text>
</g>
<!-- Physical&#45;&gt;Positioned -->
<g id="edge18" class="edge">
<title>Physical&#45;&gt;Positioned</title>
<path fill="none" stroke="black" stroke-dasharray="5,2" d="M807.72,-491.37C865.73,-491.37 993.02,-491.37 1061.84,-491.37"/>
<polygon fill="black" stroke="black" points="1061.96,-494.87 1071.96,-491.37 1061.96,-487.87 1061.96,-494.87"/>
<text text-anchor="middle" x="944.35" y="-495.17" font-family="Times,serif" font-size="14.00">(extends)</text>
</g>
<!-- Physical&#45;&gt;boolean -->
<g id="edge17" class="edge">
<title>Physical&#45;&gt;boolean</title>
<path fill="none" stroke="black" d="M790.84,-509.4C799.73,-522.05 811.18,-539.63 819,-556.37 830.24,-580.44 822.63,-591.03 837,-613.37 853.51,-639.05 874.33,-632.08 888,-659.37 907.58,-698.48 897.02,-812.57 906,-855.37 912.2,-884.95 923.65,-917.6 932.24,-939.98"/>
<polygon fill="black" stroke="black" points="929.06,-941.45 935.96,-949.49 935.57,-938.9 929.06,-941.45"/>
<text text-anchor="middle" x="862.5" y="-663.17" font-family="Times,serif" font-size="14.00">solid</text>
</g>
<!-- Physical&#45;&gt;float32 -->
<g id="edge15" class="edge">
<title>Physical&#45;&gt;float32</title>
<path fill="none" stroke="black" d="M807.53,-488.06C891.91,-478.74 1131.46,-452.28 1231.11,-441.27"/>
<polygon fill="black" stroke="black" points="1231.6,-444.74 1241.15,-440.16 1230.83,-437.78 1231.6,-444.74"/>
<text text-anchor="middle" x="1026.19" y="-470.17" font-family="Times,serif" font-size="14.00">width</text>
</g>
<!-- Physical&#45;&gt;float32 -->
<g id="edge16" class="edge">
<title>Physical&#45;&gt;float32</title>
<path fill="none" stroke="black" d="M798.45,-473.33C835.95,-442.35 918.38,-380.19 1000.69,-357.37 1089.85,-332.67 1194.83,-385.82 1245.33,-416.55"/>
<polygon fill="black" stroke="black" points="1243.76,-419.7 1254.1,-422 1247.46,-413.75 1243.76,-419.7"/>
<text text-anchor="middle" x="1026.19" y="-361.17" font-family="Times,serif" font-size="14.00">height</text>
</g>
<!-- Player -->
<g id="node16" class="node">
<title>Player</title>
<polygon fill="#add8e6" stroke="black" points="242,-658.37 188,-658.37 188,-622.37 242,-622.37 242,-658.37"/>
<text text-anchor="middle" x="215" y="-636.67" font-family="Times,serif" font-size="14.00">Player</text>
</g>
<!-- Player&#45;&gt;Combatant -->
<g id="edge55" class="edge">
<title>Player&#45;&gt;Combatant</title>
<path fill="none" stroke="black" stroke-dasharray="5,2" d="M242.03,-636C293.43,-626.82 405.1,-604.02 430,-575.37 463.94,-536.33 410.4,-495.9 448,-460.37 472.5,-437.22 511.13,-434.79 541.84,-437.55"/>
<polygon fill="black" stroke="black" points="541.59,-441.05 551.92,-438.67 542.36,-434.09 541.59,-441.05"/>
<text text-anchor="middle" x="393" y="-613.17" font-family="Times,serif" font-size="14.00">(implements)</text>
</g>
<!-- Player&#45;&gt;Creature -->
<g id="edge54" class="edge">
<title>Player&#45;&gt;Creature</title>
<path fill="none" stroke="black" stroke-dasharray="5,2" d="M242.35,-650.7C271.33,-662.06 318.22,-680.45 351.8,-693.61"/>
<polygon fill="black" stroke="black" points="350.73,-696.95 361.32,-697.35 353.29,-690.44 350.73,-696.95"/>
<text text-anchor="middle" x="301" y="-690.17" font-family="Times,serif" font-size="14.00">(extends)</text>
</g>
<!-- Player&#45;&gt;WorldObject -->
<g id="edge56" class="edge">
<title>Player&#45;&gt;WorldObject</title>
<path fill="none" stroke="black" stroke-dasharray="5,2" d="M225.29,-658.49C233.62,-673.06 247.11,-693.06 264,-705.37 345.74,-764.96 467.59,-776.74 536.68,-778.22"/>
<polygon fill="black" stroke="black" points="536.84,-781.73 546.89,-778.37 536.94,-774.73 536.84,-781.73"/>
<text text-anchor="middle" x="393" y="-771.17" font-family="Times,serif" font-size="14.00">(implements)</text>
</g>
<!-- Player&#45;&gt;string -->
<g id="edge53" class="edge">
<title>Player&#45;&gt;string</title>
<path fill="none" stroke="black" d="M216.65,-658.59C218.75,-690.65 227.53,-757.53 264,-797.37 287.96,-823.55 316.34,-799.26 338,-827.37 376.55,-877.42 315.21,-920.13 356,-968.37 431.78,-1057.99 744.13,-1121.37 861.5,-1121.37 861.5,-1121.37 861.5,-1121.37 1110.19,-1121.37 1153.84,-1121.37 1203.55,-1114.75 1236.95,-1109.33"/>
<polygon fill="black" stroke="black" points="1237.9,-1112.71 1247.19,-1107.62 1236.75,-1105.81 1237.9,-1112.71"/>
<text text-anchor="middle" x="776.5" y="-1122.17" font-family="Times,serif" font-size="14.00">class_name</text>
</g>
<!-- Player&#45;&gt;uint32 -->
<g id="edge52" class="edge">
<title>Player&#45;&gt;uint32</title>
<path fill="none" stroke="black" d="M225.68,-622.3C260,-560.17 382.67,-354.11 547,-261.37 600.45,-231.21 621.62,-237.37 683,-237.37 683,-237.37 683,-237.37 945.35,-237.37 986.16,-237.37 1032.74,-237.37 1065.59,-237.37"/>
<polygon fill="black" stroke="black" points="1065.75,-240.87 1075.75,-237.37 1065.75,-233.87 1065.75,-240.87"/>
<text text-anchor="middle" x="684" y="-241.17" font-family="Times,serif" font-size="14.00">score</text>
</g>
<!-- Positioned&#45;&gt;float32 -->
<g id="edge3" class="edge">
<title>Positioned&#45;&gt;float32</title>
<path fill="none" stroke="black" d="M1146.26,-477.65C1153.03,-475.16 1160.06,-472.64 1166.69,-470.37 1189.37,-462.62 1214.95,-454.59 1235.59,-448.28"/>
<polygon fill="black" stroke="black" points="1236.75,-451.59 1245.3,-445.33 1234.71,-444.89 1236.75,-451.59"/>
<text text-anchor="middle" x="1194.69" y="-474.17" font-family="Times,serif" font-size="14.00">x</text>
</g>
<!-- Positioned&#45;&gt;float32 -->
<g id="edge4" class="edge">
<title>Positioned&#45;&gt;float32</title>
<path fill="none" stroke="black" d="M1146.31,-495.57C1169.09,-496.76 1198.65,-495.56 1222.69,-485.37 1235.28,-480.04 1246.74,-470.32 1255.74,-460.93"/>
<polygon fill="black" stroke="black" points="1258.59,-463 1262.69,-453.23 1253.39,-458.31 1258.59,-463"/>
<text text-anchor="middle" x="1194.69" y="-499.17" font-family="Times,serif" font-size="14.00">y</text>
</g>
<!-- Prop -->
<g id="node18" class="node">
<title>Prop</title>
<polygon fill="#add8e6" stroke="black" points="420,-959.37 366,-959.37 366,-923.37 420,-923.37 420,-959.37"/>
<text text-anchor="middle" x="393" y="-937.67" font-family="Times,serif" font-size="14.00">Prop</text>
</g>
<!-- Prop&#45;&gt;WorldObject -->
<g id="edge37" class="edge">
<title>Prop&#45;&gt;WorldObject</title>
<path fill="none" stroke="black" stroke-dasharray="5,2" d="M418.38,-923.36C427.36,-917.34 437.83,-910.99 448,-906.37 482.08,-890.91 499.54,-906.45 529,-883.37 554.54,-863.37 571.18,-829.37 580.42,-805.28"/>
<polygon fill="black" stroke="black" points="583.8,-806.22 583.93,-795.63 577.22,-803.83 583.8,-806.22"/>
<text text-anchor="middle" x="488.5" y="-910.17" font-family="Times,serif" font-size="14.00">(implements)</text>
</g>
<!-- Prop&#45;&gt;boolean -->
<g id="edge36" class="edge">
<title>Prop&#45;&gt;boolean</title>
<path fill="none" stroke="black" d="M420.45,-937.92C486.76,-929.48 658.88,-908.92 716,-915.37 782.02,-922.83 856.81,-942.09 902,-954.96"/>
<polygon fill="black" stroke="black" points="901.16,-958.36 911.73,-957.76 903.09,-951.63 901.16,-958.36"/>
<text text-anchor="middle" x="684" y="-919.17" font-family="Times,serif" font-size="14.00">destructible</text>
</g>
<!-- Renderable -->
<g id="node19" class="node">
<title>Renderable</title>
<polygon fill="#ffb347" stroke="black" points="815.5,-1047.37 737.5,-1047.37 737.5,-1011.37 815.5,-1011.37 815.5,-1047.37"/>
<text text-anchor="middle" x="776.5" y="-1025.67" font-family="Times,serif" font-size="14.00">Renderable</text>
</g>
<!-- Renderable&#45;&gt;string -->
<g id="edge6" class="edge">
<title>Renderable&#45;&gt;string</title>
<path fill="none" stroke="black" d="M815.62,-1042.7C822.67,-1044.84 830.01,-1046.84 837,-1048.37 981.89,-1080.14 1158.1,-1094.73 1235.61,-1099.96"/>
<polygon fill="black" stroke="black" points="1235.67,-1103.48 1245.87,-1100.64 1236.13,-1096.49 1235.67,-1103.48"/>
<text text-anchor="middle" x="1026.19" y="-1086.17" font-family="Times,serif" font-size="14.00">sprite</text>
</g>
<!-- Renderable&#45;&gt;uint8 -->
<g id="edge7" class="edge">
<title>Renderable&#45;&gt;uint8</title>
<path fill="none" stroke="black" d="M815.55,-1029.37C842.48,-1029.37 878.45,-1029.37 905.37,-1029.37"/>
<polygon fill="black" stroke="black" points="905.56,-1032.87 915.56,-1029.37 905.56,-1025.87 905.56,-1032.87"/>
<text text-anchor="middle" x="862.5" y="-1033.17" font-family="Times,serif" font-size="14.00">layer</text>
</g>
<!-- Timed -->
<g id="node20" class="node">
<title>Timed</title>
<polygon fill="#ffb347" stroke="black" points="1136.19,-729.37 1082.19,-729.37 1082.19,-693.37 1136.19,-693.37 1136.19,-729.37"/>
<text text-anchor="middle" x="1109.19" y="-707.67" font-family="Times,serif" font-size="14.00">Timed</text>
</g>
<!-- uint64 -->
<g id="node31" class="node">
<title>uint64</title>
<ellipse fill="#ffffe0" stroke="black" cx="1276.44" cy="-711.37" rx="33.29" ry="18"/>
<text text-anchor="middle" x="1276.44" y="-707.67" font-family="Times,serif" font-size="14.00">uint64</text>
</g>
<!-- Timed&#45;&gt;uint64 -->
<g id="edge5" class="edge">
<title>Timed&#45;&gt;uint64</title>
<path fill="none" stroke="black" d="M1136.38,-711.37C1162.26,-711.37 1202.31,-711.37 1232.79,-711.37"/>
<polygon fill="black" stroke="black" points="1233.14,-714.87 1243.14,-711.37 1233.14,-707.87 1233.14,-714.87"/>
<text text-anchor="middle" x="1194.69" y="-715.17" font-family="Times,serif" font-size="14.00">created_at</text>
</g>
<!-- Trackable&#45;&gt;Identifiable -->
<g id="edge13" class="edge">
<title>Trackable&#45;&gt;Identifiable</title>
<path fill="none" stroke="black" stroke-dasharray="5,2" d="M980.07,-838.87C986.88,-840.8 993.99,-842.72 1000.69,-844.37 1019.81,-849.09 1041.02,-853.58 1059.5,-857.26"/>
<polygon fill="black" stroke="black" points="1058.98,-860.73 1069.47,-859.22 1060.33,-853.86 1058.98,-860.73"/>
<text text-anchor="middle" x="1026.19" y="-859.17" font-family="Times,serif" font-size="14.00">(extends)</text>
</g>
<!-- Trackable&#45;&gt;Timed -->
<g id="edge14" class="edge">
<title>Trackable&#45;&gt;Timed</title>
<path fill="none" stroke="black" stroke-dasharray="5,2" d="M980.09,-824.25C1006.56,-820.56 1040.33,-814.47 1051.69,-806.37 1074.87,-789.86 1090.15,-760.6 1098.91,-738.9"/>
<polygon fill="black" stroke="black" points="1102.19,-740.13 1102.48,-729.54 1095.65,-737.64 1102.19,-740.13"/>
<text text-anchor="middle" x="1026.19" y="-824.17" font-family="Times,serif" font-size="14.00">(extends)</text>
</g>
<!-- Weapon&#45;&gt;Element -->
<g id="edge40" class="edge">
<title>Weapon&#45;&gt;Element</title>
<path fill="none" stroke="black" d="M246.26,-242.33C275.43,-246.14 319.77,-251.94 351.88,-256.13"/>
<polygon fill="black" stroke="black" points="351.48,-259.61 361.85,-257.43 352.38,-252.67 351.48,-259.61"/>
<text text-anchor="middle" x="301" y="-257.17" font-family="Times,serif" font-size="14.00">element</text>
</g>
<!-- Weapon&#45;&gt;Item -->
<g id="edge41" class="edge">
<title>Weapon&#45;&gt;Item</title>
<path fill="none" stroke="black" stroke-dasharray="5,2" d="M227.79,-220.14C236.36,-208.47 249.06,-194.13 264,-186.37 292.46,-171.61 329.07,-168.03 355.84,-167.76"/>
<polygon fill="black" stroke="black" points="355.92,-171.26 365.94,-167.8 355.95,-164.26 355.92,-171.26"/>
<text text-anchor="middle" x="301" y="-190.17" font-family="Times,serif" font-size="14.00">(extends)</text>
</g>
<!-- Weapon&#45;&gt;WorldObject -->
<g id="edge42" class="edge">
<title>Weapon&#45;&gt;WorldObject</title>
<path fill="none" stroke="black" stroke-dasharray="5,2" d="M219.62,-256.79C226.01,-287.26 240.87,-349.64 264,-398.37 295.29,-464.3 297.14,-491.23 356,-534.37 383.67,-554.66 405.21,-532.65 430,-556.37 447.67,-573.28 433.99,-588.33 448,-608.37 474.61,-646.43 500.17,-637.97 529,-674.37 540.36,-688.71 538.03,-695.44 547,-711.37 554.45,-724.62 563.48,-738.86 571.3,-750.71"/>
<polygon fill="black" stroke="black" points="568.53,-752.87 576.99,-759.24 574.36,-748.98 568.53,-752.87"/>
<text text-anchor="middle" x="393" y="-560.17" font-family="Times,serif" font-size="14.00">(implements)</text>
</g>
<!-- Weapon&#45;&gt;float32 -->
<g id="edge39" class="edge">
<title>Weapon&#45;&gt;float32</title>
<path fill="none" stroke="black" d="M223.03,-220.28C230.59,-203.25 244.24,-178.33 264,-164.37 332.51,-115.97 365.23,-135.96 448,-122.37 755.39,-71.9 842.89,-46.03 1148.69,-105.37 1182.91,-112.01 1200.18,-104.76 1222.69,-131.37 1257.95,-173.06 1270.47,-340.71 1274.13,-408.11"/>
<polygon fill="black" stroke="black" points="1270.65,-408.59 1274.67,-418.4 1277.64,-408.23 1270.65,-408.59"/>
<text text-anchor="middle" x="776.5" y="-81.17" font-family="Times,serif" font-size="14.00">attack_range</text>
</g>
<!-- Weapon&#45;&gt;uint16 -->
<g id="edge38" class="edge">
<title>Weapon&#45;&gt;uint16</title>
<path fill="none" stroke="black" d="M246.04,-237.27C274.38,-236.28 318.07,-234.92 356,-234.37 388.89,-233.9 398.24,-225.82 430,-234.37 488.07,-250.02 491.5,-279.19 547,-302.37 610.29,-328.81 688.17,-347.13 734.72,-356.68"/>
<polygon fill="black" stroke="black" points="734.23,-360.15 744.72,-358.69 735.61,-353.29 734.23,-360.15"/>
<text text-anchor="middle" x="488.5" y="-297.17" font-family="Times,serif" font-size="14.00">damage</text>
</g>
<!-- WorldObject&#45;&gt;GameEntity -->
<g id="edge21" class="edge">
<title>WorldObject&#45;&gt;GameEntity</title>
<path fill="none" stroke="black" stroke-dasharray="5,2" d="M627.21,-759.36C635.33,-755.35 643.94,-751.17 652,-747.37 676.07,-736.05 703.02,-723.98 725.6,-714.04"/>
<polygon fill="black" stroke="black" points="727.24,-717.14 734.98,-709.91 724.42,-710.73 727.24,-717.14"/>
<text text-anchor="middle" x="684" y="-751.17" font-family="Times,serif" font-size="14.00">(extends)</text>
</g>
<!-- WorldObject&#45;&gt;Physical -->
<g id="edge23" class="edge">
<title>WorldObject&#45;&gt;Physical</title>
<path fill="none" stroke="black" stroke-dasharray="5,2" d="M606.26,-759.18C615.72,-746.53 627.44,-728.85 634,-711.37 653.27,-660.06 619.85,-633.76 652,-589.37 670.65,-563.62 690.69,-576.63 716,-557.37 730.81,-546.11 744.86,-530.81 755.6,-517.78"/>
<polygon fill="black" stroke="black" points="758.62,-519.6 762.14,-509.61 753.16,-515.23 758.62,-519.6"/>
<text text-anchor="middle" x="684" y="-593.17" font-family="Times,serif" font-size="14.00">(extends)</text>
</g>
<!-- WorldObject&#45;&gt;Renderable -->
<g id="edge22" class="edge">
<title>WorldObject&#45;&gt;Renderable</title>
<path fill="none" stroke="black" stroke-dasharray="5,2" d="M592.4,-795.47C595.18,-832.78 606.44,-919.12 652,-971.37 671.67,-993.93 702.01,-1008.35 727.69,-1017.17"/>
<polygon fill="black" stroke="black" points="726.69,-1020.53 737.28,-1020.28 728.85,-1013.87 726.69,-1020.53"/>
<text text-anchor="middle" x="684" y="-1016.17" font-family="Times,serif" font-size="14.00">(extends)</text>
</g>
<!-- character -->
<g id="node25" class="node">
<title>character</title>
<ellipse fill="#ffffe0" stroke="black" cx="1401.08" cy="-1102.37" rx="42.79" ry="18"/>
<text text-anchor="middle" x="1401.08" y="-1098.67" font-family="Times,serif" font-size="14.00">character</text>
</g>
<!-- string&#45;&gt;character -->
<g id="edge1" class="edge">
<title>string&#45;&gt;character</title>
<path fill="none" stroke="black" d="M1307.13,-1102.37C1319.45,-1102.37 1334.12,-1102.37 1348.12,-1102.37"/>
<polygon fill="black" stroke="black" points="1348.16,-1105.87 1358.16,-1102.37 1348.15,-1098.87 1348.16,-1105.87"/>
<text text-anchor="middle" x="1335.19" y="-1106.17" font-family="Times,serif" font-size="14.00">[]</text>
</g>
</g>
</svg>
