<?xml version="1.0" encoding="UTF-8" standalone="no"?>
<!DOCTYPE svg PUBLIC "-//W3C//DTD SVG 1.1//EN"
 "http://www.w3.org/Graphics/SVG/1.1/DTD/svg11.dtd">
<!-- Generated by graphviz version 2.43.0 (0)
 -->
<!-- Title: types Pages: 1 -->
<svg width="225pt" height="180pt"
 viewBox="0.00 0.00 225.00 180.00" xmlns="http://www.w3.org/2000/svg" xmlns:xlink="http://www.w3.org/1999/xlink">
<g id="graph0" class="graph" transform="scale(1 1) rotate(0) translate(4 176)">
<title>types</title>
<polygon fill="white" stroke="transparent" points="-4,4 -4,-176 221,-176 221,4 -4,4"/>
<text text-anchor="middle" x="108.5" y="-153.6" font-family="Times,serif" font-size="18.00">graph Boss declared fields</text>
<!-- Boss -->
<g id="node1" class="node">
<title>Boss</title>
<polygon fill="#add8e6" stroke="black" points="54,-90 0,-90 0,-54 54,-54 54,-90"/>
<text text-anchor="middle" x="27" y="-68.3" font-family="Times,serif" font-size="14.00">Boss</text>
</g>
<!-- Boss.phase -->
<g id="node2" class="node">
<title>Boss.phase</title>
<polygon fill="lightgrey" stroke="transparent" points="195,-144 112,-144 112,-108 195,-108 195,-144"/>
<text text-anchor="middle" x="153.5" y="-122.3" font-family="Times,serif" font-size="14.00">phase: uint8</text>
</g>
<!-- Boss&#45;&gt;Boss.phase -->
<g id="edge1" class="edge">
<title>Boss&#45;&gt;Boss.phase</title>
<path fill="none" stroke="black" d="M54.24,-83.45C65.28,-88.26 78.26,-93.91 90,-99 94.07,-100.77 98.3,-102.6 102.54,-104.43"/>
<polygon fill="black" stroke="black" points="101.24,-107.69 111.81,-108.44 104.02,-101.26 101.24,-107.69"/>
</g>
<!-- Boss.title -->
<g id="node3" class="node">
<title>Boss.title</title>
<polygon fill="lightgrey" stroke="transparent" points="191.5,-90 115.5,-90 115.5,-54 191.5,-54 191.5,-90"/>
<text text-anchor="middle" x="153.5" y="-68.3" font-family="Times,serif" font-size="14.00">title: string</text>
</g>
<!-- Boss&#45;&gt;Boss.title -->
<g id="edge2" class="edge">
<title>Boss&#45;&gt;Boss.title</title>
<path fill="none" stroke="black" d="M54.1,-72C68.74,-72 87.47,-72 104.65,-72"/>
<polygon fill="black" stroke="black" points="105.1,-75.5 115.1,-72 105.1,-68.5 105.1,-75.5"/>
</g>
<!-- Boss.reward_gold -->
<g id="node4" class="node">
<title>Boss.reward_gold</title>
<polygon fill="lightgrey" stroke="transparent" points="217,-36 90,-36 90,0 217,0 217,-36"/>
<text text-anchor="middle" x="153.5" y="-14.3" font-family="Times,serif" font-size="14.00">reward_gold: uint32</text>
</g>
<!-- Boss&#45;&gt;Boss.reward_gold -->
<g id="edge3" class="edge">
<title>Boss&#45;&gt;Boss.reward_gold</title>
<path fill="none" stroke="black" d="M54.24,-60.55C65.28,-55.74 78.26,-50.09 90,-45 93.62,-43.43 97.35,-41.81 101.12,-40.18"/>
<polygon fill="black" stroke="black" points="102.68,-43.32 110.47,-36.14 99.9,-36.9 102.68,-43.32"/>
</g>
</g>
</svg>
