<?xml version="1.0" encoding="UTF-8" standalone="no"?>
<!DOCTYPE svg PUBLIC "-//W3C//DTD SVG 1.1//EN"
 "http://www.w3.org/Graphics/SVG/1.1/DTD/svg11.dtd">
<!-- Generated by graphviz version 2.43.0 (0)
 -->
<!-- Title: types Pages: 1 -->
<svg width="284pt" height="1156pt"
 viewBox="0.00 0.00 283.69 1155.99" xmlns="http://www.w3.org/2000/svg" xmlns:xlink="http://www.w3.org/1999/xlink">
<g id="graph0" class="graph" transform="scale(1 1) rotate(0) translate(4 1151.99)">
<title>types</title>
<polygon fill="white" stroke="transparent" points="-4,4 -4,-1151.99 279.69,-1151.99 279.69,4 -4,4"/>
<text text-anchor="middle" x="137.85" y="-1129.59" font-family="Times,serif" font-size="18.00">graph Boss stored origin</text>
<!-- Boss -->
<g id="node1" class="node">
<title>Boss</title>
<polygon fill="#add8e6" stroke="black" stroke-width="3" points="54,-541.99 0,-541.99 0,-505.99 54,-505.99 54,-541.99"/>
<text text-anchor="middle" x="27" y="-520.29" font-family="Times,serif" font-size="14.00">Boss</text>
</g>
<!-- Faction -->
<g id="node2" class="node">
<title>Faction</title>
<polygon fill="#90ee90" stroke="black" points="265.85,-1098.99 208.85,-1098.99 208.85,-1062.99 265.85,-1062.99 265.85,-1098.99"/>
<text text-anchor="middle" x="237.35" y="-1077.29" font-family="Times,serif" font-size="14.00">Faction</text>
</g>
<!-- Boss&#45;&gt;Faction -->
<g id="edge17" class="edge">
<title>Boss&#45;&gt;Faction</title>
<path fill="none" stroke="black" d="M28.17,-542.14C29.18,-631.37 35.65,-1020.73 72,-1058.99 103.99,-1092.65 160.93,-1092.62 198.67,-1088"/>
<polygon fill="black" stroke="black" points="199.34,-1091.44 208.77,-1086.6 198.38,-1084.51 199.34,-1091.44"/>
<text text-anchor="middle" x="126.5" y="-1108.79" font-family="Times,serif" font-size="14.00">faction</text>
<text text-anchor="middle" x="126.5" y="-1093.79" font-family="Times,serif" font-size="14.00">(from Creature)</text>
</g>
<!-- boolean -->
<g id="node3" class="node">
<title>boolean</title>
<ellipse fill="#ffffe0" stroke="black" cx="237.35" cy="-1000.99" rx="38.19" ry="18"/>
<text text-anchor="middle" x="237.35" y="-997.29" font-family="Times,serif" font-size="14.00">boolean</text>
</g>
<!-- Boss&#45;&gt;boolean -->
<g id="edge14" class="edge">
<title>Boss&#45;&gt;boolean</title>
<path fill="none" stroke="black" d="M28.24,-542.08C29.56,-625.94 37.09,-974.12 72,-1005.99 105.53,-1036.6 160.83,-1027.24 197.91,-1015.77"/>
<polygon fill="black" stroke="black" points="199.44,-1018.95 207.85,-1012.51 197.26,-1012.3 199.44,-1018.95"/>
<text text-anchor="middle" x="126.5" y="-1044.79" font-family="Times,serif" font-size="14.00">solid</text>
<text text-anchor="middle" x="126.5" y="-1029.79" font-family="Times,serif" font-size="14.00">(from Physical)</text>
</g>
<!-- Boss&#45;&gt;boolean -->
<g id="edge19" class="edge">
<title>Boss&#45;&gt;boolean</title>
<path fill="none" stroke="black" d="M28.59,-542.01C31.28,-619.59 43.54,-922.45 72,-952.99 105.53,-988.96 134.44,-956.16 181,-971.99 188.8,-974.64 196.84,-978.27 204.3,-982.06"/>
<polygon fill="black" stroke="black" points="202.89,-985.28 213.36,-986.9 206.19,-979.1 202.89,-985.28"/>
<text text-anchor="middle" x="126.5" y="-990.79" font-family="Times,serif" font-size="14.00">quest_giver</text>
<text text-anchor="middle" x="126.5" y="-975.79" font-family="Times,serif" font-size="14.00">(from NPC)</text>
</g>
<!-- float32 -->
<g id="node4" class="node">
<title>float32</title>
<ellipse fill="#ffffe0" stroke="black" cx="237.35" cy="-815.99" rx="36" ry="18"/>
<text text-anchor="middle" x="237.35" y="-812.29" font-family="Times,serif" font-size="14.00">float32</text>
</g>
<!-- Boss&#45;&gt;float32 -->
<g id="edge2" class="edge">
<title>Boss&#45;&gt;float32</title>
<path fill="none" stroke="black" d="M28.74,-542.28C31.85,-614.36 44.93,-875.9 72,-899.99 108.19,-932.19 138.35,-922.96 181,-899.99 203.1,-888.08 217.83,-863.07 226.5,-843.42"/>
<polygon fill="black" stroke="black" points="229.8,-844.59 230.38,-834.01 223.33,-841.92 229.8,-844.59"/>
<text text-anchor="middle" x="126.5" y="-938.79" font-family="Times,serif" font-size="14.00">x</text>
<text text-anchor="middle" x="126.5" y="-923.79" font-family="Times,serif" font-size="14.00">(from Positioned)</text>
</g>
<!-- Boss&#45;&gt;float32 -->
<g id="edge3" class="edge">
<title>Boss&#45;&gt;float32</title>
<path fill="none" stroke="black" d="M27.51,-542.24C26.29,-604.48 25.96,-806.79 72,-846.99 109.15,-879.42 169.33,-855.18 205.64,-835.18"/>
<polygon fill="black" stroke="black" points="207.82,-837.97 214.77,-829.97 204.35,-831.89 207.82,-837.97"/>
<text text-anchor="middle" x="126.5" y="-880.79" font-family="Times,serif" font-size="14.00">y</text>
<text text-anchor="middle" x="126.5" y="-865.79" font-family="Times,serif" font-size="14.00">(from Positioned)</text>
</g>
<!-- Boss&#45;&gt;float32 -->
<g id="edge12" class="edge">
<title>Boss&#45;&gt;float32</title>
<path fill="none" stroke="black" d="M28.25,-542.06C29.42,-596.76 35.9,-758.9 72,-793.99 80.49,-802.24 145.97,-808.97 191.67,-812.73"/>
<polygon fill="black" stroke="black" points="191.42,-816.22 201.66,-813.53 191.97,-809.24 191.42,-816.22"/>
<text text-anchor="middle" x="126.5" y="-829.79" font-family="Times,serif" font-size="14.00">width</text>
<text text-anchor="middle" x="126.5" y="-814.79" font-family="Times,serif" font-size="14.00">(from Physical)</text>
</g>
<!-- Boss&#45;&gt;float32 -->
<g id="edge13" class="edge">
<title>Boss&#45;&gt;float32</title>
<path fill="none" stroke="black" d="M29.11,-542.09C32.37,-589.09 43.55,-713.31 72,-740.99 107.25,-775.28 137.43,-737.2 181,-759.99 195.23,-767.43 208.06,-779.84 217.77,-791.08"/>
<polygon fill="black" stroke="black" points="215.21,-793.48 224.27,-798.98 220.62,-789.03 215.21,-793.48"/>
<text text-anchor="middle" x="126.5" y="-778.79" font-family="Times,serif" font-size="14.00">height</text>
<text text-anchor="middle" x="126.5" y="-763.79" font-family="Times,serif" font-size="14.00">(from Physical)</text>
</g>
<!-- Boss&#45;&gt;float32 -->
<g id="edge15" class="edge">
<title>Boss&#45;&gt;float32</title>
<path fill="none" stroke="black" d="M27.18,-542.16C26.74,-575.83 30.98,-647.93 72,-685.99 108.17,-719.54 141.6,-677.3 181,-706.99 207.52,-726.97 222.3,-763.23 229.78,-788.42"/>
<polygon fill="black" stroke="black" points="226.42,-789.42 232.47,-798.13 233.17,-787.56 226.42,-789.42"/>
<text text-anchor="middle" x="126.5" y="-725.79" font-family="Times,serif" font-size="14.00">speed</text>
<text text-anchor="middle" x="126.5" y="-710.79" font-family="Times,serif" font-size="14.00">(from Creature)</text>
</g>
<!-- int16 -->
<g id="node5" class="node">
<title>int16</title>
<ellipse fill="#ffffe0" stroke="black" cx="237.35" cy="-630.99" rx="28.7" ry="18"/>
<text text-anchor="middle" x="237.35" y="-627.29" font-family="Times,serif" font-size="14.00">int16</text>
</g>
<!-- Boss&#45;&gt;int16 -->
<g id="edge6" class="edge">
<title>Boss&#45;&gt;int16</title>
<path fill="none" stroke="black" d="M29.22,-542.41C32.02,-568.18 41.31,-614.14 72,-634.99 110.46,-661.12 166.53,-652.37 202.22,-642.55"/>
<polygon fill="black" stroke="black" points="203.54,-645.81 212.16,-639.65 201.58,-639.09 203.54,-645.81"/>
<text text-anchor="middle" x="126.5" y="-670.79" font-family="Times,serif" font-size="14.00">hp</text>
<text text-anchor="middle" x="126.5" y="-655.79" font-family="Times,serif" font-size="14.00">(from Damageable)</text>
</g>
<!-- Boss&#45;&gt;int16 -->
<g id="edge7" class="edge">
<title>Boss&#45;&gt;int16</title>
<path fill="none" stroke="black" d="M40.25,-542.31C48.14,-552.76 59.29,-565.28 72,-572.99 114.76,-598.93 134.44,-582.71 181,-600.99 189.87,-604.47 199.12,-609.06 207.46,-613.6"/>
<polygon fill="black" stroke="black" points="205.99,-616.79 216.42,-618.64 209.42,-610.69 205.99,-616.79"/>
<text text-anchor="middle" x="126.5" y="-619.79" font-family="Times,serif" font-size="14.00">max_hp</text>
<text text-anchor="middle" x="126.5" y="-604.79" font-family="Times,serif" font-size="14.00">(from Damageable)</text>
</g>
<!-- string -->
<g id="node6" class="node">
<title>string</title>
<ellipse fill="#ffffe0" stroke="black" cx="237.35" cy="-471.99" rx="30.59" ry="18"/>
<text text-anchor="middle" x="237.35" y="-468.29" font-family="Times,serif" font-size="14.00">string</text>
</g>
<!-- Boss&#45;&gt;string -->
<g id="edge1" class="edge">
<title>Boss&#45;&gt;string</title>
<path fill="none" stroke="black" d="M54.11,-531.26C85.57,-538.61 139.39,-546.58 181,-528.99 196.59,-522.4 209.95,-509.03 219.63,-496.9"/>
<polygon fill="black" stroke="black" points="222.51,-498.89 225.73,-488.79 216.92,-494.68 222.51,-498.89"/>
<text text-anchor="middle" x="126.5" y="-557.79" font-family="Times,serif" font-size="14.00">name</text>
<text text-anchor="middle" x="126.5" y="-542.79" font-family="Times,serif" font-size="14.00">(from Identifiable)</text>
</g>
<!-- Boss&#45;&gt;string -->
<g id="edge10" class="edge">
<title>Boss&#45;&gt;string</title>
<path fill="none" stroke="black" d="M51.16,-505.98C57.6,-501.76 64.81,-497.7 72,-494.99 94.18,-486.62 155.75,-479.5 196.91,-475.49"/>
<polygon fill="black" stroke="black" points="197.27,-478.97 206.89,-474.54 196.61,-472 197.27,-478.97"/>
<text text-anchor="middle" x="126.5" y="-513.79" font-family="Times,serif" font-size="14.00">sprite</text>
<text text-anchor="middle" x="126.5" y="-498.79" font-family="Times,serif" font-size="14.00">(from Renderable)</text>
</g>
<!-- Boss&#45;&gt;string -->
<g id="edge18" class="edge">
<title>Boss&#45;&gt;string</title>
<path fill="none" stroke="black" d="M32.12,-505.68C37.59,-486.23 49.31,-456.49 72,-442.99 113.64,-418.22 133.96,-431.41 181,-442.99 190.11,-445.23 199.38,-449.26 207.66,-453.63"/>
<polygon fill="black" stroke="black" points="206.1,-456.76 216.53,-458.61 209.53,-450.66 206.1,-456.76"/>
<text text-anchor="middle" x="126.5" y="-461.79" font-family="Times,serif" font-size="14.00">greeting</text>
<text text-anchor="middle" x="126.5" y="-446.79" font-family="Times,serif" font-size="14.00">(from NPC)</text>
</g>
<!-- Boss&#45;&gt;string -->
<g id="edge21" class="edge">
<title>Boss&#45;&gt;string</title>
<path fill="none" stroke="black" d="M28.91,-505.81C31.33,-479.33 40.12,-430.92 72,-408.99 111.91,-381.53 136.87,-389.01 181,-408.99 197.97,-416.67 211.81,-432.41 221.4,-446.24"/>
<polygon fill="black" stroke="black" points="218.68,-448.48 227.08,-454.95 224.55,-444.66 218.68,-448.48"/>
<text text-anchor="middle" x="126.5" y="-412.79" font-family="Times,serif" font-size="14.00">title</text>
</g>
<!-- uint16 -->
<g id="node7" class="node">
<title>uint16</title>
<ellipse fill="#ffffe0" stroke="black" cx="237.35" cy="-327.99" rx="33.29" ry="18"/>
<text text-anchor="middle" x="237.35" y="-324.29" font-family="Times,serif" font-size="14.00">uint16</text>
</g>
<!-- Boss&#45;&gt;uint16 -->
<g id="edge8" class="edge">
<title>Boss&#45;&gt;uint16</title>
<path fill="none" stroke="black" d="M30.31,-505.84C35.64,-466.9 50.05,-377.19 72,-356.99 80.97,-348.73 149.16,-338.8 194.84,-332.96"/>
<polygon fill="black" stroke="black" points="195.29,-336.43 204.78,-331.71 194.42,-329.49 195.29,-336.43"/>
<text text-anchor="middle" x="126.5" y="-375.79" font-family="Times,serif" font-size="14.00">attack</text>
<text text-anchor="middle" x="126.5" y="-360.79" font-family="Times,serif" font-size="14.00">(from Combatant)</text>
</g>
<!-- Boss&#45;&gt;uint16 -->
<g id="edge9" class="edge">
<title>Boss&#45;&gt;uint16</title>
<path fill="none" stroke="black" d="M28.73,-505.81C31.11,-457.35 40.37,-326.98 72,-300.99 109.73,-269.98 169.22,-291.64 205.32,-309.97"/>
<polygon fill="black" stroke="black" points="203.93,-313.19 214.41,-314.76 207.2,-307 203.93,-313.19"/>
<text text-anchor="middle" x="126.5" y="-319.79" font-family="Times,serif" font-size="14.00">defense</text>
<text text-anchor="middle" x="126.5" y="-304.79" font-family="Times,serif" font-size="14.00">(from Combatant)</text>
</g>
<!-- uint32 -->
<g id="node8" class="node">
<title>uint32</title>
<ellipse fill="#ffffe0" stroke="black" cx="237.35" cy="-229.99" rx="33.29" ry="18"/>
<text text-anchor="middle" x="237.35" y="-226.29" font-family="Times,serif" font-size="14.00">uint32</text>
</g>
<!-- Boss&#45;&gt;uint32 -->
<g id="edge4" class="edge">
<title>Boss&#45;&gt;uint32</title>
<path fill="none" stroke="black" d="M28.21,-505.7C29.26,-450.37 35.43,-286.38 72,-250.99 88.85,-234.68 150.91,-230.63 193.75,-229.83"/>
<polygon fill="black" stroke="black" points="193.97,-233.33 203.92,-229.7 193.87,-226.33 193.97,-233.33"/>
<text text-anchor="middle" x="126.5" y="-269.79" font-family="Times,serif" font-size="14.00">id</text>
<text text-anchor="middle" x="126.5" y="-254.79" font-family="Times,serif" font-size="14.00">(from Entity)</text>
</g>
<!-- Boss&#45;&gt;uint32 -->
<g id="edge22" class="edge">
<title>Boss&#45;&gt;uint32</title>
<path fill="none" stroke="black" d="M27.6,-505.88C26.7,-445.06 27.38,-249.78 72,-210.99 108.22,-179.51 167.16,-197.21 203.74,-213.31"/>
<polygon fill="black" stroke="black" points="202.43,-216.55 212.98,-217.55 205.35,-210.19 202.43,-216.55"/>
<text text-anchor="middle" x="126.5" y="-214.79" font-family="Times,serif" font-size="14.00">reward_gold</text>
</g>
<!-- uint64 -->
<g id="node9" class="node">
<title>uint64</title>
<ellipse fill="#ffffe0" stroke="black" cx="237.35" cy="-156.99" rx="33.29" ry="18"/>
<text text-anchor="middle" x="237.35" y="-153.29" font-family="Times,serif" font-size="14.00">uint64</text>
</g>
<!-- Boss&#45;&gt;uint64 -->
<g id="edge5" class="edge">
<title>Boss&#45;&gt;uint64</title>
<path fill="none" stroke="black" d="M28.82,-505.75C32.16,-435.14 45.88,-182.44 72,-158.99 106.06,-128.41 161.97,-135.37 198.97,-144.83"/>
<polygon fill="black" stroke="black" points="198.3,-148.27 208.87,-147.53 200.15,-141.52 198.3,-148.27"/>
<text text-anchor="middle" x="126.5" y="-177.79" font-family="Times,serif" font-size="14.00">created_at</text>
<text text-anchor="middle" x="126.5" y="-162.79" font-family="Times,serif" font-size="14.00">(from Timed)</text>
</g>
<!-- uint8 -->
<g id="node10" class="node">
<title>uint8</title>
<ellipse fill="#ffffe0" stroke="black" cx="237.35" cy="-50.99" rx="28.7" ry="18"/>
<text text-anchor="middle" x="237.35" y="-47.29" font-family="Times,serif" font-size="14.00">uint8</text>
</g>
<!-- Boss&#45;&gt;uint8 -->
<g id="edge11" class="edge">
<title>Boss&#45;&gt;uint8</title>
<path fill="none" stroke="black" d="M28.63,-505.74C31.48,-428.64 44.17,-132.06 72,-101.99 105.45,-65.84 134.67,-98.69 181,-81.99 190.28,-78.64 199.85,-73.84 208.36,-69.01"/>
<polygon fill="black" stroke="black" points="210.29,-71.93 217.12,-63.83 206.73,-65.91 210.29,-71.93"/>
<text text-anchor="middle" x="126.5" y="-120.79" font-family="Times,serif" font-size="14.00">layer</text>
<text text-anchor="middle" x="126.5" y="-105.79" font-family="Times,serif" font-size="14.00">(from Renderable)</text>
</g>
<!-- Boss&#45;&gt;uint8 -->
<g id="edge16" class="edge">
<title>Boss&#45;&gt;uint8</title>
<path fill="none" stroke="black" d="M28.27,-505.84C29.67,-422.54 37.54,-79.41 72,-47.99 89.97,-31.6 156.87,-38.36 199.57,-44.72"/>
<polygon fill="black" stroke="black" points="199.18,-48.2 209.6,-46.27 200.25,-41.28 199.18,-48.2"/>
<text text-anchor="middle" x="126.5" y="-66.79" font-family="Times,serif" font-size="14.00">level</text>
<text text-anchor="middle" x="126.5" y="-51.79" font-family="Times,serif" font-size="14.00">(from Creature)</text>
</g>
<!-- Boss&#45;&gt;uint8 -->
<g id="edge20" class="edge">
<title>Boss&#45;&gt;uint8</title>
<path fill="none" stroke="black" d="M28.16,-505.87C29.12,-419.42 35.32,-51.62 72,-17.99 107.71,14.75 134.3,-5.12 181,-17.99 191.09,-20.77 201.19,-25.92 209.95,-31.34"/>
<polygon fill="black" stroke="black" points="208.26,-34.42 218.54,-37 212.11,-28.57 208.26,-34.42"/>
<text text-anchor="middle" x="126.5" y="-21.79" font-family="Times,serif" font-size="14.00">phase</text>
</g>
</g>
</svg>
