<?xml version="1.0" encoding="UTF-8" standalone="no"?>
<!DOCTYPE svg PUBLIC "-//W3C//DTD SVG 1.1//EN"
 "http://www.w3.org/Graphics/SVG/1.1/DTD/svg11.dtd">
<!-- Generated by graphviz version 2.43.0 (0)
 -->
<!-- Title: types Pages: 1 -->
<svg width="1091pt" height="265pt"
 viewBox="0.00 0.00 1091.00 265.00" xmlns="http://www.w3.org/2000/svg" xmlns:xlink="http://www.w3.org/1999/xlink">
<g id="graph0" class="graph" transform="scale(1 1) rotate(0) translate(4 261)">
<title>types</title>
<polygon fill="white" stroke="transparent" points="-4,4 -4,-261 1087,-261 1087,4 -4,4"/>
<text text-anchor="middle" x="541.5" y="-238.6" font-family="Times,serif" font-size="18.00">graph Boss structure</text>
<!-- Boss -->
<g id="node1" class="node">
<title>Boss</title>
<polygon fill="#add8e6" stroke="black" stroke-width="3" points="54,-133 0,-133 0,-97 54,-97 54,-133"/>
<text text-anchor="middle" x="27" y="-111.3" font-family="Times,serif" font-size="14.00">Boss</text>
</g>
<!-- Combatant -->
<g id="node2" class="node">
<title>Combatant</title>
<polygon fill="#ffb347" stroke="black" points="571,-187 494,-187 494,-151 571,-151 571,-187"/>
<text text-anchor="middle" x="532.5" y="-165.3" font-family="Times,serif" font-size="14.00">Combatant</text>
</g>
<!-- Boss&#45;&gt;Combatant -->
<g id="edge2" class="edge">
<title>Boss&#45;&gt;Combatant</title>
<path fill="none" stroke="black" stroke-dasharray="5,2" d="M54.18,-127.38C59.96,-129.81 66.12,-132.17 72,-134 172.8,-165.32 199.95,-169.73 305,-180 337.73,-183.2 346.11,-180.18 379,-180 419.89,-179.78 430.26,-182.57 471,-179 475.18,-178.63 479.5,-178.14 483.82,-177.58"/>
<polygon fill="black" stroke="black" points="484.45,-181.02 493.85,-176.14 483.46,-174.09 484.45,-181.02"/>
<text text-anchor="middle" x="250" y="-181.8" font-family="Times,serif" font-size="14.00">(implements)</text>
</g>
<!-- NPC -->
<g id="node8" class="node">
<title>NPC</title>
<polygon fill="#add8e6" stroke="black" points="195,-133 141,-133 141,-97 195,-97 195,-133"/>
<text text-anchor="middle" x="168" y="-111.3" font-family="Times,serif" font-size="14.00">NPC</text>
</g>
<!-- Boss&#45;&gt;NPC -->
<g id="edge1" class="edge">
<title>Boss&#45;&gt;NPC</title>
<path fill="none" stroke="black" stroke-dasharray="5,2" d="M54.14,-115C75.79,-115 106.78,-115 130.81,-115"/>
<polygon fill="black" stroke="black" points="130.97,-118.5 140.97,-115 130.97,-111.5 130.97,-118.5"/>
<text text-anchor="middle" x="97.5" y="-118.8" font-family="Times,serif" font-size="14.00">(extends)</text>
</g>
<!-- WorldObject -->
<g id="node14" class="node">
<title>WorldObject</title>
<polygon fill="#ffb347" stroke="black" points="576,-82 489,-82 489,-46 576,-46 576,-82"/>
<text text-anchor="middle" x="532.5" y="-60.3" font-family="Times,serif" font-size="14.00">WorldObject</text>
</g>
<!-- Boss&#45;&gt;WorldObject -->
<g id="edge3" class="edge">
<title>Boss&#45;&gt;WorldObject</title>
<path fill="none" stroke="black" stroke-dasharray="5,2" d="M54.07,-104.24C89.37,-90.31 154.68,-66.78 213,-58 305.73,-44.04 415.35,-51.2 478.8,-57.63"/>
<polygon fill="black" stroke="black" points="478.65,-61.14 488.96,-58.7 479.38,-54.18 478.65,-61.14"/>
<text text-anchor="middle" x="250" y="-61.8" font-family="Times,serif" font-size="14.00">(implements)</text>
</g>
<!-- Damageable -->
<g id="node4" class="node">
<title>Damageable</title>
<polygon fill="#ffb347" stroke="black" points="748,-196 663,-196 663,-160 748,-160 748,-196"/>
<text text-anchor="middle" x="705.5" y="-174.3" font-family="Times,serif" font-size="14.00">Damageable</text>
</g>
<!-- Combatant&#45;&gt;Damageable -->
<g id="edge5" class="edge">
<title>Combatant&#45;&gt;Damageable</title>
<path fill="none" stroke="black" stroke-dasharray="5,2" d="M571.03,-170.98C594.98,-172.24 626.36,-173.89 652.68,-175.27"/>
<polygon fill="black" stroke="black" points="652.69,-178.78 662.86,-175.81 653.06,-171.79 652.69,-178.78"/>
<text text-anchor="middle" x="619.5" y="-177.8" font-family="Times,serif" font-size="14.00">(extends)</text>
</g>
<!-- GameEntity -->
<g id="node6" class="node">
<title>GameEntity</title>
<polygon fill="#ffb347" stroke="black" points="747,-140 664,-140 664,-104 747,-104 747,-140"/>
<text text-anchor="middle" x="705.5" y="-118.3" font-family="Times,serif" font-size="14.00">GameEntity</text>
</g>
<!-- Combatant&#45;&gt;GameEntity -->
<g id="edge4" class="edge">
<title>Combatant&#45;&gt;GameEntity</title>
<path fill="none" stroke="black" stroke-dasharray="5,2" d="M571.03,-158.69C595.35,-152 627.33,-143.21 653.89,-135.91"/>
<polygon fill="black" stroke="black" points="655.06,-139.22 663.77,-133.19 653.2,-132.47 655.06,-139.22"/>
<text text-anchor="middle" x="619.5" y="-154.8" font-family="Times,serif" font-size="14.00">(extends)</text>
</g>
<!-- Creature -->
<g id="node3" class="node">
<title>Creature</title>
<polygon fill="#add8e6" stroke="black" points="373.5,-133 310.5,-133 310.5,-97 373.5,-97 373.5,-133"/>
<text text-anchor="middle" x="342" y="-111.3" font-family="Times,serif" font-size="14.00">Creature</text>
</g>
<!-- Creature&#45;&gt;Combatant -->
<g id="edge15" class="edge">
<title>Creature&#45;&gt;Combatant</title>
<path fill="none" stroke="black" stroke-dasharray="5,2" d="M373.56,-118.74C399.84,-122.48 438.55,-129.25 471,-140 476.67,-141.88 482.49,-144.17 488.18,-146.62"/>
<polygon fill="black" stroke="black" points="487.02,-149.94 497.57,-150.88 489.91,-143.57 487.02,-149.94"/>
<text text-anchor="middle" x="434" y="-143.8" font-family="Times,serif" font-size="14.00">(implements)</text>
</g>
<!-- Creature&#45;&gt;WorldObject -->
<g id="edge16" class="edge">
<title>Creature&#45;&gt;WorldObject</title>
<path fill="none" stroke="black" stroke-dasharray="5,2" d="M373.71,-106.69C402.19,-98.99 445.17,-87.36 479.09,-78.18"/>
<polygon fill="black" stroke="black" points="480.1,-81.53 488.84,-75.54 478.27,-74.78 480.1,-81.53"/>
<text text-anchor="middle" x="434" y="-102.8" font-family="Times,serif" font-size="14.00">(implements)</text>
</g>
<!-- Entity -->
<g id="node5" class="node">
<title>Entity</title>
<polygon fill="#ffb347" stroke="black" points="908.5,-138 854.5,-138 854.5,-102 908.5,-102 908.5,-138"/>
<text text-anchor="middle" x="881.5" y="-116.3" font-family="Times,serif" font-size="14.00">Entity</text>
</g>
<!-- Identifiable -->
<g id="node7" class="node">
<title>Identifiable</title>
<polygon fill="#ffb347" stroke="black" points="1083,-164 1004,-164 1004,-128 1083,-128 1083,-164"/>
<text text-anchor="middle" x="1043.5" y="-142.3" font-family="Times,serif" font-size="14.00">Identifiable</text>
</g>
<!-- Entity&#45;&gt;Identifiable -->
<g id="edge19" class="edge">
<title>Entity&#45;&gt;Identifiable</title>
<path fill="none" stroke="black" stroke-dasharray="5,2" d="M908.9,-123.92C929.83,-127.07 959.81,-131.66 986,-136 988.63,-136.44 991.32,-136.89 994.04,-137.35"/>
<polygon fill="black" stroke="black" points="993.47,-140.81 1003.92,-139.06 994.66,-133.91 993.47,-140.81"/>
<text text-anchor="middle" x="960.5" y="-139.8" font-family="Times,serif" font-size="14.00">(extends)</text>
</g>
<!-- Positioned -->
<g id="node10" class="node">
<title>Positioned</title>
<polygon fill="#ffb347" stroke="black" points="1080.5,-99 1006.5,-99 1006.5,-63 1080.5,-63 1080.5,-99"/>
<text text-anchor="middle" x="1043.5" y="-77.3" font-family="Times,serif" font-size="14.00">Positioned</text>
</g>
<!-- Entity&#45;&gt;Positioned -->
<g id="edge20" class="edge">
<title>Entity&#45;&gt;Positioned</title>
<path fill="none" stroke="black" stroke-dasharray="5,2" d="M908.56,-113.65C932.33,-107.85 967.97,-99.17 996.52,-92.21"/>
<polygon fill="black" stroke="black" points="997.4,-95.59 1006.29,-89.83 995.75,-88.79 997.4,-95.59"/>
<text text-anchor="middle" x="960.5" y="-109.8" font-family="Times,serif" font-size="14.00">(extends)</text>
</g>
<!-- GameEntity&#45;&gt;Entity -->
<g id="edge13" class="edge">
<title>GameEntity&#45;&gt;Entity</title>
<path fill="none" stroke="black" stroke-dasharray="5,2" d="M747.3,-121.53C776.6,-121.19 815.75,-120.74 844.02,-120.42"/>
<polygon fill="black" stroke="black" points="844.32,-123.92 854.28,-120.3 844.24,-116.92 844.32,-123.92"/>
<text text-anchor="middle" x="797" y="-124.8" font-family="Times,serif" font-size="14.00">(extends)</text>
</g>
<!-- Trackable -->
<g id="node13" class="node">
<title>Trackable</title>
<polygon fill="#ffb347" stroke="black" points="917,-192 846,-192 846,-156 917,-156 917,-192"/>
<text text-anchor="middle" x="881.5" y="-170.3" font-family="Times,serif" font-size="14.00">Trackable</text>
</g>
<!-- GameEntity&#45;&gt;Trackable -->
<g id="edge14" class="edge">
<title>GameEntity&#45;&gt;Trackable</title>
<path fill="none" stroke="black" stroke-dasharray="5,2" d="M747.14,-134.32C753.45,-136.23 759.9,-138.17 766,-140 789.15,-146.94 814.95,-154.61 836.19,-160.9"/>
<polygon fill="black" stroke="black" points="835.33,-164.3 845.91,-163.78 837.32,-157.58 835.33,-164.3"/>
<text text-anchor="middle" x="797" y="-160.8" font-family="Times,serif" font-size="14.00">(extends)</text>
</g>
<!-- NPC&#45;&gt;Combatant -->
<g id="edge10" class="edge">
<title>NPC&#45;&gt;Combatant</title>
<path fill="none" stroke="black" stroke-dasharray="5,2" d="M195.07,-127.75C200.86,-130.16 207.05,-132.41 213,-134 306.68,-158.99 420.44,-166.17 483.51,-168.22"/>
<polygon fill="black" stroke="black" points="483.46,-171.72 493.56,-168.51 483.67,-164.72 483.46,-171.72"/>
<text text-anchor="middle" x="342" y="-164.8" font-family="Times,serif" font-size="14.00">(implements)</text>
</g>
<!-- NPC&#45;&gt;Creature -->
<g id="edge9" class="edge">
<title>NPC&#45;&gt;Creature</title>
<path fill="none" stroke="black" stroke-dasharray="5,2" d="M195.12,-115C223.02,-115 267.61,-115 300.16,-115"/>
<polygon fill="black" stroke="black" points="300.26,-118.5 310.26,-115 300.26,-111.5 300.26,-118.5"/>
<text text-anchor="middle" x="250" y="-118.8" font-family="Times,serif" font-size="14.00">(extends)</text>
</g>
<!-- NPC&#45;&gt;WorldObject -->
<g id="edge11" class="edge">
<title>NPC&#45;&gt;WorldObject</title>
<path fill="none" stroke="black" stroke-dasharray="5,2" d="M195.09,-104.72C222.1,-94.6 265.79,-79.72 305,-73 363.96,-62.9 432.76,-61.62 478.92,-62.25"/>
<polygon fill="black" stroke="black" points="478.94,-65.75 489,-62.42 479.06,-58.75 478.94,-65.75"/>
<text text-anchor="middle" x="342" y="-76.8" font-family="Times,serif" font-size="14.00">(implements)</text>
</g>
<!-- Physical -->
<g id="node9" class="node">
<title>Physical</title>
<polygon fill="#ffb347" stroke="black" points="828,-82 766,-82 766,-46 828,-46 828,-82"/>
<text text-anchor="middle" x="797" y="-60.3" font-family="Times,serif" font-size="14.00">Physical</text>
</g>
<!-- Physical&#45;&gt;Positioned -->
<g id="edge12" class="edge">
<title>Physical&#45;&gt;Positioned</title>
<path fill="none" stroke="black" stroke-dasharray="5,2" d="M828.47,-66.12C870.66,-69.05 947.21,-74.37 996.41,-77.8"/>
<polygon fill="black" stroke="black" points="996.25,-81.29 1006.47,-78.49 996.74,-74.31 996.25,-81.29"/>
<text text-anchor="middle" x="881.5" y="-76.8" font-family="Times,serif" font-size="14.00">(extends)</text>
</g>
<!-- Renderable -->
<g id="node11" class="node">
<title>Renderable</title>
<polygon fill="#ffb347" stroke="black" points="744.5,-36 666.5,-36 666.5,0 744.5,0 744.5,-36"/>
<text text-anchor="middle" x="705.5" y="-14.3" font-family="Times,serif" font-size="14.00">Renderable</text>
</g>
<!-- Timed -->
<g id="node12" class="node">
<title>Timed</title>
<polygon fill="#ffb347" stroke="black" points="1070.5,-229 1016.5,-229 1016.5,-193 1070.5,-193 1070.5,-229"/>
<text text-anchor="middle" x="1043.5" y="-207.3" font-family="Times,serif" font-size="14.00">Timed</text>
</g>
<!-- Trackable&#45;&gt;Identifiable -->
<g id="edge17" class="edge">
<title>Trackable&#45;&gt;Identifiable</title>
<path fill="none" stroke="black" stroke-dasharray="5,2" d="M917.22,-167.92C939.67,-163.99 969.23,-158.82 993.99,-154.49"/>
<polygon fill="black" stroke="black" points="994.68,-157.92 1003.92,-152.75 993.47,-151.03 994.68,-157.92"/>
<text text-anchor="middle" x="960.5" y="-167.8" font-family="Times,serif" font-size="14.00">(extends)</text>
</g>
<!-- Trackable&#45;&gt;Timed -->
<g id="edge18" class="edge">
<title>Trackable&#45;&gt;Timed</title>
<path fill="none" stroke="black" stroke-dasharray="5,2" d="M917.22,-182.03C943.51,-188.11 979.52,-196.44 1006.19,-202.6"/>
<polygon fill="black" stroke="black" points="1005.74,-206.09 1016.28,-204.94 1007.32,-199.27 1005.74,-206.09"/>
<text text-anchor="middle" x="960.5" y="-199.8" font-family="Times,serif" font-size="14.00">(extends)</text>
</g>
<!-- WorldObject&#45;&gt;GameEntity -->
<g id="edge6" class="edge">
<title>WorldObject&#45;&gt;GameEntity</title>
<path fill="none" stroke="black" stroke-dasharray="5,2" d="M576.21,-78.49C599.88,-86.51 629.44,-96.54 654.22,-104.94"/>
<polygon fill="black" stroke="black" points="653.21,-108.3 663.81,-108.2 655.46,-101.67 653.21,-108.3"/>
<text text-anchor="middle" x="619.5" y="-104.8" font-family="Times,serif" font-size="14.00">(extends)</text>
</g>
<!-- WorldObject&#45;&gt;Physical -->
<g id="edge8" class="edge">
<title>WorldObject&#45;&gt;Physical</title>
<path fill="none" stroke="black" stroke-dasharray="5,2" d="M576.26,-64C625.93,-64 707.26,-64 755.81,-64"/>
<polygon fill="black" stroke="black" points="755.94,-67.5 765.94,-64 755.94,-60.5 755.94,-67.5"/>
<text text-anchor="middle" x="619.5" y="-67.8" font-family="Times,serif" font-size="14.00">(extends)</text>
</g>
<!-- WorldObject&#45;&gt;Renderable -->
<g id="edge7" class="edge">
<title>WorldObject&#45;&gt;Renderable</title>
<path fill="none" stroke="black" stroke-dasharray="5,2" d="M557.24,-45.91C567.91,-38.75 581.01,-31.24 594,-27 613.79,-20.55 636.58,-17.94 656.3,-17.08"/>
<polygon fill="black" stroke="black" points="656.42,-20.58 666.31,-16.78 656.21,-13.58 656.42,-20.58"/>
<text text-anchor="middle" x="619.5" y="-30.8" font-family="Times,serif" font-size="14.00">(extends)</text>
</g>
</g>
</svg>
