<?xml version="1.0" encoding="UTF-8" standalone="no"?>
<!DOCTYPE svg PUBLIC "-//W3C//DTD SVG 1.1//EN"
 "http://www.w3.org/Graphics/SVG/1.1/DTD/svg11.dtd">
<!-- Generated by graphviz version 2.43.0 (0)
 -->
<!-- Title: types Pages: 1 -->
<svg width="247pt" height="1244pt"
 viewBox="0.00 0.00 247.00 1244.00" xmlns="http://www.w3.org/2000/svg" xmlns:xlink="http://www.w3.org/1999/xlink">
<g id="graph0" class="graph" transform="scale(1 1) rotate(0) translate(4 1240)">
<title>types</title>
<polygon fill="white" stroke="transparent" points="-4,4 -4,-1240 243,-1240 243,4 -4,4"/>
<text text-anchor="middle" x="119.5" y="-1217.6" font-family="Times,serif" font-size="18.00">graph Boss stored fields origin</text>
<!-- Boss -->
<g id="node1" class="node">
<title>Boss</title>
<polygon fill="#add8e6" stroke="black" points="63.5,-619 9.5,-619 9.5,-583 63.5,-583 63.5,-619"/>
<text text-anchor="middle" x="36.5" y="-597.3" font-family="Times,serif" font-size="14.00">Boss</text>
</g>
<!-- Boss.name -->
<g id="node2" class="node">
<title>Boss.name</title>
<polygon fill="lightgrey" stroke="transparent" points="224,-1208 105,-1208 105,-1170 224,-1170 224,-1208"/>
<text text-anchor="middle" x="164.5" y="-1192.8" font-family="Times,serif" font-size="14.00">name: string</text>
<text text-anchor="middle" x="164.5" y="-1177.8" font-family="Times,serif" font-size="14.00">(from Identifiable)</text>
</g>
<!-- Boss&#45;&gt;Boss.name -->
<g id="edge1" class="edge">
<title>Boss&#45;&gt;Boss.name</title>
<path fill="none" stroke="black" d="M37.15,-619.17C35.82,-705.32 34.14,-1072.17 99.5,-1161 99.96,-1161.62 100.43,-1162.23 100.92,-1162.83"/>
<polygon fill="black" stroke="black" points="98.5,-1165.36 108.1,-1169.84 103.4,-1160.35 98.5,-1165.36"/>
</g>
<!-- Boss.x -->
<g id="node3" class="node">
<title>Boss.x</title>
<polygon fill="lightgrey" stroke="transparent" points="221,-1152 108,-1152 108,-1114 221,-1114 221,-1152"/>
<text text-anchor="middle" x="164.5" y="-1136.8" font-family="Times,serif" font-size="14.00">x: float32</text>
<text text-anchor="middle" x="164.5" y="-1121.8" font-family="Times,serif" font-size="14.00">(from Positioned)</text>
</g>
<!-- Boss&#45;&gt;Boss.x -->
<g id="edge2" class="edge">
<title>Boss&#45;&gt;Boss.x</title>
<path fill="none" stroke="black" d="M37.4,-619.22C37.29,-700.06 40.57,-1025.91 99.5,-1105 99.96,-1105.62 100.44,-1106.23 100.93,-1106.82"/>
<polygon fill="black" stroke="black" points="98.53,-1109.36 108.15,-1113.81 103.4,-1104.34 98.53,-1109.36"/>
</g>
<!-- Boss.y -->
<g id="node4" class="node">
<title>Boss.y</title>
<polygon fill="lightgrey" stroke="transparent" points="221,-1096 108,-1096 108,-1058 221,-1058 221,-1096"/>
<text text-anchor="middle" x="164.5" y="-1080.8" font-family="Times,serif" font-size="14.00">y: float32</text>
<text text-anchor="middle" x="164.5" y="-1065.8" font-family="Times,serif" font-size="14.00">(from Positioned)</text>
</g>
<!-- Boss&#45;&gt;Boss.y -->
<g id="edge3" class="edge">
<title>Boss&#45;&gt;Boss.y</title>
<path fill="none" stroke="black" d="M37.71,-619.18C38.92,-694.28 46.96,-979.59 99.5,-1049 99.98,-1049.63 100.48,-1050.26 100.99,-1050.86"/>
<polygon fill="black" stroke="black" points="98.83,-1053.64 108.49,-1057.99 103.66,-1048.57 98.83,-1053.64"/>
</g>
<!-- Boss.id -->
<g id="node5" class="node">
<title>Boss.id</title>
<polygon fill="lightgrey" stroke="transparent" points="209,-1040 120,-1040 120,-1002 209,-1002 209,-1040"/>
<text text-anchor="middle" x="164.5" y="-1024.8" font-family="Times,serif" font-size="14.00">id: uint32</text>
<text text-anchor="middle" x="164.5" y="-1009.8" font-family="Times,serif" font-size="14.00">(from Entity)</text>
</g>
<!-- Boss&#45;&gt;Boss.id -->
<g id="edge4" class="edge">
<title>Boss&#45;&gt;Boss.id</title>
<path fill="none" stroke="black" d="M38.12,-619.46C40.8,-688.86 53.38,-933.29 99.5,-993 102.71,-997.15 106.66,-1000.7 111.01,-1003.73"/>
<polygon fill="black" stroke="black" points="109.4,-1006.85 119.78,-1008.94 112.97,-1000.83 109.4,-1006.85"/>
</g>
<!-- Boss.created_at -->
<g id="node6" class="node">
<title>Boss.created_at</title>
<polygon fill="lightgrey" stroke="transparent" points="221.5,-984 107.5,-984 107.5,-946 221.5,-946 221.5,-984"/>
<text text-anchor="middle" x="164.5" y="-968.8" font-family="Times,serif" font-size="14.00">created_at: uint64</text>
<text text-anchor="middle" x="164.5" y="-953.8" font-family="Times,serif" font-size="14.00">(from Timed)</text>
</g>
<!-- Boss&#45;&gt;Boss.created_at -->
<g id="edge5" class="edge">
<title>Boss&#45;&gt;Boss.created_at</title>
<path fill="none" stroke="black" d="M38.65,-619.37C42.92,-682.11 59.7,-886.8 99.5,-937 99.99,-937.62 100.51,-938.23 101.03,-938.83"/>
<polygon fill="black" stroke="black" points="98.93,-941.66 108.66,-945.86 103.68,-936.51 98.93,-941.66"/>
</g>
<!-- Boss.hp -->
<g id="node7" class="node">
<title>Boss.hp</title>
<polygon fill="lightgrey" stroke="transparent" points="227,-928 102,-928 102,-890 227,-890 227,-928"/>
<text text-anchor="middle" x="164.5" y="-912.8" font-family="Times,serif" font-size="14.00">hp: int16</text>
<text text-anchor="middle" x="164.5" y="-897.8" font-family="Times,serif" font-size="14.00">(from Damageable)</text>
</g>
<!-- Boss&#45;&gt;Boss.hp -->
<g id="edge6" class="edge">
<title>Boss&#45;&gt;Boss.hp</title>
<path fill="none" stroke="black" d="M39.39,-619.36C45.46,-674.97 65.98,-840.23 99.5,-881 100.11,-881.74 100.74,-882.46 101.39,-883.16"/>
<polygon fill="black" stroke="black" points="99.28,-885.96 109.08,-889.98 103.92,-880.73 99.28,-885.96"/>
</g>
<!-- Boss.max_hp -->
<g id="node8" class="node">
<title>Boss.max_hp</title>
<polygon fill="lightgrey" stroke="transparent" points="227,-872 102,-872 102,-834 227,-834 227,-872"/>
<text text-anchor="middle" x="164.5" y="-856.8" font-family="Times,serif" font-size="14.00">max_hp: int16</text>
<text text-anchor="middle" x="164.5" y="-841.8" font-family="Times,serif" font-size="14.00">(from Damageable)</text>
</g>
<!-- Boss&#45;&gt;Boss.max_hp -->
<g id="edge7" class="edge">
<title>Boss&#45;&gt;Boss.max_hp</title>
<path fill="none" stroke="black" d="M37.5,-619.09C38.45,-660.58 46.37,-763.72 99.5,-825 100.13,-825.72 100.77,-826.43 101.44,-827.11"/>
<polygon fill="black" stroke="black" points="99.4,-829.97 109.28,-833.81 103.95,-824.65 99.4,-829.97"/>
</g>
<!-- Boss.attack -->
<g id="node9" class="node">
<title>Boss.attack</title>
<polygon fill="lightgrey" stroke="transparent" points="222.5,-816 106.5,-816 106.5,-778 222.5,-778 222.5,-816"/>
<text text-anchor="middle" x="164.5" y="-800.8" font-family="Times,serif" font-size="14.00">attack: uint16</text>
<text text-anchor="middle" x="164.5" y="-785.8" font-family="Times,serif" font-size="14.00">(from Combatant)</text>
</g>
<!-- Boss&#45;&gt;Boss.attack -->
<g id="edge8" class="edge">
<title>Boss&#45;&gt;Boss.attack</title>
<path fill="none" stroke="black" d="M39.51,-619.11C44.15,-652.78 58.55,-725.57 99.5,-769 100.39,-769.94 101.32,-770.86 102.27,-771.74"/>
<polygon fill="black" stroke="black" points="100.16,-774.53 110.19,-777.96 104.49,-769.03 100.16,-774.53"/>
</g>
<!-- Boss.defense -->
<g id="node10" class="node">
<title>Boss.defense</title>
<polygon fill="lightgrey" stroke="transparent" points="222.5,-760 106.5,-760 106.5,-722 222.5,-722 222.5,-760"/>
<text text-anchor="middle" x="164.5" y="-744.8" font-family="Times,serif" font-size="14.00">defense: uint16</text>
<text text-anchor="middle" x="164.5" y="-729.8" font-family="Times,serif" font-size="14.00">(from Combatant)</text>
</g>
<!-- Boss&#45;&gt;Boss.defense -->
<g id="edge9" class="edge">
<title>Boss&#45;&gt;Boss.defense</title>
<path fill="none" stroke="black" d="M43.41,-619.26C52.12,-643.6 70.58,-686.66 99.5,-713 100.62,-714.02 101.78,-715.01 102.98,-715.96"/>
<polygon fill="black" stroke="black" points="101.16,-718.96 111.36,-721.81 105.17,-713.22 101.16,-718.96"/>
</g>
<!-- Boss.sprite -->
<g id="node11" class="node">
<title>Boss.sprite</title>
<polygon fill="lightgrey" stroke="transparent" points="223.5,-704 105.5,-704 105.5,-666 223.5,-666 223.5,-704"/>
<text text-anchor="middle" x="164.5" y="-688.8" font-family="Times,serif" font-size="14.00">sprite: string</text>
<text text-anchor="middle" x="164.5" y="-673.8" font-family="Times,serif" font-size="14.00">(from Renderable)</text>
</g>
<!-- Boss&#45;&gt;Boss.sprite -->
<g id="edge10" class="edge">
<title>Boss&#45;&gt;Boss.sprite</title>
<path fill="none" stroke="black" d="M54.42,-619.06C66.23,-630.94 82.81,-646.22 99.5,-657 101.64,-658.38 103.86,-659.73 106.13,-661.03"/>
<polygon fill="black" stroke="black" points="104.62,-664.19 115.09,-665.84 107.94,-658.03 104.62,-664.19"/>
</g>
<!-- Boss.layer -->
<g id="node12" class="node">
<title>Boss.layer</title>
<polygon fill="lightgrey" stroke="transparent" points="223.5,-648 105.5,-648 105.5,-610 223.5,-610 223.5,-648"/>
<text text-anchor="middle" x="164.5" y="-632.8" font-family="Times,serif" font-size="14.00">layer: uint8</text>
<text text-anchor="middle" x="164.5" y="-617.8" font-family="Times,serif" font-size="14.00">(from Renderable)</text>
</g>
<!-- Boss&#45;&gt;Boss.layer -->
<g id="edge11" class="edge">
<title>Boss&#45;&gt;Boss.layer</title>
<path fill="none" stroke="black" d="M63.61,-606.8C73.03,-608.9 84.15,-611.37 95.49,-613.89"/>
<polygon fill="black" stroke="black" points="94.95,-617.35 105.47,-616.11 96.47,-610.52 94.95,-617.35"/>
</g>
<!-- Boss.width -->
<g id="node13" class="node">
<title>Boss.width</title>
<polygon fill="lightgrey" stroke="transparent" points="215.5,-592 113.5,-592 113.5,-554 215.5,-554 215.5,-592"/>
<text text-anchor="middle" x="164.5" y="-576.8" font-family="Times,serif" font-size="14.00">width: float32</text>
<text text-anchor="middle" x="164.5" y="-561.8" font-family="Times,serif" font-size="14.00">(from Physical)</text>
</g>
<!-- Boss&#45;&gt;Boss.width -->
<g id="edge12" class="edge">
<title>Boss&#45;&gt;Boss.width</title>
<path fill="none" stroke="black" d="M63.61,-595.2C75.21,-592.62 89.39,-589.47 103.37,-586.36"/>
<polygon fill="black" stroke="black" points="104.48,-589.7 113.49,-584.11 102.97,-582.87 104.48,-589.7"/>
</g>
<!-- Boss.height -->
<g id="node14" class="node">
<title>Boss.height</title>
<polygon fill="lightgrey" stroke="transparent" points="215.5,-536 113.5,-536 113.5,-498 215.5,-498 215.5,-536"/>
<text text-anchor="middle" x="164.5" y="-520.8" font-family="Times,serif" font-size="14.00">height: float32</text>
<text text-anchor="middle" x="164.5" y="-505.8" font-family="Times,serif" font-size="14.00">(from Physical)</text>
</g>
<!-- Boss&#45;&gt;Boss.height -->
<g id="edge13" class="edge">
<title>Boss&#45;&gt;Boss.height</title>
<path fill="none" stroke="black" d="M54.42,-582.94C66.23,-571.06 82.81,-555.78 99.5,-545 101.64,-543.62 103.86,-542.27 106.13,-540.97"/>
<polygon fill="black" stroke="black" points="107.94,-543.97 115.09,-536.16 104.62,-537.81 107.94,-543.97"/>
</g>
<!-- Boss.solid -->
<g id="node15" class="node">
<title>Boss.solid</title>
<polygon fill="lightgrey" stroke="transparent" points="215.5,-480 113.5,-480 113.5,-442 215.5,-442 215.5,-480"/>
<text text-anchor="middle" x="164.5" y="-464.8" font-family="Times,serif" font-size="14.00">solid: boolean</text>
<text text-anchor="middle" x="164.5" y="-449.8" font-family="Times,serif" font-size="14.00">(from Physical)</text>
</g>
<!-- Boss&#45;&gt;Boss.solid -->
<g id="edge14" class="edge">
<title>Boss&#45;&gt;Boss.solid</title>
<path fill="none" stroke="black" d="M43.41,-582.74C52.12,-558.4 70.58,-515.34 99.5,-489 101.18,-487.47 102.95,-486.02 104.79,-484.64"/>
<polygon fill="black" stroke="black" points="106.87,-487.46 113.28,-479.03 103.01,-481.62 106.87,-487.46"/>
</g>
<!-- Boss.speed -->
<g id="node16" class="node">
<title>Boss.speed</title>
<polygon fill="lightgrey" stroke="transparent" points="216,-424 113,-424 113,-386 216,-386 216,-424"/>
<text text-anchor="middle" x="164.5" y="-408.8" font-family="Times,serif" font-size="14.00">speed: float32</text>
<text text-anchor="middle" x="164.5" y="-393.8" font-family="Times,serif" font-size="14.00">(from Creature)</text>
</g>
<!-- Boss&#45;&gt;Boss.speed -->
<g id="edge15" class="edge">
<title>Boss&#45;&gt;Boss.speed</title>
<path fill="none" stroke="black" d="M39.51,-582.89C44.15,-549.22 58.55,-476.43 99.5,-433 101.09,-431.32 102.8,-429.73 104.6,-428.23"/>
<polygon fill="black" stroke="black" points="106.9,-430.88 113,-422.22 102.83,-425.19 106.9,-430.88"/>
</g>
<!-- Boss.level -->
<g id="node17" class="node">
<title>Boss.level</title>
<polygon fill="lightgrey" stroke="transparent" points="216,-368 113,-368 113,-330 216,-330 216,-368"/>
<text text-anchor="middle" x="164.5" y="-352.8" font-family="Times,serif" font-size="14.00">level: uint8</text>
<text text-anchor="middle" x="164.5" y="-337.8" font-family="Times,serif" font-size="14.00">(from Creature)</text>
</g>
<!-- Boss&#45;&gt;Boss.level -->
<g id="edge16" class="edge">
<title>Boss&#45;&gt;Boss.level</title>
<path fill="none" stroke="black" d="M37.5,-582.91C38.45,-541.42 46.37,-438.28 99.5,-377 101.05,-375.21 102.73,-373.54 104.52,-371.96"/>
<polygon fill="black" stroke="black" points="107.01,-374.47 112.96,-365.7 102.84,-368.85 107.01,-374.47"/>
</g>
<!-- Boss.faction -->
<g id="node18" class="node">
<title>Boss.faction</title>
<polygon fill="lightgrey" stroke="transparent" points="216,-312 113,-312 113,-274 216,-274 216,-312"/>
<text text-anchor="middle" x="164.5" y="-296.8" font-family="Times,serif" font-size="14.00">faction: Faction</text>
<text text-anchor="middle" x="164.5" y="-281.8" font-family="Times,serif" font-size="14.00">(from Creature)</text>
</g>
<!-- Boss&#45;&gt;Boss.faction -->
<g id="edge17" class="edge">
<title>Boss&#45;&gt;Boss.faction</title>
<path fill="none" stroke="black" d="M39.39,-582.64C45.46,-527.03 65.98,-361.77 99.5,-321 101,-319.17 102.65,-317.46 104.4,-315.86"/>
<polygon fill="black" stroke="black" points="106.9,-318.36 112.73,-309.51 102.65,-312.79 106.9,-318.36"/>
</g>
<!-- Boss.greeting -->
<g id="node19" class="node">
<title>Boss.greeting</title>
<polygon fill="lightgrey" stroke="transparent" points="214,-256 115,-256 115,-218 214,-218 214,-256"/>
<text text-anchor="middle" x="164.5" y="-240.8" font-family="Times,serif" font-size="14.00">greeting: string</text>
<text text-anchor="middle" x="164.5" y="-225.8" font-family="Times,serif" font-size="14.00">(from NPC)</text>
</g>
<!-- Boss&#45;&gt;Boss.greeting -->
<g id="edge18" class="edge">
<title>Boss&#45;&gt;Boss.greeting</title>
<path fill="none" stroke="black" d="M38.65,-582.63C42.92,-519.89 59.7,-315.2 99.5,-265 101.57,-262.39 103.94,-260.01 106.51,-257.85"/>
<polygon fill="black" stroke="black" points="108.62,-260.65 114.76,-252.01 104.57,-254.94 108.62,-260.65"/>
</g>
<!-- Boss.quest_giver -->
<g id="node20" class="node">
<title>Boss.quest_giver</title>
<polygon fill="lightgrey" stroke="transparent" points="229.5,-200 99.5,-200 99.5,-162 229.5,-162 229.5,-200"/>
<text text-anchor="middle" x="164.5" y="-184.8" font-family="Times,serif" font-size="14.00">quest_giver: boolean</text>
<text text-anchor="middle" x="164.5" y="-169.8" font-family="Times,serif" font-size="14.00">(from NPC)</text>
</g>
<!-- Boss&#45;&gt;Boss.quest_giver -->
<g id="edge19" class="edge">
<title>Boss&#45;&gt;Boss.quest_giver</title>
<path fill="none" stroke="black" d="M38.12,-582.54C40.8,-513.14 53.38,-268.71 99.5,-209 99.99,-208.37 100.49,-207.75 101.01,-207.15"/>
<polygon fill="black" stroke="black" points="103.67,-209.46 108.56,-200.06 98.88,-204.35 103.67,-209.46"/>
</g>
<!-- Boss.phase -->
<g id="node21" class="node">
<title>Boss.phase</title>
<polygon fill="lightgrey" stroke="transparent" points="206,-144 123,-144 123,-108 206,-108 206,-144"/>
<text text-anchor="middle" x="164.5" y="-122.3" font-family="Times,serif" font-size="14.00">phase: uint8</text>
</g>
<!-- Boss&#45;&gt;Boss.phase -->
<g id="edge20" class="edge">
<title>Boss&#45;&gt;Boss.phase</title>
<path fill="none" stroke="black" d="M37.69,-582.8C38.8,-507.62 46.5,-222.07 99.5,-153 103.35,-147.98 108.32,-143.88 113.78,-140.54"/>
<polygon fill="black" stroke="black" points="115.43,-143.62 122.67,-135.89 112.19,-137.42 115.43,-143.62"/>
</g>
<!-- Boss.title -->
<g id="node22" class="node">
<title>Boss.title</title>
<polygon fill="lightgrey" stroke="transparent" points="202.5,-90 126.5,-90 126.5,-54 202.5,-54 202.5,-90"/>
<text text-anchor="middle" x="164.5" y="-68.3" font-family="Times,serif" font-size="14.00">title: string</text>
</g>
<!-- Boss&#45;&gt;Boss.title -->
<g id="edge21" class="edge">
<title>Boss&#45;&gt;Boss.title</title>
<path fill="none" stroke="black" d="M37.38,-582.84C37.21,-502.23 40.26,-177.37 99.5,-99 104.05,-92.98 110.2,-88.29 116.89,-84.64"/>
<polygon fill="black" stroke="black" points="118.67,-87.67 126.26,-80.28 115.72,-81.33 118.67,-87.67"/>
</g>
<!-- Boss.reward_gold -->
<g id="node23" class="node">
<title>Boss.reward_gold</title>
<polygon fill="lightgrey" stroke="transparent" points="228,-36 101,-36 101,0 228,0 228,-36"/>
<text text-anchor="middle" x="164.5" y="-14.3" font-family="Times,serif" font-size="14.00">reward_gold: uint32</text>
</g>
<!-- Boss&#45;&gt;Boss.reward_gold -->
<g id="edge22" class="edge">
<title>Boss&#45;&gt;Boss.reward_gold</title>
<path fill="none" stroke="black" d="M37.14,-582.94C35.78,-497.32 33.99,-132.75 99.5,-45 99.97,-44.37 100.46,-43.75 100.97,-43.14"/>
<polygon fill="black" stroke="black" points="103.58,-45.49 108.41,-36.06 98.75,-40.42 103.58,-45.49"/>
</g>
</g>
</svg>
