<?xml version="1.0" encoding="UTF-8" standalone="no"?>
<!DOCTYPE svg PUBLIC "-//W3C//DTD SVG 1.1//EN"
 "http://www.w3.org/Graphics/SVG/1.1/DTD/svg11.dtd">
<!-- Generated by graphviz version 2.43.0 (0)
 -->
<!-- Title: types Pages: 1 -->
<svg width="244pt" height="862pt"
 viewBox="0.00 0.00 243.69 861.66" xmlns="http://www.w3.org/2000/svg" xmlns:xlink="http://www.w3.org/1999/xlink">
<g id="graph0" class="graph" transform="scale(1 1) rotate(0) translate(4 857.66)">
<title>types</title>
<polygon fill="white" stroke="transparent" points="-4,4 -4,-857.66 239.69,-857.66 239.69,4 -4,4"/>
<text text-anchor="middle" x="117.85" y="-835.26" font-family="Times,serif" font-size="18.00">graph Boss stored</text>
<!-- Boss -->
<g id="node1" class="node">
<title>Boss</title>
<polygon fill="#add8e6" stroke="black" stroke-width="3" points="54,-426.66 0,-426.66 0,-390.66 54,-390.66 54,-426.66"/>
<text text-anchor="middle" x="27" y="-404.96" font-family="Times,serif" font-size="14.00">Boss</text>
</g>
<!-- Faction -->
<g id="node2" class="node">
<title>Faction</title>
<polygon fill="#90ee90" stroke="black" points="225.85,-825.66 168.85,-825.66 168.85,-789.66 225.85,-789.66 225.85,-825.66"/>
<text text-anchor="middle" x="197.35" y="-803.96" font-family="Times,serif" font-size="14.00">Faction</text>
</g>
<!-- Boss&#45;&gt;Faction -->
<g id="edge17" class="edge">
<title>Boss&#45;&gt;Faction</title>
<path fill="none" stroke="black" d="M28.93,-427.15C32.7,-498.75 47.79,-755.2 72,-781.66 93.52,-805.18 130.38,-810.43 158.39,-810.54"/>
<polygon fill="black" stroke="black" points="158.71,-814.04 168.65,-810.36 158.59,-807.04 158.71,-814.04"/>
<text text-anchor="middle" x="106.5" y="-812.46" font-family="Times,serif" font-size="14.00">faction</text>
</g>
<!-- boolean -->
<g id="node3" class="node">
<title>boolean</title>
<ellipse fill="#ffffe0" stroke="black" cx="197.35" cy="-742.66" rx="38.19" ry="18"/>
<text text-anchor="middle" x="197.35" y="-738.96" font-family="Times,serif" font-size="14.00">boolean</text>
</g>
<!-- Boss&#45;&gt;boolean -->
<g id="edge14" class="edge">
<title>Boss&#45;&gt;boolean</title>
<path fill="none" stroke="black" d="M28.99,-426.98C32.81,-494.44 47.65,-726.26 72,-747.66 94.98,-767.86 130.59,-764.18 157.82,-756.86"/>
<polygon fill="black" stroke="black" points="158.82,-760.21 167.43,-754.04 156.85,-753.5 158.82,-760.21"/>
<text text-anchor="middle" x="106.5" y="-766.46" font-family="Times,serif" font-size="14.00">solid</text>
</g>
<!-- Boss&#45;&gt;boolean -->
<g id="edge19" class="edge">
<title>Boss&#45;&gt;boolean</title>
<path fill="none" stroke="black" d="M28.31,-426.74C29.64,-483.94 36.6,-659.69 72,-701.66 77.55,-708.25 120.1,-721.4 153.91,-731.04"/>
<polygon fill="black" stroke="black" points="153.04,-734.43 163.62,-733.78 154.94,-727.7 153.04,-734.43"/>
<text text-anchor="middle" x="106.5" y="-729.46" font-family="Times,serif" font-size="14.00">quest_giver</text>
</g>
<!-- float32 -->
<g id="node4" class="node">
<title>float32</title>
<ellipse fill="#ffffe0" stroke="black" cx="197.35" cy="-617.66" rx="36" ry="18"/>
<text text-anchor="middle" x="197.35" y="-613.96" font-family="Times,serif" font-size="14.00">float32</text>
</g>
<!-- Boss&#45;&gt;float32 -->
<g id="edge2" class="edge">
<title>Boss&#45;&gt;float32</title>
<path fill="none" stroke="black" d="M28.14,-426.87C28.98,-481.15 34.64,-640.03 72,-671.66 95.41,-691.48 112.6,-683.22 141,-671.66 155.71,-665.68 168.64,-653.69 178.3,-642.53"/>
<polygon fill="black" stroke="black" points="181.12,-644.61 184.73,-634.65 175.7,-640.18 181.12,-644.61"/>
<text text-anchor="middle" x="106.5" y="-686.46" font-family="Times,serif" font-size="14.00">x</text>
</g>
<!-- Boss&#45;&gt;float32 -->
<g id="edge3" class="edge">
<title>Boss&#45;&gt;float32</title>
<path fill="none" stroke="black" d="M28.71,-427C31.01,-475.89 40.12,-607.41 72,-633.66 97.1,-654.33 135.25,-645.43 162.67,-634.43"/>
<polygon fill="black" stroke="black" points="164.06,-637.64 171.88,-630.5 161.31,-631.2 164.06,-637.64"/>
<text text-anchor="middle" x="106.5" y="-649.46" font-family="Times,serif" font-size="14.00">y</text>
</g>
<!-- Boss&#45;&gt;float32 -->
<g id="edge12" class="edge">
<title>Boss&#45;&gt;float32</title>
<path fill="none" stroke="black" d="M29.75,-426.71C34.21,-468.96 47.46,-572.46 72,-595.66 83.38,-606.42 120.78,-612.02 151.61,-614.87"/>
<polygon fill="black" stroke="black" points="151.51,-618.38 161.77,-615.74 152.11,-611.4 151.51,-618.38"/>
<text text-anchor="middle" x="106.5" y="-616.46" font-family="Times,serif" font-size="14.00">width</text>
</g>
<!-- Boss&#45;&gt;float32 -->
<g id="edge13" class="edge">
<title>Boss&#45;&gt;float32</title>
<path fill="none" stroke="black" d="M28,-427.1C29.05,-458.43 35.81,-522.14 72,-557.66 94.7,-579.95 112.4,-562.74 141,-576.66 151.54,-581.79 162.12,-589 171.16,-595.95"/>
<polygon fill="black" stroke="black" points="168.99,-598.7 178.99,-602.19 173.35,-593.22 168.99,-598.7"/>
<text text-anchor="middle" x="106.5" y="-580.46" font-family="Times,serif" font-size="14.00">height</text>
</g>
<!-- Boss&#45;&gt;float32 -->
<g id="edge15" class="edge">
<title>Boss&#45;&gt;float32</title>
<path fill="none" stroke="black" d="M30.98,-426.78C35.72,-449.96 47.09,-489.95 72,-513.66 95.62,-536.15 115.11,-518.83 141,-538.66 159.17,-552.58 173.72,-574.16 183.33,-591.25"/>
<polygon fill="black" stroke="black" points="180.33,-593.06 188.15,-600.2 186.49,-589.74 180.33,-593.06"/>
<text text-anchor="middle" x="106.5" y="-542.46" font-family="Times,serif" font-size="14.00">speed</text>
</g>
<!-- int16 -->
<g id="node5" class="node">
<title>int16</title>
<ellipse fill="#ffffe0" stroke="black" cx="197.35" cy="-484.66" rx="28.7" ry="18"/>
<text text-anchor="middle" x="197.35" y="-480.96" font-family="Times,serif" font-size="14.00">int16</text>
</g>
<!-- Boss&#45;&gt;int16 -->
<g id="edge6" class="edge">
<title>Boss&#45;&gt;int16</title>
<path fill="none" stroke="black" d="M33.28,-426.74C39.46,-444.23 51.53,-469.77 72,-481.66 98.54,-497.08 133.94,-496.3 160.18,-492.56"/>
<polygon fill="black" stroke="black" points="160.8,-496.01 170.1,-490.94 159.67,-489.1 160.8,-496.01"/>
<text text-anchor="middle" x="106.5" y="-498.46" font-family="Times,serif" font-size="14.00">hp</text>
</g>
<!-- Boss&#45;&gt;int16 -->
<g id="edge7" class="edge">
<title>Boss&#45;&gt;int16</title>
<path fill="none" stroke="black" d="M54.35,-422.87C60.13,-425.86 66.24,-428.93 72,-431.66 102.52,-446.12 138.02,-461.07 163.25,-471.39"/>
<polygon fill="black" stroke="black" points="162.14,-474.72 172.73,-475.24 164.78,-468.23 162.14,-474.72"/>
<text text-anchor="middle" x="106.5" y="-464.46" font-family="Times,serif" font-size="14.00">max_hp</text>
</g>
<!-- string -->
<g id="node6" class="node">
<title>string</title>
<ellipse fill="#ffffe0" stroke="black" cx="197.35" cy="-370.66" rx="30.59" ry="18"/>
<text text-anchor="middle" x="197.35" y="-366.96" font-family="Times,serif" font-size="14.00">string</text>
</g>
<!-- Boss&#45;&gt;string -->
<g id="edge1" class="edge">
<title>Boss&#45;&gt;string</title>
<path fill="none" stroke="black" d="M54.21,-411.84C77.52,-413.76 112.27,-414.4 141,-405.66 151.28,-402.54 161.51,-396.95 170.33,-391.14"/>
<polygon fill="black" stroke="black" points="172.43,-393.94 178.63,-385.35 168.42,-388.2 172.43,-393.94"/>
<text text-anchor="middle" x="106.5" y="-416.46" font-family="Times,serif" font-size="14.00">name</text>
</g>
<!-- Boss&#45;&gt;string -->
<g id="edge10" class="edge">
<title>Boss&#45;&gt;string</title>
<path fill="none" stroke="black" d="M54.4,-393.68C60.06,-390.98 66.12,-388.45 72,-386.66 99.51,-378.28 131.75,-374.29 156.5,-372.39"/>
<polygon fill="black" stroke="black" points="156.88,-375.87 166.62,-371.69 156.4,-368.89 156.88,-375.87"/>
<text text-anchor="middle" x="106.5" y="-390.46" font-family="Times,serif" font-size="14.00">sprite</text>
</g>
<!-- Boss&#45;&gt;string -->
<g id="edge18" class="edge">
<title>Boss&#45;&gt;string</title>
<path fill="none" stroke="black" d="M37.18,-390.46C44.65,-377.84 56.49,-362.03 72,-354.66 100.46,-341.14 136.5,-348.03 162.45,-356.57"/>
<polygon fill="black" stroke="black" points="161.61,-359.98 172.2,-360.01 163.94,-353.38 161.61,-359.98"/>
<text text-anchor="middle" x="106.5" y="-358.46" font-family="Times,serif" font-size="14.00">greeting</text>
</g>
<!-- Boss&#45;&gt;string -->
<g id="edge21" class="edge">
<title>Boss&#45;&gt;string</title>
<path fill="none" stroke="black" d="M32.12,-390.35C37.59,-370.91 49.31,-341.16 72,-327.66 98.36,-311.99 111.99,-317.72 141,-327.66 153.11,-331.81 164.61,-339.81 173.96,-347.8"/>
<polygon fill="black" stroke="black" points="171.82,-350.59 181.58,-354.71 176.53,-345.4 171.82,-350.59"/>
<text text-anchor="middle" x="106.5" y="-331.46" font-family="Times,serif" font-size="14.00">title</text>
</g>
<!-- uint16 -->
<g id="node7" class="node">
<title>uint16</title>
<ellipse fill="#ffffe0" stroke="black" cx="197.35" cy="-259.66" rx="33.29" ry="18"/>
<text text-anchor="middle" x="197.35" y="-255.96" font-family="Times,serif" font-size="14.00">uint16</text>
</g>
<!-- Boss&#45;&gt;uint16 -->
<g id="edge8" class="edge">
<title>Boss&#45;&gt;uint16</title>
<path fill="none" stroke="black" d="M30.42,-390.36C34.6,-366.03 45.44,-323.26 72,-298.66 94.42,-277.9 127.8,-268.19 154.33,-263.65"/>
<polygon fill="black" stroke="black" points="155.13,-267.07 164.49,-262.1 154.08,-260.15 155.13,-267.07"/>
<text text-anchor="middle" x="106.5" y="-302.46" font-family="Times,serif" font-size="14.00">attack</text>
</g>
<!-- Boss&#45;&gt;uint16 -->
<g id="edge9" class="edge">
<title>Boss&#45;&gt;uint16</title>
<path fill="none" stroke="black" d="M30.18,-390.47C35.22,-351.95 49.02,-264.23 72,-246.66 97.49,-227.17 135.01,-234.53 162.17,-244.22"/>
<polygon fill="black" stroke="black" points="161.07,-247.55 171.66,-247.86 163.57,-241.01 161.07,-247.55"/>
<text text-anchor="middle" x="106.5" y="-250.46" font-family="Times,serif" font-size="14.00">defense</text>
</g>
<!-- uint32 -->
<g id="node8" class="node">
<title>uint32</title>
<ellipse fill="#ffffe0" stroke="black" cx="197.35" cy="-188.66" rx="33.29" ry="18"/>
<text text-anchor="middle" x="197.35" y="-184.96" font-family="Times,serif" font-size="14.00">uint32</text>
</g>
<!-- Boss&#45;&gt;uint32 -->
<g id="edge4" class="edge">
<title>Boss&#45;&gt;uint32</title>
<path fill="none" stroke="black" d="M29.63,-390.64C33.92,-347.36 46.94,-239.3 72,-214.66 93.38,-193.64 127.12,-187.61 154.07,-186.58"/>
<polygon fill="black" stroke="black" points="154.45,-190.08 164.39,-186.42 154.33,-183.08 154.45,-190.08"/>
<text text-anchor="middle" x="106.5" y="-218.46" font-family="Times,serif" font-size="14.00">id</text>
</g>
<!-- Boss&#45;&gt;uint32 -->
<g id="edge22" class="edge">
<title>Boss&#45;&gt;uint32</title>
<path fill="none" stroke="black" d="M28.44,-390.52C30.1,-339.43 37.78,-196.2 72,-167.66 97.87,-146.09 137.56,-158.03 165.11,-171"/>
<polygon fill="black" stroke="black" points="163.8,-174.25 174.31,-175.57 166.92,-167.99 163.8,-174.25"/>
<text text-anchor="middle" x="106.5" y="-171.46" font-family="Times,serif" font-size="14.00">reward_gold</text>
</g>
<!-- uint64 -->
<g id="node9" class="node">
<title>uint64</title>
<ellipse fill="#ffffe0" stroke="black" cx="197.35" cy="-123.66" rx="33.29" ry="18"/>
<text text-anchor="middle" x="197.35" y="-119.96" font-family="Times,serif" font-size="14.00">uint64</text>
</g>
<!-- Boss&#45;&gt;uint64 -->
<g id="edge5" class="edge">
<title>Boss&#45;&gt;uint64</title>
<path fill="none" stroke="black" d="M28.19,-390.41C29.16,-335.17 35.15,-171.5 72,-136.66 93.96,-115.9 128.81,-113.88 156.03,-116.35"/>
<polygon fill="black" stroke="black" points="155.72,-119.84 166.05,-117.49 156.51,-112.88 155.72,-119.84"/>
<text text-anchor="middle" x="106.5" y="-140.46" font-family="Times,serif" font-size="14.00">created_at</text>
</g>
<!-- uint8 -->
<g id="node10" class="node">
<title>uint8</title>
<ellipse fill="#ffffe0" stroke="black" cx="197.35" cy="-47.66" rx="28.7" ry="18"/>
<text text-anchor="middle" x="197.35" y="-43.96" font-family="Times,serif" font-size="14.00">uint8</text>
</g>
<!-- Boss&#45;&gt;uint8 -->
<g id="edge11" class="edge">
<title>Boss&#45;&gt;uint8</title>
<path fill="none" stroke="black" d="M28.21,-390.29C29.24,-330.35 35.41,-141.75 72,-95.66 77.89,-88.24 127.17,-70.66 161.89,-58.96"/>
<polygon fill="black" stroke="black" points="163.31,-62.18 171.69,-55.69 161.09,-55.54 163.31,-62.18"/>
<text text-anchor="middle" x="106.5" y="-99.46" font-family="Times,serif" font-size="14.00">layer</text>
</g>
<!-- Boss&#45;&gt;uint8 -->
<g id="edge16" class="edge">
<title>Boss&#45;&gt;uint8</title>
<path fill="none" stroke="black" d="M28.82,-390.62C32.19,-320.74 46,-70.68 72,-47.66 96.18,-26.25 134.57,-29.87 162.31,-36.57"/>
<polygon fill="black" stroke="black" points="161.43,-39.96 171.99,-39.14 163.22,-33.19 161.43,-39.96"/>
<text text-anchor="middle" x="106.5" y="-51.46" font-family="Times,serif" font-size="14.00">level</text>
</g>
<!-- Boss&#45;&gt;uint8 -->
<g id="edge20" class="edge">
<title>Boss&#45;&gt;uint8</title>
<path fill="none" stroke="black" d="M28.61,-390.62C31.32,-316.4 43.36,-37.31 72,-11.66 99.5,12.96 142.89,-8.83 170.46,-27.61"/>
<polygon fill="black" stroke="black" points="168.64,-30.61 178.82,-33.54 172.69,-24.9 168.64,-30.61"/>
<text text-anchor="middle" x="106.5" y="-15.46" font-family="Times,serif" font-size="14.00">phase</text>
</g>
</g>
</svg>
