<?xml version="1.0" encoding="UTF-8" standalone="no"?>
<!DOCTYPE svg PUBLIC "-//W3C//DTD SVG 1.1//EN"
 "http://www.w3.org/Graphics/SVG/1.1/DTD/svg11.dtd">
<!-- Generated by graphviz version 2.43.0 (0)
 -->
<!-- Title: types Pages: 1 -->
<svg width="319pt" height="180pt"
 viewBox="0.00 0.00 319.00 180.00" xmlns="http://www.w3.org/2000/svg" xmlns:xlink="http://www.w3.org/1999/xlink">
<g id="graph0" class="graph" transform="scale(1 1) rotate(0) translate(4 176)">
<title>types</title>
<polygon fill="white" stroke="transparent" points="-4,4 -4,-176 315,-176 315,4 -4,4"/>
<text text-anchor="middle" x="155.5" y="-153.6" font-family="Times,serif" font-size="18.00">graph Boss declared fields without types</text>
<!-- Boss -->
<g id="node1" class="node">
<title>Boss</title>
<polygon fill="#add8e6" stroke="black" points="122,-90 68,-90 68,-54 122,-54 122,-90"/>
<text text-anchor="middle" x="95" y="-68.3" font-family="Times,serif" font-size="14.00">Boss</text>
</g>
<!-- Boss.phase -->
<g id="node2" class="node">
<title>Boss.phase</title>
<polygon fill="lightgrey" stroke="transparent" points="227.5,-144 173.5,-144 173.5,-108 227.5,-108 227.5,-144"/>
<text text-anchor="middle" x="200.5" y="-122.3" font-family="Times,serif" font-size="14.00">phase</text>
</g>
<!-- Boss&#45;&gt;Boss.phase -->
<g id="edge1" class="edge">
<title>Boss&#45;&gt;Boss.phase</title>
<path fill="none" stroke="black" d="M122.12,-85.63C134.87,-92.28 150.39,-100.38 164.18,-107.57"/>
<polygon fill="black" stroke="black" points="162.91,-110.86 173.39,-112.38 166.14,-104.65 162.91,-110.86"/>
</g>
<!-- Boss.title -->
<g id="node3" class="node">
<title>Boss.title</title>
<polygon fill="lightgrey" stroke="transparent" points="227.5,-90 173.5,-90 173.5,-54 227.5,-54 227.5,-90"/>
<text text-anchor="middle" x="200.5" y="-68.3" font-family="Times,serif" font-size="14.00">title</text>
</g>
<!-- Boss&#45;&gt;Boss.title -->
<g id="edge2" class="edge">
<title>Boss&#45;&gt;Boss.title</title>
<path fill="none" stroke="black" d="M122.12,-72C134.62,-72 149.79,-72 163.38,-72"/>
<polygon fill="black" stroke="black" points="163.39,-75.5 173.39,-72 163.39,-68.5 163.39,-75.5"/>
</g>
<!-- Boss.reward_gold -->
<g id="node4" class="node">
<title>Boss.reward_gold</title>
<polygon fill="lightgrey" stroke="transparent" points="243,-36 158,-36 158,0 243,0 243,-36"/>
<text text-anchor="middle" x="200.5" y="-14.3" font-family="Times,serif" font-size="14.00">reward_gold</text>
</g>
<!-- Boss&#45;&gt;Boss.reward_gold -->
<g id="edge3" class="edge">
<title>Boss&#45;&gt;Boss.reward_gold</title>
<path fill="none" stroke="black" d="M122.12,-58.37C132.32,-53.05 144.31,-46.79 155.76,-40.82"/>
<polygon fill="black" stroke="black" points="157.54,-43.84 164.78,-36.11 154.3,-37.64 157.54,-43.84"/>
</g>
</g>
</svg>
