<?xml version="1.0" encoding="UTF-8" standalone="no"?>
<!DOCTYPE svg PUBLIC "-//W3C//DTD SVG 1.1//EN"
 "http://www.w3.org/Graphics/SVG/1.1/DTD/svg11.dtd">
<!-- Generated by graphviz version 2.43.0 (0)
 -->
<!-- Title: types Pages: 1 -->
<svg width="1057pt" height="265pt"
 viewBox="0.00 0.00 1057.00 265.00" xmlns="http://www.w3.org/2000/svg" xmlns:xlink="http://www.w3.org/1999/xlink">
<g id="graph0" class="graph" transform="scale(1 1) rotate(0) translate(4 261)">
<title>types</title>
<polygon fill="white" stroke="transparent" points="-4,4 -4,-261 1053,-261 1053,4 -4,4"/>
<text text-anchor="middle" x="524.5" y="-238.6" font-family="Times,serif" font-size="18.00">graph Boss structure</text>
<!-- Boss -->
<g id="node1" class="node">
<title>Boss</title>
<polygon fill="#add8e6" stroke="black" stroke-width="3" points="54,-120 0,-120 0,-84 54,-84 54,-120"/>
<text text-anchor="middle" x="27" y="-98.3" font-family="Times,serif" font-size="14.00">Boss</text>
</g>
<!-- NPC -->
<g id="node8" class="node">
<title>NPC</title>
<polygon fill="#add8e6" stroke="black" points="195,-120 141,-120 141,-84 195,-84 195,-120"/>
<text text-anchor="middle" x="168" y="-98.3" font-family="Times,serif" font-size="14.00">NPC</text>
</g>
<!-- Boss&#45;&gt;NPC -->
<g id="edge1" class="edge">
<title>Boss&#45;&gt;NPC</title>
<path fill="none" stroke="black" stroke-dasharray="5,2" d="M54.14,-102C75.79,-102 106.78,-102 130.81,-102"/>
<polygon fill="black" stroke="black" points="130.97,-105.5 140.97,-102 130.97,-98.5 130.97,-105.5"/>
<text text-anchor="middle" x="97.5" y="-105.8" font-family="Times,serif" font-size="14.00">(extends)</text>
</g>
<!-- Combatant -->
<g id="node2" class="node">
<title>Combatant</title>
<polygon fill="#ffb347" stroke="black" points="537,-158 460,-158 460,-122 537,-122 537,-158"/>
<text text-anchor="middle" x="498.5" y="-136.3" font-family="Times,serif" font-size="14.00">Combatant</text>
</g>
<!-- Damageable -->
<g id="node4" class="node">
<title>Damageable</title>
<polygon fill="#ffb347" stroke="black" points="714,-196 629,-196 629,-160 714,-160 714,-196"/>
<text text-anchor="middle" x="671.5" y="-174.3" font-family="Times,serif" font-size="14.00">Damageable</text>
</g>
<!-- Combatant&#45;&gt;Damageable -->
<g id="edge9" class="edge">
<title>Combatant&#45;&gt;Damageable</title>
<path fill="none" stroke="black" stroke-dasharray="5,2" d="M537.03,-148.34C561.09,-153.69 592.64,-160.7 619.03,-166.56"/>
<polygon fill="black" stroke="black" points="618.34,-169.99 628.86,-168.75 619.86,-163.16 618.34,-169.99"/>
<text text-anchor="middle" x="585.5" y="-167.8" font-family="Times,serif" font-size="14.00">(extends)</text>
</g>
<!-- GameEntity -->
<g id="node6" class="node">
<title>GameEntity</title>
<polygon fill="#ffb347" stroke="black" points="713,-140 630,-140 630,-104 713,-104 713,-140"/>
<text text-anchor="middle" x="671.5" y="-118.3" font-family="Times,serif" font-size="14.00">GameEntity</text>
</g>
<!-- Combatant&#45;&gt;GameEntity -->
<g id="edge8" class="edge">
<title>Combatant&#45;&gt;GameEntity</title>
<path fill="none" stroke="black" stroke-dasharray="5,2" d="M537.03,-136.05C561.24,-133.5 593.05,-130.15 619.54,-127.36"/>
<polygon fill="black" stroke="black" points="620.2,-130.81 629.77,-126.29 619.46,-123.85 620.2,-130.81"/>
<text text-anchor="middle" x="585.5" y="-136.8" font-family="Times,serif" font-size="14.00">(extends)</text>
</g>
<!-- Creature -->
<g id="node3" class="node">
<title>Creature</title>
<polygon fill="#add8e6" stroke="black" points="345,-120 282,-120 282,-84 345,-84 345,-120"/>
<text text-anchor="middle" x="313.5" y="-98.3" font-family="Times,serif" font-size="14.00">Creature</text>
</g>
<!-- Creature&#45;&gt;Combatant -->
<g id="edge3" class="edge">
<title>Creature&#45;&gt;Combatant</title>
<path fill="none" stroke="black" stroke-dasharray="5,2" d="M345.13,-108.36C373.72,-114.3 416.81,-123.24 449.88,-130.11"/>
<polygon fill="black" stroke="black" points="449.29,-133.56 459.79,-132.17 450.71,-126.71 449.29,-133.56"/>
<text text-anchor="middle" x="400" y="-129.8" font-family="Times,serif" font-size="14.00">(implements)</text>
</g>
<!-- WorldObject -->
<g id="node14" class="node">
<title>WorldObject</title>
<polygon fill="#ffb347" stroke="black" points="542,-93 455,-93 455,-57 542,-57 542,-93"/>
<text text-anchor="middle" x="498.5" y="-71.3" font-family="Times,serif" font-size="14.00">WorldObject</text>
</g>
<!-- Creature&#45;&gt;WorldObject -->
<g id="edge4" class="edge">
<title>Creature&#45;&gt;WorldObject</title>
<path fill="none" stroke="black" stroke-dasharray="5,2" d="M345.08,-92.25C350.98,-90.63 357.15,-89.12 363,-88 389.73,-82.89 419.86,-79.75 444.81,-77.83"/>
<polygon fill="black" stroke="black" points="445.09,-81.32 454.81,-77.11 444.58,-74.34 445.09,-81.32"/>
<text text-anchor="middle" x="400" y="-91.8" font-family="Times,serif" font-size="14.00">(implements)</text>
</g>
<!-- Entity -->
<g id="node5" class="node">
<title>Entity</title>
<polygon fill="#ffb347" stroke="black" points="874.5,-138 820.5,-138 820.5,-102 874.5,-102 874.5,-138"/>
<text text-anchor="middle" x="847.5" y="-116.3" font-family="Times,serif" font-size="14.00">Entity</text>
</g>
<!-- Identifiable -->
<g id="node7" class="node">
<title>Identifiable</title>
<polygon fill="#ffb347" stroke="black" points="1049,-164 970,-164 970,-128 1049,-128 1049,-164"/>
<text text-anchor="middle" x="1009.5" y="-142.3" font-family="Times,serif" font-size="14.00">Identifiable</text>
</g>
<!-- Entity&#45;&gt;Identifiable -->
<g id="edge13" class="edge">
<title>Entity&#45;&gt;Identifiable</title>
<path fill="none" stroke="black" stroke-dasharray="5,2" d="M874.9,-123.92C895.83,-127.07 925.81,-131.66 952,-136 954.63,-136.44 957.32,-136.89 960.04,-137.35"/>
<polygon fill="black" stroke="black" points="959.47,-140.81 969.92,-139.06 960.66,-133.91 959.47,-140.81"/>
<text text-anchor="middle" x="926.5" y="-139.8" font-family="Times,serif" font-size="14.00">(extends)</text>
</g>
<!-- Positioned -->
<g id="node10" class="node">
<title>Positioned</title>
<polygon fill="#ffb347" stroke="black" points="1046.5,-99 972.5,-99 972.5,-63 1046.5,-63 1046.5,-99"/>
<text text-anchor="middle" x="1009.5" y="-77.3" font-family="Times,serif" font-size="14.00">Positioned</text>
</g>
<!-- Entity&#45;&gt;Positioned -->
<g id="edge14" class="edge">
<title>Entity&#45;&gt;Positioned</title>
<path fill="none" stroke="black" stroke-dasharray="5,2" d="M874.56,-113.65C898.33,-107.85 933.97,-99.17 962.52,-92.21"/>
<polygon fill="black" stroke="black" points="963.4,-95.59 972.29,-89.83 961.75,-88.79 963.4,-95.59"/>
<text text-anchor="middle" x="926.5" y="-109.8" font-family="Times,serif" font-size="14.00">(extends)</text>
</g>
<!-- GameEntity&#45;&gt;Entity -->
<g id="edge10" class="edge">
<title>GameEntity&#45;&gt;Entity</title>
<path fill="none" stroke="black" stroke-dasharray="5,2" d="M713.3,-121.53C742.6,-121.19 781.75,-120.74 810.02,-120.42"/>
<polygon fill="black" stroke="black" points="810.32,-123.92 820.28,-120.3 810.24,-116.92 810.32,-123.92"/>
<text text-anchor="middle" x="763" y="-124.8" font-family="Times,serif" font-size="14.00">(extends)</text>
</g>
<!-- Trackable -->
<g id="node13" class="node">
<title>Trackable</title>
<polygon fill="#ffb347" stroke="black" points="883,-192 812,-192 812,-156 883,-156 883,-192"/>
<text text-anchor="middle" x="847.5" y="-170.3" font-family="Times,serif" font-size="14.00">Trackable</text>
</g>
<!-- GameEntity&#45;&gt;Trackable -->
<g id="edge11" class="edge">
<title>GameEntity&#45;&gt;Trackable</title>
<path fill="none" stroke="black" stroke-dasharray="5,2" d="M713.14,-134.32C719.45,-136.23 725.9,-138.17 732,-140 755.15,-146.94 780.95,-154.61 802.19,-160.9"/>
<polygon fill="black" stroke="black" points="801.33,-164.3 811.91,-163.78 803.32,-157.58 801.33,-164.3"/>
<text text-anchor="middle" x="763" y="-160.8" font-family="Times,serif" font-size="14.00">(extends)</text>
</g>
<!-- NPC&#45;&gt;Creature -->
<g id="edge2" class="edge">
<title>NPC&#45;&gt;Creature</title>
<path fill="none" stroke="black" stroke-dasharray="5,2" d="M195.32,-102C216.7,-102 247.23,-102 271.76,-102"/>
<polygon fill="black" stroke="black" points="271.86,-105.5 281.86,-102 271.86,-98.5 271.86,-105.5"/>
<text text-anchor="middle" x="238.5" y="-105.8" font-family="Times,serif" font-size="14.00">(extends)</text>
</g>
<!-- Physical -->
<g id="node9" class="node">
<title>Physical</title>
<polygon fill="#ffb347" stroke="black" points="794,-82 732,-82 732,-46 794,-46 794,-82"/>
<text text-anchor="middle" x="763" y="-60.3" font-family="Times,serif" font-size="14.00">Physical</text>
</g>
<!-- Physical&#45;&gt;Positioned -->
<g id="edge12" class="edge">
<title>Physical&#45;&gt;Positioned</title>
<path fill="none" stroke="black" stroke-dasharray="5,2" d="M794.47,-66.12C836.66,-69.05 913.21,-74.37 962.41,-77.8"/>
<polygon fill="black" stroke="black" points="962.25,-81.29 972.47,-78.49 962.74,-74.31 962.25,-81.29"/>
<text text-anchor="middle" x="847.5" y="-76.8" font-family="Times,serif" font-size="14.00">(extends)</text>
</g>
<!-- Renderable -->
<g id="node11" class="node">
<title>Renderable</title>
<polygon fill="#ffb347" stroke="black" points="710.5,-36 632.5,-36 632.5,0 710.5,0 710.5,-36"/>
<text text-anchor="middle" x="671.5" y="-14.3" font-family="Times,serif" font-size="14.00">Renderable</text>
</g>
<!-- Timed -->
<g id="node12" class="node">
<title>Timed</title>
<polygon fill="#ffb347" stroke="black" points="1036.5,-229 982.5,-229 982.5,-193 1036.5,-193 1036.5,-229"/>
<text text-anchor="middle" x="1009.5" y="-207.3" font-family="Times,serif" font-size="14.00">Timed</text>
</g>
<!-- Trackable&#45;&gt;Identifiable -->
<g id="edge15" class="edge">
<title>Trackable&#45;&gt;Identifiable</title>
<path fill="none" stroke="black" stroke-dasharray="5,2" d="M883.22,-167.92C905.67,-163.99 935.23,-158.82 959.99,-154.49"/>
<polygon fill="black" stroke="black" points="960.68,-157.92 969.92,-152.75 959.47,-151.03 960.68,-157.92"/>
<text text-anchor="middle" x="926.5" y="-167.8" font-family="Times,serif" font-size="14.00">(extends)</text>
</g>
<!-- Trackable&#45;&gt;Timed -->
<g id="edge16" class="edge">
<title>Trackable&#45;&gt;Timed</title>
<path fill="none" stroke="black" stroke-dasharray="5,2" d="M883.22,-182.03C909.51,-188.11 945.52,-196.44 972.19,-202.6"/>
<polygon fill="black" stroke="black" points="971.74,-206.09 982.28,-204.94 973.32,-199.27 971.74,-206.09"/>
<text text-anchor="middle" x="926.5" y="-199.8" font-family="Times,serif" font-size="14.00">(extends)</text>
</g>
<!-- WorldObject&#45;&gt;GameEntity -->
<g id="edge5" class="edge">
<title>WorldObject&#45;&gt;GameEntity</title>
<path fill="none" stroke="black" stroke-dasharray="5,2" d="M542.21,-86.74C565.77,-93.21 595.18,-101.3 619.89,-108.09"/>
<polygon fill="black" stroke="black" points="619.24,-111.54 629.81,-110.81 621.09,-104.79 619.24,-111.54"/>
<text text-anchor="middle" x="585.5" y="-108.8" font-family="Times,serif" font-size="14.00">(extends)</text>
</g>
<!-- WorldObject&#45;&gt;Physical -->
<g id="edge7" class="edge">
<title>WorldObject&#45;&gt;Physical</title>
<path fill="none" stroke="black" stroke-dasharray="5,2" d="M542.26,-73.21C591.93,-71.13 673.26,-67.72 721.81,-65.68"/>
<polygon fill="black" stroke="black" points="722.09,-69.18 731.94,-65.26 721.8,-62.18 722.09,-69.18"/>
<text text-anchor="middle" x="585.5" y="-76.8" font-family="Times,serif" font-size="14.00">(extends)</text>
</g>
<!-- WorldObject&#45;&gt;Renderable -->
<g id="edge6" class="edge">
<title>WorldObject&#45;&gt;Renderable</title>
<path fill="none" stroke="black" stroke-dasharray="5,2" d="M516.49,-56.94C527.73,-46.25 543.41,-33.55 560,-27 579.51,-19.3 602.44,-16.52 622.34,-15.87"/>
<polygon fill="black" stroke="black" points="622.49,-19.37 632.44,-15.72 622.38,-12.37 622.49,-19.37"/>
<text text-anchor="middle" x="585.5" y="-30.8" font-family="Times,serif" font-size="14.00">(extends)</text>
</g>
</g>
</svg>
