<?xml version="1.0" encoding="UTF-8" standalone="no"?>
<!DOCTYPE svg PUBLIC "-//W3C//DTD SVG 1.1//EN"
 "http://www.w3.org/Graphics/SVG/1.1/DTD/svg11.dtd">
<!-- Generated by graphviz version 2.43.0 (0)
 -->
<!-- Title: types Pages: 1 -->
<svg width="233pt" height="180pt"
 viewBox="0.00 0.00 233.29 180.00" xmlns="http://www.w3.org/2000/svg" xmlns:xlink="http://www.w3.org/1999/xlink">
<g id="graph0" class="graph" transform="scale(1 1) rotate(0) translate(4 176)">
<title>types</title>
<polygon fill="white" stroke="transparent" points="-4,4 -4,-176 229.29,-176 229.29,4 -4,4"/>
<text text-anchor="middle" x="112.65" y="-153.6" font-family="Times,serif" font-size="18.00">graph Boss declared</text>
<!-- Boss -->
<g id="node1" class="node">
<title>Boss</title>
<polygon fill="#add8e6" stroke="black" stroke-width="3" points="54,-90 0,-90 0,-54 54,-54 54,-90"/>
<text text-anchor="middle" x="27" y="-68.3" font-family="Times,serif" font-size="14.00">Boss</text>
</g>
<!-- string -->
<g id="node2" class="node">
<title>string</title>
<ellipse fill="#ffffe0" stroke="black" cx="192.15" cy="-126" rx="30.59" ry="18"/>
<text text-anchor="middle" x="192.15" y="-122.3" font-family="Times,serif" font-size="14.00">string</text>
</g>
<!-- Boss&#45;&gt;string -->
<g id="edge2" class="edge">
<title>Boss&#45;&gt;string</title>
<path fill="none" stroke="black" d="M54.32,-83.98C60.09,-86.44 66.21,-88.91 72,-91 99.15,-100.81 130.48,-109.93 154.21,-116.4"/>
<polygon fill="black" stroke="black" points="153.3,-119.78 163.87,-119 155.13,-113.02 153.3,-119.78"/>
<text text-anchor="middle" x="106.5" y="-115.8" font-family="Times,serif" font-size="14.00">title</text>
</g>
<!-- uint32 -->
<g id="node3" class="node">
<title>uint32</title>
<ellipse fill="#ffffe0" stroke="black" cx="192.15" cy="-72" rx="33.29" ry="18"/>
<text text-anchor="middle" x="192.15" y="-68.3" font-family="Times,serif" font-size="14.00">uint32</text>
</g>
<!-- Boss&#45;&gt;uint32 -->
<g id="edge3" class="edge">
<title>Boss&#45;&gt;uint32</title>
<path fill="none" stroke="black" d="M54.21,-72C79.67,-72 118.76,-72 148.67,-72"/>
<polygon fill="black" stroke="black" points="148.82,-75.5 158.82,-72 148.82,-68.5 148.82,-75.5"/>
<text text-anchor="middle" x="106.5" y="-75.8" font-family="Times,serif" font-size="14.00">reward_gold</text>
</g>
<!-- uint8 -->
<g id="node4" class="node">
<title>uint8</title>
<ellipse fill="#ffffe0" stroke="black" cx="192.15" cy="-18" rx="28.7" ry="18"/>
<text text-anchor="middle" x="192.15" y="-14.3" font-family="Times,serif" font-size="14.00">uint8</text>
</g>
<!-- Boss&#45;&gt;uint8 -->
<g id="edge1" class="edge">
<title>Boss&#45;&gt;uint8</title>
<path fill="none" stroke="black" d="M54.32,-60.02C60.09,-57.56 66.21,-55.09 72,-53 99.68,-43 131.71,-33.71 155.59,-27.22"/>
<polygon fill="black" stroke="black" points="156.54,-30.59 165.29,-24.62 154.72,-23.83 156.54,-30.59"/>
<text text-anchor="middle" x="106.5" y="-56.8" font-family="Times,serif" font-size="14.00">phase</text>
</g>
</g>
</svg>
