<?xml version="1.0" encoding="UTF-8" standalone="no"?>
<!DOCTYPE svg PUBLIC "-//W3C//DTD SVG 1.1//EN"
 "http://www.w3.org/Graphics/SVG/1.1/DTD/svg11.dtd">
<!-- Generated by graphviz version 2.43.0 (0)
 -->
<!-- Title: types Pages: 1 -->
<svg width="239pt" height="126pt"
 viewBox="0.00 0.00 238.69 126.00" xmlns="http://www.w3.org/2000/svg" xmlns:xlink="http://www.w3.org/1999/xlink">
<g id="graph0" class="graph" transform="scale(1 1) rotate(0) translate(4 122)">
<title>types</title>
<polygon fill="white" stroke="transparent" points="-4,4 -4,-122 234.69,-122 234.69,4 -4,4"/>
<text text-anchor="middle" x="115.35" y="-99.6" font-family="Times,serif" font-size="18.00">graph NPC declared</text>
<!-- NPC -->
<g id="node1" class="node">
<title>NPC</title>
<polygon fill="#add8e6" stroke="black" stroke-width="3" points="54,-63 0,-63 0,-27 54,-27 54,-63"/>
<text text-anchor="middle" x="27" y="-41.3" font-family="Times,serif" font-size="14.00">NPC</text>
</g>
<!-- boolean -->
<g id="node2" class="node">
<title>boolean</title>
<ellipse fill="#ffffe0" stroke="black" cx="192.35" cy="-72" rx="38.19" ry="18"/>
<text text-anchor="middle" x="192.35" y="-68.3" font-family="Times,serif" font-size="14.00">boolean</text>
</g>
<!-- NPC&#45;&gt;boolean -->
<g id="edge2" class="edge">
<title>NPC&#45;&gt;boolean</title>
<path fill="none" stroke="black" d="M54.24,-49.34C78.93,-53.42 116.41,-59.61 145.94,-64.5"/>
<polygon fill="black" stroke="black" points="145.59,-67.98 156.03,-66.16 146.73,-61.08 145.59,-67.98"/>
<text text-anchor="middle" x="104" y="-65.8" font-family="Times,serif" font-size="14.00">quest_giver</text>
</g>
<!-- string -->
<g id="node3" class="node">
<title>string</title>
<ellipse fill="#ffffe0" stroke="black" cx="192.35" cy="-18" rx="30.59" ry="18"/>
<text text-anchor="middle" x="192.35" y="-14.3" font-family="Times,serif" font-size="14.00">string</text>
</g>
<!-- NPC&#45;&gt;string -->
<g id="edge1" class="edge">
<title>NPC&#45;&gt;string</title>
<path fill="none" stroke="black" d="M54.45,-38.62C60.22,-37.33 66.3,-36.05 72,-35 98.59,-30.09 128.75,-25.81 152.09,-22.77"/>
<polygon fill="black" stroke="black" points="152.82,-26.2 162.3,-21.46 151.94,-19.26 152.82,-26.2"/>
<text text-anchor="middle" x="104" y="-38.8" font-family="Times,serif" font-size="14.00">greeting</text>
</g>
</g>
</svg>
