<?xml version="1.0" encoding="UTF-8" standalone="no"?>
<!DOCTYPE svg PUBLIC "-//W3C//DTD SVG 1.1//EN"
 "http://www.w3.org/Graphics/SVG/1.1/DTD/svg11.dtd">
<!-- Generated by graphviz version 2.43.0 (0)
 -->
<!-- Title: types Pages: 1 -->
<svg width="239pt" height="751pt"
 viewBox="0.00 0.00 238.69 750.79" xmlns="http://www.w3.org/2000/svg" xmlns:xlink="http://www.w3.org/1999/xlink">
<g id="graph0" class="graph" transform="scale(1 1) rotate(0) translate(4 746.79)">
<title>types</title>
<polygon fill="white" stroke="transparent" points="-4,4 -4,-746.79 234.69,-746.79 234.69,4 -4,4"/>
<text text-anchor="middle" x="115.35" y="-724.39" font-family="Times,serif" font-size="18.00">graph NPC stored</text>
<!-- Faction -->
<g id="node1" class="node">
<title>Faction</title>
<polygon fill="#90ee90" stroke="black" points="220.85,-714.79 163.85,-714.79 163.85,-678.79 220.85,-678.79 220.85,-714.79"/>
<text text-anchor="middle" x="192.35" y="-693.09" font-family="Times,serif" font-size="14.00">Faction</text>
</g>
<!-- NPC -->
<g id="node2" class="node">
<title>NPC</title>
<polygon fill="#add8e6" stroke="black" stroke-width="3" points="54,-372.79 0,-372.79 0,-336.79 54,-336.79 54,-372.79"/>
<text text-anchor="middle" x="27" y="-351.09" font-family="Times,serif" font-size="14.00">NPC</text>
</g>
<!-- NPC&#45;&gt;Faction -->
<g id="edge17" class="edge">
<title>NPC&#45;&gt;Faction</title>
<path fill="none" stroke="black" d="M27.93,-373.08C28.09,-433.61 31.82,-626.09 72,-669.79 92.44,-692.01 126.97,-697.88 153.65,-698.7"/>
<polygon fill="black" stroke="black" points="153.77,-702.21 163.8,-698.79 153.83,-695.21 153.77,-702.21"/>
<text text-anchor="middle" x="104" y="-700.59" font-family="Times,serif" font-size="14.00">faction</text>
</g>
<!-- boolean -->
<g id="node3" class="node">
<title>boolean</title>
<ellipse fill="#ffffe0" stroke="black" cx="192.35" cy="-631.79" rx="38.19" ry="18"/>
<text text-anchor="middle" x="192.35" y="-628.09" font-family="Times,serif" font-size="14.00">boolean</text>
</g>
<!-- NPC&#45;&gt;boolean -->
<g id="edge14" class="edge">
<title>NPC&#45;&gt;boolean</title>
<path fill="none" stroke="black" d="M27.91,-373.08C28.07,-430.04 31.91,-602.47 72,-636.79 93.7,-655.36 126.59,-652.5 152.35,-645.9"/>
<polygon fill="black" stroke="black" points="153.52,-649.2 162.19,-643.11 151.62,-642.47 153.52,-649.2"/>
<text text-anchor="middle" x="104" y="-654.59" font-family="Times,serif" font-size="14.00">solid</text>
</g>
<!-- NPC&#45;&gt;boolean -->
<g id="edge19" class="edge">
<title>NPC&#45;&gt;boolean</title>
<path fill="none" stroke="black" d="M29.1,-373.02C32.42,-422.36 43.9,-557.02 72,-589.79 77.36,-596.04 117.41,-609.38 149.65,-619.36"/>
<polygon fill="black" stroke="black" points="148.78,-622.75 159.36,-622.34 150.83,-616.06 148.78,-622.75"/>
<text text-anchor="middle" x="104" y="-618.59" font-family="Times,serif" font-size="14.00">quest_giver</text>
</g>
<!-- float32 -->
<g id="node4" class="node">
<title>float32</title>
<ellipse fill="#ffffe0" stroke="black" cx="192.35" cy="-506.79" rx="36" ry="18"/>
<text text-anchor="middle" x="192.35" y="-503.09" font-family="Times,serif" font-size="14.00">float32</text>
</g>
<!-- NPC&#45;&gt;float32 -->
<g id="edge2" class="edge">
<title>NPC&#45;&gt;float32</title>
<path fill="none" stroke="black" d="M29.05,-372.91C32.12,-418.72 42.79,-537.15 72,-560.79 94.11,-578.68 109.65,-571.51 136,-560.79 150.71,-554.8 163.64,-542.82 173.3,-531.66"/>
<polygon fill="black" stroke="black" points="176.12,-533.73 179.73,-523.77 170.7,-529.31 176.12,-533.73"/>
<text text-anchor="middle" x="104" y="-574.59" font-family="Times,serif" font-size="14.00">x</text>
</g>
<!-- NPC&#45;&gt;float32 -->
<g id="edge3" class="edge">
<title>NPC&#45;&gt;float32</title>
<path fill="none" stroke="black" d="M30,-373.04C34.77,-412.65 48.19,-504.41 72,-522.79 96.07,-541.36 131.3,-533.67 157.25,-523.56"/>
<polygon fill="black" stroke="black" points="158.82,-526.7 166.7,-519.62 156.12,-520.24 158.82,-526.7"/>
<text text-anchor="middle" x="104" y="-537.59" font-family="Times,serif" font-size="14.00">y</text>
</g>
<!-- NPC&#45;&gt;float32 -->
<g id="edge12" class="edge">
<title>NPC&#45;&gt;float32</title>
<path fill="none" stroke="black" d="M28.62,-373.04C30.62,-401.49 38.85,-456.1 72,-484.79 83.15,-494.44 117.8,-500.11 146.91,-503.27"/>
<polygon fill="black" stroke="black" points="146.62,-506.76 156.92,-504.29 147.33,-499.8 146.62,-506.76"/>
<text text-anchor="middle" x="104" y="-504.59" font-family="Times,serif" font-size="14.00">width</text>
</g>
<!-- NPC&#45;&gt;float32 -->
<g id="edge13" class="edge">
<title>NPC&#45;&gt;float32</title>
<path fill="none" stroke="black" d="M32,-373.08C37.5,-393.89 49.38,-427.47 72,-446.79 94.57,-466.05 109.45,-452.53 136,-465.79 146.22,-470.89 156.51,-477.89 165.4,-484.66"/>
<polygon fill="black" stroke="black" points="163.44,-487.56 173.45,-491.01 167.77,-482.07 163.44,-487.56"/>
<text text-anchor="middle" x="104" y="-469.59" font-family="Times,serif" font-size="14.00">height</text>
</g>
<!-- NPC&#45;&gt;float32 -->
<g id="edge15" class="edge">
<title>NPC&#45;&gt;float32</title>
<path fill="none" stroke="black" d="M45.93,-373.06C53.58,-380.32 62.84,-388.43 72,-394.79 98.29,-413.04 111.9,-406.74 136,-427.79 153.03,-442.66 167.49,-463.81 177.35,-480.49"/>
<polygon fill="black" stroke="black" points="174.35,-482.28 182.35,-489.23 180.42,-478.81 174.35,-482.28"/>
<text text-anchor="middle" x="104" y="-431.59" font-family="Times,serif" font-size="14.00">speed</text>
</g>
<!-- int16 -->
<g id="node5" class="node">
<title>int16</title>
<ellipse fill="#ffffe0" stroke="black" cx="192.35" cy="-373.79" rx="28.7" ry="18"/>
<text text-anchor="middle" x="192.35" y="-370.09" font-family="Times,serif" font-size="14.00">int16</text>
</g>
<!-- NPC&#45;&gt;int16 -->
<g id="edge6" class="edge">
<title>NPC&#45;&gt;int16</title>
<path fill="none" stroke="black" d="M54.13,-365.85C59.92,-367.86 66.09,-369.67 72,-370.79 98.84,-375.86 129.68,-376.51 153.29,-375.94"/>
<polygon fill="black" stroke="black" points="153.71,-379.43 163.59,-375.6 153.48,-372.43 153.71,-379.43"/>
<text text-anchor="middle" x="104" y="-379.59" font-family="Times,serif" font-size="14.00">hp</text>
</g>
<!-- NPC&#45;&gt;int16 -->
<g id="edge7" class="edge">
<title>NPC&#45;&gt;int16</title>
<path fill="none" stroke="black" d="M54,-350.95C76.04,-348.44 108.37,-346.5 136,-351.79 144,-353.32 152.31,-355.99 159.99,-358.95"/>
<polygon fill="black" stroke="black" points="158.73,-362.22 169.31,-362.8 161.4,-355.75 158.73,-362.22"/>
<text text-anchor="middle" x="104" y="-355.59" font-family="Times,serif" font-size="14.00">max_hp</text>
</g>
<!-- string -->
<g id="node6" class="node">
<title>string</title>
<ellipse fill="#ffffe0" stroke="black" cx="192.35" cy="-278.79" rx="30.59" ry="18"/>
<text text-anchor="middle" x="192.35" y="-275.09" font-family="Times,serif" font-size="14.00">string</text>
</g>
<!-- NPC&#45;&gt;string -->
<g id="edge1" class="edge">
<title>NPC&#45;&gt;string</title>
<path fill="none" stroke="black" d="M54.2,-338.51C59.98,-335.15 66.13,-331.73 72,-328.79 99.88,-314.79 132.63,-301.27 156.77,-291.82"/>
<polygon fill="black" stroke="black" points="158.16,-295.04 166.21,-288.16 155.63,-288.51 158.16,-295.04"/>
<text text-anchor="middle" x="104" y="-332.59" font-family="Times,serif" font-size="14.00">name</text>
</g>
<!-- NPC&#45;&gt;string -->
<g id="edge10" class="edge">
<title>NPC&#45;&gt;string</title>
<path fill="none" stroke="black" d="M33.29,-336.71C39.46,-319.23 51.53,-293.69 72,-281.79 96.46,-267.56 128.76,-267.66 153.6,-270.84"/>
<polygon fill="black" stroke="black" points="153.33,-274.34 163.74,-272.36 154.37,-267.42 153.33,-274.34"/>
<text text-anchor="middle" x="104" y="-285.59" font-family="Times,serif" font-size="14.00">sprite</text>
</g>
<!-- NPC&#45;&gt;string -->
<g id="edge18" class="edge">
<title>NPC&#45;&gt;string</title>
<path fill="none" stroke="black" d="M29.66,-336.5C32.99,-311.94 42.87,-269.16 72,-249.79 99.35,-231.59 137.01,-245.8 162.67,-260"/>
<polygon fill="black" stroke="black" points="161.13,-263.16 171.53,-265.18 164.66,-257.11 161.13,-263.16"/>
<text text-anchor="middle" x="104" y="-253.59" font-family="Times,serif" font-size="14.00">greeting</text>
</g>
<!-- uint16 -->
<g id="node7" class="node">
<title>uint16</title>
<ellipse fill="#ffffe0" stroke="black" cx="192.35" cy="-199.79" rx="33.29" ry="18"/>
<text text-anchor="middle" x="192.35" y="-196.09" font-family="Times,serif" font-size="14.00">uint16</text>
</g>
<!-- NPC&#45;&gt;uint16 -->
<g id="edge8" class="edge">
<title>NPC&#45;&gt;uint16</title>
<path fill="none" stroke="black" d="M28.45,-336.59C30.21,-307.64 38.08,-251.35 72,-221.79 93.01,-203.48 124.17,-198.22 149.39,-197.41"/>
<polygon fill="black" stroke="black" points="149.46,-200.91 159.43,-197.3 149.39,-193.91 149.46,-200.91"/>
<text text-anchor="middle" x="104" y="-225.59" font-family="Times,serif" font-size="14.00">attack</text>
</g>
<!-- NPC&#45;&gt;uint16 -->
<g id="edge9" class="edge">
<title>NPC&#45;&gt;uint16</title>
<path fill="none" stroke="black" d="M29.77,-336.6C34.15,-295.66 47.05,-198.27 72,-178.79 96.96,-159.3 133.83,-169.99 159.97,-182.1"/>
<polygon fill="black" stroke="black" points="158.56,-185.31 169.07,-186.58 161.64,-179.03 158.56,-185.31"/>
<text text-anchor="middle" x="104" y="-182.59" font-family="Times,serif" font-size="14.00">defense</text>
</g>
<!-- uint32 -->
<g id="node8" class="node">
<title>uint32</title>
<ellipse fill="#ffffe0" stroke="black" cx="192.35" cy="-137.79" rx="33.29" ry="18"/>
<text text-anchor="middle" x="192.35" y="-134.09" font-family="Times,serif" font-size="14.00">uint32</text>
</g>
<!-- NPC&#45;&gt;uint32 -->
<g id="edge4" class="edge">
<title>NPC&#45;&gt;uint32</title>
<path fill="none" stroke="black" d="M29.21,-336.48C32.62,-290.8 43.97,-173.68 72,-148.79 93.06,-130.09 125.21,-128.09 150.84,-130.35"/>
<polygon fill="black" stroke="black" points="150.69,-133.86 161.02,-131.5 151.47,-126.9 150.69,-133.86"/>
<text text-anchor="middle" x="104" y="-152.59" font-family="Times,serif" font-size="14.00">id</text>
</g>
<!-- uint64 -->
<g id="node9" class="node">
<title>uint64</title>
<ellipse fill="#ffffe0" stroke="black" cx="192.35" cy="-83.79" rx="33.29" ry="18"/>
<text text-anchor="middle" x="192.35" y="-80.09" font-family="Times,serif" font-size="14.00">uint64</text>
</g>
<!-- NPC&#45;&gt;uint64 -->
<g id="edge5" class="edge">
<title>NPC&#45;&gt;uint64</title>
<path fill="none" stroke="black" d="M28.72,-336.7C31.12,-285.71 40.59,-142.38 72,-109.79 91.66,-89.39 123.3,-83.2 149.07,-81.95"/>
<polygon fill="black" stroke="black" points="149.43,-85.44 159.33,-81.68 149.25,-78.44 149.43,-85.44"/>
<text text-anchor="middle" x="104" y="-113.59" font-family="Times,serif" font-size="14.00">created_at</text>
</g>
<!-- uint8 -->
<g id="node10" class="node">
<title>uint8</title>
<ellipse fill="#ffffe0" stroke="black" cx="192.35" cy="-18.79" rx="28.7" ry="18"/>
<text text-anchor="middle" x="192.35" y="-15.09" font-family="Times,serif" font-size="14.00">uint8</text>
</g>
<!-- NPC&#45;&gt;uint8 -->
<g id="edge11" class="edge">
<title>NPC&#45;&gt;uint8</title>
<path fill="none" stroke="black" d="M28.41,-336.5C30.04,-279.45 37.78,-106.09 72,-63.79 82.84,-50.39 124.62,-36.65 155.71,-27.93"/>
<polygon fill="black" stroke="black" points="156.65,-31.3 165.37,-25.29 154.8,-24.55 156.65,-31.3"/>
<text text-anchor="middle" x="104" y="-67.59" font-family="Times,serif" font-size="14.00">layer</text>
</g>
<!-- NPC&#45;&gt;uint8 -->
<g id="edge16" class="edge">
<title>NPC&#45;&gt;uint8</title>
<path fill="none" stroke="black" d="M28.98,-336.42C32.79,-268.76 47.58,-36.25 72,-14.79 95.06,5.48 131.37,0.96 157.89,-6.45"/>
<polygon fill="black" stroke="black" points="156.95,-9.82 167.53,-9.39 158.99,-3.12 156.95,-9.82"/>
<text text-anchor="middle" x="104" y="-18.59" font-family="Times,serif" font-size="14.00">level</text>
</g>
</g>
</svg>
