<?xml version="1.0" encoding="UTF-8" standalone="no"?>
<!DOCTYPE svg PUBLIC "-//W3C//DTD SVG 1.1//EN"
 "http://www.w3.org/Graphics/SVG/1.1/DTD/svg11.dtd">
<!-- Generated by graphviz version 2.43.0 (0)
 -->
<!-- Title: types Pages: 1 -->
<svg width="607pt" height="344pt"
 viewBox="0.00 0.00 606.99 344.39" xmlns="http://www.w3.org/2000/svg" xmlns:xlink="http://www.w3.org/1999/xlink">
<g id="graph0" class="graph" transform="scale(1 1) rotate(0) translate(4 340.39)">
<title>types</title>
<polygon fill="white" stroke="transparent" points="-4,4 -4,-340.39 602.99,-340.39 602.99,4 -4,4"/>
<text text-anchor="middle" x="299.49" y="-317.99" font-family="Times,serif" font-size="18.00">graph Boss depth 2</text>
<!-- Boss -->
<g id="node1" class="node">
<title>Boss</title>
<polygon fill="#add8e6" stroke="black" stroke-width="3" points="54,-79.39 0,-79.39 0,-43.39 54,-43.39 54,-79.39"/>
<text text-anchor="middle" x="27" y="-57.69" font-family="Times,serif" font-size="14.00">Boss</text>
</g>
<!-- NPC -->
<g id="node5" class="node">
<title>NPC</title>
<polygon fill="#add8e6" stroke="black" points="219.15,-167.39 165.15,-167.39 165.15,-131.39 219.15,-131.39 219.15,-167.39"/>
<text text-anchor="middle" x="192.15" y="-145.69" font-family="Times,serif" font-size="14.00">NPC</text>
</g>
<!-- Boss&#45;&gt;NPC -->
<g id="edge4" class="edge">
<title>Boss&#45;&gt;NPC</title>
<path fill="none" stroke="black" stroke-dasharray="5,2" d="M44.72,-79.79C52.45,-87.52 62.11,-96.15 72,-102.39 97.95,-118.76 130.54,-131.14 155.08,-139.07"/>
<polygon fill="black" stroke="black" points="154.13,-142.45 164.72,-142.1 156.22,-135.77 154.13,-142.45"/>
<text text-anchor="middle" x="106.5" y="-137.19" font-family="Times,serif" font-size="14.00">(extends)</text>
</g>
<!-- string -->
<g id="node9" class="node">
<title>string</title>
<ellipse fill="#ffffe0" stroke="black" cx="363.64" cy="-101.39" rx="30.59" ry="18"/>
<text text-anchor="middle" x="363.64" y="-97.69" font-family="Times,serif" font-size="14.00">string</text>
</g>
<!-- Boss&#45;&gt;string -->
<g id="edge2" class="edge">
<title>Boss&#45;&gt;string</title>
<path fill="none" stroke="black" d="M54.39,-68.65C60.16,-70.05 66.26,-71.39 72,-72.39 160.94,-87.86 266.73,-95.84 322.93,-99.26"/>
<polygon fill="black" stroke="black" points="322.97,-102.77 333.16,-99.87 323.38,-95.78 322.97,-102.77"/>
<text text-anchor="middle" x="192.15" y="-95.19" font-family="Times,serif" font-size="14.00">title</text>
</g>
<!-- uint32 -->
<g id="node10" class="node">
<title>uint32</title>
<ellipse fill="#ffffe0" stroke="black" cx="192.15" cy="-34.39" rx="33.29" ry="18"/>
<text text-anchor="middle" x="192.15" y="-30.69" font-family="Times,serif" font-size="14.00">uint32</text>
</g>
<!-- Boss&#45;&gt;uint32 -->
<g id="edge3" class="edge">
<title>Boss&#45;&gt;uint32</title>
<path fill="none" stroke="black" d="M54.21,-57.05C80.08,-52.77 120,-46.16 150.08,-41.19"/>
<polygon fill="black" stroke="black" points="150.97,-44.59 160.27,-39.5 149.83,-37.68 150.97,-44.59"/>
<text text-anchor="middle" x="106.5" y="-57.19" font-family="Times,serif" font-size="14.00">reward_gold</text>
</g>
<!-- uint8 -->
<g id="node11" class="node">
<title>uint8</title>
<ellipse fill="#ffffe0" stroke="black" cx="555.49" cy="-51.39" rx="28.7" ry="18"/>
<text text-anchor="middle" x="555.49" y="-47.69" font-family="Times,serif" font-size="14.00">uint8</text>
</g>
<!-- Boss&#45;&gt;uint8 -->
<g id="edge1" class="edge">
<title>Boss&#45;&gt;uint8</title>
<path fill="none" stroke="black" d="M54.06,-46.62C79.78,-33.03 120.7,-14.01 159,-7.39 291.09,15.44 450.15,-21.62 519.41,-40.89"/>
<polygon fill="black" stroke="black" points="518.78,-44.35 529.35,-43.71 520.69,-37.62 518.78,-44.35"/>
<text text-anchor="middle" x="275.29" y="-5.19" font-family="Times,serif" font-size="14.00">phase</text>
</g>
<!-- Combatant -->
<g id="node2" class="node">
<title>Combatant</title>
<polygon fill="#ffb347" stroke="black" points="593.99,-308.39 516.99,-308.39 516.99,-272.39 593.99,-272.39 593.99,-308.39"/>
<text text-anchor="middle" x="555.49" y="-286.69" font-family="Times,serif" font-size="14.00">Combatant</text>
</g>
<!-- Creature -->
<g id="node3" class="node">
<title>Creature</title>
<polygon fill="#add8e6" stroke="black" points="395.14,-227.39 332.14,-227.39 332.14,-191.39 395.14,-191.39 395.14,-227.39"/>
<text text-anchor="middle" x="363.64" y="-205.69" font-family="Times,serif" font-size="14.00">Creature</text>
</g>
<!-- Creature&#45;&gt;Combatant -->
<g id="edge11" class="edge">
<title>Creature&#45;&gt;Combatant</title>
<path fill="none" stroke="black" stroke-dasharray="5,2" d="M388.57,-227.47C398.02,-234.04 409.18,-241.13 419.99,-246.39 447.81,-259.92 480.8,-270.79 507.14,-278.33"/>
<polygon fill="black" stroke="black" points="506.32,-281.74 516.89,-281.06 508.2,-275 506.32,-281.74"/>
<text text-anchor="middle" x="456.99" y="-277.19" font-family="Times,serif" font-size="14.00">(implements)</text>
</g>
<!-- Faction -->
<g id="node4" class="node">
<title>Faction</title>
<polygon fill="#90ee90" stroke="black" points="583.99,-254.39 526.99,-254.39 526.99,-218.39 583.99,-218.39 583.99,-254.39"/>
<text text-anchor="middle" x="555.49" y="-232.69" font-family="Times,serif" font-size="14.00">Faction</text>
</g>
<!-- Creature&#45;&gt;Faction -->
<g id="edge10" class="edge">
<title>Creature&#45;&gt;Faction</title>
<path fill="none" stroke="black" d="M395.14,-213.73C428.25,-218.44 481.14,-225.96 516.81,-231.03"/>
<polygon fill="black" stroke="black" points="516.45,-234.51 526.84,-232.46 517.43,-227.58 516.45,-234.51"/>
<text text-anchor="middle" x="456.99" y="-231.19" font-family="Times,serif" font-size="14.00">faction</text>
</g>
<!-- WorldObject -->
<g id="node6" class="node">
<title>WorldObject</title>
<polygon fill="#ffb347" stroke="black" points="598.99,-200.39 511.99,-200.39 511.99,-164.39 598.99,-164.39 598.99,-200.39"/>
<text text-anchor="middle" x="555.49" y="-178.69" font-family="Times,serif" font-size="14.00">WorldObject</text>
</g>
<!-- Creature&#45;&gt;WorldObject -->
<g id="edge12" class="edge">
<title>Creature&#45;&gt;WorldObject</title>
<path fill="none" stroke="black" stroke-dasharray="5,2" d="M395.27,-202.16C403.28,-200.43 411.93,-198.71 419.99,-197.39 446.89,-192.99 477.03,-189.49 501.95,-186.99"/>
<polygon fill="black" stroke="black" points="502.32,-190.47 511.93,-186.01 501.64,-183.5 502.32,-190.47"/>
<text text-anchor="middle" x="456.99" y="-201.19" font-family="Times,serif" font-size="14.00">(implements)</text>
</g>
<!-- float32 -->
<g id="node8" class="node">
<title>float32</title>
<ellipse fill="#ffffe0" stroke="black" cx="555.49" cy="-128.39" rx="36" ry="18"/>
<text text-anchor="middle" x="555.49" y="-124.69" font-family="Times,serif" font-size="14.00">float32</text>
</g>
<!-- Creature&#45;&gt;float32 -->
<g id="edge8" class="edge">
<title>Creature&#45;&gt;float32</title>
<path fill="none" stroke="black" d="M390.04,-191.21C394.06,-188.28 398.15,-185.27 401.99,-182.39 410.1,-176.31 410.97,-173.03 419.99,-168.39 448.99,-153.47 484.45,-143.22 511.68,-136.83"/>
<polygon fill="black" stroke="black" points="512.7,-140.18 521.68,-134.57 511.15,-133.36 512.7,-140.18"/>
<text text-anchor="middle" x="456.99" y="-172.19" font-family="Times,serif" font-size="14.00">speed</text>
</g>
<!-- Creature&#45;&gt;uint8 -->
<g id="edge9" class="edge">
<title>Creature&#45;&gt;uint8</title>
<path fill="none" stroke="black" d="M394.13,-191.08C397.06,-188.42 399.76,-185.52 401.99,-182.39 418.12,-159.7 402.3,-143.89 419.99,-122.39 445.6,-91.24 488.53,-71.99 518.99,-61.52"/>
<polygon fill="black" stroke="black" points="520.39,-64.75 528.8,-58.31 518.21,-58.1 520.39,-64.75"/>
<text text-anchor="middle" x="456.99" y="-126.19" font-family="Times,serif" font-size="14.00">level</text>
</g>
<!-- NPC&#45;&gt;Creature -->
<g id="edge7" class="edge">
<title>NPC&#45;&gt;Creature</title>
<path fill="none" stroke="black" stroke-dasharray="5,2" d="M219.22,-161.45C226.9,-164.83 235.38,-168.4 243.29,-171.39 269.17,-181.15 298.79,-190.59 322.05,-197.62"/>
<polygon fill="black" stroke="black" points="321.34,-201.07 331.92,-200.58 323.35,-194.36 321.34,-201.07"/>
<text text-anchor="middle" x="275.29" y="-195.19" font-family="Times,serif" font-size="14.00">(extends)</text>
</g>
<!-- boolean -->
<g id="node7" class="node">
<title>boolean</title>
<ellipse fill="#ffffe0" stroke="black" cx="363.64" cy="-155.39" rx="38.19" ry="18"/>
<text text-anchor="middle" x="363.64" y="-151.69" font-family="Times,serif" font-size="14.00">boolean</text>
</g>
<!-- NPC&#45;&gt;boolean -->
<g id="edge6" class="edge">
<title>NPC&#45;&gt;boolean</title>
<path fill="none" stroke="black" d="M219.26,-150.31C244.7,-151.22 283.98,-152.61 315,-153.7"/>
<polygon fill="black" stroke="black" points="315.05,-157.21 325.17,-154.06 315.3,-150.21 315.05,-157.21"/>
<text text-anchor="middle" x="275.29" y="-156.19" font-family="Times,serif" font-size="14.00">quest_giver</text>
</g>
<!-- NPC&#45;&gt;string -->
<g id="edge5" class="edge">
<title>NPC&#45;&gt;string</title>
<path fill="none" stroke="black" d="M219.27,-139.46C226.96,-136.69 235.42,-133.79 243.29,-131.39 270.18,-123.21 300.94,-115.51 324.5,-109.97"/>
<polygon fill="black" stroke="black" points="325.51,-113.33 334.45,-107.65 323.92,-106.51 325.51,-113.33"/>
<text text-anchor="middle" x="275.29" y="-135.19" font-family="Times,serif" font-size="14.00">greeting</text>
</g>
</g>
</svg>
