<?xml version="1.0" encoding="UTF-8" standalone="no"?>
<!DOCTYPE svg PUBLIC "-//W3C//DTD SVG 1.1//EN"
 "http://www.w3.org/Graphics/SVG/1.1/DTD/svg11.dtd">
<!-- Generated by graphviz version 2.43.0 (0)
 -->
<!-- Title: types Pages: 1 -->
<svg width="232pt" height="72pt"
 viewBox="0.00 0.00 232.00 72.00" xmlns="http://www.w3.org/2000/svg" xmlns:xlink="http://www.w3.org/1999/xlink">
<g id="graph0" class="graph" transform="scale(1 1) rotate(0) translate(4 68)">
<title>types</title>
<polygon fill="white" stroke="transparent" points="-4,4 -4,-68 228,-68 228,4 -4,4"/>
<text text-anchor="middle" x="112" y="-45.6" font-family="Times,serif" font-size="18.00">graph Boss structure depth 1</text>
<!-- Boss -->
<g id="node1" class="node">
<title>Boss</title>
<polygon fill="#add8e6" stroke="black" stroke-width="3" points="68.5,-36 14.5,-36 14.5,0 68.5,0 68.5,-36"/>
<text text-anchor="middle" x="41.5" y="-14.3" font-family="Times,serif" font-size="14.00">Boss</text>
</g>
<!-- NPC -->
<g id="node2" class="node">
<title>NPC</title>
<polygon fill="#add8e6" stroke="black" points="209.5,-36 155.5,-36 155.5,0 209.5,0 209.5,-36"/>
<text text-anchor="middle" x="182.5" y="-14.3" font-family="Times,serif" font-size="14.00">NPC</text>
</g>
<!-- Boss&#45;&gt;NPC -->
<g id="edge1" class="edge">
<title>Boss&#45;&gt;NPC</title>
<path fill="none" stroke="black" stroke-dasharray="5,2" d="M68.64,-18C90.29,-18 121.28,-18 145.31,-18"/>
<polygon fill="black" stroke="black" points="145.47,-21.5 155.47,-18 145.47,-14.5 145.47,-21.5"/>
<text text-anchor="middle" x="112" y="-21.8" font-family="Times,serif" font-size="14.00">(extends)</text>
</g>
</g>
</svg>
