<?xml version="1.0" encoding="UTF-8" standalone="no"?>
<!DOCTYPE svg PUBLIC "-//W3C//DTD SVG 1.1//EN"
 "http://www.w3.org/Graphics/SVG/1.1/DTD/svg11.dtd">
<!-- Generated by graphviz version 2.43.0 (0)
 -->
<!-- Title: types Pages: 1 -->
<svg width="1256pt" height="622pt"
 viewBox="0.00 0.00 1256.49 622.00" xmlns="http://www.w3.org/2000/svg" xmlns:xlink="http://www.w3.org/1999/xlink">
<g id="graph0" class="graph" transform="scale(1 1) rotate(0) translate(4 618)">
<title>types</title>
<polygon fill="white" stroke="transparent" points="-4,4 -4,-618 1252.49,-618 1252.49,4 -4,4"/>
<text text-anchor="middle" x="624.25" y="-595.6" font-family="Times,serif" font-size="18.00">graph Boss</text>
<!-- Boss -->
<g id="node1" class="node">
<title>Boss</title>
<polygon fill="#add8e6" stroke="black" stroke-width="3" points="54,-161 0,-161 0,-125 54,-125 54,-161"/>
<text text-anchor="middle" x="27" y="-139.3" font-family="Times,serif" font-size="14.00">Boss</text>
</g>
<!-- Combatant -->
<g id="node2" class="node">
<title>Combatant</title>
<polygon fill="#ffb347" stroke="black" points="571,-491 494,-491 494,-455 571,-455 571,-491"/>
<text text-anchor="middle" x="532.5" y="-469.3" font-family="Times,serif" font-size="14.00">Combatant</text>
</g>
<!-- Boss&#45;&gt;Combatant -->
<g id="edge5" class="edge">
<title>Boss&#45;&gt;Combatant</title>
<path fill="none" stroke="black" stroke-dasharray="5,2" d="M33.62,-161.03C40.72,-182.34 54.2,-218.38 72,-246 149.99,-367 170.89,-418.67 305,-471 363.36,-493.77 436.8,-488.98 483.95,-482.1"/>
<polygon fill="black" stroke="black" points="484.54,-485.56 493.89,-480.57 483.47,-478.64 484.54,-485.56"/>
<text text-anchor="middle" x="250" y="-465.8" font-family="Times,serif" font-size="14.00">(implements)</text>
</g>
<!-- NPC -->
<g id="node9" class="node">
<title>NPC</title>
<polygon fill="#add8e6" stroke="black" points="195,-279 141,-279 141,-243 195,-243 195,-279"/>
<text text-anchor="middle" x="168" y="-257.3" font-family="Times,serif" font-size="14.00">NPC</text>
</g>
<!-- Boss&#45;&gt;NPC -->
<g id="edge4" class="edge">
<title>Boss&#45;&gt;NPC</title>
<path fill="none" stroke="black" stroke-dasharray="5,2" d="M45.57,-161.01C53.47,-168.88 63.02,-178.1 72,-186 92.12,-203.69 115.76,-222.35 134.42,-236.64"/>
<polygon fill="black" stroke="black" points="132.54,-239.61 142.62,-242.88 136.78,-234.04 132.54,-239.61"/>
<text text-anchor="middle" x="97.5" y="-230.8" font-family="Times,serif" font-size="14.00">(extends)</text>
</g>
<!-- WorldObject -->
<g id="node15" class="node">
<title>WorldObject</title>
<polygon fill="#ffb347" stroke="black" points="576,-303 489,-303 489,-267 576,-267 576,-303"/>
<text text-anchor="middle" x="532.5" y="-281.3" font-family="Times,serif" font-size="14.00">WorldObject</text>
</g>
<!-- Boss&#45;&gt;WorldObject -->
<g id="edge6" class="edge">
<title>Boss&#45;&gt;WorldObject</title>
<path fill="none" stroke="black" stroke-dasharray="5,2" d="M54.01,-150.34C133.11,-172.65 371.91,-239.99 478.79,-270.14"/>
<polygon fill="black" stroke="black" points="478.14,-273.59 488.71,-272.93 480.04,-266.85 478.14,-273.59"/>
<text text-anchor="middle" x="250" y="-218.8" font-family="Times,serif" font-size="14.00">(implements)</text>
</g>
<!-- string -->
<g id="node19" class="node">
<title>string</title>
<ellipse fill="#ffffe0" stroke="black" cx="1212.75" cy="-84" rx="30.59" ry="18"/>
<text text-anchor="middle" x="1212.75" y="-80.3" font-family="Times,serif" font-size="14.00">string</text>
</g>
<!-- Boss&#45;&gt;string -->
<g id="edge2" class="edge">
<title>Boss&#45;&gt;string</title>
<path fill="none" stroke="black" d="M35.36,-124.89C52.33,-86.41 98.1,0 167,0 167,0 167,0 1046.5,0 1101.51,0 1156.73,-37.45 1187.35,-62.34"/>
<polygon fill="black" stroke="black" points="1185.4,-65.26 1195.32,-68.98 1189.88,-59.89 1185.4,-65.26"/>
<text text-anchor="middle" x="626" y="-3.8" font-family="Times,serif" font-size="14.00">title</text>
</g>
<!-- uint32 -->
<g id="node21" class="node">
<title>uint32</title>
<ellipse fill="#ffffe0" stroke="black" cx="1045.5" cy="-324" rx="33.29" ry="18"/>
<text text-anchor="middle" x="1045.5" y="-320.3" font-family="Times,serif" font-size="14.00">uint32</text>
</g>
<!-- Boss&#45;&gt;uint32 -->
<g id="edge3" class="edge">
<title>Boss&#45;&gt;uint32</title>
<path fill="none" stroke="black" d="M54.24,-144.85C73.34,-146.28 99.8,-148.45 123,-151 361.04,-177.18 418.57,-219.59 658,-215 774.06,-212.78 807.2,-236.27 919,-205 927.81,-202.54 928.14,-197.3 937,-195 958.94,-189.31 970.68,-180.38 988,-195 1024.51,-225.83 979.01,-261.57 1006,-301 1007.32,-302.93 1008.86,-304.73 1010.56,-306.39"/>
<polygon fill="black" stroke="black" points="1008.71,-309.4 1018.73,-312.86 1013.06,-303.91 1008.71,-309.4"/>
<text text-anchor="middle" x="532.5" y="-217.8" font-family="Times,serif" font-size="14.00">reward_gold</text>
</g>
<!-- uint8 -->
<g id="node23" class="node">
<title>uint8</title>
<ellipse fill="#ffffe0" stroke="black" cx="883.5" cy="-178" rx="28.7" ry="18"/>
<text text-anchor="middle" x="883.5" y="-174.3" font-family="Times,serif" font-size="14.00">uint8</text>
</g>
<!-- Boss&#45;&gt;uint8 -->
<g id="edge1" class="edge">
<title>Boss&#45;&gt;uint8</title>
<path fill="none" stroke="black" d="M47.09,-124.77C54.33,-118.97 63.01,-113.23 72,-110 317.12,-21.96 402.18,-64.1 658,-113 726.96,-126.18 805.25,-151.24 848.77,-166.1"/>
<polygon fill="black" stroke="black" points="847.69,-169.42 858.28,-169.37 849.96,-162.81 847.69,-169.42"/>
<text text-anchor="middle" x="434" y="-79.8" font-family="Times,serif" font-size="14.00">phase</text>
</g>
<!-- Damageable -->
<g id="node4" class="node">
<title>Damageable</title>
<polygon fill="#ffb347" stroke="black" points="761,-510 676,-510 676,-474 761,-474 761,-510"/>
<text text-anchor="middle" x="718.5" y="-488.3" font-family="Times,serif" font-size="14.00">Damageable</text>
</g>
<!-- Combatant&#45;&gt;Damageable -->
<g id="edge10" class="edge">
<title>Combatant&#45;&gt;Damageable</title>
<path fill="none" stroke="black" stroke-dasharray="5,2" d="M571.07,-469.4C595.91,-467.83 629.1,-467.27 658,-472 660.68,-472.44 663.4,-472.98 666.13,-473.6"/>
<polygon fill="black" stroke="black" points="665.44,-477.04 676,-476.16 667.2,-470.26 665.44,-477.04"/>
<text text-anchor="middle" x="626" y="-475.8" font-family="Times,serif" font-size="14.00">(extends)</text>
</g>
<!-- GameEntity -->
<g id="node7" class="node">
<title>GameEntity</title>
<polygon fill="#ffb347" stroke="black" points="760,-402 677,-402 677,-366 760,-366 760,-402"/>
<text text-anchor="middle" x="718.5" y="-380.3" font-family="Times,serif" font-size="14.00">GameEntity</text>
</g>
<!-- Combatant&#45;&gt;GameEntity -->
<g id="edge9" class="edge">
<title>Combatant&#45;&gt;GameEntity</title>
<path fill="none" stroke="black" stroke-dasharray="5,2" d="M570.74,-454.99C599.57,-441.04 639.69,-421.64 670.7,-406.64"/>
<polygon fill="black" stroke="black" points="672.53,-409.64 680,-402.14 669.48,-403.34 672.53,-409.64"/>
<text text-anchor="middle" x="626" y="-444.8" font-family="Times,serif" font-size="14.00">(extends)</text>
</g>
<!-- uint16 -->
<g id="node20" class="node">
<title>uint16</title>
<ellipse fill="#ffffe0" stroke="black" cx="718.5" cy="-546" rx="33.29" ry="18"/>
<text text-anchor="middle" x="718.5" y="-542.3" font-family="Times,serif" font-size="14.00">uint16</text>
</g>
<!-- Combatant&#45;&gt;uint16 -->
<g id="edge7" class="edge">
<title>Combatant&#45;&gt;uint16</title>
<path fill="none" stroke="black" d="M549.43,-491.03C560.71,-502.61 576.83,-516.93 594,-525 619.32,-536.9 650.37,-542.14 675.01,-544.41"/>
<polygon fill="black" stroke="black" points="674.89,-547.91 685.14,-545.21 675.44,-540.94 674.89,-547.91"/>
<text text-anchor="middle" x="626" y="-545.8" font-family="Times,serif" font-size="14.00">attack</text>
</g>
<!-- Combatant&#45;&gt;uint16 -->
<g id="edge8" class="edge">
<title>Combatant&#45;&gt;uint16</title>
<path fill="none" stroke="black" d="M571.08,-482.22C604.75,-490.61 650.04,-502.23 658,-506 666.92,-510.22 667.86,-513.42 676,-519 679.77,-521.59 683.77,-524.26 687.73,-526.88"/>
<polygon fill="black" stroke="black" points="685.97,-529.91 696.26,-532.46 689.81,-524.06 685.97,-529.91"/>
<text text-anchor="middle" x="626" y="-509.8" font-family="Times,serif" font-size="14.00">defense</text>
</g>
<!-- Creature -->
<g id="node3" class="node">
<title>Creature</title>
<polygon fill="#add8e6" stroke="black" points="373.5,-378 310.5,-378 310.5,-342 373.5,-342 373.5,-378"/>
<text text-anchor="middle" x="342" y="-356.3" font-family="Times,serif" font-size="14.00">Creature</text>
</g>
<!-- Creature&#45;&gt;Combatant -->
<g id="edge30" class="edge">
<title>Creature&#45;&gt;Combatant</title>
<path fill="none" stroke="black" stroke-dasharray="5,2" d="M354.94,-378.18C364.74,-391.78 379.78,-409.87 397,-421 425.93,-439.69 438.94,-431.41 471,-444 476.15,-446.02 481.47,-448.29 486.72,-450.65"/>
<polygon fill="black" stroke="black" points="485.5,-453.94 496.05,-454.95 488.44,-447.58 485.5,-453.94"/>
<text text-anchor="middle" x="434" y="-447.8" font-family="Times,serif" font-size="14.00">(implements)</text>
</g>
<!-- Faction -->
<g id="node6" class="node">
<title>Faction</title>
<polygon fill="#90ee90" stroke="black" points="561,-436 504,-436 504,-400 561,-400 561,-436"/>
<text text-anchor="middle" x="532.5" y="-414.3" font-family="Times,serif" font-size="14.00">Faction</text>
</g>
<!-- Creature&#45;&gt;Faction -->
<g id="edge29" class="edge">
<title>Creature&#45;&gt;Faction</title>
<path fill="none" stroke="black" d="M373.53,-373.93C381.12,-377.14 389.28,-380.37 397,-383 429.2,-393.98 466.73,-403.48 493.95,-409.8"/>
<polygon fill="black" stroke="black" points="493.31,-413.25 503.84,-412.07 494.87,-406.42 493.31,-413.25"/>
<text text-anchor="middle" x="434" y="-406.8" font-family="Times,serif" font-size="14.00">faction</text>
</g>
<!-- Creature&#45;&gt;WorldObject -->
<g id="edge31" class="edge">
<title>Creature&#45;&gt;WorldObject</title>
<path fill="none" stroke="black" stroke-dasharray="5,2" d="M362.16,-341.87C371.93,-333.51 384.39,-324.11 397,-318 411.5,-310.98 447.67,-302.27 478.85,-295.56"/>
<polygon fill="black" stroke="black" points="479.71,-298.95 488.77,-293.46 478.26,-292.11 479.71,-298.95"/>
<text text-anchor="middle" x="434" y="-321.8" font-family="Times,serif" font-size="14.00">(implements)</text>
</g>
<!-- float32 -->
<g id="node17" class="node">
<title>float32</title>
<ellipse fill="#ffffe0" stroke="black" cx="1212.75" cy="-340" rx="36" ry="18"/>
<text text-anchor="middle" x="1212.75" y="-336.3" font-family="Times,serif" font-size="14.00">float32</text>
</g>
<!-- Creature&#45;&gt;float32 -->
<g id="edge27" class="edge">
<title>Creature&#45;&gt;float32</title>
<path fill="none" stroke="black" d="M373.64,-363.36C418.29,-368.42 503.79,-378.73 576,-391 612.69,-397.24 622,-398.54 658,-408 735.62,-428.4 754.71,-435.19 830,-463 854.2,-471.94 911.71,-502.9 937,-508 959.22,-512.48 965.95,-513.25 988,-508 1077.04,-486.79 1156.23,-405.78 1191.83,-364.5"/>
<polygon fill="black" stroke="black" points="1194.55,-366.69 1198.35,-356.8 1189.22,-362.16 1194.55,-366.69"/>
<text text-anchor="middle" x="804.5" y="-466.8" font-family="Times,serif" font-size="14.00">speed</text>
</g>
<!-- Creature&#45;&gt;uint8 -->
<g id="edge28" class="edge">
<title>Creature&#45;&gt;uint8</title>
<path fill="none" stroke="black" d="M373.8,-358.12C419.75,-354.34 508.12,-343.31 576,-312 585.2,-307.76 585.24,-303.1 594,-298 680.48,-247.61 792.17,-207.52 847.81,-189.06"/>
<polygon fill="black" stroke="black" points="849.12,-192.31 857.52,-185.86 846.93,-185.66 849.12,-192.31"/>
<text text-anchor="middle" x="626" y="-301.8" font-family="Times,serif" font-size="14.00">level</text>
</g>
<!-- int16 -->
<g id="node18" class="node">
<title>int16</title>
<ellipse fill="#ffffe0" stroke="black" cx="883.5" cy="-530" rx="28.7" ry="18"/>
<text text-anchor="middle" x="883.5" y="-526.3" font-family="Times,serif" font-size="14.00">int16</text>
</g>
<!-- Damageable&#45;&gt;int16 -->
<g id="edge32" class="edge">
<title>Damageable&#45;&gt;int16</title>
<path fill="none" stroke="black" d="M761.04,-503.47C767.05,-505.05 773.18,-506.6 779,-508 801.21,-513.34 826.25,-518.68 846.15,-522.77"/>
<polygon fill="black" stroke="black" points="845.54,-526.21 856.04,-524.78 846.94,-519.36 845.54,-526.21"/>
<text text-anchor="middle" x="804.5" y="-522.8" font-family="Times,serif" font-size="14.00">hp</text>
</g>
<!-- Damageable&#45;&gt;int16 -->
<g id="edge33" class="edge">
<title>Damageable&#45;&gt;int16</title>
<path fill="none" stroke="black" d="M761.22,-484.04C782.37,-481.7 808.13,-481.47 830,-489 841.22,-492.86 851.88,-500.21 860.62,-507.64"/>
<polygon fill="black" stroke="black" points="858.31,-510.27 868.08,-514.38 863.01,-505.07 858.31,-510.27"/>
<text text-anchor="middle" x="804.5" y="-492.8" font-family="Times,serif" font-size="14.00">max_hp</text>
</g>
<!-- Entity -->
<g id="node5" class="node">
<title>Entity</title>
<polygon fill="#ffb347" stroke="black" points="910.5,-396 856.5,-396 856.5,-360 910.5,-360 910.5,-396"/>
<text text-anchor="middle" x="883.5" y="-374.3" font-family="Times,serif" font-size="14.00">Entity</text>
</g>
<!-- Identifiable -->
<g id="node8" class="node">
<title>Identifiable</title>
<polygon fill="#ffb347" stroke="black" points="1085,-450 1006,-450 1006,-414 1085,-414 1085,-450"/>
<text text-anchor="middle" x="1045.5" y="-428.3" font-family="Times,serif" font-size="14.00">Identifiable</text>
</g>
<!-- Entity&#45;&gt;Identifiable -->
<g id="edge35" class="edge">
<title>Entity&#45;&gt;Identifiable</title>
<path fill="none" stroke="black" stroke-dasharray="5,2" d="M910.56,-386.8C933.69,-394.6 968.08,-406.21 996.22,-415.71"/>
<polygon fill="black" stroke="black" points="995.29,-419.09 1005.89,-418.97 997.53,-412.45 995.29,-419.09"/>
<text text-anchor="middle" x="962.5" y="-414.8" font-family="Times,serif" font-size="14.00">(extends)</text>
</g>
<!-- Positioned -->
<g id="node11" class="node">
<title>Positioned</title>
<polygon fill="#ffb347" stroke="black" points="1082.5,-396 1008.5,-396 1008.5,-360 1082.5,-360 1082.5,-396"/>
<text text-anchor="middle" x="1045.5" y="-374.3" font-family="Times,serif" font-size="14.00">Positioned</text>
</g>
<!-- Entity&#45;&gt;Positioned -->
<g id="edge36" class="edge">
<title>Entity&#45;&gt;Positioned</title>
<path fill="none" stroke="black" stroke-dasharray="5,2" d="M910.56,-378C934.22,-378 969.66,-378 998.15,-378"/>
<polygon fill="black" stroke="black" points="998.29,-381.5 1008.29,-378 998.29,-374.5 998.29,-381.5"/>
<text text-anchor="middle" x="962.5" y="-381.8" font-family="Times,serif" font-size="14.00">(extends)</text>
</g>
<!-- Entity&#45;&gt;uint32 -->
<g id="edge34" class="edge">
<title>Entity&#45;&gt;uint32</title>
<path fill="none" stroke="black" d="M910.61,-368.36C919.02,-365.31 928.38,-361.96 937,-359 960.13,-351.05 986.21,-342.55 1006.89,-335.91"/>
<polygon fill="black" stroke="black" points="1008.12,-339.2 1016.58,-332.82 1005.98,-332.53 1008.12,-339.2"/>
<text text-anchor="middle" x="962.5" y="-362.8" font-family="Times,serif" font-size="14.00">id</text>
</g>
<!-- GameEntity&#45;&gt;Entity -->
<g id="edge19" class="edge">
<title>GameEntity&#45;&gt;Entity</title>
<path fill="none" stroke="black" stroke-dasharray="5,2" d="M760.12,-380.18C766.44,-379.71 772.89,-379.29 779,-379 801.21,-377.96 826.14,-377.69 845.96,-377.69"/>
<polygon fill="black" stroke="black" points="846.1,-381.19 856.11,-377.72 846.12,-374.19 846.1,-381.19"/>
<text text-anchor="middle" x="804.5" y="-382.8" font-family="Times,serif" font-size="14.00">(extends)</text>
</g>
<!-- Trackable -->
<g id="node14" class="node">
<title>Trackable</title>
<polygon fill="#ffb347" stroke="black" points="919,-456 848,-456 848,-420 919,-420 919,-456"/>
<text text-anchor="middle" x="883.5" y="-434.3" font-family="Times,serif" font-size="14.00">Trackable</text>
</g>
<!-- GameEntity&#45;&gt;Trackable -->
<g id="edge20" class="edge">
<title>GameEntity&#45;&gt;Trackable</title>
<path fill="none" stroke="black" stroke-dasharray="5,2" d="M760.19,-395.2C781.19,-401.22 807.12,-409.03 830,-417 832.74,-417.95 835.54,-418.97 838.36,-420.01"/>
<polygon fill="black" stroke="black" points="837.34,-423.37 847.93,-423.66 839.83,-416.83 837.34,-423.37"/>
<text text-anchor="middle" x="804.5" y="-420.8" font-family="Times,serif" font-size="14.00">(extends)</text>
</g>
<!-- Identifiable&#45;&gt;string -->
<g id="edge42" class="edge">
<title>Identifiable&#45;&gt;string</title>
<path fill="none" stroke="black" d="M1077.2,-413.99C1080.17,-411.28 1082.86,-408.28 1085,-405 1107.3,-370.84 1090.22,-353.74 1103,-315 1128.58,-237.48 1173.63,-151.95 1196.9,-110.05"/>
<polygon fill="black" stroke="black" points="1200.09,-111.52 1201.93,-101.08 1193.99,-108.1 1200.09,-111.52"/>
<text text-anchor="middle" x="1131" y="-318.8" font-family="Times,serif" font-size="14.00">name</text>
</g>
<!-- NPC&#45;&gt;Combatant -->
<g id="edge17" class="edge">
<title>NPC&#45;&gt;Combatant</title>
<path fill="none" stroke="black" stroke-dasharray="5,2" d="M173.84,-279.18C180.06,-299.65 192.55,-332.92 213,-355 276.83,-423.92 307.51,-430.43 397,-459 424.94,-467.92 457.63,-471.47 483.8,-472.76"/>
<polygon fill="black" stroke="black" points="483.71,-476.26 493.84,-473.17 483.99,-469.27 483.71,-476.26"/>
<text text-anchor="middle" x="342" y="-455.8" font-family="Times,serif" font-size="14.00">(implements)</text>
</g>
<!-- NPC&#45;&gt;Creature -->
<g id="edge16" class="edge">
<title>NPC&#45;&gt;Creature</title>
<path fill="none" stroke="black" stroke-dasharray="5,2" d="M188.34,-279.05C195.74,-285.46 204.46,-292.46 213,-298 240.93,-316.1 274.93,-332.33 300.87,-343.64"/>
<polygon fill="black" stroke="black" points="299.81,-346.99 310.38,-347.72 302.57,-340.56 299.81,-346.99"/>
<text text-anchor="middle" x="250" y="-339.8" font-family="Times,serif" font-size="14.00">(extends)</text>
</g>
<!-- NPC&#45;&gt;WorldObject -->
<g id="edge18" class="edge">
<title>NPC&#45;&gt;WorldObject</title>
<path fill="none" stroke="black" stroke-dasharray="5,2" d="M195.07,-262.73C254.26,-266.65 399.78,-276.28 478.64,-281.5"/>
<polygon fill="black" stroke="black" points="478.64,-285.01 488.85,-282.18 479.1,-278.02 478.64,-285.01"/>
<text text-anchor="middle" x="342" y="-277.8" font-family="Times,serif" font-size="14.00">(implements)</text>
</g>
<!-- boolean -->
<g id="node16" class="node">
<title>boolean</title>
<ellipse fill="#ffffe0" stroke="black" cx="1045.5" cy="-168" rx="38.19" ry="18"/>
<text text-anchor="middle" x="1045.5" y="-164.3" font-family="Times,serif" font-size="14.00">boolean</text>
</g>
<!-- NPC&#45;&gt;boolean -->
<g id="edge15" class="edge">
<title>NPC&#45;&gt;boolean</title>
<path fill="none" stroke="black" d="M195.02,-254.09C249.41,-239.75 379.17,-206.11 489,-182 685.27,-138.91 736.28,-130.59 937,-121 959.64,-119.92 966.68,-113.29 988,-121 1001.07,-125.72 1013.24,-134.93 1022.91,-143.96"/>
<polygon fill="black" stroke="black" points="1020.53,-146.53 1030.11,-151.06 1025.45,-141.55 1020.53,-146.53"/>
<text text-anchor="middle" x="626" y="-162.8" font-family="Times,serif" font-size="14.00">quest_giver</text>
</g>
<!-- NPC&#45;&gt;string -->
<g id="edge14" class="edge">
<title>NPC&#45;&gt;string</title>
<path fill="none" stroke="black" d="M188.48,-242.91C195.76,-236.88 204.36,-230.54 213,-226 334.43,-162.17 666.32,-46 803.5,-46 803.5,-46 803.5,-46 1046.5,-46 1092.52,-46 1143.96,-60.17 1177.03,-71.2"/>
<polygon fill="black" stroke="black" points="1176.09,-74.58 1186.68,-74.51 1178.35,-67.96 1176.09,-74.58"/>
<text text-anchor="middle" x="718.5" y="-67.8" font-family="Times,serif" font-size="14.00">greeting</text>
</g>
<!-- Physical -->
<g id="node10" class="node">
<title>Physical</title>
<polygon fill="#ffb347" stroke="black" points="914.5,-288 852.5,-288 852.5,-252 914.5,-252 914.5,-288"/>
<text text-anchor="middle" x="883.5" y="-266.3" font-family="Times,serif" font-size="14.00">Physical</text>
</g>
<!-- Physical&#45;&gt;Positioned -->
<g id="edge26" class="edge">
<title>Physical&#45;&gt;Positioned</title>
<path fill="none" stroke="black" stroke-dasharray="5,2" d="M914.69,-280.53C936.82,-289.35 966.61,-303.61 988,-323 998.96,-332.94 995.75,-340.33 1006,-351 1006.64,-351.67 1007.31,-352.33 1007.98,-352.99"/>
<polygon fill="black" stroke="black" points="1005.88,-355.8 1015.72,-359.72 1010.47,-350.52 1005.88,-355.8"/>
<text text-anchor="middle" x="962.5" y="-326.8" font-family="Times,serif" font-size="14.00">(extends)</text>
</g>
<!-- Physical&#45;&gt;boolean -->
<g id="edge25" class="edge">
<title>Physical&#45;&gt;boolean</title>
<path fill="none" stroke="black" d="M898.6,-251.86C908.39,-240.17 922.29,-225.29 937,-215 957.32,-200.79 982.62,-189.47 1003.57,-181.5"/>
<polygon fill="black" stroke="black" points="1004.98,-184.71 1013.16,-177.97 1002.56,-178.14 1004.98,-184.71"/>
<text text-anchor="middle" x="962.5" y="-218.8" font-family="Times,serif" font-size="14.00">solid</text>
</g>
<!-- Physical&#45;&gt;float32 -->
<g id="edge23" class="edge">
<title>Physical&#45;&gt;float32</title>
<path fill="none" stroke="black" d="M914.97,-258.97C939.25,-250.8 974.32,-240.35 1006,-236 1073.37,-226.75 1101.05,-200.42 1159,-236 1185.72,-252.41 1199.41,-287.03 1206.07,-311.82"/>
<polygon fill="black" stroke="black" points="1202.72,-312.88 1208.5,-321.76 1209.52,-311.21 1202.72,-312.88"/>
<text text-anchor="middle" x="1045.5" y="-239.8" font-family="Times,serif" font-size="14.00">width</text>
</g>
<!-- Physical&#45;&gt;float32 -->
<g id="edge24" class="edge">
<title>Physical&#45;&gt;float32</title>
<path fill="none" stroke="black" d="M914.57,-268.4C954.25,-267.05 1025.96,-267.27 1085,-282 1118.94,-290.47 1154.95,-307.86 1179.89,-321.4"/>
<polygon fill="black" stroke="black" points="1178.43,-324.6 1188.87,-326.38 1181.82,-318.47 1178.43,-324.6"/>
<text text-anchor="middle" x="1045.5" y="-285.8" font-family="Times,serif" font-size="14.00">height</text>
</g>
<!-- Positioned&#45;&gt;float32 -->
<g id="edge39" class="edge">
<title>Positioned&#45;&gt;float32</title>
<path fill="none" stroke="black" d="M1072.68,-359.9C1085.72,-351.05 1099.47,-342.07 1103,-341 1123.62,-334.75 1147.46,-333.87 1167.56,-334.82"/>
<polygon fill="black" stroke="black" points="1167.49,-338.32 1177.69,-335.46 1167.93,-331.33 1167.49,-338.32"/>
<text text-anchor="middle" x="1131" y="-344.8" font-family="Times,serif" font-size="14.00">x</text>
</g>
<!-- Positioned&#45;&gt;float32 -->
<g id="edge40" class="edge">
<title>Positioned&#45;&gt;float32</title>
<path fill="none" stroke="black" d="M1082.68,-371.89C1104.83,-367.91 1133.7,-362.29 1159,-356 1163.4,-354.9 1167.98,-353.67 1172.53,-352.38"/>
<polygon fill="black" stroke="black" points="1173.71,-355.68 1182.32,-349.5 1171.74,-348.96 1173.71,-355.68"/>
<text text-anchor="middle" x="1131" y="-370.8" font-family="Times,serif" font-size="14.00">y</text>
</g>
<!-- Renderable -->
<g id="node12" class="node">
<title>Renderable</title>
<polygon fill="#ffb347" stroke="black" points="757.5,-191 679.5,-191 679.5,-155 757.5,-155 757.5,-191"/>
<text text-anchor="middle" x="718.5" y="-169.3" font-family="Times,serif" font-size="14.00">Renderable</text>
</g>
<!-- Renderable&#45;&gt;string -->
<g id="edge21" class="edge">
<title>Renderable&#45;&gt;string</title>
<path fill="none" stroke="black" d="M757.72,-166.09C849.5,-149.49 1081.57,-107.54 1173.45,-90.92"/>
<polygon fill="black" stroke="black" points="1174.21,-94.34 1183.43,-89.12 1172.96,-87.46 1174.21,-94.34"/>
<text text-anchor="middle" x="962.5" y="-136.8" font-family="Times,serif" font-size="14.00">sprite</text>
</g>
<!-- Renderable&#45;&gt;uint8 -->
<g id="edge22" class="edge">
<title>Renderable&#45;&gt;uint8</title>
<path fill="none" stroke="black" d="M757.72,-174.17C783.85,-174.97 818.35,-176.03 844.45,-176.83"/>
<polygon fill="black" stroke="black" points="844.61,-180.34 854.71,-177.15 844.83,-173.34 844.61,-180.34"/>
<text text-anchor="middle" x="804.5" y="-179.8" font-family="Times,serif" font-size="14.00">layer</text>
</g>
<!-- Timed -->
<g id="node13" class="node">
<title>Timed</title>
<polygon fill="#ffb347" stroke="black" points="1072.5,-586 1018.5,-586 1018.5,-550 1072.5,-550 1072.5,-586"/>
<text text-anchor="middle" x="1045.5" y="-564.3" font-family="Times,serif" font-size="14.00">Timed</text>
</g>
<!-- uint64 -->
<g id="node22" class="node">
<title>uint64</title>
<ellipse fill="#ffffe0" stroke="black" cx="1212.75" cy="-568" rx="33.29" ry="18"/>
<text text-anchor="middle" x="1212.75" y="-564.3" font-family="Times,serif" font-size="14.00">uint64</text>
</g>
<!-- Timed&#45;&gt;uint64 -->
<g id="edge41" class="edge">
<title>Timed&#45;&gt;uint64</title>
<path fill="none" stroke="black" d="M1072.68,-568C1098.57,-568 1138.62,-568 1169.1,-568"/>
<polygon fill="black" stroke="black" points="1169.45,-571.5 1179.45,-568 1169.45,-564.5 1169.45,-571.5"/>
<text text-anchor="middle" x="1131" y="-571.8" font-family="Times,serif" font-size="14.00">created_at</text>
</g>
<!-- Trackable&#45;&gt;Identifiable -->
<g id="edge37" class="edge">
<title>Trackable&#45;&gt;Identifiable</title>
<path fill="none" stroke="black" stroke-dasharray="5,2" d="M919.22,-436.7C941.57,-435.86 970.97,-434.76 995.66,-433.83"/>
<polygon fill="black" stroke="black" points="996.06,-437.32 1005.92,-433.45 995.8,-430.32 996.06,-437.32"/>
<text text-anchor="middle" x="962.5" y="-438.8" font-family="Times,serif" font-size="14.00">(extends)</text>
</g>
<!-- Trackable&#45;&gt;Timed -->
<g id="edge38" class="edge">
<title>Trackable&#45;&gt;Timed</title>
<path fill="none" stroke="black" stroke-dasharray="5,2" d="M906.75,-456.08C934.73,-478.81 982.9,-517.95 1014.22,-543.4"/>
<polygon fill="black" stroke="black" points="1012.22,-546.28 1022.18,-549.87 1016.63,-540.85 1012.22,-546.28"/>
<text text-anchor="middle" x="962.5" y="-521.8" font-family="Times,serif" font-size="14.00">(extends)</text>
</g>
<!-- WorldObject&#45;&gt;GameEntity -->
<g id="edge11" class="edge">
<title>WorldObject&#45;&gt;GameEntity</title>
<path fill="none" stroke="black" stroke-dasharray="5,2" d="M569.11,-303.14C594.11,-315.98 628.26,-333.75 658,-350 664.39,-353.49 671.12,-357.26 677.67,-360.96"/>
<polygon fill="black" stroke="black" points="676.01,-364.05 686.44,-365.95 679.48,-357.96 676.01,-364.05"/>
<text text-anchor="middle" x="626" y="-353.8" font-family="Times,serif" font-size="14.00">(extends)</text>
</g>
<!-- WorldObject&#45;&gt;Physical -->
<g id="edge13" class="edge">
<title>WorldObject&#45;&gt;Physical</title>
<path fill="none" stroke="black" stroke-dasharray="5,2" d="M576.15,-285.23C600.2,-285.21 630.78,-284.96 658,-284 722.49,-281.73 797.27,-276.56 842.18,-273.18"/>
<polygon fill="black" stroke="black" points="842.68,-276.65 852.39,-272.4 842.15,-269.67 842.68,-276.65"/>
<text text-anchor="middle" x="718.5" y="-286.8" font-family="Times,serif" font-size="14.00">(extends)</text>
</g>
<!-- WorldObject&#45;&gt;Renderable -->
<g id="edge12" class="edge">
<title>WorldObject&#45;&gt;Renderable</title>
<path fill="none" stroke="black" stroke-dasharray="5,2" d="M549.65,-266.87C561.14,-254.74 577.42,-239.03 594,-228 617.44,-212.4 646.03,-199.34 669.8,-189.87"/>
<polygon fill="black" stroke="black" points="671.28,-193.05 679.33,-186.16 668.74,-186.53 671.28,-193.05"/>
<text text-anchor="middle" x="626" y="-231.8" font-family="Times,serif" font-size="14.00">(extends)</text>
</g>
</g>
</svg>
