<?xml version="1.0" encoding="UTF-8" standalone="no"?>
<!DOCTYPE svg PUBLIC "-//W3C//DTD SVG 1.1//EN"
 "http://www.w3.org/Graphics/SVG/1.1/DTD/svg11.dtd">
<!-- Generated by graphviz version 2.43.0 (0)
 -->
<!-- Title: types Pages: 1 -->
<svg width="610pt" height="466pt"
 viewBox="0.00 0.00 610.00 466.00" xmlns="http://www.w3.org/2000/svg" xmlns:xlink="http://www.w3.org/1999/xlink">
<g id="graph0" class="graph" transform="scale(1 1) rotate(0) translate(4 462)">
<title>types</title>
<polygon fill="white" stroke="transparent" points="-4,4 -4,-462 606,-462 606,4 -4,4"/>
<text text-anchor="middle" x="301" y="-439.6" font-family="Times,serif" font-size="18.00">graph Boss depth 1</text>
<!-- Boss -->
<g id="node1" class="node">
<title>Boss</title>
<polygon fill="#add8e6" stroke="black" stroke-width="3" points="54,-169 0,-169 0,-133 54,-133 54,-169"/>
<text text-anchor="middle" x="27" y="-147.3" font-family="Times,serif" font-size="14.00">Boss</text>
</g>
<!-- Combatant -->
<g id="node2" class="node">
<title>Combatant</title>
<polygon fill="#ffb347" stroke="black" points="425,-403 348,-403 348,-367 425,-367 425,-403"/>
<text text-anchor="middle" x="386.5" y="-381.3" font-family="Times,serif" font-size="14.00">Combatant</text>
</g>
<!-- Boss&#45;&gt;Combatant -->
<g id="edge5" class="edge">
<title>Boss&#45;&gt;Combatant</title>
<path fill="none" stroke="black" stroke-dasharray="5,2" d="M32.32,-169.19C38.29,-191.35 50.8,-229.03 72,-255 133.03,-329.78 159.59,-346.99 251,-378 278.76,-387.42 311.58,-389.29 337.86,-388.75"/>
<polygon fill="black" stroke="black" points="338.07,-392.24 347.95,-388.42 337.84,-385.25 338.07,-392.24"/>
<text text-anchor="middle" x="196" y="-373.8" font-family="Times,serif" font-size="14.00">(implements)</text>
</g>
<!-- NPC -->
<g id="node6" class="node">
<title>NPC</title>
<polygon fill="#add8e6" stroke="black" points="223,-285 169,-285 169,-249 223,-249 223,-285"/>
<text text-anchor="middle" x="196" y="-263.3" font-family="Times,serif" font-size="14.00">NPC</text>
</g>
<!-- Boss&#45;&gt;NPC -->
<g id="edge4" class="edge">
<title>Boss&#45;&gt;NPC</title>
<path fill="none" stroke="black" stroke-dasharray="5,2" d="M46.61,-169.32C54.21,-176.43 63.26,-184.42 72,-191 100.21,-212.25 134.57,-233.11 159.8,-247.58"/>
<polygon fill="black" stroke="black" points="158.23,-250.71 168.65,-252.61 161.69,-244.62 158.23,-250.71"/>
<text text-anchor="middle" x="106.5" y="-239.8" font-family="Times,serif" font-size="14.00">(extends)</text>
</g>
<!-- WorldObject -->
<g id="node9" class="node">
<title>WorldObject</title>
<polygon fill="#ffb347" stroke="black" points="430,-241 343,-241 343,-205 430,-205 430,-241"/>
<text text-anchor="middle" x="386.5" y="-219.3" font-family="Times,serif" font-size="14.00">WorldObject</text>
</g>
<!-- Boss&#45;&gt;WorldObject -->
<g id="edge6" class="edge">
<title>Boss&#45;&gt;WorldObject</title>
<path fill="none" stroke="black" stroke-dasharray="5,2" d="M54.06,-154.56C59.96,-155.37 66.19,-156.21 72,-157 184.43,-172.22 216.95,-156.38 325,-191 332.48,-193.4 340.13,-196.69 347.36,-200.25"/>
<polygon fill="black" stroke="black" points="345.77,-203.37 356.26,-204.87 348.99,-197.16 345.77,-203.37"/>
<text text-anchor="middle" x="196" y="-172.8" font-family="Times,serif" font-size="14.00">(implements)</text>
</g>
<!-- string -->
<g id="node11" class="node">
<title>string</title>
<ellipse fill="#ffffe0" stroke="black" cx="386.5" cy="-151" rx="30.59" ry="18"/>
<text text-anchor="middle" x="386.5" y="-147.3" font-family="Times,serif" font-size="14.00">string</text>
</g>
<!-- Boss&#45;&gt;string -->
<g id="edge2" class="edge">
<title>Boss&#45;&gt;string</title>
<path fill="none" stroke="black" d="M54.06,-148.16C80.46,-145.44 122.52,-141.53 159,-140 224.69,-137.25 301.05,-142.77 346.22,-146.94"/>
<polygon fill="black" stroke="black" points="345.9,-150.42 356.19,-147.88 346.56,-143.45 345.9,-150.42"/>
<text text-anchor="middle" x="196" y="-143.8" font-family="Times,serif" font-size="14.00">title</text>
</g>
<!-- uint32 -->
<g id="node13" class="node">
<title>uint32</title>
<ellipse fill="#ffffe0" stroke="black" cx="196" cy="-72" rx="33.29" ry="18"/>
<text text-anchor="middle" x="196" y="-68.3" font-family="Times,serif" font-size="14.00">uint32</text>
</g>
<!-- Boss&#45;&gt;uint32 -->
<g id="edge3" class="edge">
<title>Boss&#45;&gt;uint32</title>
<path fill="none" stroke="black" d="M38.16,-132.92C45.88,-120.87 57.62,-105.7 72,-97 96.23,-82.35 127.55,-76.13 152.52,-73.56"/>
<polygon fill="black" stroke="black" points="153.14,-77.02 162.8,-72.67 152.53,-70.05 153.14,-77.02"/>
<text text-anchor="middle" x="106.5" y="-100.8" font-family="Times,serif" font-size="14.00">reward_gold</text>
</g>
<!-- uint8 -->
<g id="node14" class="node">
<title>uint8</title>
<ellipse fill="#ffffe0" stroke="black" cx="196" cy="-18" rx="28.7" ry="18"/>
<text text-anchor="middle" x="196" y="-14.3" font-family="Times,serif" font-size="14.00">uint8</text>
</g>
<!-- Boss&#45;&gt;uint8 -->
<g id="edge1" class="edge">
<title>Boss&#45;&gt;uint8</title>
<path fill="none" stroke="black" d="M31.68,-132.92C36.97,-111.56 48.74,-76.34 72,-56 95.77,-35.22 130.75,-25.81 157.34,-21.54"/>
<polygon fill="black" stroke="black" points="158.04,-24.97 167.44,-20.09 157.05,-18.04 158.04,-24.97"/>
<text text-anchor="middle" x="106.5" y="-59.8" font-family="Times,serif" font-size="14.00">phase</text>
</g>
<!-- Damageable -->
<g id="node4" class="node">
<title>Damageable</title>
<polygon fill="#ffb347" stroke="black" points="602,-365 517,-365 517,-329 602,-329 602,-365"/>
<text text-anchor="middle" x="559.5" y="-343.3" font-family="Times,serif" font-size="14.00">Damageable</text>
</g>
<!-- Combatant&#45;&gt;Damageable -->
<g id="edge10" class="edge">
<title>Combatant&#45;&gt;Damageable</title>
<path fill="none" stroke="black" stroke-dasharray="5,2" d="M422.96,-366.91C431.02,-363.45 439.66,-360.21 448,-358 466.79,-353.01 487.92,-350.25 506.63,-348.73"/>
<polygon fill="black" stroke="black" points="507.02,-352.21 516.75,-348.01 506.52,-345.23 507.02,-352.21"/>
<text text-anchor="middle" x="473.5" y="-361.8" font-family="Times,serif" font-size="14.00">(extends)</text>
</g>
<!-- GameEntity -->
<g id="node5" class="node">
<title>GameEntity</title>
<polygon fill="#ffb347" stroke="black" points="601,-303 518,-303 518,-267 601,-267 601,-303"/>
<text text-anchor="middle" x="559.5" y="-281.3" font-family="Times,serif" font-size="14.00">GameEntity</text>
</g>
<!-- Combatant&#45;&gt;GameEntity -->
<g id="edge9" class="edge">
<title>Combatant&#45;&gt;GameEntity</title>
<path fill="none" stroke="black" stroke-dasharray="5,2" d="M419.31,-367C423.11,-364.22 426.78,-361.21 430,-358 440.49,-347.57 436.62,-339.45 448,-330 465.32,-315.61 487.86,-305.33 508.06,-298.26"/>
<polygon fill="black" stroke="black" points="509.36,-301.51 517.75,-295.04 507.16,-294.87 509.36,-301.51"/>
<text text-anchor="middle" x="473.5" y="-333.8" font-family="Times,serif" font-size="14.00">(extends)</text>
</g>
<!-- uint16 -->
<g id="node12" class="node">
<title>uint16</title>
<ellipse fill="#ffffe0" stroke="black" cx="559.5" cy="-412" rx="33.29" ry="18"/>
<text text-anchor="middle" x="559.5" y="-408.3" font-family="Times,serif" font-size="14.00">uint16</text>
</g>
<!-- Combatant&#45;&gt;uint16 -->
<g id="edge7" class="edge">
<title>Combatant&#45;&gt;uint16</title>
<path fill="none" stroke="black" d="M425.05,-395.92C432.6,-397.84 440.52,-399.65 448,-401 470.4,-405.05 495.64,-407.7 516.33,-409.39"/>
<polygon fill="black" stroke="black" points="516.16,-412.88 526.4,-410.16 516.7,-405.91 516.16,-412.88"/>
<text text-anchor="middle" x="473.5" y="-410.8" font-family="Times,serif" font-size="14.00">attack</text>
</g>
<!-- Combatant&#45;&gt;uint16 -->
<g id="edge8" class="edge">
<title>Combatant&#45;&gt;uint16</title>
<path fill="none" stroke="black" d="M425.16,-379.2C447.01,-377.01 474.89,-376.26 499,-382 509.02,-384.38 519.27,-388.74 528.38,-393.41"/>
<polygon fill="black" stroke="black" points="526.94,-396.61 537.4,-398.32 530.29,-390.46 526.94,-396.61"/>
<text text-anchor="middle" x="473.5" y="-385.8" font-family="Times,serif" font-size="14.00">defense</text>
</g>
<!-- Creature -->
<g id="node3" class="node">
<title>Creature</title>
<polygon fill="#add8e6" stroke="black" points="418,-349 355,-349 355,-313 418,-313 418,-349"/>
<text text-anchor="middle" x="386.5" y="-327.3" font-family="Times,serif" font-size="14.00">Creature</text>
</g>
<!-- NPC&#45;&gt;Combatant -->
<g id="edge17" class="edge">
<title>NPC&#45;&gt;Combatant</title>
<path fill="none" stroke="black" stroke-dasharray="5,2" d="M207.78,-285.18C217.44,-300.1 232.86,-320.84 251,-334 254.82,-336.77 300.93,-354.02 338.11,-367.7"/>
<polygon fill="black" stroke="black" points="337.24,-371.1 347.83,-371.27 339.65,-364.53 337.24,-371.1"/>
<text text-anchor="middle" x="288" y="-365.8" font-family="Times,serif" font-size="14.00">(implements)</text>
</g>
<!-- NPC&#45;&gt;Creature -->
<g id="edge16" class="edge">
<title>NPC&#45;&gt;Creature</title>
<path fill="none" stroke="black" stroke-dasharray="5,2" d="M223.03,-280.02C231.79,-284.14 241.71,-288.53 251,-292 282,-303.59 318.05,-313.88 345.03,-320.98"/>
<polygon fill="black" stroke="black" points="344.33,-324.41 354.89,-323.54 346.09,-317.64 344.33,-324.41"/>
<text text-anchor="middle" x="288" y="-318.8" font-family="Times,serif" font-size="14.00">(extends)</text>
</g>
<!-- NPC&#45;&gt;WorldObject -->
<g id="edge18" class="edge">
<title>NPC&#45;&gt;WorldObject</title>
<path fill="none" stroke="black" stroke-dasharray="5,2" d="M223.2,-258.13C231.98,-255.33 241.86,-252.35 251,-250 277.76,-243.12 307.89,-236.93 332.84,-232.22"/>
<polygon fill="black" stroke="black" points="333.64,-235.63 342.83,-230.36 332.36,-228.75 333.64,-235.63"/>
<text text-anchor="middle" x="288" y="-253.8" font-family="Times,serif" font-size="14.00">(implements)</text>
</g>
<!-- boolean -->
<g id="node10" class="node">
<title>boolean</title>
<ellipse fill="#ffffe0" stroke="black" cx="386.5" cy="-277" rx="38.19" ry="18"/>
<text text-anchor="middle" x="386.5" y="-273.3" font-family="Times,serif" font-size="14.00">boolean</text>
</g>
<!-- NPC&#45;&gt;boolean -->
<g id="edge15" class="edge">
<title>NPC&#45;&gt;boolean</title>
<path fill="none" stroke="black" d="M223.21,-268.39C252.77,-269.96 301.43,-272.54 337.78,-274.47"/>
<polygon fill="black" stroke="black" points="337.98,-277.98 348.15,-275.02 338.35,-270.99 337.98,-277.98"/>
<text text-anchor="middle" x="288" y="-276.8" font-family="Times,serif" font-size="14.00">quest_giver</text>
</g>
<!-- NPC&#45;&gt;string -->
<g id="edge14" class="edge">
<title>NPC&#45;&gt;string</title>
<path fill="none" stroke="black" d="M212.71,-248.7C222.85,-237.67 236.76,-223.89 251,-214 282.26,-192.29 322.18,-174.67 350.39,-163.64"/>
<polygon fill="black" stroke="black" points="351.76,-166.87 359.84,-160.02 349.25,-160.33 351.76,-166.87"/>
<text text-anchor="middle" x="288" y="-217.8" font-family="Times,serif" font-size="14.00">greeting</text>
</g>
<!-- Physical -->
<g id="node7" class="node">
<title>Physical</title>
<polygon fill="#ffb347" stroke="black" points="590.5,-242 528.5,-242 528.5,-206 590.5,-206 590.5,-242"/>
<text text-anchor="middle" x="559.5" y="-220.3" font-family="Times,serif" font-size="14.00">Physical</text>
</g>
<!-- Renderable -->
<g id="node8" class="node">
<title>Renderable</title>
<polygon fill="#ffb347" stroke="black" points="598.5,-188 520.5,-188 520.5,-152 598.5,-152 598.5,-188"/>
<text text-anchor="middle" x="559.5" y="-166.3" font-family="Times,serif" font-size="14.00">Renderable</text>
</g>
<!-- WorldObject&#45;&gt;GameEntity -->
<g id="edge11" class="edge">
<title>WorldObject&#45;&gt;GameEntity</title>
<path fill="none" stroke="black" stroke-dasharray="5,2" d="M430.21,-238.49C453.88,-247.07 483.44,-257.78 508.22,-266.77"/>
<polygon fill="black" stroke="black" points="507.21,-270.13 517.81,-270.25 509.6,-263.55 507.21,-270.13"/>
<text text-anchor="middle" x="473.5" y="-266.8" font-family="Times,serif" font-size="14.00">(extends)</text>
</g>
<!-- WorldObject&#45;&gt;Physical -->
<g id="edge13" class="edge">
<title>WorldObject&#45;&gt;Physical</title>
<path fill="none" stroke="black" stroke-dasharray="5,2" d="M430.21,-223.25C457.19,-223.41 491.84,-223.61 518.33,-223.77"/>
<polygon fill="black" stroke="black" points="518.39,-227.27 528.41,-223.82 518.43,-220.27 518.39,-227.27"/>
<text text-anchor="middle" x="473.5" y="-226.8" font-family="Times,serif" font-size="14.00">(extends)</text>
</g>
<!-- WorldObject&#45;&gt;Renderable -->
<g id="edge12" class="edge">
<title>WorldObject&#45;&gt;Renderable</title>
<path fill="none" stroke="black" stroke-dasharray="5,2" d="M430.13,-209.58C436.13,-207.7 442.22,-205.8 448,-204 468.58,-197.6 491.33,-190.59 510.81,-184.61"/>
<polygon fill="black" stroke="black" points="511.85,-187.95 520.38,-181.67 509.8,-181.26 511.85,-187.95"/>
<text text-anchor="middle" x="473.5" y="-207.8" font-family="Times,serif" font-size="14.00">(extends)</text>
</g>
</g>
</svg>
