<?xml version="1.0" encoding="UTF-8" standalone="no"?>
<!DOCTYPE svg PUBLIC "-//W3C//DTD SVG 1.1//EN"
 "http://www.w3.org/Graphics/SVG/1.1/DTD/svg11.dtd">
<!-- Generated by graphviz version 2.43.0 (0)
 -->
<!-- Title: types Pages: 1 -->
<svg width="259pt" height="180pt"
 viewBox="0.00 0.00 259.00 180.00" xmlns="http://www.w3.org/2000/svg" xmlns:xlink="http://www.w3.org/1999/xlink">
<g id="graph0" class="graph" transform="scale(1 1) rotate(0) translate(4 176)">
<title>types</title>
<polygon fill="white" stroke="transparent" points="-4,4 -4,-176 255,-176 255,4 -4,4"/>
<text text-anchor="middle" x="125.5" y="-153.6" font-family="Times,serif" font-size="18.00">graph Boss structure depth 1</text>
<!-- Boss -->
<g id="node1" class="node">
<title>Boss</title>
<polygon fill="#add8e6" stroke="black" stroke-width="3" points="54,-90 0,-90 0,-54 54,-54 54,-90"/>
<text text-anchor="middle" x="27" y="-68.3" font-family="Times,serif" font-size="14.00">Boss</text>
</g>
<!-- Combatant -->
<g id="node2" class="node">
<title>Combatant</title>
<polygon fill="#ffb347" stroke="black" points="246,-144 169,-144 169,-108 246,-108 246,-144"/>
<text text-anchor="middle" x="207.5" y="-122.3" font-family="Times,serif" font-size="14.00">Combatant</text>
</g>
<!-- Boss&#45;&gt;Combatant -->
<g id="edge2" class="edge">
<title>Boss&#45;&gt;Combatant</title>
<path fill="none" stroke="black" stroke-dasharray="5,2" d="M54.27,-84.12C60.04,-86.57 66.18,-89 72,-91 100.4,-100.76 132.98,-109.31 158.96,-115.51"/>
<polygon fill="black" stroke="black" points="158.4,-118.97 168.94,-117.85 160,-112.16 158.4,-118.97"/>
<text text-anchor="middle" x="109" y="-114.8" font-family="Times,serif" font-size="14.00">(implements)</text>
</g>
<!-- NPC -->
<g id="node3" class="node">
<title>NPC</title>
<polygon fill="#add8e6" stroke="black" points="234.5,-90 180.5,-90 180.5,-54 234.5,-54 234.5,-90"/>
<text text-anchor="middle" x="207.5" y="-68.3" font-family="Times,serif" font-size="14.00">NPC</text>
</g>
<!-- Boss&#45;&gt;NPC -->
<g id="edge1" class="edge">
<title>Boss&#45;&gt;NPC</title>
<path fill="none" stroke="black" stroke-dasharray="5,2" d="M54.34,-72C85.01,-72 135.85,-72 170.24,-72"/>
<polygon fill="black" stroke="black" points="170.34,-75.5 180.34,-72 170.34,-68.5 170.34,-75.5"/>
<text text-anchor="middle" x="109" y="-75.8" font-family="Times,serif" font-size="14.00">(extends)</text>
</g>
<!-- WorldObject -->
<g id="node4" class="node">
<title>WorldObject</title>
<polygon fill="#ffb347" stroke="black" points="251,-36 164,-36 164,0 251,0 251,-36"/>
<text text-anchor="middle" x="207.5" y="-14.3" font-family="Times,serif" font-size="14.00">WorldObject</text>
</g>
<!-- Boss&#45;&gt;WorldObject -->
<g id="edge3" class="edge">
<title>Boss&#45;&gt;WorldObject</title>
<path fill="none" stroke="black" stroke-dasharray="5,2" d="M54.27,-59.88C60.04,-57.43 66.18,-55 72,-53 98.57,-43.87 128.8,-35.8 153.86,-29.72"/>
<polygon fill="black" stroke="black" points="154.99,-33.05 163.9,-27.32 153.36,-26.24 154.99,-33.05"/>
<text text-anchor="middle" x="109" y="-56.8" font-family="Times,serif" font-size="14.00">(implements)</text>
</g>
</g>
</svg>
