<?xml version="1.0" encoding="UTF-8" standalone="no"?>
<!DOCTYPE svg PUBLIC "-//W3C//DTD SVG 1.1//EN"
 "http://www.w3.org/Graphics/SVG/1.1/DTD/svg11.dtd">
<!-- Generated by graphviz version 2.43.0 (0)
 -->
<!-- Title: types Pages: 1 -->
<svg width="950pt" height="653pt"
 viewBox="0.00 0.00 949.99 653.00" xmlns="http://www.w3.org/2000/svg" xmlns:xlink="http://www.w3.org/1999/xlink">
<g id="graph0" class="graph" transform="scale(1 1) rotate(0) translate(4 649)">
<title>types</title>
<polygon fill="white" stroke="transparent" points="-4,4 -4,-649 945.99,-649 945.99,4 -4,4"/>
<text text-anchor="middle" x="470.99" y="-626.6" font-family="Times,serif" font-size="18.00">graph Boss depth 2</text>
<!-- Boss -->
<g id="node1" class="node">
<title>Boss</title>
<polygon fill="#add8e6" stroke="black" stroke-width="3" points="54,-231 0,-231 0,-195 54,-195 54,-231"/>
<text text-anchor="middle" x="27" y="-209.3" font-family="Times,serif" font-size="14.00">Boss</text>
</g>
<!-- Combatant -->
<g id="node2" class="node">
<title>Combatant</title>
<polygon fill="#ffb347" stroke="black" points="601.29,-541 524.29,-541 524.29,-505 601.29,-505 601.29,-541"/>
<text text-anchor="middle" x="562.79" y="-519.3" font-family="Times,serif" font-size="14.00">Combatant</text>
</g>
<!-- Boss&#45;&gt;Combatant -->
<g id="edge5" class="edge">
<title>Boss&#45;&gt;Combatant</title>
<path fill="none" stroke="black" stroke-dasharray="5,2" d="M32.42,-231.11C38.49,-253.19 51.1,-290.78 72,-317 161.95,-429.84 201.14,-453.82 335.29,-507 393.55,-530.09 466.8,-530.68 513.96,-527.8"/>
<polygon fill="black" stroke="black" points="514.45,-531.27 524.19,-527.1 513.97,-524.29 514.45,-531.27"/>
<text text-anchor="middle" x="280.29" y="-501.8" font-family="Times,serif" font-size="14.00">(implements)</text>
</g>
<!-- NPC -->
<g id="node8" class="node">
<title>NPC</title>
<polygon fill="#add8e6" stroke="black" points="219.15,-336 165.15,-336 165.15,-300 219.15,-300 219.15,-336"/>
<text text-anchor="middle" x="192.15" y="-314.3" font-family="Times,serif" font-size="14.00">NPC</text>
</g>
<!-- Boss&#45;&gt;NPC -->
<g id="edge4" class="edge">
<title>Boss&#45;&gt;NPC</title>
<path fill="none" stroke="black" stroke-dasharray="5,2" d="M42.14,-231.04C50.18,-240.49 60.85,-251.77 72,-260 97.82,-279.05 130.88,-294.56 155.62,-304.73"/>
<polygon fill="black" stroke="black" points="154.41,-308.02 164.99,-308.5 157.02,-301.52 154.41,-308.02"/>
<text text-anchor="middle" x="106.5" y="-301.8" font-family="Times,serif" font-size="14.00">(extends)</text>
</g>
<!-- WorldObject -->
<g id="node13" class="node">
<title>WorldObject</title>
<polygon fill="#ffb347" stroke="black" points="606.29,-340 519.29,-340 519.29,-304 606.29,-304 606.29,-340"/>
<text text-anchor="middle" x="562.79" y="-318.3" font-family="Times,serif" font-size="14.00">WorldObject</text>
</g>
<!-- Boss&#45;&gt;WorldObject -->
<g id="edge6" class="edge">
<title>Boss&#45;&gt;WorldObject</title>
<path fill="none" stroke="black" stroke-dasharray="5,2" d="M54.11,-218.33C137.23,-235.3 396.81,-288.31 509.13,-311.25"/>
<polygon fill="black" stroke="black" points="508.71,-314.73 519.21,-313.3 510.11,-307.87 508.71,-314.73"/>
<text text-anchor="middle" x="280.29" y="-274.8" font-family="Times,serif" font-size="14.00">(implements)</text>
</g>
<!-- string -->
<g id="node17" class="node">
<title>string</title>
<ellipse fill="#ffffe0" stroke="black" cx="903.64" cy="-104" rx="30.59" ry="18"/>
<text text-anchor="middle" x="903.64" y="-100.3" font-family="Times,serif" font-size="14.00">string</text>
</g>
<!-- Boss&#45;&gt;string -->
<g id="edge2" class="edge">
<title>Boss&#45;&gt;string</title>
<path fill="none" stroke="black" d="M36.99,-194.73C58.01,-154.94 114.43,-64 191.15,-64 191.15,-64 191.15,-64 736.79,-64 783.23,-64 834.99,-79 868.14,-90.63"/>
<polygon fill="black" stroke="black" points="867.21,-94.02 877.8,-94.11 869.58,-87.43 867.21,-94.02"/>
<text text-anchor="middle" x="464.29" y="-67.8" font-family="Times,serif" font-size="14.00">title</text>
</g>
<!-- uint32 -->
<g id="node19" class="node">
<title>uint32</title>
<ellipse fill="#ffffe0" stroke="black" cx="192.15" cy="-18" rx="33.29" ry="18"/>
<text text-anchor="middle" x="192.15" y="-14.3" font-family="Times,serif" font-size="14.00">uint32</text>
</g>
<!-- Boss&#45;&gt;uint32 -->
<g id="edge3" class="edge">
<title>Boss&#45;&gt;uint32</title>
<path fill="none" stroke="black" d="M29.93,-194.85C34.68,-153.95 48.27,-56.46 72,-35 92.71,-16.28 124.25,-12.47 149.68,-13.1"/>
<polygon fill="black" stroke="black" points="149.64,-16.61 159.8,-13.59 149.98,-9.61 149.64,-16.61"/>
<text text-anchor="middle" x="106.5" y="-38.8" font-family="Times,serif" font-size="14.00">reward_gold</text>
</g>
<!-- uint8 -->
<g id="node20" class="node">
<title>uint8</title>
<ellipse fill="#ffffe0" stroke="black" cx="903.64" cy="-200" rx="28.7" ry="18"/>
<text text-anchor="middle" x="903.64" y="-196.3" font-family="Times,serif" font-size="14.00">uint8</text>
</g>
<!-- Boss&#45;&gt;uint8 -->
<g id="edge1" class="edge">
<title>Boss&#45;&gt;uint8</title>
<path fill="none" stroke="black" d="M54.05,-196.92C85.38,-179.15 140.14,-153 191.15,-153 191.15,-153 191.15,-153 650.79,-153 729.48,-153 819.69,-175.45 867.92,-189.32"/>
<polygon fill="black" stroke="black" points="866.97,-192.69 877.55,-192.13 868.93,-185.97 866.97,-192.69"/>
<text text-anchor="middle" x="464.29" y="-156.8" font-family="Times,serif" font-size="14.00">phase</text>
</g>
<!-- Damageable -->
<g id="node4" class="node">
<title>Damageable</title>
<polygon fill="#ffb347" stroke="black" points="778.29,-617 693.29,-617 693.29,-581 778.29,-581 778.29,-617"/>
<text text-anchor="middle" x="735.79" y="-595.3" font-family="Times,serif" font-size="14.00">Damageable</text>
</g>
<!-- Combatant&#45;&gt;Damageable -->
<g id="edge10" class="edge">
<title>Combatant&#45;&gt;Damageable</title>
<path fill="none" stroke="black" stroke-dasharray="5,2" d="M589.55,-541.01C600.02,-547.84 612.43,-555.33 624.29,-561 643.07,-569.98 664.55,-577.87 683.55,-584.09"/>
<polygon fill="black" stroke="black" points="682.64,-587.48 693.23,-587.19 684.77,-580.81 682.64,-587.48"/>
<text text-anchor="middle" x="649.79" y="-584.8" font-family="Times,serif" font-size="14.00">(extends)</text>
</g>
<!-- GameEntity -->
<g id="node7" class="node">
<title>GameEntity</title>
<polygon fill="#ffb347" stroke="black" points="777.29,-503 694.29,-503 694.29,-467 777.29,-467 777.29,-503"/>
<text text-anchor="middle" x="735.79" y="-481.3" font-family="Times,serif" font-size="14.00">GameEntity</text>
</g>
<!-- Combatant&#45;&gt;GameEntity -->
<g id="edge9" class="edge">
<title>Combatant&#45;&gt;GameEntity</title>
<path fill="none" stroke="black" stroke-dasharray="5,2" d="M600.94,-504.99C608.52,-501.9 616.55,-499.03 624.29,-497 643.43,-491.97 664.96,-489.05 683.89,-487.35"/>
<polygon fill="black" stroke="black" points="684.43,-490.81 694.12,-486.52 683.87,-483.84 684.43,-490.81"/>
<text text-anchor="middle" x="649.79" y="-500.8" font-family="Times,serif" font-size="14.00">(extends)</text>
</g>
<!-- uint16 -->
<g id="node18" class="node">
<title>uint16</title>
<ellipse fill="#ffffe0" stroke="black" cx="735.79" cy="-542" rx="33.29" ry="18"/>
<text text-anchor="middle" x="735.79" y="-538.3" font-family="Times,serif" font-size="14.00">uint16</text>
</g>
<!-- Combatant&#45;&gt;uint16 -->
<g id="edge7" class="edge">
<title>Combatant&#45;&gt;uint16</title>
<path fill="none" stroke="black" d="M601.6,-534.43C609.06,-536.28 616.87,-537.93 624.29,-539 646.56,-542.2 671.6,-543.1 692.2,-543.13"/>
<polygon fill="black" stroke="black" points="692.25,-546.63 702.23,-543.08 692.21,-539.63 692.25,-546.63"/>
<text text-anchor="middle" x="649.79" y="-545.8" font-family="Times,serif" font-size="14.00">attack</text>
</g>
<!-- Combatant&#45;&gt;uint16 -->
<g id="edge8" class="edge">
<title>Combatant&#45;&gt;uint16</title>
<path fill="none" stroke="black" d="M601.5,-518.2C623.24,-516.38 650.99,-515.65 675.29,-520 683.62,-521.49 692.3,-524.06 700.38,-526.94"/>
<polygon fill="black" stroke="black" points="699.28,-530.27 709.87,-530.54 701.76,-523.72 699.28,-530.27"/>
<text text-anchor="middle" x="649.79" y="-523.8" font-family="Times,serif" font-size="14.00">defense</text>
</g>
<!-- Creature -->
<g id="node3" class="node">
<title>Creature</title>
<polygon fill="#add8e6" stroke="black" points="403.79,-415 340.79,-415 340.79,-379 403.79,-379 403.79,-415"/>
<text text-anchor="middle" x="372.29" y="-393.3" font-family="Times,serif" font-size="14.00">Creature</text>
</g>
<!-- Creature&#45;&gt;Combatant -->
<g id="edge30" class="edge">
<title>Creature&#45;&gt;Combatant</title>
<path fill="none" stroke="black" stroke-dasharray="5,2" d="M385.23,-415.18C395.03,-428.78 410.07,-446.87 427.29,-458 456.22,-476.69 470.34,-465.89 501.29,-481 511.5,-485.98 521.91,-492.56 531.14,-499.03"/>
<polygon fill="black" stroke="black" points="529.11,-501.88 539.26,-504.89 533.2,-496.2 529.11,-501.88"/>
<text text-anchor="middle" x="464.29" y="-484.8" font-family="Times,serif" font-size="14.00">(implements)</text>
</g>
<!-- Faction -->
<g id="node6" class="node">
<title>Faction</title>
<polygon fill="#90ee90" stroke="black" points="591.29,-473 534.29,-473 534.29,-437 591.29,-437 591.29,-473"/>
<text text-anchor="middle" x="562.79" y="-451.3" font-family="Times,serif" font-size="14.00">Faction</text>
</g>
<!-- Creature&#45;&gt;Faction -->
<g id="edge29" class="edge">
<title>Creature&#45;&gt;Faction</title>
<path fill="none" stroke="black" d="M403.83,-410.93C411.41,-414.14 419.58,-417.37 427.29,-420 459.49,-430.98 497.02,-440.48 524.24,-446.8"/>
<polygon fill="black" stroke="black" points="523.61,-450.25 534.14,-449.07 525.17,-443.42 523.61,-450.25"/>
<text text-anchor="middle" x="464.29" y="-443.8" font-family="Times,serif" font-size="14.00">faction</text>
</g>
<!-- Creature&#45;&gt;WorldObject -->
<g id="edge31" class="edge">
<title>Creature&#45;&gt;WorldObject</title>
<path fill="none" stroke="black" stroke-dasharray="5,2" d="M392.45,-378.87C402.22,-370.51 414.68,-361.11 427.29,-355 441.79,-347.98 477.96,-339.27 509.15,-332.56"/>
<polygon fill="black" stroke="black" points="510.01,-335.95 519.06,-330.46 508.55,-329.11 510.01,-335.95"/>
<text text-anchor="middle" x="464.29" y="-358.8" font-family="Times,serif" font-size="14.00">(implements)</text>
</g>
<!-- float32 -->
<g id="node15" class="node">
<title>float32</title>
<ellipse fill="#ffffe0" stroke="black" cx="903.64" cy="-417" rx="36" ry="18"/>
<text text-anchor="middle" x="903.64" y="-413.3" font-family="Times,serif" font-size="14.00">float32</text>
</g>
<!-- Creature&#45;&gt;float32 -->
<g id="edge27" class="edge">
<title>Creature&#45;&gt;float32</title>
<path fill="none" stroke="black" d="M403.85,-396.24C458.5,-395.26 576.53,-394.81 675.29,-406 729.77,-412.17 741.73,-424.64 796.29,-430 818.85,-432.22 824.78,-432.61 847.29,-430 852.13,-429.44 857.15,-428.61 862.11,-427.65"/>
<polygon fill="black" stroke="black" points="863.08,-431.02 872.12,-425.49 861.61,-424.17 863.08,-431.02"/>
<text text-anchor="middle" x="649.79" y="-409.8" font-family="Times,serif" font-size="14.00">speed</text>
</g>
<!-- Creature&#45;&gt;uint8 -->
<g id="edge28" class="edge">
<title>Creature&#45;&gt;uint8</title>
<path fill="none" stroke="black" d="M403.88,-394.12C459.7,-388.32 575.24,-373.65 606.29,-349 621.25,-337.13 610.42,-323.12 624.29,-310 642.92,-292.39 798.16,-236.59 868.38,-211.92"/>
<polygon fill="black" stroke="black" points="869.82,-215.13 878.1,-208.52 867.5,-208.52 869.82,-215.13"/>
<text text-anchor="middle" x="649.79" y="-313.8" font-family="Times,serif" font-size="14.00">level</text>
</g>
<!-- int16 -->
<g id="node16" class="node">
<title>int16</title>
<ellipse fill="#ffffe0" stroke="black" cx="903.64" cy="-594" rx="28.7" ry="18"/>
<text text-anchor="middle" x="903.64" y="-590.3" font-family="Times,serif" font-size="14.00">int16</text>
</g>
<!-- Damageable&#45;&gt;int16 -->
<g id="edge32" class="edge">
<title>Damageable&#45;&gt;int16</title>
<path fill="none" stroke="black" d="M778.54,-601.35C799.24,-602.11 824.6,-602.43 847.29,-601 853.24,-600.63 859.52,-600.03 865.64,-599.33"/>
<polygon fill="black" stroke="black" points="866.18,-602.79 875.68,-598.1 865.33,-595.85 866.18,-602.79"/>
<text text-anchor="middle" x="821.79" y="-604.8" font-family="Times,serif" font-size="14.00">hp</text>
</g>
<!-- Damageable&#45;&gt;int16 -->
<g id="edge33" class="edge">
<title>Damageable&#45;&gt;int16</title>
<path fill="none" stroke="black" d="M778.41,-585.53C784.36,-584.07 790.44,-582.82 796.29,-582 818.74,-578.86 824.76,-579.58 847.29,-582 853.71,-582.69 860.47,-583.81 866.98,-585.1"/>
<polygon fill="black" stroke="black" points="866.41,-588.56 876.92,-587.23 867.88,-581.71 866.41,-588.56"/>
<text text-anchor="middle" x="821.79" y="-585.8" font-family="Times,serif" font-size="14.00">max_hp</text>
</g>
<!-- Entity -->
<g id="node5" class="node">
<title>Entity</title>
<polygon fill="#ffb347" stroke="black" points="930.64,-555 876.64,-555 876.64,-519 930.64,-519 930.64,-555"/>
<text text-anchor="middle" x="903.64" y="-533.3" font-family="Times,serif" font-size="14.00">Entity</text>
</g>
<!-- GameEntity&#45;&gt;Entity -->
<g id="edge19" class="edge">
<title>GameEntity&#45;&gt;Entity</title>
<path fill="none" stroke="black" stroke-dasharray="5,2" d="M777.36,-497.72C804.75,-506.31 840.55,-517.53 866.86,-525.78"/>
<polygon fill="black" stroke="black" points="865.86,-529.13 876.45,-528.79 867.95,-522.46 865.86,-529.13"/>
<text text-anchor="middle" x="821.79" y="-521.8" font-family="Times,serif" font-size="14.00">(extends)</text>
</g>
<!-- Trackable -->
<g id="node12" class="node">
<title>Trackable</title>
<polygon fill="#ffb347" stroke="black" points="939.14,-501 868.14,-501 868.14,-465 939.14,-465 939.14,-501"/>
<text text-anchor="middle" x="903.64" y="-479.3" font-family="Times,serif" font-size="14.00">Trackable</text>
</g>
<!-- GameEntity&#45;&gt;Trackable -->
<g id="edge20" class="edge">
<title>GameEntity&#45;&gt;Trackable</title>
<path fill="none" stroke="black" stroke-dasharray="5,2" d="M777.36,-484.51C801.81,-484.22 832.96,-483.84 858.08,-483.54"/>
<polygon fill="black" stroke="black" points="858.14,-487.04 868.09,-483.42 858.05,-480.04 858.14,-487.04"/>
<text text-anchor="middle" x="821.79" y="-487.8" font-family="Times,serif" font-size="14.00">(extends)</text>
</g>
<!-- NPC&#45;&gt;Combatant -->
<g id="edge17" class="edge">
<title>NPC&#45;&gt;Combatant</title>
<path fill="none" stroke="black" stroke-dasharray="5,2" d="M202.81,-336.24C211.75,-351.9 226.24,-374.34 243.29,-390 312.83,-453.81 338.98,-462.72 427.29,-496 455.13,-506.49 487.83,-513.17 514.01,-517.26"/>
<polygon fill="black" stroke="black" points="513.66,-520.75 524.07,-518.76 514.69,-513.83 513.66,-520.75"/>
<text text-anchor="middle" x="372.29" y="-491.8" font-family="Times,serif" font-size="14.00">(implements)</text>
</g>
<!-- NPC&#45;&gt;Creature -->
<g id="edge16" class="edge">
<title>NPC&#45;&gt;Creature</title>
<path fill="none" stroke="black" stroke-dasharray="5,2" d="M219.43,-329.66C248.98,-342.76 297.29,-364.18 331.47,-379.34"/>
<polygon fill="black" stroke="black" points="330.15,-382.58 340.71,-383.44 332.99,-376.19 330.15,-382.58"/>
<text text-anchor="middle" x="280.29" y="-374.8" font-family="Times,serif" font-size="14.00">(extends)</text>
</g>
<!-- NPC&#45;&gt;WorldObject -->
<g id="edge18" class="edge">
<title>NPC&#45;&gt;WorldObject</title>
<path fill="none" stroke="black" stroke-dasharray="5,2" d="M219.36,-318.28C279.58,-318.94 428.73,-320.56 508.87,-321.43"/>
<polygon fill="black" stroke="black" points="509.19,-324.93 519.23,-321.54 509.27,-317.93 509.19,-324.93"/>
<text text-anchor="middle" x="372.29" y="-323.8" font-family="Times,serif" font-size="14.00">(implements)</text>
</g>
<!-- boolean -->
<g id="node14" class="node">
<title>boolean</title>
<ellipse fill="#ffffe0" stroke="black" cx="903.64" cy="-274" rx="38.19" ry="18"/>
<text text-anchor="middle" x="903.64" y="-270.3" font-family="Times,serif" font-size="14.00">boolean</text>
</g>
<!-- NPC&#45;&gt;boolean -->
<g id="edge15" class="edge">
<title>NPC&#45;&gt;boolean</title>
<path fill="none" stroke="black" d="M219.28,-314.05C274.51,-305.91 407.24,-287.39 519.29,-280 640.05,-272.04 782.63,-272.36 855.14,-273.21"/>
<polygon fill="black" stroke="black" points="855.27,-276.72 865.31,-273.34 855.36,-269.72 855.27,-276.72"/>
<text text-anchor="middle" x="562.79" y="-283.8" font-family="Times,serif" font-size="14.00">quest_giver</text>
</g>
<!-- NPC&#45;&gt;string -->
<g id="edge14" class="edge">
<title>NPC&#45;&gt;string</title>
<path fill="none" stroke="black" d="M204.72,-299.88C214.09,-286.06 228.17,-267.08 243.29,-253 315.12,-186.15 334.19,-161.97 427.29,-131 582.05,-79.52 780.63,-91.36 863.55,-99.49"/>
<polygon fill="black" stroke="black" points="863.24,-102.98 873.54,-100.51 863.95,-96.01 863.24,-102.98"/>
<text text-anchor="middle" x="562.79" y="-110.8" font-family="Times,serif" font-size="14.00">greeting</text>
</g>
<!-- Physical -->
<g id="node9" class="node">
<title>Physical</title>
<polygon fill="#ffb347" stroke="black" points="766.79,-359 704.79,-359 704.79,-323 766.79,-323 766.79,-359"/>
<text text-anchor="middle" x="735.79" y="-337.3" font-family="Times,serif" font-size="14.00">Physical</text>
</g>
<!-- Positioned -->
<g id="node10" class="node">
<title>Positioned</title>
<polygon fill="#ffb347" stroke="black" points="940.64,-359 866.64,-359 866.64,-323 940.64,-323 940.64,-359"/>
<text text-anchor="middle" x="903.64" y="-337.3" font-family="Times,serif" font-size="14.00">Positioned</text>
</g>
<!-- Physical&#45;&gt;Positioned -->
<g id="edge26" class="edge">
<title>Physical&#45;&gt;Positioned</title>
<path fill="none" stroke="black" stroke-dasharray="5,2" d="M766.83,-341C791.77,-341 827.66,-341 856.29,-341"/>
<polygon fill="black" stroke="black" points="856.47,-344.5 866.47,-341 856.47,-337.5 856.47,-344.5"/>
<text text-anchor="middle" x="821.79" y="-344.8" font-family="Times,serif" font-size="14.00">(extends)</text>
</g>
<!-- Physical&#45;&gt;boolean -->
<g id="edge25" class="edge">
<title>Physical&#45;&gt;boolean</title>
<path fill="none" stroke="black" d="M766.83,-328.87C794.17,-317.82 834.67,-301.46 864.33,-289.48"/>
<polygon fill="black" stroke="black" points="865.98,-292.59 873.94,-285.59 863.36,-286.1 865.98,-292.59"/>
<text text-anchor="middle" x="821.79" y="-318.8" font-family="Times,serif" font-size="14.00">solid</text>
</g>
<!-- Physical&#45;&gt;float32 -->
<g id="edge23" class="edge">
<title>Physical&#45;&gt;float32</title>
<path fill="none" stroke="black" d="M751.89,-359.02C762.95,-371.05 779.01,-386.21 796.29,-395 815.33,-404.68 838.33,-410.1 858.07,-413.14"/>
<polygon fill="black" stroke="black" points="857.68,-416.61 868.06,-414.52 858.63,-409.68 857.68,-416.61"/>
<text text-anchor="middle" x="821.79" y="-414.8" font-family="Times,serif" font-size="14.00">width</text>
</g>
<!-- Physical&#45;&gt;float32 -->
<g id="edge24" class="edge">
<title>Physical&#45;&gt;float32</title>
<path fill="none" stroke="black" d="M767.01,-349.36C794.61,-357.21 833.18,-368.79 847.29,-376 857.46,-381.19 867.75,-388.22 876.64,-394.98"/>
<polygon fill="black" stroke="black" points="874.68,-397.89 884.7,-401.32 879.01,-392.39 874.68,-397.89"/>
<text text-anchor="middle" x="821.79" y="-379.8" font-family="Times,serif" font-size="14.00">height</text>
</g>
<!-- Renderable -->
<g id="node11" class="node">
<title>Renderable</title>
<polygon fill="#ffb347" stroke="black" points="774.79,-217 696.79,-217 696.79,-181 774.79,-181 774.79,-217"/>
<text text-anchor="middle" x="735.79" y="-195.3" font-family="Times,serif" font-size="14.00">Renderable</text>
</g>
<!-- Renderable&#45;&gt;string -->
<g id="edge21" class="edge">
<title>Renderable&#45;&gt;string</title>
<path fill="none" stroke="black" d="M768.38,-180.91C798.23,-163.81 842.71,-138.33 872.19,-121.44"/>
<polygon fill="black" stroke="black" points="874.26,-124.29 881.19,-116.29 870.78,-118.22 874.26,-124.29"/>
<text text-anchor="middle" x="821.79" y="-165.8" font-family="Times,serif" font-size="14.00">sprite</text>
</g>
<!-- Renderable&#45;&gt;uint8 -->
<g id="edge22" class="edge">
<title>Renderable&#45;&gt;uint8</title>
<path fill="none" stroke="black" d="M774.84,-199.23C801.77,-199.39 837.74,-199.61 864.66,-199.77"/>
<polygon fill="black" stroke="black" points="864.84,-203.27 874.86,-199.83 864.88,-196.27 864.84,-203.27"/>
<text text-anchor="middle" x="821.79" y="-202.8" font-family="Times,serif" font-size="14.00">layer</text>
</g>
<!-- WorldObject&#45;&gt;GameEntity -->
<g id="edge11" class="edge">
<title>WorldObject&#45;&gt;GameEntity</title>
<path fill="none" stroke="black" stroke-dasharray="5,2" d="M570.94,-340.37C580.37,-362.67 598.8,-400.35 624.29,-425 641.58,-441.71 664.44,-455.15 684.89,-465.04"/>
<polygon fill="black" stroke="black" points="683.54,-468.27 694.08,-469.33 686.5,-461.93 683.54,-468.27"/>
<text text-anchor="middle" x="649.79" y="-462.8" font-family="Times,serif" font-size="14.00">(extends)</text>
</g>
<!-- WorldObject&#45;&gt;Physical -->
<g id="edge13" class="edge">
<title>WorldObject&#45;&gt;Physical</title>
<path fill="none" stroke="black" stroke-dasharray="5,2" d="M606.5,-326.75C633.49,-329.74 668.14,-333.59 694.62,-336.54"/>
<polygon fill="black" stroke="black" points="694.37,-340.03 704.7,-337.66 695.15,-333.07 694.37,-340.03"/>
<text text-anchor="middle" x="649.79" y="-337.8" font-family="Times,serif" font-size="14.00">(extends)</text>
</g>
<!-- WorldObject&#45;&gt;Renderable -->
<g id="edge12" class="edge">
<title>WorldObject&#45;&gt;Renderable</title>
<path fill="none" stroke="black" stroke-dasharray="5,2" d="M578.99,-303.76C590.55,-290.6 607.31,-272.94 624.29,-260 643.79,-245.14 667.35,-231.62 687.7,-221.11"/>
<polygon fill="black" stroke="black" points="689.46,-224.14 696.79,-216.49 686.29,-217.9 689.46,-224.14"/>
<text text-anchor="middle" x="649.79" y="-263.8" font-family="Times,serif" font-size="14.00">(extends)</text>
</g>
</g>
</svg>
