<?xml version="1.0" encoding="UTF-8" standalone="no"?>
<!DOCTYPE svg PUBLIC "-//W3C//DTD SVG 1.1//EN"
 "http://www.w3.org/Graphics/SVG/1.1/DTD/svg11.dtd">
<!-- Generated by graphviz version 2.43.0 (0)
 -->
<!-- Title: types Pages: 1 -->
<svg width="410pt" height="305pt"
 viewBox="0.00 0.00 409.99 305.00" xmlns="http://www.w3.org/2000/svg" xmlns:xlink="http://www.w3.org/1999/xlink">
<g id="graph0" class="graph" transform="scale(1 1) rotate(0) translate(4 301)">
<title>types</title>
<polygon fill="white" stroke="transparent" points="-4,4 -4,-301 405.99,-301 405.99,4 -4,4"/>
<text text-anchor="middle" x="200.99" y="-278.6" font-family="Times,serif" font-size="18.00">graph Boss depth 1</text>
<!-- Boss -->
<g id="node1" class="node">
<title>Boss</title>
<polygon fill="#add8e6" stroke="black" stroke-width="3" points="54,-117 0,-117 0,-81 54,-81 54,-117"/>
<text text-anchor="middle" x="27" y="-95.3" font-family="Times,serif" font-size="14.00">Boss</text>
</g>
<!-- NPC -->
<g id="node3" class="node">
<title>NPC</title>
<polygon fill="#add8e6" stroke="black" points="219.15,-206 165.15,-206 165.15,-170 219.15,-170 219.15,-206"/>
<text text-anchor="middle" x="192.15" y="-184.3" font-family="Times,serif" font-size="14.00">NPC</text>
</g>
<!-- Boss&#45;&gt;NPC -->
<g id="edge4" class="edge">
<title>Boss&#45;&gt;NPC</title>
<path fill="none" stroke="black" stroke-dasharray="5,2" d="M44.74,-117.37C52.48,-125.09 62.13,-133.72 72,-140 97.96,-156.52 130.56,-169.17 155.09,-177.33"/>
<polygon fill="black" stroke="black" points="154.14,-180.7 164.73,-180.45 156.29,-174.04 154.14,-180.7"/>
<text text-anchor="middle" x="106.5" y="-175.8" font-family="Times,serif" font-size="14.00">(extends)</text>
</g>
<!-- string -->
<g id="node5" class="node">
<title>string</title>
<ellipse fill="#ffffe0" stroke="black" cx="363.64" cy="-135" rx="30.59" ry="18"/>
<text text-anchor="middle" x="363.64" y="-131.3" font-family="Times,serif" font-size="14.00">string</text>
</g>
<!-- Boss&#45;&gt;string -->
<g id="edge2" class="edge">
<title>Boss&#45;&gt;string</title>
<path fill="none" stroke="black" d="M54.38,-106.32C60.15,-107.72 66.25,-109.04 72,-110 160.7,-124.8 266.17,-131.1 322.48,-133.57"/>
<polygon fill="black" stroke="black" points="322.6,-137.07 332.74,-134 322.89,-130.08 322.6,-137.07"/>
<text text-anchor="middle" x="192.15" y="-130.8" font-family="Times,serif" font-size="14.00">title</text>
</g>
<!-- uint32 -->
<g id="node6" class="node">
<title>uint32</title>
<ellipse fill="#ffffe0" stroke="black" cx="192.15" cy="-72" rx="33.29" ry="18"/>
<text text-anchor="middle" x="192.15" y="-68.3" font-family="Times,serif" font-size="14.00">uint32</text>
</g>
<!-- Boss&#45;&gt;uint32 -->
<g id="edge3" class="edge">
<title>Boss&#45;&gt;uint32</title>
<path fill="none" stroke="black" d="M54.21,-94.66C80.08,-90.38 120,-83.77 150.08,-78.8"/>
<polygon fill="black" stroke="black" points="150.97,-82.2 160.27,-77.11 149.83,-75.29 150.97,-82.2"/>
<text text-anchor="middle" x="106.5" y="-94.8" font-family="Times,serif" font-size="14.00">reward_gold</text>
</g>
<!-- uint8 -->
<g id="node7" class="node">
<title>uint8</title>
<ellipse fill="#ffffe0" stroke="black" cx="192.15" cy="-18" rx="28.7" ry="18"/>
<text text-anchor="middle" x="192.15" y="-14.3" font-family="Times,serif" font-size="14.00">uint8</text>
</g>
<!-- Boss&#45;&gt;uint8 -->
<g id="edge1" class="edge">
<title>Boss&#45;&gt;uint8</title>
<path fill="none" stroke="black" d="M46.1,-80.71C53.63,-73.85 62.77,-66.4 72,-61 98.24,-45.65 130.89,-34.34 155.37,-27.18"/>
<polygon fill="black" stroke="black" points="156.65,-30.45 165.32,-24.37 154.74,-23.72 156.65,-30.45"/>
<text text-anchor="middle" x="106.5" y="-64.8" font-family="Times,serif" font-size="14.00">phase</text>
</g>
<!-- Creature -->
<g id="node2" class="node">
<title>Creature</title>
<polygon fill="#add8e6" stroke="black" points="395.14,-269 332.14,-269 332.14,-233 395.14,-233 395.14,-269"/>
<text text-anchor="middle" x="363.64" y="-247.3" font-family="Times,serif" font-size="14.00">Creature</text>
</g>
<!-- NPC&#45;&gt;Creature -->
<g id="edge7" class="edge">
<title>NPC&#45;&gt;Creature</title>
<path fill="none" stroke="black" stroke-dasharray="5,2" d="M219.4,-201.36C227.02,-205.02 235.41,-208.84 243.29,-212 269.14,-222.36 298.91,-232.09 322.26,-239.24"/>
<polygon fill="black" stroke="black" points="321.25,-242.59 331.83,-242.14 323.28,-235.89 321.25,-242.59"/>
<text text-anchor="middle" x="275.29" y="-236.8" font-family="Times,serif" font-size="14.00">(extends)</text>
</g>
<!-- boolean -->
<g id="node4" class="node">
<title>boolean</title>
<ellipse fill="#ffffe0" stroke="black" cx="363.64" cy="-197" rx="38.19" ry="18"/>
<text text-anchor="middle" x="363.64" y="-193.3" font-family="Times,serif" font-size="14.00">boolean</text>
</g>
<!-- NPC&#45;&gt;boolean -->
<g id="edge6" class="edge">
<title>NPC&#45;&gt;boolean</title>
<path fill="none" stroke="black" d="M219.26,-189.39C244.79,-190.74 284.24,-192.84 315.3,-194.49"/>
<polygon fill="black" stroke="black" points="315.31,-197.99 325.49,-195.03 315.69,-191 315.31,-197.99"/>
<text text-anchor="middle" x="275.29" y="-196.8" font-family="Times,serif" font-size="14.00">quest_giver</text>
</g>
<!-- NPC&#45;&gt;string -->
<g id="edge5" class="edge">
<title>NPC&#45;&gt;string</title>
<path fill="none" stroke="black" d="M219.38,-178.92C227.07,-176.31 235.5,-173.5 243.29,-171 271.07,-162.11 302.67,-152.6 326.37,-145.59"/>
<polygon fill="black" stroke="black" points="327.41,-148.93 336.02,-142.75 325.43,-142.22 327.41,-148.93"/>
<text text-anchor="middle" x="275.29" y="-174.8" font-family="Times,serif" font-size="14.00">greeting</text>
</g>
</g>
</svg>
