<?xml version="1.0" encoding="UTF-8" standalone="no"?>
<!DOCTYPE svg PUBLIC "-//W3C//DTD SVG 1.1//EN"
 "http://www.w3.org/Graphics/SVG/1.1/DTD/svg11.dtd">
<!-- Generated by graphviz version 2.43.0 (0)
 -->
<!-- Title: types Pages: 1 -->
<svg width="259pt" height="342pt"
 viewBox="0.00 0.00 259.00 342.00" xmlns="http://www.w3.org/2000/svg" xmlns:xlink="http://www.w3.org/1999/xlink">
<g id="graph0" class="graph" transform="scale(1 1) rotate(0) translate(4 338)">
<title>types</title>
<polygon fill="white" stroke="transparent" points="-4,4 -4,-338 255,-338 255,4 -4,4"/>
<text text-anchor="middle" x="125.5" y="-315.6" font-family="Times,serif" font-size="18.00">graph Boss depth 0</text>
<!-- Boss -->
<g id="node1" class="node">
<title>Boss</title>
<polygon fill="#add8e6" stroke="black" stroke-width="3" points="54,-171 0,-171 0,-135 54,-135 54,-171"/>
<text text-anchor="middle" x="27" y="-149.3" font-family="Times,serif" font-size="14.00">Boss</text>
</g>
<!-- Combatant -->
<g id="node2" class="node">
<title>Combatant</title>
<polygon fill="#ffb347" stroke="black" points="246,-306 169,-306 169,-270 246,-270 246,-306"/>
<text text-anchor="middle" x="207.5" y="-284.3" font-family="Times,serif" font-size="14.00">Combatant</text>
</g>
<!-- Boss&#45;&gt;Combatant -->
<g id="edge5" class="edge">
<title>Boss&#45;&gt;Combatant</title>
<path fill="none" stroke="black" stroke-dasharray="5,2" d="M33.45,-171.26C39.87,-189.88 52.24,-218.46 72,-236 96.43,-257.69 130.89,-270.78 158.82,-278.4"/>
<polygon fill="black" stroke="black" points="158.22,-281.86 168.78,-280.96 159.97,-275.08 158.22,-281.86"/>
<text text-anchor="middle" x="109" y="-276.8" font-family="Times,serif" font-size="14.00">(implements)</text>
</g>
<!-- NPC -->
<g id="node3" class="node">
<title>NPC</title>
<polygon fill="#add8e6" stroke="black" points="234.5,-252 180.5,-252 180.5,-216 234.5,-216 234.5,-252"/>
<text text-anchor="middle" x="207.5" y="-230.3" font-family="Times,serif" font-size="14.00">NPC</text>
</g>
<!-- Boss&#45;&gt;NPC -->
<g id="edge4" class="edge">
<title>Boss&#45;&gt;NPC</title>
<path fill="none" stroke="black" stroke-dasharray="5,2" d="M47.04,-171.13C54.41,-177.43 63.19,-184.14 72,-189 103.39,-206.32 142.59,-218.5 170.56,-225.78"/>
<polygon fill="black" stroke="black" points="169.76,-229.19 180.32,-228.24 171.47,-222.4 169.76,-229.19"/>
<text text-anchor="middle" x="109" y="-220.8" font-family="Times,serif" font-size="14.00">(extends)</text>
</g>
<!-- WorldObject -->
<g id="node4" class="node">
<title>WorldObject</title>
<polygon fill="#ffb347" stroke="black" points="251,-198 164,-198 164,-162 251,-162 251,-198"/>
<text text-anchor="middle" x="207.5" y="-176.3" font-family="Times,serif" font-size="14.00">WorldObject</text>
</g>
<!-- Boss&#45;&gt;WorldObject -->
<g id="edge6" class="edge">
<title>Boss&#45;&gt;WorldObject</title>
<path fill="none" stroke="black" stroke-dasharray="5,2" d="M54.34,-156.98C80.33,-160.92 120.8,-167.04 153.47,-171.98"/>
<polygon fill="black" stroke="black" points="153.37,-175.5 163.78,-173.54 154.41,-168.58 153.37,-175.5"/>
<text text-anchor="middle" x="109" y="-173.8" font-family="Times,serif" font-size="14.00">(implements)</text>
</g>
<!-- string -->
<g id="node5" class="node">
<title>string</title>
<ellipse fill="#ffffe0" stroke="black" cx="207.5" cy="-126" rx="30.59" ry="18"/>
<text text-anchor="middle" x="207.5" y="-122.3" font-family="Times,serif" font-size="14.00">string</text>
</g>
<!-- Boss&#45;&gt;string -->
<g id="edge2" class="edge">
<title>Boss&#45;&gt;string</title>
<path fill="none" stroke="black" d="M54.44,-146.55C60.21,-145.27 66.29,-144.01 72,-143 103.82,-137.39 140.19,-132.91 167.08,-129.96"/>
<polygon fill="black" stroke="black" points="167.68,-133.41 177.25,-128.86 166.94,-126.45 167.68,-133.41"/>
<text text-anchor="middle" x="109" y="-146.8" font-family="Times,serif" font-size="14.00">title</text>
</g>
<!-- uint32 -->
<g id="node6" class="node">
<title>uint32</title>
<ellipse fill="#ffffe0" stroke="black" cx="207.5" cy="-72" rx="33.29" ry="18"/>
<text text-anchor="middle" x="207.5" y="-68.3" font-family="Times,serif" font-size="14.00">uint32</text>
</g>
<!-- Boss&#45;&gt;uint32 -->
<g id="edge3" class="edge">
<title>Boss&#45;&gt;uint32</title>
<path fill="none" stroke="black" d="M44.56,-134.69C52.27,-127.08 61.95,-118.71 72,-113 101.17,-96.42 137.79,-85.83 165.45,-79.57"/>
<polygon fill="black" stroke="black" points="166.54,-82.91 175.57,-77.38 165.06,-76.07 166.54,-82.91"/>
<text text-anchor="middle" x="109" y="-116.8" font-family="Times,serif" font-size="14.00">reward_gold</text>
</g>
<!-- uint8 -->
<g id="node7" class="node">
<title>uint8</title>
<ellipse fill="#ffffe0" stroke="black" cx="207.5" cy="-18" rx="28.7" ry="18"/>
<text text-anchor="middle" x="207.5" y="-14.3" font-family="Times,serif" font-size="14.00">uint8</text>
</g>
<!-- Boss&#45;&gt;uint8 -->
<g id="edge1" class="edge">
<title>Boss&#45;&gt;uint8</title>
<path fill="none" stroke="black" d="M32.79,-134.84C38.83,-115.27 51.05,-84.47 72,-66 99.45,-41.8 139.95,-29.55 169.34,-23.51"/>
<polygon fill="black" stroke="black" points="170.06,-26.94 179.23,-21.63 168.75,-20.06 170.06,-26.94"/>
<text text-anchor="middle" x="109" y="-69.8" font-family="Times,serif" font-size="14.00">phase</text>
</g>
</g>
</svg>
