<?xml version="1.0" encoding="UTF-8" standalone="no"?>
<!DOCTYPE svg PUBLIC "-//W3C//DTD SVG 1.1//EN"
 "http://www.w3.org/Graphics/SVG/1.1/DTD/svg11.dtd">
<!-- Generated by graphviz version 2.43.0 (0)
 -->
<!-- Title: types Pages: 1 -->
<svg width="353pt" height="72pt"
 viewBox="0.00 0.00 353.00 72.00" xmlns="http://www.w3.org/2000/svg" xmlns:xlink="http://www.w3.org/1999/xlink">
<g id="graph0" class="graph" transform="scale(1 1) rotate(0) translate(4 68)">
<title>types</title>
<polygon fill="white" stroke="transparent" points="-4,4 -4,-68 349,-68 349,4 -4,4"/>
<text text-anchor="middle" x="172.5" y="-45.6" font-family="Times,serif" font-size="18.00">graph Boss structure depth 2</text>
<!-- Boss -->
<g id="node1" class="node">
<title>Boss</title>
<polygon fill="#add8e6" stroke="black" stroke-width="3" points="54,-36 0,-36 0,0 54,0 54,-36"/>
<text text-anchor="middle" x="27" y="-14.3" font-family="Times,serif" font-size="14.00">Boss</text>
</g>
<!-- NPC -->
<g id="node3" class="node">
<title>NPC</title>
<polygon fill="#add8e6" stroke="black" points="195,-36 141,-36 141,0 195,0 195,-36"/>
<text text-anchor="middle" x="168" y="-14.3" font-family="Times,serif" font-size="14.00">NPC</text>
</g>
<!-- Boss&#45;&gt;NPC -->
<g id="edge1" class="edge">
<title>Boss&#45;&gt;NPC</title>
<path fill="none" stroke="black" stroke-dasharray="5,2" d="M54.14,-18C75.79,-18 106.78,-18 130.81,-18"/>
<polygon fill="black" stroke="black" points="130.97,-21.5 140.97,-18 130.97,-14.5 130.97,-21.5"/>
<text text-anchor="middle" x="97.5" y="-21.8" font-family="Times,serif" font-size="14.00">(extends)</text>
</g>
<!-- Creature -->
<g id="node2" class="node">
<title>Creature</title>
<polygon fill="#add8e6" stroke="black" points="345,-36 282,-36 282,0 345,0 345,-36"/>
<text text-anchor="middle" x="313.5" y="-14.3" font-family="Times,serif" font-size="14.00">Creature</text>
</g>
<!-- NPC&#45;&gt;Creature -->
<g id="edge2" class="edge">
<title>NPC&#45;&gt;Creature</title>
<path fill="none" stroke="black" stroke-dasharray="5,2" d="M195.32,-18C216.7,-18 247.23,-18 271.76,-18"/>
<polygon fill="black" stroke="black" points="271.86,-21.5 281.86,-18 271.86,-14.5 271.86,-21.5"/>
<text text-anchor="middle" x="238.5" y="-21.8" font-family="Times,serif" font-size="14.00">(extends)</text>
</g>
</g>
</svg>
