<?xml version="1.0" encoding="UTF-8" standalone="no"?>
<!DOCTYPE svg PUBLIC "-//W3C//DTD SVG 1.1//EN"
 "http://www.w3.org/Graphics/SVG/1.1/DTD/svg11.dtd">
<!-- Generated by graphviz version 2.43.0 (0)
 -->
<!-- Title: types Pages: 1 -->
<svg width="233pt" height="234pt"
 viewBox="0.00 0.00 233.29 234.00" xmlns="http://www.w3.org/2000/svg" xmlns:xlink="http://www.w3.org/1999/xlink">
<g id="graph0" class="graph" transform="scale(1 1) rotate(0) translate(4 230)">
<title>types</title>
<polygon fill="white" stroke="transparent" points="-4,4 -4,-230 229.29,-230 229.29,4 -4,4"/>
<text text-anchor="middle" x="112.65" y="-207.6" font-family="Times,serif" font-size="18.00">graph Boss depth 0</text>
<!-- Boss -->
<g id="node1" class="node">
<title>Boss</title>
<polygon fill="#add8e6" stroke="black" stroke-width="3" points="54,-117 0,-117 0,-81 54,-81 54,-117"/>
<text text-anchor="middle" x="27" y="-95.3" font-family="Times,serif" font-size="14.00">Boss</text>
</g>
<!-- NPC -->
<g id="node2" class="node">
<title>NPC</title>
<polygon fill="#add8e6" stroke="black" points="219.15,-198 165.15,-198 165.15,-162 219.15,-162 219.15,-198"/>
<text text-anchor="middle" x="192.15" y="-176.3" font-family="Times,serif" font-size="14.00">NPC</text>
</g>
<!-- Boss&#45;&gt;NPC -->
<g id="edge4" class="edge">
<title>Boss&#45;&gt;NPC</title>
<path fill="none" stroke="black" stroke-dasharray="5,2" d="M46.62,-117.13C54.08,-123.7 63.03,-130.78 72,-136 98.31,-151.29 130.87,-162.88 155.3,-170.32"/>
<polygon fill="black" stroke="black" points="154.32,-173.68 164.9,-173.15 156.3,-166.96 154.32,-173.68"/>
<text text-anchor="middle" x="106.5" y="-167.8" font-family="Times,serif" font-size="14.00">(extends)</text>
</g>
<!-- string -->
<g id="node3" class="node">
<title>string</title>
<ellipse fill="#ffffe0" stroke="black" cx="192.15" cy="-126" rx="30.59" ry="18"/>
<text text-anchor="middle" x="192.15" y="-122.3" font-family="Times,serif" font-size="14.00">string</text>
</g>
<!-- Boss&#45;&gt;string -->
<g id="edge2" class="edge">
<title>Boss&#45;&gt;string</title>
<path fill="none" stroke="black" d="M54.21,-103.34C80.72,-107.73 122,-114.56 152.31,-119.57"/>
<polygon fill="black" stroke="black" points="152.09,-123.08 162.53,-121.26 153.23,-116.18 152.09,-123.08"/>
<text text-anchor="middle" x="106.5" y="-120.8" font-family="Times,serif" font-size="14.00">title</text>
</g>
<!-- uint32 -->
<g id="node4" class="node">
<title>uint32</title>
<ellipse fill="#ffffe0" stroke="black" cx="192.15" cy="-72" rx="33.29" ry="18"/>
<text text-anchor="middle" x="192.15" y="-68.3" font-family="Times,serif" font-size="14.00">uint32</text>
</g>
<!-- Boss&#45;&gt;uint32 -->
<g id="edge3" class="edge">
<title>Boss&#45;&gt;uint32</title>
<path fill="none" stroke="black" d="M54.38,-91.16C60.15,-89.62 66.25,-88.14 72,-87 97.45,-81.95 126.31,-78.27 149.25,-75.81"/>
<polygon fill="black" stroke="black" points="149.76,-79.28 159.34,-74.77 149.04,-72.32 149.76,-79.28"/>
<text text-anchor="middle" x="106.5" y="-90.8" font-family="Times,serif" font-size="14.00">reward_gold</text>
</g>
<!-- uint8 -->
<g id="node5" class="node">
<title>uint8</title>
<ellipse fill="#ffffe0" stroke="black" cx="192.15" cy="-18" rx="28.7" ry="18"/>
<text text-anchor="middle" x="192.15" y="-14.3" font-family="Times,serif" font-size="14.00">uint8</text>
</g>
<!-- Boss&#45;&gt;uint8 -->
<g id="edge1" class="edge">
<title>Boss&#45;&gt;uint8</title>
<path fill="none" stroke="black" d="M43.65,-80.7C51.47,-72.5 61.49,-63.29 72,-57 97.66,-41.65 130.09,-31.54 154.63,-25.47"/>
<polygon fill="black" stroke="black" points="155.7,-28.82 164.63,-23.11 154.09,-22 155.7,-28.82"/>
<text text-anchor="middle" x="106.5" y="-60.8" font-family="Times,serif" font-size="14.00">phase</text>
</g>
</g>
</svg>
