<?xml version="1.0" encoding="UTF-8" standalone="no"?>
<!DOCTYPE svg PUBLIC "-//W3C//DTD SVG 1.1//EN"
 "http://www.w3.org/Graphics/SVG/1.1/DTD/svg11.dtd">
<!-- Generated by graphviz version 2.43.0 (0)
 -->
<!-- Title: types Pages: 1 -->
<svg width="592pt" height="240pt"
 viewBox="0.00 0.00 592.00 240.00" xmlns="http://www.w3.org/2000/svg" xmlns:xlink="http://www.w3.org/1999/xlink">
<g id="graph0" class="graph" transform="scale(1 1) rotate(0) translate(4 236)">
<title>types</title>
<polygon fill="white" stroke="transparent" points="-4,4 -4,-236 588,-236 588,4 -4,4"/>
<text text-anchor="middle" x="292" y="-213.6" font-family="Times,serif" font-size="18.00">graph Boss structure depth 2</text>
<!-- Boss -->
<g id="node1" class="node">
<title>Boss</title>
<polygon fill="#add8e6" stroke="black" stroke-width="3" points="54,-147 0,-147 0,-111 54,-111 54,-147"/>
<text text-anchor="middle" x="27" y="-125.3" font-family="Times,serif" font-size="14.00">Boss</text>
</g>
<!-- Combatant -->
<g id="node2" class="node">
<title>Combatant</title>
<polygon fill="#ffb347" stroke="black" points="407,-202 330,-202 330,-166 407,-166 407,-202"/>
<text text-anchor="middle" x="368.5" y="-180.3" font-family="Times,serif" font-size="14.00">Combatant</text>
</g>
<!-- Boss&#45;&gt;Combatant -->
<g id="edge2" class="edge">
<title>Boss&#45;&gt;Combatant</title>
<path fill="none" stroke="black" stroke-dasharray="5,2" d="M54.21,-141.3C59.99,-143.73 66.14,-146.12 72,-148 141.72,-170.4 160.22,-174.91 233,-183 261.66,-186.19 293.97,-186.53 319.73,-186.04"/>
<polygon fill="black" stroke="black" points="320.07,-189.53 329.98,-185.79 319.9,-182.53 320.07,-189.53"/>
<text text-anchor="middle" x="178" y="-183.8" font-family="Times,serif" font-size="14.00">(implements)</text>
</g>
<!-- NPC -->
<g id="node6" class="node">
<title>NPC</title>
<polygon fill="#add8e6" stroke="black" points="205,-147 151,-147 151,-111 205,-111 205,-147"/>
<text text-anchor="middle" x="178" y="-125.3" font-family="Times,serif" font-size="14.00">NPC</text>
</g>
<!-- Boss&#45;&gt;NPC -->
<g id="edge1" class="edge">
<title>Boss&#45;&gt;NPC</title>
<path fill="none" stroke="black" stroke-dasharray="5,2" d="M54.3,-129C78.34,-129 114.12,-129 140.85,-129"/>
<polygon fill="black" stroke="black" points="140.97,-132.5 150.97,-129 140.97,-125.5 140.97,-132.5"/>
<text text-anchor="middle" x="97.5" y="-132.8" font-family="Times,serif" font-size="14.00">(extends)</text>
</g>
<!-- WorldObject -->
<g id="node9" class="node">
<title>WorldObject</title>
<polygon fill="#ffb347" stroke="black" points="412,-90 325,-90 325,-54 412,-54 412,-90"/>
<text text-anchor="middle" x="368.5" y="-68.3" font-family="Times,serif" font-size="14.00">WorldObject</text>
</g>
<!-- Boss&#45;&gt;WorldObject -->
<g id="edge3" class="edge">
<title>Boss&#45;&gt;WorldObject</title>
<path fill="none" stroke="black" stroke-dasharray="5,2" d="M54.29,-116.74C76.78,-106.86 110.3,-93.57 141,-87 199.57,-74.45 268.44,-71.52 314.73,-71.2"/>
<polygon fill="black" stroke="black" points="314.84,-74.7 324.83,-71.17 314.82,-67.7 314.84,-74.7"/>
<text text-anchor="middle" x="178" y="-90.8" font-family="Times,serif" font-size="14.00">(implements)</text>
</g>
<!-- Damageable -->
<g id="node4" class="node">
<title>Damageable</title>
<polygon fill="#ffb347" stroke="black" points="584,-204 499,-204 499,-168 584,-168 584,-204"/>
<text text-anchor="middle" x="541.5" y="-182.3" font-family="Times,serif" font-size="14.00">Damageable</text>
</g>
<!-- Combatant&#45;&gt;Damageable -->
<g id="edge5" class="edge">
<title>Combatant&#45;&gt;Damageable</title>
<path fill="none" stroke="black" stroke-dasharray="5,2" d="M407.03,-184.44C430.98,-184.72 462.36,-185.09 488.68,-185.39"/>
<polygon fill="black" stroke="black" points="488.82,-188.9 498.86,-185.51 488.91,-181.9 488.82,-188.9"/>
<text text-anchor="middle" x="455.5" y="-188.8" font-family="Times,serif" font-size="14.00">(extends)</text>
</g>
<!-- GameEntity -->
<g id="node5" class="node">
<title>GameEntity</title>
<polygon fill="#ffb347" stroke="black" points="583,-147 500,-147 500,-111 583,-111 583,-147"/>
<text text-anchor="middle" x="541.5" y="-125.3" font-family="Times,serif" font-size="14.00">GameEntity</text>
</g>
<!-- Combatant&#45;&gt;GameEntity -->
<g id="edge4" class="edge">
<title>Combatant&#45;&gt;GameEntity</title>
<path fill="none" stroke="black" stroke-dasharray="5,2" d="M407.03,-171.93C431.46,-164.07 463.61,-153.73 490.24,-145.17"/>
<polygon fill="black" stroke="black" points="491.33,-148.49 499.77,-142.1 489.18,-141.83 491.33,-148.49"/>
<text text-anchor="middle" x="455.5" y="-166.8" font-family="Times,serif" font-size="14.00">(extends)</text>
</g>
<!-- Creature -->
<g id="node3" class="node">
<title>Creature</title>
<polygon fill="#add8e6" stroke="black" points="400,-147 337,-147 337,-111 400,-111 400,-147"/>
<text text-anchor="middle" x="368.5" y="-125.3" font-family="Times,serif" font-size="14.00">Creature</text>
</g>
<!-- NPC&#45;&gt;Combatant -->
<g id="edge10" class="edge">
<title>NPC&#45;&gt;Combatant</title>
<path fill="none" stroke="black" stroke-dasharray="5,2" d="M205.08,-136.76C213.94,-139.39 223.9,-142.33 233,-145 261.84,-153.45 294.18,-162.83 319.92,-170.28"/>
<polygon fill="black" stroke="black" points="319.22,-173.72 329.8,-173.13 321.16,-166.99 319.22,-173.72"/>
<text text-anchor="middle" x="270" y="-169.8" font-family="Times,serif" font-size="14.00">(implements)</text>
</g>
<!-- NPC&#45;&gt;Creature -->
<g id="edge9" class="edge">
<title>NPC&#45;&gt;Creature</title>
<path fill="none" stroke="black" stroke-dasharray="5,2" d="M205.21,-129C236.61,-129 289.57,-129 326.42,-129"/>
<polygon fill="black" stroke="black" points="326.83,-132.5 336.83,-129 326.83,-125.5 326.83,-132.5"/>
<text text-anchor="middle" x="270" y="-132.8" font-family="Times,serif" font-size="14.00">(extends)</text>
</g>
<!-- NPC&#45;&gt;WorldObject -->
<g id="edge11" class="edge">
<title>NPC&#45;&gt;WorldObject</title>
<path fill="none" stroke="black" stroke-dasharray="5,2" d="M205.26,-119.39C214.04,-116.27 223.9,-112.88 233,-110 259.96,-101.46 290.24,-92.82 315.24,-85.94"/>
<polygon fill="black" stroke="black" points="316.17,-89.32 324.89,-83.3 314.32,-82.56 316.17,-89.32"/>
<text text-anchor="middle" x="270" y="-113.8" font-family="Times,serif" font-size="14.00">(implements)</text>
</g>
<!-- Physical -->
<g id="node7" class="node">
<title>Physical</title>
<polygon fill="#ffb347" stroke="black" points="572.5,-90 510.5,-90 510.5,-54 572.5,-54 572.5,-90"/>
<text text-anchor="middle" x="541.5" y="-68.3" font-family="Times,serif" font-size="14.00">Physical</text>
</g>
<!-- Renderable -->
<g id="node8" class="node">
<title>Renderable</title>
<polygon fill="#ffb347" stroke="black" points="580.5,-36 502.5,-36 502.5,0 580.5,0 580.5,-36"/>
<text text-anchor="middle" x="541.5" y="-14.3" font-family="Times,serif" font-size="14.00">Renderable</text>
</g>
<!-- WorldObject&#45;&gt;GameEntity -->
<g id="edge6" class="edge">
<title>WorldObject&#45;&gt;GameEntity</title>
<path fill="none" stroke="black" stroke-dasharray="5,2" d="M412.21,-86.24C435.88,-94.13 465.44,-103.98 490.22,-112.24"/>
<polygon fill="black" stroke="black" points="489.21,-115.59 499.81,-115.44 491.43,-108.95 489.21,-115.59"/>
<text text-anchor="middle" x="455.5" y="-111.8" font-family="Times,serif" font-size="14.00">(extends)</text>
</g>
<!-- WorldObject&#45;&gt;Physical -->
<g id="edge8" class="edge">
<title>WorldObject&#45;&gt;Physical</title>
<path fill="none" stroke="black" stroke-dasharray="5,2" d="M412.21,-72C439.19,-72 473.84,-72 500.33,-72"/>
<polygon fill="black" stroke="black" points="500.41,-75.5 510.41,-72 500.41,-68.5 500.41,-75.5"/>
<text text-anchor="middle" x="455.5" y="-75.8" font-family="Times,serif" font-size="14.00">(extends)</text>
</g>
<!-- WorldObject&#45;&gt;Renderable -->
<g id="edge7" class="edge">
<title>WorldObject&#45;&gt;Renderable</title>
<path fill="none" stroke="black" stroke-dasharray="5,2" d="M412.21,-58.51C436.66,-50.79 467.41,-41.08 492.67,-33.1"/>
<polygon fill="black" stroke="black" points="493.93,-36.38 502.41,-30.03 491.82,-29.7 493.93,-36.38"/>
<text text-anchor="middle" x="455.5" y="-55.8" font-family="Times,serif" font-size="14.00">(extends)</text>
</g>
</g>
</svg>
