<?xml version="1.0" encoding="UTF-8" standalone="no"?>
<!DOCTYPE svg PUBLIC "-//W3C//DTD SVG 1.1//EN"
 "http://www.w3.org/Graphics/SVG/1.1/DTD/svg11.dtd">
<!-- Generated by graphviz version 2.43.0 (0)
 -->
<!-- Title: types Pages: 1 -->
<svg width="1160pt" height="263pt"
 viewBox="0.00 0.00 1160.49 263.00" xmlns="http://www.w3.org/2000/svg" xmlns:xlink="http://www.w3.org/1999/xlink">
<g id="graph0" class="graph" transform="scale(1 1) rotate(0) translate(4 259)">
<title>types</title>
<polygon fill="white" stroke="transparent" points="-4,4 -4,-259 1156.49,-259 1156.49,4 -4,4"/>
<text text-anchor="middle" x="576.25" y="-236.6" font-family="Times,serif" font-size="18.00">graph Boss showing type float32</text>
<!-- Boss -->
<g id="node1" class="node">
<title>Boss</title>
<polygon fill="#add8e6" stroke="black" stroke-width="3" points="54,-118 0,-118 0,-82 54,-82 54,-118"/>
<text text-anchor="middle" x="27" y="-96.3" font-family="Times,serif" font-size="14.00">Boss</text>
</g>
<!-- NPC -->
<g id="node8" class="node">
<title>NPC</title>
<polygon fill="#add8e6" stroke="black" points="195,-118 141,-118 141,-82 195,-82 195,-118"/>
<text text-anchor="middle" x="168" y="-96.3" font-family="Times,serif" font-size="14.00">NPC</text>
</g>
<!-- Boss&#45;&gt;NPC -->
<g id="edge6" class="edge">
<title>Boss&#45;&gt;NPC</title>
<path fill="none" stroke="black" stroke-dasharray="5,2" d="M54.14,-100C75.79,-100 106.78,-100 130.81,-100"/>
<polygon fill="black" stroke="black" points="130.97,-103.5 140.97,-100 130.97,-96.5 130.97,-103.5"/>
<text text-anchor="middle" x="97.5" y="-103.8" font-family="Times,serif" font-size="14.00">(extends)</text>
</g>
<!-- Combatant -->
<g id="node2" class="node">
<title>Combatant</title>
<polygon fill="#ffb347" stroke="black" points="537,-189 460,-189 460,-153 537,-153 537,-189"/>
<text text-anchor="middle" x="498.5" y="-167.3" font-family="Times,serif" font-size="14.00">Combatant</text>
</g>
<!-- Damageable -->
<g id="node4" class="node">
<title>Damageable</title>
<polygon fill="#ffb347" stroke="black" points="714,-227 629,-227 629,-191 714,-191 714,-227"/>
<text text-anchor="middle" x="671.5" y="-205.3" font-family="Times,serif" font-size="14.00">Damageable</text>
</g>
<!-- Combatant&#45;&gt;Damageable -->
<g id="edge11" class="edge">
<title>Combatant&#45;&gt;Damageable</title>
<path fill="none" stroke="black" stroke-dasharray="5,2" d="M537.03,-179.34C561.09,-184.69 592.64,-191.7 619.03,-197.56"/>
<polygon fill="black" stroke="black" points="618.34,-200.99 628.86,-199.75 619.86,-194.16 618.34,-200.99"/>
<text text-anchor="middle" x="585.5" y="-198.8" font-family="Times,serif" font-size="14.00">(extends)</text>
</g>
<!-- GameEntity -->
<g id="node6" class="node">
<title>GameEntity</title>
<polygon fill="#ffb347" stroke="black" points="713,-172 630,-172 630,-136 713,-136 713,-172"/>
<text text-anchor="middle" x="671.5" y="-150.3" font-family="Times,serif" font-size="14.00">GameEntity</text>
</g>
<!-- Combatant&#45;&gt;GameEntity -->
<g id="edge10" class="edge">
<title>Combatant&#45;&gt;GameEntity</title>
<path fill="none" stroke="black" stroke-dasharray="5,2" d="M537.03,-167.27C561.24,-164.86 593.05,-161.7 619.54,-159.07"/>
<polygon fill="black" stroke="black" points="620.17,-162.52 629.77,-158.05 619.48,-155.56 620.17,-162.52"/>
<text text-anchor="middle" x="585.5" y="-167.8" font-family="Times,serif" font-size="14.00">(extends)</text>
</g>
<!-- Creature -->
<g id="node3" class="node">
<title>Creature</title>
<polygon fill="#add8e6" stroke="black" points="345,-118 282,-118 282,-82 345,-82 345,-118"/>
<text text-anchor="middle" x="313.5" y="-96.3" font-family="Times,serif" font-size="14.00">Creature</text>
</g>
<!-- Creature&#45;&gt;Combatant -->
<g id="edge8" class="edge">
<title>Creature&#45;&gt;Combatant</title>
<path fill="none" stroke="black" stroke-dasharray="5,2" d="M345.02,-111.98C350.98,-114.31 357.19,-116.74 363,-119 391.96,-130.27 424.46,-142.84 450.26,-152.8"/>
<polygon fill="black" stroke="black" points="449.21,-156.14 459.8,-156.48 451.73,-149.61 449.21,-156.14"/>
<text text-anchor="middle" x="400" y="-150.8" font-family="Times,serif" font-size="14.00">(implements)</text>
</g>
<!-- WorldObject -->
<g id="node13" class="node">
<title>WorldObject</title>
<polygon fill="#ffb347" stroke="black" points="542,-118 455,-118 455,-82 542,-82 542,-118"/>
<text text-anchor="middle" x="498.5" y="-96.3" font-family="Times,serif" font-size="14.00">WorldObject</text>
</g>
<!-- Creature&#45;&gt;WorldObject -->
<g id="edge9" class="edge">
<title>Creature&#45;&gt;WorldObject</title>
<path fill="none" stroke="black" stroke-dasharray="5,2" d="M345.13,-100C372.21,-100 412.32,-100 444.59,-100"/>
<polygon fill="black" stroke="black" points="444.77,-103.5 454.77,-100 444.77,-96.5 444.77,-103.5"/>
<text text-anchor="middle" x="400" y="-103.8" font-family="Times,serif" font-size="14.00">(implements)</text>
</g>
<!-- float32 -->
<g id="node14" class="node">
<title>float32</title>
<ellipse fill="#ffffe0" stroke="black" cx="1116.75" cy="-98" rx="36" ry="18"/>
<text text-anchor="middle" x="1116.75" y="-94.3" font-family="Times,serif" font-size="14.00">float32</text>
</g>
<!-- Creature&#45;&gt;float32 -->
<g id="edge1" class="edge">
<title>Creature&#45;&gt;float32</title>
<path fill="none" stroke="black" d="M332.96,-81.66C364.07,-52.79 430.16,0 497.5,0 497.5,0 497.5,0 999.5,0 1044.23,0 1080.68,-42.95 1100.21,-71.98"/>
<polygon fill="black" stroke="black" points="1097.35,-73.99 1105.72,-80.48 1103.22,-70.18 1097.35,-73.99"/>
<text text-anchor="middle" x="757.5" y="-3.8" font-family="Times,serif" font-size="14.00">speed</text>
</g>
<!-- Entity -->
<g id="node5" class="node">
<title>Entity</title>
<polygon fill="#ffb347" stroke="black" points="863.5,-224 809.5,-224 809.5,-188 863.5,-188 863.5,-224"/>
<text text-anchor="middle" x="836.5" y="-202.3" font-family="Times,serif" font-size="14.00">Entity</text>
</g>
<!-- Identifiable -->
<g id="node7" class="node">
<title>Identifiable</title>
<polygon fill="#ffb347" stroke="black" points="1038,-225 959,-225 959,-189 1038,-189 1038,-225"/>
<text text-anchor="middle" x="998.5" y="-203.3" font-family="Times,serif" font-size="14.00">Identifiable</text>
</g>
<!-- Entity&#45;&gt;Identifiable -->
<g id="edge18" class="edge">
<title>Entity&#45;&gt;Identifiable</title>
<path fill="none" stroke="black" stroke-dasharray="5,2" d="M863.56,-206.16C886.59,-206.31 920.78,-206.52 948.85,-206.7"/>
<polygon fill="black" stroke="black" points="948.86,-210.2 958.89,-206.76 948.91,-203.2 948.86,-210.2"/>
<text text-anchor="middle" x="915.5" y="-209.8" font-family="Times,serif" font-size="14.00">(extends)</text>
</g>
<!-- Positioned -->
<g id="node10" class="node">
<title>Positioned</title>
<polygon fill="#ffb347" stroke="black" points="1035.5,-169 961.5,-169 961.5,-133 1035.5,-133 1035.5,-169"/>
<text text-anchor="middle" x="998.5" y="-147.3" font-family="Times,serif" font-size="14.00">Positioned</text>
</g>
<!-- Entity&#45;&gt;Positioned -->
<g id="edge19" class="edge">
<title>Entity&#45;&gt;Positioned</title>
<path fill="none" stroke="black" stroke-dasharray="5,2" d="M863.63,-196.4C872.03,-193.36 881.4,-190 890,-187 910.1,-180 932.4,-172.49 951.46,-166.15"/>
<polygon fill="black" stroke="black" points="952.71,-169.42 961.1,-162.95 950.51,-162.78 952.71,-169.42"/>
<text text-anchor="middle" x="915.5" y="-190.8" font-family="Times,serif" font-size="14.00">(extends)</text>
</g>
<!-- GameEntity&#45;&gt;Entity -->
<g id="edge15" class="edge">
<title>GameEntity&#45;&gt;Entity</title>
<path fill="none" stroke="black" stroke-dasharray="5,2" d="M713.21,-166.99C739.68,-175.43 773.89,-186.35 799.39,-194.48"/>
<polygon fill="black" stroke="black" points="798.46,-197.86 809.05,-197.56 800.59,-191.19 798.46,-197.86"/>
<text text-anchor="middle" x="757.5" y="-192.8" font-family="Times,serif" font-size="14.00">(extends)</text>
</g>
<!-- Trackable -->
<g id="node12" class="node">
<title>Trackable</title>
<polygon fill="#ffb347" stroke="black" points="872,-170 801,-170 801,-134 872,-134 872,-170"/>
<text text-anchor="middle" x="836.5" y="-148.3" font-family="Times,serif" font-size="14.00">Trackable</text>
</g>
<!-- GameEntity&#45;&gt;Trackable -->
<g id="edge16" class="edge">
<title>GameEntity&#45;&gt;Trackable</title>
<path fill="none" stroke="black" stroke-dasharray="5,2" d="M713.21,-153.5C736.81,-153.21 766.55,-152.85 790.8,-152.55"/>
<polygon fill="black" stroke="black" points="790.86,-156.05 800.82,-152.43 790.78,-149.05 790.86,-156.05"/>
<text text-anchor="middle" x="757.5" y="-156.8" font-family="Times,serif" font-size="14.00">(extends)</text>
</g>
<!-- NPC&#45;&gt;Creature -->
<g id="edge7" class="edge">
<title>NPC&#45;&gt;Creature</title>
<path fill="none" stroke="black" stroke-dasharray="5,2" d="M195.32,-100C216.7,-100 247.23,-100 271.76,-100"/>
<polygon fill="black" stroke="black" points="271.86,-103.5 281.86,-100 271.86,-96.5 271.86,-103.5"/>
<text text-anchor="middle" x="238.5" y="-103.8" font-family="Times,serif" font-size="14.00">(extends)</text>
</g>
<!-- Physical -->
<g id="node9" class="node">
<title>Physical</title>
<polygon fill="#ffb347" stroke="black" points="867.5,-116 805.5,-116 805.5,-80 867.5,-80 867.5,-116"/>
<text text-anchor="middle" x="836.5" y="-94.3" font-family="Times,serif" font-size="14.00">Physical</text>
</g>
<!-- Physical&#45;&gt;Positioned -->
<g id="edge17" class="edge">
<title>Physical&#45;&gt;Positioned</title>
<path fill="none" stroke="black" stroke-dasharray="5,2" d="M867.86,-107.91C888.5,-114.66 916.41,-123.83 941,-132 944.5,-133.16 948.11,-134.37 951.75,-135.58"/>
<polygon fill="black" stroke="black" points="950.75,-138.94 961.34,-138.8 952.97,-132.3 950.75,-138.94"/>
<text text-anchor="middle" x="915.5" y="-135.8" font-family="Times,serif" font-size="14.00">(extends)</text>
</g>
<!-- Physical&#45;&gt;float32 -->
<g id="edge2" class="edge">
<title>Physical&#45;&gt;float32</title>
<path fill="none" stroke="black" d="M867.54,-98C916.36,-98 1013.19,-98 1070.41,-98"/>
<polygon fill="black" stroke="black" points="1070.61,-101.5 1080.61,-98 1070.61,-94.5 1070.61,-101.5"/>
<text text-anchor="middle" x="998.5" y="-101.8" font-family="Times,serif" font-size="14.00">width</text>
</g>
<!-- Physical&#45;&gt;float32 -->
<g id="edge3" class="edge">
<title>Physical&#45;&gt;float32</title>
<path fill="none" stroke="black" d="M867.78,-91.09C907.09,-83.05 977.77,-71.75 1038,-79 1050.5,-80.51 1063.9,-83.33 1075.98,-86.34"/>
<polygon fill="black" stroke="black" points="1075.22,-89.76 1085.78,-88.9 1076.99,-82.99 1075.22,-89.76"/>
<text text-anchor="middle" x="998.5" y="-82.8" font-family="Times,serif" font-size="14.00">height</text>
</g>
<!-- Positioned&#45;&gt;float32 -->
<g id="edge4" class="edge">
<title>Positioned&#45;&gt;float32</title>
<path fill="none" stroke="black" d="M1035.76,-152.95C1044.94,-152.31 1054.58,-150.62 1063,-147 1075.56,-141.6 1087.02,-131.87 1096.02,-122.5"/>
<polygon fill="black" stroke="black" points="1098.86,-124.57 1102.97,-114.81 1093.67,-119.88 1098.86,-124.57"/>
<text text-anchor="middle" x="1059.5" y="-152.8" font-family="Times,serif" font-size="14.00">x</text>
</g>
<!-- Positioned&#45;&gt;float32 -->
<g id="edge5" class="edge">
<title>Positioned&#45;&gt;float32</title>
<path fill="none" stroke="black" d="M1035.64,-134.52C1049.83,-128.05 1066.07,-120.65 1080.2,-114.21"/>
<polygon fill="black" stroke="black" points="1081.95,-117.26 1089.59,-109.92 1079.04,-110.89 1081.95,-117.26"/>
<text text-anchor="middle" x="1059.5" y="-127.8" font-family="Times,serif" font-size="14.00">y</text>
</g>
<!-- Renderable -->
<g id="node11" class="node">
<title>Renderable</title>
<polygon fill="#ffb347" stroke="black" points="710.5,-64 632.5,-64 632.5,-28 710.5,-28 710.5,-64"/>
<text text-anchor="middle" x="671.5" y="-42.3" font-family="Times,serif" font-size="14.00">Renderable</text>
</g>
<!-- WorldObject&#45;&gt;GameEntity -->
<g id="edge12" class="edge">
<title>WorldObject&#45;&gt;GameEntity</title>
<path fill="none" stroke="black" stroke-dasharray="5,2" d="M542.21,-113.49C565.88,-120.96 595.44,-130.3 620.22,-138.12"/>
<polygon fill="black" stroke="black" points="619.22,-141.48 629.81,-141.15 621.32,-134.8 619.22,-141.48"/>
<text text-anchor="middle" x="585.5" y="-137.8" font-family="Times,serif" font-size="14.00">(extends)</text>
</g>
<!-- WorldObject&#45;&gt;Physical -->
<g id="edge14" class="edge">
<title>WorldObject&#45;&gt;Physical</title>
<path fill="none" stroke="black" stroke-dasharray="5,2" d="M542.05,-99.75C607.29,-99.36 731.16,-98.62 795.09,-98.24"/>
<polygon fill="black" stroke="black" points="795.21,-101.74 805.19,-98.18 795.17,-94.74 795.21,-101.74"/>
<text text-anchor="middle" x="671.5" y="-102.8" font-family="Times,serif" font-size="14.00">(extends)</text>
</g>
<!-- WorldObject&#45;&gt;Renderable -->
<g id="edge13" class="edge">
<title>WorldObject&#45;&gt;Renderable</title>
<path fill="none" stroke="black" stroke-dasharray="5,2" d="M533.81,-81.92C542.22,-77.94 551.31,-74.02 560,-71 580.01,-64.04 602.75,-58.51 622.37,-54.44"/>
<polygon fill="black" stroke="black" points="623.2,-57.84 632.32,-52.44 621.83,-50.98 623.2,-57.84"/>
<text text-anchor="middle" x="585.5" y="-74.8" font-family="Times,serif" font-size="14.00">(extends)</text>
</g>
</g>
</svg>
