<?xml version="1.0" encoding="UTF-8" standalone="no"?>
<!DOCTYPE svg PUBLIC "-//W3C//DTD SVG 1.1//EN"
 "http://www.w3.org/Graphics/SVG/1.1/DTD/svg11.dtd">
<!-- Generated by graphviz version 2.43.0 (0)
 -->
<!-- Title: types Pages: 1 -->
<svg width="1222pt" height="598pt"
 viewBox="0.00 0.00 1222.49 598.00" xmlns="http://www.w3.org/2000/svg" xmlns:xlink="http://www.w3.org/1999/xlink">
<g id="graph0" class="graph" transform="scale(1 1) rotate(0) translate(4 594)">
<title>types</title>
<polygon fill="white" stroke="transparent" points="-4,4 -4,-594 1218.49,-594 1218.49,4 -4,4"/>
<text text-anchor="middle" x="607.25" y="-571.6" font-family="Times,serif" font-size="18.00">graph Boss excluding kind Primitive</text>
<!-- Boss -->
<g id="node1" class="node">
<title>Boss</title>
<polygon fill="#add8e6" stroke="black" stroke-width="3" points="54,-465 0,-465 0,-429 54,-429 54,-465"/>
<text text-anchor="middle" x="27" y="-443.3" font-family="Times,serif" font-size="14.00">Boss</text>
</g>
<!-- NPC -->
<g id="node9" class="node">
<title>NPC</title>
<polygon fill="#add8e6" stroke="black" points="195,-165 141,-165 141,-129 195,-129 195,-165"/>
<text text-anchor="middle" x="168" y="-143.3" font-family="Times,serif" font-size="14.00">NPC</text>
</g>
<!-- Boss&#45;&gt;NPC -->
<g id="edge4" class="edge">
<title>Boss&#45;&gt;NPC</title>
<path fill="none" stroke="black" stroke-dasharray="5,2" d="M36.49,-428.69C60.05,-377.83 126.38,-234.68 154.33,-174.35"/>
<polygon fill="black" stroke="black" points="157.6,-175.62 158.63,-165.08 151.25,-172.68 157.6,-175.62"/>
<text text-anchor="middle" x="97.5" y="-352.8" font-family="Times,serif" font-size="14.00">(extends)</text>
</g>
<!-- string -->
<g id="node19" class="node">
<title>string</title>
<ellipse fill="#ffffe0" stroke="black" cx="1178.75" cy="-104" rx="30.59" ry="18"/>
<text text-anchor="middle" x="1178.75" y="-100.3" font-family="Times,serif" font-size="14.00">string</text>
</g>
<!-- Boss&#45;&gt;string -->
<g id="edge2" class="edge">
<title>Boss&#45;&gt;string</title>
<path fill="none" stroke="black" d="M29.6,-428.92C37.48,-345.3 75.57,0 167,0 167,0 167,0 1012.5,0 1072.24,0 1128.05,-49.3 1157.02,-80.01"/>
<polygon fill="black" stroke="black" points="1154.79,-82.75 1164.13,-87.75 1159.94,-78.02 1154.79,-82.75"/>
<text text-anchor="middle" x="592" y="-3.8" font-family="Times,serif" font-size="14.00">title</text>
</g>
<!-- uint32 -->
<g id="node21" class="node">
<title>uint32</title>
<ellipse fill="#ffffe0" stroke="black" cx="1011.5" cy="-526" rx="33.29" ry="18"/>
<text text-anchor="middle" x="1011.5" y="-522.3" font-family="Times,serif" font-size="14.00">uint32</text>
</g>
<!-- Boss&#45;&gt;uint32 -->
<g id="edge3" class="edge">
<title>Boss&#45;&gt;uint32</title>
<path fill="none" stroke="black" d="M41.09,-465.34C63.38,-494.21 111.71,-547 167,-547 167,-547 167,-547 850.5,-547 891.58,-547 938.09,-540.11 970.34,-534.22"/>
<polygon fill="black" stroke="black" points="971.1,-537.64 980.28,-532.36 969.81,-530.76 971.1,-537.64"/>
<text text-anchor="middle" x="498.5" y="-550.8" font-family="Times,serif" font-size="14.00">reward_gold</text>
</g>
<!-- uint8 -->
<g id="node23" class="node">
<title>uint8</title>
<ellipse fill="#ffffe0" stroke="black" cx="849.5" cy="-422" rx="28.7" ry="18"/>
<text text-anchor="middle" x="849.5" y="-418.3" font-family="Times,serif" font-size="14.00">uint8</text>
</g>
<!-- Boss&#45;&gt;uint8 -->
<g id="edge1" class="edge">
<title>Boss&#45;&gt;uint8</title>
<path fill="none" stroke="black" d="M54.12,-462.86C81.31,-477.83 125.61,-498 167,-498 167,-498 167,-498 593,-498 676.99,-498 770.31,-459.8 817.52,-437.56"/>
<polygon fill="black" stroke="black" points="819.09,-440.69 826.6,-433.21 816.07,-434.38 819.09,-440.69"/>
<text text-anchor="middle" x="400" y="-501.8" font-family="Times,serif" font-size="14.00">phase</text>
</g>
<!-- Combatant -->
<g id="node2" class="node">
<title>Combatant</title>
<polygon fill="#ffb347" stroke="black" points="537,-232 460,-232 460,-196 537,-196 537,-232"/>
<text text-anchor="middle" x="498.5" y="-210.3" font-family="Times,serif" font-size="14.00">Combatant</text>
</g>
<!-- Damageable -->
<g id="node4" class="node">
<title>Damageable</title>
<polygon fill="#ffb347" stroke="black" points="727,-161 642,-161 642,-125 727,-125 727,-161"/>
<text text-anchor="middle" x="684.5" y="-139.3" font-family="Times,serif" font-size="14.00">Damageable</text>
</g>
<!-- Combatant&#45;&gt;Damageable -->
<g id="edge16" class="edge">
<title>Combatant&#45;&gt;Damageable</title>
<path fill="none" stroke="black" stroke-dasharray="5,2" d="M512.12,-195.9C523.03,-181.84 540.15,-163.23 560,-154 582.09,-143.73 608.79,-140.39 631.7,-139.86"/>
<polygon fill="black" stroke="black" points="631.95,-143.36 641.93,-139.8 631.91,-136.36 631.95,-143.36"/>
<text text-anchor="middle" x="592" y="-157.8" font-family="Times,serif" font-size="14.00">(extends)</text>
</g>
<!-- GameEntity -->
<g id="node7" class="node">
<title>GameEntity</title>
<polygon fill="#ffb347" stroke="black" points="726,-269 643,-269 643,-233 726,-233 726,-269"/>
<text text-anchor="middle" x="684.5" y="-247.3" font-family="Times,serif" font-size="14.00">GameEntity</text>
</g>
<!-- Combatant&#45;&gt;GameEntity -->
<g id="edge15" class="edge">
<title>Combatant&#45;&gt;GameEntity</title>
<path fill="none" stroke="black" stroke-dasharray="5,2" d="M537.24,-222.23C544.77,-223.84 552.63,-225.49 560,-227 583.94,-231.9 610.54,-237.1 632.9,-241.4"/>
<polygon fill="black" stroke="black" points="632.37,-244.86 642.85,-243.31 633.69,-237.99 632.37,-244.86"/>
<text text-anchor="middle" x="592" y="-242.8" font-family="Times,serif" font-size="14.00">(extends)</text>
</g>
<!-- uint16 -->
<g id="node20" class="node">
<title>uint16</title>
<ellipse fill="#ffffe0" stroke="black" cx="684.5" cy="-197" rx="33.29" ry="18"/>
<text text-anchor="middle" x="684.5" y="-193.3" font-family="Times,serif" font-size="14.00">uint16</text>
</g>
<!-- Combatant&#45;&gt;uint16 -->
<g id="edge13" class="edge">
<title>Combatant&#45;&gt;uint16</title>
<path fill="none" stroke="black" d="M522.22,-195.99C533.01,-188.56 546.49,-180.8 560,-177 589.03,-168.83 622.91,-175.4 647.83,-183.14"/>
<polygon fill="black" stroke="black" points="646.99,-186.55 657.58,-186.36 649.19,-179.9 646.99,-186.55"/>
<text text-anchor="middle" x="592" y="-180.8" font-family="Times,serif" font-size="14.00">attack</text>
</g>
<!-- Combatant&#45;&gt;uint16 -->
<g id="edge14" class="edge">
<title>Combatant&#45;&gt;uint16</title>
<path fill="none" stroke="black" d="M537.18,-210.52C567.5,-207.72 610.09,-203.78 641.5,-200.88"/>
<polygon fill="black" stroke="black" points="642.06,-204.34 651.69,-199.94 641.42,-197.37 642.06,-204.34"/>
<text text-anchor="middle" x="592" y="-211.8" font-family="Times,serif" font-size="14.00">defense</text>
</g>
<!-- Creature -->
<g id="node3" class="node">
<title>Creature</title>
<polygon fill="#add8e6" stroke="black" points="345,-315 282,-315 282,-279 345,-279 345,-315"/>
<text text-anchor="middle" x="313.5" y="-293.3" font-family="Times,serif" font-size="14.00">Creature</text>
</g>
<!-- Creature&#45;&gt;Combatant -->
<g id="edge11" class="edge">
<title>Creature&#45;&gt;Combatant</title>
<path fill="none" stroke="black" stroke-dasharray="5,2" d="M332.54,-278.74C341.16,-270.84 351.98,-262.05 363,-256 390.19,-241.07 423.44,-230.62 450.08,-223.89"/>
<polygon fill="black" stroke="black" points="451.05,-227.25 459.94,-221.48 449.4,-220.45 451.05,-227.25"/>
<text text-anchor="middle" x="400" y="-259.8" font-family="Times,serif" font-size="14.00">(implements)</text>
</g>
<!-- Faction -->
<g id="node6" class="node">
<title>Faction</title>
<polygon fill="#90ee90" stroke="black" points="527,-292 470,-292 470,-256 527,-256 527,-292"/>
<text text-anchor="middle" x="498.5" y="-270.3" font-family="Times,serif" font-size="14.00">Faction</text>
</g>
<!-- Creature&#45;&gt;Faction -->
<g id="edge10" class="edge">
<title>Creature&#45;&gt;Faction</title>
<path fill="none" stroke="black" d="M345.06,-287.11C350.96,-285.5 357.13,-284.03 363,-283 395.35,-277.32 432.66,-275.16 459.77,-274.37"/>
<polygon fill="black" stroke="black" points="460.08,-277.86 469.99,-274.12 459.91,-270.87 460.08,-277.86"/>
<text text-anchor="middle" x="400" y="-286.8" font-family="Times,serif" font-size="14.00">faction</text>
</g>
<!-- WorldObject -->
<g id="node15" class="node">
<title>WorldObject</title>
<polygon fill="#ffb347" stroke="black" points="542,-346 455,-346 455,-310 542,-310 542,-346"/>
<text text-anchor="middle" x="498.5" y="-324.3" font-family="Times,serif" font-size="14.00">WorldObject</text>
</g>
<!-- Creature&#45;&gt;WorldObject -->
<g id="edge12" class="edge">
<title>Creature&#45;&gt;WorldObject</title>
<path fill="none" stroke="black" stroke-dasharray="5,2" d="M345.13,-302.19C372.21,-306.78 412.32,-313.57 444.59,-319.04"/>
<polygon fill="black" stroke="black" points="444.32,-322.54 454.77,-320.76 445.49,-315.64 444.32,-322.54"/>
<text text-anchor="middle" x="400" y="-320.8" font-family="Times,serif" font-size="14.00">(implements)</text>
</g>
<!-- float32 -->
<g id="node17" class="node">
<title>float32</title>
<ellipse fill="#ffffe0" stroke="black" cx="1178.75" cy="-424" rx="36" ry="18"/>
<text text-anchor="middle" x="1178.75" y="-420.3" font-family="Times,serif" font-size="14.00">float32</text>
</g>
<!-- Creature&#45;&gt;float32 -->
<g id="edge8" class="edge">
<title>Creature&#45;&gt;float32</title>
<path fill="none" stroke="black" d="M324.84,-315.17C333.44,-328.76 346.86,-346.85 363,-358 596.84,-519.52 691.2,-509.14 972,-553 1006.69,-558.42 1018.62,-566.58 1051,-553 1100.81,-532.11 1140.91,-481.05 1161.86,-449.8"/>
<polygon fill="black" stroke="black" points="1164.95,-451.45 1167.49,-441.17 1159.09,-447.63 1164.95,-451.45"/>
<text text-anchor="middle" x="770.5" y="-530.8" font-family="Times,serif" font-size="14.00">speed</text>
</g>
<!-- Creature&#45;&gt;uint8 -->
<g id="edge9" class="edge">
<title>Creature&#45;&gt;uint8</title>
<path fill="none" stroke="black" d="M332.88,-315.24C341.4,-322.73 352.05,-330.84 363,-336 400.77,-353.8 413.97,-347.27 455,-355 585.52,-379.58 741.17,-404.91 811.16,-416.09"/>
<polygon fill="black" stroke="black" points="810.82,-419.58 821.25,-417.7 811.92,-412.67 810.82,-419.58"/>
<text text-anchor="middle" x="592" y="-387.8" font-family="Times,serif" font-size="14.00">level</text>
</g>
<!-- int16 -->
<g id="node18" class="node">
<title>int16</title>
<ellipse fill="#ffffe0" stroke="black" cx="849.5" cy="-143" rx="28.7" ry="18"/>
<text text-anchor="middle" x="849.5" y="-139.3" font-family="Times,serif" font-size="14.00">int16</text>
</g>
<!-- Damageable&#45;&gt;int16 -->
<g id="edge20" class="edge">
<title>Damageable&#45;&gt;int16</title>
<path fill="none" stroke="black" d="M727,-135.12C733.02,-134.24 739.15,-133.49 745,-133 767.59,-131.12 773.43,-130.87 796,-133 801.29,-133.5 806.84,-134.28 812.27,-135.18"/>
<polygon fill="black" stroke="black" points="812,-138.69 822.47,-137.04 813.26,-131.8 812,-138.69"/>
<text text-anchor="middle" x="770.5" y="-136.8" font-family="Times,serif" font-size="14.00">hp</text>
</g>
<!-- Damageable&#45;&gt;int16 -->
<g id="edge21" class="edge">
<title>Damageable&#45;&gt;int16</title>
<path fill="none" stroke="black" d="M727.08,-146.94C733.09,-147.38 739.2,-147.76 745,-148 767.65,-148.95 773.36,-149.08 796,-148 800.89,-147.77 806.02,-147.41 811.09,-147"/>
<polygon fill="black" stroke="black" points="811.64,-150.47 821.29,-146.09 811.01,-143.49 811.64,-150.47"/>
<text text-anchor="middle" x="770.5" y="-152.8" font-family="Times,serif" font-size="14.00">max_hp</text>
</g>
<!-- Entity -->
<g id="node5" class="node">
<title>Entity</title>
<polygon fill="#ffb347" stroke="black" points="876.5,-269 822.5,-269 822.5,-233 876.5,-233 876.5,-269"/>
<text text-anchor="middle" x="849.5" y="-247.3" font-family="Times,serif" font-size="14.00">Entity</text>
</g>
<!-- Identifiable -->
<g id="node8" class="node">
<title>Identifiable</title>
<polygon fill="#ffb347" stroke="black" points="1051,-172 972,-172 972,-136 1051,-136 1051,-172"/>
<text text-anchor="middle" x="1011.5" y="-150.3" font-family="Times,serif" font-size="14.00">Identifiable</text>
</g>
<!-- Entity&#45;&gt;Identifiable -->
<g id="edge31" class="edge">
<title>Entity&#45;&gt;Identifiable</title>
<path fill="none" stroke="black" stroke-dasharray="5,2" d="M874.63,-232.86C878.18,-229.98 881.74,-226.97 885,-224 893.6,-216.17 893.59,-211.83 903,-205 921.1,-191.86 943.13,-180.72 962.51,-172.22"/>
<polygon fill="black" stroke="black" points="963.96,-175.41 971.79,-168.27 961.22,-168.97 963.96,-175.41"/>
<text text-anchor="middle" x="928.5" y="-208.8" font-family="Times,serif" font-size="14.00">(extends)</text>
</g>
<!-- Positioned -->
<g id="node11" class="node">
<title>Positioned</title>
<polygon fill="#ffb347" stroke="black" points="1048.5,-388 974.5,-388 974.5,-352 1048.5,-352 1048.5,-388"/>
<text text-anchor="middle" x="1011.5" y="-366.3" font-family="Times,serif" font-size="14.00">Positioned</text>
</g>
<!-- Entity&#45;&gt;Positioned -->
<g id="edge32" class="edge">
<title>Entity&#45;&gt;Positioned</title>
<path fill="none" stroke="black" stroke-dasharray="5,2" d="M876.56,-239.72C899.58,-231.71 932.71,-225.2 954,-243 988.65,-271.97 947.68,-304.95 972,-343 972.19,-343.3 972.38,-343.59 972.58,-343.88"/>
<polygon fill="black" stroke="black" points="970.16,-346.44 979.36,-351.69 975.45,-341.85 970.16,-346.44"/>
<text text-anchor="middle" x="928.5" y="-246.8" font-family="Times,serif" font-size="14.00">(extends)</text>
</g>
<!-- Entity&#45;&gt;uint32 -->
<g id="edge30" class="edge">
<title>Entity&#45;&gt;uint32</title>
<path fill="none" stroke="black" d="M858.2,-269.04C871.58,-300.33 898.15,-362.26 903,-372 930.77,-427.76 932.06,-446.2 972,-494 975.18,-497.8 978.85,-501.5 982.63,-504.94"/>
<polygon fill="black" stroke="black" points="980.58,-507.79 990.45,-511.63 985.13,-502.47 980.58,-507.79"/>
<text text-anchor="middle" x="928.5" y="-473.8" font-family="Times,serif" font-size="14.00">id</text>
</g>
<!-- GameEntity&#45;&gt;Entity -->
<g id="edge24" class="edge">
<title>GameEntity&#45;&gt;Entity</title>
<path fill="none" stroke="black" stroke-dasharray="5,2" d="M726.21,-251C752.45,-251 786.29,-251 811.71,-251"/>
<polygon fill="black" stroke="black" points="812.05,-254.5 822.05,-251 812.05,-247.5 812.05,-254.5"/>
<text text-anchor="middle" x="770.5" y="-254.8" font-family="Times,serif" font-size="14.00">(extends)</text>
</g>
<!-- Trackable -->
<g id="node14" class="node">
<title>Trackable</title>
<polygon fill="#ffb347" stroke="black" points="885,-215 814,-215 814,-179 885,-179 885,-215"/>
<text text-anchor="middle" x="849.5" y="-193.3" font-family="Times,serif" font-size="14.00">Trackable</text>
</g>
<!-- GameEntity&#45;&gt;Trackable -->
<g id="edge25" class="edge">
<title>GameEntity&#45;&gt;Trackable</title>
<path fill="none" stroke="black" stroke-dasharray="5,2" d="M726.21,-237.51C749.91,-229.66 779.82,-219.75 804.12,-211.7"/>
<polygon fill="black" stroke="black" points="805.43,-214.96 813.82,-208.49 803.22,-208.31 805.43,-214.96"/>
<text text-anchor="middle" x="770.5" y="-233.8" font-family="Times,serif" font-size="14.00">(extends)</text>
</g>
<!-- Identifiable&#45;&gt;string -->
<g id="edge38" class="edge">
<title>Identifiable&#45;&gt;string</title>
<path fill="none" stroke="black" d="M1051.24,-142.28C1078.56,-134.01 1114.91,-123.01 1141.62,-114.93"/>
<polygon fill="black" stroke="black" points="1142.8,-118.23 1151.36,-111.99 1140.77,-111.53 1142.8,-118.23"/>
<text text-anchor="middle" x="1097" y="-140.8" font-family="Times,serif" font-size="14.00">name</text>
</g>
<!-- NPC&#45;&gt;Creature -->
<g id="edge7" class="edge">
<title>NPC&#45;&gt;Creature</title>
<path fill="none" stroke="black" stroke-dasharray="5,2" d="M186.31,-165.09C211.74,-191.67 259.29,-241.38 288.2,-271.6"/>
<polygon fill="black" stroke="black" points="285.69,-274.04 295.13,-278.84 290.75,-269.2 285.69,-274.04"/>
<text text-anchor="middle" x="238.5" y="-247.8" font-family="Times,serif" font-size="14.00">(extends)</text>
</g>
<!-- boolean -->
<g id="node16" class="node">
<title>boolean</title>
<ellipse fill="#ffffe0" stroke="black" cx="1011.5" cy="-316" rx="38.19" ry="18"/>
<text text-anchor="middle" x="1011.5" y="-312.3" font-family="Times,serif" font-size="14.00">boolean</text>
</g>
<!-- NPC&#45;&gt;boolean -->
<g id="edge6" class="edge">
<title>NPC&#45;&gt;boolean</title>
<path fill="none" stroke="black" d="M195.03,-132C223.08,-117.27 269.5,-97 312.5,-97 312.5,-97 312.5,-97 771.5,-97 822.65,-97 847.65,-81.06 885,-116 910.35,-139.71 883.37,-163.37 903,-192 918.54,-214.67 934.91,-207.22 954,-227 971.94,-245.59 987.27,-270.74 997.42,-289.56"/>
<polygon fill="black" stroke="black" points="994.36,-291.27 1002.11,-298.5 1000.56,-288.01 994.36,-291.27"/>
<text text-anchor="middle" x="592" y="-100.8" font-family="Times,serif" font-size="14.00">quest_giver</text>
</g>
<!-- NPC&#45;&gt;string -->
<g id="edge5" class="edge">
<title>NPC&#45;&gt;string</title>
<path fill="none" stroke="black" d="M184.1,-128.63C208.19,-101.52 258.17,-54 312.5,-54 312.5,-54 312.5,-54 929.5,-54 1006.66,-54 1094.71,-77.5 1142.44,-92.28"/>
<polygon fill="black" stroke="black" points="1141.41,-95.63 1152,-95.29 1143.51,-88.95 1141.41,-95.63"/>
<text text-anchor="middle" x="684.5" y="-57.8" font-family="Times,serif" font-size="14.00">greeting</text>
</g>
<!-- Physical -->
<g id="node10" class="node">
<title>Physical</title>
<polygon fill="#ffb347" stroke="black" points="880.5,-377 818.5,-377 818.5,-341 880.5,-341 880.5,-377"/>
<text text-anchor="middle" x="849.5" y="-355.3" font-family="Times,serif" font-size="14.00">Physical</text>
</g>
<!-- Physical&#45;&gt;Positioned -->
<g id="edge29" class="edge">
<title>Physical&#45;&gt;Positioned</title>
<path fill="none" stroke="black" stroke-dasharray="5,2" d="M880.94,-356.3C901.61,-354.99 929.54,-354.22 954,-357 957.4,-357.39 960.9,-357.9 964.41,-358.5"/>
<polygon fill="black" stroke="black" points="963.76,-361.94 974.24,-360.39 965.08,-355.06 963.76,-361.94"/>
<text text-anchor="middle" x="928.5" y="-360.8" font-family="Times,serif" font-size="14.00">(extends)</text>
</g>
<!-- Physical&#45;&gt;boolean -->
<g id="edge28" class="edge">
<title>Physical&#45;&gt;boolean</title>
<path fill="none" stroke="black" d="M880.59,-344.41C887.81,-341.31 895.58,-338.28 903,-336 922.69,-329.94 945,-325.43 964.17,-322.24"/>
<polygon fill="black" stroke="black" points="964.84,-325.67 974.17,-320.64 963.74,-318.76 964.84,-325.67"/>
<text text-anchor="middle" x="928.5" y="-339.8" font-family="Times,serif" font-size="14.00">solid</text>
</g>
<!-- Physical&#45;&gt;float32 -->
<g id="edge26" class="edge">
<title>Physical&#45;&gt;float32</title>
<path fill="none" stroke="black" d="M867.8,-377.01C881.36,-390.91 898.63,-408.1 903,-410 979.05,-443.14 1078.38,-437.75 1134.39,-430.87"/>
<polygon fill="black" stroke="black" points="1134.86,-434.33 1144.33,-429.57 1133.96,-427.39 1134.86,-434.33"/>
<text text-anchor="middle" x="1011.5" y="-439.8" font-family="Times,serif" font-size="14.00">width</text>
</g>
<!-- Physical&#45;&gt;float32 -->
<g id="edge27" class="edge">
<title>Physical&#45;&gt;float32</title>
<path fill="none" stroke="black" d="M869.9,-377.12C875.16,-382.57 880.61,-388.77 885,-395 895.3,-409.62 889.41,-419.37 903,-431 927.45,-451.93 940.19,-448.05 972,-453 1039.24,-463.46 1059,-463.58 1125,-447 1131.23,-445.44 1137.66,-443.2 1143.8,-440.74"/>
<polygon fill="black" stroke="black" points="1145.31,-443.9 1153.12,-436.74 1142.55,-437.47 1145.31,-443.9"/>
<text text-anchor="middle" x="1011.5" y="-463.8" font-family="Times,serif" font-size="14.00">height</text>
</g>
<!-- Positioned&#45;&gt;float32 -->
<g id="edge35" class="edge">
<title>Positioned&#45;&gt;float32</title>
<path fill="none" stroke="black" d="M1048.65,-356.12C1071.59,-349.6 1101.3,-345.49 1125,-357 1142.43,-365.46 1155.82,-382.77 1164.75,-397.68"/>
<polygon fill="black" stroke="black" points="1161.78,-399.55 1169.73,-406.55 1167.88,-396.12 1161.78,-399.55"/>
<text text-anchor="middle" x="1097" y="-360.8" font-family="Times,serif" font-size="14.00">x</text>
</g>
<!-- Positioned&#45;&gt;float32 -->
<g id="edge36" class="edge">
<title>Positioned&#45;&gt;float32</title>
<path fill="none" stroke="black" d="M1048.72,-375.35C1071.15,-379.32 1100.29,-385.68 1125,-395 1132.26,-397.74 1139.75,-401.33 1146.72,-405.04"/>
<polygon fill="black" stroke="black" points="1145.39,-408.31 1155.83,-410.12 1148.8,-402.2 1145.39,-408.31"/>
<text text-anchor="middle" x="1097" y="-398.8" font-family="Times,serif" font-size="14.00">y</text>
</g>
<!-- Renderable -->
<g id="node12" class="node">
<title>Renderable</title>
<polygon fill="#ffb347" stroke="black" points="723.5,-323 645.5,-323 645.5,-287 723.5,-287 723.5,-323"/>
<text text-anchor="middle" x="684.5" y="-301.3" font-family="Times,serif" font-size="14.00">Renderable</text>
</g>
<!-- Renderable&#45;&gt;string -->
<g id="edge22" class="edge">
<title>Renderable&#45;&gt;string</title>
<path fill="none" stroke="black" d="M723.66,-301.53C764.03,-297.46 829.43,-289.75 885,-278 1002.07,-253.25 1030.33,-229.18 1125,-156 1136.08,-147.44 1147.28,-136.75 1156.49,-127.3"/>
<polygon fill="black" stroke="black" points="1159.04,-129.69 1163.41,-120.04 1153.97,-124.86 1159.04,-129.69"/>
<text text-anchor="middle" x="928.5" y="-277.8" font-family="Times,serif" font-size="14.00">sprite</text>
</g>
<!-- Renderable&#45;&gt;uint8 -->
<g id="edge23" class="edge">
<title>Renderable&#45;&gt;uint8</title>
<path fill="none" stroke="black" d="M710.61,-323.02C740.65,-344.59 790.74,-380.54 821.56,-402.66"/>
<polygon fill="black" stroke="black" points="819.55,-405.53 829.71,-408.51 823.63,-399.84 819.55,-405.53"/>
<text text-anchor="middle" x="770.5" y="-387.8" font-family="Times,serif" font-size="14.00">layer</text>
</g>
<!-- Timed -->
<g id="node13" class="node">
<title>Timed</title>
<polygon fill="#ffb347" stroke="black" points="1038.5,-118 984.5,-118 984.5,-82 1038.5,-82 1038.5,-118"/>
<text text-anchor="middle" x="1011.5" y="-96.3" font-family="Times,serif" font-size="14.00">Timed</text>
</g>
<!-- uint64 -->
<g id="node22" class="node">
<title>uint64</title>
<ellipse fill="#ffffe0" stroke="black" cx="1178.75" cy="-33" rx="33.29" ry="18"/>
<text text-anchor="middle" x="1178.75" y="-29.3" font-family="Times,serif" font-size="14.00">uint64</text>
</g>
<!-- Timed&#45;&gt;uint64 -->
<g id="edge37" class="edge">
<title>Timed&#45;&gt;uint64</title>
<path fill="none" stroke="black" d="M1038.68,-89.38C1066.6,-78.06 1111,-60.06 1142.09,-47.46"/>
<polygon fill="black" stroke="black" points="1143.73,-50.57 1151.69,-43.57 1141.1,-44.08 1143.73,-50.57"/>
<text text-anchor="middle" x="1097" y="-80.8" font-family="Times,serif" font-size="14.00">created_at</text>
</g>
<!-- Trackable&#45;&gt;Identifiable -->
<g id="edge33" class="edge">
<title>Trackable&#45;&gt;Identifiable</title>
<path fill="none" stroke="black" stroke-dasharray="5,2" d="M876,-178.88C879.21,-176.09 882.3,-173.1 885,-170 895.46,-157.98 889.19,-146.95 903,-139 920.66,-128.83 942.59,-129.93 962.02,-134.59"/>
<polygon fill="black" stroke="black" points="961.35,-138.04 971.92,-137.32 963.21,-131.29 961.35,-138.04"/>
<text text-anchor="middle" x="928.5" y="-142.8" font-family="Times,serif" font-size="14.00">(extends)</text>
</g>
<!-- Trackable&#45;&gt;Timed -->
<g id="edge34" class="edge">
<title>Trackable&#45;&gt;Timed</title>
<path fill="none" stroke="black" stroke-dasharray="5,2" d="M877.36,-178.76C880.2,-176.06 882.83,-173.13 885,-170 900.14,-148.17 882.56,-129.96 903,-113 922.57,-96.76 951.48,-94.05 974.39,-95.11"/>
<polygon fill="black" stroke="black" points="974.21,-98.61 984.44,-95.83 974.71,-91.63 974.21,-98.61"/>
<text text-anchor="middle" x="928.5" y="-116.8" font-family="Times,serif" font-size="14.00">(extends)</text>
</g>
<!-- WorldObject&#45;&gt;GameEntity -->
<g id="edge17" class="edge">
<title>WorldObject&#45;&gt;GameEntity</title>
<path fill="none" stroke="black" stroke-dasharray="5,2" d="M528.12,-309.9C538,-304.07 549.28,-297.87 560,-293 583.44,-282.36 610.42,-272.89 633.17,-265.64"/>
<polygon fill="black" stroke="black" points="634.46,-268.9 642.96,-262.58 632.37,-262.22 634.46,-268.9"/>
<text text-anchor="middle" x="592" y="-296.8" font-family="Times,serif" font-size="14.00">(extends)</text>
</g>
<!-- WorldObject&#45;&gt;Physical -->
<g id="edge19" class="edge">
<title>WorldObject&#45;&gt;Physical</title>
<path fill="none" stroke="black" stroke-dasharray="5,2" d="M542.07,-335.54C548.08,-336.45 554.19,-337.31 560,-338 648.08,-348.46 751.94,-354.48 807.89,-357.21"/>
<polygon fill="black" stroke="black" points="807.94,-360.72 818.09,-357.7 808.27,-353.73 807.94,-360.72"/>
<text text-anchor="middle" x="684.5" y="-355.8" font-family="Times,serif" font-size="14.00">(extends)</text>
</g>
<!-- WorldObject&#45;&gt;Renderable -->
<g id="edge18" class="edge">
<title>WorldObject&#45;&gt;Renderable</title>
<path fill="none" stroke="black" stroke-dasharray="5,2" d="M542.18,-322.67C569.97,-319.19 606.3,-314.65 635.16,-311.04"/>
<polygon fill="black" stroke="black" points="635.94,-314.47 645.43,-309.76 635.07,-307.53 635.94,-314.47"/>
<text text-anchor="middle" x="592" y="-322.8" font-family="Times,serif" font-size="14.00">(extends)</text>
</g>
</g>
</svg>
