<?xml version="1.0" encoding="UTF-8" standalone="no"?>
<!DOCTYPE svg PUBLIC "-//W3C//DTD SVG 1.1//EN"
 "http://www.w3.org/Graphics/SVG/1.1/DTD/svg11.dtd">
<!-- Generated by graphviz version 2.43.0 (0)
 -->
<!-- Title: types Pages: 1 -->
<svg width="1194pt" height="334pt"
 viewBox="0.00 0.00 1194.49 333.57" xmlns="http://www.w3.org/2000/svg" xmlns:xlink="http://www.w3.org/1999/xlink">
<g id="graph0" class="graph" transform="scale(1 1) rotate(0) translate(4 329.57)">
<title>types</title>
<polygon fill="white" stroke="transparent" points="-4,4 -4,-329.57 1190.49,-329.57 1190.49,4 -4,4"/>
<text text-anchor="middle" x="593.25" y="-307.17" font-family="Times,serif" font-size="18.00">graph Boss showing type float32</text>
<!-- Boss -->
<g id="node1" class="node">
<title>Boss</title>
<polygon fill="#add8e6" stroke="black" stroke-width="3" points="54,-226.57 0,-226.57 0,-190.57 54,-190.57 54,-226.57"/>
<text text-anchor="middle" x="27" y="-204.87" font-family="Times,serif" font-size="14.00">Boss</text>
</g>
<!-- Combatant -->
<g id="node2" class="node">
<title>Combatant</title>
<polygon fill="#ffb347" stroke="black" points="571,-289.57 494,-289.57 494,-253.57 571,-253.57 571,-289.57"/>
<text text-anchor="middle" x="532.5" y="-267.87" font-family="Times,serif" font-size="14.00">Combatant</text>
</g>
<!-- Boss&#45;&gt;Combatant -->
<g id="edge7" class="edge">
<title>Boss&#45;&gt;Combatant</title>
<path fill="none" stroke="black" stroke-dasharray="5,2" d="M54.2,-220.88C59.98,-223.31 66.14,-225.69 72,-227.57 172.88,-259.83 199.74,-265.82 305,-277.57 345.64,-282.1 356.11,-278.35 397,-278.57 429.89,-278.75 438.17,-280.46 471,-278.57 475.16,-278.33 479.47,-278 483.78,-277.61"/>
<polygon fill="black" stroke="black" points="484.2,-281.08 493.8,-276.61 483.5,-274.12 484.2,-281.08"/>
<text text-anchor="middle" x="250" y="-278.37" font-family="Times,serif" font-size="14.00">(implements)</text>
</g>
<!-- NPC -->
<g id="node8" class="node">
<title>NPC</title>
<polygon fill="#add8e6" stroke="black" points="195,-226.57 141,-226.57 141,-190.57 195,-190.57 195,-226.57"/>
<text text-anchor="middle" x="168" y="-204.87" font-family="Times,serif" font-size="14.00">NPC</text>
</g>
<!-- Boss&#45;&gt;NPC -->
<g id="edge6" class="edge">
<title>Boss&#45;&gt;NPC</title>
<path fill="none" stroke="black" stroke-dasharray="5,2" d="M54.14,-208.57C75.79,-208.57 106.78,-208.57 130.81,-208.57"/>
<polygon fill="black" stroke="black" points="130.97,-212.07 140.97,-208.57 130.97,-205.07 130.97,-212.07"/>
<text text-anchor="middle" x="97.5" y="-212.37" font-family="Times,serif" font-size="14.00">(extends)</text>
</g>
<!-- WorldObject -->
<g id="node13" class="node">
<title>WorldObject</title>
<polygon fill="#ffb347" stroke="black" points="576,-144.57 489,-144.57 489,-108.57 576,-108.57 576,-144.57"/>
<text text-anchor="middle" x="532.5" y="-122.87" font-family="Times,serif" font-size="14.00">WorldObject</text>
</g>
<!-- Boss&#45;&gt;WorldObject -->
<g id="edge8" class="edge">
<title>Boss&#45;&gt;WorldObject</title>
<path fill="none" stroke="black" stroke-dasharray="5,2" d="M54.25,-198.79C89.75,-185.95 155.27,-163.65 213,-151.57 293.56,-134.71 314.9,-136.46 397,-130.57 423.81,-128.64 453.69,-127.64 478.47,-127.12"/>
<polygon fill="black" stroke="black" points="478.82,-130.61 488.75,-126.93 478.68,-123.62 478.82,-130.61"/>
<text text-anchor="middle" x="250" y="-155.37" font-family="Times,serif" font-size="14.00">(implements)</text>
</g>
<!-- Damageable -->
<g id="node4" class="node">
<title>Damageable</title>
<polygon fill="#ffb347" stroke="black" points="748,-297.57 663,-297.57 663,-261.57 748,-261.57 748,-297.57"/>
<text text-anchor="middle" x="705.5" y="-275.87" font-family="Times,serif" font-size="14.00">Damageable</text>
</g>
<!-- Combatant&#45;&gt;Damageable -->
<g id="edge13" class="edge">
<title>Combatant&#45;&gt;Damageable</title>
<path fill="none" stroke="black" stroke-dasharray="5,2" d="M571.03,-273.32C594.98,-274.45 626.36,-275.91 652.68,-277.14"/>
<polygon fill="black" stroke="black" points="652.71,-280.65 662.86,-277.62 653.04,-273.66 652.71,-280.65"/>
<text text-anchor="middle" x="619.5" y="-280.37" font-family="Times,serif" font-size="14.00">(extends)</text>
</g>
<!-- GameEntity -->
<g id="node6" class="node">
<title>GameEntity</title>
<polygon fill="#ffb347" stroke="black" points="747,-180.57 664,-180.57 664,-144.57 747,-144.57 747,-180.57"/>
<text text-anchor="middle" x="705.5" y="-158.87" font-family="Times,serif" font-size="14.00">GameEntity</text>
</g>
<!-- Combatant&#45;&gt;GameEntity -->
<g id="edge12" class="edge">
<title>Combatant&#45;&gt;GameEntity</title>
<path fill="none" stroke="black" stroke-dasharray="5,2" d="M562.12,-253.32C591.06,-234.88 635.91,-206.29 667.53,-186.14"/>
<polygon fill="black" stroke="black" points="669.52,-189.02 676.07,-180.69 665.76,-183.11 669.52,-189.02"/>
<text text-anchor="middle" x="619.5" y="-233.37" font-family="Times,serif" font-size="14.00">(extends)</text>
</g>
<!-- Creature -->
<g id="node3" class="node">
<title>Creature</title>
<polygon fill="#add8e6" stroke="black" points="373.5,-226.57 310.5,-226.57 310.5,-190.57 373.5,-190.57 373.5,-226.57"/>
<text text-anchor="middle" x="342" y="-204.87" font-family="Times,serif" font-size="14.00">Creature</text>
</g>
<!-- Creature&#45;&gt;Combatant -->
<g id="edge20" class="edge">
<title>Creature&#45;&gt;Combatant</title>
<path fill="none" stroke="black" stroke-dasharray="5,2" d="M373.76,-215.03C400,-220.95 438.53,-230.6 471,-242.57 476.46,-244.58 482.09,-246.92 487.63,-249.37"/>
<polygon fill="black" stroke="black" points="486.24,-252.58 496.79,-253.56 489.16,-246.22 486.24,-252.58"/>
<text text-anchor="middle" x="434" y="-246.37" font-family="Times,serif" font-size="14.00">(implements)</text>
</g>
<!-- Creature&#45;&gt;WorldObject -->
<g id="edge21" class="edge">
<title>Creature&#45;&gt;WorldObject</title>
<path fill="none" stroke="black" stroke-dasharray="5,2" d="M373.63,-190.81C381.14,-186.83 389.25,-182.82 397,-179.57 428.76,-166.25 439.03,-169.37 471,-156.57 476.58,-154.34 482.35,-151.79 488.01,-149.16"/>
<polygon fill="black" stroke="black" points="489.87,-152.15 497.38,-144.67 486.85,-145.83 489.87,-152.15"/>
<text text-anchor="middle" x="434" y="-183.37" font-family="Times,serif" font-size="14.00">(implements)</text>
</g>
<!-- float32 -->
<g id="node14" class="node">
<title>float32</title>
<ellipse fill="#ffffe0" stroke="black" cx="1150.75" cy="-78.57" rx="36" ry="18"/>
<text text-anchor="middle" x="1150.75" y="-74.87" font-family="Times,serif" font-size="14.00">float32</text>
</g>
<!-- Creature&#45;&gt;float32 -->
<g id="edge3" class="edge">
<title>Creature&#45;&gt;float32</title>
<path fill="none" stroke="black" d="M373.69,-208.57C411,-208.57 475.87,-208.57 531.5,-208.57 531.5,-208.57 531.5,-208.57 1033.5,-208.57 1088.11,-208.57 1123.48,-144.03 1139.61,-105.9"/>
<polygon fill="black" stroke="black" points="1142.95,-106.95 1143.47,-96.37 1136.47,-104.32 1142.95,-106.95"/>
<text text-anchor="middle" x="791.5" y="-212.37" font-family="Times,serif" font-size="14.00">speed</text>
</g>
<!-- Entity -->
<g id="node5" class="node">
<title>Entity</title>
<polygon fill="#ffb347" stroke="black" points="897.5,-126.57 843.5,-126.57 843.5,-90.57 897.5,-90.57 897.5,-126.57"/>
<text text-anchor="middle" x="870.5" y="-104.87" font-family="Times,serif" font-size="14.00">Entity</text>
</g>
<!-- Identifiable -->
<g id="node7" class="node">
<title>Identifiable</title>
<polygon fill="#ffb347" stroke="black" points="1072,-172.57 993,-172.57 993,-136.57 1072,-136.57 1072,-172.57"/>
<text text-anchor="middle" x="1032.5" y="-150.87" font-family="Times,serif" font-size="14.00">Identifiable</text>
</g>
<!-- Entity&#45;&gt;Identifiable -->
<g id="edge22" class="edge">
<title>Entity&#45;&gt;Identifiable</title>
<path fill="none" stroke="black" stroke-dasharray="5,2" d="M897.56,-116.06C920.69,-122.71 955.08,-132.6 983.22,-140.69"/>
<polygon fill="black" stroke="black" points="982.31,-144.07 992.89,-143.47 984.24,-137.34 982.31,-144.07"/>
<text text-anchor="middle" x="949.5" y="-140.37" font-family="Times,serif" font-size="14.00">(extends)</text>
</g>
<!-- Positioned -->
<g id="node10" class="node">
<title>Positioned</title>
<polygon fill="#ffb347" stroke="black" points="1069.5,-116.57 995.5,-116.57 995.5,-80.57 1069.5,-80.57 1069.5,-116.57"/>
<text text-anchor="middle" x="1032.5" y="-94.87" font-family="Times,serif" font-size="14.00">Positioned</text>
</g>
<!-- Entity&#45;&gt;Positioned -->
<g id="edge23" class="edge">
<title>Entity&#45;&gt;Positioned</title>
<path fill="none" stroke="black" stroke-dasharray="5,2" d="M897.56,-106.94C921.22,-105.46 956.66,-103.25 985.15,-101.47"/>
<polygon fill="black" stroke="black" points="985.53,-104.95 995.29,-100.83 985.09,-97.96 985.53,-104.95"/>
<text text-anchor="middle" x="949.5" y="-108.37" font-family="Times,serif" font-size="14.00">(extends)</text>
</g>
<!-- GameEntity&#45;&gt;Entity -->
<g id="edge18" class="edge">
<title>GameEntity&#45;&gt;Entity</title>
<path fill="none" stroke="black" stroke-dasharray="5,2" d="M747.21,-149.08C773.68,-140.31 807.89,-128.98 833.39,-120.53"/>
<polygon fill="black" stroke="black" points="834.66,-123.8 843.05,-117.33 832.46,-117.15 834.66,-123.8"/>
<text text-anchor="middle" x="791.5" y="-145.37" font-family="Times,serif" font-size="14.00">(extends)</text>
</g>
<!-- Trackable -->
<g id="node12" class="node">
<title>Trackable</title>
<polygon fill="#ffb347" stroke="black" points="906,-180.57 835,-180.57 835,-144.57 906,-144.57 906,-180.57"/>
<text text-anchor="middle" x="870.5" y="-158.87" font-family="Times,serif" font-size="14.00">Trackable</text>
</g>
<!-- GameEntity&#45;&gt;Trackable -->
<g id="edge19" class="edge">
<title>GameEntity&#45;&gt;Trackable</title>
<path fill="none" stroke="black" stroke-dasharray="5,2" d="M747.21,-162.57C770.81,-162.57 800.55,-162.57 824.8,-162.57"/>
<polygon fill="black" stroke="black" points="824.82,-166.07 834.82,-162.57 824.82,-159.07 824.82,-166.07"/>
<text text-anchor="middle" x="791.5" y="-166.37" font-family="Times,serif" font-size="14.00">(extends)</text>
</g>
<!-- NPC&#45;&gt;Combatant -->
<g id="edge10" class="edge">
<title>NPC&#45;&gt;Combatant</title>
<path fill="none" stroke="black" stroke-dasharray="5,2" d="M195.14,-221.1C200.92,-223.52 207.09,-225.84 213,-227.57 306.63,-254.96 420.86,-265.46 483.93,-269.36"/>
<polygon fill="black" stroke="black" points="483.79,-272.86 493.97,-269.96 484.2,-265.87 483.79,-272.86"/>
<text text-anchor="middle" x="342" y="-262.37" font-family="Times,serif" font-size="14.00">(implements)</text>
</g>
<!-- NPC&#45;&gt;Creature -->
<g id="edge9" class="edge">
<title>NPC&#45;&gt;Creature</title>
<path fill="none" stroke="black" stroke-dasharray="5,2" d="M195.12,-208.57C223.02,-208.57 267.61,-208.57 300.16,-208.57"/>
<polygon fill="black" stroke="black" points="300.26,-212.07 310.26,-208.57 300.26,-205.07 300.26,-212.07"/>
<text text-anchor="middle" x="250" y="-212.37" font-family="Times,serif" font-size="14.00">(extends)</text>
</g>
<!-- NPC&#45;&gt;WorldObject -->
<g id="edge11" class="edge">
<title>NPC&#45;&gt;WorldObject</title>
<path fill="none" stroke="black" stroke-dasharray="5,2" d="M195.06,-199.46C222.24,-190.21 266.21,-175.95 305,-166.57 363.82,-152.35 432.37,-140.95 478.52,-134.01"/>
<polygon fill="black" stroke="black" points="479.21,-137.45 488.59,-132.52 478.19,-130.52 479.21,-137.45"/>
<text text-anchor="middle" x="342" y="-170.37" font-family="Times,serif" font-size="14.00">(implements)</text>
</g>
<!-- Physical -->
<g id="node9" class="node">
<title>Physical</title>
<polygon fill="#ffb347" stroke="black" points="901.5,-67.57 839.5,-67.57 839.5,-31.57 901.5,-31.57 901.5,-67.57"/>
<text text-anchor="middle" x="870.5" y="-45.87" font-family="Times,serif" font-size="14.00">Physical</text>
</g>
<!-- Physical&#45;&gt;Positioned -->
<g id="edge17" class="edge">
<title>Physical&#45;&gt;Positioned</title>
<path fill="none" stroke="black" stroke-dasharray="5,2" d="M901.59,-58.79C925.3,-66.04 958.73,-76.28 985.75,-84.56"/>
<polygon fill="black" stroke="black" points="984.79,-87.92 995.38,-87.51 986.84,-81.23 984.79,-87.92"/>
<text text-anchor="middle" x="949.5" y="-84.37" font-family="Times,serif" font-size="14.00">(extends)</text>
</g>
<!-- Physical&#45;&gt;float32 -->
<g id="edge1" class="edge">
<title>Physical&#45;&gt;float32</title>
<path fill="none" stroke="black" d="M901.58,-33.16C941.57,-13.63 1013.95,13.71 1072,-8.57 1095.54,-17.6 1116.41,-37.42 1130.58,-53.67"/>
<polygon fill="black" stroke="black" points="1128.26,-56.35 1137.36,-61.77 1133.63,-51.85 1128.26,-56.35"/>
<text text-anchor="middle" x="1032.5" y="-12.37" font-family="Times,serif" font-size="14.00">width</text>
</g>
<!-- Physical&#45;&gt;float32 -->
<g id="edge2" class="edge">
<title>Physical&#45;&gt;float32</title>
<path fill="none" stroke="black" d="M901.61,-48.38C941.02,-47.33 1012.13,-47.19 1072,-56.57 1084.78,-58.57 1098.43,-61.98 1110.68,-65.53"/>
<polygon fill="black" stroke="black" points="1110,-68.98 1120.58,-68.52 1112.02,-62.28 1110,-68.98"/>
<text text-anchor="middle" x="1032.5" y="-60.37" font-family="Times,serif" font-size="14.00">height</text>
</g>
<!-- Positioned&#45;&gt;float32 -->
<g id="edge4" class="edge">
<title>Positioned&#45;&gt;float32</title>
<path fill="none" stroke="black" d="M1069.55,-84.62C1076.25,-82.55 1083.27,-80.73 1090,-79.57 1094.73,-78.75 1099.71,-78.2 1104.69,-77.84"/>
<polygon fill="black" stroke="black" points="1105,-81.33 1114.83,-77.36 1104.67,-74.34 1105,-81.33"/>
<text text-anchor="middle" x="1093.5" y="-83.37" font-family="Times,serif" font-size="14.00">x</text>
</g>
<!-- Positioned&#45;&gt;float32 -->
<g id="edge5" class="edge">
<title>Positioned&#45;&gt;float32</title>
<path fill="none" stroke="black" d="M1069.61,-97.75C1078.6,-97.14 1088.2,-96.16 1097,-94.57 1101.7,-93.72 1106.57,-92.6 1111.36,-91.33"/>
<polygon fill="black" stroke="black" points="1112.36,-94.69 1121.02,-88.6 1110.45,-87.95 1112.36,-94.69"/>
<text text-anchor="middle" x="1093.5" y="-99.37" font-family="Times,serif" font-size="14.00">y</text>
</g>
<!-- Renderable -->
<g id="node11" class="node">
<title>Renderable</title>
<polygon fill="#ffb347" stroke="black" points="744.5,-126.57 666.5,-126.57 666.5,-90.57 744.5,-90.57 744.5,-126.57"/>
<text text-anchor="middle" x="705.5" y="-104.87" font-family="Times,serif" font-size="14.00">Renderable</text>
</g>
<!-- WorldObject&#45;&gt;GameEntity -->
<g id="edge14" class="edge">
<title>WorldObject&#45;&gt;GameEntity</title>
<path fill="none" stroke="black" stroke-dasharray="5,2" d="M576.21,-135.56C599.77,-140.52 629.18,-146.71 653.89,-151.91"/>
<polygon fill="black" stroke="black" points="653.3,-155.37 663.81,-154 654.74,-148.52 653.3,-155.37"/>
<text text-anchor="middle" x="619.5" y="-153.37" font-family="Times,serif" font-size="14.00">(extends)</text>
</g>
<!-- WorldObject&#45;&gt;Physical -->
<g id="edge16" class="edge">
<title>WorldObject&#45;&gt;Physical</title>
<path fill="none" stroke="black" stroke-dasharray="5,2" d="M564.27,-108.54C589.8,-94.52 627.54,-75.93 663,-66.57 719.27,-51.72 786.9,-48.85 829.05,-48.75"/>
<polygon fill="black" stroke="black" points="829.18,-52.25 839.19,-48.78 829.2,-45.25 829.18,-52.25"/>
<text text-anchor="middle" x="705.5" y="-70.37" font-family="Times,serif" font-size="14.00">(extends)</text>
</g>
<!-- WorldObject&#45;&gt;Renderable -->
<g id="edge15" class="edge">
<title>WorldObject&#45;&gt;Renderable</title>
<path fill="none" stroke="black" stroke-dasharray="5,2" d="M576.09,-119.87C582.1,-119.03 588.2,-118.24 594,-117.57 614.34,-115.23 636.86,-113.28 656.23,-111.8"/>
<polygon fill="black" stroke="black" points="656.63,-115.28 666.34,-111.05 656.11,-108.3 656.63,-115.28"/>
<text text-anchor="middle" x="619.5" y="-121.37" font-family="Times,serif" font-size="14.00">(extends)</text>
</g>
</g>
</svg>
