<?xml version="1.0" encoding="UTF-8" standalone="no"?>
<!DOCTYPE svg PUBLIC "-//W3C//DTD SVG 1.1//EN"
 "http://www.w3.org/Graphics/SVG/1.1/DTD/svg11.dtd">
<!-- Generated by graphviz version 2.43.0 (0)
 -->
<!-- Title: types Pages: 1 -->
<svg width="592pt" height="305pt"
 viewBox="0.00 0.00 592.00 305.00" xmlns="http://www.w3.org/2000/svg" xmlns:xlink="http://www.w3.org/1999/xlink">
<g id="graph0" class="graph" transform="scale(1 1) rotate(0) translate(4 301)">
<title>types</title>
<polygon fill="white" stroke="transparent" points="-4,4 -4,-301 588,-301 588,4 -4,4"/>
<text text-anchor="middle" x="292" y="-278.6" font-family="Times,serif" font-size="18.00">graph Boss depth 1 showing kind Interface</text>
<!-- Boss -->
<g id="node1" class="node">
<title>Boss</title>
<polygon fill="#add8e6" stroke="black" stroke-width="3" points="54,-154 0,-154 0,-118 54,-118 54,-154"/>
<text text-anchor="middle" x="27" y="-132.3" font-family="Times,serif" font-size="14.00">Boss</text>
</g>
<!-- Combatant -->
<g id="node2" class="node">
<title>Combatant</title>
<polygon fill="#ffb347" stroke="black" points="407,-211 330,-211 330,-175 407,-175 407,-211"/>
<text text-anchor="middle" x="368.5" y="-189.3" font-family="Times,serif" font-size="14.00">Combatant</text>
</g>
<!-- Boss&#45;&gt;Combatant -->
<g id="edge9" class="edge">
<title>Boss&#45;&gt;Combatant</title>
<path fill="none" stroke="black" stroke-dasharray="5,2" d="M54.21,-148.3C59.99,-150.73 66.14,-153.12 72,-155 141.72,-177.4 160.28,-181.37 233,-190 261.64,-193.4 293.95,-194.22 319.72,-194.15"/>
<polygon fill="black" stroke="black" points="319.99,-197.65 329.97,-194.08 319.95,-190.65 319.99,-197.65"/>
<text text-anchor="middle" x="178" y="-190.8" font-family="Times,serif" font-size="14.00">(implements)</text>
</g>
<!-- NPC -->
<g id="node6" class="node">
<title>NPC</title>
<polygon fill="#add8e6" stroke="black" points="205,-154 151,-154 151,-118 205,-118 205,-154"/>
<text text-anchor="middle" x="178" y="-132.3" font-family="Times,serif" font-size="14.00">NPC</text>
</g>
<!-- Boss&#45;&gt;NPC -->
<g id="edge8" class="edge">
<title>Boss&#45;&gt;NPC</title>
<path fill="none" stroke="black" stroke-dasharray="5,2" d="M54.3,-136C78.34,-136 114.12,-136 140.85,-136"/>
<polygon fill="black" stroke="black" points="140.97,-139.5 150.97,-136 140.97,-132.5 140.97,-139.5"/>
<text text-anchor="middle" x="97.5" y="-139.8" font-family="Times,serif" font-size="14.00">(extends)</text>
</g>
<!-- WorldObject -->
<g id="node9" class="node">
<title>WorldObject</title>
<polygon fill="#ffb347" stroke="black" points="412,-90 325,-90 325,-54 412,-54 412,-90"/>
<text text-anchor="middle" x="368.5" y="-68.3" font-family="Times,serif" font-size="14.00">WorldObject</text>
</g>
<!-- Boss&#45;&gt;WorldObject -->
<g id="edge10" class="edge">
<title>Boss&#45;&gt;WorldObject</title>
<path fill="none" stroke="black" stroke-dasharray="5,2" d="M54.34,-123.98C76.87,-114.25 110.41,-101.05 141,-94 199.52,-80.52 268.4,-75.29 314.71,-73.27"/>
<polygon fill="black" stroke="black" points="314.96,-76.76 324.81,-72.86 314.68,-69.77 314.96,-76.76"/>
<text text-anchor="middle" x="178" y="-97.8" font-family="Times,serif" font-size="14.00">(implements)</text>
</g>
<!-- Damageable -->
<g id="node4" class="node">
<title>Damageable</title>
<polygon fill="#ffb347" stroke="black" points="584,-204 499,-204 499,-168 584,-168 584,-204"/>
<text text-anchor="middle" x="541.5" y="-182.3" font-family="Times,serif" font-size="14.00">Damageable</text>
</g>
<!-- Combatant&#45;&gt;Damageable -->
<g id="edge4" class="edge">
<title>Combatant&#45;&gt;Damageable</title>
<path fill="none" stroke="black" stroke-dasharray="5,2" d="M407.22,-188.73C414.76,-188.03 422.62,-187.4 430,-187 449.15,-185.97 470.2,-185.59 488.74,-185.51"/>
<polygon fill="black" stroke="black" points="488.76,-189.01 498.76,-185.49 488.75,-182.01 488.76,-189.01"/>
<text text-anchor="middle" x="455.5" y="-190.8" font-family="Times,serif" font-size="14.00">(extends)</text>
</g>
<!-- GameEntity -->
<g id="node5" class="node">
<title>GameEntity</title>
<polygon fill="#ffb347" stroke="black" points="583,-147 500,-147 500,-111 583,-111 583,-147"/>
<text text-anchor="middle" x="541.5" y="-125.3" font-family="Times,serif" font-size="14.00">GameEntity</text>
</g>
<!-- Combatant&#45;&gt;GameEntity -->
<g id="edge3" class="edge">
<title>Combatant&#45;&gt;GameEntity</title>
<path fill="none" stroke="black" stroke-dasharray="5,2" d="M407.02,-175.58C414.57,-172.27 422.5,-168.92 430,-166 449.42,-158.43 471.11,-150.96 490.1,-144.74"/>
<polygon fill="black" stroke="black" points="491.32,-148.02 499.75,-141.6 489.16,-141.36 491.32,-148.02"/>
<text text-anchor="middle" x="455.5" y="-169.8" font-family="Times,serif" font-size="14.00">(extends)</text>
</g>
<!-- uint16 -->
<g id="node10" class="node">
<title>uint16</title>
<ellipse fill="#ffffe0" stroke="black" cx="541.5" cy="-251" rx="33.29" ry="18"/>
<text text-anchor="middle" x="541.5" y="-247.3" font-family="Times,serif" font-size="14.00">uint16</text>
</g>
<!-- Combatant&#45;&gt;uint16 -->
<g id="edge1" class="edge">
<title>Combatant&#45;&gt;uint16</title>
<path fill="none" stroke="black" d="M387.11,-211.05C398.36,-221.38 413.82,-233.54 430,-240 451.54,-248.6 477.24,-251.55 498.43,-252.25"/>
<polygon fill="black" stroke="black" points="498.37,-255.75 508.44,-252.44 498.5,-248.75 498.37,-255.75"/>
<text text-anchor="middle" x="455.5" y="-254.8" font-family="Times,serif" font-size="14.00">attack</text>
</g>
<!-- Combatant&#45;&gt;uint16 -->
<g id="edge2" class="edge">
<title>Combatant&#45;&gt;uint16</title>
<path fill="none" stroke="black" d="M407.04,-200.26C428.97,-205.03 456.97,-212.05 481,-221 490.24,-224.44 499.91,-228.91 508.72,-233.35"/>
<polygon fill="black" stroke="black" points="507.37,-236.6 517.86,-238.1 510.6,-230.38 507.37,-236.6"/>
<text text-anchor="middle" x="455.5" y="-224.8" font-family="Times,serif" font-size="14.00">defense</text>
</g>
<!-- Creature -->
<g id="node3" class="node">
<title>Creature</title>
<polygon fill="#add8e6" stroke="black" points="400,-154 337,-154 337,-118 400,-118 400,-154"/>
<text text-anchor="middle" x="368.5" y="-132.3" font-family="Times,serif" font-size="14.00">Creature</text>
</g>
<!-- NPC&#45;&gt;Combatant -->
<g id="edge12" class="edge">
<title>NPC&#45;&gt;Combatant</title>
<path fill="none" stroke="black" stroke-dasharray="5,2" d="M205.21,-143.93C234.8,-152.87 283.55,-167.61 319.91,-178.61"/>
<polygon fill="black" stroke="black" points="319.22,-182.06 329.81,-181.6 321.25,-175.36 319.22,-182.06"/>
<text text-anchor="middle" x="270" y="-177.8" font-family="Times,serif" font-size="14.00">(implements)</text>
</g>
<!-- NPC&#45;&gt;Creature -->
<g id="edge11" class="edge">
<title>NPC&#45;&gt;Creature</title>
<path fill="none" stroke="black" stroke-dasharray="5,2" d="M205.21,-136C236.61,-136 289.57,-136 326.42,-136"/>
<polygon fill="black" stroke="black" points="326.83,-139.5 336.83,-136 326.83,-132.5 326.83,-139.5"/>
<text text-anchor="middle" x="270" y="-139.8" font-family="Times,serif" font-size="14.00">(extends)</text>
</g>
<!-- NPC&#45;&gt;WorldObject -->
<g id="edge13" class="edge">
<title>NPC&#45;&gt;WorldObject</title>
<path fill="none" stroke="black" stroke-dasharray="5,2" d="M205.06,-126.74C213.92,-123.61 223.88,-120.13 233,-117 260.04,-107.72 290.21,-97.6 315.12,-89.32"/>
<polygon fill="black" stroke="black" points="316.35,-92.59 324.74,-86.12 314.14,-85.95 316.35,-92.59"/>
<text text-anchor="middle" x="270" y="-120.8" font-family="Times,serif" font-size="14.00">(implements)</text>
</g>
<!-- Physical -->
<g id="node7" class="node">
<title>Physical</title>
<polygon fill="#ffb347" stroke="black" points="572.5,-90 510.5,-90 510.5,-54 572.5,-54 572.5,-90"/>
<text text-anchor="middle" x="541.5" y="-68.3" font-family="Times,serif" font-size="14.00">Physical</text>
</g>
<!-- Renderable -->
<g id="node8" class="node">
<title>Renderable</title>
<polygon fill="#ffb347" stroke="black" points="580.5,-36 502.5,-36 502.5,0 580.5,0 580.5,-36"/>
<text text-anchor="middle" x="541.5" y="-14.3" font-family="Times,serif" font-size="14.00">Renderable</text>
</g>
<!-- WorldObject&#45;&gt;GameEntity -->
<g id="edge5" class="edge">
<title>WorldObject&#45;&gt;GameEntity</title>
<path fill="none" stroke="black" stroke-dasharray="5,2" d="M412.21,-86.24C435.88,-94.13 465.44,-103.98 490.22,-112.24"/>
<polygon fill="black" stroke="black" points="489.21,-115.59 499.81,-115.44 491.43,-108.95 489.21,-115.59"/>
<text text-anchor="middle" x="455.5" y="-111.8" font-family="Times,serif" font-size="14.00">(extends)</text>
</g>
<!-- WorldObject&#45;&gt;Physical -->
<g id="edge7" class="edge">
<title>WorldObject&#45;&gt;Physical</title>
<path fill="none" stroke="black" stroke-dasharray="5,2" d="M412.21,-72C439.19,-72 473.84,-72 500.33,-72"/>
<polygon fill="black" stroke="black" points="500.41,-75.5 510.41,-72 500.41,-68.5 500.41,-75.5"/>
<text text-anchor="middle" x="455.5" y="-75.8" font-family="Times,serif" font-size="14.00">(extends)</text>
</g>
<!-- WorldObject&#45;&gt;Renderable -->
<g id="edge6" class="edge">
<title>WorldObject&#45;&gt;Renderable</title>
<path fill="none" stroke="black" stroke-dasharray="5,2" d="M412.21,-58.51C436.66,-50.79 467.41,-41.08 492.67,-33.1"/>
<polygon fill="black" stroke="black" points="493.93,-36.38 502.41,-30.03 491.82,-29.7 493.93,-36.38"/>
<text text-anchor="middle" x="455.5" y="-54.8" font-family="Times,serif" font-size="14.00">(extends)</text>
</g>
</g>
</svg>
