<?xml version="1.0" encoding="UTF-8" standalone="no"?>
<!DOCTYPE svg PUBLIC "-//W3C//DTD SVG 1.1//EN"
 "http://www.w3.org/Graphics/SVG/1.1/DTD/svg11.dtd">
<!-- Generated by graphviz version 2.43.0 (0)
 -->
<!-- Title: types Pages: 1 -->
<svg width="1396pt" height="532pt"
 viewBox="0.00 0.00 1395.89 532.00" xmlns="http://www.w3.org/2000/svg" xmlns:xlink="http://www.w3.org/1999/xlink">
<g id="graph0" class="graph" transform="scale(1 1) rotate(0) translate(4 528)">
<title>types</title>
<polygon fill="white" stroke="transparent" points="-4,4 -4,-528 1391.89,-528 1391.89,4 -4,4"/>
<text text-anchor="middle" x="693.94" y="-505.6" font-family="Times,serif" font-size="18.00">graph excluding type uint8, uint16, uint32, uint64, float32, int16, boolean</text>
<!-- Armor -->
<g id="node1" class="node">
<title>Armor</title>
<polygon fill="#add8e6" stroke="black" points="242,-229 188,-229 188,-193 242,-193 242,-229"/>
<text text-anchor="middle" x="215" y="-207.3" font-family="Times,serif" font-size="14.00">Armor</text>
</g>
<!-- Item -->
<g id="node11" class="node">
<title>Item</title>
<polygon fill="#add8e6" stroke="black" points="391.5,-156 337.5,-156 337.5,-120 391.5,-120 391.5,-156"/>
<text text-anchor="middle" x="364.5" y="-134.3" font-family="Times,serif" font-size="14.00">Item</text>
</g>
<!-- Armor&#45;&gt;Item -->
<g id="edge24" class="edge">
<title>Armor&#45;&gt;Item</title>
<path fill="none" stroke="black" stroke-dasharray="5,2" d="M242.03,-198.12C265.9,-186.31 301.44,-168.71 327.93,-155.61"/>
<polygon fill="black" stroke="black" points="329.82,-158.57 337.23,-151 326.72,-152.3 329.82,-158.57"/>
<text text-anchor="middle" x="289.5" y="-188.8" font-family="Times,serif" font-size="14.00">(extends)</text>
</g>
<!-- string -->
<g id="node25" class="node">
<title>string</title>
<ellipse fill="#ffffe0" stroke="black" cx="1225.55" cy="-318" rx="30.59" ry="18"/>
<text text-anchor="middle" x="1225.55" y="-314.3" font-family="Times,serif" font-size="14.00">string</text>
</g>
<!-- Armor&#45;&gt;string -->
<g id="edge23" class="edge">
<title>Armor&#45;&gt;string</title>
<path fill="none" stroke="black" d="M242.34,-214.85C305.78,-224.12 472.08,-248.35 611,-268 684.75,-278.43 703.28,-280.4 777,-291 827.71,-298.29 840.17,-301.64 891,-308 961.04,-316.76 978.51,-320.44 1049,-324 1095.71,-326.36 1149.45,-323.74 1185.04,-321.26"/>
<polygon fill="black" stroke="black" points="1185.31,-324.75 1195.03,-320.53 1184.8,-317.77 1185.31,-324.75"/>
<text text-anchor="middle" x="734.5" y="-294.8" font-family="Times,serif" font-size="14.00">slot</text>
</g>
<!-- Boss -->
<g id="node2" class="node">
<title>Boss</title>
<polygon fill="#add8e6" stroke="black" points="75.5,-492 21.5,-492 21.5,-456 75.5,-456 75.5,-492"/>
<text text-anchor="middle" x="48.5" y="-470.3" font-family="Times,serif" font-size="14.00">Boss</text>
</g>
<!-- NPC -->
<g id="node14" class="node">
<title>NPC</title>
<polygon fill="#add8e6" stroke="black" points="242,-420 188,-420 188,-384 242,-384 242,-420"/>
<text text-anchor="middle" x="215" y="-398.3" font-family="Times,serif" font-size="14.00">NPC</text>
</g>
<!-- Boss&#45;&gt;NPC -->
<g id="edge32" class="edge">
<title>Boss&#45;&gt;NPC</title>
<path fill="none" stroke="black" stroke-dasharray="5,2" d="M75.57,-462.59C103.28,-450.46 147.29,-431.2 178.23,-417.65"/>
<polygon fill="black" stroke="black" points="180.03,-420.69 187.78,-413.47 177.22,-414.28 180.03,-420.69"/>
<text text-anchor="middle" x="140.5" y="-447.8" font-family="Times,serif" font-size="14.00">(extends)</text>
</g>
<!-- Boss&#45;&gt;string -->
<g id="edge31" class="edge">
<title>Boss&#45;&gt;string</title>
<path fill="none" stroke="black" d="M75.7,-475.8C108.14,-477.88 165.12,-481 214,-481 214,-481 214,-481 1089.5,-481 1159.03,-481 1199.55,-391.98 1215.96,-345.51"/>
<polygon fill="black" stroke="black" points="1219.37,-346.35 1219.27,-335.75 1212.74,-344.1 1219.37,-346.35"/>
<text text-anchor="middle" x="642.5" y="-484.8" font-family="Times,serif" font-size="14.00">title</text>
</g>
<!-- Combatant -->
<g id="node3" class="node">
<title>Combatant</title>
<polygon fill="#ffb347" stroke="black" points="588,-316 511,-316 511,-280 588,-280 588,-316"/>
<text text-anchor="middle" x="549.5" y="-294.3" font-family="Times,serif" font-size="14.00">Combatant</text>
</g>
<!-- Damageable -->
<g id="node5" class="node">
<title>Damageable</title>
<polygon fill="#ffb347" stroke="black" points="777,-351 692,-351 692,-315 777,-315 777,-351"/>
<text text-anchor="middle" x="734.5" y="-329.3" font-family="Times,serif" font-size="14.00">Damageable</text>
</g>
<!-- Combatant&#45;&gt;Damageable -->
<g id="edge15" class="edge">
<title>Combatant&#45;&gt;Damageable</title>
<path fill="none" stroke="black" stroke-dasharray="5,2" d="M588.42,-305.25C615.39,-310.41 651.95,-317.4 681.62,-323.08"/>
<polygon fill="black" stroke="black" points="681.32,-326.58 691.8,-325.03 682.64,-319.71 681.32,-326.58"/>
<text text-anchor="middle" x="642.5" y="-323.8" font-family="Times,serif" font-size="14.00">(extends)</text>
</g>
<!-- GameEntity -->
<g id="node9" class="node">
<title>GameEntity</title>
<polygon fill="#ffb347" stroke="black" points="776,-245 693,-245 693,-209 776,-209 776,-245"/>
<text text-anchor="middle" x="734.5" y="-223.3" font-family="Times,serif" font-size="14.00">GameEntity</text>
</g>
<!-- Combatant&#45;&gt;GameEntity -->
<g id="edge14" class="edge">
<title>Combatant&#45;&gt;GameEntity</title>
<path fill="none" stroke="black" stroke-dasharray="5,2" d="M588.42,-283.29C615.91,-272.62 653.36,-258.09 683.33,-246.47"/>
<polygon fill="black" stroke="black" points="684.71,-249.68 692.77,-242.8 682.18,-243.16 684.71,-249.68"/>
<text text-anchor="middle" x="642.5" y="-276.8" font-family="Times,serif" font-size="14.00">(extends)</text>
</g>
<!-- Creature -->
<g id="node4" class="node">
<title>Creature</title>
<polygon fill="#add8e6" stroke="black" points="396,-348 333,-348 333,-312 396,-312 396,-348"/>
<text text-anchor="middle" x="364.5" y="-326.3" font-family="Times,serif" font-size="14.00">Creature</text>
</g>
<!-- Creature&#45;&gt;Combatant -->
<g id="edge18" class="edge">
<title>Creature&#45;&gt;Combatant</title>
<path fill="none" stroke="black" stroke-dasharray="5,2" d="M396.12,-320.42C402.01,-318.79 408.17,-317.22 414,-316 442.47,-310.02 474.77,-305.62 500.58,-302.67"/>
<polygon fill="black" stroke="black" points="501.3,-306.11 510.85,-301.53 500.53,-299.15 501.3,-306.11"/>
<text text-anchor="middle" x="451" y="-319.8" font-family="Times,serif" font-size="14.00">(implements)</text>
</g>
<!-- Faction -->
<g id="node8" class="node">
<title>Faction</title>
<polygon fill="#90ee90" stroke="black" points="578,-370 521,-370 521,-334 578,-334 578,-370"/>
<text text-anchor="middle" x="549.5" y="-348.3" font-family="Times,serif" font-size="14.00">Faction</text>
</g>
<!-- Creature&#45;&gt;Faction -->
<g id="edge17" class="edge">
<title>Creature&#45;&gt;Faction</title>
<path fill="none" stroke="black" d="M396.13,-333.68C427.67,-337.47 476.86,-343.39 510.77,-347.46"/>
<polygon fill="black" stroke="black" points="510.42,-350.95 520.77,-348.67 511.26,-344 510.42,-350.95"/>
<text text-anchor="middle" x="451" y="-347.8" font-family="Times,serif" font-size="14.00">faction</text>
</g>
<!-- WorldObject -->
<g id="node23" class="node">
<title>WorldObject</title>
<polygon fill="#ffb347" stroke="black" points="593,-198 506,-198 506,-162 593,-162 593,-198"/>
<text text-anchor="middle" x="549.5" y="-176.3" font-family="Times,serif" font-size="14.00">WorldObject</text>
</g>
<!-- Creature&#45;&gt;WorldObject -->
<g id="edge19" class="edge">
<title>Creature&#45;&gt;WorldObject</title>
<path fill="none" stroke="black" stroke-dasharray="5,2" d="M384.51,-311.66C393.32,-303.34 404.03,-293.49 414,-285 447.72,-256.28 487.94,-225.29 515.56,-204.48"/>
<polygon fill="black" stroke="black" points="517.81,-207.16 523.7,-198.36 513.61,-201.56 517.81,-207.16"/>
<text text-anchor="middle" x="451" y="-288.8" font-family="Times,serif" font-size="14.00">(implements)</text>
</g>
<!-- Element -->
<g id="node6" class="node">
<title>Element</title>
<polygon fill="#90ee90" stroke="black" points="395.5,-64 333.5,-64 333.5,-28 395.5,-28 395.5,-64"/>
<text text-anchor="middle" x="364.5" y="-42.3" font-family="Times,serif" font-size="14.00">Element</text>
</g>
<!-- Entity -->
<g id="node7" class="node">
<title>Entity</title>
<polygon fill="#ffb347" stroke="black" points="953.5,-245 899.5,-245 899.5,-209 953.5,-209 953.5,-245"/>
<text text-anchor="middle" x="926.5" y="-223.3" font-family="Times,serif" font-size="14.00">Entity</text>
</g>
<!-- Identifiable -->
<g id="node10" class="node">
<title>Identifiable</title>
<polygon fill="#ffb347" stroke="black" points="1128,-261 1049,-261 1049,-225 1128,-225 1128,-261"/>
<text text-anchor="middle" x="1088.5" y="-239.3" font-family="Times,serif" font-size="14.00">Identifiable</text>
</g>
<!-- Entity&#45;&gt;Identifiable -->
<g id="edge4" class="edge">
<title>Entity&#45;&gt;Identifiable</title>
<path fill="none" stroke="black" stroke-dasharray="5,2" d="M953.56,-229.61C976.59,-231.91 1010.78,-235.33 1038.85,-238.14"/>
<polygon fill="black" stroke="black" points="1038.59,-241.63 1048.89,-239.14 1039.28,-234.66 1038.59,-241.63"/>
<text text-anchor="middle" x="1005.5" y="-239.8" font-family="Times,serif" font-size="14.00">(extends)</text>
</g>
<!-- Positioned -->
<g id="node17" class="node">
<title>Positioned</title>
<polygon fill="#ffb347" stroke="black" points="1125.5,-197 1051.5,-197 1051.5,-161 1125.5,-161 1125.5,-197"/>
<text text-anchor="middle" x="1088.5" y="-175.3" font-family="Times,serif" font-size="14.00">Positioned</text>
</g>
<!-- Entity&#45;&gt;Positioned -->
<g id="edge5" class="edge">
<title>Entity&#45;&gt;Positioned</title>
<path fill="none" stroke="black" stroke-dasharray="5,2" d="M953.56,-219.18C977.33,-212.05 1012.97,-201.36 1041.52,-192.79"/>
<polygon fill="black" stroke="black" points="1042.72,-196.09 1051.29,-189.86 1040.71,-189.38 1042.72,-196.09"/>
<text text-anchor="middle" x="1005.5" y="-213.8" font-family="Times,serif" font-size="14.00">(extends)</text>
</g>
<!-- GameEntity&#45;&gt;Entity -->
<g id="edge9" class="edge">
<title>GameEntity&#45;&gt;Entity</title>
<path fill="none" stroke="black" stroke-dasharray="5,2" d="M776.26,-227C809.76,-227 856.8,-227 889.07,-227"/>
<polygon fill="black" stroke="black" points="889.4,-230.5 899.4,-227 889.4,-223.5 889.4,-230.5"/>
<text text-anchor="middle" x="834" y="-230.8" font-family="Times,serif" font-size="14.00">(extends)</text>
</g>
<!-- Trackable -->
<g id="node21" class="node">
<title>Trackable</title>
<polygon fill="#ffb347" stroke="black" points="962,-299 891,-299 891,-263 962,-263 962,-299"/>
<text text-anchor="middle" x="926.5" y="-277.3" font-family="Times,serif" font-size="14.00">Trackable</text>
</g>
<!-- GameEntity&#45;&gt;Trackable -->
<g id="edge10" class="edge">
<title>GameEntity&#45;&gt;Trackable</title>
<path fill="none" stroke="black" stroke-dasharray="5,2" d="M776.07,-240.24C782.39,-242.22 788.86,-244.2 795,-246 823.51,-254.37 855.76,-263.03 881.07,-269.64"/>
<polygon fill="black" stroke="black" points="880.2,-273.03 890.76,-272.16 881.96,-266.25 880.2,-273.03"/>
<text text-anchor="middle" x="834" y="-270.8" font-family="Times,serif" font-size="14.00">(extends)</text>
</g>
<!-- Identifiable&#45;&gt;string -->
<g id="edge2" class="edge">
<title>Identifiable&#45;&gt;string</title>
<path fill="none" stroke="black" d="M1122.19,-261.16C1143.95,-273.24 1172.36,-289.02 1193.72,-300.88"/>
<polygon fill="black" stroke="black" points="1192.26,-304.07 1202.7,-305.87 1195.66,-297.95 1192.26,-304.07"/>
<text text-anchor="middle" x="1161.5" y="-292.8" font-family="Times,serif" font-size="14.00">name</text>
</g>
<!-- Item&#45;&gt;WorldObject -->
<g id="edge16" class="edge">
<title>Item&#45;&gt;WorldObject</title>
<path fill="none" stroke="black" stroke-dasharray="5,2" d="M391.5,-141.96C416.43,-145.98 455.04,-152.76 488,-161 490.61,-161.65 493.28,-162.36 495.97,-163.09"/>
<polygon fill="black" stroke="black" points="495.14,-166.49 505.71,-165.87 497.06,-159.76 495.14,-166.49"/>
<text text-anchor="middle" x="451" y="-164.8" font-family="Times,serif" font-size="14.00">(implements)</text>
</g>
<!-- MagicWeapon -->
<g id="node12" class="node">
<title>MagicWeapon</title>
<polygon fill="#add8e6" stroke="black" points="97,-38 0,-38 0,-2 97,-2 97,-38"/>
<text text-anchor="middle" x="48.5" y="-16.3" font-family="Times,serif" font-size="14.00">MagicWeapon</text>
</g>
<!-- Weapon -->
<g id="node22" class="node">
<title>Weapon</title>
<polygon fill="#add8e6" stroke="black" points="246,-64 184,-64 184,-28 246,-28 246,-64"/>
<text text-anchor="middle" x="215" y="-42.3" font-family="Times,serif" font-size="14.00">Weapon</text>
</g>
<!-- MagicWeapon&#45;&gt;Weapon -->
<g id="edge30" class="edge">
<title>MagicWeapon&#45;&gt;Weapon</title>
<path fill="none" stroke="black" stroke-dasharray="5,2" d="M97.08,-27.52C121.27,-31.34 150.36,-35.94 173.47,-39.59"/>
<polygon fill="black" stroke="black" points="173.21,-43.1 183.63,-41.2 174.3,-36.18 173.21,-43.1"/>
<text text-anchor="middle" x="140.5" y="-42.8" font-family="Times,serif" font-size="14.00">(extends)</text>
</g>
<!-- MagicWeapon&#45;&gt;string -->
<g id="edge29" class="edge">
<title>MagicWeapon&#45;&gt;string</title>
<path fill="none" stroke="black" d="M97.18,-11.11C129.92,-5.77 174.44,0 214,0 214,0 214,0 1089.5,0 1214.96,0 1225.56,-212.28 1225.24,-289.96"/>
<polygon fill="black" stroke="black" points="1221.74,-289.96 1225.13,-299.99 1228.74,-290.03 1221.74,-289.96"/>
<text text-anchor="middle" x="642.5" y="-3.8" font-family="Times,serif" font-size="14.00">spell_name</text>
</g>
<!-- Merchant -->
<g id="node13" class="node">
<title>Merchant</title>
<polygon fill="#add8e6" stroke="black" points="83,-238 14,-238 14,-202 83,-202 83,-238"/>
<text text-anchor="middle" x="48.5" y="-216.3" font-family="Times,serif" font-size="14.00">Merchant</text>
</g>
<!-- Merchant&#45;&gt;NPC -->
<g id="edge34" class="edge">
<title>Merchant&#45;&gt;NPC</title>
<path fill="none" stroke="black" stroke-dasharray="5,2" d="M66.04,-238.37C91.4,-266.52 141.42,-321.99 184,-369 186.18,-371.41 188.46,-373.92 190.73,-376.43"/>
<polygon fill="black" stroke="black" points="188.17,-378.81 197.48,-383.86 193.35,-374.1 188.17,-378.81"/>
<text text-anchor="middle" x="140.5" y="-351.8" font-family="Times,serif" font-size="14.00">(extends)</text>
</g>
<!-- Merchant&#45;&gt;string -->
<g id="edge33" class="edge">
<title>Merchant&#45;&gt;string</title>
<path fill="none" stroke="black" d="M60.87,-201.93C84.63,-166.65 143.26,-92 214,-92 214,-92 214,-92 1089.5,-92 1180.7,-92 1211.77,-229.28 1221.04,-289.85"/>
<polygon fill="black" stroke="black" points="1217.6,-290.49 1222.49,-299.89 1224.53,-289.49 1217.6,-290.49"/>
<text text-anchor="middle" x="642.5" y="-95.8" font-family="Times,serif" font-size="14.00">specialty</text>
</g>
<!-- NPC&#45;&gt;Creature -->
<g id="edge26" class="edge">
<title>NPC&#45;&gt;Creature</title>
<path fill="none" stroke="black" stroke-dasharray="5,2" d="M242.03,-389.29C264.64,-378.26 297.75,-362.1 323.69,-349.43"/>
<polygon fill="black" stroke="black" points="325.43,-352.48 332.89,-344.94 322.36,-346.19 325.43,-352.48"/>
<text text-anchor="middle" x="289.5" y="-379.8" font-family="Times,serif" font-size="14.00">(extends)</text>
</g>
<!-- NPC&#45;&gt;string -->
<g id="edge25" class="edge">
<title>NPC&#45;&gt;string</title>
<path fill="none" stroke="black" d="M242.18,-412.41C271.3,-423.04 320.01,-438 363.5,-438 363.5,-438 363.5,-438 1089.5,-438 1145.64,-438 1189.3,-379.33 1210.48,-344.04"/>
<polygon fill="black" stroke="black" points="1213.62,-345.6 1215.62,-335.19 1207.57,-342.08 1213.62,-345.6"/>
<text text-anchor="middle" x="734.5" y="-441.8" font-family="Times,serif" font-size="14.00">greeting</text>
</g>
<!-- Physical -->
<g id="node15" class="node">
<title>Physical</title>
<polygon fill="#ffb347" stroke="black" points="865,-194 803,-194 803,-158 865,-158 865,-194"/>
<text text-anchor="middle" x="834" y="-172.3" font-family="Times,serif" font-size="14.00">Physical</text>
</g>
<!-- Physical&#45;&gt;Positioned -->
<g id="edge8" class="edge">
<title>Physical&#45;&gt;Positioned</title>
<path fill="none" stroke="black" stroke-dasharray="5,2" d="M865.21,-176.36C908.8,-176.88 989.74,-177.84 1041,-178.45"/>
<polygon fill="black" stroke="black" points="1041.1,-181.95 1051.14,-178.57 1041.19,-174.95 1041.1,-181.95"/>
<text text-anchor="middle" x="926.5" y="-180.8" font-family="Times,serif" font-size="14.00">(extends)</text>
</g>
<!-- Player -->
<g id="node16" class="node">
<title>Player</title>
<polygon fill="#add8e6" stroke="black" points="242,-360 188,-360 188,-324 242,-324 242,-360"/>
<text text-anchor="middle" x="215" y="-338.3" font-family="Times,serif" font-size="14.00">Player</text>
</g>
<!-- Player&#45;&gt;Creature -->
<g id="edge28" class="edge">
<title>Player&#45;&gt;Creature</title>
<path fill="none" stroke="black" stroke-dasharray="5,2" d="M242.23,-334.92C249.25,-333.32 256.87,-331.84 264,-331 283.22,-328.73 304.67,-328.25 322.72,-328.44"/>
<polygon fill="black" stroke="black" points="322.85,-331.94 332.91,-328.61 322.97,-324.94 322.85,-331.94"/>
<text text-anchor="middle" x="289.5" y="-334.8" font-family="Times,serif" font-size="14.00">(extends)</text>
</g>
<!-- Player&#45;&gt;string -->
<g id="edge27" class="edge">
<title>Player&#45;&gt;string</title>
<path fill="none" stroke="black" d="M230.88,-360.11C239.5,-369.13 251.16,-379.14 264,-384 382.25,-428.79 706.55,-387 833,-387 833,-387 833,-387 1089.5,-387 1130.61,-387 1141.09,-377.02 1177,-357 1185.31,-352.37 1193.6,-346.23 1200.87,-340.2"/>
<polygon fill="black" stroke="black" points="1203.61,-342.46 1208.88,-333.27 1199.03,-337.17 1203.61,-342.46"/>
<text text-anchor="middle" x="734.5" y="-396.8" font-family="Times,serif" font-size="14.00">class_name</text>
</g>
<!-- Prop -->
<g id="node18" class="node">
<title>Prop</title>
<polygon fill="#add8e6" stroke="black" points="391.5,-210 337.5,-210 337.5,-174 391.5,-174 391.5,-210"/>
<text text-anchor="middle" x="364.5" y="-188.3" font-family="Times,serif" font-size="14.00">Prop</text>
</g>
<!-- Prop&#45;&gt;WorldObject -->
<g id="edge20" class="edge">
<title>Prop&#45;&gt;WorldObject</title>
<path fill="none" stroke="black" stroke-dasharray="5,2" d="M391.62,-187.71C398.85,-186.67 406.71,-185.66 414,-185 440.78,-182.58 470.65,-181.32 495.44,-180.67"/>
<polygon fill="black" stroke="black" points="495.81,-184.17 505.72,-180.43 495.64,-177.17 495.81,-184.17"/>
<text text-anchor="middle" x="451" y="-188.8" font-family="Times,serif" font-size="14.00">(implements)</text>
</g>
<!-- Renderable -->
<g id="node19" class="node">
<title>Renderable</title>
<polygon fill="#ffb347" stroke="black" points="873,-150 795,-150 795,-114 873,-114 873,-150"/>
<text text-anchor="middle" x="834" y="-128.3" font-family="Times,serif" font-size="14.00">Renderable</text>
</g>
<!-- Renderable&#45;&gt;string -->
<g id="edge3" class="edge">
<title>Renderable&#45;&gt;string</title>
<path fill="none" stroke="black" d="M873.07,-124.02C932.45,-113.75 1048.54,-102.61 1128,-152 1178.47,-183.37 1205.46,-251.53 1217.21,-290.04"/>
<polygon fill="black" stroke="black" points="1213.97,-291.44 1220.12,-300.06 1220.69,-289.48 1213.97,-291.44"/>
<text text-anchor="middle" x="1005.5" y="-122.8" font-family="Times,serif" font-size="14.00">sprite</text>
</g>
<!-- Timed -->
<g id="node20" class="node">
<title>Timed</title>
<polygon fill="#ffb347" stroke="black" points="1115.5,-315 1061.5,-315 1061.5,-279 1115.5,-279 1115.5,-315"/>
<text text-anchor="middle" x="1088.5" y="-293.3" font-family="Times,serif" font-size="14.00">Timed</text>
</g>
<!-- Trackable&#45;&gt;Identifiable -->
<g id="edge6" class="edge">
<title>Trackable&#45;&gt;Identifiable</title>
<path fill="none" stroke="black" stroke-dasharray="5,2" d="M962.22,-272.75C984.67,-267.42 1014.23,-260.4 1038.99,-254.52"/>
<polygon fill="black" stroke="black" points="1040,-257.88 1048.92,-252.16 1038.39,-251.07 1040,-257.88"/>
<text text-anchor="middle" x="1005.5" y="-270.8" font-family="Times,serif" font-size="14.00">(extends)</text>
</g>
<!-- Trackable&#45;&gt;Timed -->
<g id="edge7" class="edge">
<title>Trackable&#45;&gt;Timed</title>
<path fill="none" stroke="black" stroke-dasharray="5,2" d="M962.13,-288.27C968.07,-289.32 974.2,-290.29 980,-291 1003.65,-293.9 1030.4,-295.4 1051.3,-296.17"/>
<polygon fill="black" stroke="black" points="1051.24,-299.67 1061.35,-296.51 1051.47,-292.68 1051.24,-299.67"/>
<text text-anchor="middle" x="1005.5" y="-298.8" font-family="Times,serif" font-size="14.00">(extends)</text>
</g>
<!-- Weapon&#45;&gt;Element -->
<g id="edge21" class="edge">
<title>Weapon&#45;&gt;Element</title>
<path fill="none" stroke="black" d="M246.2,-46C268.48,-46 299,-46 323.33,-46"/>
<polygon fill="black" stroke="black" points="323.34,-49.5 333.34,-46 323.34,-42.5 323.34,-49.5"/>
<text text-anchor="middle" x="289.5" y="-49.8" font-family="Times,serif" font-size="14.00">element</text>
</g>
<!-- Weapon&#45;&gt;Item -->
<g id="edge22" class="edge">
<title>Weapon&#45;&gt;Item</title>
<path fill="none" stroke="black" stroke-dasharray="5,2" d="M245.14,-64.18C269.17,-79.17 303.33,-100.47 328.78,-116.34"/>
<polygon fill="black" stroke="black" points="327.05,-119.39 337.38,-121.71 330.75,-113.45 327.05,-119.39"/>
<text text-anchor="middle" x="289.5" y="-108.8" font-family="Times,serif" font-size="14.00">(extends)</text>
</g>
<!-- WorldObject&#45;&gt;GameEntity -->
<g id="edge11" class="edge">
<title>WorldObject&#45;&gt;GameEntity</title>
<path fill="none" stroke="black" stroke-dasharray="5,2" d="M593.41,-191.02C620.13,-197.88 654.64,-206.75 682.72,-213.96"/>
<polygon fill="black" stroke="black" points="682.19,-217.44 692.75,-216.53 683.93,-210.66 682.19,-217.44"/>
<text text-anchor="middle" x="642.5" y="-213.8" font-family="Times,serif" font-size="14.00">(extends)</text>
</g>
<!-- WorldObject&#45;&gt;Physical -->
<g id="edge13" class="edge">
<title>WorldObject&#45;&gt;Physical</title>
<path fill="none" stroke="black" stroke-dasharray="5,2" d="M593.13,-177.64C599.13,-177.38 605.22,-177.16 611,-177 674.49,-175.28 748.23,-175.36 792.72,-175.64"/>
<polygon fill="black" stroke="black" points="792.81,-179.14 802.83,-175.71 792.85,-172.14 792.81,-179.14"/>
<text text-anchor="middle" x="642.5" y="-180.8" font-family="Times,serif" font-size="14.00">(extends)</text>
</g>
<!-- WorldObject&#45;&gt;Renderable -->
<g id="edge12" class="edge">
<title>WorldObject&#45;&gt;Renderable</title>
<path fill="none" stroke="black" stroke-dasharray="5,2" d="M591.67,-161.96C598.05,-159.67 604.64,-157.57 611,-156 669.65,-141.48 739.17,-135.75 784.59,-133.48"/>
<polygon fill="black" stroke="black" points="784.92,-136.97 794.75,-133.01 784.6,-129.98 784.92,-136.97"/>
<text text-anchor="middle" x="642.5" y="-159.8" font-family="Times,serif" font-size="14.00">(extends)</text>
</g>
<!-- character -->
<g id="node24" class="node">
<title>character</title>
<ellipse fill="#ffffe0" stroke="black" cx="1344.99" cy="-318" rx="42.79" ry="18"/>
<text text-anchor="middle" x="1344.99" y="-314.3" font-family="Times,serif" font-size="14.00">character</text>
</g>
<!-- string&#45;&gt;character -->
<g id="edge1" class="edge">
<title>string&#45;&gt;character</title>
<path fill="none" stroke="black" d="M1256.18,-318C1267.01,-318 1279.61,-318 1291.82,-318"/>
<polygon fill="black" stroke="black" points="1291.94,-321.5 1301.94,-318 1291.94,-314.5 1291.94,-321.5"/>
<text text-anchor="middle" x="1279.09" y="-321.8" font-family="Times,serif" font-size="14.00">[]</text>
</g>
</g>
</svg>
