<?xml version="1.0" encoding="UTF-8" standalone="no"?>
<!DOCTYPE svg PUBLIC "-//W3C//DTD SVG 1.1//EN"
 "http://www.w3.org/Graphics/SVG/1.1/DTD/svg11.dtd">
<!-- Generated by graphviz version 2.43.0 (0)
 -->
<!-- Title: types Pages: 1 -->
<svg width="1430pt" height="958pt"
 viewBox="0.00 0.00 1429.89 958.00" xmlns="http://www.w3.org/2000/svg" xmlns:xlink="http://www.w3.org/1999/xlink">
<g id="graph0" class="graph" transform="scale(1 1) rotate(0) translate(4 954)">
<title>types</title>
<polygon fill="white" stroke="transparent" points="-4,4 -4,-954 1425.89,-954 1425.89,4 -4,4"/>
<text text-anchor="middle" x="710.94" y="-931.6" font-family="Times,serif" font-size="18.00">graph excluding type uint8, uint16, uint32, uint64, float32, int16, boolean</text>
<!-- Armor -->
<g id="node1" class="node">
<title>Armor</title>
<polygon fill="#add8e6" stroke="black" points="242,-257 188,-257 188,-221 242,-221 242,-257"/>
<text text-anchor="middle" x="215" y="-235.3" font-family="Times,serif" font-size="14.00">Armor</text>
</g>
<!-- Item -->
<g id="node11" class="node">
<title>Item</title>
<polygon fill="#add8e6" stroke="black" points="420,-245 366,-245 366,-209 420,-209 420,-245"/>
<text text-anchor="middle" x="393" y="-223.3" font-family="Times,serif" font-size="14.00">Item</text>
</g>
<!-- Armor&#45;&gt;Item -->
<g id="edge25" class="edge">
<title>Armor&#45;&gt;Item</title>
<path fill="none" stroke="black" stroke-dasharray="5,2" d="M242.35,-237.2C272.37,-235.16 321.64,-231.8 355.39,-229.5"/>
<polygon fill="black" stroke="black" points="356.02,-232.96 365.76,-228.79 355.54,-225.98 356.02,-232.96"/>
<text text-anchor="middle" x="301" y="-238.8" font-family="Times,serif" font-size="14.00">(extends)</text>
</g>
<!-- WorldObject -->
<g id="node23" class="node">
<title>WorldObject</title>
<polygon fill="#ffb347" stroke="black" points="627,-410 540,-410 540,-374 627,-374 627,-410"/>
<text text-anchor="middle" x="583.5" y="-388.3" font-family="Times,serif" font-size="14.00">WorldObject</text>
</g>
<!-- Armor&#45;&gt;WorldObject -->
<g id="edge26" class="edge">
<title>Armor&#45;&gt;WorldObject</title>
<path fill="none" stroke="black" stroke-dasharray="5,2" d="M242.03,-247.6C249.12,-249.81 256.83,-252.1 264,-254 377.44,-283.97 423.5,-246.24 522,-310 542.74,-323.43 558.86,-346.61 569.22,-364.9"/>
<polygon fill="black" stroke="black" points="566.28,-366.82 574.11,-373.95 572.44,-363.49 566.28,-366.82"/>
<text text-anchor="middle" x="393" y="-275.8" font-family="Times,serif" font-size="14.00">(implements)</text>
</g>
<!-- string -->
<g id="node25" class="node">
<title>string</title>
<ellipse fill="#ffffe0" stroke="black" cx="1259.55" cy="-404" rx="30.59" ry="18"/>
<text text-anchor="middle" x="1259.55" y="-400.3" font-family="Times,serif" font-size="14.00">string</text>
</g>
<!-- Armor&#45;&gt;string -->
<g id="edge24" class="edge">
<title>Armor&#45;&gt;string</title>
<path fill="none" stroke="black" d="M242.06,-231.68C273.59,-222.38 324.17,-205.86 338,-192 353.8,-176.17 338.34,-158.73 356,-145 401.22,-109.84 426.72,-130 484,-130 484,-130 484,-130 1123.5,-130 1231.98,-130 1253.32,-304.94 1257.52,-375.25"/>
<polygon fill="black" stroke="black" points="1254.04,-375.79 1258.06,-385.6 1261.03,-375.43 1254.04,-375.79"/>
<text text-anchor="middle" x="768.5" y="-133.8" font-family="Times,serif" font-size="14.00">slot</text>
</g>
<!-- Boss -->
<g id="node2" class="node">
<title>Boss</title>
<polygon fill="#add8e6" stroke="black" points="75.5,-800 21.5,-800 21.5,-764 75.5,-764 75.5,-800"/>
<text text-anchor="middle" x="48.5" y="-778.3" font-family="Times,serif" font-size="14.00">Boss</text>
</g>
<!-- Combatant -->
<g id="node3" class="node">
<title>Combatant</title>
<polygon fill="#ffb347" stroke="black" points="622,-722 545,-722 545,-686 622,-686 622,-722"/>
<text text-anchor="middle" x="583.5" y="-700.3" font-family="Times,serif" font-size="14.00">Combatant</text>
</g>
<!-- Boss&#45;&gt;Combatant -->
<g id="edge40" class="edge">
<title>Boss&#45;&gt;Combatant</title>
<path fill="none" stroke="black" stroke-dasharray="5,2" d="M75.72,-785.54C102.79,-789.01 146.25,-794.04 184,-796 255.32,-799.7 426.12,-789.61 430,-789 471.97,-782.37 485.21,-784.26 522,-763 536.76,-754.47 550.58,-741.53 561.28,-729.94"/>
<polygon fill="black" stroke="black" points="564.13,-732 568.16,-722.2 558.9,-727.35 564.13,-732"/>
<text text-anchor="middle" x="301" y="-799.8" font-family="Times,serif" font-size="14.00">(implements)</text>
</g>
<!-- NPC -->
<g id="node14" class="node">
<title>NPC</title>
<polygon fill="#add8e6" stroke="black" points="242,-647 188,-647 188,-611 242,-611 242,-647"/>
<text text-anchor="middle" x="215" y="-625.3" font-family="Times,serif" font-size="14.00">NPC</text>
</g>
<!-- Boss&#45;&gt;NPC -->
<g id="edge39" class="edge">
<title>Boss&#45;&gt;NPC</title>
<path fill="none" stroke="black" stroke-dasharray="5,2" d="M69.02,-763.85C98.33,-736.59 153.8,-684.99 186.98,-654.13"/>
<polygon fill="black" stroke="black" points="189.57,-656.5 194.51,-647.13 184.8,-651.38 189.57,-656.5"/>
<text text-anchor="middle" x="140.5" y="-722.8" font-family="Times,serif" font-size="14.00">(extends)</text>
</g>
<!-- Boss&#45;&gt;WorldObject -->
<g id="edge41" class="edge">
<title>Boss&#45;&gt;WorldObject</title>
<path fill="none" stroke="black" stroke-dasharray="5,2" d="M51.68,-763.84C58.62,-708.85 81.65,-545.39 115,-505 187.41,-417.3 243.75,-437.25 356,-419 415.23,-409.37 483.71,-401.68 529.73,-397.01"/>
<polygon fill="black" stroke="black" points="530.17,-400.48 539.77,-396 529.47,-393.52 530.17,-400.48"/>
<text text-anchor="middle" x="301" y="-432.8" font-family="Times,serif" font-size="14.00">(implements)</text>
</g>
<!-- Boss&#45;&gt;string -->
<g id="edge38" class="edge">
<title>Boss&#45;&gt;string</title>
<path fill="none" stroke="black" d="M61.34,-800.18C85.52,-834.84 144.24,-907 214,-907 214,-907 214,-907 1123.5,-907 1179.58,-907 1209.7,-785.24 1211,-781 1249.55,-654.86 1256.89,-495.8 1258.25,-432.18"/>
<polygon fill="black" stroke="black" points="1261.75,-432.18 1258.43,-422.12 1254.75,-432.05 1261.75,-432.18"/>
<text text-anchor="middle" x="676.5" y="-910.8" font-family="Times,serif" font-size="14.00">title</text>
</g>
<!-- Damageable -->
<g id="node5" class="node">
<title>Damageable</title>
<polygon fill="#ffb347" stroke="black" points="811,-722 726,-722 726,-686 811,-686 811,-722"/>
<text text-anchor="middle" x="768.5" y="-700.3" font-family="Times,serif" font-size="14.00">Damageable</text>
</g>
<!-- Combatant&#45;&gt;Damageable -->
<g id="edge15" class="edge">
<title>Combatant&#45;&gt;Damageable</title>
<path fill="none" stroke="black" stroke-dasharray="5,2" d="M622.42,-704C649.39,-704 685.95,-704 715.62,-704"/>
<polygon fill="black" stroke="black" points="715.8,-707.5 725.8,-704 715.8,-700.5 715.8,-707.5"/>
<text text-anchor="middle" x="676.5" y="-707.8" font-family="Times,serif" font-size="14.00">(extends)</text>
</g>
<!-- GameEntity -->
<g id="node9" class="node">
<title>GameEntity</title>
<polygon fill="#ffb347" stroke="black" points="810,-502 727,-502 727,-466 810,-466 810,-502"/>
<text text-anchor="middle" x="768.5" y="-480.3" font-family="Times,serif" font-size="14.00">GameEntity</text>
</g>
<!-- Combatant&#45;&gt;GameEntity -->
<g id="edge14" class="edge">
<title>Combatant&#45;&gt;GameEntity</title>
<path fill="none" stroke="black" stroke-dasharray="5,2" d="M599.48,-686C631.78,-647.16 708.13,-555.38 745.76,-510.13"/>
<polygon fill="black" stroke="black" points="748.61,-512.18 752.32,-502.25 743.23,-507.7 748.61,-512.18"/>
<text text-anchor="middle" x="676.5" y="-629.8" font-family="Times,serif" font-size="14.00">(extends)</text>
</g>
<!-- Creature -->
<g id="node4" class="node">
<title>Creature</title>
<polygon fill="#add8e6" stroke="black" points="424.5,-747 361.5,-747 361.5,-711 424.5,-711 424.5,-747"/>
<text text-anchor="middle" x="393" y="-725.3" font-family="Times,serif" font-size="14.00">Creature</text>
</g>
<!-- Creature&#45;&gt;Combatant -->
<g id="edge18" class="edge">
<title>Creature&#45;&gt;Combatant</title>
<path fill="none" stroke="black" stroke-dasharray="5,2" d="M424.71,-724.93C454.49,-720.98 500.11,-714.93 534.66,-710.35"/>
<polygon fill="black" stroke="black" points="535.54,-713.76 544.99,-708.97 534.62,-706.82 535.54,-713.76"/>
<text text-anchor="middle" x="485" y="-724.8" font-family="Times,serif" font-size="14.00">(implements)</text>
</g>
<!-- Faction -->
<g id="node8" class="node">
<title>Faction</title>
<polygon fill="#90ee90" stroke="black" points="612,-836 555,-836 555,-800 612,-800 612,-836"/>
<text text-anchor="middle" x="583.5" y="-814.3" font-family="Times,serif" font-size="14.00">Faction</text>
</g>
<!-- Creature&#45;&gt;Faction -->
<g id="edge17" class="edge">
<title>Creature&#45;&gt;Faction</title>
<path fill="none" stroke="black" d="M424.71,-743.5C457.7,-759.08 510.14,-783.84 545.41,-800.49"/>
<polygon fill="black" stroke="black" points="544.34,-803.85 554.88,-804.96 547.33,-797.52 544.34,-803.85"/>
<text text-anchor="middle" x="485" y="-792.8" font-family="Times,serif" font-size="14.00">faction</text>
</g>
<!-- Creature&#45;&gt;WorldObject -->
<g id="edge19" class="edge">
<title>Creature&#45;&gt;WorldObject</title>
<path fill="none" stroke="black" stroke-dasharray="5,2" d="M416.83,-710.79C421.48,-706.53 426.12,-701.82 430,-697 502.68,-606.69 553.4,-476.09 573.23,-419.67"/>
<polygon fill="black" stroke="black" points="576.6,-420.62 576.57,-410.03 569.99,-418.33 576.6,-420.62"/>
<text text-anchor="middle" x="485" y="-670.8" font-family="Times,serif" font-size="14.00">(implements)</text>
</g>
<!-- Element -->
<g id="node6" class="node">
<title>Element</title>
<polygon fill="#90ee90" stroke="black" points="424,-102 362,-102 362,-66 424,-66 424,-102"/>
<text text-anchor="middle" x="393" y="-80.3" font-family="Times,serif" font-size="14.00">Element</text>
</g>
<!-- Entity -->
<g id="node7" class="node">
<title>Entity</title>
<polygon fill="#ffb347" stroke="black" points="987.5,-473 933.5,-473 933.5,-437 987.5,-437 987.5,-473"/>
<text text-anchor="middle" x="960.5" y="-451.3" font-family="Times,serif" font-size="14.00">Entity</text>
</g>
<!-- Identifiable -->
<g id="node10" class="node">
<title>Identifiable</title>
<polygon fill="#ffb347" stroke="black" points="1162,-481 1083,-481 1083,-445 1162,-445 1162,-481"/>
<text text-anchor="middle" x="1122.5" y="-459.3" font-family="Times,serif" font-size="14.00">Identifiable</text>
</g>
<!-- Entity&#45;&gt;Identifiable -->
<g id="edge4" class="edge">
<title>Entity&#45;&gt;Identifiable</title>
<path fill="none" stroke="black" stroke-dasharray="5,2" d="M987.56,-456.3C1010.59,-457.45 1044.78,-459.16 1072.85,-460.57"/>
<polygon fill="black" stroke="black" points="1072.72,-464.07 1082.89,-461.07 1073.07,-457.07 1072.72,-464.07"/>
<text text-anchor="middle" x="1039.5" y="-462.8" font-family="Times,serif" font-size="14.00">(extends)</text>
</g>
<!-- Positioned -->
<g id="node17" class="node">
<title>Positioned</title>
<polygon fill="#ffb347" stroke="black" points="1159.5,-419 1085.5,-419 1085.5,-383 1159.5,-383 1159.5,-419"/>
<text text-anchor="middle" x="1122.5" y="-397.3" font-family="Times,serif" font-size="14.00">Positioned</text>
</g>
<!-- Entity&#45;&gt;Positioned -->
<g id="edge5" class="edge">
<title>Entity&#45;&gt;Positioned</title>
<path fill="none" stroke="black" stroke-dasharray="5,2" d="M987.56,-446.2C1011.33,-438.18 1046.97,-426.15 1075.52,-416.52"/>
<polygon fill="black" stroke="black" points="1076.93,-419.73 1085.29,-413.22 1074.7,-413.1 1076.93,-419.73"/>
<text text-anchor="middle" x="1039.5" y="-438.8" font-family="Times,serif" font-size="14.00">(extends)</text>
</g>
<!-- GameEntity&#45;&gt;Entity -->
<g id="edge9" class="edge">
<title>GameEntity&#45;&gt;Entity</title>
<path fill="none" stroke="black" stroke-dasharray="5,2" d="M810.11,-476.24C816.42,-475.1 822.88,-473.99 829,-473 860.75,-467.88 897,-462.95 923.22,-459.55"/>
<polygon fill="black" stroke="black" points="923.98,-462.98 933.45,-458.24 923.09,-456.04 923.98,-462.98"/>
<text text-anchor="middle" x="868" y="-476.8" font-family="Times,serif" font-size="14.00">(extends)</text>
</g>
<!-- Trackable -->
<g id="node21" class="node">
<title>Trackable</title>
<polygon fill="#ffb347" stroke="black" points="996,-527 925,-527 925,-491 996,-491 996,-527"/>
<text text-anchor="middle" x="960.5" y="-505.3" font-family="Times,serif" font-size="14.00">Trackable</text>
</g>
<!-- GameEntity&#45;&gt;Trackable -->
<g id="edge10" class="edge">
<title>GameEntity&#45;&gt;Trackable</title>
<path fill="none" stroke="black" stroke-dasharray="5,2" d="M810.26,-489.36C840.92,-493.4 882.92,-498.92 914.56,-503.09"/>
<polygon fill="black" stroke="black" points="914.49,-506.61 924.86,-504.44 915.4,-499.67 914.49,-506.61"/>
<text text-anchor="middle" x="868" y="-504.8" font-family="Times,serif" font-size="14.00">(extends)</text>
</g>
<!-- Identifiable&#45;&gt;string -->
<g id="edge2" class="edge">
<title>Identifiable&#45;&gt;string</title>
<path fill="none" stroke="black" d="M1162.2,-446.09C1182.07,-437.41 1206.04,-426.94 1225.1,-418.61"/>
<polygon fill="black" stroke="black" points="1226.53,-421.81 1234.3,-414.6 1223.73,-415.39 1226.53,-421.81"/>
<text text-anchor="middle" x="1195.5" y="-440.8" font-family="Times,serif" font-size="14.00">name</text>
</g>
<!-- Item&#45;&gt;WorldObject -->
<g id="edge16" class="edge">
<title>Item&#45;&gt;WorldObject</title>
<path fill="none" stroke="black" stroke-dasharray="5,2" d="M420.25,-225.35C448.41,-224.98 492.99,-228.64 522,-252 556.65,-279.9 571.88,-331.48 578.25,-363.64"/>
<polygon fill="black" stroke="black" points="574.86,-364.53 580.09,-373.74 581.74,-363.27 574.86,-364.53"/>
<text text-anchor="middle" x="485" y="-255.8" font-family="Times,serif" font-size="14.00">(implements)</text>
</g>
<!-- MagicWeapon -->
<g id="node12" class="node">
<title>MagicWeapon</title>
<polygon fill="#add8e6" stroke="black" points="97,-161 0,-161 0,-125 97,-125 97,-161"/>
<text text-anchor="middle" x="48.5" y="-139.3" font-family="Times,serif" font-size="14.00">MagicWeapon</text>
</g>
<!-- Weapon -->
<g id="node22" class="node">
<title>Weapon</title>
<polygon fill="#add8e6" stroke="black" points="246,-161 184,-161 184,-125 246,-125 246,-161"/>
<text text-anchor="middle" x="215" y="-139.3" font-family="Times,serif" font-size="14.00">Weapon</text>
</g>
<!-- MagicWeapon&#45;&gt;Weapon -->
<g id="edge36" class="edge">
<title>MagicWeapon&#45;&gt;Weapon</title>
<path fill="none" stroke="black" stroke-dasharray="5,2" d="M97.08,-143C121.27,-143 150.36,-143 173.47,-143"/>
<polygon fill="black" stroke="black" points="173.63,-146.5 183.63,-143 173.63,-139.5 173.63,-146.5"/>
<text text-anchor="middle" x="140.5" y="-146.8" font-family="Times,serif" font-size="14.00">(extends)</text>
</g>
<!-- MagicWeapon&#45;&gt;WorldObject -->
<g id="edge37" class="edge">
<title>MagicWeapon&#45;&gt;WorldObject</title>
<path fill="none" stroke="black" stroke-dasharray="5,2" d="M64.48,-161.32C87.43,-188.21 133.94,-238.17 184,-266 320.38,-341.82 376.73,-304.03 522,-361 528.27,-363.46 534.76,-366.37 541.05,-369.4"/>
<polygon fill="black" stroke="black" points="539.57,-372.57 550.08,-373.89 542.69,-366.3 539.57,-372.57"/>
<text text-anchor="middle" x="301" y="-321.8" font-family="Times,serif" font-size="14.00">(implements)</text>
</g>
<!-- MagicWeapon&#45;&gt;string -->
<g id="edge35" class="edge">
<title>MagicWeapon&#45;&gt;string</title>
<path fill="none" stroke="black" d="M59.13,-124.89C81.06,-86.41 138.7,0 214,0 214,0 214,0 1123.5,0 1173.03,0 1187.93,-25.17 1211,-69 1238.98,-122.17 1252.6,-304.26 1256.95,-375.29"/>
<polygon fill="black" stroke="black" points="1253.48,-375.93 1257.57,-385.71 1260.47,-375.52 1253.48,-375.93"/>
<text text-anchor="middle" x="676.5" y="-3.8" font-family="Times,serif" font-size="14.00">spell_name</text>
</g>
<!-- Merchant -->
<g id="node13" class="node">
<title>Merchant</title>
<polygon fill="#add8e6" stroke="black" points="83,-445 14,-445 14,-409 83,-409 83,-445"/>
<text text-anchor="middle" x="48.5" y="-423.3" font-family="Times,serif" font-size="14.00">Merchant</text>
</g>
<!-- Merchant&#45;&gt;Combatant -->
<g id="edge44" class="edge">
<title>Merchant&#45;&gt;Combatant</title>
<path fill="none" stroke="black" stroke-dasharray="5,2" d="M83.06,-430.61C180.37,-441.74 459.66,-478.68 522,-542 558.46,-579.03 573.27,-640.05 579.05,-675.68"/>
<polygon fill="black" stroke="black" points="575.63,-676.5 580.56,-685.87 582.55,-675.47 575.63,-676.5"/>
<text text-anchor="middle" x="301" y="-474.8" font-family="Times,serif" font-size="14.00">(implements)</text>
</g>
<!-- Merchant&#45;&gt;NPC -->
<g id="edge43" class="edge">
<title>Merchant&#45;&gt;NPC</title>
<path fill="none" stroke="black" stroke-dasharray="5,2" d="M64.39,-445.28C93.69,-481.26 158.92,-561.36 192.74,-602.9"/>
<polygon fill="black" stroke="black" points="190.24,-605.36 199.26,-610.9 195.66,-600.94 190.24,-605.36"/>
<text text-anchor="middle" x="140.5" y="-572.8" font-family="Times,serif" font-size="14.00">(extends)</text>
</g>
<!-- Merchant&#45;&gt;WorldObject -->
<g id="edge45" class="edge">
<title>Merchant&#45;&gt;WorldObject</title>
<path fill="none" stroke="black" stroke-dasharray="5,2" d="M73.15,-408.92C85.09,-400.66 100.16,-391.52 115,-386 257.29,-333.05 441.22,-360.68 529.98,-379.4"/>
<polygon fill="black" stroke="black" points="529.3,-382.84 539.81,-381.52 530.78,-375.99 529.3,-382.84"/>
<text text-anchor="middle" x="301" y="-359.8" font-family="Times,serif" font-size="14.00">(implements)</text>
</g>
<!-- Merchant&#45;&gt;string -->
<g id="edge42" class="edge">
<title>Merchant&#45;&gt;string</title>
<path fill="none" stroke="black" d="M50.23,-408.94C52.82,-361.71 64.4,-231.72 115,-139 145.11,-83.82 151.14,-38 214,-38 214,-38 214,-38 1123.5,-38 1186.67,-38 1185,-92.43 1211,-150 1245.67,-226.79 1255.06,-327.6 1257.6,-375.87"/>
<polygon fill="black" stroke="black" points="1254.11,-376.06 1258.07,-385.89 1261.1,-375.74 1254.11,-376.06"/>
<text text-anchor="middle" x="676.5" y="-41.8" font-family="Times,serif" font-size="14.00">specialty</text>
</g>
<!-- NPC&#45;&gt;Combatant -->
<g id="edge29" class="edge">
<title>NPC&#45;&gt;Combatant</title>
<path fill="none" stroke="black" stroke-dasharray="5,2" d="M242.06,-634.33C303.18,-646.84 456.46,-678.21 534.79,-694.24"/>
<polygon fill="black" stroke="black" points="534.38,-697.72 544.87,-696.3 535.78,-690.87 534.38,-697.72"/>
<text text-anchor="middle" x="393" y="-675.8" font-family="Times,serif" font-size="14.00">(implements)</text>
</g>
<!-- NPC&#45;&gt;Creature -->
<g id="edge28" class="edge">
<title>NPC&#45;&gt;Creature</title>
<path fill="none" stroke="black" stroke-dasharray="5,2" d="M225.71,-647C234.11,-660.93 247.49,-679.7 264,-691 278.28,-700.78 319.46,-712.08 351.29,-719.8"/>
<polygon fill="black" stroke="black" points="350.72,-723.26 361.25,-722.17 352.34,-716.45 350.72,-723.26"/>
<text text-anchor="middle" x="301" y="-719.8" font-family="Times,serif" font-size="14.00">(extends)</text>
</g>
<!-- NPC&#45;&gt;WorldObject -->
<g id="edge30" class="edge">
<title>NPC&#45;&gt;WorldObject</title>
<path fill="none" stroke="black" stroke-dasharray="5,2" d="M226.67,-610.73C235.32,-597.21 248.58,-579.11 264,-567 362.74,-489.47 418.41,-522.91 522,-452 536.08,-442.36 549.76,-429.22 560.54,-417.7"/>
<polygon fill="black" stroke="black" points="563.36,-419.79 567.51,-410.04 558.19,-415.08 563.36,-419.79"/>
<text text-anchor="middle" x="393" y="-519.8" font-family="Times,serif" font-size="14.00">(implements)</text>
</g>
<!-- NPC&#45;&gt;string -->
<g id="edge27" class="edge">
<title>NPC&#45;&gt;string</title>
<path fill="none" stroke="black" d="M242.02,-621.07C269.92,-612.95 315.64,-600.74 356,-595 455.76,-580.82 481.74,-585 582.5,-585 582.5,-585 582.5,-585 1123.5,-585 1199.06,-585 1237.39,-482.42 1251.72,-431.71"/>
<polygon fill="black" stroke="black" points="1255.11,-432.58 1254.35,-422.02 1248.36,-430.75 1255.11,-432.58"/>
<text text-anchor="middle" x="768.5" y="-588.8" font-family="Times,serif" font-size="14.00">greeting</text>
</g>
<!-- Physical -->
<g id="node15" class="node">
<title>Physical</title>
<polygon fill="#ffb347" stroke="black" points="899,-410 837,-410 837,-374 899,-374 899,-410"/>
<text text-anchor="middle" x="868" y="-388.3" font-family="Times,serif" font-size="14.00">Physical</text>
</g>
<!-- Physical&#45;&gt;Positioned -->
<g id="edge8" class="edge">
<title>Physical&#45;&gt;Positioned</title>
<path fill="none" stroke="black" stroke-dasharray="5,2" d="M899.21,-393.08C942.8,-394.63 1023.74,-397.52 1075,-399.34"/>
<polygon fill="black" stroke="black" points="1075.03,-402.85 1085.14,-399.7 1075.28,-395.85 1075.03,-402.85"/>
<text text-anchor="middle" x="960.5" y="-399.8" font-family="Times,serif" font-size="14.00">(extends)</text>
</g>
<!-- Player -->
<g id="node16" class="node">
<title>Player</title>
<polygon fill="#add8e6" stroke="black" points="242,-787 188,-787 188,-751 242,-751 242,-787"/>
<text text-anchor="middle" x="215" y="-765.3" font-family="Times,serif" font-size="14.00">Player</text>
</g>
<!-- Player&#45;&gt;Combatant -->
<g id="edge33" class="edge">
<title>Player&#45;&gt;Combatant</title>
<path fill="none" stroke="black" stroke-dasharray="5,2" d="M242.38,-770.95C296.65,-774.02 423.91,-776.3 522,-740 530.84,-736.73 539.84,-732.16 548.11,-727.38"/>
<polygon fill="black" stroke="black" points="550,-730.32 556.75,-722.15 546.38,-724.33 550,-730.32"/>
<text text-anchor="middle" x="393" y="-773.8" font-family="Times,serif" font-size="14.00">(implements)</text>
</g>
<!-- Player&#45;&gt;Creature -->
<g id="edge32" class="edge">
<title>Player&#45;&gt;Creature</title>
<path fill="none" stroke="black" stroke-dasharray="5,2" d="M242.01,-760.3C249.1,-758.09 256.81,-755.82 264,-754 292.94,-746.68 326.02,-740.27 351.3,-735.77"/>
<polygon fill="black" stroke="black" points="352.03,-739.2 361.27,-734.02 350.82,-732.3 352.03,-739.2"/>
<text text-anchor="middle" x="301" y="-757.8" font-family="Times,serif" font-size="14.00">(extends)</text>
</g>
<!-- Player&#45;&gt;WorldObject -->
<g id="edge34" class="edge">
<title>Player&#45;&gt;WorldObject</title>
<path fill="none" stroke="black" stroke-dasharray="5,2" d="M224.19,-750.79C232.61,-733.28 246.88,-706.65 264,-687 332.38,-608.48 366.14,-606.34 448,-542 480.85,-516.18 493.7,-514.75 522,-484 540.24,-464.17 556.74,-438.29 567.88,-419.03"/>
<polygon fill="black" stroke="black" points="571.02,-420.59 572.9,-410.17 564.93,-417.14 571.02,-420.59"/>
<text text-anchor="middle" x="393" y="-608.8" font-family="Times,serif" font-size="14.00">(implements)</text>
</g>
<!-- Player&#45;&gt;string -->
<g id="edge31" class="edge">
<title>Player&#45;&gt;string</title>
<path fill="none" stroke="black" d="M242.2,-780.84C299.51,-806.31 434.76,-864 484,-864 484,-864 484,-864 1123.5,-864 1213.95,-864 1248.16,-532.41 1256.43,-432.29"/>
<polygon fill="black" stroke="black" points="1259.94,-432.28 1257.25,-422.03 1252.96,-431.72 1259.94,-432.28"/>
<text text-anchor="middle" x="768.5" y="-867.8" font-family="Times,serif" font-size="14.00">class_name</text>
</g>
<!-- Prop -->
<g id="node18" class="node">
<title>Prop</title>
<polygon fill="#add8e6" stroke="black" points="420,-464 366,-464 366,-428 420,-428 420,-464"/>
<text text-anchor="middle" x="393" y="-442.3" font-family="Times,serif" font-size="14.00">Prop</text>
</g>
<!-- Prop&#45;&gt;WorldObject -->
<g id="edge20" class="edge">
<title>Prop&#45;&gt;WorldObject</title>
<path fill="none" stroke="black" stroke-dasharray="5,2" d="M420.2,-440.29C446.23,-434.42 487.17,-424.65 522,-414 524.62,-413.2 527.28,-412.35 529.97,-411.47"/>
<polygon fill="black" stroke="black" points="531.37,-414.7 539.72,-408.18 529.13,-408.06 531.37,-414.7"/>
<text text-anchor="middle" x="485" y="-436.8" font-family="Times,serif" font-size="14.00">(implements)</text>
</g>
<!-- Renderable -->
<g id="node19" class="node">
<title>Renderable</title>
<polygon fill="#ffb347" stroke="black" points="907,-366 829,-366 829,-330 907,-330 907,-366"/>
<text text-anchor="middle" x="868" y="-344.3" font-family="Times,serif" font-size="14.00">Renderable</text>
</g>
<!-- Renderable&#45;&gt;string -->
<g id="edge3" class="edge">
<title>Renderable&#45;&gt;string</title>
<path fill="none" stroke="black" d="M907.29,-348.81C963.6,-350.58 1071.82,-356.2 1162,-374 1182.78,-378.1 1205.42,-385 1223.55,-391.15"/>
<polygon fill="black" stroke="black" points="1222.52,-394.5 1233.11,-394.47 1224.81,-387.88 1222.52,-394.5"/>
<text text-anchor="middle" x="1039.5" y="-362.8" font-family="Times,serif" font-size="14.00">sprite</text>
</g>
<!-- Timed -->
<g id="node20" class="node">
<title>Timed</title>
<polygon fill="#ffb347" stroke="black" points="1149.5,-557 1095.5,-557 1095.5,-521 1149.5,-521 1149.5,-557"/>
<text text-anchor="middle" x="1122.5" y="-535.3" font-family="Times,serif" font-size="14.00">Timed</text>
</g>
<!-- Trackable&#45;&gt;Identifiable -->
<g id="edge6" class="edge">
<title>Trackable&#45;&gt;Identifiable</title>
<path fill="none" stroke="black" stroke-dasharray="5,2" d="M996.22,-499.02C1018.67,-492.56 1048.23,-484.07 1072.99,-476.95"/>
<polygon fill="black" stroke="black" points="1074.28,-480.22 1082.92,-474.09 1072.35,-473.49 1074.28,-480.22"/>
<text text-anchor="middle" x="1039.5" y="-495.8" font-family="Times,serif" font-size="14.00">(extends)</text>
</g>
<!-- Trackable&#45;&gt;Timed -->
<g id="edge7" class="edge">
<title>Trackable&#45;&gt;Timed</title>
<path fill="none" stroke="black" stroke-dasharray="5,2" d="M996.22,-515.51C1022.51,-520.44 1058.52,-527.19 1085.19,-532.19"/>
<polygon fill="black" stroke="black" points="1084.8,-535.68 1095.28,-534.08 1086.09,-528.8 1084.8,-535.68"/>
<text text-anchor="middle" x="1039.5" y="-530.8" font-family="Times,serif" font-size="14.00">(extends)</text>
</g>
<!-- Weapon&#45;&gt;Element -->
<g id="edge21" class="edge">
<title>Weapon&#45;&gt;Element</title>
<path fill="none" stroke="black" d="M242.64,-124.89C249.39,-120.87 256.79,-116.94 264,-114 292.33,-102.46 326.08,-94.78 351.81,-90.08"/>
<polygon fill="black" stroke="black" points="352.71,-93.48 361.96,-88.31 351.5,-86.58 352.71,-93.48"/>
<text text-anchor="middle" x="301" y="-117.8" font-family="Times,serif" font-size="14.00">element</text>
</g>
<!-- Weapon&#45;&gt;Item -->
<g id="edge22" class="edge">
<title>Weapon&#45;&gt;Item</title>
<path fill="none" stroke="black" stroke-dasharray="5,2" d="M246.26,-157.44C276.94,-172.08 324.39,-194.73 356.75,-210.18"/>
<polygon fill="black" stroke="black" points="355.33,-213.38 365.86,-214.53 358.35,-207.06 355.33,-213.38"/>
<text text-anchor="middle" x="301" y="-202.8" font-family="Times,serif" font-size="14.00">(extends)</text>
</g>
<!-- Weapon&#45;&gt;WorldObject -->
<g id="edge23" class="edge">
<title>Weapon&#45;&gt;WorldObject</title>
<path fill="none" stroke="black" stroke-dasharray="5,2" d="M246.27,-141.2C307.71,-139.33 447.51,-144.44 522,-222 560.02,-261.59 574.34,-326.62 579.59,-363.72"/>
<polygon fill="black" stroke="black" points="576.14,-364.37 580.89,-373.84 583.08,-363.47 576.14,-364.37"/>
<text text-anchor="middle" x="393" y="-168.8" font-family="Times,serif" font-size="14.00">(implements)</text>
</g>
<!-- WorldObject&#45;&gt;GameEntity -->
<g id="edge11" class="edge">
<title>WorldObject&#45;&gt;GameEntity</title>
<path fill="none" stroke="black" stroke-dasharray="5,2" d="M620.65,-410.18C649.85,-424.86 691.1,-445.59 722.45,-461.35"/>
<polygon fill="black" stroke="black" points="720.91,-464.5 731.42,-465.86 724.06,-458.24 720.91,-464.5"/>
<text text-anchor="middle" x="676.5" y="-454.8" font-family="Times,serif" font-size="14.00">(extends)</text>
</g>
<!-- WorldObject&#45;&gt;Physical -->
<g id="edge13" class="edge">
<title>WorldObject&#45;&gt;Physical</title>
<path fill="none" stroke="black" stroke-dasharray="5,2" d="M627.1,-392C681.14,-392 773.67,-392 826.63,-392"/>
<polygon fill="black" stroke="black" points="826.67,-395.5 836.67,-392 826.67,-388.5 826.67,-395.5"/>
<text text-anchor="middle" x="676.5" y="-395.8" font-family="Times,serif" font-size="14.00">(extends)</text>
</g>
<!-- WorldObject&#45;&gt;Renderable -->
<g id="edge12" class="edge">
<title>WorldObject&#45;&gt;Renderable</title>
<path fill="none" stroke="black" stroke-dasharray="5,2" d="M627.2,-377.48C633.13,-375.78 639.18,-374.23 645,-373 704.14,-360.5 773.56,-353.96 818.82,-350.75"/>
<polygon fill="black" stroke="black" points="819.2,-354.23 828.94,-350.06 818.72,-347.25 819.2,-354.23"/>
<text text-anchor="middle" x="676.5" y="-376.8" font-family="Times,serif" font-size="14.00">(extends)</text>
</g>
<!-- character -->
<g id="node24" class="node">
<title>character</title>
<ellipse fill="#ffffe0" stroke="black" cx="1378.99" cy="-404" rx="42.79" ry="18"/>
<text text-anchor="middle" x="1378.99" y="-400.3" font-family="Times,serif" font-size="14.00">character</text>
</g>
<!-- string&#45;&gt;character -->
<g id="edge1" class="edge">
<title>string&#45;&gt;character</title>
<path fill="none" stroke="black" d="M1290.18,-404C1301.01,-404 1313.61,-404 1325.82,-404"/>
<polygon fill="black" stroke="black" points="1325.94,-407.5 1335.94,-404 1325.94,-400.5 1325.94,-407.5"/>
<text text-anchor="middle" x="1313.09" y="-407.8" font-family="Times,serif" font-size="14.00">[]</text>
</g>
</g>
</svg>
