<?xml version="1.0" encoding="UTF-8" standalone="no"?>
<!DOCTYPE svg PUBLIC "-//W3C//DTD SVG 1.1//EN"
 "http://www.w3.org/Graphics/SVG/1.1/DTD/svg11.dtd">
<!-- Generated by graphviz version 2.43.0 (0)
 -->
<!-- Title: types Pages: 1 -->
<svg width="1245pt" height="721pt"
 viewBox="0.00 0.00 1245.49 721.00" xmlns="http://www.w3.org/2000/svg" xmlns:xlink="http://www.w3.org/1999/xlink">
<g id="graph0" class="graph" transform="scale(1 1) rotate(0) translate(4 717)">
<title>types</title>
<polygon fill="white" stroke="transparent" points="-4,4 -4,-717 1241.49,-717 1241.49,4 -4,4"/>
<text text-anchor="middle" x="618.75" y="-694.6" font-family="Times,serif" font-size="18.00">graph showing type float32</text>
<!-- Armor -->
<g id="node1" class="node">
<title>Armor</title>
<polygon fill="#add8e6" stroke="black" points="242,-217 188,-217 188,-181 242,-181 242,-217"/>
<text text-anchor="middle" x="215" y="-195.3" font-family="Times,serif" font-size="14.00">Armor</text>
</g>
<!-- Item -->
<g id="node9" class="node">
<title>Item</title>
<polygon fill="#add8e6" stroke="black" points="420,-118 366,-118 366,-82 420,-82 420,-118"/>
<text text-anchor="middle" x="393" y="-96.3" font-family="Times,serif" font-size="14.00">Item</text>
</g>
<!-- Armor&#45;&gt;Item -->
<g id="edge24" class="edge">
<title>Armor&#45;&gt;Item</title>
<path fill="none" stroke="black" stroke-dasharray="5,2" d="M242.32,-184.87C267.12,-171.48 305.26,-150.68 338,-132 344.1,-128.52 350.56,-124.76 356.8,-121.08"/>
<polygon fill="black" stroke="black" points="358.91,-123.9 365.73,-115.8 355.34,-117.88 358.91,-123.9"/>
<text text-anchor="middle" x="301" y="-175.8" font-family="Times,serif" font-size="14.00">(extends)</text>
</g>
<!-- WorldObject -->
<g id="node20" class="node">
<title>WorldObject</title>
<polygon fill="#ffb347" stroke="black" points="627,-327 540,-327 540,-291 627,-291 627,-327"/>
<text text-anchor="middle" x="583.5" y="-305.3" font-family="Times,serif" font-size="14.00">WorldObject</text>
</g>
<!-- Armor&#45;&gt;WorldObject -->
<g id="edge25" class="edge">
<title>Armor&#45;&gt;WorldObject</title>
<path fill="none" stroke="black" stroke-dasharray="5,2" d="M242.43,-199.34C307.72,-200.61 474.74,-206.51 522,-234 541.52,-245.35 557.28,-265.59 567.81,-282.18"/>
<polygon fill="black" stroke="black" points="564.95,-284.21 573.12,-290.95 570.93,-280.58 564.95,-284.21"/>
<text text-anchor="middle" x="393" y="-214.8" font-family="Times,serif" font-size="14.00">(implements)</text>
</g>
<!-- Boss -->
<g id="node2" class="node">
<title>Boss</title>
<polygon fill="#add8e6" stroke="black" points="75.5,-363 21.5,-363 21.5,-327 75.5,-327 75.5,-363"/>
<text text-anchor="middle" x="48.5" y="-341.3" font-family="Times,serif" font-size="14.00">Boss</text>
</g>
<!-- Combatant -->
<g id="node3" class="node">
<title>Combatant</title>
<polygon fill="#ffb347" stroke="black" points="622,-588 545,-588 545,-552 622,-552 622,-588"/>
<text text-anchor="middle" x="583.5" y="-566.3" font-family="Times,serif" font-size="14.00">Combatant</text>
</g>
<!-- Boss&#45;&gt;Combatant -->
<g id="edge35" class="edge">
<title>Boss&#45;&gt;Combatant</title>
<path fill="none" stroke="black" stroke-dasharray="5,2" d="M54.74,-363.24C68.18,-406.39 108.25,-514.75 184,-564 292.62,-634.62 455.53,-605.14 535.21,-584.22"/>
<polygon fill="black" stroke="black" points="536.22,-587.57 544.96,-581.59 534.4,-580.81 536.22,-587.57"/>
<text text-anchor="middle" x="301" y="-610.8" font-family="Times,serif" font-size="14.00">(implements)</text>
</g>
<!-- NPC -->
<g id="node12" class="node">
<title>NPC</title>
<polygon fill="#add8e6" stroke="black" points="242,-467 188,-467 188,-431 242,-431 242,-467"/>
<text text-anchor="middle" x="215" y="-445.3" font-family="Times,serif" font-size="14.00">NPC</text>
</g>
<!-- Boss&#45;&gt;NPC -->
<g id="edge34" class="edge">
<title>Boss&#45;&gt;NPC</title>
<path fill="none" stroke="black" stroke-dasharray="5,2" d="M75.57,-361.48C103.52,-379.15 148.05,-407.31 179.04,-426.89"/>
<polygon fill="black" stroke="black" points="177.46,-430.04 187.78,-432.43 181.2,-424.12 177.46,-430.04"/>
<text text-anchor="middle" x="140.5" y="-421.8" font-family="Times,serif" font-size="14.00">(extends)</text>
</g>
<!-- Boss&#45;&gt;WorldObject -->
<g id="edge36" class="edge">
<title>Boss&#45;&gt;WorldObject</title>
<path fill="none" stroke="black" stroke-dasharray="5,2" d="M75.57,-343.24C158.56,-337.63 417.76,-320.13 529.91,-312.55"/>
<polygon fill="black" stroke="black" points="530.23,-316.04 539.97,-311.87 529.76,-309.05 530.23,-316.04"/>
<text text-anchor="middle" x="301" y="-333.8" font-family="Times,serif" font-size="14.00">(implements)</text>
</g>
<!-- Damageable -->
<g id="node5" class="node">
<title>Damageable</title>
<polygon fill="#ffb347" stroke="black" points="799,-588 714,-588 714,-552 799,-552 799,-588"/>
<text text-anchor="middle" x="756.5" y="-566.3" font-family="Times,serif" font-size="14.00">Damageable</text>
</g>
<!-- Combatant&#45;&gt;Damageable -->
<g id="edge17" class="edge">
<title>Combatant&#45;&gt;Damageable</title>
<path fill="none" stroke="black" stroke-dasharray="5,2" d="M622.03,-570C645.98,-570 677.36,-570 703.68,-570"/>
<polygon fill="black" stroke="black" points="703.86,-573.5 713.86,-570 703.86,-566.5 703.86,-573.5"/>
<text text-anchor="middle" x="670.5" y="-573.8" font-family="Times,serif" font-size="14.00">(extends)</text>
</g>
<!-- GameEntity -->
<g id="node7" class="node">
<title>GameEntity</title>
<polygon fill="#ffb347" stroke="black" points="798,-531 715,-531 715,-495 798,-495 798,-531"/>
<text text-anchor="middle" x="756.5" y="-509.3" font-family="Times,serif" font-size="14.00">GameEntity</text>
</g>
<!-- Combatant&#45;&gt;GameEntity -->
<g id="edge16" class="edge">
<title>Combatant&#45;&gt;GameEntity</title>
<path fill="none" stroke="black" stroke-dasharray="5,2" d="M622.03,-557.49C646.46,-549.35 678.61,-538.63 705.24,-529.75"/>
<polygon fill="black" stroke="black" points="706.39,-533.06 714.77,-526.58 704.18,-526.42 706.39,-533.06"/>
<text text-anchor="middle" x="670.5" y="-551.8" font-family="Times,serif" font-size="14.00">(extends)</text>
</g>
<!-- Creature -->
<g id="node4" class="node">
<title>Creature</title>
<polygon fill="#add8e6" stroke="black" points="424.5,-490 361.5,-490 361.5,-454 424.5,-454 424.5,-490"/>
<text text-anchor="middle" x="393" y="-468.3" font-family="Times,serif" font-size="14.00">Creature</text>
</g>
<!-- Creature&#45;&gt;Combatant -->
<g id="edge19" class="edge">
<title>Creature&#45;&gt;Combatant</title>
<path fill="none" stroke="black" stroke-dasharray="5,2" d="M424.76,-472.28C452.05,-473.8 492.12,-479.26 522,-497 540.87,-508.2 556.49,-527.53 567.13,-543.49"/>
<polygon fill="black" stroke="black" points="564.19,-545.39 572.52,-551.93 570.09,-541.62 564.19,-545.39"/>
<text text-anchor="middle" x="485" y="-500.8" font-family="Times,serif" font-size="14.00">(implements)</text>
</g>
<!-- Creature&#45;&gt;WorldObject -->
<g id="edge20" class="edge">
<title>Creature&#45;&gt;WorldObject</title>
<path fill="none" stroke="black" stroke-dasharray="5,2" d="M416.4,-453.87C425.75,-446.94 436.99,-439.42 448,-434 478.9,-418.79 494.97,-432.34 522,-411 546.35,-391.77 563,-359.84 572.57,-336.82"/>
<polygon fill="black" stroke="black" points="575.93,-337.84 576.36,-327.25 569.42,-335.26 575.93,-337.84"/>
<text text-anchor="middle" x="485" y="-437.8" font-family="Times,serif" font-size="14.00">(implements)</text>
</g>
<!-- float32 -->
<g id="node21" class="node">
<title>float32</title>
<ellipse fill="#ffffe0" stroke="black" cx="1201.75" cy="-400" rx="36" ry="18"/>
<text text-anchor="middle" x="1201.75" y="-396.3" font-family="Times,serif" font-size="14.00">float32</text>
</g>
<!-- Creature&#45;&gt;float32 -->
<g id="edge6" class="edge">
<title>Creature&#45;&gt;float32</title>
<path fill="none" stroke="black" d="M424.67,-469.64C461.95,-466.97 526.8,-463 582.5,-463 582.5,-463 582.5,-463 1084.5,-463 1119.51,-463 1154.06,-440.64 1176.28,-422.56"/>
<polygon fill="black" stroke="black" points="1178.79,-425.03 1184.17,-415.9 1174.27,-419.68 1178.79,-425.03"/>
<text text-anchor="middle" x="842.5" y="-466.8" font-family="Times,serif" font-size="14.00">speed</text>
</g>
<!-- Entity -->
<g id="node6" class="node">
<title>Entity</title>
<polygon fill="#ffb347" stroke="black" points="948.5,-581 894.5,-581 894.5,-545 948.5,-545 948.5,-581"/>
<text text-anchor="middle" x="921.5" y="-559.3" font-family="Times,serif" font-size="14.00">Entity</text>
</g>
<!-- Identifiable -->
<g id="node8" class="node">
<title>Identifiable</title>
<polygon fill="#ffb347" stroke="black" points="1123,-581 1044,-581 1044,-545 1123,-545 1123,-581"/>
<text text-anchor="middle" x="1083.5" y="-559.3" font-family="Times,serif" font-size="14.00">Identifiable</text>
</g>
<!-- Entity&#45;&gt;Identifiable -->
<g id="edge8" class="edge">
<title>Entity&#45;&gt;Identifiable</title>
<path fill="none" stroke="black" stroke-dasharray="5,2" d="M948.56,-563C971.59,-563 1005.78,-563 1033.85,-563"/>
<polygon fill="black" stroke="black" points="1033.89,-566.5 1043.89,-563 1033.89,-559.5 1033.89,-566.5"/>
<text text-anchor="middle" x="1000.5" y="-566.8" font-family="Times,serif" font-size="14.00">(extends)</text>
</g>
<!-- Positioned -->
<g id="node15" class="node">
<title>Positioned</title>
<polygon fill="#ffb347" stroke="black" points="1120.5,-527 1046.5,-527 1046.5,-491 1120.5,-491 1120.5,-527"/>
<text text-anchor="middle" x="1083.5" y="-505.3" font-family="Times,serif" font-size="14.00">Positioned</text>
</g>
<!-- Entity&#45;&gt;Positioned -->
<g id="edge9" class="edge">
<title>Entity&#45;&gt;Positioned</title>
<path fill="none" stroke="black" stroke-dasharray="5,2" d="M948.61,-553.36C957.02,-550.31 966.38,-546.96 975,-544 995.07,-537.1 1017.37,-529.79 1036.43,-523.64"/>
<polygon fill="black" stroke="black" points="1037.63,-526.93 1046.08,-520.53 1035.49,-520.26 1037.63,-526.93"/>
<text text-anchor="middle" x="1000.5" y="-547.8" font-family="Times,serif" font-size="14.00">(extends)</text>
</g>
<!-- GameEntity&#45;&gt;Entity -->
<g id="edge11" class="edge">
<title>GameEntity&#45;&gt;Entity</title>
<path fill="none" stroke="black" stroke-dasharray="5,2" d="M798.21,-525.49C824.68,-533.61 858.89,-544.1 884.39,-551.92"/>
<polygon fill="black" stroke="black" points="883.46,-555.3 894.05,-554.89 885.52,-548.61 883.46,-555.3"/>
<text text-anchor="middle" x="842.5" y="-549.8" font-family="Times,serif" font-size="14.00">(extends)</text>
</g>
<!-- Trackable -->
<g id="node18" class="node">
<title>Trackable</title>
<polygon fill="#ffb347" stroke="black" points="957,-527 886,-527 886,-491 957,-491 957,-527"/>
<text text-anchor="middle" x="921.5" y="-505.3" font-family="Times,serif" font-size="14.00">Trackable</text>
</g>
<!-- GameEntity&#45;&gt;Trackable -->
<g id="edge12" class="edge">
<title>GameEntity&#45;&gt;Trackable</title>
<path fill="none" stroke="black" stroke-dasharray="5,2" d="M798.21,-512C821.81,-511.42 851.55,-510.69 875.8,-510.1"/>
<polygon fill="black" stroke="black" points="875.91,-513.6 885.82,-509.85 875.74,-506.6 875.91,-513.6"/>
<text text-anchor="middle" x="842.5" y="-514.8" font-family="Times,serif" font-size="14.00">(extends)</text>
</g>
<!-- Item&#45;&gt;WorldObject -->
<g id="edge18" class="edge">
<title>Item&#45;&gt;WorldObject</title>
<path fill="none" stroke="black" stroke-dasharray="5,2" d="M420.16,-102.01C453.1,-105.06 507.19,-111.93 522,-125 567.48,-165.13 578.91,-240.06 581.69,-280.83"/>
<polygon fill="black" stroke="black" points="578.2,-281.1 582.24,-290.89 585.19,-280.71 578.2,-281.1"/>
<text text-anchor="middle" x="485" y="-128.8" font-family="Times,serif" font-size="14.00">(implements)</text>
</g>
<!-- Item&#45;&gt;float32 -->
<g id="edge5" class="edge">
<title>Item&#45;&gt;float32</title>
<path fill="none" stroke="black" d="M418.39,-81.92C427.29,-76.21 437.7,-70.48 448,-67 504.93,-47.74 522.4,-53 582.5,-53 582.5,-53 582.5,-53 1084.5,-53 1151.6,-53 1187.12,-289.27 1197.48,-371.89"/>
<polygon fill="black" stroke="black" points="1194.01,-372.33 1198.7,-381.83 1200.96,-371.48 1194.01,-372.33"/>
<text text-anchor="middle" x="842.5" y="-56.8" font-family="Times,serif" font-size="14.00">weight</text>
</g>
<!-- MagicWeapon -->
<g id="node10" class="node">
<title>MagicWeapon</title>
<polygon fill="#add8e6" stroke="black" points="97,-232 0,-232 0,-196 97,-196 97,-232"/>
<text text-anchor="middle" x="48.5" y="-210.3" font-family="Times,serif" font-size="14.00">MagicWeapon</text>
</g>
<!-- Weapon -->
<g id="node19" class="node">
<title>Weapon</title>
<polygon fill="#add8e6" stroke="black" points="246,-142 184,-142 184,-106 246,-106 246,-142"/>
<text text-anchor="middle" x="215" y="-120.3" font-family="Times,serif" font-size="14.00">Weapon</text>
</g>
<!-- MagicWeapon&#45;&gt;Weapon -->
<g id="edge32" class="edge">
<title>MagicWeapon&#45;&gt;Weapon</title>
<path fill="none" stroke="black" stroke-dasharray="5,2" d="M82.79,-195.79C109.36,-181.25 146.64,-160.85 174.68,-145.51"/>
<polygon fill="black" stroke="black" points="176.71,-148.39 183.81,-140.52 173.35,-142.25 176.71,-148.39"/>
<text text-anchor="middle" x="140.5" y="-180.8" font-family="Times,serif" font-size="14.00">(extends)</text>
</g>
<!-- MagicWeapon&#45;&gt;WorldObject -->
<g id="edge33" class="edge">
<title>MagicWeapon&#45;&gt;WorldObject</title>
<path fill="none" stroke="black" stroke-dasharray="5,2" d="M97.27,-222.51C196.92,-240.28 426.31,-281.16 529.96,-299.64"/>
<polygon fill="black" stroke="black" points="529.43,-303.1 539.89,-301.41 530.66,-296.2 529.43,-303.1"/>
<text text-anchor="middle" x="301" y="-267.8" font-family="Times,serif" font-size="14.00">(implements)</text>
</g>
<!-- Merchant -->
<g id="node11" class="node">
<title>Merchant</title>
<polygon fill="#add8e6" stroke="black" points="83,-648 14,-648 14,-612 83,-612 83,-648"/>
<text text-anchor="middle" x="48.5" y="-626.3" font-family="Times,serif" font-size="14.00">Merchant</text>
</g>
<!-- Merchant&#45;&gt;Combatant -->
<g id="edge38" class="edge">
<title>Merchant&#45;&gt;Combatant</title>
<path fill="none" stroke="black" stroke-dasharray="5,2" d="M83.14,-639.25C163.25,-659.41 369.98,-700.47 522,-634 539.75,-626.24 554.75,-610.48 565.37,-596.55"/>
<polygon fill="black" stroke="black" points="568.39,-598.35 571.41,-588.19 562.72,-594.25 568.39,-598.35"/>
<text text-anchor="middle" x="301" y="-673.8" font-family="Times,serif" font-size="14.00">(implements)</text>
</g>
<!-- Merchant&#45;&gt;NPC -->
<g id="edge37" class="edge">
<title>Merchant&#45;&gt;NPC</title>
<path fill="none" stroke="black" stroke-dasharray="5,2" d="M65.87,-611.98C95.24,-579.68 156.92,-511.81 190.69,-474.65"/>
<polygon fill="black" stroke="black" points="193.31,-476.97 197.45,-467.21 188.13,-472.26 193.31,-476.97"/>
<text text-anchor="middle" x="140.5" y="-558.8" font-family="Times,serif" font-size="14.00">(extends)</text>
</g>
<!-- Merchant&#45;&gt;WorldObject -->
<g id="edge39" class="edge">
<title>Merchant&#45;&gt;WorldObject</title>
<path fill="none" stroke="black" stroke-dasharray="5,2" d="M55.08,-611.77C69,-569.78 109.61,-466.43 184,-422 280.71,-364.24 321.93,-392.76 430,-361 463.64,-351.11 500.89,-338.44 530.16,-328.09"/>
<polygon fill="black" stroke="black" points="531.51,-331.32 539.76,-324.67 529.16,-324.72 531.51,-331.32"/>
<text text-anchor="middle" x="301" y="-391.8" font-family="Times,serif" font-size="14.00">(implements)</text>
</g>
<!-- NPC&#45;&gt;Combatant -->
<g id="edge27" class="edge">
<title>NPC&#45;&gt;Combatant</title>
<path fill="none" stroke="black" stroke-dasharray="5,2" d="M242.21,-458.71C270.26,-469.02 316.11,-485.63 356,-499 417.52,-519.62 489.04,-541.73 534.99,-555.7"/>
<polygon fill="black" stroke="black" points="534.1,-559.09 544.68,-558.64 536.13,-552.39 534.1,-559.09"/>
<text text-anchor="middle" x="393" y="-525.8" font-family="Times,serif" font-size="14.00">(implements)</text>
</g>
<!-- NPC&#45;&gt;Creature -->
<g id="edge26" class="edge">
<title>NPC&#45;&gt;Creature</title>
<path fill="none" stroke="black" stroke-dasharray="5,2" d="M242.47,-446.37C267.38,-444.56 305.6,-443.52 338,-450 342.66,-450.93 347.42,-452.26 352.09,-453.81"/>
<polygon fill="black" stroke="black" points="350.91,-457.1 361.5,-457.24 353.31,-450.53 350.91,-457.1"/>
<text text-anchor="middle" x="301" y="-453.8" font-family="Times,serif" font-size="14.00">(extends)</text>
</g>
<!-- NPC&#45;&gt;WorldObject -->
<g id="edge28" class="edge">
<title>NPC&#45;&gt;WorldObject</title>
<path fill="none" stroke="black" stroke-dasharray="5,2" d="M242.18,-435.74C270.02,-421.91 315.52,-400.04 356,-384 414.66,-360.76 483.7,-338.62 530.01,-324.5"/>
<polygon fill="black" stroke="black" points="531.26,-327.78 539.82,-321.53 529.23,-321.08 531.26,-327.78"/>
<text text-anchor="middle" x="393" y="-387.8" font-family="Times,serif" font-size="14.00">(implements)</text>
</g>
<!-- Physical -->
<g id="node13" class="node">
<title>Physical</title>
<polygon fill="#ffb347" stroke="black" points="952.5,-393 890.5,-393 890.5,-357 952.5,-357 952.5,-393"/>
<text text-anchor="middle" x="921.5" y="-371.3" font-family="Times,serif" font-size="14.00">Physical</text>
</g>
<!-- Physical&#45;&gt;Positioned -->
<g id="edge10" class="edge">
<title>Physical&#45;&gt;Positioned</title>
<path fill="none" stroke="black" stroke-dasharray="5,2" d="M944.08,-393.07C972.11,-416.55 1021.18,-457.65 1052.74,-484.08"/>
<polygon fill="black" stroke="black" points="1050.84,-487.05 1060.75,-490.79 1055.33,-481.68 1050.84,-487.05"/>
<text text-anchor="middle" x="1000.5" y="-460.8" font-family="Times,serif" font-size="14.00">(extends)</text>
</g>
<!-- Physical&#45;&gt;float32 -->
<g id="edge3" class="edge">
<title>Physical&#45;&gt;float32</title>
<path fill="none" stroke="black" d="M952.54,-377.7C1001.62,-382.11 1099.24,-390.88 1156.34,-396.01"/>
<polygon fill="black" stroke="black" points="1156.23,-399.51 1166.5,-396.92 1156.86,-392.54 1156.23,-399.51"/>
<text text-anchor="middle" x="1083.5" y="-395.8" font-family="Times,serif" font-size="14.00">width</text>
</g>
<!-- Physical&#45;&gt;float32 -->
<g id="edge4" class="edge">
<title>Physical&#45;&gt;float32</title>
<path fill="none" stroke="black" d="M952.75,-369.34C992.32,-362.95 1063.6,-354.92 1123,-367 1138.15,-370.08 1154,-376.22 1167.41,-382.38"/>
<polygon fill="black" stroke="black" points="1166.17,-385.66 1176.7,-386.82 1169.19,-379.35 1166.17,-385.66"/>
<text text-anchor="middle" x="1083.5" y="-370.8" font-family="Times,serif" font-size="14.00">height</text>
</g>
<!-- Player -->
<g id="node14" class="node">
<title>Player</title>
<polygon fill="#add8e6" stroke="black" points="242,-555 188,-555 188,-519 242,-519 242,-555"/>
<text text-anchor="middle" x="215" y="-533.3" font-family="Times,serif" font-size="14.00">Player</text>
</g>
<!-- Player&#45;&gt;Combatant -->
<g id="edge30" class="edge">
<title>Player&#45;&gt;Combatant</title>
<path fill="none" stroke="black" stroke-dasharray="5,2" d="M242.12,-546.44C249.14,-548.62 256.78,-550.69 264,-552 358.78,-569.22 471.8,-571.35 534.52,-570.94"/>
<polygon fill="black" stroke="black" points="534.92,-574.44 544.88,-570.85 534.85,-567.44 534.92,-574.44"/>
<text text-anchor="middle" x="393" y="-571.8" font-family="Times,serif" font-size="14.00">(implements)</text>
</g>
<!-- Player&#45;&gt;Creature -->
<g id="edge29" class="edge">
<title>Player&#45;&gt;Creature</title>
<path fill="none" stroke="black" stroke-dasharray="5,2" d="M242.33,-535.97C267.81,-534.13 307.03,-529.03 338,-515 343.68,-512.42 353.68,-504.83 363.54,-496.72"/>
<polygon fill="black" stroke="black" points="365.92,-499.3 371.34,-490.19 361.42,-493.93 365.92,-499.3"/>
<text text-anchor="middle" x="301" y="-536.8" font-family="Times,serif" font-size="14.00">(extends)</text>
</g>
<!-- Player&#45;&gt;WorldObject -->
<g id="edge31" class="edge">
<title>Player&#45;&gt;WorldObject</title>
<path fill="none" stroke="black" stroke-dasharray="5,2" d="M242.21,-524.78C273.63,-509.73 323.83,-484.3 338,-469 350.98,-455 341.38,-442.28 356,-430 414.44,-380.9 458.24,-427.95 522,-386 541.17,-373.38 556.95,-352.66 567.58,-335.89"/>
<polygon fill="black" stroke="black" points="570.74,-337.42 572.94,-327.06 564.76,-333.79 570.74,-337.42"/>
<text text-anchor="middle" x="393" y="-433.8" font-family="Times,serif" font-size="14.00">(implements)</text>
</g>
<!-- Positioned&#45;&gt;float32 -->
<g id="edge1" class="edge">
<title>Positioned&#45;&gt;float32</title>
<path fill="none" stroke="black" d="M1120.62,-492.72C1130.1,-487.51 1139.92,-481.2 1148,-474 1163.32,-460.36 1176.68,-441.48 1186.13,-426.21"/>
<polygon fill="black" stroke="black" points="1189.36,-427.63 1191.48,-417.25 1183.35,-424.04 1189.36,-427.63"/>
<text text-anchor="middle" x="1144.5" y="-481.8" font-family="Times,serif" font-size="14.00">x</text>
</g>
<!-- Positioned&#45;&gt;float32 -->
<g id="edge2" class="edge">
<title>Positioned&#45;&gt;float32</title>
<path fill="none" stroke="black" d="M1120.67,-507.73C1130.25,-505.98 1140.11,-502.75 1148,-497 1171.24,-480.06 1185.36,-449.66 1193.06,-427.4"/>
<polygon fill="black" stroke="black" points="1196.41,-428.41 1196.16,-417.82 1189.75,-426.26 1196.41,-428.41"/>
<text text-anchor="middle" x="1144.5" y="-503.8" font-family="Times,serif" font-size="14.00">y</text>
</g>
<!-- Prop -->
<g id="node16" class="node">
<title>Prop</title>
<polygon fill="#add8e6" stroke="black" points="420,-64 366,-64 366,-28 420,-28 420,-64"/>
<text text-anchor="middle" x="393" y="-42.3" font-family="Times,serif" font-size="14.00">Prop</text>
</g>
<!-- Prop&#45;&gt;WorldObject -->
<g id="edge21" class="edge">
<title>Prop&#45;&gt;WorldObject</title>
<path fill="none" stroke="black" stroke-dasharray="5,2" d="M420.14,-47.01C449.06,-49.55 495.11,-58.07 522,-86 574.01,-140.02 582.32,-234.06 583.02,-280.86"/>
<polygon fill="black" stroke="black" points="579.52,-280.91 583.06,-290.9 586.52,-280.89 579.52,-280.91"/>
<text text-anchor="middle" x="485" y="-89.8" font-family="Times,serif" font-size="14.00">(implements)</text>
</g>
<!-- Renderable -->
<g id="node17" class="node">
<title>Renderable</title>
<polygon fill="#ffb347" stroke="black" points="795.5,-378 717.5,-378 717.5,-342 795.5,-342 795.5,-378"/>
<text text-anchor="middle" x="756.5" y="-356.3" font-family="Times,serif" font-size="14.00">Renderable</text>
</g>
<!-- Weapon&#45;&gt;Item -->
<g id="edge22" class="edge">
<title>Weapon&#45;&gt;Item</title>
<path fill="none" stroke="black" stroke-dasharray="5,2" d="M246.1,-116.5C252.01,-115.2 258.18,-113.96 264,-113 294.8,-107.93 330.12,-104.52 355.84,-102.47"/>
<polygon fill="black" stroke="black" points="356.19,-105.95 365.89,-101.7 355.65,-98.97 356.19,-105.95"/>
<text text-anchor="middle" x="301" y="-116.8" font-family="Times,serif" font-size="14.00">(extends)</text>
</g>
<!-- Weapon&#45;&gt;WorldObject -->
<g id="edge23" class="edge">
<title>Weapon&#45;&gt;WorldObject</title>
<path fill="none" stroke="black" stroke-dasharray="5,2" d="M246.21,-129.53C314.45,-142.49 477.98,-176.27 522,-210 545.95,-228.36 562.59,-259.14 572.27,-281.51"/>
<polygon fill="black" stroke="black" points="569.07,-282.92 576.12,-290.82 575.54,-280.25 569.07,-282.92"/>
<text text-anchor="middle" x="393" y="-174.8" font-family="Times,serif" font-size="14.00">(implements)</text>
</g>
<!-- Weapon&#45;&gt;float32 -->
<g id="edge7" class="edge">
<title>Weapon&#45;&gt;float32</title>
<path fill="none" stroke="black" d="M229,-105.97C255.48,-71.58 319.3,0 392,0 392,0 392,0 1084.5,0 1162.07,0 1191.27,-280.9 1198.69,-371.91"/>
<polygon fill="black" stroke="black" points="1195.21,-372.34 1199.49,-382.04 1202.19,-371.79 1195.21,-372.34"/>
<text text-anchor="middle" x="756.5" y="-3.8" font-family="Times,serif" font-size="14.00">attack_range</text>
</g>
<!-- WorldObject&#45;&gt;GameEntity -->
<g id="edge13" class="edge">
<title>WorldObject&#45;&gt;GameEntity</title>
<path fill="none" stroke="black" stroke-dasharray="5,2" d="M599.68,-327.1C630.1,-363.4 698.63,-445.16 733.79,-487.1"/>
<polygon fill="black" stroke="black" points="731.25,-489.52 740.36,-494.94 736.62,-485.02 731.25,-489.52"/>
<text text-anchor="middle" x="670.5" y="-444.8" font-family="Times,serif" font-size="14.00">(extends)</text>
</g>
<!-- WorldObject&#45;&gt;Physical -->
<g id="edge15" class="edge">
<title>WorldObject&#45;&gt;Physical</title>
<path fill="none" stroke="black" stroke-dasharray="5,2" d="M627.11,-305.9C670.9,-303.84 740.72,-303.72 799,-318 828.17,-325.15 858.76,-339.55 881.96,-352.08"/>
<polygon fill="black" stroke="black" points="880.33,-355.19 890.78,-356.96 883.72,-349.06 880.33,-355.19"/>
<text text-anchor="middle" x="756.5" y="-321.8" font-family="Times,serif" font-size="14.00">(extends)</text>
</g>
<!-- WorldObject&#45;&gt;Renderable -->
<g id="edge14" class="edge">
<title>WorldObject&#45;&gt;Renderable</title>
<path fill="none" stroke="black" stroke-dasharray="5,2" d="M627.21,-321.74C651.66,-329.03 682.41,-338.2 707.67,-345.73"/>
<polygon fill="black" stroke="black" points="706.83,-349.14 717.41,-348.64 708.83,-342.43 706.83,-349.14"/>
<text text-anchor="middle" x="670.5" y="-345.8" font-family="Times,serif" font-size="14.00">(extends)</text>
</g>
</g>
</svg>
