<?xml version="1.0" encoding="UTF-8" standalone="no"?>
<!DOCTYPE svg PUBLIC "-//W3C//DTD SVG 1.1//EN"
 "http://www.w3.org/Graphics/SVG/1.1/DTD/svg11.dtd">
<!-- Generated by graphviz version 2.43.0 (0)
 -->
<!-- Title: types Pages: 1 -->
<svg width="1260pt" height="440pt"
 viewBox="0.00 0.00 1260.49 440.50" xmlns="http://www.w3.org/2000/svg" xmlns:xlink="http://www.w3.org/1999/xlink">
<g id="graph0" class="graph" transform="scale(1 1) rotate(0) translate(4 436.5)">
<title>types</title>
<polygon fill="white" stroke="transparent" points="-4,4 -4,-436.5 1256.49,-436.5 1256.49,4 -4,4"/>
<text text-anchor="middle" x="626.25" y="-414.1" font-family="Times,serif" font-size="18.00">graph showing kind Interface</text>
<!-- Armor -->
<g id="node1" class="node">
<title>Armor</title>
<polygon fill="#add8e6" stroke="black" points="242,-372.5 188,-372.5 188,-336.5 242,-336.5 242,-372.5"/>
<text text-anchor="middle" x="215" y="-350.8" font-family="Times,serif" font-size="14.00">Armor</text>
</g>
<!-- Item -->
<g id="node9" class="node">
<title>Item</title>
<polygon fill="#add8e6" stroke="black" points="391.5,-320.5 337.5,-320.5 337.5,-284.5 391.5,-284.5 391.5,-320.5"/>
<text text-anchor="middle" x="364.5" y="-298.8" font-family="Times,serif" font-size="14.00">Item</text>
</g>
<!-- Armor&#45;&gt;Item -->
<g id="edge32" class="edge">
<title>Armor&#45;&gt;Item</title>
<path fill="none" stroke="black" stroke-dasharray="5,2" d="M242.12,-345.72C262.11,-338.96 290.36,-329.3 315,-320.5 319.21,-319 323.61,-317.4 327.97,-315.8"/>
<polygon fill="black" stroke="black" points="329.2,-319.08 337.37,-312.33 326.77,-312.51 329.2,-319.08"/>
<text text-anchor="middle" x="289.5" y="-340.3" font-family="Times,serif" font-size="14.00">(extends)</text>
</g>
<!-- Boss -->
<g id="node2" class="node">
<title>Boss</title>
<polygon fill="#add8e6" stroke="black" points="75.5,-261.5 21.5,-261.5 21.5,-225.5 75.5,-225.5 75.5,-261.5"/>
<text text-anchor="middle" x="48.5" y="-239.8" font-family="Times,serif" font-size="14.00">Boss</text>
</g>
<!-- NPC -->
<g id="node12" class="node">
<title>NPC</title>
<polygon fill="#add8e6" stroke="black" points="242,-260.5 188,-260.5 188,-224.5 242,-224.5 242,-260.5"/>
<text text-anchor="middle" x="215" y="-238.8" font-family="Times,serif" font-size="14.00">NPC</text>
</g>
<!-- Boss&#45;&gt;NPC -->
<g id="edge36" class="edge">
<title>Boss&#45;&gt;NPC</title>
<path fill="none" stroke="black" stroke-dasharray="5,2" d="M75.57,-243.34C103.04,-243.17 146.53,-242.91 177.43,-242.72"/>
<polygon fill="black" stroke="black" points="177.81,-246.22 187.78,-242.66 177.76,-239.22 177.81,-246.22"/>
<text text-anchor="middle" x="140.5" y="-246.3" font-family="Times,serif" font-size="14.00">(extends)</text>
</g>
<!-- Combatant -->
<g id="node3" class="node">
<title>Combatant</title>
<polygon fill="#ffb347" stroke="black" points="588,-301.5 511,-301.5 511,-265.5 588,-265.5 588,-301.5"/>
<text text-anchor="middle" x="549.5" y="-279.8" font-family="Times,serif" font-size="14.00">Combatant</text>
</g>
<!-- Damageable -->
<g id="node5" class="node">
<title>Damageable</title>
<polygon fill="#ffb347" stroke="black" points="765,-377.5 680,-377.5 680,-341.5 765,-341.5 765,-377.5"/>
<text text-anchor="middle" x="722.5" y="-355.8" font-family="Times,serif" font-size="14.00">Damageable</text>
</g>
<!-- Combatant&#45;&gt;Damageable -->
<g id="edge26" class="edge">
<title>Combatant&#45;&gt;Damageable</title>
<path fill="none" stroke="black" stroke-dasharray="5,2" d="M576.26,-301.51C586.73,-308.34 599.14,-315.83 611,-321.5 629.78,-330.48 651.26,-338.37 670.26,-344.59"/>
<polygon fill="black" stroke="black" points="669.34,-347.98 679.94,-347.69 671.48,-341.31 669.34,-347.98"/>
<text text-anchor="middle" x="636.5" y="-345.3" font-family="Times,serif" font-size="14.00">(extends)</text>
</g>
<!-- GameEntity -->
<g id="node7" class="node">
<title>GameEntity</title>
<polygon fill="#ffb347" stroke="black" points="764,-263.5 681,-263.5 681,-227.5 764,-227.5 764,-263.5"/>
<text text-anchor="middle" x="722.5" y="-241.8" font-family="Times,serif" font-size="14.00">GameEntity</text>
</g>
<!-- Combatant&#45;&gt;GameEntity -->
<g id="edge25" class="edge">
<title>Combatant&#45;&gt;GameEntity</title>
<path fill="none" stroke="black" stroke-dasharray="5,2" d="M587.65,-265.49C595.23,-262.4 603.26,-259.53 611,-257.5 630.13,-252.47 651.66,-249.54 670.6,-247.84"/>
<polygon fill="black" stroke="black" points="671.14,-251.31 680.82,-247.02 670.57,-244.33 671.14,-251.31"/>
<text text-anchor="middle" x="636.5" y="-261.3" font-family="Times,serif" font-size="14.00">(extends)</text>
</g>
<!-- uint16 -->
<g id="node26" class="node">
<title>uint16</title>
<ellipse fill="#ffffe0" stroke="black" cx="722.5" cy="-302.5" rx="33.29" ry="18"/>
<text text-anchor="middle" x="722.5" y="-298.8" font-family="Times,serif" font-size="14.00">uint16</text>
</g>
<!-- Combatant&#45;&gt;uint16 -->
<g id="edge23" class="edge">
<title>Combatant&#45;&gt;uint16</title>
<path fill="none" stroke="black" d="M588.31,-294.93C595.76,-296.78 603.58,-298.43 611,-299.5 633.26,-302.7 658.3,-303.6 678.91,-303.63"/>
<polygon fill="black" stroke="black" points="678.96,-307.13 688.94,-303.58 678.92,-300.13 678.96,-307.13"/>
<text text-anchor="middle" x="636.5" y="-306.3" font-family="Times,serif" font-size="14.00">attack</text>
</g>
<!-- Combatant&#45;&gt;uint16 -->
<g id="edge24" class="edge">
<title>Combatant&#45;&gt;uint16</title>
<path fill="none" stroke="black" d="M588.21,-278.7C609.94,-276.88 637.7,-276.15 662,-280.5 670.32,-281.99 679.01,-284.56 687.09,-287.44"/>
<polygon fill="black" stroke="black" points="685.98,-290.76 696.57,-291.04 688.47,-284.22 685.98,-290.76"/>
<text text-anchor="middle" x="636.5" y="-284.3" font-family="Times,serif" font-size="14.00">defense</text>
</g>
<!-- Creature -->
<g id="node4" class="node">
<title>Creature</title>
<polygon fill="#add8e6" stroke="black" points="396,-260.5 333,-260.5 333,-224.5 396,-224.5 396,-260.5"/>
<text text-anchor="middle" x="364.5" y="-238.8" font-family="Times,serif" font-size="14.00">Creature</text>
</g>
<!-- Creature&#45;&gt;Combatant -->
<g id="edge28" class="edge">
<title>Creature&#45;&gt;Combatant</title>
<path fill="none" stroke="black" stroke-dasharray="5,2" d="M396.14,-247.35C421.04,-251.5 456.98,-257.99 488,-265.5 492.31,-266.54 496.77,-267.7 501.22,-268.92"/>
<polygon fill="black" stroke="black" points="500.33,-272.31 510.9,-271.66 502.23,-265.57 500.33,-272.31"/>
<text text-anchor="middle" x="451" y="-269.3" font-family="Times,serif" font-size="14.00">(implements)</text>
</g>
<!-- WorldObject -->
<g id="node21" class="node">
<title>WorldObject</title>
<polygon fill="#ffb347" stroke="black" points="593,-206.5 506,-206.5 506,-170.5 593,-170.5 593,-206.5"/>
<text text-anchor="middle" x="549.5" y="-184.8" font-family="Times,serif" font-size="14.00">WorldObject</text>
</g>
<!-- Creature&#45;&gt;WorldObject -->
<g id="edge29" class="edge">
<title>Creature&#45;&gt;WorldObject</title>
<path fill="none" stroke="black" stroke-dasharray="5,2" d="M396.13,-233.46C423.33,-225.43 463.67,-213.53 496.01,-203.99"/>
<polygon fill="black" stroke="black" points="497.16,-207.3 505.77,-201.11 495.18,-200.58 497.16,-207.3"/>
<text text-anchor="middle" x="451" y="-231.3" font-family="Times,serif" font-size="14.00">(implements)</text>
</g>
<!-- int16 -->
<g id="node24" class="node">
<title>int16</title>
<ellipse fill="#ffffe0" stroke="black" cx="887.5" cy="-386.5" rx="28.7" ry="18"/>
<text text-anchor="middle" x="887.5" y="-382.8" font-family="Times,serif" font-size="14.00">int16</text>
</g>
<!-- Damageable&#45;&gt;int16 -->
<g id="edge7" class="edge">
<title>Damageable&#45;&gt;int16</title>
<path fill="none" stroke="black" d="M765.11,-366.51C771.11,-367.52 777.21,-368.54 783,-369.5 805.08,-373.17 829.81,-377.23 849.57,-380.47"/>
<polygon fill="black" stroke="black" points="849.26,-383.96 859.69,-382.12 850.39,-377.05 849.26,-383.96"/>
<text text-anchor="middle" x="808.5" y="-381.3" font-family="Times,serif" font-size="14.00">hp</text>
</g>
<!-- Damageable&#45;&gt;int16 -->
<g id="edge8" class="edge">
<title>Damageable&#45;&gt;int16</title>
<path fill="none" stroke="black" d="M765.24,-348.79C786.28,-345.21 811.94,-343.66 834,-350.5 844.03,-353.61 853.84,-359.37 862.22,-365.38"/>
<polygon fill="black" stroke="black" points="860.32,-368.33 870.38,-371.64 864.58,-362.78 860.32,-368.33"/>
<text text-anchor="middle" x="808.5" y="-354.3" font-family="Times,serif" font-size="14.00">max_hp</text>
</g>
<!-- Entity -->
<g id="node6" class="node">
<title>Entity</title>
<polygon fill="#ffb347" stroke="black" points="914.5,-263.5 860.5,-263.5 860.5,-227.5 914.5,-227.5 914.5,-263.5"/>
<text text-anchor="middle" x="887.5" y="-241.8" font-family="Times,serif" font-size="14.00">Entity</text>
</g>
<!-- Identifiable -->
<g id="node8" class="node">
<title>Identifiable</title>
<polygon fill="#ffb347" stroke="black" points="1089,-317.5 1010,-317.5 1010,-281.5 1089,-281.5 1089,-317.5"/>
<text text-anchor="middle" x="1049.5" y="-295.8" font-family="Times,serif" font-size="14.00">Identifiable</text>
</g>
<!-- Entity&#45;&gt;Identifiable -->
<g id="edge10" class="edge">
<title>Entity&#45;&gt;Identifiable</title>
<path fill="none" stroke="black" stroke-dasharray="5,2" d="M914.56,-254.29C937.69,-262.1 972.08,-273.71 1000.22,-283.2"/>
<polygon fill="black" stroke="black" points="999.29,-286.58 1009.89,-286.47 1001.53,-279.95 999.29,-286.58"/>
<text text-anchor="middle" x="966.5" y="-282.3" font-family="Times,serif" font-size="14.00">(extends)</text>
</g>
<!-- Positioned -->
<g id="node15" class="node">
<title>Positioned</title>
<polygon fill="#ffb347" stroke="black" points="1086.5,-141.5 1012.5,-141.5 1012.5,-105.5 1086.5,-105.5 1086.5,-141.5"/>
<text text-anchor="middle" x="1049.5" y="-119.8" font-family="Times,serif" font-size="14.00">Positioned</text>
</g>
<!-- Entity&#45;&gt;Positioned -->
<g id="edge11" class="edge">
<title>Entity&#45;&gt;Positioned</title>
<path fill="none" stroke="black" stroke-dasharray="5,2" d="M914.57,-233.21C936.38,-222.29 967.75,-205.05 992,-185.5 1005.08,-174.95 1017.85,-161.32 1027.92,-149.52"/>
<polygon fill="black" stroke="black" points="1030.72,-151.63 1034.44,-141.71 1025.35,-147.15 1030.72,-151.63"/>
<text text-anchor="middle" x="966.5" y="-221.3" font-family="Times,serif" font-size="14.00">(extends)</text>
</g>
<!-- uint32 -->
<g id="node27" class="node">
<title>uint32</title>
<ellipse fill="#ffffe0" stroke="black" cx="1049.5" cy="-245.5" rx="33.29" ry="18"/>
<text text-anchor="middle" x="1049.5" y="-241.8" font-family="Times,serif" font-size="14.00">uint32</text>
</g>
<!-- Entity&#45;&gt;uint32 -->
<g id="edge9" class="edge">
<title>Entity&#45;&gt;uint32</title>
<path fill="none" stroke="black" d="M914.56,-245.5C939.25,-245.5 976.76,-245.5 1005.81,-245.5"/>
<polygon fill="black" stroke="black" points="1006.09,-249 1016.09,-245.5 1006.09,-242 1006.09,-249"/>
<text text-anchor="middle" x="966.5" y="-249.3" font-family="Times,serif" font-size="14.00">id</text>
</g>
<!-- GameEntity&#45;&gt;Entity -->
<g id="edge18" class="edge">
<title>GameEntity&#45;&gt;Entity</title>
<path fill="none" stroke="black" stroke-dasharray="5,2" d="M764.21,-245.5C790.45,-245.5 824.29,-245.5 849.71,-245.5"/>
<polygon fill="black" stroke="black" points="850.05,-249 860.05,-245.5 850.05,-242 850.05,-249"/>
<text text-anchor="middle" x="808.5" y="-249.3" font-family="Times,serif" font-size="14.00">(extends)</text>
</g>
<!-- Trackable -->
<g id="node19" class="node">
<title>Trackable</title>
<polygon fill="#ffb347" stroke="black" points="923,-339.5 852,-339.5 852,-303.5 923,-303.5 923,-339.5"/>
<text text-anchor="middle" x="887.5" y="-317.8" font-family="Times,serif" font-size="14.00">Trackable</text>
</g>
<!-- GameEntity&#45;&gt;Trackable -->
<g id="edge19" class="edge">
<title>GameEntity&#45;&gt;Trackable</title>
<path fill="none" stroke="black" stroke-dasharray="5,2" d="M762.13,-263.51C786.25,-274.76 817.39,-289.27 842.47,-300.97"/>
<polygon fill="black" stroke="black" points="841.21,-304.25 851.76,-305.3 844.17,-297.9 841.21,-304.25"/>
<text text-anchor="middle" x="808.5" y="-300.3" font-family="Times,serif" font-size="14.00">(extends)</text>
</g>
<!-- string -->
<g id="node25" class="node">
<title>string</title>
<ellipse fill="#ffffe0" stroke="black" cx="1216.75" cy="-210.5" rx="30.59" ry="18"/>
<text text-anchor="middle" x="1216.75" y="-206.8" font-family="Times,serif" font-size="14.00">string</text>
</g>
<!-- Identifiable&#45;&gt;string -->
<g id="edge1" class="edge">
<title>Identifiable&#45;&gt;string</title>
<path fill="none" stroke="black" d="M1083.94,-281.49C1113.38,-265.63 1155.93,-242.72 1184.65,-227.25"/>
<polygon fill="black" stroke="black" points="1186.31,-230.33 1193.46,-222.5 1182.99,-224.16 1186.31,-230.33"/>
<text text-anchor="middle" x="1135" y="-271.3" font-family="Times,serif" font-size="14.00">name</text>
</g>
<!-- Item&#45;&gt;WorldObject -->
<g id="edge27" class="edge">
<title>Item&#45;&gt;WorldObject</title>
<path fill="none" stroke="black" stroke-dasharray="5,2" d="M391.59,-303.58C418,-303.42 458.97,-299.66 488,-280.5 491.26,-278.35 515.04,-241.41 531.79,-215"/>
<polygon fill="black" stroke="black" points="534.77,-216.84 537.17,-206.52 528.86,-213.09 534.77,-216.84"/>
<text text-anchor="middle" x="451" y="-305.3" font-family="Times,serif" font-size="14.00">(implements)</text>
</g>
<!-- MagicWeapon -->
<g id="node10" class="node">
<title>MagicWeapon</title>
<polygon fill="#add8e6" stroke="black" points="97,-318.5 0,-318.5 0,-282.5 97,-282.5 97,-318.5"/>
<text text-anchor="middle" x="48.5" y="-296.8" font-family="Times,serif" font-size="14.00">MagicWeapon</text>
</g>
<!-- Weapon -->
<g id="node20" class="node">
<title>Weapon</title>
<polygon fill="#add8e6" stroke="black" points="246,-318.5 184,-318.5 184,-282.5 246,-282.5 246,-318.5"/>
<text text-anchor="middle" x="215" y="-296.8" font-family="Times,serif" font-size="14.00">Weapon</text>
</g>
<!-- MagicWeapon&#45;&gt;Weapon -->
<g id="edge35" class="edge">
<title>MagicWeapon&#45;&gt;Weapon</title>
<path fill="none" stroke="black" stroke-dasharray="5,2" d="M97.08,-300.5C121.27,-300.5 150.36,-300.5 173.47,-300.5"/>
<polygon fill="black" stroke="black" points="173.63,-304 183.63,-300.5 173.63,-297 173.63,-304"/>
<text text-anchor="middle" x="140.5" y="-304.3" font-family="Times,serif" font-size="14.00">(extends)</text>
</g>
<!-- Merchant -->
<g id="node11" class="node">
<title>Merchant</title>
<polygon fill="#add8e6" stroke="black" points="83,-207.5 14,-207.5 14,-171.5 83,-171.5 83,-207.5"/>
<text text-anchor="middle" x="48.5" y="-185.8" font-family="Times,serif" font-size="14.00">Merchant</text>
</g>
<!-- Merchant&#45;&gt;NPC -->
<g id="edge37" class="edge">
<title>Merchant&#45;&gt;NPC</title>
<path fill="none" stroke="black" stroke-dasharray="5,2" d="M83.15,-198.43C106.56,-204.86 138.4,-214.03 166,-223.5 170.01,-224.87 174.17,-226.39 178.29,-227.94"/>
<polygon fill="black" stroke="black" points="177.17,-231.26 187.76,-231.6 179.69,-224.73 177.17,-231.26"/>
<text text-anchor="middle" x="140.5" y="-227.3" font-family="Times,serif" font-size="14.00">(extends)</text>
</g>
<!-- NPC&#45;&gt;Creature -->
<g id="edge33" class="edge">
<title>NPC&#45;&gt;Creature</title>
<path fill="none" stroke="black" stroke-dasharray="5,2" d="M242.03,-242.5C264.35,-242.5 296.88,-242.5 322.66,-242.5"/>
<polygon fill="black" stroke="black" points="322.89,-246 332.89,-242.5 322.89,-239 322.89,-246"/>
<text text-anchor="middle" x="289.5" y="-246.3" font-family="Times,serif" font-size="14.00">(extends)</text>
</g>
<!-- Physical -->
<g id="node13" class="node">
<title>Physical</title>
<polygon fill="#ffb347" stroke="black" points="918.5,-87.5 856.5,-87.5 856.5,-51.5 918.5,-51.5 918.5,-87.5"/>
<text text-anchor="middle" x="887.5" y="-65.8" font-family="Times,serif" font-size="14.00">Physical</text>
</g>
<!-- Physical&#45;&gt;Positioned -->
<g id="edge17" class="edge">
<title>Physical&#45;&gt;Positioned</title>
<path fill="none" stroke="black" stroke-dasharray="5,2" d="M918.7,-80.62C925.99,-83.25 933.76,-86.01 941,-88.5 961.07,-95.4 983.37,-102.71 1002.43,-108.86"/>
<polygon fill="black" stroke="black" points="1001.49,-112.23 1012.08,-111.96 1003.63,-105.57 1001.49,-112.23"/>
<text text-anchor="middle" x="966.5" y="-109.3" font-family="Times,serif" font-size="14.00">(extends)</text>
</g>
<!-- boolean -->
<g id="node22" class="node">
<title>boolean</title>
<ellipse fill="#ffffe0" stroke="black" cx="1049.5" cy="-69.5" rx="38.19" ry="18"/>
<text text-anchor="middle" x="1049.5" y="-65.8" font-family="Times,serif" font-size="14.00">boolean</text>
</g>
<!-- Physical&#45;&gt;boolean -->
<g id="edge16" class="edge">
<title>Physical&#45;&gt;boolean</title>
<path fill="none" stroke="black" d="M918.59,-69.5C941.69,-69.5 974.03,-69.5 1000.66,-69.5"/>
<polygon fill="black" stroke="black" points="1000.93,-73 1010.93,-69.5 1000.93,-66 1000.93,-73"/>
<text text-anchor="middle" x="966.5" y="-73.3" font-family="Times,serif" font-size="14.00">solid</text>
</g>
<!-- float32 -->
<g id="node23" class="node">
<title>float32</title>
<ellipse fill="#ffffe0" stroke="black" cx="1216.75" cy="-51.5" rx="36" ry="18"/>
<text text-anchor="middle" x="1216.75" y="-47.8" font-family="Times,serif" font-size="14.00">float32</text>
</g>
<!-- Physical&#45;&gt;float32 -->
<g id="edge14" class="edge">
<title>Physical&#45;&gt;float32</title>
<path fill="none" stroke="black" d="M918.72,-55.89C942.87,-45.8 977.87,-32.9 1010,-27.5 1067.17,-17.9 1133.93,-29.9 1175.53,-40.11"/>
<polygon fill="black" stroke="black" points="1174.73,-43.52 1185.28,-42.59 1176.45,-36.74 1174.73,-43.52"/>
<text text-anchor="middle" x="1049.5" y="-31.3" font-family="Times,serif" font-size="14.00">width</text>
</g>
<!-- Physical&#45;&gt;float32 -->
<g id="edge15" class="edge">
<title>Physical&#45;&gt;float32</title>
<path fill="none" stroke="black" d="M907.72,-51.29C917.17,-43.11 929.06,-33.89 941,-27.5 969.37,-12.3 978.19,-10.45 1010,-5.5 1077.71,5.03 1098.92,-0.22 1163,-24.5 1169.66,-27.02 1176.57,-30.15 1183.11,-33.38"/>
<polygon fill="black" stroke="black" points="1181.87,-36.67 1192.36,-38.12 1185.06,-30.44 1181.87,-36.67"/>
<text text-anchor="middle" x="1049.5" y="-9.3" font-family="Times,serif" font-size="14.00">height</text>
</g>
<!-- Player -->
<g id="node14" class="node">
<title>Player</title>
<polygon fill="#add8e6" stroke="black" points="242,-206.5 188,-206.5 188,-170.5 242,-170.5 242,-206.5"/>
<text text-anchor="middle" x="215" y="-184.8" font-family="Times,serif" font-size="14.00">Player</text>
</g>
<!-- Player&#45;&gt;Creature -->
<g id="edge34" class="edge">
<title>Player&#45;&gt;Creature</title>
<path fill="none" stroke="black" stroke-dasharray="5,2" d="M242.14,-197.47C262.15,-204.41 290.4,-214.33 315,-223.5 317.7,-224.5 320.48,-225.56 323.28,-226.62"/>
<polygon fill="black" stroke="black" points="322.18,-229.95 332.77,-230.28 324.7,-223.42 322.18,-229.95"/>
<text text-anchor="middle" x="289.5" y="-227.3" font-family="Times,serif" font-size="14.00">(extends)</text>
</g>
<!-- Positioned&#45;&gt;float32 -->
<g id="edge2" class="edge">
<title>Positioned&#45;&gt;float32</title>
<path fill="none" stroke="black" d="M1078.83,-105.49C1082.43,-102.68 1085.92,-99.65 1089,-96.5 1099.08,-86.18 1094.88,-77.32 1107,-69.5 1125.7,-57.42 1149.87,-52.6 1170.67,-50.94"/>
<polygon fill="black" stroke="black" points="1171.1,-54.42 1180.88,-50.35 1170.69,-47.43 1171.1,-54.42"/>
<text text-anchor="middle" x="1135" y="-73.3" font-family="Times,serif" font-size="14.00">x</text>
</g>
<!-- Positioned&#45;&gt;float32 -->
<g id="edge3" class="edge">
<title>Positioned&#45;&gt;float32</title>
<path fill="none" stroke="black" d="M1086.54,-113.28C1109.03,-106.35 1138.29,-96.32 1163,-84.5 1170.67,-80.83 1178.62,-76.29 1185.94,-71.77"/>
<polygon fill="black" stroke="black" points="1188.26,-74.44 1194.81,-66.12 1184.5,-68.54 1188.26,-74.44"/>
<text text-anchor="middle" x="1135" y="-110.3" font-family="Times,serif" font-size="14.00">y</text>
</g>
<!-- Prop -->
<g id="node16" class="node">
<title>Prop</title>
<polygon fill="#add8e6" stroke="black" points="391.5,-206.5 337.5,-206.5 337.5,-170.5 391.5,-170.5 391.5,-206.5"/>
<text text-anchor="middle" x="364.5" y="-184.8" font-family="Times,serif" font-size="14.00">Prop</text>
</g>
<!-- Prop&#45;&gt;WorldObject -->
<g id="edge30" class="edge">
<title>Prop&#45;&gt;WorldObject</title>
<path fill="none" stroke="black" stroke-dasharray="5,2" d="M391.72,-188.5C418.68,-188.5 461.41,-188.5 495.46,-188.5"/>
<polygon fill="black" stroke="black" points="495.72,-192 505.72,-188.5 495.72,-185 495.72,-192"/>
<text text-anchor="middle" x="451" y="-192.3" font-family="Times,serif" font-size="14.00">(implements)</text>
</g>
<!-- Renderable -->
<g id="node17" class="node">
<title>Renderable</title>
<polygon fill="#ffb347" stroke="black" points="761.5,-187.5 683.5,-187.5 683.5,-151.5 761.5,-151.5 761.5,-187.5"/>
<text text-anchor="middle" x="722.5" y="-165.8" font-family="Times,serif" font-size="14.00">Renderable</text>
</g>
<!-- Renderable&#45;&gt;string -->
<g id="edge5" class="edge">
<title>Renderable&#45;&gt;string</title>
<path fill="none" stroke="black" d="M761.85,-166.47C814.05,-162.95 910.34,-158.55 992,-166.5 1058.53,-172.98 1134.63,-190.05 1178.74,-200.93"/>
<polygon fill="black" stroke="black" points="1177.89,-204.32 1188.44,-203.35 1179.59,-197.53 1177.89,-204.32"/>
<text text-anchor="middle" x="966.5" y="-170.3" font-family="Times,serif" font-size="14.00">sprite</text>
</g>
<!-- uint8 -->
<g id="node29" class="node">
<title>uint8</title>
<ellipse fill="#ffffe0" stroke="black" cx="887.5" cy="-123.5" rx="28.7" ry="18"/>
<text text-anchor="middle" x="887.5" y="-119.8" font-family="Times,serif" font-size="14.00">uint8</text>
</g>
<!-- Renderable&#45;&gt;uint8 -->
<g id="edge6" class="edge">
<title>Renderable&#45;&gt;uint8</title>
<path fill="none" stroke="black" d="M756.15,-151.48C764.69,-147.36 774.02,-143.36 783,-140.5 804.28,-133.73 828.92,-129.54 848.82,-127.02"/>
<polygon fill="black" stroke="black" points="849.23,-130.49 858.75,-125.85 848.41,-123.54 849.23,-130.49"/>
<text text-anchor="middle" x="808.5" y="-144.3" font-family="Times,serif" font-size="14.00">layer</text>
</g>
<!-- Timed -->
<g id="node18" class="node">
<title>Timed</title>
<polygon fill="#ffb347" stroke="black" points="1076.5,-377.5 1022.5,-377.5 1022.5,-341.5 1076.5,-341.5 1076.5,-377.5"/>
<text text-anchor="middle" x="1049.5" y="-355.8" font-family="Times,serif" font-size="14.00">Timed</text>
</g>
<!-- uint64 -->
<g id="node28" class="node">
<title>uint64</title>
<ellipse fill="#ffffe0" stroke="black" cx="1216.75" cy="-359.5" rx="33.29" ry="18"/>
<text text-anchor="middle" x="1216.75" y="-355.8" font-family="Times,serif" font-size="14.00">uint64</text>
</g>
<!-- Timed&#45;&gt;uint64 -->
<g id="edge4" class="edge">
<title>Timed&#45;&gt;uint64</title>
<path fill="none" stroke="black" d="M1076.68,-359.5C1102.57,-359.5 1142.62,-359.5 1173.1,-359.5"/>
<polygon fill="black" stroke="black" points="1173.45,-363 1183.45,-359.5 1173.45,-356 1173.45,-363"/>
<text text-anchor="middle" x="1135" y="-363.3" font-family="Times,serif" font-size="14.00">created_at</text>
</g>
<!-- Trackable&#45;&gt;Identifiable -->
<g id="edge12" class="edge">
<title>Trackable&#45;&gt;Identifiable</title>
<path fill="none" stroke="black" stroke-dasharray="5,2" d="M923.22,-316.72C945.67,-313.64 975.23,-309.57 999.99,-306.17"/>
<polygon fill="black" stroke="black" points="1000.49,-309.63 1009.92,-304.8 999.54,-302.7 1000.49,-309.63"/>
<text text-anchor="middle" x="966.5" y="-317.3" font-family="Times,serif" font-size="14.00">(extends)</text>
</g>
<!-- Trackable&#45;&gt;Timed -->
<g id="edge13" class="edge">
<title>Trackable&#45;&gt;Timed</title>
<path fill="none" stroke="black" stroke-dasharray="5,2" d="M923.22,-329.74C949.51,-335.99 985.52,-344.54 1012.19,-350.88"/>
<polygon fill="black" stroke="black" points="1011.74,-354.36 1022.28,-353.27 1013.35,-347.55 1011.74,-354.36"/>
<text text-anchor="middle" x="966.5" y="-348.3" font-family="Times,serif" font-size="14.00">(extends)</text>
</g>
<!-- Weapon&#45;&gt;Item -->
<g id="edge31" class="edge">
<title>Weapon&#45;&gt;Item</title>
<path fill="none" stroke="black" stroke-dasharray="5,2" d="M246.2,-300.91C269.66,-301.23 302.26,-301.67 327.14,-302.01"/>
<polygon fill="black" stroke="black" points="327.24,-305.51 337.29,-302.14 327.33,-298.51 327.24,-305.51"/>
<text text-anchor="middle" x="289.5" y="-305.3" font-family="Times,serif" font-size="14.00">(extends)</text>
</g>
<!-- WorldObject&#45;&gt;GameEntity -->
<g id="edge20" class="edge">
<title>WorldObject&#45;&gt;GameEntity</title>
<path fill="none" stroke="black" stroke-dasharray="5,2" d="M593.21,-202.74C616.88,-210.62 646.44,-220.48 671.22,-228.74"/>
<polygon fill="black" stroke="black" points="670.21,-232.09 680.81,-231.93 672.43,-225.45 670.21,-232.09"/>
<text text-anchor="middle" x="636.5" y="-228.3" font-family="Times,serif" font-size="14.00">(extends)</text>
</g>
<!-- WorldObject&#45;&gt;Physical -->
<g id="edge22" class="edge">
<title>WorldObject&#45;&gt;Physical</title>
<path fill="none" stroke="black" stroke-dasharray="5,2" d="M584.73,-170.46C610.45,-157.37 646.82,-139.88 680,-127.5 736.57,-106.4 804.31,-88.76 846.39,-78.66"/>
<polygon fill="black" stroke="black" points="847.33,-82.04 856.25,-76.32 845.71,-75.23 847.33,-82.04"/>
<text text-anchor="middle" x="722.5" y="-131.3" font-family="Times,serif" font-size="14.00">(extends)</text>
</g>
<!-- WorldObject&#45;&gt;Renderable -->
<g id="edge21" class="edge">
<title>WorldObject&#45;&gt;Renderable</title>
<path fill="none" stroke="black" stroke-dasharray="5,2" d="M593.13,-174.21C599.07,-172.69 605.15,-171.38 611,-170.5 631.26,-167.45 653.85,-166.78 673.3,-167.02"/>
<polygon fill="black" stroke="black" points="673.38,-170.52 683.45,-167.23 673.52,-163.52 673.38,-170.52"/>
<text text-anchor="middle" x="636.5" y="-174.3" font-family="Times,serif" font-size="14.00">(extends)</text>
</g>
</g>
</svg>
