<?xml version="1.0" encoding="UTF-8" standalone="no"?>
<!DOCTYPE svg PUBLIC "-//W3C//DTD SVG 1.1//EN"
 "http://www.w3.org/Graphics/SVG/1.1/DTD/svg11.dtd">
<!-- Generated by graphviz version 2.43.0 (0)
 -->
<!-- Title: types Pages: 1 -->
<svg width="1264pt" height="480pt"
 viewBox="0.00 0.00 1264.09 480.00" xmlns="http://www.w3.org/2000/svg" xmlns:xlink="http://www.w3.org/1999/xlink">
<g id="graph0" class="graph" transform="scale(1 1) rotate(0) translate(4 476)">
<title>types</title>
<polygon fill="white" stroke="transparent" points="-4,4 -4,-476 1260.09,-476 1260.09,4 -4,4"/>
<text text-anchor="middle" x="628.05" y="-453.6" font-family="Times,serif" font-size="18.00">graph showing type string</text>
<!-- Armor -->
<g id="node1" class="node">
<title>Armor</title>
<polygon fill="#add8e6" stroke="black" points="242,-362 188,-362 188,-326 242,-326 242,-362"/>
<text text-anchor="middle" x="215" y="-340.3" font-family="Times,serif" font-size="14.00">Armor</text>
</g>
<!-- Item -->
<g id="node9" class="node">
<title>Item</title>
<polygon fill="#add8e6" stroke="black" points="391.5,-256 337.5,-256 337.5,-220 391.5,-220 391.5,-256"/>
<text text-anchor="middle" x="364.5" y="-234.3" font-family="Times,serif" font-size="14.00">Item</text>
</g>
<!-- Armor&#45;&gt;Item -->
<g id="edge25" class="edge">
<title>Armor&#45;&gt;Item</title>
<path fill="none" stroke="black" stroke-dasharray="5,2" d="M241.36,-325.78C265.73,-308.26 302.74,-281.66 329.63,-262.34"/>
<polygon fill="black" stroke="black" points="331.9,-265.02 337.98,-256.34 327.82,-259.33 331.9,-265.02"/>
<text text-anchor="middle" x="289.5" y="-309.8" font-family="Times,serif" font-size="14.00">(extends)</text>
</g>
<!-- string -->
<g id="node22" class="node">
<title>string</title>
<ellipse fill="#ffffe0" stroke="black" cx="1225.55" cy="-177" rx="30.59" ry="18"/>
<text text-anchor="middle" x="1225.55" y="-173.3" font-family="Times,serif" font-size="14.00">string</text>
</g>
<!-- Armor&#45;&gt;string -->
<g id="edge3" class="edge">
<title>Armor&#45;&gt;string</title>
<path fill="none" stroke="black" d="M242.01,-356.15C270.99,-368.55 319.57,-386 363.5,-386 363.5,-386 363.5,-386 1089.5,-386 1174.53,-386 1208.64,-262.47 1219.86,-205.35"/>
<polygon fill="black" stroke="black" points="1223.37,-205.65 1221.76,-195.18 1216.49,-204.37 1223.37,-205.65"/>
<text text-anchor="middle" x="734.5" y="-389.8" font-family="Times,serif" font-size="14.00">slot</text>
</g>
<!-- Boss -->
<g id="node2" class="node">
<title>Boss</title>
<polygon fill="#add8e6" stroke="black" points="75.5,-258 21.5,-258 21.5,-222 75.5,-222 75.5,-258"/>
<text text-anchor="middle" x="48.5" y="-236.3" font-family="Times,serif" font-size="14.00">Boss</text>
</g>
<!-- NPC -->
<g id="node12" class="node">
<title>NPC</title>
<polygon fill="#add8e6" stroke="black" points="242,-217 188,-217 188,-181 242,-181 242,-217"/>
<text text-anchor="middle" x="215" y="-195.3" font-family="Times,serif" font-size="14.00">NPC</text>
</g>
<!-- Boss&#45;&gt;NPC -->
<g id="edge29" class="edge">
<title>Boss&#45;&gt;NPC</title>
<path fill="none" stroke="black" stroke-dasharray="5,2" d="M75.57,-233.5C103.16,-226.63 146.91,-215.72 177.83,-208.01"/>
<polygon fill="black" stroke="black" points="178.93,-211.35 187.78,-205.53 177.23,-204.56 178.93,-211.35"/>
<text text-anchor="middle" x="140.5" y="-226.8" font-family="Times,serif" font-size="14.00">(extends)</text>
</g>
<!-- Boss&#45;&gt;string -->
<g id="edge7" class="edge">
<title>Boss&#45;&gt;string</title>
<path fill="none" stroke="black" d="M55.38,-258.12C71.98,-305.43 123.95,-429 214,-429 214,-429 214,-429 1089.5,-429 1190.12,-429 1216.07,-270.99 1222.51,-205.21"/>
<polygon fill="black" stroke="black" points="1226.01,-205.4 1223.41,-195.12 1219.03,-204.77 1226.01,-205.4"/>
<text text-anchor="middle" x="642.5" y="-432.8" font-family="Times,serif" font-size="14.00">title</text>
</g>
<!-- Combatant -->
<g id="node3" class="node">
<title>Combatant</title>
<polygon fill="#ffb347" stroke="black" points="588,-262 511,-262 511,-226 588,-226 588,-262"/>
<text text-anchor="middle" x="549.5" y="-240.3" font-family="Times,serif" font-size="14.00">Combatant</text>
</g>
<!-- Damageable -->
<g id="node5" class="node">
<title>Damageable</title>
<polygon fill="#ffb347" stroke="black" points="777,-299 692,-299 692,-263 777,-263 777,-299"/>
<text text-anchor="middle" x="734.5" y="-277.3" font-family="Times,serif" font-size="14.00">Damageable</text>
</g>
<!-- Combatant&#45;&gt;Damageable -->
<g id="edge19" class="edge">
<title>Combatant&#45;&gt;Damageable</title>
<path fill="none" stroke="black" stroke-dasharray="5,2" d="M588.24,-252.22C595.77,-253.83 603.63,-255.49 611,-257 634.18,-261.76 659.88,-266.83 681.72,-271.07"/>
<polygon fill="black" stroke="black" points="681.31,-274.56 691.79,-273.02 682.64,-267.68 681.31,-274.56"/>
<text text-anchor="middle" x="642.5" y="-272.8" font-family="Times,serif" font-size="14.00">(extends)</text>
</g>
<!-- GameEntity -->
<g id="node7" class="node">
<title>GameEntity</title>
<polygon fill="#ffb347" stroke="black" points="776,-245 693,-245 693,-209 776,-209 776,-245"/>
<text text-anchor="middle" x="734.5" y="-223.3" font-family="Times,serif" font-size="14.00">GameEntity</text>
</g>
<!-- Combatant&#45;&gt;GameEntity -->
<g id="edge18" class="edge">
<title>Combatant&#45;&gt;GameEntity</title>
<path fill="none" stroke="black" stroke-dasharray="5,2" d="M588.42,-240.48C615.67,-237.95 652.71,-234.5 682.55,-231.73"/>
<polygon fill="black" stroke="black" points="683.14,-235.19 692.77,-230.78 682.49,-228.22 683.14,-235.19"/>
<text text-anchor="middle" x="642.5" y="-241.8" font-family="Times,serif" font-size="14.00">(extends)</text>
</g>
<!-- Creature -->
<g id="node4" class="node">
<title>Creature</title>
<polygon fill="#add8e6" stroke="black" points="396,-202 333,-202 333,-166 396,-166 396,-202"/>
<text text-anchor="middle" x="364.5" y="-180.3" font-family="Times,serif" font-size="14.00">Creature</text>
</g>
<!-- Creature&#45;&gt;Combatant -->
<g id="edge21" class="edge">
<title>Creature&#45;&gt;Combatant</title>
<path fill="none" stroke="black" stroke-dasharray="5,2" d="M386.54,-202.18C396.73,-210.63 408.02,-219.38 414,-222 441.26,-233.96 474.21,-239.47 500.67,-241.99"/>
<polygon fill="black" stroke="black" points="500.58,-245.5 510.84,-242.85 501.16,-238.52 500.58,-245.5"/>
<text text-anchor="middle" x="451" y="-243.8" font-family="Times,serif" font-size="14.00">(implements)</text>
</g>
<!-- WorldObject -->
<g id="node21" class="node">
<title>WorldObject</title>
<polygon fill="#ffb347" stroke="black" points="593,-186 506,-186 506,-150 593,-150 593,-186"/>
<text text-anchor="middle" x="549.5" y="-164.3" font-family="Times,serif" font-size="14.00">WorldObject</text>
</g>
<!-- Creature&#45;&gt;WorldObject -->
<g id="edge22" class="edge">
<title>Creature&#45;&gt;WorldObject</title>
<path fill="none" stroke="black" stroke-dasharray="5,2" d="M396.23,-173.02C402.06,-171.36 408.16,-169.9 414,-169 440.65,-164.87 470.63,-164.26 495.51,-164.84"/>
<polygon fill="black" stroke="black" points="495.74,-168.35 505.84,-165.16 495.95,-161.35 495.74,-168.35"/>
<text text-anchor="middle" x="451" y="-172.8" font-family="Times,serif" font-size="14.00">(implements)</text>
</g>
<!-- Entity -->
<g id="node6" class="node">
<title>Entity</title>
<polygon fill="#ffb347" stroke="black" points="953.5,-281 899.5,-281 899.5,-245 953.5,-245 953.5,-281"/>
<text text-anchor="middle" x="926.5" y="-259.3" font-family="Times,serif" font-size="14.00">Entity</text>
</g>
<!-- Identifiable -->
<g id="node8" class="node">
<title>Identifiable</title>
<polygon fill="#ffb347" stroke="black" points="1128,-245 1049,-245 1049,-209 1128,-209 1128,-245"/>
<text text-anchor="middle" x="1088.5" y="-223.3" font-family="Times,serif" font-size="14.00">Identifiable</text>
</g>
<!-- Entity&#45;&gt;Identifiable -->
<g id="edge9" class="edge">
<title>Entity&#45;&gt;Identifiable</title>
<path fill="none" stroke="black" stroke-dasharray="5,2" d="M953.56,-257.14C976.59,-251.95 1010.78,-244.26 1038.85,-237.95"/>
<polygon fill="black" stroke="black" points="1039.9,-241.3 1048.89,-235.69 1038.36,-234.47 1039.9,-241.3"/>
<text text-anchor="middle" x="1005.5" y="-253.8" font-family="Times,serif" font-size="14.00">(extends)</text>
</g>
<!-- Positioned -->
<g id="node15" class="node">
<title>Positioned</title>
<polygon fill="#ffb347" stroke="black" points="1125.5,-305 1051.5,-305 1051.5,-269 1125.5,-269 1125.5,-305"/>
<text text-anchor="middle" x="1088.5" y="-283.3" font-family="Times,serif" font-size="14.00">Positioned</text>
</g>
<!-- Entity&#45;&gt;Positioned -->
<g id="edge10" class="edge">
<title>Entity&#45;&gt;Positioned</title>
<path fill="none" stroke="black" stroke-dasharray="5,2" d="M953.56,-266.91C977.22,-270.46 1012.66,-275.77 1041.15,-280.05"/>
<polygon fill="black" stroke="black" points="1040.88,-283.55 1051.29,-281.57 1041.92,-276.62 1040.88,-283.55"/>
<text text-anchor="middle" x="1005.5" y="-280.8" font-family="Times,serif" font-size="14.00">(extends)</text>
</g>
<!-- GameEntity&#45;&gt;Entity -->
<g id="edge13" class="edge">
<title>GameEntity&#45;&gt;Entity</title>
<path fill="none" stroke="black" stroke-dasharray="5,2" d="M776.13,-235.29C782.44,-236.55 788.9,-237.82 795,-239 826.95,-245.16 863.37,-251.83 889.6,-256.57"/>
<polygon fill="black" stroke="black" points="889.01,-260.02 899.48,-258.35 890.26,-253.13 889.01,-260.02"/>
<text text-anchor="middle" x="834" y="-256.8" font-family="Times,serif" font-size="14.00">(extends)</text>
</g>
<!-- Trackable -->
<g id="node19" class="node">
<title>Trackable</title>
<polygon fill="#ffb347" stroke="black" points="962,-227 891,-227 891,-191 962,-191 962,-227"/>
<text text-anchor="middle" x="926.5" y="-205.3" font-family="Times,serif" font-size="14.00">Trackable</text>
</g>
<!-- GameEntity&#45;&gt;Trackable -->
<g id="edge14" class="edge">
<title>GameEntity&#45;&gt;Trackable</title>
<path fill="none" stroke="black" stroke-dasharray="5,2" d="M776.26,-223.14C806.92,-220.23 848.92,-216.25 880.56,-213.26"/>
<polygon fill="black" stroke="black" points="881.23,-216.71 890.86,-212.28 880.57,-209.74 881.23,-216.71"/>
<text text-anchor="middle" x="834" y="-224.8" font-family="Times,serif" font-size="14.00">(extends)</text>
</g>
<!-- Identifiable&#45;&gt;string -->
<g id="edge1" class="edge">
<title>Identifiable&#45;&gt;string</title>
<path fill="none" stroke="black" d="M1128.2,-212.67C1147.58,-205.5 1170.86,-196.88 1189.68,-189.91"/>
<polygon fill="black" stroke="black" points="1190.91,-193.19 1199.07,-186.43 1188.48,-186.62 1190.91,-193.19"/>
<text text-anchor="middle" x="1161.5" y="-207.8" font-family="Times,serif" font-size="14.00">name</text>
</g>
<!-- Item&#45;&gt;WorldObject -->
<g id="edge20" class="edge">
<title>Item&#45;&gt;WorldObject</title>
<path fill="none" stroke="black" stroke-dasharray="5,2" d="M387.11,-219.76C395.14,-213.71 404.6,-207.41 414,-203 444.75,-188.59 455.14,-192.56 488,-184 490.62,-183.32 493.3,-182.62 496.01,-181.91"/>
<polygon fill="black" stroke="black" points="497.09,-185.24 505.87,-179.31 495.31,-178.47 497.09,-185.24"/>
<text text-anchor="middle" x="451" y="-206.8" font-family="Times,serif" font-size="14.00">(implements)</text>
</g>
<!-- MagicWeapon -->
<g id="node10" class="node">
<title>MagicWeapon</title>
<polygon fill="#add8e6" stroke="black" points="97,-87 0,-87 0,-51 97,-51 97,-87"/>
<text text-anchor="middle" x="48.5" y="-65.3" font-family="Times,serif" font-size="14.00">MagicWeapon</text>
</g>
<!-- Weapon -->
<g id="node20" class="node">
<title>Weapon</title>
<polygon fill="#add8e6" stroke="black" points="246,-162 184,-162 184,-126 246,-126 246,-162"/>
<text text-anchor="middle" x="215" y="-140.3" font-family="Times,serif" font-size="14.00">Weapon</text>
</g>
<!-- MagicWeapon&#45;&gt;Weapon -->
<g id="edge28" class="edge">
<title>MagicWeapon&#45;&gt;Weapon</title>
<path fill="none" stroke="black" stroke-dasharray="5,2" d="M89.32,-87.16C115.23,-98.97 148.89,-114.31 174.7,-126.08"/>
<polygon fill="black" stroke="black" points="173.27,-129.28 183.82,-130.24 176.18,-122.91 173.27,-129.28"/>
<text text-anchor="middle" x="140.5" y="-124.8" font-family="Times,serif" font-size="14.00">(extends)</text>
</g>
<!-- MagicWeapon&#45;&gt;string -->
<g id="edge6" class="edge">
<title>MagicWeapon&#45;&gt;string</title>
<path fill="none" stroke="black" d="M74.9,-50.87C106.09,-30.43 161.35,0 214,0 214,0 214,0 1089.5,0 1097.32,0 1173.38,-52.51 1177,-57 1198.98,-84.31 1211.85,-123.06 1218.54,-149.06"/>
<polygon fill="black" stroke="black" points="1215.2,-150.13 1220.96,-159.02 1222,-148.48 1215.2,-150.13"/>
<text text-anchor="middle" x="642.5" y="-3.8" font-family="Times,serif" font-size="14.00">spell_name</text>
</g>
<!-- Merchant -->
<g id="node11" class="node">
<title>Merchant</title>
<polygon fill="#add8e6" stroke="black" points="83,-183 14,-183 14,-147 83,-147 83,-183"/>
<text text-anchor="middle" x="48.5" y="-161.3" font-family="Times,serif" font-size="14.00">Merchant</text>
</g>
<!-- Merchant&#45;&gt;NPC -->
<g id="edge30" class="edge">
<title>Merchant&#45;&gt;NPC</title>
<path fill="none" stroke="black" stroke-dasharray="5,2" d="M83.1,-169.73C106.48,-173.28 138.31,-178.61 166,-185 169.93,-185.91 174.02,-186.95 178.07,-188.04"/>
<polygon fill="black" stroke="black" points="177.41,-191.49 187.98,-190.83 179.3,-184.75 177.41,-191.49"/>
<text text-anchor="middle" x="140.5" y="-188.8" font-family="Times,serif" font-size="14.00">(extends)</text>
</g>
<!-- Merchant&#45;&gt;string -->
<g id="edge8" class="edge">
<title>Merchant&#45;&gt;string</title>
<path fill="none" stroke="black" d="M61.08,-146.8C85.03,-111.69 143.64,-38 214,-38 214,-38 214,-38 1089.5,-38 1151.36,-38 1194.02,-109.68 1213.15,-150.1"/>
<polygon fill="black" stroke="black" points="1210.06,-151.76 1217.4,-159.4 1216.43,-148.85 1210.06,-151.76"/>
<text text-anchor="middle" x="642.5" y="-41.8" font-family="Times,serif" font-size="14.00">specialty</text>
</g>
<!-- NPC&#45;&gt;Creature -->
<g id="edge26" class="edge">
<title>NPC&#45;&gt;Creature</title>
<path fill="none" stroke="black" stroke-dasharray="5,2" d="M242.03,-196.35C264.35,-194.08 296.88,-190.78 322.66,-188.15"/>
<polygon fill="black" stroke="black" points="323.29,-191.61 332.89,-187.11 322.58,-184.64 323.29,-191.61"/>
<text text-anchor="middle" x="289.5" y="-196.8" font-family="Times,serif" font-size="14.00">(extends)</text>
</g>
<!-- NPC&#45;&gt;string -->
<g id="edge4" class="edge">
<title>NPC&#45;&gt;string</title>
<path fill="none" stroke="black" d="M217.56,-217.26C220.94,-244.51 231.48,-295.34 264,-321 299.06,-348.66 318.84,-335 363.5,-335 363.5,-335 363.5,-335 1089.5,-335 1157.43,-335 1198.49,-249.55 1215.45,-204.33"/>
<polygon fill="black" stroke="black" points="1218.79,-205.41 1218.89,-194.82 1212.2,-203.03 1218.79,-205.41"/>
<text text-anchor="middle" x="734.5" y="-338.8" font-family="Times,serif" font-size="14.00">greeting</text>
</g>
<!-- Physical -->
<g id="node13" class="node">
<title>Physical</title>
<polygon fill="#ffb347" stroke="black" points="765.5,-191 703.5,-191 703.5,-155 765.5,-155 765.5,-191"/>
<text text-anchor="middle" x="734.5" y="-169.3" font-family="Times,serif" font-size="14.00">Physical</text>
</g>
<!-- Player -->
<g id="node14" class="node">
<title>Player</title>
<polygon fill="#add8e6" stroke="black" points="242,-106 188,-106 188,-70 242,-70 242,-106"/>
<text text-anchor="middle" x="215" y="-84.3" font-family="Times,serif" font-size="14.00">Player</text>
</g>
<!-- Player&#45;&gt;Creature -->
<g id="edge27" class="edge">
<title>Player&#45;&gt;Creature</title>
<path fill="none" stroke="black" stroke-dasharray="5,2" d="M242.03,-104.94C265.66,-120.32 300.74,-143.15 327.14,-160.33"/>
<polygon fill="black" stroke="black" points="325.43,-163.4 335.73,-165.92 329.25,-157.53 325.43,-163.4"/>
<text text-anchor="middle" x="289.5" y="-153.8" font-family="Times,serif" font-size="14.00">(extends)</text>
</g>
<!-- Player&#45;&gt;string -->
<g id="edge5" class="edge">
<title>Player&#45;&gt;string</title>
<path fill="none" stroke="black" d="M242.11,-86.86C271.58,-85.68 320.98,-84 363.5,-84 363.5,-84 363.5,-84 1089.5,-84 1137.95,-84 1181.67,-125.11 1205.53,-152.66"/>
<polygon fill="black" stroke="black" points="1202.9,-154.96 1212.01,-160.37 1208.26,-150.46 1202.9,-154.96"/>
<text text-anchor="middle" x="734.5" y="-87.8" font-family="Times,serif" font-size="14.00">class_name</text>
</g>
<!-- Prop -->
<g id="node16" class="node">
<title>Prop</title>
<polygon fill="#add8e6" stroke="black" points="391.5,-148 337.5,-148 337.5,-112 391.5,-112 391.5,-148"/>
<text text-anchor="middle" x="364.5" y="-126.3" font-family="Times,serif" font-size="14.00">Prop</text>
</g>
<!-- Prop&#45;&gt;WorldObject -->
<g id="edge23" class="edge">
<title>Prop&#45;&gt;WorldObject</title>
<path fill="none" stroke="black" stroke-dasharray="5,2" d="M391.64,-131.37C416.67,-133.11 455.35,-136.92 488,-145 490.76,-145.68 493.57,-146.46 496.38,-147.29"/>
<polygon fill="black" stroke="black" points="495.35,-150.64 505.94,-150.36 497.49,-143.97 495.35,-150.64"/>
<text text-anchor="middle" x="451" y="-148.8" font-family="Times,serif" font-size="14.00">(implements)</text>
</g>
<!-- Renderable -->
<g id="node17" class="node">
<title>Renderable</title>
<polygon fill="#ffb347" stroke="black" points="873,-145 795,-145 795,-109 873,-109 873,-145"/>
<text text-anchor="middle" x="834" y="-123.3" font-family="Times,serif" font-size="14.00">Renderable</text>
</g>
<!-- Renderable&#45;&gt;string -->
<g id="edge2" class="edge">
<title>Renderable&#45;&gt;string</title>
<path fill="none" stroke="black" d="M873.3,-126.5C929.62,-126.44 1037.86,-128.88 1128,-146 1149.01,-149.99 1171.83,-157.18 1190,-163.63"/>
<polygon fill="black" stroke="black" points="1188.98,-166.98 1199.58,-167.11 1191.38,-160.4 1188.98,-166.98"/>
<text text-anchor="middle" x="1005.5" y="-135.8" font-family="Times,serif" font-size="14.00">sprite</text>
</g>
<!-- Timed -->
<g id="node18" class="node">
<title>Timed</title>
<polygon fill="#ffb347" stroke="black" points="1115.5,-191 1061.5,-191 1061.5,-155 1115.5,-155 1115.5,-191"/>
<text text-anchor="middle" x="1088.5" y="-169.3" font-family="Times,serif" font-size="14.00">Timed</text>
</g>
<!-- Trackable&#45;&gt;Identifiable -->
<g id="edge11" class="edge">
<title>Trackable&#45;&gt;Identifiable</title>
<path fill="none" stroke="black" stroke-dasharray="5,2" d="M962.17,-208.02C982.35,-207.94 1008.23,-208.69 1031,-212 1033.64,-212.38 1036.33,-212.85 1039.04,-213.37"/>
<polygon fill="black" stroke="black" points="1038.33,-216.79 1048.84,-215.48 1039.8,-209.95 1038.33,-216.79"/>
<text text-anchor="middle" x="1005.5" y="-215.8" font-family="Times,serif" font-size="14.00">(extends)</text>
</g>
<!-- Trackable&#45;&gt;Timed -->
<g id="edge12" class="edge">
<title>Trackable&#45;&gt;Timed</title>
<path fill="none" stroke="black" stroke-dasharray="5,2" d="M962.17,-194.59C968.05,-192.49 974.15,-190.53 980,-189 1003.27,-182.91 1030.02,-178.92 1051.01,-176.45"/>
<polygon fill="black" stroke="black" points="1051.56,-179.91 1061.11,-175.32 1050.79,-172.95 1051.56,-179.91"/>
<text text-anchor="middle" x="1005.5" y="-192.8" font-family="Times,serif" font-size="14.00">(extends)</text>
</g>
<!-- Weapon&#45;&gt;Item -->
<g id="edge24" class="edge">
<title>Weapon&#45;&gt;Item</title>
<path fill="none" stroke="black" stroke-dasharray="5,2" d="M237.76,-162.31C240.74,-165.37 243.59,-168.64 246,-172 257.35,-187.85 249.11,-199.41 264,-212 281.61,-226.89 306.79,-233.37 327.4,-236.14"/>
<polygon fill="black" stroke="black" points="327.08,-239.63 337.41,-237.25 327.85,-232.67 327.08,-239.63"/>
<text text-anchor="middle" x="289.5" y="-236.8" font-family="Times,serif" font-size="14.00">(extends)</text>
</g>
<!-- WorldObject&#45;&gt;GameEntity -->
<g id="edge15" class="edge">
<title>WorldObject&#45;&gt;GameEntity</title>
<path fill="none" stroke="black" stroke-dasharray="5,2" d="M593.41,-181.83C620.24,-190.49 654.94,-201.67 683.09,-210.75"/>
<polygon fill="black" stroke="black" points="682.16,-214.12 692.75,-213.86 684.3,-207.46 682.16,-214.12"/>
<text text-anchor="middle" x="642.5" y="-209.8" font-family="Times,serif" font-size="14.00">(extends)</text>
</g>
<!-- WorldObject&#45;&gt;Physical -->
<g id="edge17" class="edge">
<title>WorldObject&#45;&gt;Physical</title>
<path fill="none" stroke="black" stroke-dasharray="5,2" d="M593.1,-167.73C616.9,-167.73 647.11,-167.99 674,-169 680.1,-169.23 686.54,-169.57 692.85,-169.95"/>
<polygon fill="black" stroke="black" points="693.04,-173.47 703.25,-170.62 693.5,-166.48 693.04,-173.47"/>
<text text-anchor="middle" x="642.5" y="-172.8" font-family="Times,serif" font-size="14.00">(extends)</text>
</g>
<!-- WorldObject&#45;&gt;Renderable -->
<g id="edge16" class="edge">
<title>WorldObject&#45;&gt;Renderable</title>
<path fill="none" stroke="black" stroke-dasharray="5,2" d="M593.14,-152.59C599.08,-150.83 605.15,-149.23 611,-148 670.05,-135.61 739.49,-130.52 784.78,-128.44"/>
<polygon fill="black" stroke="black" points="785.06,-131.93 794.9,-128 784.76,-124.94 785.06,-131.93"/>
<text text-anchor="middle" x="642.5" y="-151.8" font-family="Times,serif" font-size="14.00">(extends)</text>
</g>
</g>
</svg>
