<?xml version="1.0" encoding="UTF-8" standalone="no"?>
<!DOCTYPE svg PUBLIC "-//W3C//DTD SVG 1.1//EN"
 "http://www.w3.org/Graphics/SVG/1.1/DTD/svg11.dtd">
<!-- Generated by graphviz version 2.43.0 (0)
 -->
<!-- Title: types Pages: 1 -->
<svg width="1259pt" height="661pt"
 viewBox="0.00 0.00 1259.09 661.00" xmlns="http://www.w3.org/2000/svg" xmlns:xlink="http://www.w3.org/1999/xlink">
<g id="graph0" class="graph" transform="scale(1 1) rotate(0) translate(4 657)">
<title>types</title>
<polygon fill="white" stroke="transparent" points="-4,4 -4,-657 1255.09,-657 1255.09,4 -4,4"/>
<text text-anchor="middle" x="625.55" y="-634.6" font-family="Times,serif" font-size="18.00">graph showing field name, hp</text>
<!-- Armor -->
<g id="node1" class="node">
<title>Armor</title>
<polygon fill="#add8e6" stroke="black" points="242,-216 188,-216 188,-180 242,-180 242,-216"/>
<text text-anchor="middle" x="215" y="-194.3" font-family="Times,serif" font-size="14.00">Armor</text>
</g>
<!-- Item -->
<g id="node9" class="node">
<title>Item</title>
<polygon fill="#add8e6" stroke="black" points="420,-179 366,-179 366,-143 420,-143 420,-179"/>
<text text-anchor="middle" x="393" y="-157.3" font-family="Times,serif" font-size="14.00">Item</text>
</g>
<!-- Armor&#45;&gt;Item -->
<g id="edge20" class="edge">
<title>Armor&#45;&gt;Item</title>
<path fill="none" stroke="black" stroke-dasharray="5,2" d="M242.1,-191.21C249.19,-189.44 256.87,-187.59 264,-186 294.89,-179.13 330.19,-172.31 355.89,-167.53"/>
<polygon fill="black" stroke="black" points="356.73,-170.94 365.93,-165.68 355.46,-164.05 356.73,-170.94"/>
<text text-anchor="middle" x="301" y="-189.8" font-family="Times,serif" font-size="14.00">(extends)</text>
</g>
<!-- WorldObject -->
<g id="node21" class="node">
<title>WorldObject</title>
<polygon fill="#ffb347" stroke="black" points="627,-276 540,-276 540,-240 627,-240 627,-276"/>
<text text-anchor="middle" x="583.5" y="-254.3" font-family="Times,serif" font-size="14.00">WorldObject</text>
</g>
<!-- Armor&#45;&gt;WorldObject -->
<g id="edge21" class="edge">
<title>Armor&#45;&gt;WorldObject</title>
<path fill="none" stroke="black" stroke-dasharray="5,2" d="M242.34,-201.14C295.47,-207.66 419.22,-223.75 522,-244 524.64,-244.52 527.33,-245.07 530.05,-245.64"/>
<polygon fill="black" stroke="black" points="529.42,-249.09 539.94,-247.78 530.9,-242.24 529.42,-249.09"/>
<text text-anchor="middle" x="393" y="-230.8" font-family="Times,serif" font-size="14.00">(implements)</text>
</g>
<!-- Boss -->
<g id="node2" class="node">
<title>Boss</title>
<polygon fill="#add8e6" stroke="black" points="75.5,-600 21.5,-600 21.5,-564 75.5,-564 75.5,-600"/>
<text text-anchor="middle" x="48.5" y="-578.3" font-family="Times,serif" font-size="14.00">Boss</text>
</g>
<!-- Combatant -->
<g id="node3" class="node">
<title>Combatant</title>
<polygon fill="#ffb347" stroke="black" points="622,-489 545,-489 545,-453 622,-453 622,-489"/>
<text text-anchor="middle" x="583.5" y="-467.3" font-family="Times,serif" font-size="14.00">Combatant</text>
</g>
<!-- Boss&#45;&gt;Combatant -->
<g id="edge31" class="edge">
<title>Boss&#45;&gt;Combatant</title>
<path fill="none" stroke="black" stroke-dasharray="5,2" d="M75.78,-588.8C126.99,-600.94 243.42,-623.11 338,-601 420.9,-581.62 506.1,-526.85 550.76,-494.92"/>
<polygon fill="black" stroke="black" points="552.82,-497.74 558.87,-489.05 548.72,-492.07 552.82,-497.74"/>
<text text-anchor="middle" x="301" y="-613.8" font-family="Times,serif" font-size="14.00">(implements)</text>
</g>
<!-- NPC -->
<g id="node12" class="node">
<title>NPC</title>
<polygon fill="#add8e6" stroke="black" points="242,-492 188,-492 188,-456 242,-456 242,-492"/>
<text text-anchor="middle" x="215" y="-470.3" font-family="Times,serif" font-size="14.00">NPC</text>
</g>
<!-- Boss&#45;&gt;NPC -->
<g id="edge30" class="edge">
<title>Boss&#45;&gt;NPC</title>
<path fill="none" stroke="black" stroke-dasharray="5,2" d="M75.57,-564.89C103.52,-546.54 148.05,-517.3 179.04,-496.96"/>
<polygon fill="black" stroke="black" points="181.35,-499.63 187.78,-491.21 177.5,-493.77 181.35,-499.63"/>
<text text-anchor="middle" x="140.5" y="-540.8" font-family="Times,serif" font-size="14.00">(extends)</text>
</g>
<!-- Boss&#45;&gt;WorldObject -->
<g id="edge32" class="edge">
<title>Boss&#45;&gt;WorldObject</title>
<path fill="none" stroke="black" stroke-dasharray="5,2" d="M75.61,-579.22C165.39,-569.15 459.36,-531.52 522,-465 569.09,-415 579.76,-330.36 582.02,-286.4"/>
<polygon fill="black" stroke="black" points="585.53,-286.28 582.43,-276.15 578.54,-286 585.53,-286.28"/>
<text text-anchor="middle" x="301" y="-554.8" font-family="Times,serif" font-size="14.00">(implements)</text>
</g>
<!-- Damageable -->
<g id="node5" class="node">
<title>Damageable</title>
<polygon fill="#ffb347" stroke="black" points="799,-489 714,-489 714,-453 799,-453 799,-489"/>
<text text-anchor="middle" x="756.5" y="-467.3" font-family="Times,serif" font-size="14.00">Damageable</text>
</g>
<!-- Combatant&#45;&gt;Damageable -->
<g id="edge13" class="edge">
<title>Combatant&#45;&gt;Damageable</title>
<path fill="none" stroke="black" stroke-dasharray="5,2" d="M622.03,-471C645.98,-471 677.36,-471 703.68,-471"/>
<polygon fill="black" stroke="black" points="703.86,-474.5 713.86,-471 703.86,-467.5 703.86,-474.5"/>
<text text-anchor="middle" x="670.5" y="-474.8" font-family="Times,serif" font-size="14.00">(extends)</text>
</g>
<!-- GameEntity -->
<g id="node7" class="node">
<title>GameEntity</title>
<polygon fill="#ffb347" stroke="black" points="798,-402 715,-402 715,-366 798,-366 798,-402"/>
<text text-anchor="middle" x="756.5" y="-380.3" font-family="Times,serif" font-size="14.00">GameEntity</text>
</g>
<!-- Combatant&#45;&gt;GameEntity -->
<g id="edge12" class="edge">
<title>Combatant&#45;&gt;GameEntity</title>
<path fill="none" stroke="black" stroke-dasharray="5,2" d="M619.93,-452.97C646.41,-439.5 682.79,-420.99 711.19,-406.54"/>
<polygon fill="black" stroke="black" points="712.79,-409.66 720.11,-402 709.61,-403.42 712.79,-409.66"/>
<text text-anchor="middle" x="670.5" y="-440.8" font-family="Times,serif" font-size="14.00">(extends)</text>
</g>
<!-- Creature -->
<g id="node4" class="node">
<title>Creature</title>
<polygon fill="#add8e6" stroke="black" points="424.5,-424 361.5,-424 361.5,-388 424.5,-388 424.5,-424"/>
<text text-anchor="middle" x="393" y="-402.3" font-family="Times,serif" font-size="14.00">Creature</text>
</g>
<!-- Creature&#45;&gt;Combatant -->
<g id="edge15" class="edge">
<title>Creature&#45;&gt;Combatant</title>
<path fill="none" stroke="black" stroke-dasharray="5,2" d="M424.71,-416.59C454.61,-426.9 500.51,-442.73 535.1,-454.66"/>
<polygon fill="black" stroke="black" points="534.4,-458.11 544.99,-458.07 536.68,-451.5 534.4,-458.11"/>
<text text-anchor="middle" x="485" y="-452.8" font-family="Times,serif" font-size="14.00">(implements)</text>
</g>
<!-- Creature&#45;&gt;WorldObject -->
<g id="edge16" class="edge">
<title>Creature&#45;&gt;WorldObject</title>
<path fill="none" stroke="black" stroke-dasharray="5,2" d="M423.54,-387.84C450.19,-370.96 490.02,-344.49 522,-318 534.77,-307.42 547.96,-294.6 558.76,-283.53"/>
<polygon fill="black" stroke="black" points="561.4,-285.83 565.81,-276.19 556.35,-280.97 561.4,-285.83"/>
<text text-anchor="middle" x="485" y="-373.8" font-family="Times,serif" font-size="14.00">(implements)</text>
</g>
<!-- int16 -->
<g id="node22" class="node">
<title>int16</title>
<ellipse fill="#ffffe0" stroke="black" cx="921.5" cy="-471" rx="28.7" ry="18"/>
<text text-anchor="middle" x="921.5" y="-467.3" font-family="Times,serif" font-size="14.00">int16</text>
</g>
<!-- Damageable&#45;&gt;int16 -->
<g id="edge2" class="edge">
<title>Damageable&#45;&gt;int16</title>
<path fill="none" stroke="black" d="M799.05,-471C824.8,-471 857.62,-471 882.65,-471"/>
<polygon fill="black" stroke="black" points="882.86,-474.5 892.86,-471 882.86,-467.5 882.86,-474.5"/>
<text text-anchor="middle" x="842.5" y="-474.8" font-family="Times,serif" font-size="14.00">hp</text>
</g>
<!-- Entity -->
<g id="node6" class="node">
<title>Entity</title>
<polygon fill="#ffb347" stroke="black" points="948.5,-364 894.5,-364 894.5,-328 948.5,-328 948.5,-364"/>
<text text-anchor="middle" x="921.5" y="-342.3" font-family="Times,serif" font-size="14.00">Entity</text>
</g>
<!-- Identifiable -->
<g id="node8" class="node">
<title>Identifiable</title>
<polygon fill="#ffb347" stroke="black" points="1123,-391 1044,-391 1044,-355 1123,-355 1123,-391"/>
<text text-anchor="middle" x="1083.5" y="-369.3" font-family="Times,serif" font-size="14.00">Identifiable</text>
</g>
<!-- Entity&#45;&gt;Identifiable -->
<g id="edge3" class="edge">
<title>Entity&#45;&gt;Identifiable</title>
<path fill="none" stroke="black" stroke-dasharray="5,2" d="M948.67,-346.67C969.73,-347.6 1000,-349.8 1026,-355 1028.65,-355.53 1031.36,-356.14 1034.07,-356.81"/>
<polygon fill="black" stroke="black" points="1033.33,-360.24 1043.89,-359.46 1035.15,-353.48 1033.33,-360.24"/>
<text text-anchor="middle" x="1000.5" y="-358.8" font-family="Times,serif" font-size="14.00">(extends)</text>
</g>
<!-- Positioned -->
<g id="node15" class="node">
<title>Positioned</title>
<polygon fill="#ffb347" stroke="black" points="1120.5,-334 1046.5,-334 1046.5,-298 1120.5,-298 1120.5,-334"/>
<text text-anchor="middle" x="1083.5" y="-312.3" font-family="Times,serif" font-size="14.00">Positioned</text>
</g>
<!-- Entity&#45;&gt;Positioned -->
<g id="edge4" class="edge">
<title>Entity&#45;&gt;Positioned</title>
<path fill="none" stroke="black" stroke-dasharray="5,2" d="M948.67,-336.43C956.99,-333.68 966.3,-330.92 975,-329 994.92,-324.61 1017.26,-321.61 1036.4,-319.61"/>
<polygon fill="black" stroke="black" points="1036.77,-323.09 1046.37,-318.62 1036.08,-316.12 1036.77,-323.09"/>
<text text-anchor="middle" x="1000.5" y="-332.8" font-family="Times,serif" font-size="14.00">(extends)</text>
</g>
<!-- GameEntity&#45;&gt;Entity -->
<g id="edge7" class="edge">
<title>GameEntity&#45;&gt;Entity</title>
<path fill="none" stroke="black" stroke-dasharray="5,2" d="M798.21,-374.51C824.57,-368.36 858.59,-360.43 884.05,-354.5"/>
<polygon fill="black" stroke="black" points="885.11,-357.85 894.05,-352.17 883.52,-351.03 885.11,-357.85"/>
<text text-anchor="middle" x="842.5" y="-372.8" font-family="Times,serif" font-size="14.00">(extends)</text>
</g>
<!-- Trackable -->
<g id="node19" class="node">
<title>Trackable</title>
<polygon fill="#ffb347" stroke="black" points="957,-418 886,-418 886,-382 957,-382 957,-418"/>
<text text-anchor="middle" x="921.5" y="-396.3" font-family="Times,serif" font-size="14.00">Trackable</text>
</g>
<!-- GameEntity&#45;&gt;Trackable -->
<g id="edge8" class="edge">
<title>GameEntity&#45;&gt;Trackable</title>
<path fill="none" stroke="black" stroke-dasharray="5,2" d="M798.21,-388C821.81,-390.31 851.55,-393.23 875.8,-395.61"/>
<polygon fill="black" stroke="black" points="875.52,-399.1 885.82,-396.6 876.21,-392.14 875.52,-399.1"/>
<text text-anchor="middle" x="842.5" y="-397.8" font-family="Times,serif" font-size="14.00">(extends)</text>
</g>
<!-- string -->
<g id="node23" class="node">
<title>string</title>
<ellipse fill="#ffffe0" stroke="black" cx="1220.55" cy="-373" rx="30.59" ry="18"/>
<text text-anchor="middle" x="1220.55" y="-369.3" font-family="Times,serif" font-size="14.00">string</text>
</g>
<!-- Identifiable&#45;&gt;string -->
<g id="edge1" class="edge">
<title>Identifiable&#45;&gt;string</title>
<path fill="none" stroke="black" d="M1123.2,-373C1140.92,-373 1161.9,-373 1179.76,-373"/>
<polygon fill="black" stroke="black" points="1179.86,-376.5 1189.86,-373 1179.86,-369.5 1179.86,-376.5"/>
<text text-anchor="middle" x="1156.5" y="-376.8" font-family="Times,serif" font-size="14.00">name</text>
</g>
<!-- Item&#45;&gt;WorldObject -->
<g id="edge14" class="edge">
<title>Item&#45;&gt;WorldObject</title>
<path fill="none" stroke="black" stroke-dasharray="5,2" d="M420.07,-161.09C447.27,-162.28 490.3,-167.32 522,-186 540.46,-196.88 555.9,-215.53 566.55,-231.12"/>
<polygon fill="black" stroke="black" points="563.87,-233.4 572.26,-239.86 569.73,-229.58 563.87,-233.4"/>
<text text-anchor="middle" x="485" y="-189.8" font-family="Times,serif" font-size="14.00">(implements)</text>
</g>
<!-- MagicWeapon -->
<g id="node10" class="node">
<title>MagicWeapon</title>
<polygon fill="#add8e6" stroke="black" points="97,-102 0,-102 0,-66 97,-66 97,-102"/>
<text text-anchor="middle" x="48.5" y="-80.3" font-family="Times,serif" font-size="14.00">MagicWeapon</text>
</g>
<!-- Weapon -->
<g id="node20" class="node">
<title>Weapon</title>
<polygon fill="#add8e6" stroke="black" points="246,-128 184,-128 184,-92 246,-92 246,-128"/>
<text text-anchor="middle" x="215" y="-106.3" font-family="Times,serif" font-size="14.00">Weapon</text>
</g>
<!-- MagicWeapon&#45;&gt;Weapon -->
<g id="edge28" class="edge">
<title>MagicWeapon&#45;&gt;Weapon</title>
<path fill="none" stroke="black" stroke-dasharray="5,2" d="M97.08,-91.52C121.27,-95.34 150.36,-99.94 173.47,-103.59"/>
<polygon fill="black" stroke="black" points="173.21,-107.1 183.63,-105.2 174.3,-100.18 173.21,-107.1"/>
<text text-anchor="middle" x="140.5" y="-105.8" font-family="Times,serif" font-size="14.00">(extends)</text>
</g>
<!-- MagicWeapon&#45;&gt;WorldObject -->
<g id="edge29" class="edge">
<title>MagicWeapon&#45;&gt;WorldObject</title>
<path fill="none" stroke="black" stroke-dasharray="5,2" d="M97.07,-70.97C190.14,-48.6 398.02,-14.36 522,-115 557.35,-143.7 572.39,-196.78 578.53,-229.57"/>
<polygon fill="black" stroke="black" points="575.15,-230.59 580.29,-239.85 582.05,-229.41 575.15,-230.59"/>
<text text-anchor="middle" x="301" y="-52.8" font-family="Times,serif" font-size="14.00">(implements)</text>
</g>
<!-- Merchant -->
<g id="node11" class="node">
<title>Merchant</title>
<polygon fill="#add8e6" stroke="black" points="83,-492 14,-492 14,-456 83,-456 83,-492"/>
<text text-anchor="middle" x="48.5" y="-470.3" font-family="Times,serif" font-size="14.00">Merchant</text>
</g>
<!-- Merchant&#45;&gt;Combatant -->
<g id="edge34" class="edge">
<title>Merchant&#45;&gt;Combatant</title>
<path fill="none" stroke="black" stroke-dasharray="5,2" d="M83.23,-484.95C93.36,-487.92 104.55,-490.89 115,-493 145.26,-499.1 153.18,-499.22 184,-501 334.05,-509.67 374.56,-519.2 522,-490 526.19,-489.17 530.5,-488.15 534.8,-487.03"/>
<polygon fill="black" stroke="black" points="536.06,-490.31 544.74,-484.24 534.17,-483.57 536.06,-490.31"/>
<text text-anchor="middle" x="301" y="-512.8" font-family="Times,serif" font-size="14.00">(implements)</text>
</g>
<!-- Merchant&#45;&gt;NPC -->
<g id="edge33" class="edge">
<title>Merchant&#45;&gt;NPC</title>
<path fill="none" stroke="black" stroke-dasharray="5,2" d="M83.19,-474C110.69,-474 149.49,-474 177.68,-474"/>
<polygon fill="black" stroke="black" points="177.92,-477.5 187.92,-474 177.92,-470.5 177.92,-477.5"/>
<text text-anchor="middle" x="140.5" y="-477.8" font-family="Times,serif" font-size="14.00">(extends)</text>
</g>
<!-- Merchant&#45;&gt;WorldObject -->
<g id="edge35" class="edge">
<title>Merchant&#45;&gt;WorldObject</title>
<path fill="none" stroke="black" stroke-dasharray="5,2" d="M61.38,-455.97C82.49,-425.32 129.46,-362.98 184,-328 291.8,-258.86 448.17,-252.7 529.25,-254.88"/>
<polygon fill="black" stroke="black" points="529.6,-258.39 539.71,-255.21 529.83,-251.39 529.6,-258.39"/>
<text text-anchor="middle" x="301" y="-291.8" font-family="Times,serif" font-size="14.00">(implements)</text>
</g>
<!-- NPC&#45;&gt;Combatant -->
<g id="edge23" class="edge">
<title>NPC&#45;&gt;Combatant</title>
<path fill="none" stroke="black" stroke-dasharray="5,2" d="M242.05,-475.21C270.16,-476.45 316.24,-478.29 356,-479 388.88,-479.59 397.12,-479.86 430,-479 465.09,-478.08 504.67,-475.97 534.71,-474.15"/>
<polygon fill="black" stroke="black" points="535.15,-477.63 544.92,-473.52 534.72,-470.64 535.15,-477.63"/>
<text text-anchor="middle" x="393" y="-482.8" font-family="Times,serif" font-size="14.00">(implements)</text>
</g>
<!-- NPC&#45;&gt;Creature -->
<g id="edge22" class="edge">
<title>NPC&#45;&gt;Creature</title>
<path fill="none" stroke="black" stroke-dasharray="5,2" d="M231.64,-455.99C240.31,-447.13 251.78,-437.08 264,-431 291.17,-417.48 324.98,-411.27 351.02,-408.41"/>
<polygon fill="black" stroke="black" points="351.69,-411.86 361.31,-407.41 351.02,-404.9 351.69,-411.86"/>
<text text-anchor="middle" x="301" y="-434.8" font-family="Times,serif" font-size="14.00">(extends)</text>
</g>
<!-- NPC&#45;&gt;WorldObject -->
<g id="edge24" class="edge">
<title>NPC&#45;&gt;WorldObject</title>
<path fill="none" stroke="black" stroke-dasharray="5,2" d="M242.05,-471.27C270.15,-468.36 316.23,-463.67 356,-460 374.43,-458.3 507.51,-457.52 522,-446 570.88,-407.13 580.83,-328.4 582.5,-286.21"/>
<polygon fill="black" stroke="black" points="586.01,-286.16 582.77,-276.07 579.01,-285.97 586.01,-286.16"/>
<text text-anchor="middle" x="393" y="-463.8" font-family="Times,serif" font-size="14.00">(implements)</text>
</g>
<!-- Physical -->
<g id="node13" class="node">
<title>Physical</title>
<polygon fill="#ffb347" stroke="black" points="787.5,-249 725.5,-249 725.5,-213 787.5,-213 787.5,-249"/>
<text text-anchor="middle" x="756.5" y="-227.3" font-family="Times,serif" font-size="14.00">Physical</text>
</g>
<!-- Player -->
<g id="node14" class="node">
<title>Player</title>
<polygon fill="#add8e6" stroke="black" points="242,-373 188,-373 188,-337 242,-337 242,-373"/>
<text text-anchor="middle" x="215" y="-351.3" font-family="Times,serif" font-size="14.00">Player</text>
</g>
<!-- Player&#45;&gt;Combatant -->
<g id="edge26" class="edge">
<title>Player&#45;&gt;Combatant</title>
<path fill="none" stroke="black" stroke-dasharray="5,2" d="M242.04,-353.08C307.2,-348.77 475.38,-340.75 522,-369 549.12,-385.43 565.5,-419.01 574.25,-443.15"/>
<polygon fill="black" stroke="black" points="571.02,-444.5 577.55,-452.85 577.64,-442.25 571.02,-444.5"/>
<text text-anchor="middle" x="393" y="-353.8" font-family="Times,serif" font-size="14.00">(implements)</text>
</g>
<!-- Player&#45;&gt;Creature -->
<g id="edge25" class="edge">
<title>Player&#45;&gt;Creature</title>
<path fill="none" stroke="black" stroke-dasharray="5,2" d="M242.35,-362.64C271.2,-371 317.82,-384.51 351.37,-394.23"/>
<polygon fill="black" stroke="black" points="350.74,-397.69 361.32,-397.11 352.69,-390.97 350.74,-397.69"/>
<text text-anchor="middle" x="301" y="-392.8" font-family="Times,serif" font-size="14.00">(extends)</text>
</g>
<!-- Player&#45;&gt;WorldObject -->
<g id="edge27" class="edge">
<title>Player&#45;&gt;WorldObject</title>
<path fill="none" stroke="black" stroke-dasharray="5,2" d="M242.12,-347.23C249.21,-345.17 256.89,-342.96 264,-341 357.46,-315.2 466.94,-287.14 530.16,-271.15"/>
<polygon fill="black" stroke="black" points="531.06,-274.53 539.89,-268.69 529.34,-267.74 531.06,-274.53"/>
<text text-anchor="middle" x="393" y="-319.8" font-family="Times,serif" font-size="14.00">(implements)</text>
</g>
<!-- Prop -->
<g id="node16" class="node">
<title>Prop</title>
<polygon fill="#add8e6" stroke="black" points="420,-36 366,-36 366,0 420,0 420,-36"/>
<text text-anchor="middle" x="393" y="-14.3" font-family="Times,serif" font-size="14.00">Prop</text>
</g>
<!-- Prop&#45;&gt;WorldObject -->
<g id="edge17" class="edge">
<title>Prop&#45;&gt;WorldObject</title>
<path fill="none" stroke="black" stroke-dasharray="5,2" d="M420.21,-13.71C448.76,-10.62 494.08,-10.57 522,-35 551.36,-60.7 571.03,-176.11 578.79,-230.05"/>
<polygon fill="black" stroke="black" points="575.33,-230.56 580.18,-239.97 582.26,-229.58 575.33,-230.56"/>
<text text-anchor="middle" x="485" y="-38.8" font-family="Times,serif" font-size="14.00">(implements)</text>
</g>
<!-- Renderable -->
<g id="node17" class="node">
<title>Renderable</title>
<polygon fill="#ffb347" stroke="black" points="795.5,-303 717.5,-303 717.5,-267 795.5,-267 795.5,-303"/>
<text text-anchor="middle" x="756.5" y="-281.3" font-family="Times,serif" font-size="14.00">Renderable</text>
</g>
<!-- Timed -->
<g id="node18" class="node">
<title>Timed</title>
<polygon fill="#ffb347" stroke="black" points="1110.5,-448 1056.5,-448 1056.5,-412 1110.5,-412 1110.5,-448"/>
<text text-anchor="middle" x="1083.5" y="-426.3" font-family="Times,serif" font-size="14.00">Timed</text>
</g>
<!-- Trackable&#45;&gt;Identifiable -->
<g id="edge5" class="edge">
<title>Trackable&#45;&gt;Identifiable</title>
<path fill="none" stroke="black" stroke-dasharray="5,2" d="M957.22,-394.14C979.67,-390.35 1009.23,-385.36 1033.99,-381.19"/>
<polygon fill="black" stroke="black" points="1034.65,-384.62 1043.92,-379.51 1033.48,-377.72 1034.65,-384.62"/>
<text text-anchor="middle" x="1000.5" y="-393.8" font-family="Times,serif" font-size="14.00">(extends)</text>
</g>
<!-- Trackable&#45;&gt;Timed -->
<g id="edge6" class="edge">
<title>Trackable&#45;&gt;Timed</title>
<path fill="none" stroke="black" stroke-dasharray="5,2" d="M957.22,-406.51C983.51,-411.44 1019.52,-418.19 1046.19,-423.19"/>
<polygon fill="black" stroke="black" points="1045.8,-426.68 1056.28,-425.08 1047.09,-419.8 1045.8,-426.68"/>
<text text-anchor="middle" x="1000.5" y="-421.8" font-family="Times,serif" font-size="14.00">(extends)</text>
</g>
<!-- Weapon&#45;&gt;Item -->
<g id="edge18" class="edge">
<title>Weapon&#45;&gt;Item</title>
<path fill="none" stroke="black" stroke-dasharray="5,2" d="M246.26,-118.77C276.67,-127.58 323.57,-141.17 355.91,-150.54"/>
<polygon fill="black" stroke="black" points="355.29,-154 365.86,-153.43 357.23,-147.28 355.29,-154"/>
<text text-anchor="middle" x="301" y="-147.8" font-family="Times,serif" font-size="14.00">(extends)</text>
</g>
<!-- Weapon&#45;&gt;WorldObject -->
<g id="edge19" class="edge">
<title>Weapon&#45;&gt;WorldObject</title>
<path fill="none" stroke="black" stroke-dasharray="5,2" d="M246.36,-105.29C306.74,-97.75 442.86,-90.12 522,-159 544.53,-178.61 561.26,-208.72 571.35,-230.59"/>
<polygon fill="black" stroke="black" points="568.26,-232.26 575.51,-239.98 574.66,-229.42 568.26,-232.26"/>
<text text-anchor="middle" x="393" y="-115.8" font-family="Times,serif" font-size="14.00">(implements)</text>
</g>
<!-- WorldObject&#45;&gt;GameEntity -->
<g id="edge9" class="edge">
<title>WorldObject&#45;&gt;GameEntity</title>
<path fill="none" stroke="black" stroke-dasharray="5,2" d="M609,-276.05C638.84,-298.04 689.37,-335.27 722.58,-359.74"/>
<polygon fill="black" stroke="black" points="720.92,-362.87 731.05,-365.98 725.07,-357.23 720.92,-362.87"/>
<text text-anchor="middle" x="670.5" y="-342.8" font-family="Times,serif" font-size="14.00">(extends)</text>
</g>
<!-- WorldObject&#45;&gt;Physical -->
<g id="edge11" class="edge">
<title>WorldObject&#45;&gt;Physical</title>
<path fill="none" stroke="black" stroke-dasharray="5,2" d="M627.21,-251.26C654.19,-247 688.84,-241.52 715.33,-237.34"/>
<polygon fill="black" stroke="black" points="716.07,-240.77 725.41,-235.75 714.98,-233.85 716.07,-240.77"/>
<text text-anchor="middle" x="670.5" y="-250.8" font-family="Times,serif" font-size="14.00">(extends)</text>
</g>
<!-- WorldObject&#45;&gt;Renderable -->
<g id="edge10" class="edge">
<title>WorldObject&#45;&gt;Renderable</title>
<path fill="none" stroke="black" stroke-dasharray="5,2" d="M627.21,-264.74C651.55,-268.59 682.13,-273.42 707.33,-277.39"/>
<polygon fill="black" stroke="black" points="706.99,-280.88 717.41,-278.99 708.08,-273.97 706.99,-280.88"/>
<text text-anchor="middle" x="670.5" y="-278.8" font-family="Times,serif" font-size="14.00">(extends)</text>
</g>
</g>
</svg>
