<?xml version="1.0" encoding="UTF-8" standalone="no"?>
<!DOCTYPE svg PUBLIC "-//W3C//DTD SVG 1.1//EN"
 "http://www.w3.org/Graphics/SVG/1.1/DTD/svg11.dtd">
<!-- Generated by graphviz version 2.43.0 (0)
 -->
<!-- Title: types Pages: 1 -->
<svg width="1211pt" height="371pt"
 viewBox="0.00 0.00 1211.49 371.00" xmlns="http://www.w3.org/2000/svg" xmlns:xlink="http://www.w3.org/1999/xlink">
<g id="graph0" class="graph" transform="scale(1 1) rotate(0) translate(4 367)">
<title>types</title>
<polygon fill="white" stroke="transparent" points="-4,4 -4,-367 1207.49,-367 1207.49,4 -4,4"/>
<text text-anchor="middle" x="601.75" y="-344.6" font-family="Times,serif" font-size="18.00">graph showing type float32</text>
<!-- Armor -->
<g id="node1" class="node">
<title>Armor</title>
<polygon fill="#add8e6" stroke="black" points="242,-98 188,-98 188,-62 242,-62 242,-98"/>
<text text-anchor="middle" x="215" y="-76.3" font-family="Times,serif" font-size="14.00">Armor</text>
</g>
<!-- Item -->
<g id="node9" class="node">
<title>Item</title>
<polygon fill="#add8e6" stroke="black" points="391.5,-86 337.5,-86 337.5,-50 391.5,-50 391.5,-86"/>
<text text-anchor="middle" x="364.5" y="-64.3" font-family="Times,serif" font-size="14.00">Item</text>
</g>
<!-- Armor&#45;&gt;Item -->
<g id="edge23" class="edge">
<title>Armor&#45;&gt;Item</title>
<path fill="none" stroke="black" stroke-dasharray="5,2" d="M242.03,-77.88C265.69,-75.96 300.82,-73.1 327.23,-70.95"/>
<polygon fill="black" stroke="black" points="327.55,-74.44 337.23,-70.14 326.98,-67.46 327.55,-74.44"/>
<text text-anchor="middle" x="289.5" y="-78.8" font-family="Times,serif" font-size="14.00">(extends)</text>
</g>
<!-- Boss -->
<g id="node2" class="node">
<title>Boss</title>
<polygon fill="#add8e6" stroke="black" points="75.5,-215 21.5,-215 21.5,-179 75.5,-179 75.5,-215"/>
<text text-anchor="middle" x="48.5" y="-193.3" font-family="Times,serif" font-size="14.00">Boss</text>
</g>
<!-- NPC -->
<g id="node12" class="node">
<title>NPC</title>
<polygon fill="#add8e6" stroke="black" points="242,-242 188,-242 188,-206 242,-206 242,-242"/>
<text text-anchor="middle" x="215" y="-220.3" font-family="Times,serif" font-size="14.00">NPC</text>
</g>
<!-- Boss&#45;&gt;NPC -->
<g id="edge27" class="edge">
<title>Boss&#45;&gt;NPC</title>
<path fill="none" stroke="black" stroke-dasharray="5,2" d="M75.95,-200.39C99.61,-203.54 135.21,-208.55 166,-214 169.9,-214.69 173.96,-215.46 178,-216.25"/>
<polygon fill="black" stroke="black" points="177.4,-219.7 187.9,-218.26 178.79,-212.84 177.4,-219.7"/>
<text text-anchor="middle" x="140.5" y="-217.8" font-family="Times,serif" font-size="14.00">(extends)</text>
</g>
<!-- Combatant -->
<g id="node3" class="node">
<title>Combatant</title>
<polygon fill="#ffb347" stroke="black" points="588,-273 511,-273 511,-237 588,-237 588,-273"/>
<text text-anchor="middle" x="549.5" y="-251.3" font-family="Times,serif" font-size="14.00">Combatant</text>
</g>
<!-- Damageable -->
<g id="node5" class="node">
<title>Damageable</title>
<polygon fill="#ffb347" stroke="black" points="765,-292 680,-292 680,-256 765,-256 765,-292"/>
<text text-anchor="middle" x="722.5" y="-270.3" font-family="Times,serif" font-size="14.00">Damageable</text>
</g>
<!-- Combatant&#45;&gt;Damageable -->
<g id="edge17" class="edge">
<title>Combatant&#45;&gt;Damageable</title>
<path fill="none" stroke="black" stroke-dasharray="5,2" d="M588.03,-259.17C611.98,-261.83 643.36,-265.32 669.68,-268.24"/>
<polygon fill="black" stroke="black" points="669.54,-271.75 679.86,-269.37 670.31,-264.79 669.54,-271.75"/>
<text text-anchor="middle" x="636.5" y="-270.8" font-family="Times,serif" font-size="14.00">(extends)</text>
</g>
<!-- GameEntity -->
<g id="node7" class="node">
<title>GameEntity</title>
<polygon fill="#ffb347" stroke="black" points="764,-238 681,-238 681,-202 764,-202 764,-238"/>
<text text-anchor="middle" x="722.5" y="-216.3" font-family="Times,serif" font-size="14.00">GameEntity</text>
</g>
<!-- Combatant&#45;&gt;GameEntity -->
<g id="edge16" class="edge">
<title>Combatant&#45;&gt;GameEntity</title>
<path fill="none" stroke="black" stroke-dasharray="5,2" d="M588.03,-247.32C612.35,-242.34 644.33,-235.8 670.89,-230.36"/>
<polygon fill="black" stroke="black" points="671.68,-233.77 680.77,-228.34 670.28,-226.91 671.68,-233.77"/>
<text text-anchor="middle" x="636.5" y="-244.8" font-family="Times,serif" font-size="14.00">(extends)</text>
</g>
<!-- Creature -->
<g id="node4" class="node">
<title>Creature</title>
<polygon fill="#add8e6" stroke="black" points="396,-273 333,-273 333,-237 396,-237 396,-273"/>
<text text-anchor="middle" x="364.5" y="-251.3" font-family="Times,serif" font-size="14.00">Creature</text>
</g>
<!-- Creature&#45;&gt;Combatant -->
<g id="edge19" class="edge">
<title>Creature&#45;&gt;Combatant</title>
<path fill="none" stroke="black" stroke-dasharray="5,2" d="M396.13,-255C424.59,-255 467.43,-255 500.45,-255"/>
<polygon fill="black" stroke="black" points="500.79,-258.5 510.79,-255 500.79,-251.5 500.79,-258.5"/>
<text text-anchor="middle" x="451" y="-258.8" font-family="Times,serif" font-size="14.00">(implements)</text>
</g>
<!-- WorldObject -->
<g id="node20" class="node">
<title>WorldObject</title>
<polygon fill="#ffb347" stroke="black" points="593,-178 506,-178 506,-142 593,-142 593,-178"/>
<text text-anchor="middle" x="549.5" y="-156.3" font-family="Times,serif" font-size="14.00">WorldObject</text>
</g>
<!-- Creature&#45;&gt;WorldObject -->
<g id="edge20" class="edge">
<title>Creature&#45;&gt;WorldObject</title>
<path fill="none" stroke="black" stroke-dasharray="5,2" d="M396.13,-239.1C425.8,-223.7 471.09,-200.18 504.59,-182.79"/>
<polygon fill="black" stroke="black" points="506.44,-185.78 513.71,-178.06 503.22,-179.56 506.44,-185.78"/>
<text text-anchor="middle" x="451" y="-232.8" font-family="Times,serif" font-size="14.00">(implements)</text>
</g>
<!-- float32 -->
<g id="node21" class="node">
<title>float32</title>
<ellipse fill="#ffffe0" stroke="black" cx="1167.75" cy="-149" rx="36" ry="18"/>
<text text-anchor="middle" x="1167.75" y="-145.3" font-family="Times,serif" font-size="14.00">float32</text>
</g>
<!-- Creature&#45;&gt;float32 -->
<g id="edge6" class="edge">
<title>Creature&#45;&gt;float32</title>
<path fill="none" stroke="black" d="M396.06,-273.11C431.47,-292.34 492.2,-320 548.5,-320 548.5,-320 548.5,-320 1050.5,-320 1118.89,-320 1149.87,-225.29 1161.25,-176.84"/>
<polygon fill="black" stroke="black" points="1164.68,-177.5 1163.44,-166.98 1157.85,-175.98 1164.68,-177.5"/>
<text text-anchor="middle" x="808.5" y="-323.8" font-family="Times,serif" font-size="14.00">speed</text>
</g>
<!-- Entity -->
<g id="node6" class="node">
<title>Entity</title>
<polygon fill="#ffb347" stroke="black" points="914.5,-238 860.5,-238 860.5,-202 914.5,-202 914.5,-238"/>
<text text-anchor="middle" x="887.5" y="-216.3" font-family="Times,serif" font-size="14.00">Entity</text>
</g>
<!-- Identifiable -->
<g id="node8" class="node">
<title>Identifiable</title>
<polygon fill="#ffb347" stroke="black" points="1089,-276 1010,-276 1010,-240 1089,-240 1089,-276"/>
<text text-anchor="middle" x="1049.5" y="-254.3" font-family="Times,serif" font-size="14.00">Identifiable</text>
</g>
<!-- Entity&#45;&gt;Identifiable -->
<g id="edge8" class="edge">
<title>Entity&#45;&gt;Identifiable</title>
<path fill="none" stroke="black" stroke-dasharray="5,2" d="M914.56,-226.19C937.59,-231.66 971.78,-239.78 999.85,-246.45"/>
<polygon fill="black" stroke="black" points="999.35,-249.92 1009.89,-248.83 1000.97,-243.11 999.35,-249.92"/>
<text text-anchor="middle" x="966.5" y="-246.8" font-family="Times,serif" font-size="14.00">(extends)</text>
</g>
<!-- Positioned -->
<g id="node15" class="node">
<title>Positioned</title>
<polygon fill="#ffb347" stroke="black" points="1086.5,-220 1012.5,-220 1012.5,-184 1086.5,-184 1086.5,-220"/>
<text text-anchor="middle" x="1049.5" y="-198.3" font-family="Times,serif" font-size="14.00">Positioned</text>
</g>
<!-- Entity&#45;&gt;Positioned -->
<g id="edge9" class="edge">
<title>Entity&#45;&gt;Positioned</title>
<path fill="none" stroke="black" stroke-dasharray="5,2" d="M914.56,-217.07C938.22,-214.41 973.66,-210.42 1002.15,-207.21"/>
<polygon fill="black" stroke="black" points="1002.74,-210.67 1012.29,-206.07 1001.96,-203.71 1002.74,-210.67"/>
<text text-anchor="middle" x="966.5" y="-216.8" font-family="Times,serif" font-size="14.00">(extends)</text>
</g>
<!-- GameEntity&#45;&gt;Entity -->
<g id="edge11" class="edge">
<title>GameEntity&#45;&gt;Entity</title>
<path fill="none" stroke="black" stroke-dasharray="5,2" d="M764.21,-220C790.45,-220 824.29,-220 849.71,-220"/>
<polygon fill="black" stroke="black" points="850.05,-223.5 860.05,-220 850.05,-216.5 850.05,-223.5"/>
<text text-anchor="middle" x="808.5" y="-223.8" font-family="Times,serif" font-size="14.00">(extends)</text>
</g>
<!-- Trackable -->
<g id="node18" class="node">
<title>Trackable</title>
<polygon fill="#ffb347" stroke="black" points="923,-292 852,-292 852,-256 923,-256 923,-292"/>
<text text-anchor="middle" x="887.5" y="-270.3" font-family="Times,serif" font-size="14.00">Trackable</text>
</g>
<!-- GameEntity&#45;&gt;Trackable -->
<g id="edge12" class="edge">
<title>GameEntity&#45;&gt;Trackable</title>
<path fill="none" stroke="black" stroke-dasharray="5,2" d="M764.21,-233.49C787.91,-241.34 817.82,-251.25 842.12,-259.3"/>
<polygon fill="black" stroke="black" points="841.22,-262.69 851.82,-262.51 843.43,-256.04 841.22,-262.69"/>
<text text-anchor="middle" x="808.5" y="-259.8" font-family="Times,serif" font-size="14.00">(extends)</text>
</g>
<!-- Item&#45;&gt;WorldObject -->
<g id="edge18" class="edge">
<title>Item&#45;&gt;WorldObject</title>
<path fill="none" stroke="black" stroke-dasharray="5,2" d="M391.72,-81.18C420.84,-95.82 468.37,-119.72 503.48,-137.37"/>
<polygon fill="black" stroke="black" points="502.06,-140.57 512.57,-141.94 505.21,-134.32 502.06,-140.57"/>
<text text-anchor="middle" x="451" y="-130.8" font-family="Times,serif" font-size="14.00">(implements)</text>
</g>
<!-- Item&#45;&gt;float32 -->
<g id="edge5" class="edge">
<title>Item&#45;&gt;float32</title>
<path fill="none" stroke="black" d="M391.8,-64.25C427.29,-59.52 492.53,-52 548.5,-52 548.5,-52 548.5,-52 1050.5,-52 1095.04,-52 1131.56,-94.51 1151.15,-123.24"/>
<polygon fill="black" stroke="black" points="1148.26,-125.22 1156.68,-131.66 1154.11,-121.38 1148.26,-125.22"/>
<text text-anchor="middle" x="808.5" y="-55.8" font-family="Times,serif" font-size="14.00">weight</text>
</g>
<!-- MagicWeapon -->
<g id="node10" class="node">
<title>MagicWeapon</title>
<polygon fill="#add8e6" stroke="black" points="97,-36 0,-36 0,0 97,0 97,-36"/>
<text text-anchor="middle" x="48.5" y="-14.3" font-family="Times,serif" font-size="14.00">MagicWeapon</text>
</g>
<!-- Weapon -->
<g id="node19" class="node">
<title>Weapon</title>
<polygon fill="#add8e6" stroke="black" points="246,-36 184,-36 184,0 246,0 246,-36"/>
<text text-anchor="middle" x="215" y="-14.3" font-family="Times,serif" font-size="14.00">Weapon</text>
</g>
<!-- MagicWeapon&#45;&gt;Weapon -->
<g id="edge26" class="edge">
<title>MagicWeapon&#45;&gt;Weapon</title>
<path fill="none" stroke="black" stroke-dasharray="5,2" d="M97.08,-18C121.27,-18 150.36,-18 173.47,-18"/>
<polygon fill="black" stroke="black" points="173.63,-21.5 183.63,-18 173.63,-14.5 173.63,-21.5"/>
<text text-anchor="middle" x="140.5" y="-21.8" font-family="Times,serif" font-size="14.00">(extends)</text>
</g>
<!-- Merchant -->
<g id="node11" class="node">
<title>Merchant</title>
<polygon fill="#add8e6" stroke="black" points="83,-269 14,-269 14,-233 83,-233 83,-269"/>
<text text-anchor="middle" x="48.5" y="-247.3" font-family="Times,serif" font-size="14.00">Merchant</text>
</g>
<!-- Merchant&#45;&gt;NPC -->
<g id="edge28" class="edge">
<title>Merchant&#45;&gt;NPC</title>
<path fill="none" stroke="black" stroke-dasharray="5,2" d="M83.19,-245.47C110.81,-240.94 149.83,-234.53 178.05,-229.9"/>
<polygon fill="black" stroke="black" points="178.62,-233.35 187.92,-228.28 177.49,-226.45 178.62,-233.35"/>
<text text-anchor="middle" x="140.5" y="-242.8" font-family="Times,serif" font-size="14.00">(extends)</text>
</g>
<!-- NPC&#45;&gt;Creature -->
<g id="edge24" class="edge">
<title>NPC&#45;&gt;Creature</title>
<path fill="none" stroke="black" stroke-dasharray="5,2" d="M242.09,-229.1C262.07,-233.04 290.31,-238.71 315,-244 317.64,-244.57 320.36,-245.16 323.1,-245.76"/>
<polygon fill="black" stroke="black" points="322.47,-249.21 333,-247.97 324,-242.37 322.47,-249.21"/>
<text text-anchor="middle" x="289.5" y="-247.8" font-family="Times,serif" font-size="14.00">(extends)</text>
</g>
<!-- Physical -->
<g id="node13" class="node">
<title>Physical</title>
<polygon fill="#ffb347" stroke="black" points="918.5,-150 856.5,-150 856.5,-114 918.5,-114 918.5,-150"/>
<text text-anchor="middle" x="887.5" y="-128.3" font-family="Times,serif" font-size="14.00">Physical</text>
</g>
<!-- Physical&#45;&gt;Positioned -->
<g id="edge10" class="edge">
<title>Physical&#45;&gt;Positioned</title>
<path fill="none" stroke="black" stroke-dasharray="5,2" d="M918.73,-148.9C925.95,-152.72 933.68,-156.63 941,-160 960.93,-169.17 983.48,-178.18 1002.76,-185.49"/>
<polygon fill="black" stroke="black" points="1001.63,-188.8 1012.22,-189.04 1004.09,-182.25 1001.63,-188.8"/>
<text text-anchor="middle" x="966.5" y="-183.8" font-family="Times,serif" font-size="14.00">(extends)</text>
</g>
<!-- Physical&#45;&gt;float32 -->
<g id="edge3" class="edge">
<title>Physical&#45;&gt;float32</title>
<path fill="none" stroke="black" d="M918.54,-133.84C967.49,-136.83 1064.71,-142.77 1121.87,-146.26"/>
<polygon fill="black" stroke="black" points="1121.86,-149.76 1132.06,-146.88 1122.29,-142.78 1121.86,-149.76"/>
<text text-anchor="middle" x="1049.5" y="-147.8" font-family="Times,serif" font-size="14.00">width</text>
</g>
<!-- Physical&#45;&gt;float32 -->
<g id="edge4" class="edge">
<title>Physical&#45;&gt;float32</title>
<path fill="none" stroke="black" d="M918.66,-125.78C958.12,-118.64 1029.29,-109.23 1089,-120 1103.35,-122.59 1118.5,-127.66 1131.58,-132.85"/>
<polygon fill="black" stroke="black" points="1130.56,-136.22 1141.13,-136.8 1133.23,-129.75 1130.56,-136.22"/>
<text text-anchor="middle" x="1049.5" y="-123.8" font-family="Times,serif" font-size="14.00">height</text>
</g>
<!-- Player -->
<g id="node14" class="node">
<title>Player</title>
<polygon fill="#add8e6" stroke="black" points="242,-296 188,-296 188,-260 242,-260 242,-296"/>
<text text-anchor="middle" x="215" y="-274.3" font-family="Times,serif" font-size="14.00">Player</text>
</g>
<!-- Player&#45;&gt;Creature -->
<g id="edge25" class="edge">
<title>Player&#45;&gt;Creature</title>
<path fill="none" stroke="black" stroke-dasharray="5,2" d="M242.03,-273.94C264.45,-270.45 297.17,-265.34 323,-261.32"/>
<polygon fill="black" stroke="black" points="323.54,-264.77 332.89,-259.77 322.47,-257.86 323.54,-264.77"/>
<text text-anchor="middle" x="289.5" y="-272.8" font-family="Times,serif" font-size="14.00">(extends)</text>
</g>
<!-- Positioned&#45;&gt;float32 -->
<g id="edge1" class="edge">
<title>Positioned&#45;&gt;float32</title>
<path fill="none" stroke="black" d="M1086.64,-185.52C1100.83,-179.05 1117.07,-171.65 1131.2,-165.21"/>
<polygon fill="black" stroke="black" points="1132.95,-168.26 1140.59,-160.92 1130.04,-161.89 1132.95,-168.26"/>
<text text-anchor="middle" x="1110.5" y="-178.8" font-family="Times,serif" font-size="14.00">x</text>
</g>
<!-- Positioned&#45;&gt;float32 -->
<g id="edge2" class="edge">
<title>Positioned&#45;&gt;float32</title>
<path fill="none" stroke="black" d="M1086.74,-201.08C1095.92,-199.88 1105.56,-197.73 1114,-194 1125.41,-188.96 1136.23,-180.63 1145.06,-172.49"/>
<polygon fill="black" stroke="black" points="1147.55,-174.96 1152.28,-165.48 1142.67,-169.94 1147.55,-174.96"/>
<text text-anchor="middle" x="1110.5" y="-199.8" font-family="Times,serif" font-size="14.00">y</text>
</g>
<!-- Prop -->
<g id="node16" class="node">
<title>Prop</title>
<polygon fill="#add8e6" stroke="black" points="391.5,-178 337.5,-178 337.5,-142 391.5,-142 391.5,-178"/>
<text text-anchor="middle" x="364.5" y="-156.3" font-family="Times,serif" font-size="14.00">Prop</text>
</g>
<!-- Prop&#45;&gt;WorldObject -->
<g id="edge21" class="edge">
<title>Prop&#45;&gt;WorldObject</title>
<path fill="none" stroke="black" stroke-dasharray="5,2" d="M391.72,-160C418.68,-160 461.41,-160 495.46,-160"/>
<polygon fill="black" stroke="black" points="495.72,-163.5 505.72,-160 495.72,-156.5 495.72,-163.5"/>
<text text-anchor="middle" x="451" y="-163.8" font-family="Times,serif" font-size="14.00">(implements)</text>
</g>
<!-- Renderable -->
<g id="node17" class="node">
<title>Renderable</title>
<polygon fill="#ffb347" stroke="black" points="761.5,-181 683.5,-181 683.5,-145 761.5,-145 761.5,-181"/>
<text text-anchor="middle" x="722.5" y="-159.3" font-family="Times,serif" font-size="14.00">Renderable</text>
</g>
<!-- Weapon&#45;&gt;Item -->
<g id="edge22" class="edge">
<title>Weapon&#45;&gt;Item</title>
<path fill="none" stroke="black" stroke-dasharray="5,2" d="M246.2,-28.24C269.87,-36.26 302.84,-47.44 327.81,-55.9"/>
<polygon fill="black" stroke="black" points="326.69,-59.22 337.29,-59.11 328.94,-52.59 326.69,-59.22"/>
<text text-anchor="middle" x="289.5" y="-54.8" font-family="Times,serif" font-size="14.00">(extends)</text>
</g>
<!-- Weapon&#45;&gt;float32 -->
<g id="edge7" class="edge">
<title>Weapon&#45;&gt;float32</title>
<path fill="none" stroke="black" d="M246.19,-15.08C275.98,-12.45 322.84,-9 363.5,-9 363.5,-9 363.5,-9 1050.5,-9 1108.46,-9 1143.05,-80.89 1157.99,-121.64"/>
<polygon fill="black" stroke="black" points="1154.76,-122.99 1161.37,-131.27 1161.36,-120.67 1154.76,-122.99"/>
<text text-anchor="middle" x="722.5" y="-12.8" font-family="Times,serif" font-size="14.00">attack_range</text>
</g>
<!-- WorldObject&#45;&gt;GameEntity -->
<g id="edge13" class="edge">
<title>WorldObject&#45;&gt;GameEntity</title>
<path fill="none" stroke="black" stroke-dasharray="5,2" d="M593.21,-174.99C616.88,-183.29 646.44,-193.66 671.22,-202.36"/>
<polygon fill="black" stroke="black" points="670.21,-205.71 680.81,-205.72 672.53,-199.11 670.21,-205.71"/>
<text text-anchor="middle" x="636.5" y="-201.8" font-family="Times,serif" font-size="14.00">(extends)</text>
</g>
<!-- WorldObject&#45;&gt;Physical -->
<g id="edge15" class="edge">
<title>WorldObject&#45;&gt;Physical</title>
<path fill="none" stroke="black" stroke-dasharray="5,2" d="M593.24,-143.68C618.14,-135.05 650.38,-125.36 680,-121 737.3,-112.56 804.39,-119.13 846.17,-125.14"/>
<polygon fill="black" stroke="black" points="845.82,-128.62 856.23,-126.64 846.86,-121.7 845.82,-128.62"/>
<text text-anchor="middle" x="722.5" y="-124.8" font-family="Times,serif" font-size="14.00">(extends)</text>
</g>
<!-- WorldObject&#45;&gt;Renderable -->
<g id="edge14" class="edge">
<title>WorldObject&#45;&gt;Renderable</title>
<path fill="none" stroke="black" stroke-dasharray="5,2" d="M593.13,-160.14C613.9,-160.27 639.26,-160.52 662,-161 665.68,-161.08 669.48,-161.17 673.31,-161.28"/>
<polygon fill="black" stroke="black" points="673.31,-164.78 683.41,-161.58 673.52,-157.78 673.31,-164.78"/>
<text text-anchor="middle" x="636.5" y="-164.8" font-family="Times,serif" font-size="14.00">(extends)</text>
</g>
</g>
</svg>
