<?xml version="1.0" encoding="UTF-8" standalone="no"?>
<!DOCTYPE svg PUBLIC "-//W3C//DTD SVG 1.1//EN"
 "http://www.w3.org/Graphics/SVG/1.1/DTD/svg11.dtd">
<!-- Generated by graphviz version 2.43.0 (0)
 -->
<!-- Title: types Pages: 1 -->
<svg width="1294pt" height="708pt"
 viewBox="0.00 0.00 1294.49 708.22" xmlns="http://www.w3.org/2000/svg" xmlns:xlink="http://www.w3.org/1999/xlink">
<g id="graph0" class="graph" transform="scale(1 1) rotate(0) translate(4 704.22)">
<title>types</title>
<polygon fill="white" stroke="transparent" points="-4,4 -4,-704.22 1290.49,-704.22 1290.49,4 -4,4"/>
<text text-anchor="middle" x="643.25" y="-681.82" font-family="Times,serif" font-size="18.00">graph showing kind Interface</text>
<!-- Armor -->
<g id="node1" class="node">
<title>Armor</title>
<polygon fill="#add8e6" stroke="black" points="242,-176.22 188,-176.22 188,-140.22 242,-140.22 242,-176.22"/>
<text text-anchor="middle" x="215" y="-154.52" font-family="Times,serif" font-size="14.00">Armor</text>
</g>
<!-- Item -->
<g id="node9" class="node">
<title>Item</title>
<polygon fill="#add8e6" stroke="black" points="420,-138.22 366,-138.22 366,-102.22 420,-102.22 420,-138.22"/>
<text text-anchor="middle" x="393" y="-116.52" font-family="Times,serif" font-size="14.00">Item</text>
</g>
<!-- Armor&#45;&gt;Item -->
<g id="edge33" class="edge">
<title>Armor&#45;&gt;Item</title>
<path fill="none" stroke="black" stroke-dasharray="5,2" d="M242.07,-150.79C249.16,-148.87 256.85,-146.88 264,-145.22 294.82,-138.04 330.13,-131.25 355.85,-126.56"/>
<polygon fill="black" stroke="black" points="356.68,-129.97 365.9,-124.75 355.43,-123.08 356.68,-129.97"/>
<text text-anchor="middle" x="301" y="-149.02" font-family="Times,serif" font-size="14.00">(extends)</text>
</g>
<!-- WorldObject -->
<g id="node21" class="node">
<title>WorldObject</title>
<polygon fill="#ffb347" stroke="black" points="627,-281.22 540,-281.22 540,-245.22 627,-245.22 627,-281.22"/>
<text text-anchor="middle" x="583.5" y="-259.52" font-family="Times,serif" font-size="14.00">WorldObject</text>
</g>
<!-- Armor&#45;&gt;WorldObject -->
<g id="edge34" class="edge">
<title>Armor&#45;&gt;WorldObject</title>
<path fill="none" stroke="black" stroke-dasharray="5,2" d="M242.23,-159.92C307.05,-164.47 473.08,-178.28 522,-203.22 537.78,-211.26 552.04,-224.91 562.75,-237.16"/>
<polygon fill="black" stroke="black" points="560.15,-239.51 569.25,-244.94 565.52,-235.02 560.15,-239.51"/>
<text text-anchor="middle" x="393" y="-183.02" font-family="Times,serif" font-size="14.00">(implements)</text>
</g>
<!-- Boss -->
<g id="node2" class="node">
<title>Boss</title>
<polygon fill="#add8e6" stroke="black" points="75.5,-633.22 21.5,-633.22 21.5,-597.22 75.5,-597.22 75.5,-633.22"/>
<text text-anchor="middle" x="48.5" y="-611.52" font-family="Times,serif" font-size="14.00">Boss</text>
</g>
<!-- Combatant -->
<g id="node3" class="node">
<title>Combatant</title>
<polygon fill="#ffb347" stroke="black" points="622,-565.22 545,-565.22 545,-529.22 622,-529.22 622,-565.22"/>
<text text-anchor="middle" x="583.5" y="-543.52" font-family="Times,serif" font-size="14.00">Combatant</text>
</g>
<!-- Boss&#45;&gt;Combatant -->
<g id="edge44" class="edge">
<title>Boss&#45;&gt;Combatant</title>
<path fill="none" stroke="black" stroke-dasharray="5,2" d="M75.76,-622.98C150.15,-643.45 366.98,-692.47 522,-619.22 541.93,-609.8 557.66,-590.29 568.09,-573.96"/>
<polygon fill="black" stroke="black" points="571.15,-575.66 573.32,-565.29 565.15,-572.04 571.15,-575.66"/>
<text text-anchor="middle" x="301" y="-661.02" font-family="Times,serif" font-size="14.00">(implements)</text>
</g>
<!-- NPC -->
<g id="node12" class="node">
<title>NPC</title>
<polygon fill="#add8e6" stroke="black" points="242,-529.22 188,-529.22 188,-493.22 242,-493.22 242,-529.22"/>
<text text-anchor="middle" x="215" y="-507.52" font-family="Times,serif" font-size="14.00">NPC</text>
</g>
<!-- Boss&#45;&gt;NPC -->
<g id="edge43" class="edge">
<title>Boss&#45;&gt;NPC</title>
<path fill="none" stroke="black" stroke-dasharray="5,2" d="M75.57,-598.74C103.52,-581.07 148.05,-552.91 179.04,-533.32"/>
<polygon fill="black" stroke="black" points="181.2,-536.09 187.78,-527.79 177.46,-530.18 181.2,-536.09"/>
<text text-anchor="middle" x="140.5" y="-576.02" font-family="Times,serif" font-size="14.00">(extends)</text>
</g>
<!-- Boss&#45;&gt;WorldObject -->
<g id="edge45" class="edge">
<title>Boss&#45;&gt;WorldObject</title>
<path fill="none" stroke="black" stroke-dasharray="5,2" d="M53.93,-596.95C66,-551.5 104.03,-433.12 184,-379.22 275.47,-317.56 325.15,-380.49 430,-346.22 473.03,-332.15 518.05,-306.03 547.92,-286.83"/>
<polygon fill="black" stroke="black" points="549.84,-289.76 556.31,-281.37 546.02,-283.89 549.84,-289.76"/>
<text text-anchor="middle" x="301" y="-359.02" font-family="Times,serif" font-size="14.00">(implements)</text>
</g>
<!-- Damageable -->
<g id="node5" class="node">
<title>Damageable</title>
<polygon fill="#ffb347" stroke="black" points="799,-603.22 714,-603.22 714,-567.22 799,-567.22 799,-603.22"/>
<text text-anchor="middle" x="756.5" y="-581.52" font-family="Times,serif" font-size="14.00">Damageable</text>
</g>
<!-- Combatant&#45;&gt;Damageable -->
<g id="edge26" class="edge">
<title>Combatant&#45;&gt;Damageable</title>
<path fill="none" stroke="black" stroke-dasharray="5,2" d="M622.03,-555.56C646.09,-560.9 677.64,-567.92 704.03,-573.78"/>
<polygon fill="black" stroke="black" points="703.34,-577.21 713.86,-575.97 704.86,-570.38 703.34,-577.21"/>
<text text-anchor="middle" x="670.5" y="-575.02" font-family="Times,serif" font-size="14.00">(extends)</text>
</g>
<!-- GameEntity -->
<g id="node7" class="node">
<title>GameEntity</title>
<polygon fill="#ffb347" stroke="black" points="798,-389.22 715,-389.22 715,-353.22 798,-353.22 798,-389.22"/>
<text text-anchor="middle" x="756.5" y="-367.52" font-family="Times,serif" font-size="14.00">GameEntity</text>
</g>
<!-- Combatant&#45;&gt;GameEntity -->
<g id="edge25" class="edge">
<title>Combatant&#45;&gt;GameEntity</title>
<path fill="none" stroke="black" stroke-dasharray="5,2" d="M602.16,-529.05C632.83,-497.48 696.01,-432.45 730.94,-396.5"/>
<polygon fill="black" stroke="black" points="733.48,-398.9 737.94,-389.29 728.46,-394.02 733.48,-398.9"/>
<text text-anchor="middle" x="670.5" y="-483.02" font-family="Times,serif" font-size="14.00">(extends)</text>
</g>
<!-- uint16 -->
<g id="node26" class="node">
<title>uint16</title>
<ellipse fill="#ffffe0" stroke="black" cx="756.5" cy="-531.22" rx="33.29" ry="18"/>
<text text-anchor="middle" x="756.5" y="-527.52" font-family="Times,serif" font-size="14.00">uint16</text>
</g>
<!-- Combatant&#45;&gt;uint16 -->
<g id="edge23" class="edge">
<title>Combatant&#45;&gt;uint16</title>
<path fill="none" stroke="black" d="M607.22,-529.21C618.01,-521.77 631.49,-514.02 645,-510.22 669.94,-503.2 698.71,-509.09 720.64,-516.41"/>
<polygon fill="black" stroke="black" points="719.6,-519.75 730.2,-519.82 721.96,-513.16 719.6,-519.75"/>
<text text-anchor="middle" x="670.5" y="-514.02" font-family="Times,serif" font-size="14.00">attack</text>
</g>
<!-- Combatant&#45;&gt;uint16 -->
<g id="edge24" class="edge">
<title>Combatant&#45;&gt;uint16</title>
<path fill="none" stroke="black" d="M622.03,-543.71C649.05,-541.18 685.53,-537.76 713.52,-535.15"/>
<polygon fill="black" stroke="black" points="714.17,-538.6 723.8,-534.18 713.52,-531.63 714.17,-538.6"/>
<text text-anchor="middle" x="670.5" y="-544.02" font-family="Times,serif" font-size="14.00">defense</text>
</g>
<!-- Creature -->
<g id="node4" class="node">
<title>Creature</title>
<polygon fill="#add8e6" stroke="black" points="424.5,-475.22 361.5,-475.22 361.5,-439.22 424.5,-439.22 424.5,-475.22"/>
<text text-anchor="middle" x="393" y="-453.52" font-family="Times,serif" font-size="14.00">Creature</text>
</g>
<!-- Creature&#45;&gt;Combatant -->
<g id="edge28" class="edge">
<title>Creature&#45;&gt;Combatant</title>
<path fill="none" stroke="black" stroke-dasharray="5,2" d="M424.71,-471.88C454.74,-486.22 500.9,-508.26 535.55,-524.8"/>
<polygon fill="black" stroke="black" points="534.46,-528.16 544.99,-529.31 537.47,-521.84 534.46,-528.16"/>
<text text-anchor="middle" x="485" y="-521.02" font-family="Times,serif" font-size="14.00">(implements)</text>
</g>
<!-- Creature&#45;&gt;WorldObject -->
<g id="edge29" class="edge">
<title>Creature&#45;&gt;WorldObject</title>
<path fill="none" stroke="black" stroke-dasharray="5,2" d="M424.75,-442.85C452.8,-428.56 494.01,-404.43 522,-374.22 544.81,-349.6 561.96,-314.78 572.07,-290.74"/>
<polygon fill="black" stroke="black" points="575.31,-292.05 575.84,-281.47 568.83,-289.41 575.31,-292.05"/>
<text text-anchor="middle" x="485" y="-432.02" font-family="Times,serif" font-size="14.00">(implements)</text>
</g>
<!-- int16 -->
<g id="node24" class="node">
<title>int16</title>
<ellipse fill="#ffffe0" stroke="black" cx="921.5" cy="-594.22" rx="28.7" ry="18"/>
<text text-anchor="middle" x="921.5" y="-590.52" font-family="Times,serif" font-size="14.00">int16</text>
</g>
<!-- Damageable&#45;&gt;int16 -->
<g id="edge7" class="edge">
<title>Damageable&#45;&gt;int16</title>
<path fill="none" stroke="black" d="M799.11,-588.12C805.11,-588.5 811.21,-588.88 817,-589.22 838.77,-590.48 863.13,-591.66 882.74,-592.56"/>
<polygon fill="black" stroke="black" points="882.67,-596.07 892.82,-593.02 882.99,-589.07 882.67,-596.07"/>
<text text-anchor="middle" x="842.5" y="-595.02" font-family="Times,serif" font-size="14.00">hp</text>
</g>
<!-- Damageable&#45;&gt;int16 -->
<g id="edge8" class="edge">
<title>Damageable&#45;&gt;int16</title>
<path fill="none" stroke="black" d="M799.23,-572.72C820.03,-568.21 845.49,-565.32 868,-570.22 875.54,-571.86 883.29,-574.68 890.45,-577.83"/>
<polygon fill="black" stroke="black" points="889.23,-581.13 899.76,-582.25 892.23,-574.8 889.23,-581.13"/>
<text text-anchor="middle" x="842.5" y="-574.02" font-family="Times,serif" font-size="14.00">max_hp</text>
</g>
<!-- Entity -->
<g id="node6" class="node">
<title>Entity</title>
<polygon fill="#ffb347" stroke="black" points="948.5,-350.22 894.5,-350.22 894.5,-314.22 948.5,-314.22 948.5,-350.22"/>
<text text-anchor="middle" x="921.5" y="-328.52" font-family="Times,serif" font-size="14.00">Entity</text>
</g>
<!-- Identifiable -->
<g id="node8" class="node">
<title>Identifiable</title>
<polygon fill="#ffb347" stroke="black" points="1123,-395.22 1044,-395.22 1044,-359.22 1123,-359.22 1123,-395.22"/>
<text text-anchor="middle" x="1083.5" y="-373.52" font-family="Times,serif" font-size="14.00">Identifiable</text>
</g>
<!-- Entity&#45;&gt;Identifiable -->
<g id="edge10" class="edge">
<title>Entity&#45;&gt;Identifiable</title>
<path fill="none" stroke="black" stroke-dasharray="5,2" d="M948.56,-339.55C971.69,-346.05 1006.08,-355.73 1034.22,-363.64"/>
<polygon fill="black" stroke="black" points="1033.31,-367.02 1043.89,-366.36 1035.21,-360.28 1033.31,-367.02"/>
<text text-anchor="middle" x="1000.5" y="-363.02" font-family="Times,serif" font-size="14.00">(extends)</text>
</g>
<!-- Positioned -->
<g id="node15" class="node">
<title>Positioned</title>
<polygon fill="#ffb347" stroke="black" points="1120.5,-283.22 1046.5,-283.22 1046.5,-247.22 1120.5,-247.22 1120.5,-283.22"/>
<text text-anchor="middle" x="1083.5" y="-261.52" font-family="Times,serif" font-size="14.00">Positioned</text>
</g>
<!-- Entity&#45;&gt;Positioned -->
<g id="edge11" class="edge">
<title>Entity&#45;&gt;Positioned</title>
<path fill="none" stroke="black" stroke-dasharray="5,2" d="M948.55,-314.7C956.79,-309.61 966.08,-304.32 975,-300.22 994.59,-291.21 1017.16,-283.49 1036.55,-277.61"/>
<polygon fill="black" stroke="black" points="1037.77,-280.89 1046.36,-274.7 1035.78,-274.18 1037.77,-280.89"/>
<text text-anchor="middle" x="1000.5" y="-304.02" font-family="Times,serif" font-size="14.00">(extends)</text>
</g>
<!-- uint32 -->
<g id="node27" class="node">
<title>uint32</title>
<ellipse fill="#ffffe0" stroke="black" cx="1083.5" cy="-321.22" rx="33.29" ry="18"/>
<text text-anchor="middle" x="1083.5" y="-317.52" font-family="Times,serif" font-size="14.00">uint32</text>
</g>
<!-- Entity&#45;&gt;uint32 -->
<g id="edge9" class="edge">
<title>Entity&#45;&gt;uint32</title>
<path fill="none" stroke="black" d="M948.54,-326.31C956.94,-324.65 966.32,-323.08 975,-322.22 996.25,-320.11 1019.99,-319.69 1039.74,-319.86"/>
<polygon fill="black" stroke="black" points="1039.91,-323.37 1049.96,-320.01 1040.01,-316.37 1039.91,-323.37"/>
<text text-anchor="middle" x="1000.5" y="-326.02" font-family="Times,serif" font-size="14.00">id</text>
</g>
<!-- GameEntity&#45;&gt;Entity -->
<g id="edge18" class="edge">
<title>GameEntity&#45;&gt;Entity</title>
<path fill="none" stroke="black" stroke-dasharray="5,2" d="M798.21,-361.48C824.57,-355.17 858.59,-347.03 884.05,-340.94"/>
<polygon fill="black" stroke="black" points="885.14,-344.28 894.05,-338.55 883.51,-337.47 885.14,-344.28"/>
<text text-anchor="middle" x="842.5" y="-360.02" font-family="Times,serif" font-size="14.00">(extends)</text>
</g>
<!-- Trackable -->
<g id="node19" class="node">
<title>Trackable</title>
<polygon fill="#ffb347" stroke="black" points="957,-415.22 886,-415.22 886,-379.22 957,-379.22 957,-415.22"/>
<text text-anchor="middle" x="921.5" y="-393.52" font-family="Times,serif" font-size="14.00">Trackable</text>
</g>
<!-- GameEntity&#45;&gt;Trackable -->
<g id="edge19" class="edge">
<title>GameEntity&#45;&gt;Trackable</title>
<path fill="none" stroke="black" stroke-dasharray="5,2" d="M798.21,-377.71C821.81,-381.48 851.55,-386.22 875.8,-390.09"/>
<polygon fill="black" stroke="black" points="875.39,-393.57 885.82,-391.69 876.49,-386.65 875.39,-393.57"/>
<text text-anchor="middle" x="842.5" y="-392.02" font-family="Times,serif" font-size="14.00">(extends)</text>
</g>
<!-- string -->
<g id="node25" class="node">
<title>string</title>
<ellipse fill="#ffffe0" stroke="black" cx="1250.75" cy="-377.22" rx="30.59" ry="18"/>
<text text-anchor="middle" x="1250.75" y="-373.52" font-family="Times,serif" font-size="14.00">string</text>
</g>
<!-- Identifiable&#45;&gt;string -->
<g id="edge1" class="edge">
<title>Identifiable&#45;&gt;string</title>
<path fill="none" stroke="black" d="M1123.24,-377.22C1149.35,-377.22 1183.69,-377.22 1210,-377.22"/>
<polygon fill="black" stroke="black" points="1210.02,-380.72 1220.02,-377.22 1210.02,-373.72 1210.02,-380.72"/>
<text text-anchor="middle" x="1169" y="-381.02" font-family="Times,serif" font-size="14.00">name</text>
</g>
<!-- Item&#45;&gt;WorldObject -->
<g id="edge27" class="edge">
<title>Item&#45;&gt;WorldObject</title>
<path fill="none" stroke="black" stroke-dasharray="5,2" d="M420.21,-118.93C448.14,-118.91 492.33,-122.89 522,-145.22 551.36,-167.31 567.63,-207.72 575.72,-235.02"/>
<polygon fill="black" stroke="black" points="572.38,-236.08 578.43,-244.78 579.12,-234.21 572.38,-236.08"/>
<text text-anchor="middle" x="485" y="-149.02" font-family="Times,serif" font-size="14.00">(implements)</text>
</g>
<!-- MagicWeapon -->
<g id="node10" class="node">
<title>MagicWeapon</title>
<polygon fill="#add8e6" stroke="black" points="97,-61.22 0,-61.22 0,-25.22 97,-25.22 97,-61.22"/>
<text text-anchor="middle" x="48.5" y="-39.52" font-family="Times,serif" font-size="14.00">MagicWeapon</text>
</g>
<!-- Weapon -->
<g id="node20" class="node">
<title>Weapon</title>
<polygon fill="#add8e6" stroke="black" points="246,-87.22 184,-87.22 184,-51.22 246,-51.22 246,-87.22"/>
<text text-anchor="middle" x="215" y="-65.52" font-family="Times,serif" font-size="14.00">Weapon</text>
</g>
<!-- MagicWeapon&#45;&gt;Weapon -->
<g id="edge41" class="edge">
<title>MagicWeapon&#45;&gt;Weapon</title>
<path fill="none" stroke="black" stroke-dasharray="5,2" d="M97.08,-50.74C121.27,-54.56 150.36,-59.16 173.47,-62.81"/>
<polygon fill="black" stroke="black" points="173.21,-66.31 183.63,-64.42 174.3,-59.4 173.21,-66.31"/>
<text text-anchor="middle" x="140.5" y="-66.02" font-family="Times,serif" font-size="14.00">(extends)</text>
</g>
<!-- MagicWeapon&#45;&gt;WorldObject -->
<g id="edge42" class="edge">
<title>MagicWeapon&#45;&gt;WorldObject</title>
<path fill="none" stroke="black" stroke-dasharray="5,2" d="M97.05,-28.85C191.01,-3.67 401.75,36.32 522,-69.22 570.4,-111.7 580.54,-192.23 582.37,-234.95"/>
<polygon fill="black" stroke="black" points="578.87,-235.06 582.68,-244.95 585.87,-234.85 578.87,-235.06"/>
<text text-anchor="middle" x="301" y="-5.02" font-family="Times,serif" font-size="14.00">(implements)</text>
</g>
<!-- Merchant -->
<g id="node11" class="node">
<title>Merchant</title>
<polygon fill="#add8e6" stroke="black" points="83,-339.22 14,-339.22 14,-303.22 83,-303.22 83,-339.22"/>
<text text-anchor="middle" x="48.5" y="-317.52" font-family="Times,serif" font-size="14.00">Merchant</text>
</g>
<!-- Merchant&#45;&gt;Combatant -->
<g id="edge47" class="edge">
<title>Merchant&#45;&gt;Combatant</title>
<path fill="none" stroke="black" stroke-dasharray="5,2" d="M53.7,-339.3C65.24,-384.07 102.16,-499.26 184,-538.22 299.86,-593.37 456.95,-573.35 534.76,-558.12"/>
<polygon fill="black" stroke="black" points="535.64,-561.51 544.75,-556.1 534.25,-554.65 535.64,-561.51"/>
<text text-anchor="middle" x="301" y="-577.02" font-family="Times,serif" font-size="14.00">(implements)</text>
</g>
<!-- Merchant&#45;&gt;NPC -->
<g id="edge46" class="edge">
<title>Merchant&#45;&gt;NPC</title>
<path fill="none" stroke="black" stroke-dasharray="5,2" d="M65.27,-339.44C94.63,-373.34 157.72,-446.22 191.53,-485.26"/>
<polygon fill="black" stroke="black" points="189.08,-487.79 198.27,-493.05 194.38,-483.2 189.08,-487.79"/>
<text text-anchor="middle" x="140.5" y="-458.02" font-family="Times,serif" font-size="14.00">(extends)</text>
</g>
<!-- Merchant&#45;&gt;WorldObject -->
<g id="edge48" class="edge">
<title>Merchant&#45;&gt;WorldObject</title>
<path fill="none" stroke="black" stroke-dasharray="5,2" d="M83.13,-306.44C148.9,-279.18 299.53,-224.76 430,-236.22 463.42,-239.15 500.5,-245.64 529.72,-251.52"/>
<polygon fill="black" stroke="black" points="529.21,-254.99 539.71,-253.57 530.62,-248.13 529.21,-254.99"/>
<text text-anchor="middle" x="301" y="-252.02" font-family="Times,serif" font-size="14.00">(implements)</text>
</g>
<!-- NPC&#45;&gt;Combatant -->
<g id="edge36" class="edge">
<title>NPC&#45;&gt;Combatant</title>
<path fill="none" stroke="black" stroke-dasharray="5,2" d="M242.17,-519.95C249.19,-521.99 256.82,-523.94 264,-525.22 358.91,-542.13 471.88,-546.22 534.56,-547.1"/>
<polygon fill="black" stroke="black" points="534.88,-550.6 544.92,-547.22 534.96,-543.6 534.88,-550.6"/>
<text text-anchor="middle" x="393" y="-546.02" font-family="Times,serif" font-size="14.00">(implements)</text>
</g>
<!-- NPC&#45;&gt;Creature -->
<g id="edge35" class="edge">
<title>NPC&#45;&gt;Creature</title>
<path fill="none" stroke="black" stroke-dasharray="5,2" d="M242.06,-493.22C248.95,-489.1 256.55,-485.09 264,-482.22 292.13,-471.37 325.62,-465.04 351.3,-461.47"/>
<polygon fill="black" stroke="black" points="351.96,-464.91 361.43,-460.14 351.06,-457.97 351.96,-464.91"/>
<text text-anchor="middle" x="301" y="-486.02" font-family="Times,serif" font-size="14.00">(extends)</text>
</g>
<!-- NPC&#45;&gt;WorldObject -->
<g id="edge37" class="edge">
<title>NPC&#45;&gt;WorldObject</title>
<path fill="none" stroke="black" stroke-dasharray="5,2" d="M242.42,-514.69C302.03,-520.9 447.58,-526.61 522,-447.22 563.08,-403.39 576.29,-331.15 580.52,-291.47"/>
<polygon fill="black" stroke="black" points="584.01,-291.72 581.47,-281.43 577.04,-291.06 584.01,-291.72"/>
<text text-anchor="middle" x="393" y="-518.02" font-family="Times,serif" font-size="14.00">(implements)</text>
</g>
<!-- Physical -->
<g id="node13" class="node">
<title>Physical</title>
<polygon fill="#ffb347" stroke="black" points="952.5,-230.22 890.5,-230.22 890.5,-194.22 952.5,-194.22 952.5,-230.22"/>
<text text-anchor="middle" x="921.5" y="-208.52" font-family="Times,serif" font-size="14.00">Physical</text>
</g>
<!-- Physical&#45;&gt;Positioned -->
<g id="edge17" class="edge">
<title>Physical&#45;&gt;Positioned</title>
<path fill="none" stroke="black" stroke-dasharray="5,2" d="M952.86,-222.13C973.5,-228.88 1001.41,-238.04 1026,-246.22 1029.5,-247.38 1033.11,-248.59 1036.75,-249.8"/>
<polygon fill="black" stroke="black" points="1035.75,-253.16 1046.34,-253.02 1037.97,-246.52 1035.75,-253.16"/>
<text text-anchor="middle" x="1000.5" y="-250.02" font-family="Times,serif" font-size="14.00">(extends)</text>
</g>
<!-- boolean -->
<g id="node22" class="node">
<title>boolean</title>
<ellipse fill="#ffffe0" stroke="black" cx="1083.5" cy="-158.22" rx="38.19" ry="18"/>
<text text-anchor="middle" x="1083.5" y="-154.52" font-family="Times,serif" font-size="14.00">boolean</text>
</g>
<!-- Physical&#45;&gt;boolean -->
<g id="edge16" class="edge">
<title>Physical&#45;&gt;boolean</title>
<path fill="none" stroke="black" d="M951.8,-194.18C959.18,-190.16 967.22,-186.2 975,-183.22 994.8,-175.61 1017.58,-169.91 1037.06,-165.89"/>
<polygon fill="black" stroke="black" points="1037.78,-169.31 1046.91,-163.94 1036.42,-162.45 1037.78,-169.31"/>
<text text-anchor="middle" x="1000.5" y="-187.02" font-family="Times,serif" font-size="14.00">solid</text>
</g>
<!-- float32 -->
<g id="node23" class="node">
<title>float32</title>
<ellipse fill="#ffffe0" stroke="black" cx="1250.75" cy="-229.22" rx="36" ry="18"/>
<text text-anchor="middle" x="1250.75" y="-225.52" font-family="Times,serif" font-size="14.00">float32</text>
</g>
<!-- Physical&#45;&gt;float32 -->
<g id="edge14" class="edge">
<title>Physical&#45;&gt;float32</title>
<path fill="none" stroke="black" d="M952.7,-213.79C1010.37,-216.78 1136.48,-223.33 1204.35,-226.86"/>
<polygon fill="black" stroke="black" points="1204.56,-230.37 1214.73,-227.4 1204.92,-223.38 1204.56,-230.37"/>
<text text-anchor="middle" x="1083.5" y="-226.02" font-family="Times,serif" font-size="14.00">width</text>
</g>
<!-- Physical&#45;&gt;float32 -->
<g id="edge15" class="edge">
<title>Physical&#45;&gt;float32</title>
<path fill="none" stroke="black" d="M941.41,-193.8C951.16,-184.59 963.42,-173.47 975,-164.22 1029.02,-121.05 1058.38,-91.6 1123,-116.22 1169.19,-133.82 1209.24,-176.83 1231.38,-204.42"/>
<polygon fill="black" stroke="black" points="1228.75,-206.73 1237.67,-212.44 1234.26,-202.41 1228.75,-206.73"/>
<text text-anchor="middle" x="1083.5" y="-120.02" font-family="Times,serif" font-size="14.00">height</text>
</g>
<!-- Player -->
<g id="node14" class="node">
<title>Player</title>
<polygon fill="#add8e6" stroke="black" points="242,-424.22 188,-424.22 188,-388.22 242,-388.22 242,-424.22"/>
<text text-anchor="middle" x="215" y="-402.52" font-family="Times,serif" font-size="14.00">Player</text>
</g>
<!-- Player&#45;&gt;Combatant -->
<g id="edge39" class="edge">
<title>Player&#45;&gt;Combatant</title>
<path fill="none" stroke="black" stroke-dasharray="5,2" d="M242.2,-404.05C307.73,-399.15 476.71,-389.88 522,-420.22 555.58,-442.71 571.03,-489.2 577.75,-519.25"/>
<polygon fill="black" stroke="black" points="574.34,-520.04 579.78,-529.13 581.2,-518.63 574.34,-520.04"/>
<text text-anchor="middle" x="393" y="-403.02" font-family="Times,serif" font-size="14.00">(implements)</text>
</g>
<!-- Player&#45;&gt;Creature -->
<g id="edge38" class="edge">
<title>Player&#45;&gt;Creature</title>
<path fill="none" stroke="black" stroke-dasharray="5,2" d="M242.35,-413.85C271.2,-422.21 317.82,-435.72 351.37,-445.44"/>
<polygon fill="black" stroke="black" points="350.74,-448.91 361.32,-448.33 352.69,-442.18 350.74,-448.91"/>
<text text-anchor="middle" x="301" y="-444.02" font-family="Times,serif" font-size="14.00">(extends)</text>
</g>
<!-- Player&#45;&gt;WorldObject -->
<g id="edge40" class="edge">
<title>Player&#45;&gt;WorldObject</title>
<path fill="none" stroke="black" stroke-dasharray="5,2" d="M242.42,-398.55C267.29,-391.14 305.48,-379.3 338,-367.22 406.91,-341.61 484.78,-307.58 533.75,-285.54"/>
<polygon fill="black" stroke="black" points="535.47,-288.6 543.15,-281.29 532.59,-282.22 535.47,-288.6"/>
<text text-anchor="middle" x="393" y="-363.02" font-family="Times,serif" font-size="14.00">(implements)</text>
</g>
<!-- Positioned&#45;&gt;float32 -->
<g id="edge2" class="edge">
<title>Positioned&#45;&gt;float32</title>
<path fill="none" stroke="black" d="M1120.72,-268.51C1143.14,-269.44 1172.28,-268.61 1197,-261.22 1205.56,-258.66 1214.13,-254.37 1221.81,-249.76"/>
<polygon fill="black" stroke="black" points="1223.83,-252.62 1230.36,-244.27 1220.05,-246.73 1223.83,-252.62"/>
<text text-anchor="middle" x="1169" y="-272.02" font-family="Times,serif" font-size="14.00">x</text>
</g>
<!-- Positioned&#45;&gt;float32 -->
<g id="edge3" class="edge">
<title>Positioned&#45;&gt;float32</title>
<path fill="none" stroke="black" d="M1120.79,-248.79C1127.41,-246.27 1134.33,-243.94 1141,-242.22 1161.69,-236.87 1185.18,-233.71 1205.02,-231.85"/>
<polygon fill="black" stroke="black" points="1205.36,-235.34 1215.03,-230.99 1204.76,-228.36 1205.36,-235.34"/>
<text text-anchor="middle" x="1169" y="-246.02" font-family="Times,serif" font-size="14.00">y</text>
</g>
<!-- Prop -->
<g id="node16" class="node">
<title>Prop</title>
<polygon fill="#add8e6" stroke="black" points="420,-281.22 366,-281.22 366,-245.22 420,-245.22 420,-281.22"/>
<text text-anchor="middle" x="393" y="-259.52" font-family="Times,serif" font-size="14.00">Prop</text>
</g>
<!-- Prop&#45;&gt;WorldObject -->
<g id="edge30" class="edge">
<title>Prop&#45;&gt;WorldObject</title>
<path fill="none" stroke="black" stroke-dasharray="5,2" d="M420.21,-263.22C448.38,-263.22 493.93,-263.22 529.61,-263.22"/>
<polygon fill="black" stroke="black" points="529.86,-266.72 539.86,-263.22 529.86,-259.72 529.86,-266.72"/>
<text text-anchor="middle" x="485" y="-267.02" font-family="Times,serif" font-size="14.00">(implements)</text>
</g>
<!-- Renderable -->
<g id="node17" class="node">
<title>Renderable</title>
<polygon fill="#ffb347" stroke="black" points="795.5,-495.22 717.5,-495.22 717.5,-459.22 795.5,-459.22 795.5,-495.22"/>
<text text-anchor="middle" x="756.5" y="-473.52" font-family="Times,serif" font-size="14.00">Renderable</text>
</g>
<!-- Renderable&#45;&gt;string -->
<g id="edge5" class="edge">
<title>Renderable&#45;&gt;string</title>
<path fill="none" stroke="black" d="M795.82,-480.12C890.96,-486.52 1134.83,-497.75 1197,-450.22 1214.44,-436.88 1201.86,-421.81 1215,-404.22 1216.97,-401.59 1219.25,-399.08 1221.69,-396.72"/>
<polygon fill="black" stroke="black" points="1224.03,-399.33 1229.33,-390.16 1219.47,-394.02 1224.03,-399.33"/>
<text text-anchor="middle" x="1000.5" y="-489.02" font-family="Times,serif" font-size="14.00">sprite</text>
</g>
<!-- uint8 -->
<g id="node29" class="node">
<title>uint8</title>
<ellipse fill="#ffffe0" stroke="black" cx="921.5" cy="-523.22" rx="28.7" ry="18"/>
<text text-anchor="middle" x="921.5" y="-519.52" font-family="Times,serif" font-size="14.00">uint8</text>
</g>
<!-- Renderable&#45;&gt;uint8 -->
<g id="edge6" class="edge">
<title>Renderable&#45;&gt;uint8</title>
<path fill="none" stroke="black" d="M795.72,-488C822.8,-495.65 858.86,-505.82 885.25,-513.27"/>
<polygon fill="black" stroke="black" points="884.63,-516.73 895.21,-516.08 886.53,-510 884.63,-516.73"/>
<text text-anchor="middle" x="842.5" y="-512.02" font-family="Times,serif" font-size="14.00">layer</text>
</g>
<!-- Timed -->
<g id="node18" class="node">
<title>Timed</title>
<polygon fill="#ffb347" stroke="black" points="1110.5,-449.22 1056.5,-449.22 1056.5,-413.22 1110.5,-413.22 1110.5,-449.22"/>
<text text-anchor="middle" x="1083.5" y="-427.52" font-family="Times,serif" font-size="14.00">Timed</text>
</g>
<!-- uint64 -->
<g id="node28" class="node">
<title>uint64</title>
<ellipse fill="#ffffe0" stroke="black" cx="1250.75" cy="-431.22" rx="33.29" ry="18"/>
<text text-anchor="middle" x="1250.75" y="-427.52" font-family="Times,serif" font-size="14.00">uint64</text>
</g>
<!-- Timed&#45;&gt;uint64 -->
<g id="edge4" class="edge">
<title>Timed&#45;&gt;uint64</title>
<path fill="none" stroke="black" d="M1110.68,-431.22C1136.57,-431.22 1176.62,-431.22 1207.1,-431.22"/>
<polygon fill="black" stroke="black" points="1207.45,-434.72 1217.45,-431.22 1207.45,-427.72 1207.45,-434.72"/>
<text text-anchor="middle" x="1169" y="-435.02" font-family="Times,serif" font-size="14.00">created_at</text>
</g>
<!-- Trackable&#45;&gt;Identifiable -->
<g id="edge12" class="edge">
<title>Trackable&#45;&gt;Identifiable</title>
<path fill="none" stroke="black" stroke-dasharray="5,2" d="M957.22,-392.88C979.67,-390.07 1009.23,-386.38 1033.99,-383.28"/>
<polygon fill="black" stroke="black" points="1034.44,-386.75 1043.92,-382.04 1033.57,-379.81 1034.44,-386.75"/>
<text text-anchor="middle" x="1000.5" y="-393.02" font-family="Times,serif" font-size="14.00">(extends)</text>
</g>
<!-- Trackable&#45;&gt;Timed -->
<g id="edge13" class="edge">
<title>Trackable&#45;&gt;Timed</title>
<path fill="none" stroke="black" stroke-dasharray="5,2" d="M957.22,-404.6C983.51,-410.18 1019.52,-417.84 1046.19,-423.5"/>
<polygon fill="black" stroke="black" points="1045.77,-426.99 1056.28,-425.64 1047.22,-420.14 1045.77,-426.99"/>
<text text-anchor="middle" x="1000.5" y="-422.02" font-family="Times,serif" font-size="14.00">(extends)</text>
</g>
<!-- Weapon&#45;&gt;Item -->
<g id="edge31" class="edge">
<title>Weapon&#45;&gt;Item</title>
<path fill="none" stroke="black" stroke-dasharray="5,2" d="M246.26,-77.98C276.67,-86.8 323.57,-100.39 355.91,-109.76"/>
<polygon fill="black" stroke="black" points="355.29,-113.22 365.86,-112.64 357.23,-106.5 355.29,-113.22"/>
<text text-anchor="middle" x="301" y="-108.02" font-family="Times,serif" font-size="14.00">(extends)</text>
</g>
<!-- Weapon&#45;&gt;WorldObject -->
<g id="edge32" class="edge">
<title>Weapon&#45;&gt;WorldObject</title>
<path fill="none" stroke="black" stroke-dasharray="5,2" d="M246.28,-63.47C307.73,-53.73 447.56,-41.68 522,-116.22 554.77,-149.02 570.58,-202.08 577.58,-234.68"/>
<polygon fill="black" stroke="black" points="574.23,-235.78 579.63,-244.9 581.1,-234.4 574.23,-235.78"/>
<text text-anchor="middle" x="393" y="-70.02" font-family="Times,serif" font-size="14.00">(implements)</text>
</g>
<!-- WorldObject&#45;&gt;GameEntity -->
<g id="edge20" class="edge">
<title>WorldObject&#45;&gt;GameEntity</title>
<path fill="none" stroke="black" stroke-dasharray="5,2" d="M613.12,-281.29C641.97,-299.52 686.64,-327.73 718.24,-347.69"/>
<polygon fill="black" stroke="black" points="716.46,-350.7 726.79,-353.08 720.2,-344.78 716.46,-350.7"/>
<text text-anchor="middle" x="670.5" y="-336.02" font-family="Times,serif" font-size="14.00">(extends)</text>
</g>
<!-- WorldObject&#45;&gt;Physical -->
<g id="edge22" class="edge">
<title>WorldObject&#45;&gt;Physical</title>
<path fill="none" stroke="black" stroke-dasharray="5,2" d="M627.05,-256.76C692.29,-246.86 816.16,-228.05 880.09,-218.35"/>
<polygon fill="black" stroke="black" points="880.83,-221.78 890.19,-216.82 879.78,-214.86 880.83,-221.78"/>
<text text-anchor="middle" x="756.5" y="-246.02" font-family="Times,serif" font-size="14.00">(extends)</text>
</g>
<!-- WorldObject&#45;&gt;Renderable -->
<g id="edge21" class="edge">
<title>WorldObject&#45;&gt;Renderable</title>
<path fill="none" stroke="black" stroke-dasharray="5,2" d="M596.18,-281.52C607.95,-299.64 626.9,-327.95 645,-351.22 673.05,-387.27 708.26,-426.5 731.29,-451.44"/>
<polygon fill="black" stroke="black" points="728.95,-454.07 738.32,-459.02 734.08,-449.3 728.95,-454.07"/>
<text text-anchor="middle" x="670.5" y="-414.02" font-family="Times,serif" font-size="14.00">(extends)</text>
</g>
</g>
</svg>
