<?xml version="1.0" encoding="UTF-8" standalone="no"?>
<!DOCTYPE svg PUBLIC "-//W3C//DTD SVG 1.1//EN"
 "http://www.w3.org/Graphics/SVG/1.1/DTD/svg11.dtd">
<!-- Generated by graphviz version 2.43.0 (0)
 -->
<!-- Title: types Pages: 1 -->
<svg width="1298pt" height="912pt"
 viewBox="0.00 0.00 1298.09 912.00" xmlns="http://www.w3.org/2000/svg" xmlns:xlink="http://www.w3.org/1999/xlink">
<g id="graph0" class="graph" transform="scale(1 1) rotate(0) translate(4 908)">
<title>types</title>
<polygon fill="white" stroke="transparent" points="-4,4 -4,-908 1294.09,-908 1294.09,4 -4,4"/>
<text text-anchor="middle" x="645.05" y="-885.6" font-family="Times,serif" font-size="18.00">graph showing type string</text>
<!-- Armor -->
<g id="node1" class="node">
<title>Armor</title>
<polygon fill="#add8e6" stroke="black" points="242,-97 188,-97 188,-61 242,-61 242,-97"/>
<text text-anchor="middle" x="215" y="-75.3" font-family="Times,serif" font-size="14.00">Armor</text>
</g>
<!-- Item -->
<g id="node9" class="node">
<title>Item</title>
<polygon fill="#add8e6" stroke="black" points="420,-110 366,-110 366,-74 420,-74 420,-110"/>
<text text-anchor="middle" x="393" y="-88.3" font-family="Times,serif" font-size="14.00">Item</text>
</g>
<!-- Armor&#45;&gt;Item -->
<g id="edge26" class="edge">
<title>Armor&#45;&gt;Item</title>
<path fill="none" stroke="black" stroke-dasharray="5,2" d="M242.28,-77.63C267.05,-76.71 305.17,-76.26 338,-80 343.87,-80.67 350.03,-81.71 356.01,-82.9"/>
<polygon fill="black" stroke="black" points="355.31,-86.33 365.82,-85.02 356.78,-79.49 355.31,-86.33"/>
<text text-anchor="middle" x="301" y="-83.8" font-family="Times,serif" font-size="14.00">(extends)</text>
</g>
<!-- WorldObject -->
<g id="node21" class="node">
<title>WorldObject</title>
<polygon fill="#ffb347" stroke="black" points="627,-351 540,-351 540,-315 627,-315 627,-351"/>
<text text-anchor="middle" x="583.5" y="-329.3" font-family="Times,serif" font-size="14.00">WorldObject</text>
</g>
<!-- Armor&#45;&gt;WorldObject -->
<g id="edge27" class="edge">
<title>Armor&#45;&gt;WorldObject</title>
<path fill="none" stroke="black" stroke-dasharray="5,2" d="M227.1,-97.11C235.61,-109.35 248.51,-124.72 264,-133 368.1,-188.65 438.3,-112.78 522,-196 552.35,-226.17 568.68,-274.18 576.48,-304.62"/>
<polygon fill="black" stroke="black" points="573.13,-305.69 578.89,-314.59 579.94,-304.05 573.13,-305.69"/>
<text text-anchor="middle" x="393" y="-158.8" font-family="Times,serif" font-size="14.00">(implements)</text>
</g>
<!-- string -->
<g id="node22" class="node">
<title>string</title>
<ellipse fill="#ffffe0" stroke="black" cx="1259.55" cy="-470" rx="30.59" ry="18"/>
<text text-anchor="middle" x="1259.55" y="-466.3" font-family="Times,serif" font-size="14.00">string</text>
</g>
<!-- Armor&#45;&gt;string -->
<g id="edge3" class="edge">
<title>Armor&#45;&gt;string</title>
<path fill="none" stroke="black" d="M242.25,-70.93C276.39,-61.16 338.06,-46 392,-46 392,-46 392,-46 1123.5,-46 1206.91,-46 1245.69,-347.65 1255.79,-442.09"/>
<polygon fill="black" stroke="black" points="1252.31,-442.47 1256.83,-452.05 1259.27,-441.74 1252.31,-442.47"/>
<text text-anchor="middle" x="768.5" y="-49.8" font-family="Times,serif" font-size="14.00">slot</text>
</g>
<!-- Boss -->
<g id="node2" class="node">
<title>Boss</title>
<polygon fill="#add8e6" stroke="black" points="75.5,-712 21.5,-712 21.5,-676 75.5,-676 75.5,-712"/>
<text text-anchor="middle" x="48.5" y="-690.3" font-family="Times,serif" font-size="14.00">Boss</text>
</g>
<!-- Combatant -->
<g id="node3" class="node">
<title>Combatant</title>
<polygon fill="#ffb347" stroke="black" points="622,-600 545,-600 545,-564 622,-564 622,-600"/>
<text text-anchor="middle" x="583.5" y="-578.3" font-family="Times,serif" font-size="14.00">Combatant</text>
</g>
<!-- Boss&#45;&gt;Combatant -->
<g id="edge37" class="edge">
<title>Boss&#45;&gt;Combatant</title>
<path fill="none" stroke="black" stroke-dasharray="5,2" d="M75.5,-699.54C137.99,-711.78 300.96,-737.38 430,-702 474.48,-689.81 486.04,-682.87 522,-654 538.18,-641.01 553.2,-623.18 564.23,-608.51"/>
<polygon fill="black" stroke="black" points="567.16,-610.44 570.24,-600.3 561.51,-606.3 567.16,-610.44"/>
<text text-anchor="middle" x="301" y="-722.8" font-family="Times,serif" font-size="14.00">(implements)</text>
</g>
<!-- NPC -->
<g id="node12" class="node">
<title>NPC</title>
<polygon fill="#add8e6" stroke="black" points="242,-569 188,-569 188,-533 242,-533 242,-569"/>
<text text-anchor="middle" x="215" y="-547.3" font-family="Times,serif" font-size="14.00">NPC</text>
</g>
<!-- Boss&#45;&gt;NPC -->
<g id="edge36" class="edge">
<title>Boss&#45;&gt;NPC</title>
<path fill="none" stroke="black" stroke-dasharray="5,2" d="M70.33,-675.89C99.42,-650.6 152.33,-604.61 185.18,-576.05"/>
<polygon fill="black" stroke="black" points="187.83,-578.39 193.08,-569.19 183.23,-573.11 187.83,-578.39"/>
<text text-anchor="middle" x="140.5" y="-638.8" font-family="Times,serif" font-size="14.00">(extends)</text>
</g>
<!-- Boss&#45;&gt;WorldObject -->
<g id="edge38" class="edge">
<title>Boss&#45;&gt;WorldObject</title>
<path fill="none" stroke="black" stroke-dasharray="5,2" d="M57.16,-675.7C79.96,-623.65 152.83,-474.11 264,-405 307.94,-377.68 451.18,-352.71 529.75,-340.63"/>
<polygon fill="black" stroke="black" points="530.56,-344.05 539.92,-339.08 529.51,-337.13 530.56,-344.05"/>
<text text-anchor="middle" x="301" y="-408.8" font-family="Times,serif" font-size="14.00">(implements)</text>
</g>
<!-- Boss&#45;&gt;string -->
<g id="edge7" class="edge">
<title>Boss&#45;&gt;string</title>
<path fill="none" stroke="black" d="M56.97,-712.19C76.08,-755.47 131.18,-861 214,-861 214,-861 214,-861 1123.5,-861 1142.84,-861 1210.12,-784.75 1211,-783 1236.13,-733.28 1251.28,-566.04 1256.49,-498.57"/>
<polygon fill="black" stroke="black" points="1260.01,-498.51 1257.27,-488.27 1253.03,-497.98 1260.01,-498.51"/>
<text text-anchor="middle" x="676.5" y="-864.8" font-family="Times,serif" font-size="14.00">title</text>
</g>
<!-- Damageable -->
<g id="node5" class="node">
<title>Damageable</title>
<polygon fill="#ffb347" stroke="black" points="811,-600 726,-600 726,-564 811,-564 811,-600"/>
<text text-anchor="middle" x="768.5" y="-578.3" font-family="Times,serif" font-size="14.00">Damageable</text>
</g>
<!-- Combatant&#45;&gt;Damageable -->
<g id="edge19" class="edge">
<title>Combatant&#45;&gt;Damageable</title>
<path fill="none" stroke="black" stroke-dasharray="5,2" d="M622.42,-582C649.39,-582 685.95,-582 715.62,-582"/>
<polygon fill="black" stroke="black" points="715.8,-585.5 725.8,-582 715.8,-578.5 715.8,-585.5"/>
<text text-anchor="middle" x="676.5" y="-585.8" font-family="Times,serif" font-size="14.00">(extends)</text>
</g>
<!-- GameEntity -->
<g id="node7" class="node">
<title>GameEntity</title>
<polygon fill="#ffb347" stroke="black" points="810,-542 727,-542 727,-506 810,-506 810,-542"/>
<text text-anchor="middle" x="768.5" y="-520.3" font-family="Times,serif" font-size="14.00">GameEntity</text>
</g>
<!-- Combatant&#45;&gt;GameEntity -->
<g id="edge18" class="edge">
<title>Combatant&#45;&gt;GameEntity</title>
<path fill="none" stroke="black" stroke-dasharray="5,2" d="M622.42,-569.98C649.79,-561.31 687.04,-549.5 716.94,-540.03"/>
<polygon fill="black" stroke="black" points="718.3,-543.27 726.77,-536.91 716.18,-536.59 718.3,-543.27"/>
<text text-anchor="middle" x="676.5" y="-564.8" font-family="Times,serif" font-size="14.00">(extends)</text>
</g>
<!-- Creature -->
<g id="node4" class="node">
<title>Creature</title>
<polygon fill="#add8e6" stroke="black" points="424.5,-561 361.5,-561 361.5,-525 424.5,-525 424.5,-561"/>
<text text-anchor="middle" x="393" y="-539.3" font-family="Times,serif" font-size="14.00">Creature</text>
</g>
<!-- Creature&#45;&gt;Combatant -->
<g id="edge21" class="edge">
<title>Creature&#45;&gt;Combatant</title>
<path fill="none" stroke="black" stroke-dasharray="5,2" d="M424.58,-548.67C450.55,-553.55 488.78,-560.92 522,-568 526.15,-568.89 530.46,-569.83 534.77,-570.79"/>
<polygon fill="black" stroke="black" points="534.26,-574.27 544.79,-573.06 535.8,-567.44 534.26,-574.27"/>
<text text-anchor="middle" x="485" y="-571.8" font-family="Times,serif" font-size="14.00">(implements)</text>
</g>
<!-- Creature&#45;&gt;WorldObject -->
<g id="edge22" class="edge">
<title>Creature&#45;&gt;WorldObject</title>
<path fill="none" stroke="black" stroke-dasharray="5,2" d="M415.3,-524.77C420.22,-520.36 425.37,-515.6 430,-511 481.06,-460.3 534.34,-394.72 562.41,-359"/>
<polygon fill="black" stroke="black" points="565.26,-361.04 568.67,-351.01 559.75,-356.73 565.26,-361.04"/>
<text text-anchor="middle" x="485" y="-491.8" font-family="Times,serif" font-size="14.00">(implements)</text>
</g>
<!-- Entity -->
<g id="node6" class="node">
<title>Entity</title>
<polygon fill="#ffb347" stroke="black" points="987.5,-568 933.5,-568 933.5,-532 987.5,-532 987.5,-568"/>
<text text-anchor="middle" x="960.5" y="-546.3" font-family="Times,serif" font-size="14.00">Entity</text>
</g>
<!-- Identifiable -->
<g id="node8" class="node">
<title>Identifiable</title>
<polygon fill="#ffb347" stroke="black" points="1162,-538 1083,-538 1083,-502 1162,-502 1162,-538"/>
<text text-anchor="middle" x="1122.5" y="-516.3" font-family="Times,serif" font-size="14.00">Identifiable</text>
</g>
<!-- Entity&#45;&gt;Identifiable -->
<g id="edge9" class="edge">
<title>Entity&#45;&gt;Identifiable</title>
<path fill="none" stroke="black" stroke-dasharray="5,2" d="M987.56,-545.11C1010.59,-540.8 1044.78,-534.38 1072.85,-529.12"/>
<polygon fill="black" stroke="black" points="1073.7,-532.52 1082.89,-527.24 1072.41,-525.64 1073.7,-532.52"/>
<text text-anchor="middle" x="1039.5" y="-542.8" font-family="Times,serif" font-size="14.00">(extends)</text>
</g>
<!-- Positioned -->
<g id="node15" class="node">
<title>Positioned</title>
<polygon fill="#ffb347" stroke="black" points="1159.5,-598 1085.5,-598 1085.5,-562 1159.5,-562 1159.5,-598"/>
<text text-anchor="middle" x="1122.5" y="-576.3" font-family="Times,serif" font-size="14.00">Positioned</text>
</g>
<!-- Entity&#45;&gt;Positioned -->
<g id="edge10" class="edge">
<title>Entity&#45;&gt;Positioned</title>
<path fill="none" stroke="black" stroke-dasharray="5,2" d="M987.56,-554.89C1011.22,-559.32 1046.66,-565.97 1075.15,-571.31"/>
<polygon fill="black" stroke="black" points="1074.82,-574.81 1085.29,-573.21 1076.11,-567.93 1074.82,-574.81"/>
<text text-anchor="middle" x="1039.5" y="-571.8" font-family="Times,serif" font-size="14.00">(extends)</text>
</g>
<!-- GameEntity&#45;&gt;Entity -->
<g id="edge13" class="edge">
<title>GameEntity&#45;&gt;Entity</title>
<path fill="none" stroke="black" stroke-dasharray="5,2" d="M810.26,-529.58C843.91,-534.18 891.21,-540.66 923.49,-545.07"/>
<polygon fill="black" stroke="black" points="923.02,-548.54 933.4,-546.43 923.97,-541.6 923.02,-548.54"/>
<text text-anchor="middle" x="868" y="-545.8" font-family="Times,serif" font-size="14.00">(extends)</text>
</g>
<!-- Trackable -->
<g id="node19" class="node">
<title>Trackable</title>
<polygon fill="#ffb347" stroke="black" points="996,-514 925,-514 925,-478 996,-478 996,-514"/>
<text text-anchor="middle" x="960.5" y="-492.3" font-family="Times,serif" font-size="14.00">Trackable</text>
</g>
<!-- GameEntity&#45;&gt;Trackable -->
<g id="edge14" class="edge">
<title>GameEntity&#45;&gt;Trackable</title>
<path fill="none" stroke="black" stroke-dasharray="5,2" d="M810.1,-516.2C816.42,-515.07 822.88,-513.96 829,-513 857.47,-508.52 889.56,-504.33 914.79,-501.23"/>
<polygon fill="black" stroke="black" points="915.3,-504.69 924.81,-500.01 914.46,-497.74 915.3,-504.69"/>
<text text-anchor="middle" x="868" y="-516.8" font-family="Times,serif" font-size="14.00">(extends)</text>
</g>
<!-- Identifiable&#45;&gt;string -->
<g id="edge1" class="edge">
<title>Identifiable&#45;&gt;string</title>
<path fill="none" stroke="black" d="M1162.2,-505.67C1181.58,-498.5 1204.86,-489.88 1223.68,-482.91"/>
<polygon fill="black" stroke="black" points="1224.91,-486.19 1233.07,-479.43 1222.48,-479.62 1224.91,-486.19"/>
<text text-anchor="middle" x="1195.5" y="-500.8" font-family="Times,serif" font-size="14.00">name</text>
</g>
<!-- Item&#45;&gt;WorldObject -->
<g id="edge20" class="edge">
<title>Item&#45;&gt;WorldObject</title>
<path fill="none" stroke="black" stroke-dasharray="5,2" d="M420.1,-89.65C448.76,-88.57 494.38,-91.51 522,-117 575.25,-166.15 583.06,-257.97 583.34,-304.46"/>
<polygon fill="black" stroke="black" points="579.84,-304.71 583.29,-314.72 586.84,-304.74 579.84,-304.71"/>
<text text-anchor="middle" x="485" y="-120.8" font-family="Times,serif" font-size="14.00">(implements)</text>
</g>
<!-- MagicWeapon -->
<g id="node10" class="node">
<title>MagicWeapon</title>
<polygon fill="#add8e6" stroke="black" points="97,-183 0,-183 0,-147 97,-147 97,-183"/>
<text text-anchor="middle" x="48.5" y="-161.3" font-family="Times,serif" font-size="14.00">MagicWeapon</text>
</g>
<!-- Weapon -->
<g id="node20" class="node">
<title>Weapon</title>
<polygon fill="#add8e6" stroke="black" points="246,-183 184,-183 184,-147 246,-147 246,-183"/>
<text text-anchor="middle" x="215" y="-161.3" font-family="Times,serif" font-size="14.00">Weapon</text>
</g>
<!-- MagicWeapon&#45;&gt;Weapon -->
<g id="edge34" class="edge">
<title>MagicWeapon&#45;&gt;Weapon</title>
<path fill="none" stroke="black" stroke-dasharray="5,2" d="M97.08,-165C121.27,-165 150.36,-165 173.47,-165"/>
<polygon fill="black" stroke="black" points="173.63,-168.5 183.63,-165 173.63,-161.5 173.63,-168.5"/>
<text text-anchor="middle" x="140.5" y="-168.8" font-family="Times,serif" font-size="14.00">(extends)</text>
</g>
<!-- MagicWeapon&#45;&gt;WorldObject -->
<g id="edge35" class="edge">
<title>MagicWeapon&#45;&gt;WorldObject</title>
<path fill="none" stroke="black" stroke-dasharray="5,2" d="M95.52,-183.05C155.09,-206.05 262.36,-246.28 356,-275 414.93,-293.08 483.65,-310.12 529.8,-320.99"/>
<polygon fill="black" stroke="black" points="529.05,-324.41 539.59,-323.28 530.65,-317.59 529.05,-324.41"/>
<text text-anchor="middle" x="301" y="-271.8" font-family="Times,serif" font-size="14.00">(implements)</text>
</g>
<!-- MagicWeapon&#45;&gt;string -->
<g id="edge6" class="edge">
<title>MagicWeapon&#45;&gt;string</title>
<path fill="none" stroke="black" d="M57.17,-146.71C76.56,-103.75 131.89,0 214,0 214,0 214,0 1123.5,0 1158.45,0 1209.94,-100.23 1211,-103 1256.82,-222.39 1260.13,-378 1259.34,-441.32"/>
<polygon fill="black" stroke="black" points="1255.83,-441.64 1259.16,-451.7 1262.83,-441.76 1255.83,-441.64"/>
<text text-anchor="middle" x="676.5" y="-3.8" font-family="Times,serif" font-size="14.00">spell_name</text>
</g>
<!-- Merchant -->
<g id="node11" class="node">
<title>Merchant</title>
<polygon fill="#add8e6" stroke="black" points="83,-413 14,-413 14,-377 83,-377 83,-413"/>
<text text-anchor="middle" x="48.5" y="-391.3" font-family="Times,serif" font-size="14.00">Merchant</text>
</g>
<!-- Merchant&#45;&gt;Combatant -->
<g id="edge40" class="edge">
<title>Merchant&#45;&gt;Combatant</title>
<path fill="none" stroke="black" stroke-dasharray="5,2" d="M83.01,-399.56C190.68,-414.21 520.87,-459.19 522,-460 553.11,-482.38 569.08,-525.33 576.61,-553.83"/>
<polygon fill="black" stroke="black" points="573.23,-554.73 579.01,-563.61 580.02,-553.06 573.23,-554.73"/>
<text text-anchor="middle" x="301" y="-436.8" font-family="Times,serif" font-size="14.00">(implements)</text>
</g>
<!-- Merchant&#45;&gt;NPC -->
<g id="edge39" class="edge">
<title>Merchant&#45;&gt;NPC</title>
<path fill="none" stroke="black" stroke-dasharray="5,2" d="M68.69,-413.2C98.04,-441.03 154.14,-494.24 187.4,-525.77"/>
<polygon fill="black" stroke="black" points="185.27,-528.57 194.93,-532.92 190.08,-523.49 185.27,-528.57"/>
<text text-anchor="middle" x="140.5" y="-507.8" font-family="Times,serif" font-size="14.00">(extends)</text>
</g>
<!-- Merchant&#45;&gt;WorldObject -->
<g id="edge41" class="edge">
<title>Merchant&#45;&gt;WorldObject</title>
<path fill="none" stroke="black" stroke-dasharray="5,2" d="M78.49,-376.94C89.53,-370.89 102.48,-364.73 115,-361 260.23,-317.73 441.78,-322.62 529.79,-328.48"/>
<polygon fill="black" stroke="black" points="529.58,-331.98 539.8,-329.18 530.06,-325 529.58,-331.98"/>
<text text-anchor="middle" x="301" y="-335.8" font-family="Times,serif" font-size="14.00">(implements)</text>
</g>
<!-- Merchant&#45;&gt;string -->
<g id="edge8" class="edge">
<title>Merchant&#45;&gt;string</title>
<path fill="none" stroke="black" d="M83.3,-393.76C125.56,-392.28 200.12,-389.89 264,-389 296.89,-388.54 305.18,-386.93 338,-389 447.32,-395.9 472.96,-420 582.5,-420 582.5,-420 582.5,-420 1123.5,-420 1161.74,-420 1202.5,-437.85 1229.11,-452.22"/>
<polygon fill="black" stroke="black" points="1227.47,-455.31 1237.91,-457.12 1230.88,-449.2 1227.47,-455.31"/>
<text text-anchor="middle" x="676.5" y="-423.8" font-family="Times,serif" font-size="14.00">specialty</text>
</g>
<!-- NPC&#45;&gt;Combatant -->
<g id="edge29" class="edge">
<title>NPC&#45;&gt;Combatant</title>
<path fill="none" stroke="black" stroke-dasharray="5,2" d="M242.1,-560.94C249.12,-563.27 256.77,-565.5 264,-567 376.5,-590.3 407.12,-583.95 522,-583 526.14,-582.97 530.43,-582.92 534.74,-582.86"/>
<polygon fill="black" stroke="black" points="534.79,-586.36 544.74,-582.72 534.69,-579.36 534.79,-586.36"/>
<text text-anchor="middle" x="393" y="-587.8" font-family="Times,serif" font-size="14.00">(implements)</text>
</g>
<!-- NPC&#45;&gt;Creature -->
<g id="edge28" class="edge">
<title>NPC&#45;&gt;Creature</title>
<path fill="none" stroke="black" stroke-dasharray="5,2" d="M242.35,-549.8C271.08,-548.5 317.42,-546.39 350.93,-544.87"/>
<polygon fill="black" stroke="black" points="351.49,-548.35 361.32,-544.39 351.17,-541.35 351.49,-548.35"/>
<text text-anchor="middle" x="301" y="-551.8" font-family="Times,serif" font-size="14.00">(extends)</text>
</g>
<!-- NPC&#45;&gt;WorldObject -->
<g id="edge30" class="edge">
<title>NPC&#45;&gt;WorldObject</title>
<path fill="none" stroke="black" stroke-dasharray="5,2" d="M241.87,-532.93C283.79,-504.17 369.76,-447.33 448,-409 479.58,-393.53 491.42,-398.36 522,-381 533.48,-374.49 545.07,-365.88 555,-357.76"/>
<polygon fill="black" stroke="black" points="557.51,-360.23 562.91,-351.11 553,-354.87 557.51,-360.23"/>
<text text-anchor="middle" x="393" y="-461.8" font-family="Times,serif" font-size="14.00">(implements)</text>
</g>
<!-- NPC&#45;&gt;string -->
<g id="edge4" class="edge">
<title>NPC&#45;&gt;string</title>
<path fill="none" stroke="black" d="M238.39,-569.03C246.28,-575.04 255.35,-581.59 264,-587 295.35,-606.61 315.24,-595.86 338,-625 359.63,-652.7 329.9,-678.46 356,-702 526.01,-855.33 638.06,-767 867,-767 867,-767 867,-767 1123.5,-767 1240.92,-767 1256.73,-572.24 1258.49,-498.15"/>
<polygon fill="black" stroke="black" points="1261.99,-498.19 1258.66,-488.13 1254.99,-498.07 1261.99,-498.19"/>
<text text-anchor="middle" x="768.5" y="-779.8" font-family="Times,serif" font-size="14.00">greeting</text>
</g>
<!-- Physical -->
<g id="node13" class="node">
<title>Physical</title>
<polygon fill="#ffb347" stroke="black" points="799.5,-351 737.5,-351 737.5,-315 799.5,-315 799.5,-351"/>
<text text-anchor="middle" x="768.5" y="-329.3" font-family="Times,serif" font-size="14.00">Physical</text>
</g>
<!-- Player -->
<g id="node14" class="node">
<title>Player</title>
<polygon fill="#add8e6" stroke="black" points="242,-703 188,-703 188,-667 242,-667 242,-703"/>
<text text-anchor="middle" x="215" y="-681.3" font-family="Times,serif" font-size="14.00">Player</text>
</g>
<!-- Player&#45;&gt;Combatant -->
<g id="edge32" class="edge">
<title>Player&#45;&gt;Combatant</title>
<path fill="none" stroke="black" stroke-dasharray="5,2" d="M242.25,-686.46C267,-687.49 305.11,-688.19 338,-685 379.47,-680.98 390.87,-681.32 430,-667 472.75,-651.36 517.82,-624.81 547.78,-605.55"/>
<polygon fill="black" stroke="black" points="549.72,-608.46 556.19,-600.07 545.9,-602.59 549.72,-608.46"/>
<text text-anchor="middle" x="393" y="-686.8" font-family="Times,serif" font-size="14.00">(implements)</text>
</g>
<!-- Player&#45;&gt;Creature -->
<g id="edge31" class="edge">
<title>Player&#45;&gt;Creature</title>
<path fill="none" stroke="black" stroke-dasharray="5,2" d="M237.42,-666.98C245.69,-660.06 255.25,-652.13 264,-645 296.8,-618.27 334.74,-588.13 360.75,-567.59"/>
<polygon fill="black" stroke="black" points="363.07,-570.22 368.75,-561.27 358.74,-564.72 363.07,-570.22"/>
<text text-anchor="middle" x="301" y="-648.8" font-family="Times,serif" font-size="14.00">(extends)</text>
</g>
<!-- Player&#45;&gt;WorldObject -->
<g id="edge33" class="edge">
<title>Player&#45;&gt;WorldObject</title>
<path fill="none" stroke="black" stroke-dasharray="5,2" d="M242.09,-682.59C267.39,-679.59 306.47,-673.15 338,-660 346.87,-656.3 347.89,-653.17 356,-648 388.47,-627.32 406,-633.1 430,-603 445.77,-583.22 431.93,-568.54 448,-549 472.02,-519.79 497.79,-536.06 522,-507 557.87,-463.95 572.98,-398.32 578.94,-361.19"/>
<polygon fill="black" stroke="black" points="582.44,-361.48 580.45,-351.08 575.51,-360.45 582.44,-361.48"/>
<text text-anchor="middle" x="393" y="-651.8" font-family="Times,serif" font-size="14.00">(implements)</text>
</g>
<!-- Player&#45;&gt;string -->
<g id="edge5" class="edge">
<title>Player&#45;&gt;string</title>
<path fill="none" stroke="black" d="M227.91,-703.21C253.32,-739.64 316.74,-818 392,-818 392,-818 392,-818 1123.5,-818 1174.15,-818 1185.69,-788.87 1211,-745 1235.16,-703.13 1250.54,-559.48 1256.15,-498.14"/>
<polygon fill="black" stroke="black" points="1259.65,-498.29 1257.06,-488.02 1252.68,-497.67 1259.65,-498.29"/>
<text text-anchor="middle" x="768.5" y="-821.8" font-family="Times,serif" font-size="14.00">class_name</text>
</g>
<!-- Prop -->
<g id="node16" class="node">
<title>Prop</title>
<polygon fill="#add8e6" stroke="black" points="420,-266 366,-266 366,-230 420,-230 420,-266"/>
<text text-anchor="middle" x="393" y="-244.3" font-family="Times,serif" font-size="14.00">Prop</text>
</g>
<!-- Prop&#45;&gt;WorldObject -->
<g id="edge23" class="edge">
<title>Prop&#45;&gt;WorldObject</title>
<path fill="none" stroke="black" stroke-dasharray="5,2" d="M420.12,-246.31C447.18,-245.69 489.92,-247.98 522,-265 540.09,-274.6 555.36,-291.9 566.04,-306.65"/>
<polygon fill="black" stroke="black" points="563.22,-308.72 571.78,-314.96 568.98,-304.74 563.22,-308.72"/>
<text text-anchor="middle" x="485" y="-268.8" font-family="Times,serif" font-size="14.00">(implements)</text>
</g>
<!-- Renderable -->
<g id="node17" class="node">
<title>Renderable</title>
<polygon fill="#ffb347" stroke="black" points="907,-397 829,-397 829,-361 907,-361 907,-397"/>
<text text-anchor="middle" x="868" y="-375.3" font-family="Times,serif" font-size="14.00">Renderable</text>
</g>
<!-- Renderable&#45;&gt;string -->
<g id="edge2" class="edge">
<title>Renderable&#45;&gt;string</title>
<path fill="none" stroke="black" d="M907.17,-372.1C973.74,-362.12 1113.28,-350.42 1211,-406 1226.06,-414.56 1237.75,-430.04 1245.78,-443.64"/>
<polygon fill="black" stroke="black" points="1242.85,-445.57 1250.74,-452.63 1248.98,-442.19 1242.85,-445.57"/>
<text text-anchor="middle" x="1039.5" y="-368.8" font-family="Times,serif" font-size="14.00">sprite</text>
</g>
<!-- Timed -->
<g id="node18" class="node">
<title>Timed</title>
<polygon fill="#ffb347" stroke="black" points="1149.5,-484 1095.5,-484 1095.5,-448 1149.5,-448 1149.5,-484"/>
<text text-anchor="middle" x="1122.5" y="-462.3" font-family="Times,serif" font-size="14.00">Timed</text>
</g>
<!-- Trackable&#45;&gt;Identifiable -->
<g id="edge11" class="edge">
<title>Trackable&#45;&gt;Identifiable</title>
<path fill="none" stroke="black" stroke-dasharray="5,2" d="M996.19,-497.52C1016.38,-498.77 1042.26,-501.02 1065,-505 1067.63,-505.46 1070.31,-505.98 1073.01,-506.55"/>
<polygon fill="black" stroke="black" points="1072.26,-509.97 1082.79,-508.78 1073.82,-503.15 1072.26,-509.97"/>
<text text-anchor="middle" x="1039.5" y="-508.8" font-family="Times,serif" font-size="14.00">(extends)</text>
</g>
<!-- Trackable&#45;&gt;Timed -->
<g id="edge12" class="edge">
<title>Trackable&#45;&gt;Timed</title>
<path fill="none" stroke="black" stroke-dasharray="5,2" d="M996.26,-483.71C1002.13,-481.93 1008.2,-480.28 1014,-479 1037.4,-473.85 1064.15,-470.6 1085.11,-468.64"/>
<polygon fill="black" stroke="black" points="1085.54,-472.12 1095.2,-467.76 1084.93,-465.15 1085.54,-472.12"/>
<text text-anchor="middle" x="1039.5" y="-482.8" font-family="Times,serif" font-size="14.00">(extends)</text>
</g>
<!-- Weapon&#45;&gt;Item -->
<g id="edge24" class="edge">
<title>Weapon&#45;&gt;Item</title>
<path fill="none" stroke="black" stroke-dasharray="5,2" d="M246.26,-152.45C276.81,-139.78 323.98,-120.21 356.33,-106.79"/>
<polygon fill="black" stroke="black" points="357.97,-109.9 365.86,-102.84 355.29,-103.44 357.97,-109.9"/>
<text text-anchor="middle" x="301" y="-146.8" font-family="Times,serif" font-size="14.00">(extends)</text>
</g>
<!-- Weapon&#45;&gt;WorldObject -->
<g id="edge25" class="edge">
<title>Weapon&#45;&gt;WorldObject</title>
<path fill="none" stroke="black" stroke-dasharray="5,2" d="M246.13,-164.62C305.51,-165.42 439.05,-175.12 522,-242 543.29,-259.17 559.79,-285.86 570.14,-305.9"/>
<polygon fill="black" stroke="black" points="567.01,-307.46 574.59,-314.86 573.28,-304.35 567.01,-307.46"/>
<text text-anchor="middle" x="393" y="-195.8" font-family="Times,serif" font-size="14.00">(implements)</text>
</g>
<!-- WorldObject&#45;&gt;GameEntity -->
<g id="edge15" class="edge">
<title>WorldObject&#45;&gt;GameEntity</title>
<path fill="none" stroke="black" stroke-dasharray="5,2" d="M591.82,-351.07C601.54,-373.51 620.39,-412.12 645,-439 667.83,-463.93 699.25,-485.55 724.55,-500.74"/>
<polygon fill="black" stroke="black" points="722.83,-503.79 733.22,-505.84 726.38,-497.76 722.83,-503.79"/>
<text text-anchor="middle" x="676.5" y="-493.8" font-family="Times,serif" font-size="14.00">(extends)</text>
</g>
<!-- WorldObject&#45;&gt;Physical -->
<g id="edge17" class="edge">
<title>WorldObject&#45;&gt;Physical</title>
<path fill="none" stroke="black" stroke-dasharray="5,2" d="M627.41,-333C657.51,-333 697.51,-333 727.06,-333"/>
<polygon fill="black" stroke="black" points="727.44,-336.5 737.44,-333 727.43,-329.5 727.44,-336.5"/>
<text text-anchor="middle" x="676.5" y="-336.8" font-family="Times,serif" font-size="14.00">(extends)</text>
</g>
<!-- WorldObject&#45;&gt;Renderable -->
<g id="edge16" class="edge">
<title>WorldObject&#45;&gt;Renderable</title>
<path fill="none" stroke="black" stroke-dasharray="5,2" d="M627.21,-347.48C633.14,-349.17 639.19,-350.75 645,-352 704.15,-364.77 773.56,-372 818.82,-375.7"/>
<polygon fill="black" stroke="black" points="818.69,-379.2 828.94,-376.5 819.25,-372.22 818.69,-379.2"/>
<text text-anchor="middle" x="676.5" y="-365.8" font-family="Times,serif" font-size="14.00">(extends)</text>
</g>
</g>
</svg>
