<?xml version="1.0" encoding="UTF-8" standalone="no"?>
<!DOCTYPE svg PUBLIC "-//W3C//DTD SVG 1.1//EN"
 "http://www.w3.org/Graphics/SVG/1.1/DTD/svg11.dtd">
<!-- Generated by graphviz version 2.43.0 (0)
 -->
<!-- Title: types Pages: 1 -->
<svg width="1225pt" height="273pt"
 viewBox="0.00 0.00 1225.09 273.00" xmlns="http://www.w3.org/2000/svg" xmlns:xlink="http://www.w3.org/1999/xlink">
<g id="graph0" class="graph" transform="scale(1 1) rotate(0) translate(4 269)">
<title>types</title>
<polygon fill="white" stroke="transparent" points="-4,4 -4,-269 1221.09,-269 1221.09,4 -4,4"/>
<text text-anchor="middle" x="608.55" y="-246.6" font-family="Times,serif" font-size="18.00">graph showing field name, hp</text>
<!-- Armor -->
<g id="node1" class="node">
<title>Armor</title>
<polygon fill="#add8e6" stroke="black" points="242,-90 188,-90 188,-54 242,-54 242,-90"/>
<text text-anchor="middle" x="215" y="-68.3" font-family="Times,serif" font-size="14.00">Armor</text>
</g>
<!-- Item -->
<g id="node9" class="node">
<title>Item</title>
<polygon fill="#add8e6" stroke="black" points="391.5,-55 337.5,-55 337.5,-19 391.5,-19 391.5,-55"/>
<text text-anchor="middle" x="364.5" y="-33.3" font-family="Times,serif" font-size="14.00">Item</text>
</g>
<!-- Armor&#45;&gt;Item -->
<g id="edge19" class="edge">
<title>Armor&#45;&gt;Item</title>
<path fill="none" stroke="black" stroke-dasharray="5,2" d="M242.13,-66.52C262.13,-62.24 290.37,-56.03 315,-50 319.1,-49 323.38,-47.91 327.62,-46.8"/>
<polygon fill="black" stroke="black" points="328.6,-50.16 337.38,-44.22 326.81,-43.4 328.6,-50.16"/>
<text text-anchor="middle" x="289.5" y="-65.8" font-family="Times,serif" font-size="14.00">(extends)</text>
</g>
<!-- Boss -->
<g id="node2" class="node">
<title>Boss</title>
<polygon fill="#add8e6" stroke="black" points="75.5,-183 21.5,-183 21.5,-147 75.5,-147 75.5,-183"/>
<text text-anchor="middle" x="48.5" y="-161.3" font-family="Times,serif" font-size="14.00">Boss</text>
</g>
<!-- NPC -->
<g id="node12" class="node">
<title>NPC</title>
<polygon fill="#add8e6" stroke="black" points="242,-210 188,-210 188,-174 242,-174 242,-210"/>
<text text-anchor="middle" x="215" y="-188.3" font-family="Times,serif" font-size="14.00">NPC</text>
</g>
<!-- Boss&#45;&gt;NPC -->
<g id="edge23" class="edge">
<title>Boss&#45;&gt;NPC</title>
<path fill="none" stroke="black" stroke-dasharray="5,2" d="M75.95,-168.39C99.61,-171.54 135.21,-176.55 166,-182 169.9,-182.69 173.96,-183.46 178,-184.25"/>
<polygon fill="black" stroke="black" points="177.4,-187.7 187.9,-186.26 178.79,-180.84 177.4,-187.7"/>
<text text-anchor="middle" x="140.5" y="-185.8" font-family="Times,serif" font-size="14.00">(extends)</text>
</g>
<!-- Combatant -->
<g id="node3" class="node">
<title>Combatant</title>
<polygon fill="#ffb347" stroke="black" points="588,-185 511,-185 511,-149 588,-149 588,-185"/>
<text text-anchor="middle" x="549.5" y="-163.3" font-family="Times,serif" font-size="14.00">Combatant</text>
</g>
<!-- Damageable -->
<g id="node5" class="node">
<title>Damageable</title>
<polygon fill="#ffb347" stroke="black" points="765,-223 680,-223 680,-187 765,-187 765,-223"/>
<text text-anchor="middle" x="722.5" y="-201.3" font-family="Times,serif" font-size="14.00">Damageable</text>
</g>
<!-- Combatant&#45;&gt;Damageable -->
<g id="edge13" class="edge">
<title>Combatant&#45;&gt;Damageable</title>
<path fill="none" stroke="black" stroke-dasharray="5,2" d="M588.03,-175.34C612.09,-180.69 643.64,-187.7 670.03,-193.56"/>
<polygon fill="black" stroke="black" points="669.34,-196.99 679.86,-195.75 670.86,-190.16 669.34,-196.99"/>
<text text-anchor="middle" x="636.5" y="-194.8" font-family="Times,serif" font-size="14.00">(extends)</text>
</g>
<!-- GameEntity -->
<g id="node7" class="node">
<title>GameEntity</title>
<polygon fill="#ffb347" stroke="black" points="764,-166 681,-166 681,-130 764,-130 764,-166"/>
<text text-anchor="middle" x="722.5" y="-144.3" font-family="Times,serif" font-size="14.00">GameEntity</text>
</g>
<!-- Combatant&#45;&gt;GameEntity -->
<g id="edge12" class="edge">
<title>Combatant&#45;&gt;GameEntity</title>
<path fill="none" stroke="black" stroke-dasharray="5,2" d="M588.03,-162.83C612.24,-160.14 644.05,-156.61 670.54,-153.66"/>
<polygon fill="black" stroke="black" points="671.22,-157.11 680.77,-152.53 670.45,-150.15 671.22,-157.11"/>
<text text-anchor="middle" x="636.5" y="-162.8" font-family="Times,serif" font-size="14.00">(extends)</text>
</g>
<!-- Creature -->
<g id="node4" class="node">
<title>Creature</title>
<polygon fill="#add8e6" stroke="black" points="396,-168 333,-168 333,-132 396,-132 396,-168"/>
<text text-anchor="middle" x="364.5" y="-146.3" font-family="Times,serif" font-size="14.00">Creature</text>
</g>
<!-- Creature&#45;&gt;Combatant -->
<g id="edge15" class="edge">
<title>Creature&#45;&gt;Combatant</title>
<path fill="none" stroke="black" stroke-dasharray="5,2" d="M396.13,-152.85C424.59,-155.49 467.43,-159.47 500.45,-162.54"/>
<polygon fill="black" stroke="black" points="500.51,-166.06 510.79,-163.5 501.16,-159.09 500.51,-166.06"/>
<text text-anchor="middle" x="451" y="-164.8" font-family="Times,serif" font-size="14.00">(implements)</text>
</g>
<!-- WorldObject -->
<g id="node21" class="node">
<title>WorldObject</title>
<polygon fill="#ffb347" stroke="black" points="593,-109 506,-109 506,-73 593,-73 593,-109"/>
<text text-anchor="middle" x="549.5" y="-87.3" font-family="Times,serif" font-size="14.00">WorldObject</text>
</g>
<!-- Creature&#45;&gt;WorldObject -->
<g id="edge16" class="edge">
<title>Creature&#45;&gt;WorldObject</title>
<path fill="none" stroke="black" stroke-dasharray="5,2" d="M396.13,-140.12C423.33,-131.35 463.67,-118.35 496.01,-107.92"/>
<polygon fill="black" stroke="black" points="497.32,-111.18 505.77,-104.78 495.17,-104.52 497.32,-111.18"/>
<text text-anchor="middle" x="451" y="-137.8" font-family="Times,serif" font-size="14.00">(implements)</text>
</g>
<!-- int16 -->
<g id="node22" class="node">
<title>int16</title>
<ellipse fill="#ffffe0" stroke="black" cx="887.5" cy="-205" rx="28.7" ry="18"/>
<text text-anchor="middle" x="887.5" y="-201.3" font-family="Times,serif" font-size="14.00">int16</text>
</g>
<!-- Damageable&#45;&gt;int16 -->
<g id="edge2" class="edge">
<title>Damageable&#45;&gt;int16</title>
<path fill="none" stroke="black" d="M765.05,-205C790.8,-205 823.62,-205 848.65,-205"/>
<polygon fill="black" stroke="black" points="848.86,-208.5 858.86,-205 848.86,-201.5 848.86,-208.5"/>
<text text-anchor="middle" x="808.5" y="-208.8" font-family="Times,serif" font-size="14.00">hp</text>
</g>
<!-- Entity -->
<g id="node6" class="node">
<title>Entity</title>
<polygon fill="#ffb347" stroke="black" points="914.5,-168 860.5,-168 860.5,-132 914.5,-132 914.5,-168"/>
<text text-anchor="middle" x="887.5" y="-146.3" font-family="Times,serif" font-size="14.00">Entity</text>
</g>
<!-- Identifiable -->
<g id="node8" class="node">
<title>Identifiable</title>
<polygon fill="#ffb347" stroke="black" points="1089,-141 1010,-141 1010,-105 1089,-105 1089,-141"/>
<text text-anchor="middle" x="1049.5" y="-119.3" font-family="Times,serif" font-size="14.00">Identifiable</text>
</g>
<!-- Entity&#45;&gt;Identifiable -->
<g id="edge3" class="edge">
<title>Entity&#45;&gt;Identifiable</title>
<path fill="none" stroke="black" stroke-dasharray="5,2" d="M914.56,-145.6C937.59,-141.72 971.78,-135.95 999.85,-131.21"/>
<polygon fill="black" stroke="black" points="1000.61,-134.63 1009.89,-129.52 999.44,-127.73 1000.61,-134.63"/>
<text text-anchor="middle" x="966.5" y="-143.8" font-family="Times,serif" font-size="14.00">(extends)</text>
</g>
<!-- Positioned -->
<g id="node15" class="node">
<title>Positioned</title>
<polygon fill="#ffb347" stroke="black" points="1086.5,-198 1012.5,-198 1012.5,-162 1086.5,-162 1086.5,-198"/>
<text text-anchor="middle" x="1049.5" y="-176.3" font-family="Times,serif" font-size="14.00">Positioned</text>
</g>
<!-- Entity&#45;&gt;Positioned -->
<g id="edge4" class="edge">
<title>Entity&#45;&gt;Positioned</title>
<path fill="none" stroke="black" stroke-dasharray="5,2" d="M914.56,-154.89C938.22,-159.32 973.66,-165.97 1002.15,-171.31"/>
<polygon fill="black" stroke="black" points="1001.82,-174.81 1012.29,-173.21 1003.11,-167.93 1001.82,-174.81"/>
<text text-anchor="middle" x="966.5" y="-171.8" font-family="Times,serif" font-size="14.00">(extends)</text>
</g>
<!-- GameEntity&#45;&gt;Entity -->
<g id="edge7" class="edge">
<title>GameEntity&#45;&gt;Entity</title>
<path fill="none" stroke="black" stroke-dasharray="5,2" d="M764.21,-148.5C790.45,-148.82 824.29,-149.24 849.71,-149.55"/>
<polygon fill="black" stroke="black" points="850.01,-153.05 860.05,-149.68 850.09,-146.05 850.01,-153.05"/>
<text text-anchor="middle" x="808.5" y="-152.8" font-family="Times,serif" font-size="14.00">(extends)</text>
</g>
<!-- Trackable -->
<g id="node19" class="node">
<title>Trackable</title>
<polygon fill="#ffb347" stroke="black" points="923,-114 852,-114 852,-78 923,-78 923,-114"/>
<text text-anchor="middle" x="887.5" y="-92.3" font-family="Times,serif" font-size="14.00">Trackable</text>
</g>
<!-- GameEntity&#45;&gt;Trackable -->
<g id="edge8" class="edge">
<title>GameEntity&#45;&gt;Trackable</title>
<path fill="none" stroke="black" stroke-dasharray="5,2" d="M764.15,-135.02C770.46,-133 776.9,-130.94 783,-129 802.49,-122.78 824.06,-115.9 842.43,-110.05"/>
<polygon fill="black" stroke="black" points="843.53,-113.37 852,-107 841.41,-106.7 843.53,-113.37"/>
<text text-anchor="middle" x="808.5" y="-132.8" font-family="Times,serif" font-size="14.00">(extends)</text>
</g>
<!-- string -->
<g id="node23" class="node">
<title>string</title>
<ellipse fill="#ffffe0" stroke="black" cx="1186.55" cy="-123" rx="30.59" ry="18"/>
<text text-anchor="middle" x="1186.55" y="-119.3" font-family="Times,serif" font-size="14.00">string</text>
</g>
<!-- Identifiable&#45;&gt;string -->
<g id="edge1" class="edge">
<title>Identifiable&#45;&gt;string</title>
<path fill="none" stroke="black" d="M1089.2,-123C1106.92,-123 1127.9,-123 1145.76,-123"/>
<polygon fill="black" stroke="black" points="1145.86,-126.5 1155.86,-123 1145.86,-119.5 1145.86,-126.5"/>
<text text-anchor="middle" x="1122.5" y="-126.8" font-family="Times,serif" font-size="14.00">name</text>
</g>
<!-- Item&#45;&gt;WorldObject -->
<g id="edge14" class="edge">
<title>Item&#45;&gt;WorldObject</title>
<path fill="none" stroke="black" stroke-dasharray="5,2" d="M391.84,-44.31C416.69,-51.26 454.95,-62.09 488,-72 490.72,-72.82 493.5,-73.66 496.31,-74.52"/>
<polygon fill="black" stroke="black" points="495.32,-77.87 505.9,-77.47 497.38,-71.18 495.32,-77.87"/>
<text text-anchor="middle" x="451" y="-75.8" font-family="Times,serif" font-size="14.00">(implements)</text>
</g>
<!-- MagicWeapon -->
<g id="node10" class="node">
<title>MagicWeapon</title>
<polygon fill="#add8e6" stroke="black" points="97,-36 0,-36 0,0 97,0 97,-36"/>
<text text-anchor="middle" x="48.5" y="-14.3" font-family="Times,serif" font-size="14.00">MagicWeapon</text>
</g>
<!-- Weapon -->
<g id="node20" class="node">
<title>Weapon</title>
<polygon fill="#add8e6" stroke="black" points="246,-36 184,-36 184,0 246,0 246,-36"/>
<text text-anchor="middle" x="215" y="-14.3" font-family="Times,serif" font-size="14.00">Weapon</text>
</g>
<!-- MagicWeapon&#45;&gt;Weapon -->
<g id="edge22" class="edge">
<title>MagicWeapon&#45;&gt;Weapon</title>
<path fill="none" stroke="black" stroke-dasharray="5,2" d="M97.08,-18C121.27,-18 150.36,-18 173.47,-18"/>
<polygon fill="black" stroke="black" points="173.63,-21.5 183.63,-18 173.63,-14.5 173.63,-21.5"/>
<text text-anchor="middle" x="140.5" y="-21.8" font-family="Times,serif" font-size="14.00">(extends)</text>
</g>
<!-- Merchant -->
<g id="node11" class="node">
<title>Merchant</title>
<polygon fill="#add8e6" stroke="black" points="83,-237 14,-237 14,-201 83,-201 83,-237"/>
<text text-anchor="middle" x="48.5" y="-215.3" font-family="Times,serif" font-size="14.00">Merchant</text>
</g>
<!-- Merchant&#45;&gt;NPC -->
<g id="edge24" class="edge">
<title>Merchant&#45;&gt;NPC</title>
<path fill="none" stroke="black" stroke-dasharray="5,2" d="M83.19,-213.47C110.81,-208.94 149.83,-202.53 178.05,-197.9"/>
<polygon fill="black" stroke="black" points="178.62,-201.35 187.92,-196.28 177.49,-194.45 178.62,-201.35"/>
<text text-anchor="middle" x="140.5" y="-210.8" font-family="Times,serif" font-size="14.00">(extends)</text>
</g>
<!-- NPC&#45;&gt;Creature -->
<g id="edge20" class="edge">
<title>NPC&#45;&gt;Creature</title>
<path fill="none" stroke="black" stroke-dasharray="5,2" d="M242.03,-184.59C264.45,-178.21 297.17,-168.89 323,-161.53"/>
<polygon fill="black" stroke="black" points="324.23,-164.82 332.89,-158.72 322.31,-158.09 324.23,-164.82"/>
<text text-anchor="middle" x="289.5" y="-180.8" font-family="Times,serif" font-size="14.00">(extends)</text>
</g>
<!-- Physical -->
<g id="node13" class="node">
<title>Physical</title>
<polygon fill="#ffb347" stroke="black" points="753.5,-109 691.5,-109 691.5,-73 753.5,-73 753.5,-109"/>
<text text-anchor="middle" x="722.5" y="-87.3" font-family="Times,serif" font-size="14.00">Physical</text>
</g>
<!-- Player -->
<g id="node14" class="node">
<title>Player</title>
<polygon fill="#add8e6" stroke="black" points="242,-156 188,-156 188,-120 242,-120 242,-156"/>
<text text-anchor="middle" x="215" y="-134.3" font-family="Times,serif" font-size="14.00">Player</text>
</g>
<!-- Player&#45;&gt;Creature -->
<g id="edge21" class="edge">
<title>Player&#45;&gt;Creature</title>
<path fill="none" stroke="black" stroke-dasharray="5,2" d="M242.03,-140.12C264.35,-141.93 296.88,-144.58 322.66,-146.68"/>
<polygon fill="black" stroke="black" points="322.63,-150.19 332.89,-147.51 323.2,-143.21 322.63,-150.19"/>
<text text-anchor="middle" x="289.5" y="-148.8" font-family="Times,serif" font-size="14.00">(extends)</text>
</g>
<!-- Prop -->
<g id="node16" class="node">
<title>Prop</title>
<polygon fill="#add8e6" stroke="black" points="391.5,-109 337.5,-109 337.5,-73 391.5,-73 391.5,-109"/>
<text text-anchor="middle" x="364.5" y="-87.3" font-family="Times,serif" font-size="14.00">Prop</text>
</g>
<!-- Prop&#45;&gt;WorldObject -->
<g id="edge17" class="edge">
<title>Prop&#45;&gt;WorldObject</title>
<path fill="none" stroke="black" stroke-dasharray="5,2" d="M391.72,-91C418.68,-91 461.41,-91 495.46,-91"/>
<polygon fill="black" stroke="black" points="495.72,-94.5 505.72,-91 495.72,-87.5 495.72,-94.5"/>
<text text-anchor="middle" x="451" y="-94.8" font-family="Times,serif" font-size="14.00">(implements)</text>
</g>
<!-- Renderable -->
<g id="node17" class="node">
<title>Renderable</title>
<polygon fill="#ffb347" stroke="black" points="761.5,-55 683.5,-55 683.5,-19 761.5,-19 761.5,-55"/>
<text text-anchor="middle" x="722.5" y="-33.3" font-family="Times,serif" font-size="14.00">Renderable</text>
</g>
<!-- Timed -->
<g id="node18" class="node">
<title>Timed</title>
<polygon fill="#ffb347" stroke="black" points="1076.5,-84 1022.5,-84 1022.5,-48 1076.5,-48 1076.5,-84"/>
<text text-anchor="middle" x="1049.5" y="-62.3" font-family="Times,serif" font-size="14.00">Timed</text>
</g>
<!-- Trackable&#45;&gt;Identifiable -->
<g id="edge5" class="edge">
<title>Trackable&#45;&gt;Identifiable</title>
<path fill="none" stroke="black" stroke-dasharray="5,2" d="M923.22,-101.86C945.67,-105.65 975.23,-110.64 999.99,-114.81"/>
<polygon fill="black" stroke="black" points="999.48,-118.28 1009.92,-116.49 1000.65,-111.38 999.48,-118.28"/>
<text text-anchor="middle" x="966.5" y="-115.8" font-family="Times,serif" font-size="14.00">(extends)</text>
</g>
<!-- Trackable&#45;&gt;Timed -->
<g id="edge6" class="edge">
<title>Trackable&#45;&gt;Timed</title>
<path fill="none" stroke="black" stroke-dasharray="5,2" d="M923.23,-89.36C929.16,-88.24 935.26,-87.08 941,-86 964.78,-81.52 991.53,-76.55 1012.4,-72.68"/>
<polygon fill="black" stroke="black" points="1013.23,-76.08 1022.43,-70.82 1011.96,-69.2 1013.23,-76.08"/>
<text text-anchor="middle" x="966.5" y="-89.8" font-family="Times,serif" font-size="14.00">(extends)</text>
</g>
<!-- Weapon&#45;&gt;Item -->
<g id="edge18" class="edge">
<title>Weapon&#45;&gt;Item</title>
<path fill="none" stroke="black" stroke-dasharray="5,2" d="M246.2,-21.89C269.66,-24.91 302.26,-29.11 327.14,-32.32"/>
<polygon fill="black" stroke="black" points="326.92,-35.82 337.29,-33.62 327.81,-28.87 326.92,-35.82"/>
<text text-anchor="middle" x="289.5" y="-34.8" font-family="Times,serif" font-size="14.00">(extends)</text>
</g>
<!-- WorldObject&#45;&gt;GameEntity -->
<g id="edge9" class="edge">
<title>WorldObject&#45;&gt;GameEntity</title>
<path fill="none" stroke="black" stroke-dasharray="5,2" d="M593.21,-105.24C616.88,-113.13 646.44,-122.98 671.22,-131.24"/>
<polygon fill="black" stroke="black" points="670.21,-134.59 680.81,-134.44 672.43,-127.95 670.21,-134.59"/>
<text text-anchor="middle" x="636.5" y="-130.8" font-family="Times,serif" font-size="14.00">(extends)</text>
</g>
<!-- WorldObject&#45;&gt;Physical -->
<g id="edge11" class="edge">
<title>WorldObject&#45;&gt;Physical</title>
<path fill="none" stroke="black" stroke-dasharray="5,2" d="M593.21,-91C620.19,-91 654.84,-91 681.33,-91"/>
<polygon fill="black" stroke="black" points="681.41,-94.5 691.41,-91 681.41,-87.5 681.41,-94.5"/>
<text text-anchor="middle" x="636.5" y="-94.8" font-family="Times,serif" font-size="14.00">(extends)</text>
</g>
<!-- WorldObject&#45;&gt;Renderable -->
<g id="edge10" class="edge">
<title>WorldObject&#45;&gt;Renderable</title>
<path fill="none" stroke="black" stroke-dasharray="5,2" d="M593.21,-77.51C617.66,-69.79 648.41,-60.08 673.67,-52.1"/>
<polygon fill="black" stroke="black" points="674.93,-55.38 683.41,-49.03 672.82,-48.7 674.93,-55.38"/>
<text text-anchor="middle" x="636.5" y="-74.8" font-family="Times,serif" font-size="14.00">(extends)</text>
</g>
</g>
</svg>
