<?xml version="1.0" encoding="UTF-8" standalone="no"?>
<!DOCTYPE svg PUBLIC "-//W3C//DTD SVG 1.1//EN"
 "http://www.w3.org/Graphics/SVG/1.1/DTD/svg11.dtd">
<!-- Generated by graphviz version 2.43.0 (0)
 -->
<!-- Title: types Pages: 1 -->
<svg width="1162pt" height="126pt"
 viewBox="0.00 0.00 1162.09 126.00" xmlns="http://www.w3.org/2000/svg" xmlns:xlink="http://www.w3.org/1999/xlink">
<g id="graph0" class="graph" transform="scale(1 1) rotate(0) translate(4 122)">
<title>types</title>
<polygon fill="white" stroke="transparent" points="-4,4 -4,-122 1158.09,-122 1158.09,4 -4,4"/>
<text text-anchor="middle" x="577.05" y="-99.6" font-family="Times,serif" font-size="18.00">graph Boss path to Identifiable</text>
<!-- Boss -->
<g id="node1" class="node">
<title>Boss</title>
<polygon fill="#add8e6" stroke="black" stroke-width="3" points="54,-90 0,-90 0,-54 54,-54 54,-90"/>
<text text-anchor="middle" x="27" y="-68.3" font-family="Times,serif" font-size="14.00">Boss</text>
</g>
<!-- NPC -->
<g id="node7" class="node">
<title>NPC</title>
<polygon fill="#add8e6" stroke="black" points="195,-90 141,-90 141,-54 195,-54 195,-90"/>
<text text-anchor="middle" x="168" y="-68.3" font-family="Times,serif" font-size="14.00">NPC</text>
</g>
<!-- Boss&#45;&gt;NPC -->
<g id="edge1" class="edge">
<title>Boss&#45;&gt;NPC</title>
<path fill="none" stroke="black" stroke-dasharray="5,2" d="M54.14,-72C75.79,-72 106.78,-72 130.81,-72"/>
<polygon fill="black" stroke="black" points="130.97,-75.5 140.97,-72 130.97,-68.5 130.97,-75.5"/>
<text text-anchor="middle" x="97.5" y="-75.8" font-family="Times,serif" font-size="14.00">(extends)</text>
</g>
<!-- Combatant -->
<g id="node2" class="node">
<title>Combatant</title>
<polygon fill="#ffb347" stroke="black" points="532,-90 455,-90 455,-54 532,-54 532,-90"/>
<text text-anchor="middle" x="493.5" y="-68.3" font-family="Times,serif" font-size="14.00">Combatant</text>
</g>
<!-- GameEntity -->
<g id="node5" class="node">
<title>GameEntity</title>
<polygon fill="#ffb347" stroke="black" points="702,-90 619,-90 619,-54 702,-54 702,-90"/>
<text text-anchor="middle" x="660.5" y="-68.3" font-family="Times,serif" font-size="14.00">GameEntity</text>
</g>
<!-- Combatant&#45;&gt;GameEntity -->
<g id="edge4" class="edge">
<title>Combatant&#45;&gt;GameEntity</title>
<path fill="none" stroke="black" stroke-dasharray="5,2" d="M532.35,-72C555,-72 584.06,-72 608.69,-72"/>
<polygon fill="black" stroke="black" points="608.94,-75.5 618.94,-72 608.94,-68.5 608.94,-75.5"/>
<text text-anchor="middle" x="575.5" y="-75.8" font-family="Times,serif" font-size="14.00">(extends)</text>
</g>
<!-- Creature -->
<g id="node3" class="node">
<title>Creature</title>
<polygon fill="#add8e6" stroke="black" points="345,-90 282,-90 282,-54 345,-54 345,-90"/>
<text text-anchor="middle" x="313.5" y="-68.3" font-family="Times,serif" font-size="14.00">Creature</text>
</g>
<!-- Creature&#45;&gt;Combatant -->
<g id="edge3" class="edge">
<title>Creature&#45;&gt;Combatant</title>
<path fill="none" stroke="black" stroke-dasharray="5,2" d="M345.1,-72C372.43,-72 412.91,-72 444.53,-72"/>
<polygon fill="black" stroke="black" points="444.89,-75.5 454.89,-72 444.89,-68.5 444.89,-75.5"/>
<text text-anchor="middle" x="400" y="-75.8" font-family="Times,serif" font-size="14.00">(implements)</text>
</g>
<!-- Entity -->
<g id="node4" class="node">
<title>Entity</title>
<polygon fill="#ffb347" stroke="black" points="851.5,-90 797.5,-90 797.5,-54 851.5,-54 851.5,-90"/>
<text text-anchor="middle" x="824.5" y="-68.3" font-family="Times,serif" font-size="14.00">Entity</text>
</g>
<!-- Identifiable -->
<g id="node6" class="node">
<title>Identifiable</title>
<polygon fill="#ffb347" stroke="black" points="1026,-55 947,-55 947,-19 1026,-19 1026,-55"/>
<text text-anchor="middle" x="986.5" y="-33.3" font-family="Times,serif" font-size="14.00">Identifiable</text>
</g>
<!-- Entity&#45;&gt;Identifiable -->
<g id="edge6" class="edge">
<title>Entity&#45;&gt;Identifiable</title>
<path fill="none" stroke="black" stroke-dasharray="5,2" d="M851.56,-66.3C874.59,-61.26 908.78,-53.78 936.85,-47.64"/>
<polygon fill="black" stroke="black" points="937.87,-51 946.89,-45.45 936.37,-44.16 937.87,-51"/>
<text text-anchor="middle" x="903.5" y="-63.8" font-family="Times,serif" font-size="14.00">(extends)</text>
</g>
<!-- GameEntity&#45;&gt;Entity -->
<g id="edge5" class="edge">
<title>GameEntity&#45;&gt;Entity</title>
<path fill="none" stroke="black" stroke-dasharray="5,2" d="M702.38,-72C728.46,-72 761.97,-72 787.12,-72"/>
<polygon fill="black" stroke="black" points="787.35,-75.5 797.35,-72 787.35,-68.5 787.35,-75.5"/>
<text text-anchor="middle" x="745.5" y="-75.8" font-family="Times,serif" font-size="14.00">(extends)</text>
</g>
<!-- string -->
<g id="node9" class="node">
<title>string</title>
<ellipse fill="#ffffe0" stroke="black" cx="1123.55" cy="-37" rx="30.59" ry="18"/>
<text text-anchor="middle" x="1123.55" y="-33.3" font-family="Times,serif" font-size="14.00">string</text>
</g>
<!-- Identifiable&#45;&gt;string -->
<g id="edge7" class="edge">
<title>Identifiable&#45;&gt;string</title>
<path fill="none" stroke="black" d="M1026.2,-37C1043.92,-37 1064.9,-37 1082.76,-37"/>
<polygon fill="black" stroke="black" points="1082.86,-40.5 1092.86,-37 1082.86,-33.5 1082.86,-40.5"/>
<text text-anchor="middle" x="1059.5" y="-40.8" font-family="Times,serif" font-size="14.00">name</text>
</g>
<!-- NPC&#45;&gt;Creature -->
<g id="edge2" class="edge">
<title>NPC&#45;&gt;Creature</title>
<path fill="none" stroke="black" stroke-dasharray="5,2" d="M195.32,-72C216.7,-72 247.23,-72 271.76,-72"/>
<polygon fill="black" stroke="black" points="271.86,-75.5 281.86,-72 271.86,-68.5 271.86,-75.5"/>
<text text-anchor="middle" x="238.5" y="-75.8" font-family="Times,serif" font-size="14.00">(extends)</text>
</g>
<!-- Trackable -->
<g id="node8" class="node">
<title>Trackable</title>
<polygon fill="#ffb347" stroke="black" points="860,-36 789,-36 789,0 860,0 860,-36"/>
<text text-anchor="middle" x="824.5" y="-14.3" font-family="Times,serif" font-size="14.00">Trackable</text>
</g>
<!-- Trackable&#45;&gt;Identifiable -->
<g id="edge8" class="edge">
<title>Trackable&#45;&gt;Identifiable</title>
<path fill="none" stroke="black" stroke-dasharray="5,2" d="M860.08,-20.24C880.24,-21.74 906.11,-23.99 929,-27 931.64,-27.35 934.35,-27.73 937.07,-28.14"/>
<polygon fill="black" stroke="black" points="936.55,-31.6 946.97,-29.71 937.64,-24.69 936.55,-31.6"/>
<text text-anchor="middle" x="903.5" y="-30.8" font-family="Times,serif" font-size="14.00">(extends)</text>
</g>
</g>
</svg>
