<?xml version="1.0" encoding="UTF-8" standalone="no"?>
<!DOCTYPE svg PUBLIC "-//W3C//DTD SVG 1.1//EN"
 "http://www.w3.org/Graphics/SVG/1.1/DTD/svg11.dtd">
<!-- Generated by graphviz version 2.43.0 (0)
 -->
<!-- Title: types Pages: 1 -->
<svg width="851pt" height="72pt"
 viewBox="0.00 0.00 851.00 72.00" xmlns="http://www.w3.org/2000/svg" xmlns:xlink="http://www.w3.org/1999/xlink">
<g id="graph0" class="graph" transform="scale(1 1) rotate(0) translate(4 68)">
<title>types</title>
<polygon fill="white" stroke="transparent" points="-4,4 -4,-68 847,-68 847,4 -4,4"/>
<text text-anchor="middle" x="421.5" y="-45.6" font-family="Times,serif" font-size="18.00">graph Boss path to Entity, Combatant</text>
<!-- Boss -->
<g id="node1" class="node">
<title>Boss</title>
<polygon fill="#add8e6" stroke="black" stroke-width="3" points="54,-36 0,-36 0,0 54,0 54,-36"/>
<text text-anchor="middle" x="27" y="-14.3" font-family="Times,serif" font-size="14.00">Boss</text>
</g>
<!-- NPC -->
<g id="node6" class="node">
<title>NPC</title>
<polygon fill="#add8e6" stroke="black" points="195,-36 141,-36 141,0 195,0 195,-36"/>
<text text-anchor="middle" x="168" y="-14.3" font-family="Times,serif" font-size="14.00">NPC</text>
</g>
<!-- Boss&#45;&gt;NPC -->
<g id="edge1" class="edge">
<title>Boss&#45;&gt;NPC</title>
<path fill="none" stroke="black" stroke-dasharray="5,2" d="M54.14,-18C75.79,-18 106.78,-18 130.81,-18"/>
<polygon fill="black" stroke="black" points="130.97,-21.5 140.97,-18 130.97,-14.5 130.97,-21.5"/>
<text text-anchor="middle" x="97.5" y="-21.8" font-family="Times,serif" font-size="14.00">(extends)</text>
</g>
<!-- Combatant -->
<g id="node2" class="node">
<title>Combatant</title>
<polygon fill="#ffb347" stroke="black" points="532,-36 455,-36 455,0 532,0 532,-36"/>
<text text-anchor="middle" x="493.5" y="-14.3" font-family="Times,serif" font-size="14.00">Combatant</text>
</g>
<!-- GameEntity -->
<g id="node5" class="node">
<title>GameEntity</title>
<polygon fill="#ffb347" stroke="black" points="702,-36 619,-36 619,0 702,0 702,-36"/>
<text text-anchor="middle" x="660.5" y="-14.3" font-family="Times,serif" font-size="14.00">GameEntity</text>
</g>
<!-- Combatant&#45;&gt;GameEntity -->
<g id="edge4" class="edge">
<title>Combatant&#45;&gt;GameEntity</title>
<path fill="none" stroke="black" stroke-dasharray="5,2" d="M532.35,-18C555,-18 584.06,-18 608.69,-18"/>
<polygon fill="black" stroke="black" points="608.94,-21.5 618.94,-18 608.94,-14.5 608.94,-21.5"/>
<text text-anchor="middle" x="575.5" y="-21.8" font-family="Times,serif" font-size="14.00">(extends)</text>
</g>
<!-- Creature -->
<g id="node3" class="node">
<title>Creature</title>
<polygon fill="#add8e6" stroke="black" points="345,-36 282,-36 282,0 345,0 345,-36"/>
<text text-anchor="middle" x="313.5" y="-14.3" font-family="Times,serif" font-size="14.00">Creature</text>
</g>
<!-- Creature&#45;&gt;Combatant -->
<g id="edge3" class="edge">
<title>Creature&#45;&gt;Combatant</title>
<path fill="none" stroke="black" stroke-dasharray="5,2" d="M345.1,-18C372.43,-18 412.91,-18 444.53,-18"/>
<polygon fill="black" stroke="black" points="444.89,-21.5 454.89,-18 444.89,-14.5 444.89,-21.5"/>
<text text-anchor="middle" x="400" y="-21.8" font-family="Times,serif" font-size="14.00">(implements)</text>
</g>
<!-- Entity -->
<g id="node4" class="node">
<title>Entity</title>
<polygon fill="#ffb347" stroke="black" points="843,-36 789,-36 789,0 843,0 843,-36"/>
<text text-anchor="middle" x="816" y="-14.3" font-family="Times,serif" font-size="14.00">Entity</text>
</g>
<!-- GameEntity&#45;&gt;Entity -->
<g id="edge5" class="edge">
<title>GameEntity&#45;&gt;Entity</title>
<path fill="none" stroke="black" stroke-dasharray="5,2" d="M702.23,-18C725.96,-18 755.62,-18 778.56,-18"/>
<polygon fill="black" stroke="black" points="778.59,-21.5 788.59,-18 778.59,-14.5 778.59,-21.5"/>
<text text-anchor="middle" x="745.5" y="-21.8" font-family="Times,serif" font-size="14.00">(extends)</text>
</g>
<!-- NPC&#45;&gt;Creature -->
<g id="edge2" class="edge">
<title>NPC&#45;&gt;Creature</title>
<path fill="none" stroke="black" stroke-dasharray="5,2" d="M195.32,-18C216.7,-18 247.23,-18 271.76,-18"/>
<polygon fill="black" stroke="black" points="271.86,-21.5 281.86,-18 271.86,-14.5 271.86,-21.5"/>
<text text-anchor="middle" x="238.5" y="-21.8" font-family="Times,serif" font-size="14.00">(extends)</text>
</g>
</g>
</svg>
