<?xml version="1.0" encoding="UTF-8" standalone="no"?>
<!DOCTYPE svg PUBLIC "-//W3C//DTD SVG 1.1//EN"
 "http://www.w3.org/Graphics/SVG/1.1/DTD/svg11.dtd">
<!-- Generated by graphviz version 2.43.0 (0)
 -->
<!-- Title: types Pages: 1 -->
<svg width="1199pt" height="240pt"
 viewBox="0.00 0.00 1199.49 240.00" xmlns="http://www.w3.org/2000/svg" xmlns:xlink="http://www.w3.org/1999/xlink">
<g id="graph0" class="graph" transform="scale(1 1) rotate(0) translate(4 236)">
<title>types</title>
<polygon fill="white" stroke="transparent" points="-4,4 -4,-236 1195.49,-236 1195.49,4 -4,4"/>
<text text-anchor="middle" x="595.75" y="-213.6" font-family="Times,serif" font-size="18.00">graph Boss path to Entity, Combatant</text>
<!-- Boss -->
<g id="node1" class="node">
<title>Boss</title>
<polygon fill="#add8e6" stroke="black" stroke-width="3" points="54,-101 0,-101 0,-65 54,-65 54,-101"/>
<text text-anchor="middle" x="27" y="-79.3" font-family="Times,serif" font-size="14.00">Boss</text>
</g>
<!-- NPC -->
<g id="node8" class="node">
<title>NPC</title>
<polygon fill="#add8e6" stroke="black" points="195,-101 141,-101 141,-65 195,-65 195,-101"/>
<text text-anchor="middle" x="168" y="-79.3" font-family="Times,serif" font-size="14.00">NPC</text>
</g>
<!-- Boss&#45;&gt;NPC -->
<g id="edge1" class="edge">
<title>Boss&#45;&gt;NPC</title>
<path fill="none" stroke="black" stroke-dasharray="5,2" d="M54.14,-83C75.79,-83 106.78,-83 130.81,-83"/>
<polygon fill="black" stroke="black" points="130.97,-86.5 140.97,-83 130.97,-79.5 130.97,-86.5"/>
<text text-anchor="middle" x="97.5" y="-86.8" font-family="Times,serif" font-size="14.00">(extends)</text>
</g>
<!-- Combatant -->
<g id="node2" class="node">
<title>Combatant</title>
<polygon fill="#ffb347" stroke="black" points="532,-101 455,-101 455,-65 532,-65 532,-101"/>
<text text-anchor="middle" x="493.5" y="-79.3" font-family="Times,serif" font-size="14.00">Combatant</text>
</g>
<!-- Damageable -->
<g id="node4" class="node">
<title>Damageable</title>
<polygon fill="#ffb347" stroke="black" points="704,-170 619,-170 619,-134 704,-134 704,-170"/>
<text text-anchor="middle" x="661.5" y="-148.3" font-family="Times,serif" font-size="14.00">Damageable</text>
</g>
<!-- Combatant&#45;&gt;Damageable -->
<g id="edge14" class="edge">
<title>Combatant&#45;&gt;Damageable</title>
<path fill="none" stroke="black" stroke-dasharray="5,2" d="M528.85,-101.08C535.79,-104.52 543.08,-107.98 550,-111 569.09,-119.32 590.46,-127.51 609.28,-134.35"/>
<polygon fill="black" stroke="black" points="608.28,-137.71 618.87,-137.8 610.65,-131.12 608.28,-137.71"/>
<text text-anchor="middle" x="575.5" y="-134.8" font-family="Times,serif" font-size="14.00">(extends)</text>
</g>
<!-- GameEntity -->
<g id="node6" class="node">
<title>GameEntity</title>
<polygon fill="#ffb347" stroke="black" points="703,-116 620,-116 620,-80 703,-80 703,-116"/>
<text text-anchor="middle" x="661.5" y="-94.3" font-family="Times,serif" font-size="14.00">GameEntity</text>
</g>
<!-- Combatant&#45;&gt;GameEntity -->
<g id="edge4" class="edge">
<title>Combatant&#45;&gt;GameEntity</title>
<path fill="none" stroke="black" stroke-dasharray="5,2" d="M532.17,-86.4C555.12,-88.48 584.74,-91.15 609.75,-93.41"/>
<polygon fill="black" stroke="black" points="609.51,-96.91 619.79,-94.32 610.14,-89.94 609.51,-96.91"/>
<text text-anchor="middle" x="575.5" y="-95.8" font-family="Times,serif" font-size="14.00">(extends)</text>
</g>
<!-- uint16 -->
<g id="node15" class="node">
<title>uint16</title>
<ellipse fill="#ffffe0" stroke="black" cx="661.5" cy="-37" rx="33.29" ry="18"/>
<text text-anchor="middle" x="661.5" y="-33.3" font-family="Times,serif" font-size="14.00">uint16</text>
</g>
<!-- Combatant&#45;&gt;uint16 -->
<g id="edge12" class="edge">
<title>Combatant&#45;&gt;uint16</title>
<path fill="none" stroke="black" d="M532.17,-72.56C558.97,-65.13 594.87,-55.19 621.89,-47.7"/>
<polygon fill="black" stroke="black" points="623.07,-51.01 631.77,-44.96 621.2,-44.26 623.07,-51.01"/>
<text text-anchor="middle" x="575.5" y="-69.8" font-family="Times,serif" font-size="14.00">attack</text>
</g>
<!-- Combatant&#45;&gt;uint16 -->
<g id="edge13" class="edge">
<title>Combatant&#45;&gt;uint16</title>
<path fill="none" stroke="black" d="M509.4,-64.75C519.55,-53.83 534,-40.96 550,-35 572.25,-26.71 598.81,-26.9 620.31,-29.32"/>
<polygon fill="black" stroke="black" points="620.05,-32.81 630.42,-30.65 620.97,-25.87 620.05,-32.81"/>
<text text-anchor="middle" x="575.5" y="-38.8" font-family="Times,serif" font-size="14.00">defense</text>
</g>
<!-- Creature -->
<g id="node3" class="node">
<title>Creature</title>
<polygon fill="#add8e6" stroke="black" points="345,-101 282,-101 282,-65 345,-65 345,-101"/>
<text text-anchor="middle" x="313.5" y="-79.3" font-family="Times,serif" font-size="14.00">Creature</text>
</g>
<!-- Creature&#45;&gt;Combatant -->
<g id="edge3" class="edge">
<title>Creature&#45;&gt;Combatant</title>
<path fill="none" stroke="black" stroke-dasharray="5,2" d="M345.1,-83C372.43,-83 412.91,-83 444.53,-83"/>
<polygon fill="black" stroke="black" points="444.89,-86.5 454.89,-83 444.89,-79.5 444.89,-86.5"/>
<text text-anchor="middle" x="400" y="-86.8" font-family="Times,serif" font-size="14.00">(implements)</text>
</g>
<!-- int16 -->
<g id="node13" class="node">
<title>int16</title>
<ellipse fill="#ffffe0" stroke="black" cx="826.5" cy="-180" rx="28.7" ry="18"/>
<text text-anchor="middle" x="826.5" y="-176.3" font-family="Times,serif" font-size="14.00">int16</text>
</g>
<!-- Damageable&#45;&gt;int16 -->
<g id="edge16" class="edge">
<title>Damageable&#45;&gt;int16</title>
<path fill="none" stroke="black" d="M704.07,-160.63C710.07,-161.81 716.19,-162.97 722,-164 743.85,-167.89 768.39,-171.71 788.09,-174.64"/>
<polygon fill="black" stroke="black" points="787.8,-178.13 798.2,-176.13 788.82,-171.21 787.8,-178.13"/>
<text text-anchor="middle" x="747.5" y="-175.8" font-family="Times,serif" font-size="14.00">hp</text>
</g>
<!-- Damageable&#45;&gt;int16 -->
<g id="edge17" class="edge">
<title>Damageable&#45;&gt;int16</title>
<path fill="none" stroke="black" d="M704.23,-142.51C725.26,-139.44 750.92,-138.32 773,-145 782.96,-148.02 792.76,-153.61 801.14,-159.46"/>
<polygon fill="black" stroke="black" points="799.2,-162.38 809.31,-165.55 803.39,-156.77 799.2,-162.38"/>
<text text-anchor="middle" x="747.5" y="-148.8" font-family="Times,serif" font-size="14.00">max_hp</text>
</g>
<!-- Entity -->
<g id="node5" class="node">
<title>Entity</title>
<polygon fill="#ffb347" stroke="black" points="853.5,-139 799.5,-139 799.5,-103 853.5,-103 853.5,-139"/>
<text text-anchor="middle" x="826.5" y="-117.3" font-family="Times,serif" font-size="14.00">Entity</text>
</g>
<!-- Identifiable -->
<g id="node7" class="node">
<title>Identifiable</title>
<polygon fill="#ffb347" stroke="black" points="1028,-93 949,-93 949,-57 1028,-57 1028,-93"/>
<text text-anchor="middle" x="988.5" y="-71.3" font-family="Times,serif" font-size="14.00">Identifiable</text>
</g>
<!-- Entity&#45;&gt;Identifiable -->
<g id="edge7" class="edge">
<title>Entity&#45;&gt;Identifiable</title>
<path fill="none" stroke="black" stroke-dasharray="5,2" d="M853.63,-112.9C862.04,-110.33 871.4,-107.51 880,-105 899.31,-99.36 920.65,-93.36 939.18,-88.22"/>
<polygon fill="black" stroke="black" points="940.17,-91.58 948.88,-85.54 938.31,-84.83 940.17,-91.58"/>
<text text-anchor="middle" x="905.5" y="-108.8" font-family="Times,serif" font-size="14.00">(extends)</text>
</g>
<!-- Positioned -->
<g id="node9" class="node">
<title>Positioned</title>
<polygon fill="#ffb347" stroke="black" points="1025.5,-204 951.5,-204 951.5,-168 1025.5,-168 1025.5,-204"/>
<text text-anchor="middle" x="988.5" y="-182.3" font-family="Times,serif" font-size="14.00">Positioned</text>
</g>
<!-- Entity&#45;&gt;Positioned -->
<g id="edge8" class="edge">
<title>Entity&#45;&gt;Positioned</title>
<path fill="none" stroke="black" stroke-dasharray="5,2" d="M853.73,-134.05C862.06,-138.04 871.35,-142.34 880,-146 900.08,-154.5 922.65,-163.04 941.91,-170.04"/>
<polygon fill="black" stroke="black" points="940.76,-173.35 951.36,-173.45 943.14,-166.77 940.76,-173.35"/>
<text text-anchor="middle" x="905.5" y="-168.8" font-family="Times,serif" font-size="14.00">(extends)</text>
</g>
<!-- uint32 -->
<g id="node16" class="node">
<title>uint32</title>
<ellipse fill="#ffffe0" stroke="black" cx="988.5" cy="-132" rx="33.29" ry="18"/>
<text text-anchor="middle" x="988.5" y="-128.3" font-family="Times,serif" font-size="14.00">uint32</text>
</g>
<!-- Entity&#45;&gt;uint32 -->
<g id="edge6" class="edge">
<title>Entity&#45;&gt;uint32</title>
<path fill="none" stroke="black" d="M853.56,-122.79C878.33,-124.49 916,-127.08 945.09,-129.08"/>
<polygon fill="black" stroke="black" points="945.16,-132.6 955.38,-129.79 945.64,-125.61 945.16,-132.6"/>
<text text-anchor="middle" x="905.5" y="-130.8" font-family="Times,serif" font-size="14.00">id</text>
</g>
<!-- GameEntity&#45;&gt;Entity -->
<g id="edge5" class="edge">
<title>GameEntity&#45;&gt;Entity</title>
<path fill="none" stroke="black" stroke-dasharray="5,2" d="M703.01,-102.07C723.95,-104.35 749.9,-107.45 773,-111 778.25,-111.81 783.78,-112.76 789.2,-113.74"/>
<polygon fill="black" stroke="black" points="788.92,-117.25 799.39,-115.65 790.21,-110.37 788.92,-117.25"/>
<text text-anchor="middle" x="747.5" y="-114.8" font-family="Times,serif" font-size="14.00">(extends)</text>
</g>
<!-- Trackable -->
<g id="node11" class="node">
<title>Trackable</title>
<polygon fill="#ffb347" stroke="black" points="862,-74 791,-74 791,-38 862,-38 862,-74"/>
<text text-anchor="middle" x="826.5" y="-52.3" font-family="Times,serif" font-size="14.00">Trackable</text>
</g>
<!-- GameEntity&#45;&gt;Trackable -->
<g id="edge15" class="edge">
<title>GameEntity&#45;&gt;Trackable</title>
<path fill="none" stroke="black" stroke-dasharray="5,2" d="M703.21,-87.51C726.91,-81.4 756.82,-73.7 781.12,-67.43"/>
<polygon fill="black" stroke="black" points="782.01,-70.82 790.82,-64.94 780.26,-64.04 782.01,-70.82"/>
<text text-anchor="middle" x="747.5" y="-84.8" font-family="Times,serif" font-size="14.00">(extends)</text>
</g>
<!-- string -->
<g id="node14" class="node">
<title>string</title>
<ellipse fill="#ffffe0" stroke="black" cx="1155.75" cy="-75" rx="30.59" ry="18"/>
<text text-anchor="middle" x="1155.75" y="-71.3" font-family="Times,serif" font-size="14.00">string</text>
</g>
<!-- Identifiable&#45;&gt;string -->
<g id="edge9" class="edge">
<title>Identifiable&#45;&gt;string</title>
<path fill="none" stroke="black" d="M1028.24,-75C1054.35,-75 1088.69,-75 1115,-75"/>
<polygon fill="black" stroke="black" points="1115.02,-78.5 1125.02,-75 1115.02,-71.5 1115.02,-78.5"/>
<text text-anchor="middle" x="1074" y="-78.8" font-family="Times,serif" font-size="14.00">name</text>
</g>
<!-- NPC&#45;&gt;Creature -->
<g id="edge2" class="edge">
<title>NPC&#45;&gt;Creature</title>
<path fill="none" stroke="black" stroke-dasharray="5,2" d="M195.32,-83C216.7,-83 247.23,-83 271.76,-83"/>
<polygon fill="black" stroke="black" points="271.86,-86.5 281.86,-83 271.86,-79.5 271.86,-86.5"/>
<text text-anchor="middle" x="238.5" y="-86.8" font-family="Times,serif" font-size="14.00">(extends)</text>
</g>
<!-- float32 -->
<g id="node12" class="node">
<title>float32</title>
<ellipse fill="#ffffe0" stroke="black" cx="1155.75" cy="-186" rx="36" ry="18"/>
<text text-anchor="middle" x="1155.75" y="-182.3" font-family="Times,serif" font-size="14.00">float32</text>
</g>
<!-- Positioned&#45;&gt;float32 -->
<g id="edge10" class="edge">
<title>Positioned&#45;&gt;float32</title>
<path fill="none" stroke="black" d="M1025.76,-186C1050.51,-186 1083.45,-186 1109.85,-186"/>
<polygon fill="black" stroke="black" points="1109.98,-189.5 1119.98,-186 1109.98,-182.5 1109.98,-189.5"/>
<text text-anchor="middle" x="1074" y="-189.8" font-family="Times,serif" font-size="14.00">x</text>
</g>
<!-- Positioned&#45;&gt;float32 -->
<g id="edge11" class="edge">
<title>Positioned&#45;&gt;float32</title>
<path fill="none" stroke="black" d="M1025.53,-171.96C1032.24,-169.9 1039.26,-168.1 1046,-167 1070.56,-162.98 1077.48,-162.72 1102,-167 1107.45,-167.95 1113.09,-169.42 1118.55,-171.13"/>
<polygon fill="black" stroke="black" points="1117.54,-174.48 1128.13,-174.39 1119.8,-167.85 1117.54,-174.48"/>
<text text-anchor="middle" x="1074" y="-170.8" font-family="Times,serif" font-size="14.00">y</text>
</g>
<!-- Timed -->
<g id="node10" class="node">
<title>Timed</title>
<polygon fill="#ffb347" stroke="black" points="1015.5,-36 961.5,-36 961.5,0 1015.5,0 1015.5,-36"/>
<text text-anchor="middle" x="988.5" y="-14.3" font-family="Times,serif" font-size="14.00">Timed</text>
</g>
<!-- uint64 -->
<g id="node17" class="node">
<title>uint64</title>
<ellipse fill="#ffffe0" stroke="black" cx="1155.75" cy="-18" rx="33.29" ry="18"/>
<text text-anchor="middle" x="1155.75" y="-14.3" font-family="Times,serif" font-size="14.00">uint64</text>
</g>
<!-- Timed&#45;&gt;uint64 -->
<g id="edge20" class="edge">
<title>Timed&#45;&gt;uint64</title>
<path fill="none" stroke="black" d="M1015.68,-18C1041.57,-18 1081.62,-18 1112.1,-18"/>
<polygon fill="black" stroke="black" points="1112.45,-21.5 1122.45,-18 1112.45,-14.5 1112.45,-21.5"/>
<text text-anchor="middle" x="1074" y="-21.8" font-family="Times,serif" font-size="14.00">created_at</text>
</g>
<!-- Trackable&#45;&gt;Identifiable -->
<g id="edge18" class="edge">
<title>Trackable&#45;&gt;Identifiable</title>
<path fill="none" stroke="black" stroke-dasharray="5,2" d="M862.22,-53.77C882.41,-53.11 908.29,-53.36 931,-57 933.67,-57.43 936.39,-57.96 939.12,-58.57"/>
<polygon fill="black" stroke="black" points="938.41,-62 948.97,-61.05 940.13,-55.21 938.41,-62"/>
<text text-anchor="middle" x="905.5" y="-60.8" font-family="Times,serif" font-size="14.00">(extends)</text>
</g>
<!-- Trackable&#45;&gt;Timed -->
<g id="edge19" class="edge">
<title>Trackable&#45;&gt;Timed</title>
<path fill="none" stroke="black" stroke-dasharray="5,2" d="M862.09,-40.09C867.98,-37.79 874.1,-35.65 880,-34 903.32,-27.49 930.27,-23.48 951.35,-21.11"/>
<polygon fill="black" stroke="black" points="951.91,-24.57 961.49,-20.04 951.18,-17.61 951.91,-24.57"/>
<text text-anchor="middle" x="905.5" y="-37.8" font-family="Times,serif" font-size="14.00">(extends)</text>
</g>
</g>
</svg>
