<?xml version="1.0" encoding="UTF-8" standalone="no"?>
<!DOCTYPE svg PUBLIC "-//W3C//DTD SVG 1.1//EN"
 "http://www.w3.org/Graphics/SVG/1.1/DTD/svg11.dtd">
<!-- Generated by graphviz version 2.43.0 (0)
 -->
<!-- Title: types Pages: 1 -->
<svg width="1069pt" height="72pt"
 viewBox="0.00 0.00 1069.00 72.00" xmlns="http://www.w3.org/2000/svg" xmlns:xlink="http://www.w3.org/1999/xlink">
<g id="graph0" class="graph" transform="scale(1 1) rotate(0) translate(4 68)">
<title>types</title>
<polygon fill="white" stroke="transparent" points="-4,4 -4,-68 1065,-68 1065,4 -4,4"/>
<text text-anchor="middle" x="530.5" y="-45.6" font-family="Times,serif" font-size="18.00">graph MagicWeapon path to Identifiable</text>
<!-- Entity -->
<g id="node1" class="node">
<title>Entity</title>
<polygon fill="#ffb347" stroke="black" points="895,-36 841,-36 841,0 895,0 895,-36"/>
<text text-anchor="middle" x="868" y="-14.3" font-family="Times,serif" font-size="14.00">Entity</text>
</g>
<!-- Identifiable -->
<g id="node3" class="node">
<title>Identifiable</title>
<polygon fill="#ffb347" stroke="black" points="1061,-36 982,-36 982,0 1061,0 1061,-36"/>
<text text-anchor="middle" x="1021.5" y="-14.3" font-family="Times,serif" font-size="14.00">Identifiable</text>
</g>
<!-- Entity&#45;&gt;Identifiable -->
<g id="edge6" class="edge">
<title>Entity&#45;&gt;Identifiable</title>
<path fill="none" stroke="black" stroke-dasharray="5,2" d="M895.04,-18C916.01,-18 946.08,-18 971.52,-18"/>
<polygon fill="black" stroke="black" points="971.74,-21.5 981.74,-18 971.74,-14.5 971.74,-21.5"/>
<text text-anchor="middle" x="938.5" y="-21.8" font-family="Times,serif" font-size="14.00">(extends)</text>
</g>
<!-- GameEntity -->
<g id="node2" class="node">
<title>GameEntity</title>
<polygon fill="#ffb347" stroke="black" points="754,-36 671,-36 671,0 754,0 754,-36"/>
<text text-anchor="middle" x="712.5" y="-14.3" font-family="Times,serif" font-size="14.00">GameEntity</text>
</g>
<!-- GameEntity&#45;&gt;Entity -->
<g id="edge5" class="edge">
<title>GameEntity&#45;&gt;Entity</title>
<path fill="none" stroke="black" stroke-dasharray="5,2" d="M754.23,-18C777.96,-18 807.62,-18 830.56,-18"/>
<polygon fill="black" stroke="black" points="830.59,-21.5 840.59,-18 830.59,-14.5 830.59,-21.5"/>
<text text-anchor="middle" x="797.5" y="-21.8" font-family="Times,serif" font-size="14.00">(extends)</text>
</g>
<!-- Item -->
<g id="node4" class="node">
<title>Item</title>
<polygon fill="#add8e6" stroke="black" points="387,-36 333,-36 333,0 387,0 387,-36"/>
<text text-anchor="middle" x="360" y="-14.3" font-family="Times,serif" font-size="14.00">Item</text>
</g>
<!-- WorldObject -->
<g id="node7" class="node">
<title>WorldObject</title>
<polygon fill="#ffb347" stroke="black" points="584,-36 497,-36 497,0 584,0 584,-36"/>
<text text-anchor="middle" x="540.5" y="-14.3" font-family="Times,serif" font-size="14.00">WorldObject</text>
</g>
<!-- Item&#45;&gt;WorldObject -->
<g id="edge3" class="edge">
<title>Item&#45;&gt;WorldObject</title>
<path fill="none" stroke="black" stroke-dasharray="5,2" d="M387.34,-18C413.33,-18 453.8,-18 486.47,-18"/>
<polygon fill="black" stroke="black" points="486.78,-21.5 496.78,-18 486.78,-14.5 486.78,-21.5"/>
<text text-anchor="middle" x="442" y="-21.8" font-family="Times,serif" font-size="14.00">(implements)</text>
</g>
<!-- MagicWeapon -->
<g id="node5" class="node">
<title>MagicWeapon</title>
<polygon fill="#add8e6" stroke="black" stroke-width="3" points="97,-36 0,-36 0,0 97,0 97,-36"/>
<text text-anchor="middle" x="48.5" y="-14.3" font-family="Times,serif" font-size="14.00">MagicWeapon</text>
</g>
<!-- Weapon -->
<g id="node6" class="node">
<title>Weapon</title>
<polygon fill="#add8e6" stroke="black" points="246,-36 184,-36 184,0 246,0 246,-36"/>
<text text-anchor="middle" x="215" y="-14.3" font-family="Times,serif" font-size="14.00">Weapon</text>
</g>
<!-- MagicWeapon&#45;&gt;Weapon -->
<g id="edge1" class="edge">
<title>MagicWeapon&#45;&gt;Weapon</title>
<path fill="none" stroke="black" stroke-dasharray="5,2" d="M97.08,-18C121.27,-18 150.36,-18 173.47,-18"/>
<polygon fill="black" stroke="black" points="173.63,-21.5 183.63,-18 173.63,-14.5 173.63,-21.5"/>
<text text-anchor="middle" x="140.5" y="-21.8" font-family="Times,serif" font-size="14.00">(extends)</text>
</g>
<!-- Weapon&#45;&gt;Item -->
<g id="edge2" class="edge">
<title>Weapon&#45;&gt;Item</title>
<path fill="none" stroke="black" stroke-dasharray="5,2" d="M246.33,-18C268.51,-18 298.71,-18 322.26,-18"/>
<polygon fill="black" stroke="black" points="322.56,-21.5 332.56,-18 322.56,-14.5 322.56,-21.5"/>
<text text-anchor="middle" x="289.5" y="-21.8" font-family="Times,serif" font-size="14.00">(extends)</text>
</g>
<!-- WorldObject&#45;&gt;GameEntity -->
<g id="edge4" class="edge">
<title>WorldObject&#45;&gt;GameEntity</title>
<path fill="none" stroke="black" stroke-dasharray="5,2" d="M584.4,-18C607.64,-18 636.49,-18 660.83,-18"/>
<polygon fill="black" stroke="black" points="660.96,-21.5 670.96,-18 660.96,-14.5 660.96,-21.5"/>
<text text-anchor="middle" x="627.5" y="-21.8" font-family="Times,serif" font-size="14.00">(extends)</text>
</g>
</g>
</svg>
