<?xml version="1.0" encoding="UTF-8" standalone="no"?>
<!DOCTYPE svg PUBLIC "-//W3C//DTD SVG 1.1//EN"
 "http://www.w3.org/Graphics/SVG/1.1/DTD/svg11.dtd">
<!-- Generated by graphviz version 2.43.0 (0)
 -->
<!-- Title: types Pages: 1 -->
<svg width="1214pt" height="126pt"
 viewBox="0.00 0.00 1214.09 126.00" xmlns="http://www.w3.org/2000/svg" xmlns:xlink="http://www.w3.org/1999/xlink">
<g id="graph0" class="graph" transform="scale(1 1) rotate(0) translate(4 122)">
<title>types</title>
<polygon fill="white" stroke="transparent" points="-4,4 -4,-122 1210.09,-122 1210.09,4 -4,4"/>
<text text-anchor="middle" x="603.05" y="-99.6" font-family="Times,serif" font-size="18.00">graph MagicWeapon path to Identifiable</text>
<!-- Entity -->
<g id="node1" class="node">
<title>Entity</title>
<polygon fill="#ffb347" stroke="black" points="903.5,-36 849.5,-36 849.5,0 903.5,0 903.5,-36"/>
<text text-anchor="middle" x="876.5" y="-14.3" font-family="Times,serif" font-size="14.00">Entity</text>
</g>
<!-- Identifiable -->
<g id="node3" class="node">
<title>Identifiable</title>
<polygon fill="#ffb347" stroke="black" points="1078,-63 999,-63 999,-27 1078,-27 1078,-63"/>
<text text-anchor="middle" x="1038.5" y="-41.3" font-family="Times,serif" font-size="14.00">Identifiable</text>
</g>
<!-- Entity&#45;&gt;Identifiable -->
<g id="edge6" class="edge">
<title>Entity&#45;&gt;Identifiable</title>
<path fill="none" stroke="black" stroke-dasharray="5,2" d="M903.89,-22.24C924.81,-25.63 954.79,-30.53 981,-35 983.63,-35.45 986.32,-35.91 989.04,-36.38"/>
<polygon fill="black" stroke="black" points="988.46,-39.83 998.91,-38.1 989.66,-32.94 988.46,-39.83"/>
<text text-anchor="middle" x="955.5" y="-38.8" font-family="Times,serif" font-size="14.00">(extends)</text>
</g>
<!-- GameEntity -->
<g id="node2" class="node">
<title>GameEntity</title>
<polygon fill="#ffb347" stroke="black" points="754,-36 671,-36 671,0 754,0 754,-36"/>
<text text-anchor="middle" x="712.5" y="-14.3" font-family="Times,serif" font-size="14.00">GameEntity</text>
</g>
<!-- GameEntity&#45;&gt;Entity -->
<g id="edge5" class="edge">
<title>GameEntity&#45;&gt;Entity</title>
<path fill="none" stroke="black" stroke-dasharray="5,2" d="M754.38,-18C780.46,-18 813.97,-18 839.12,-18"/>
<polygon fill="black" stroke="black" points="839.35,-21.5 849.35,-18 839.35,-14.5 839.35,-21.5"/>
<text text-anchor="middle" x="797.5" y="-21.8" font-family="Times,serif" font-size="14.00">(extends)</text>
</g>
<!-- string -->
<g id="node9" class="node">
<title>string</title>
<ellipse fill="#ffffe0" stroke="black" cx="1175.55" cy="-45" rx="30.59" ry="18"/>
<text text-anchor="middle" x="1175.55" y="-41.3" font-family="Times,serif" font-size="14.00">string</text>
</g>
<!-- Identifiable&#45;&gt;string -->
<g id="edge7" class="edge">
<title>Identifiable&#45;&gt;string</title>
<path fill="none" stroke="black" d="M1078.2,-45C1095.92,-45 1116.9,-45 1134.76,-45"/>
<polygon fill="black" stroke="black" points="1134.86,-48.5 1144.86,-45 1134.86,-41.5 1134.86,-48.5"/>
<text text-anchor="middle" x="1111.5" y="-48.8" font-family="Times,serif" font-size="14.00">name</text>
</g>
<!-- Item -->
<g id="node4" class="node">
<title>Item</title>
<polygon fill="#add8e6" stroke="black" points="387,-36 333,-36 333,0 387,0 387,-36"/>
<text text-anchor="middle" x="360" y="-14.3" font-family="Times,serif" font-size="14.00">Item</text>
</g>
<!-- WorldObject -->
<g id="node8" class="node">
<title>WorldObject</title>
<polygon fill="#ffb347" stroke="black" points="584,-36 497,-36 497,0 584,0 584,-36"/>
<text text-anchor="middle" x="540.5" y="-14.3" font-family="Times,serif" font-size="14.00">WorldObject</text>
</g>
<!-- Item&#45;&gt;WorldObject -->
<g id="edge3" class="edge">
<title>Item&#45;&gt;WorldObject</title>
<path fill="none" stroke="black" stroke-dasharray="5,2" d="M387.34,-18C413.33,-18 453.8,-18 486.47,-18"/>
<polygon fill="black" stroke="black" points="486.78,-21.5 496.78,-18 486.78,-14.5 486.78,-21.5"/>
<text text-anchor="middle" x="442" y="-21.8" font-family="Times,serif" font-size="14.00">(implements)</text>
</g>
<!-- MagicWeapon -->
<g id="node5" class="node">
<title>MagicWeapon</title>
<polygon fill="#add8e6" stroke="black" stroke-width="3" points="97,-36 0,-36 0,0 97,0 97,-36"/>
<text text-anchor="middle" x="48.5" y="-14.3" font-family="Times,serif" font-size="14.00">MagicWeapon</text>
</g>
<!-- Weapon -->
<g id="node7" class="node">
<title>Weapon</title>
<polygon fill="#add8e6" stroke="black" points="246,-36 184,-36 184,0 246,0 246,-36"/>
<text text-anchor="middle" x="215" y="-14.3" font-family="Times,serif" font-size="14.00">Weapon</text>
</g>
<!-- MagicWeapon&#45;&gt;Weapon -->
<g id="edge1" class="edge">
<title>MagicWeapon&#45;&gt;Weapon</title>
<path fill="none" stroke="black" stroke-dasharray="5,2" d="M97.08,-18C121.27,-18 150.36,-18 173.47,-18"/>
<polygon fill="black" stroke="black" points="173.63,-21.5 183.63,-18 173.63,-14.5 173.63,-21.5"/>
<text text-anchor="middle" x="140.5" y="-21.8" font-family="Times,serif" font-size="14.00">(extends)</text>
</g>
<!-- Trackable -->
<g id="node6" class="node">
<title>Trackable</title>
<polygon fill="#ffb347" stroke="black" points="912,-90 841,-90 841,-54 912,-54 912,-90"/>
<text text-anchor="middle" x="876.5" y="-68.3" font-family="Times,serif" font-size="14.00">Trackable</text>
</g>
<!-- Trackable&#45;&gt;Identifiable -->
<g id="edge8" class="edge">
<title>Trackable&#45;&gt;Identifiable</title>
<path fill="none" stroke="black" stroke-dasharray="5,2" d="M912.22,-66.14C934.67,-62.35 964.23,-57.36 988.99,-53.19"/>
<polygon fill="black" stroke="black" points="989.65,-56.62 998.92,-51.51 988.48,-49.72 989.65,-56.62"/>
<text text-anchor="middle" x="955.5" y="-65.8" font-family="Times,serif" font-size="14.00">(extends)</text>
</g>
<!-- Weapon&#45;&gt;Item -->
<g id="edge2" class="edge">
<title>Weapon&#45;&gt;Item</title>
<path fill="none" stroke="black" stroke-dasharray="5,2" d="M246.33,-18C268.51,-18 298.71,-18 322.26,-18"/>
<polygon fill="black" stroke="black" points="322.56,-21.5 332.56,-18 322.56,-14.5 322.56,-21.5"/>
<text text-anchor="middle" x="289.5" y="-21.8" font-family="Times,serif" font-size="14.00">(extends)</text>
</g>
<!-- WorldObject&#45;&gt;GameEntity -->
<g id="edge4" class="edge">
<title>WorldObject&#45;&gt;GameEntity</title>
<path fill="none" stroke="black" stroke-dasharray="5,2" d="M584.4,-18C607.64,-18 636.49,-18 660.83,-18"/>
<polygon fill="black" stroke="black" points="660.96,-21.5 670.96,-18 660.96,-14.5 660.96,-21.5"/>
<text text-anchor="middle" x="627.5" y="-21.8" font-family="Times,serif" font-size="14.00">(extends)</text>
</g>
</g>
</svg>
