<?xml version="1.0" encoding="UTF-8" standalone="no"?>
<!DOCTYPE svg PUBLIC "-//W3C//DTD SVG 1.1//EN"
 "http://www.w3.org/Graphics/SVG/1.1/DTD/svg11.dtd">
<!-- Generated by graphviz version 2.43.0 (0)
 -->
<!-- Title: types Pages: 1 -->
<svg width="833pt" height="126pt"
 viewBox="0.00 0.00 833.49 126.00" xmlns="http://www.w3.org/2000/svg" xmlns:xlink="http://www.w3.org/1999/xlink">
<g id="graph0" class="graph" transform="scale(1 1) rotate(0) translate(4 122)">
<title>types</title>
<polygon fill="white" stroke="transparent" points="-4,4 -4,-122 829.49,-122 829.49,4 -4,4"/>
<text text-anchor="middle" x="412.75" y="-99.6" font-family="Times,serif" font-size="18.00">graph NPC path to Positioned</text>
<!-- Creature -->
<g id="node1" class="node">
<title>Creature</title>
<polygon fill="#add8e6" stroke="black" points="204,-36 141,-36 141,0 204,0 204,-36"/>
<text text-anchor="middle" x="172.5" y="-14.3" font-family="Times,serif" font-size="14.00">Creature</text>
</g>
<!-- WorldObject -->
<g id="node6" class="node">
<title>WorldObject</title>
<polygon fill="#ffb347" stroke="black" points="401,-36 314,-36 314,0 401,0 401,-36"/>
<text text-anchor="middle" x="357.5" y="-14.3" font-family="Times,serif" font-size="14.00">WorldObject</text>
</g>
<!-- Creature&#45;&gt;WorldObject -->
<g id="edge2" class="edge">
<title>Creature&#45;&gt;WorldObject</title>
<path fill="none" stroke="black" stroke-dasharray="5,2" d="M204.13,-18C231.21,-18 271.32,-18 303.59,-18"/>
<polygon fill="black" stroke="black" points="303.77,-21.5 313.77,-18 303.77,-14.5 303.77,-21.5"/>
<text text-anchor="middle" x="259" y="-21.8" font-family="Times,serif" font-size="14.00">(implements)</text>
</g>
<!-- Entity -->
<g id="node2" class="node">
<title>Entity</title>
<polygon fill="#ffb347" stroke="black" points="546,-90 492,-90 492,-54 546,-54 546,-90"/>
<text text-anchor="middle" x="519" y="-68.3" font-family="Times,serif" font-size="14.00">Entity</text>
</g>
<!-- Positioned -->
<g id="node5" class="node">
<title>Positioned</title>
<polygon fill="#ffb347" stroke="black" points="711,-63 637,-63 637,-27 711,-27 711,-63"/>
<text text-anchor="middle" x="674" y="-41.3" font-family="Times,serif" font-size="14.00">Positioned</text>
</g>
<!-- Entity&#45;&gt;Positioned -->
<g id="edge7" class="edge">
<title>Entity&#45;&gt;Positioned</title>
<path fill="none" stroke="black" stroke-dasharray="5,2" d="M546.3,-67.36C568.33,-63.47 600.29,-57.83 626.6,-53.19"/>
<polygon fill="black" stroke="black" points="627.5,-56.58 636.74,-51.4 626.29,-49.69 627.5,-56.58"/>
<text text-anchor="middle" x="593.5" y="-66.8" font-family="Times,serif" font-size="14.00">(extends)</text>
</g>
<!-- NPC -->
<g id="node3" class="node">
<title>NPC</title>
<polygon fill="#add8e6" stroke="black" stroke-width="3" points="54,-36 0,-36 0,0 54,0 54,-36"/>
<text text-anchor="middle" x="27" y="-14.3" font-family="Times,serif" font-size="14.00">NPC</text>
</g>
<!-- NPC&#45;&gt;Creature -->
<g id="edge1" class="edge">
<title>NPC&#45;&gt;Creature</title>
<path fill="none" stroke="black" stroke-dasharray="5,2" d="M54.32,-18C75.7,-18 106.23,-18 130.76,-18"/>
<polygon fill="black" stroke="black" points="130.86,-21.5 140.86,-18 130.86,-14.5 130.86,-21.5"/>
<text text-anchor="middle" x="97.5" y="-21.8" font-family="Times,serif" font-size="14.00">(extends)</text>
</g>
<!-- Physical -->
<g id="node4" class="node">
<title>Physical</title>
<polygon fill="#ffb347" stroke="black" points="550,-36 488,-36 488,0 550,0 550,-36"/>
<text text-anchor="middle" x="519" y="-14.3" font-family="Times,serif" font-size="14.00">Physical</text>
</g>
<!-- Physical&#45;&gt;Positioned -->
<g id="edge4" class="edge">
<title>Physical&#45;&gt;Positioned</title>
<path fill="none" stroke="black" stroke-dasharray="5,2" d="M550.35,-23.11C569.95,-26.43 596,-30.89 619,-35 621.64,-35.47 624.35,-35.96 627.08,-36.45"/>
<polygon fill="black" stroke="black" points="626.53,-39.91 636.99,-38.26 627.79,-33.02 626.53,-39.91"/>
<text text-anchor="middle" x="593.5" y="-38.8" font-family="Times,serif" font-size="14.00">(extends)</text>
</g>
<!-- float32 -->
<g id="node7" class="node">
<title>float32</title>
<ellipse fill="#ffffe0" stroke="black" cx="789.75" cy="-45" rx="36" ry="18"/>
<text text-anchor="middle" x="789.75" y="-41.3" font-family="Times,serif" font-size="14.00">float32</text>
</g>
<!-- Positioned&#45;&gt;float32 -->
<g id="edge5" class="edge">
<title>Positioned&#45;&gt;float32</title>
<path fill="none" stroke="black" d="M711.3,-45C721.65,-45 733.05,-45 743.84,-45"/>
<polygon fill="black" stroke="black" points="743.95,-48.5 753.95,-45 743.95,-41.5 743.95,-48.5"/>
<text text-anchor="middle" x="732.5" y="-48.8" font-family="Times,serif" font-size="14.00">x</text>
</g>
<!-- Positioned&#45;&gt;float32 -->
<g id="edge6" class="edge">
<title>Positioned&#45;&gt;float32</title>
<path fill="none" stroke="black" d="M711.07,-27.79C719.18,-25.61 727.8,-24.57 736,-26 741.45,-26.95 747.09,-28.42 752.55,-30.13"/>
<polygon fill="black" stroke="black" points="751.54,-33.48 762.13,-33.39 753.8,-26.85 751.54,-33.48"/>
<text text-anchor="middle" x="732.5" y="-29.8" font-family="Times,serif" font-size="14.00">y</text>
</g>
<!-- WorldObject&#45;&gt;Physical -->
<g id="edge3" class="edge">
<title>WorldObject&#45;&gt;Physical</title>
<path fill="none" stroke="black" stroke-dasharray="5,2" d="M401.24,-18C424.93,-18 454.21,-18 477.53,-18"/>
<polygon fill="black" stroke="black" points="477.78,-21.5 487.78,-18 477.78,-14.5 477.78,-21.5"/>
<text text-anchor="middle" x="444.5" y="-21.8" font-family="Times,serif" font-size="14.00">(extends)</text>
</g>
</g>
</svg>
