<?xml version="1.0" encoding="UTF-8" standalone="no"?>
<!DOCTYPE svg PUBLIC "-//W3C//DTD SVG 1.1//EN"
 "http://www.w3.org/Graphics/SVG/1.1/DTD/svg11.dtd">
<!-- Generated by graphviz version 2.43.0 (0)
 -->
<!-- Title: types Pages: 1 -->
<svg width="719pt" height="72pt"
 viewBox="0.00 0.00 719.00 72.00" xmlns="http://www.w3.org/2000/svg" xmlns:xlink="http://www.w3.org/1999/xlink">
<g id="graph0" class="graph" transform="scale(1 1) rotate(0) translate(4 68)">
<title>types</title>
<polygon fill="white" stroke="transparent" points="-4,4 -4,-68 715,-68 715,4 -4,4"/>
<text text-anchor="middle" x="355.5" y="-45.6" font-family="Times,serif" font-size="18.00">graph NPC path to Positioned</text>
<!-- Creature -->
<g id="node1" class="node">
<title>Creature</title>
<polygon fill="#add8e6" stroke="black" points="204,-36 141,-36 141,0 204,0 204,-36"/>
<text text-anchor="middle" x="172.5" y="-14.3" font-family="Times,serif" font-size="14.00">Creature</text>
</g>
<!-- WorldObject -->
<g id="node5" class="node">
<title>WorldObject</title>
<polygon fill="#ffb347" stroke="black" points="401,-36 314,-36 314,0 401,0 401,-36"/>
<text text-anchor="middle" x="357.5" y="-14.3" font-family="Times,serif" font-size="14.00">WorldObject</text>
</g>
<!-- Creature&#45;&gt;WorldObject -->
<g id="edge2" class="edge">
<title>Creature&#45;&gt;WorldObject</title>
<path fill="none" stroke="black" stroke-dasharray="5,2" d="M204.13,-18C231.21,-18 271.32,-18 303.59,-18"/>
<polygon fill="black" stroke="black" points="303.77,-21.5 313.77,-18 303.77,-14.5 303.77,-21.5"/>
<text text-anchor="middle" x="259" y="-21.8" font-family="Times,serif" font-size="14.00">(implements)</text>
</g>
<!-- NPC -->
<g id="node2" class="node">
<title>NPC</title>
<polygon fill="#add8e6" stroke="black" stroke-width="3" points="54,-36 0,-36 0,0 54,0 54,-36"/>
<text text-anchor="middle" x="27" y="-14.3" font-family="Times,serif" font-size="14.00">NPC</text>
</g>
<!-- NPC&#45;&gt;Creature -->
<g id="edge1" class="edge">
<title>NPC&#45;&gt;Creature</title>
<path fill="none" stroke="black" stroke-dasharray="5,2" d="M54.32,-18C75.7,-18 106.23,-18 130.76,-18"/>
<polygon fill="black" stroke="black" points="130.86,-21.5 140.86,-18 130.86,-14.5 130.86,-21.5"/>
<text text-anchor="middle" x="97.5" y="-21.8" font-family="Times,serif" font-size="14.00">(extends)</text>
</g>
<!-- Physical -->
<g id="node3" class="node">
<title>Physical</title>
<polygon fill="#ffb347" stroke="black" points="550,-36 488,-36 488,0 550,0 550,-36"/>
<text text-anchor="middle" x="519" y="-14.3" font-family="Times,serif" font-size="14.00">Physical</text>
</g>
<!-- Positioned -->
<g id="node4" class="node">
<title>Positioned</title>
<polygon fill="#ffb347" stroke="black" points="711,-36 637,-36 637,0 711,0 711,-36"/>
<text text-anchor="middle" x="674" y="-14.3" font-family="Times,serif" font-size="14.00">Positioned</text>
</g>
<!-- Physical&#45;&gt;Positioned -->
<g id="edge4" class="edge">
<title>Physical&#45;&gt;Positioned</title>
<path fill="none" stroke="black" stroke-dasharray="5,2" d="M550.23,-18C572.02,-18 601.84,-18 626.63,-18"/>
<polygon fill="black" stroke="black" points="626.91,-21.5 636.91,-18 626.91,-14.5 626.91,-21.5"/>
<text text-anchor="middle" x="593.5" y="-21.8" font-family="Times,serif" font-size="14.00">(extends)</text>
</g>
<!-- WorldObject&#45;&gt;Physical -->
<g id="edge3" class="edge">
<title>WorldObject&#45;&gt;Physical</title>
<path fill="none" stroke="black" stroke-dasharray="5,2" d="M401.24,-18C424.93,-18 454.21,-18 477.53,-18"/>
<polygon fill="black" stroke="black" points="477.78,-21.5 487.78,-18 477.78,-14.5 477.78,-21.5"/>
<text text-anchor="middle" x="444.5" y="-21.8" font-family="Times,serif" font-size="14.00">(extends)</text>
</g>
</g>
</svg>
