<?xml version="1.0" encoding="UTF-8" standalone="no"?>
<!DOCTYPE svg PUBLIC "-//W3C//DTD SVG 1.1//EN"
 "http://www.w3.org/Graphics/SVG/1.1/DTD/svg11.dtd">
<!-- Generated by graphviz version 2.43.0 (0)
 -->
<!-- Title: types Pages: 1 -->
<svg width="709pt" height="76pt"
 viewBox="0.00 0.00 709.19 75.73" xmlns="http://www.w3.org/2000/svg" xmlns:xlink="http://www.w3.org/1999/xlink">
<g id="graph0" class="graph" transform="scale(1 1) rotate(0) translate(4 71.73)">
<title>types</title>
<polygon fill="white" stroke="transparent" points="-4,4 -4,-71.73 705.19,-71.73 705.19,4 -4,4"/>
<text text-anchor="middle" x="350.6" y="-49.33" font-family="Times,serif" font-size="18.00">graph Player path to Damageable</text>
<!-- Combatant -->
<g id="node1" class="node">
<title>Combatant</title>
<polygon fill="#ffb347" stroke="black" points="391,-39.73 314,-39.73 314,-3.73 391,-3.73 391,-39.73"/>
<text text-anchor="middle" x="352.5" y="-18.03" font-family="Times,serif" font-size="14.00">Combatant</text>
</g>
<!-- Damageable -->
<g id="node3" class="node">
<title>Damageable</title>
<polygon fill="#ffb347" stroke="black" points="563,-39.73 478,-39.73 478,-3.73 563,-3.73 563,-39.73"/>
<text text-anchor="middle" x="520.5" y="-18.03" font-family="Times,serif" font-size="14.00">Damageable</text>
</g>
<!-- Combatant&#45;&gt;Damageable -->
<g id="edge3" class="edge">
<title>Combatant&#45;&gt;Damageable</title>
<path fill="none" stroke="black" stroke-dasharray="5,2" d="M391.17,-21.73C413.77,-21.73 442.83,-21.73 467.59,-21.73"/>
<polygon fill="black" stroke="black" points="467.9,-25.23 477.9,-21.73 467.9,-18.23 467.9,-25.23"/>
<text text-anchor="middle" x="434.5" y="-25.53" font-family="Times,serif" font-size="14.00">(extends)</text>
</g>
<!-- Creature -->
<g id="node2" class="node">
<title>Creature</title>
<polygon fill="#add8e6" stroke="black" points="204,-39.73 141,-39.73 141,-3.73 204,-3.73 204,-39.73"/>
<text text-anchor="middle" x="172.5" y="-18.03" font-family="Times,serif" font-size="14.00">Creature</text>
</g>
<!-- Creature&#45;&gt;Combatant -->
<g id="edge2" class="edge">
<title>Creature&#45;&gt;Combatant</title>
<path fill="none" stroke="black" stroke-dasharray="5,2" d="M204.1,-21.73C231.43,-21.73 271.91,-21.73 303.53,-21.73"/>
<polygon fill="black" stroke="black" points="303.89,-25.23 313.89,-21.73 303.89,-18.23 303.89,-25.23"/>
<text text-anchor="middle" x="259" y="-25.53" font-family="Times,serif" font-size="14.00">(implements)</text>
</g>
<!-- int16 -->
<g id="node5" class="node">
<title>int16</title>
<ellipse fill="#ffffe0" stroke="black" cx="672.6" cy="-21.73" rx="28.7" ry="18"/>
<text text-anchor="middle" x="672.6" y="-18.03" font-family="Times,serif" font-size="14.00">int16</text>
</g>
<!-- Damageable&#45;&gt;int16 -->
<g id="edge4" class="edge">
<title>Damageable&#45;&gt;int16</title>
<path fill="none" stroke="black" d="M563.31,-21.73C585.38,-21.73 612.25,-21.73 633.7,-21.73"/>
<polygon fill="black" stroke="black" points="633.75,-25.23 643.75,-21.73 633.75,-18.23 633.75,-25.23"/>
<text text-anchor="middle" x="603.5" y="-25.53" font-family="Times,serif" font-size="14.00">hp</text>
</g>
<!-- Damageable&#45;&gt;int16 -->
<g id="edge5" class="edge">
<title>Damageable&#45;&gt;int16</title>
<path fill="none" stroke="black" d="M563.04,-6.68C569,-5.05 575.11,-3.65 581,-2.73 600.76,0.35 606.39,1.19 626,-2.73 630.79,-3.69 635.71,-5.16 640.46,-6.88"/>
<polygon fill="black" stroke="black" points="639.3,-10.18 649.89,-10.63 641.9,-3.68 639.3,-10.18"/>
<text text-anchor="middle" x="603.5" y="-6.53" font-family="Times,serif" font-size="14.00">max_hp</text>
</g>
<!-- Player -->
<g id="node4" class="node">
<title>Player</title>
<polygon fill="#add8e6" stroke="black" stroke-width="3" points="54,-39.73 0,-39.73 0,-3.73 54,-3.73 54,-39.73"/>
<text text-anchor="middle" x="27" y="-18.03" font-family="Times,serif" font-size="14.00">Player</text>
</g>
<!-- Player&#45;&gt;Creature -->
<g id="edge1" class="edge">
<title>Player&#45;&gt;Creature</title>
<path fill="none" stroke="black" stroke-dasharray="5,2" d="M54.32,-21.73C75.7,-21.73 106.23,-21.73 130.76,-21.73"/>
<polygon fill="black" stroke="black" points="130.86,-25.23 140.86,-21.73 130.86,-18.23 130.86,-25.23"/>
<text text-anchor="middle" x="97.5" y="-25.53" font-family="Times,serif" font-size="14.00">(extends)</text>
</g>
</g>
</svg>
