<?xml version="1.0" encoding="UTF-8" standalone="no"?>
<!DOCTYPE svg PUBLIC "-//W3C//DTD SVG 1.1//EN"
 "http://www.w3.org/Graphics/SVG/1.1/DTD/svg11.dtd">
<!-- Generated by graphviz version 2.43.0 (0)
 -->
<!-- Title: types Pages: 1 -->
<svg width="571pt" height="72pt"
 viewBox="0.00 0.00 571.00 72.00" xmlns="http://www.w3.org/2000/svg" xmlns:xlink="http://www.w3.org/1999/xlink">
<g id="graph0" class="graph" transform="scale(1 1) rotate(0) translate(4 68)">
<title>types</title>
<polygon fill="white" stroke="transparent" points="-4,4 -4,-68 567,-68 567,4 -4,4"/>
<text text-anchor="middle" x="281.5" y="-45.6" font-family="Times,serif" font-size="18.00">graph Player path to Damageable</text>
<!-- Combatant -->
<g id="node1" class="node">
<title>Combatant</title>
<polygon fill="#ffb347" stroke="black" points="391,-36 314,-36 314,0 391,0 391,-36"/>
<text text-anchor="middle" x="352.5" y="-14.3" font-family="Times,serif" font-size="14.00">Combatant</text>
</g>
<!-- Damageable -->
<g id="node3" class="node">
<title>Damageable</title>
<polygon fill="#ffb347" stroke="black" points="563,-36 478,-36 478,0 563,0 563,-36"/>
<text text-anchor="middle" x="520.5" y="-14.3" font-family="Times,serif" font-size="14.00">Damageable</text>
</g>
<!-- Combatant&#45;&gt;Damageable -->
<g id="edge3" class="edge">
<title>Combatant&#45;&gt;Damageable</title>
<path fill="none" stroke="black" stroke-dasharray="5,2" d="M391.17,-18C413.77,-18 442.83,-18 467.59,-18"/>
<polygon fill="black" stroke="black" points="467.9,-21.5 477.9,-18 467.9,-14.5 467.9,-21.5"/>
<text text-anchor="middle" x="434.5" y="-21.8" font-family="Times,serif" font-size="14.00">(extends)</text>
</g>
<!-- Creature -->
<g id="node2" class="node">
<title>Creature</title>
<polygon fill="#add8e6" stroke="black" points="204,-36 141,-36 141,0 204,0 204,-36"/>
<text text-anchor="middle" x="172.5" y="-14.3" font-family="Times,serif" font-size="14.00">Creature</text>
</g>
<!-- Creature&#45;&gt;Combatant -->
<g id="edge2" class="edge">
<title>Creature&#45;&gt;Combatant</title>
<path fill="none" stroke="black" stroke-dasharray="5,2" d="M204.1,-18C231.43,-18 271.91,-18 303.53,-18"/>
<polygon fill="black" stroke="black" points="303.89,-21.5 313.89,-18 303.89,-14.5 303.89,-21.5"/>
<text text-anchor="middle" x="259" y="-21.8" font-family="Times,serif" font-size="14.00">(implements)</text>
</g>
<!-- Player -->
<g id="node4" class="node">
<title>Player</title>
<polygon fill="#add8e6" stroke="black" stroke-width="3" points="54,-36 0,-36 0,0 54,0 54,-36"/>
<text text-anchor="middle" x="27" y="-14.3" font-family="Times,serif" font-size="14.00">Player</text>
</g>
<!-- Player&#45;&gt;Creature -->
<g id="edge1" class="edge">
<title>Player&#45;&gt;Creature</title>
<path fill="none" stroke="black" stroke-dasharray="5,2" d="M54.32,-18C75.7,-18 106.23,-18 130.76,-18"/>
<polygon fill="black" stroke="black" points="130.86,-21.5 140.86,-18 130.86,-14.5 130.86,-21.5"/>
<text text-anchor="middle" x="97.5" y="-21.8" font-family="Times,serif" font-size="14.00">(extends)</text>
</g>
</g>
</svg>
