<?xml version="1.0" encoding="UTF-8" standalone="no"?>
<!DOCTYPE svg PUBLIC "-//W3C//DTD SVG 1.1//EN"
 "http://www.w3.org/Graphics/SVG/1.1/DTD/svg11.dtd">
<!-- Generated by graphviz version 2.43.0 (0)
 -->
<!-- Title: types Pages: 1 -->
<svg width="314pt" height="1244pt"
 viewBox="0.00 0.00 314.00 1244.00" xmlns="http://www.w3.org/2000/svg" xmlns:xlink="http://www.w3.org/1999/xlink">
<g id="graph0" class="graph" transform="scale(1 1) rotate(0) translate(4 1240)">
<title>types</title>
<polygon fill="white" stroke="transparent" points="-4,4 -4,-1240 310,-1240 310,4 -4,4"/>
<text text-anchor="middle" x="153" y="-1217.6" font-family="Times,serif" font-size="18.00">Boss Record Layout (with field origins)</text>
<!-- Boss -->
<g id="node1" class="node">
<title>Boss</title>
<polygon fill="#add8e6" stroke="black" points="97,-619 43,-619 43,-583 97,-583 97,-619"/>
<text text-anchor="middle" x="70" y="-597.3" font-family="Times,serif" font-size="14.00">Boss</text>
</g>
<!-- Boss.name -->
<g id="node2" class="node">
<title>Boss.name</title>
<polygon fill="lightgrey" stroke="transparent" points="257.5,-1208 138.5,-1208 138.5,-1170 257.5,-1170 257.5,-1208"/>
<text text-anchor="middle" x="198" y="-1192.8" font-family="Times,serif" font-size="14.00">name: string</text>
<text text-anchor="middle" x="198" y="-1177.8" font-family="Times,serif" font-size="14.00">(from Identifiable)</text>
</g>
<!-- Boss&#45;&gt;Boss.name -->
<g id="edge1" class="edge">
<title>Boss&#45;&gt;Boss.name</title>
<path fill="none" stroke="black" d="M70.65,-619.17C69.32,-705.32 67.64,-1072.17 133,-1161 133.46,-1161.62 133.93,-1162.23 134.42,-1162.83"/>
<polygon fill="black" stroke="black" points="132,-1165.36 141.6,-1169.84 136.9,-1160.35 132,-1165.36"/>
</g>
<!-- Boss.x -->
<g id="node3" class="node">
<title>Boss.x</title>
<polygon fill="lightgrey" stroke="transparent" points="254.5,-1152 141.5,-1152 141.5,-1114 254.5,-1114 254.5,-1152"/>
<text text-anchor="middle" x="198" y="-1136.8" font-family="Times,serif" font-size="14.00">x: float32</text>
<text text-anchor="middle" x="198" y="-1121.8" font-family="Times,serif" font-size="14.00">(from Positioned)</text>
</g>
<!-- Boss&#45;&gt;Boss.x -->
<g id="edge2" class="edge">
<title>Boss&#45;&gt;Boss.x</title>
<path fill="none" stroke="black" d="M70.9,-619.22C70.79,-700.06 74.07,-1025.91 133,-1105 133.46,-1105.62 133.94,-1106.23 134.43,-1106.82"/>
<polygon fill="black" stroke="black" points="132.03,-1109.36 141.65,-1113.81 136.9,-1104.34 132.03,-1109.36"/>
</g>
<!-- Boss.y -->
<g id="node4" class="node">
<title>Boss.y</title>
<polygon fill="lightgrey" stroke="transparent" points="254.5,-1096 141.5,-1096 141.5,-1058 254.5,-1058 254.5,-1096"/>
<text text-anchor="middle" x="198" y="-1080.8" font-family="Times,serif" font-size="14.00">y: float32</text>
<text text-anchor="middle" x="198" y="-1065.8" font-family="Times,serif" font-size="14.00">(from Positioned)</text>
</g>
<!-- Boss&#45;&gt;Boss.y -->
<g id="edge3" class="edge">
<title>Boss&#45;&gt;Boss.y</title>
<path fill="none" stroke="black" d="M71.21,-619.18C72.42,-694.28 80.46,-979.59 133,-1049 133.48,-1049.63 133.98,-1050.26 134.49,-1050.86"/>
<polygon fill="black" stroke="black" points="132.33,-1053.64 141.99,-1057.99 137.16,-1048.57 132.33,-1053.64"/>
</g>
<!-- Boss.id -->
<g id="node5" class="node">
<title>Boss.id</title>
<polygon fill="lightgrey" stroke="transparent" points="242.5,-1040 153.5,-1040 153.5,-1002 242.5,-1002 242.5,-1040"/>
<text text-anchor="middle" x="198" y="-1024.8" font-family="Times,serif" font-size="14.00">id: uint32</text>
<text text-anchor="middle" x="198" y="-1009.8" font-family="Times,serif" font-size="14.00">(from Entity)</text>
</g>
<!-- Boss&#45;&gt;Boss.id -->
<g id="edge4" class="edge">
<title>Boss&#45;&gt;Boss.id</title>
<path fill="none" stroke="black" d="M71.62,-619.46C74.3,-688.86 86.88,-933.29 133,-993 136.21,-997.15 140.16,-1000.7 144.51,-1003.73"/>
<polygon fill="black" stroke="black" points="142.9,-1006.85 153.28,-1008.94 146.47,-1000.83 142.9,-1006.85"/>
</g>
<!-- Boss.created_at -->
<g id="node6" class="node">
<title>Boss.created_at</title>
<polygon fill="lightgrey" stroke="transparent" points="255,-984 141,-984 141,-946 255,-946 255,-984"/>
<text text-anchor="middle" x="198" y="-968.8" font-family="Times,serif" font-size="14.00">created_at: uint64</text>
<text text-anchor="middle" x="198" y="-953.8" font-family="Times,serif" font-size="14.00">(from Timed)</text>
</g>
<!-- Boss&#45;&gt;Boss.created_at -->
<g id="edge5" class="edge">
<title>Boss&#45;&gt;Boss.created_at</title>
<path fill="none" stroke="black" d="M72.15,-619.37C76.42,-682.11 93.2,-886.8 133,-937 133.49,-937.62 134.01,-938.23 134.53,-938.83"/>
<polygon fill="black" stroke="black" points="132.43,-941.66 142.16,-945.86 137.18,-936.51 132.43,-941.66"/>
</g>
<!-- Boss.hp -->
<g id="node7" class="node">
<title>Boss.hp</title>
<polygon fill="lightgrey" stroke="transparent" points="260.5,-928 135.5,-928 135.5,-890 260.5,-890 260.5,-928"/>
<text text-anchor="middle" x="198" y="-912.8" font-family="Times,serif" font-size="14.00">hp: int16</text>
<text text-anchor="middle" x="198" y="-897.8" font-family="Times,serif" font-size="14.00">(from Damageable)</text>
</g>
<!-- Boss&#45;&gt;Boss.hp -->
<g id="edge6" class="edge">
<title>Boss&#45;&gt;Boss.hp</title>
<path fill="none" stroke="black" d="M72.89,-619.36C78.96,-674.97 99.48,-840.23 133,-881 133.61,-881.74 134.24,-882.46 134.89,-883.16"/>
<polygon fill="black" stroke="black" points="132.78,-885.96 142.58,-889.98 137.42,-880.73 132.78,-885.96"/>
</g>
<!-- Boss.max_hp -->
<g id="node8" class="node">
<title>Boss.max_hp</title>
<polygon fill="lightgrey" stroke="transparent" points="260.5,-872 135.5,-872 135.5,-834 260.5,-834 260.5,-872"/>
<text text-anchor="middle" x="198" y="-856.8" font-family="Times,serif" font-size="14.00">max_hp: int16</text>
<text text-anchor="middle" x="198" y="-841.8" font-family="Times,serif" font-size="14.00">(from Damageable)</text>
</g>
<!-- Boss&#45;&gt;Boss.max_hp -->
<g id="edge7" class="edge">
<title>Boss&#45;&gt;Boss.max_hp</title>
<path fill="none" stroke="black" d="M71,-619.09C71.95,-660.58 79.87,-763.72 133,-825 133.63,-825.72 134.27,-826.43 134.94,-827.11"/>
<polygon fill="black" stroke="black" points="132.9,-829.97 142.78,-833.81 137.45,-824.65 132.9,-829.97"/>
</g>
<!-- Boss.attack -->
<g id="node9" class="node">
<title>Boss.attack</title>
<polygon fill="lightgrey" stroke="transparent" points="256,-816 140,-816 140,-778 256,-778 256,-816"/>
<text text-anchor="middle" x="198" y="-800.8" font-family="Times,serif" font-size="14.00">attack: uint16</text>
<text text-anchor="middle" x="198" y="-785.8" font-family="Times,serif" font-size="14.00">(from Combatant)</text>
</g>
<!-- Boss&#45;&gt;Boss.attack -->
<g id="edge8" class="edge">
<title>Boss&#45;&gt;Boss.attack</title>
<path fill="none" stroke="black" d="M73.01,-619.11C77.65,-652.78 92.05,-725.57 133,-769 133.89,-769.94 134.82,-770.86 135.77,-771.74"/>
<polygon fill="black" stroke="black" points="133.66,-774.53 143.69,-777.96 137.99,-769.03 133.66,-774.53"/>
</g>
<!-- Boss.defense -->
<g id="node10" class="node">
<title>Boss.defense</title>
<polygon fill="lightgrey" stroke="transparent" points="256,-760 140,-760 140,-722 256,-722 256,-760"/>
<text text-anchor="middle" x="198" y="-744.8" font-family="Times,serif" font-size="14.00">defense: uint16</text>
<text text-anchor="middle" x="198" y="-729.8" font-family="Times,serif" font-size="14.00">(from Combatant)</text>
</g>
<!-- Boss&#45;&gt;Boss.defense -->
<g id="edge9" class="edge">
<title>Boss&#45;&gt;Boss.defense</title>
<path fill="none" stroke="black" d="M76.91,-619.26C85.62,-643.6 104.08,-686.66 133,-713 134.12,-714.02 135.28,-715.01 136.48,-715.96"/>
<polygon fill="black" stroke="black" points="134.66,-718.96 144.86,-721.81 138.67,-713.22 134.66,-718.96"/>
</g>
<!-- Boss.sprite -->
<g id="node11" class="node">
<title>Boss.sprite</title>
<polygon fill="lightgrey" stroke="transparent" points="257,-704 139,-704 139,-666 257,-666 257,-704"/>
<text text-anchor="middle" x="198" y="-688.8" font-family="Times,serif" font-size="14.00">sprite: string</text>
<text text-anchor="middle" x="198" y="-673.8" font-family="Times,serif" font-size="14.00">(from Renderable)</text>
</g>
<!-- Boss&#45;&gt;Boss.sprite -->
<g id="edge10" class="edge">
<title>Boss&#45;&gt;Boss.sprite</title>
<path fill="none" stroke="black" d="M87.92,-619.06C99.73,-630.94 116.31,-646.22 133,-657 135.14,-658.38 137.36,-659.73 139.63,-661.03"/>
<polygon fill="black" stroke="black" points="138.12,-664.19 148.59,-665.84 141.44,-658.03 138.12,-664.19"/>
</g>
<!-- Boss.layer -->
<g id="node12" class="node">
<title>Boss.layer</title>
<polygon fill="lightgrey" stroke="transparent" points="257,-648 139,-648 139,-610 257,-610 257,-648"/>
<text text-anchor="middle" x="198" y="-632.8" font-family="Times,serif" font-size="14.00">layer: uint8</text>
<text text-anchor="middle" x="198" y="-617.8" font-family="Times,serif" font-size="14.00">(from Renderable)</text>
</g>
<!-- Boss&#45;&gt;Boss.layer -->
<g id="edge11" class="edge">
<title>Boss&#45;&gt;Boss.layer</title>
<path fill="none" stroke="black" d="M97.11,-606.8C106.53,-608.9 117.65,-611.37 128.99,-613.89"/>
<polygon fill="black" stroke="black" points="128.45,-617.35 138.97,-616.11 129.97,-610.52 128.45,-617.35"/>
</g>
<!-- Boss.width -->
<g id="node13" class="node">
<title>Boss.width</title>
<polygon fill="lightgrey" stroke="transparent" points="249,-592 147,-592 147,-554 249,-554 249,-592"/>
<text text-anchor="middle" x="198" y="-576.8" font-family="Times,serif" font-size="14.00">width: float32</text>
<text text-anchor="middle" x="198" y="-561.8" font-family="Times,serif" font-size="14.00">(from Physical)</text>
</g>
<!-- Boss&#45;&gt;Boss.width -->
<g id="edge12" class="edge">
<title>Boss&#45;&gt;Boss.width</title>
<path fill="none" stroke="black" d="M97.11,-595.2C108.71,-592.62 122.89,-589.47 136.87,-586.36"/>
<polygon fill="black" stroke="black" points="137.98,-589.7 146.99,-584.11 136.47,-582.87 137.98,-589.7"/>
</g>
<!-- Boss.height -->
<g id="node14" class="node">
<title>Boss.height</title>
<polygon fill="lightgrey" stroke="transparent" points="249,-536 147,-536 147,-498 249,-498 249,-536"/>
<text text-anchor="middle" x="198" y="-520.8" font-family="Times,serif" font-size="14.00">height: float32</text>
<text text-anchor="middle" x="198" y="-505.8" font-family="Times,serif" font-size="14.00">(from Physical)</text>
</g>
<!-- Boss&#45;&gt;Boss.height -->
<g id="edge13" class="edge">
<title>Boss&#45;&gt;Boss.height</title>
<path fill="none" stroke="black" d="M87.92,-582.94C99.73,-571.06 116.31,-555.78 133,-545 135.14,-543.62 137.36,-542.27 139.63,-540.97"/>
<polygon fill="black" stroke="black" points="141.44,-543.97 148.59,-536.16 138.12,-537.81 141.44,-543.97"/>
</g>
<!-- Boss.solid -->
<g id="node15" class="node">
<title>Boss.solid</title>
<polygon fill="lightgrey" stroke="transparent" points="249,-480 147,-480 147,-442 249,-442 249,-480"/>
<text text-anchor="middle" x="198" y="-464.8" font-family="Times,serif" font-size="14.00">solid: boolean</text>
<text text-anchor="middle" x="198" y="-449.8" font-family="Times,serif" font-size="14.00">(from Physical)</text>
</g>
<!-- Boss&#45;&gt;Boss.solid -->
<g id="edge14" class="edge">
<title>Boss&#45;&gt;Boss.solid</title>
<path fill="none" stroke="black" d="M76.91,-582.74C85.62,-558.4 104.08,-515.34 133,-489 134.68,-487.47 136.45,-486.02 138.29,-484.64"/>
<polygon fill="black" stroke="black" points="140.37,-487.46 146.78,-479.03 136.51,-481.62 140.37,-487.46"/>
</g>
<!-- Boss.speed -->
<g id="node16" class="node">
<title>Boss.speed</title>
<polygon fill="lightgrey" stroke="transparent" points="249.5,-424 146.5,-424 146.5,-386 249.5,-386 249.5,-424"/>
<text text-anchor="middle" x="198" y="-408.8" font-family="Times,serif" font-size="14.00">speed: float32</text>
<text text-anchor="middle" x="198" y="-393.8" font-family="Times,serif" font-size="14.00">(from Creature)</text>
</g>
<!-- Boss&#45;&gt;Boss.speed -->
<g id="edge15" class="edge">
<title>Boss&#45;&gt;Boss.speed</title>
<path fill="none" stroke="black" d="M73.01,-582.89C77.65,-549.22 92.05,-476.43 133,-433 134.59,-431.32 136.3,-429.73 138.1,-428.23"/>
<polygon fill="black" stroke="black" points="140.4,-430.88 146.5,-422.22 136.33,-425.19 140.4,-430.88"/>
</g>
<!-- Boss.level -->
<g id="node17" class="node">
<title>Boss.level</title>
<polygon fill="lightgrey" stroke="transparent" points="249.5,-368 146.5,-368 146.5,-330 249.5,-330 249.5,-368"/>
<text text-anchor="middle" x="198" y="-352.8" font-family="Times,serif" font-size="14.00">level: uint8</text>
<text text-anchor="middle" x="198" y="-337.8" font-family="Times,serif" font-size="14.00">(from Creature)</text>
</g>
<!-- Boss&#45;&gt;Boss.level -->
<g id="edge16" class="edge">
<title>Boss&#45;&gt;Boss.level</title>
<path fill="none" stroke="black" d="M71,-582.91C71.95,-541.42 79.87,-438.28 133,-377 134.55,-375.21 136.23,-373.54 138.02,-371.96"/>
<polygon fill="black" stroke="black" points="140.51,-374.47 146.46,-365.7 136.34,-368.85 140.51,-374.47"/>
</g>
<!-- Boss.faction -->
<g id="node18" class="node">
<title>Boss.faction</title>
<polygon fill="lightgrey" stroke="transparent" points="249.5,-312 146.5,-312 146.5,-274 249.5,-274 249.5,-312"/>
<text text-anchor="middle" x="198" y="-296.8" font-family="Times,serif" font-size="14.00">faction: Faction</text>
<text text-anchor="middle" x="198" y="-281.8" font-family="Times,serif" font-size="14.00">(from Creature)</text>
</g>
<!-- Boss&#45;&gt;Boss.faction -->
<g id="edge17" class="edge">
<title>Boss&#45;&gt;Boss.faction</title>
<path fill="none" stroke="black" d="M72.89,-582.64C78.96,-527.03 99.48,-361.77 133,-321 134.5,-319.17 136.15,-317.46 137.9,-315.86"/>
<polygon fill="black" stroke="black" points="140.4,-318.36 146.23,-309.51 136.15,-312.79 140.4,-318.36"/>
</g>
<!-- Boss.greeting -->
<g id="node19" class="node">
<title>Boss.greeting</title>
<polygon fill="lightgrey" stroke="transparent" points="247.5,-256 148.5,-256 148.5,-218 247.5,-218 247.5,-256"/>
<text text-anchor="middle" x="198" y="-240.8" font-family="Times,serif" font-size="14.00">greeting: string</text>
<text text-anchor="middle" x="198" y="-225.8" font-family="Times,serif" font-size="14.00">(from NPC)</text>
</g>
<!-- Boss&#45;&gt;Boss.greeting -->
<g id="edge18" class="edge">
<title>Boss&#45;&gt;Boss.greeting</title>
<path fill="none" stroke="black" d="M72.15,-582.63C76.42,-519.89 93.2,-315.2 133,-265 135.07,-262.39 137.44,-260.01 140.01,-257.85"/>
<polygon fill="black" stroke="black" points="142.12,-260.65 148.26,-252.01 138.07,-254.94 142.12,-260.65"/>
</g>
<!-- Boss.quest_giver -->
<g id="node20" class="node">
<title>Boss.quest_giver</title>
<polygon fill="lightgrey" stroke="transparent" points="263,-200 133,-200 133,-162 263,-162 263,-200"/>
<text text-anchor="middle" x="198" y="-184.8" font-family="Times,serif" font-size="14.00">quest_giver: boolean</text>
<text text-anchor="middle" x="198" y="-169.8" font-family="Times,serif" font-size="14.00">(from NPC)</text>
</g>
<!-- Boss&#45;&gt;Boss.quest_giver -->
<g id="edge19" class="edge">
<title>Boss&#45;&gt;Boss.quest_giver</title>
<path fill="none" stroke="black" d="M71.62,-582.54C74.3,-513.14 86.88,-268.71 133,-209 133.49,-208.37 133.99,-207.75 134.51,-207.15"/>
<polygon fill="black" stroke="black" points="137.17,-209.46 142.06,-200.06 132.38,-204.35 137.17,-209.46"/>
</g>
<!-- Boss.phase -->
<g id="node21" class="node">
<title>Boss.phase</title>
<polygon fill="lightgrey" stroke="transparent" points="239.5,-144 156.5,-144 156.5,-108 239.5,-108 239.5,-144"/>
<text text-anchor="middle" x="198" y="-122.3" font-family="Times,serif" font-size="14.00">phase: uint8</text>
</g>
<!-- Boss&#45;&gt;Boss.phase -->
<g id="edge20" class="edge">
<title>Boss&#45;&gt;Boss.phase</title>
<path fill="none" stroke="black" d="M71.19,-582.8C72.3,-507.62 80,-222.07 133,-153 136.85,-147.98 141.82,-143.88 147.28,-140.54"/>
<polygon fill="black" stroke="black" points="148.93,-143.62 156.17,-135.89 145.69,-137.42 148.93,-143.62"/>
</g>
<!-- Boss.title -->
<g id="node22" class="node">
<title>Boss.title</title>
<polygon fill="lightgrey" stroke="transparent" points="236,-90 160,-90 160,-54 236,-54 236,-90"/>
<text text-anchor="middle" x="198" y="-68.3" font-family="Times,serif" font-size="14.00">title: string</text>
</g>
<!-- Boss&#45;&gt;Boss.title -->
<g id="edge21" class="edge">
<title>Boss&#45;&gt;Boss.title</title>
<path fill="none" stroke="black" d="M70.88,-582.84C70.71,-502.23 73.76,-177.37 133,-99 137.55,-92.98 143.7,-88.29 150.39,-84.64"/>
<polygon fill="black" stroke="black" points="152.17,-87.67 159.76,-80.28 149.22,-81.33 152.17,-87.67"/>
</g>
<!-- Boss.reward_gold -->
<g id="node23" class="node">
<title>Boss.reward_gold</title>
<polygon fill="lightgrey" stroke="transparent" points="261.5,-36 134.5,-36 134.5,0 261.5,0 261.5,-36"/>
<text text-anchor="middle" x="198" y="-14.3" font-family="Times,serif" font-size="14.00">reward_gold: uint32</text>
</g>
<!-- Boss&#45;&gt;Boss.reward_gold -->
<g id="edge22" class="edge">
<title>Boss&#45;&gt;Boss.reward_gold</title>
<path fill="none" stroke="black" d="M70.64,-582.94C69.28,-497.32 67.49,-132.75 133,-45 133.47,-44.37 133.96,-43.75 134.47,-43.14"/>
<polygon fill="black" stroke="black" points="137.08,-45.49 141.91,-36.06 132.25,-40.42 137.08,-45.49"/>
</g>
</g>
</svg>
