<?xml version="1.0" encoding="UTF-8" standalone="no"?>
<!DOCTYPE svg PUBLIC "-//W3C//DTD SVG 1.1//EN"
 "http://www.w3.org/Graphics/SVG/1.1/DTD/svg11.dtd">
<!-- Generated by graphviz version 2.43.0 (0)
 -->
<!-- Title: types Pages: 1 -->
<svg width="1155pt" height="180pt"
 viewBox="0.00 0.00 1155.49 180.00" xmlns="http://www.w3.org/2000/svg" xmlns:xlink="http://www.w3.org/1999/xlink">
<g id="graph0" class="graph" transform="scale(1 1) rotate(0) translate(4 176)">
<title>types</title>
<polygon fill="white" stroke="transparent" points="-4,4 -4,-176 1151.49,-176 1151.49,4 -4,4"/>
<text text-anchor="middle" x="573.75" y="-153.6" font-family="Times,serif" font-size="18.00">Boss &#45;&gt; Entity Inheritance</text>
<!-- Boss -->
<g id="node1" class="node">
<title>Boss</title>
<polygon fill="#add8e6" stroke="black" stroke-width="3" points="54,-90 0,-90 0,-54 54,-54 54,-90"/>
<text text-anchor="middle" x="27" y="-68.3" font-family="Times,serif" font-size="14.00">Boss</text>
</g>
<!-- NPC -->
<g id="node7" class="node">
<title>NPC</title>
<polygon fill="#add8e6" stroke="black" points="195,-90 141,-90 141,-54 195,-54 195,-90"/>
<text text-anchor="middle" x="168" y="-68.3" font-family="Times,serif" font-size="14.00">NPC</text>
</g>
<!-- Boss&#45;&gt;NPC -->
<g id="edge1" class="edge">
<title>Boss&#45;&gt;NPC</title>
<path fill="none" stroke="black" stroke-dasharray="5,2" d="M54.14,-72C75.79,-72 106.78,-72 130.81,-72"/>
<polygon fill="black" stroke="black" points="130.97,-75.5 140.97,-72 130.97,-68.5 130.97,-75.5"/>
<text text-anchor="middle" x="97.5" y="-75.8" font-family="Times,serif" font-size="14.00">(extends)</text>
</g>
<!-- Combatant -->
<g id="node2" class="node">
<title>Combatant</title>
<polygon fill="#ffb347" stroke="black" points="532,-90 455,-90 455,-54 532,-54 532,-90"/>
<text text-anchor="middle" x="493.5" y="-68.3" font-family="Times,serif" font-size="14.00">Combatant</text>
</g>
<!-- GameEntity -->
<g id="node5" class="node">
<title>GameEntity</title>
<polygon fill="#ffb347" stroke="black" points="702,-90 619,-90 619,-54 702,-54 702,-90"/>
<text text-anchor="middle" x="660.5" y="-68.3" font-family="Times,serif" font-size="14.00">GameEntity</text>
</g>
<!-- Combatant&#45;&gt;GameEntity -->
<g id="edge4" class="edge">
<title>Combatant&#45;&gt;GameEntity</title>
<path fill="none" stroke="black" stroke-dasharray="5,2" d="M532.35,-72C555,-72 584.06,-72 608.69,-72"/>
<polygon fill="black" stroke="black" points="608.94,-75.5 618.94,-72 608.94,-68.5 608.94,-75.5"/>
<text text-anchor="middle" x="575.5" y="-75.8" font-family="Times,serif" font-size="14.00">(extends)</text>
</g>
<!-- Creature -->
<g id="node3" class="node">
<title>Creature</title>
<polygon fill="#add8e6" stroke="black" points="345,-90 282,-90 282,-54 345,-54 345,-90"/>
<text text-anchor="middle" x="313.5" y="-68.3" font-family="Times,serif" font-size="14.00">Creature</text>
</g>
<!-- Creature&#45;&gt;Combatant -->
<g id="edge3" class="edge">
<title>Creature&#45;&gt;Combatant</title>
<path fill="none" stroke="black" stroke-dasharray="5,2" d="M345.1,-72C372.43,-72 412.91,-72 444.53,-72"/>
<polygon fill="black" stroke="black" points="444.89,-75.5 454.89,-72 444.89,-68.5 444.89,-75.5"/>
<text text-anchor="middle" x="400" y="-75.8" font-family="Times,serif" font-size="14.00">(implements)</text>
</g>
<!-- Entity -->
<g id="node4" class="node">
<title>Entity</title>
<polygon fill="#ffb347" stroke="black" points="843,-90 789,-90 789,-54 843,-54 843,-90"/>
<text text-anchor="middle" x="816" y="-68.3" font-family="Times,serif" font-size="14.00">Entity</text>
</g>
<!-- Identifiable -->
<g id="node6" class="node">
<title>Identifiable</title>
<polygon fill="#ffb347" stroke="black" points="1009,-144 930,-144 930,-108 1009,-108 1009,-144"/>
<text text-anchor="middle" x="969.5" y="-122.3" font-family="Times,serif" font-size="14.00">Identifiable</text>
</g>
<!-- Entity&#45;&gt;Identifiable -->
<g id="edge7" class="edge">
<title>Entity&#45;&gt;Identifiable</title>
<path fill="none" stroke="black" stroke-dasharray="5,2" d="M843.36,-83.86C849.13,-86.32 855.24,-88.82 861,-91 880.14,-98.23 901.52,-105.38 920.15,-111.31"/>
<polygon fill="black" stroke="black" points="919.3,-114.71 929.89,-114.38 921.41,-108.04 919.3,-114.71"/>
<text text-anchor="middle" x="886.5" y="-111.8" font-family="Times,serif" font-size="14.00">(extends)</text>
</g>
<!-- Positioned -->
<g id="node8" class="node">
<title>Positioned</title>
<polygon fill="#ffb347" stroke="black" points="1006.5,-90 932.5,-90 932.5,-54 1006.5,-54 1006.5,-90"/>
<text text-anchor="middle" x="969.5" y="-68.3" font-family="Times,serif" font-size="14.00">Positioned</text>
</g>
<!-- Entity&#45;&gt;Positioned -->
<g id="edge8" class="edge">
<title>Entity&#45;&gt;Positioned</title>
<path fill="none" stroke="black" stroke-dasharray="5,2" d="M843.04,-72C864.78,-72 896.29,-72 922.29,-72"/>
<polygon fill="black" stroke="black" points="922.32,-75.5 932.32,-72 922.32,-68.5 922.32,-75.5"/>
<text text-anchor="middle" x="886.5" y="-75.8" font-family="Times,serif" font-size="14.00">(extends)</text>
</g>
<!-- uint32 -->
<g id="node11" class="node">
<title>uint32</title>
<ellipse fill="#ffffe0" stroke="black" cx="969.5" cy="-18" rx="33.29" ry="18"/>
<text text-anchor="middle" x="969.5" y="-14.3" font-family="Times,serif" font-size="14.00">uint32</text>
</g>
<!-- Entity&#45;&gt;uint32 -->
<g id="edge6" class="edge">
<title>Entity&#45;&gt;uint32</title>
<path fill="none" stroke="black" d="M843.36,-60.14C849.13,-57.68 855.24,-55.18 861,-53 883.72,-44.42 909.6,-35.95 930.27,-29.5"/>
<polygon fill="black" stroke="black" points="931.44,-32.8 939.96,-26.5 929.37,-26.11 931.44,-32.8"/>
<text text-anchor="middle" x="886.5" y="-56.8" font-family="Times,serif" font-size="14.00">id</text>
</g>
<!-- GameEntity&#45;&gt;Entity -->
<g id="edge5" class="edge">
<title>GameEntity&#45;&gt;Entity</title>
<path fill="none" stroke="black" stroke-dasharray="5,2" d="M702.23,-72C725.96,-72 755.62,-72 778.56,-72"/>
<polygon fill="black" stroke="black" points="778.59,-75.5 788.59,-72 778.59,-68.5 778.59,-75.5"/>
<text text-anchor="middle" x="745.5" y="-75.8" font-family="Times,serif" font-size="14.00">(extends)</text>
</g>
<!-- string -->
<g id="node10" class="node">
<title>string</title>
<ellipse fill="#ffffe0" stroke="black" cx="1111.75" cy="-126" rx="30.59" ry="18"/>
<text text-anchor="middle" x="1111.75" y="-122.3" font-family="Times,serif" font-size="14.00">string</text>
</g>
<!-- Identifiable&#45;&gt;string -->
<g id="edge9" class="edge">
<title>Identifiable&#45;&gt;string</title>
<path fill="none" stroke="black" d="M1009.19,-126C1028.44,-126 1051.66,-126 1071.04,-126"/>
<polygon fill="black" stroke="black" points="1071.07,-129.5 1081.07,-126 1071.07,-122.5 1071.07,-129.5"/>
<text text-anchor="middle" x="1042.5" y="-129.8" font-family="Times,serif" font-size="14.00">name</text>
</g>
<!-- NPC&#45;&gt;Creature -->
<g id="edge2" class="edge">
<title>NPC&#45;&gt;Creature</title>
<path fill="none" stroke="black" stroke-dasharray="5,2" d="M195.32,-72C216.7,-72 247.23,-72 271.76,-72"/>
<polygon fill="black" stroke="black" points="271.86,-75.5 281.86,-72 271.86,-68.5 271.86,-75.5"/>
<text text-anchor="middle" x="238.5" y="-75.8" font-family="Times,serif" font-size="14.00">(extends)</text>
</g>
<!-- float32 -->
<g id="node9" class="node">
<title>float32</title>
<ellipse fill="#ffffe0" stroke="black" cx="1111.75" cy="-57" rx="36" ry="18"/>
<text text-anchor="middle" x="1111.75" y="-53.3" font-family="Times,serif" font-size="14.00">float32</text>
</g>
<!-- Positioned&#45;&gt;float32 -->
<g id="edge10" class="edge">
<title>Positioned&#45;&gt;float32</title>
<path fill="none" stroke="black" d="M1006.62,-68.14C1024.92,-66.18 1047.29,-63.79 1066.61,-61.72"/>
<polygon fill="black" stroke="black" points="1067.11,-65.19 1076.68,-60.64 1066.37,-58.23 1067.11,-65.19"/>
<text text-anchor="middle" x="1042.5" y="-68.8" font-family="Times,serif" font-size="14.00">x</text>
</g>
<!-- Positioned&#45;&gt;float32 -->
<g id="edge11" class="edge">
<title>Positioned&#45;&gt;float32</title>
<path fill="none" stroke="black" d="M999.38,-53.87C1007.95,-49.42 1017.57,-45.28 1027,-43 1041.64,-39.46 1057.94,-40.98 1072.24,-44.08"/>
<polygon fill="black" stroke="black" points="1071.7,-47.55 1082.24,-46.57 1073.39,-40.76 1071.7,-47.55"/>
<text text-anchor="middle" x="1042.5" y="-46.8" font-family="Times,serif" font-size="14.00">y</text>
</g>
</g>
</svg>
