<?xml version="1.0" encoding="UTF-8" standalone="no"?>
<!DOCTYPE svg PUBLIC "-//W3C//DTD SVG 1.1//EN"
 "http://www.w3.org/Graphics/SVG/1.1/DTD/svg11.dtd">
<!-- Generated by graphviz version 2.43.0 (0)
 -->
<!-- Title: types Pages: 1 -->
<svg width="418pt" height="615pt"
 viewBox="0.00 0.00 417.82 615.00" xmlns="http://www.w3.org/2000/svg" xmlns:xlink="http://www.w3.org/1999/xlink">
<g id="graph0" class="graph" transform="scale(1 1) rotate(0) translate(4 611)">
<title>types</title>
<polygon fill="white" stroke="transparent" points="-4,4 -4,-611 413.82,-611 413.82,4 -4,4"/>
<text text-anchor="middle" x="204.91" y="-588.6" font-family="Times,serif" font-size="18.00">Boss Inheritance Tree</text>
<!-- Boss -->
<g id="node1" class="node">
<title>Boss</title>
<polygon fill="#ffd700" stroke="black" stroke-width="3" points="210.82,-579 156.82,-579 156.82,-543 210.82,-543 210.82,-579"/>
<text text-anchor="middle" x="183.82" y="-557.3" font-family="Times,serif" font-size="14.00">Boss</text>
</g>
<!-- Combatant -->
<g id="node2" class="node">
<title>Combatant</title>
<polygon fill="#7b68ee" stroke="black" points="95.32,-318 18.32,-318 18.32,-282 95.32,-282 95.32,-318"/>
<text text-anchor="middle" x="56.82" y="-296.3" font-family="Times,serif" font-size="14.00">Combatant</text>
</g>
<!-- Boss&#45;&gt;Combatant -->
<g id="edge2" class="edge">
<title>Boss&#45;&gt;Combatant</title>
<path fill="none" stroke="black" stroke-dasharray="5,2" d="M156.6,-550.65C115.38,-534.83 38.58,-498.46 6.82,-438 -12.7,-400.83 14.05,-354.32 35.32,-326.18"/>
<polygon fill="black" stroke="black" points="38.27,-328.09 41.69,-318.06 32.76,-323.77 38.27,-328.09"/>
<text text-anchor="middle" x="43.82" y="-426.8" font-family="Times,serif" font-size="14.00">(implements)</text>
</g>
<!-- NPC -->
<g id="node8" class="node">
<title>NPC</title>
<polygon fill="#4a90d9" stroke="black" points="210.82,-492 156.82,-492 156.82,-456 210.82,-456 210.82,-492"/>
<text text-anchor="middle" x="183.82" y="-470.3" font-family="Times,serif" font-size="14.00">NPC</text>
</g>
<!-- Boss&#45;&gt;NPC -->
<g id="edge1" class="edge">
<title>Boss&#45;&gt;NPC</title>
<path fill="none" stroke="black" stroke-dasharray="5,2" d="M183.82,-542.8C183.82,-531.16 183.82,-515.55 183.82,-502.24"/>
<polygon fill="black" stroke="black" points="187.32,-502.18 183.82,-492.18 180.32,-502.18 187.32,-502.18"/>
<text text-anchor="middle" x="209.32" y="-513.8" font-family="Times,serif" font-size="14.00">(extends)</text>
</g>
<!-- WorldObject -->
<g id="node14" class="node">
<title>WorldObject</title>
<polygon fill="#7b68ee" stroke="black" points="319.32,-318 232.32,-318 232.32,-282 319.32,-282 319.32,-318"/>
<text text-anchor="middle" x="275.82" y="-296.3" font-family="Times,serif" font-size="14.00">WorldObject</text>
</g>
<!-- Boss&#45;&gt;WorldObject -->
<g id="edge3" class="edge">
<title>Boss&#45;&gt;WorldObject</title>
<path fill="none" stroke="black" stroke-dasharray="5,2" d="M211.11,-544.6C250.16,-520.69 320.04,-470.5 344.82,-405 350.49,-390.04 351,-383.76 344.82,-369 337.5,-351.49 323.22,-336.2 309.55,-324.58"/>
<polygon fill="black" stroke="black" points="311.6,-321.74 301.62,-318.18 307.2,-327.19 311.6,-321.74"/>
<text text-anchor="middle" x="372.82" y="-426.8" font-family="Times,serif" font-size="14.00">(implements)</text>
</g>
<!-- Damageable -->
<g id="node4" class="node">
<title>Damageable</title>
<polygon fill="#7b68ee" stroke="black" points="96.32,-231 11.32,-231 11.32,-195 96.32,-195 96.32,-231"/>
<text text-anchor="middle" x="53.82" y="-209.3" font-family="Times,serif" font-size="14.00">Damageable</text>
</g>
<!-- Combatant&#45;&gt;Damageable -->
<g id="edge11" class="edge">
<title>Combatant&#45;&gt;Damageable</title>
<path fill="none" stroke="black" stroke-dasharray="5,2" d="M55.72,-281.92C55.39,-276.22 55.05,-269.84 54.82,-264 54.54,-256.66 54.33,-248.7 54.19,-241.34"/>
<polygon fill="black" stroke="black" points="57.68,-241.07 54.01,-231.13 50.68,-241.19 57.68,-241.07"/>
<text text-anchor="middle" x="80.32" y="-252.8" font-family="Times,serif" font-size="14.00">(extends)</text>
</g>
<!-- GameEntity -->
<g id="node6" class="node">
<title>GameEntity</title>
<polygon fill="#7b68ee" stroke="black" points="208.32,-231 125.32,-231 125.32,-195 208.32,-195 208.32,-231"/>
<text text-anchor="middle" x="166.82" y="-209.3" font-family="Times,serif" font-size="14.00">GameEntity</text>
</g>
<!-- Combatant&#45;&gt;GameEntity -->
<g id="edge10" class="edge">
<title>Combatant&#45;&gt;GameEntity</title>
<path fill="none" stroke="black" stroke-dasharray="5,2" d="M81.48,-281.87C89.34,-276.28 98.02,-269.97 105.82,-264 116.8,-255.59 128.62,-246.04 138.89,-237.55"/>
<polygon fill="black" stroke="black" points="141.31,-240.09 146.76,-231.01 136.83,-234.71 141.31,-240.09"/>
<text text-anchor="middle" x="150.32" y="-252.8" font-family="Times,serif" font-size="14.00">(extends)</text>
</g>
<!-- Creature -->
<g id="node3" class="node">
<title>Creature</title>
<polygon fill="#4a90d9" stroke="black" points="215.32,-405 152.32,-405 152.32,-369 215.32,-369 215.32,-405"/>
<text text-anchor="middle" x="183.82" y="-383.3" font-family="Times,serif" font-size="14.00">Creature</text>
</g>
<!-- Creature&#45;&gt;Combatant -->
<g id="edge12" class="edge">
<title>Creature&#45;&gt;Combatant</title>
<path fill="none" stroke="black" stroke-dasharray="5,2" d="M152.28,-375.59C136.89,-369.69 118.56,-361.4 103.82,-351 93.98,-344.06 84.59,-334.81 76.82,-326.15"/>
<polygon fill="black" stroke="black" points="79.36,-323.73 70.18,-318.45 74.06,-328.31 79.36,-323.73"/>
<text text-anchor="middle" x="140.82" y="-339.8" font-family="Times,serif" font-size="14.00">(implements)</text>
</g>
<!-- Creature&#45;&gt;WorldObject -->
<g id="edge13" class="edge">
<title>Creature&#45;&gt;WorldObject</title>
<path fill="none" stroke="black" stroke-dasharray="5,2" d="M180.92,-368.68C180.14,-358.25 180.99,-345.25 187.82,-336 196.31,-324.51 209.18,-316.78 222.47,-311.59"/>
<polygon fill="black" stroke="black" points="223.86,-314.82 232.17,-308.25 221.58,-308.2 223.86,-314.82"/>
<text text-anchor="middle" x="224.82" y="-339.8" font-family="Times,serif" font-size="14.00">(implements)</text>
</g>
<!-- Entity -->
<g id="node5" class="node">
<title>Entity</title>
<polygon fill="#7b68ee" stroke="black" points="239.82,-123 185.82,-123 185.82,-87 239.82,-87 239.82,-123"/>
<text text-anchor="middle" x="212.82" y="-101.3" font-family="Times,serif" font-size="14.00">Entity</text>
</g>
<!-- Identifiable -->
<g id="node7" class="node">
<title>Identifiable</title>
<polygon fill="#7b68ee" stroke="black" points="228.32,-36 149.32,-36 149.32,0 228.32,0 228.32,-36"/>
<text text-anchor="middle" x="188.82" y="-14.3" font-family="Times,serif" font-size="14.00">Identifiable</text>
</g>
<!-- Entity&#45;&gt;Identifiable -->
<g id="edge19" class="edge">
<title>Entity&#45;&gt;Identifiable</title>
<path fill="none" stroke="black" stroke-dasharray="5,2" d="M207.97,-86.8C204.65,-75.05 200.18,-59.24 196.4,-45.84"/>
<polygon fill="black" stroke="black" points="199.76,-44.85 193.67,-36.18 193.02,-46.75 199.76,-44.85"/>
<text text-anchor="middle" x="228.32" y="-57.8" font-family="Times,serif" font-size="14.00">(extends)</text>
</g>
<!-- Positioned -->
<g id="node10" class="node">
<title>Positioned</title>
<polygon fill="#7b68ee" stroke="black" points="341.82,-36 267.82,-36 267.82,0 341.82,0 341.82,-36"/>
<text text-anchor="middle" x="304.82" y="-14.3" font-family="Times,serif" font-size="14.00">Positioned</text>
</g>
<!-- Entity&#45;&gt;Positioned -->
<g id="edge20" class="edge">
<title>Entity&#45;&gt;Positioned</title>
<path fill="none" stroke="black" stroke-dasharray="5,2" d="M236.28,-86.86C243.39,-81.38 251.09,-75.13 257.82,-69 266.37,-61.22 275.18,-52.16 282.84,-43.9"/>
<polygon fill="black" stroke="black" points="285.62,-46.04 289.78,-36.3 280.45,-41.33 285.62,-46.04"/>
<text text-anchor="middle" x="297.32" y="-57.8" font-family="Times,serif" font-size="14.00">(extends)</text>
</g>
<!-- GameEntity&#45;&gt;Entity -->
<g id="edge14" class="edge">
<title>GameEntity&#45;&gt;Entity</title>
<path fill="none" stroke="black" stroke-dasharray="5,2" d="M178.85,-194.65C182.35,-189.16 185.99,-182.96 188.82,-177 195.54,-162.86 201.25,-146.32 205.41,-132.77"/>
<polygon fill="black" stroke="black" points="208.79,-133.66 208.28,-123.08 202.08,-131.67 208.79,-133.66"/>
<text text-anchor="middle" x="228.32" y="-155.3" font-family="Times,serif" font-size="14.00">(extends)</text>
</g>
<!-- Trackable -->
<g id="node13" class="node">
<title>Trackable</title>
<polygon fill="#7b68ee" stroke="black" points="167.32,-123 96.32,-123 96.32,-87 167.32,-87 167.32,-123"/>
<text text-anchor="middle" x="131.82" y="-101.3" font-family="Times,serif" font-size="14.00">Trackable</text>
</g>
<!-- GameEntity&#45;&gt;Trackable -->
<g id="edge15" class="edge">
<title>GameEntity&#45;&gt;Trackable</title>
<path fill="none" stroke="black" stroke-dasharray="5,2" d="M149.14,-194.87C144.7,-189.57 140.45,-183.43 137.82,-177 132.21,-163.27 130.54,-146.82 130.35,-133.21"/>
<polygon fill="black" stroke="black" points="133.85,-133.06 130.47,-123.02 126.85,-132.97 133.85,-133.06"/>
<text text-anchor="middle" x="163.32" y="-155.3" font-family="Times,serif" font-size="14.00">(extends)</text>
</g>
<!-- NPC&#45;&gt;Combatant -->
<g id="edge8" class="edge">
<title>NPC&#45;&gt;Combatant</title>
<path fill="none" stroke="black" stroke-dasharray="5,2" d="M156.72,-464.89C129.65,-455.26 89.22,-436.42 68.82,-405 54.02,-382.2 52.42,-350.56 53.64,-328.17"/>
<polygon fill="black" stroke="black" points="57.15,-328.25 54.43,-318.01 50.17,-327.71 57.15,-328.25"/>
<text text-anchor="middle" x="105.82" y="-383.3" font-family="Times,serif" font-size="14.00">(implements)</text>
</g>
<!-- NPC&#45;&gt;Creature -->
<g id="edge7" class="edge">
<title>NPC&#45;&gt;Creature</title>
<path fill="none" stroke="black" stroke-dasharray="5,2" d="M183.82,-455.8C183.82,-444.16 183.82,-428.55 183.82,-415.24"/>
<polygon fill="black" stroke="black" points="187.32,-415.18 183.82,-405.18 180.32,-415.18 187.32,-415.18"/>
<text text-anchor="middle" x="209.32" y="-426.8" font-family="Times,serif" font-size="14.00">(extends)</text>
</g>
<!-- NPC&#45;&gt;WorldObject -->
<g id="edge9" class="edge">
<title>NPC&#45;&gt;WorldObject</title>
<path fill="none" stroke="black" stroke-dasharray="5,2" d="M211.02,-460.99C221.07,-455.33 231.72,-447.67 238.82,-438 262.87,-405.29 271.29,-357.94 274.24,-328.34"/>
<polygon fill="black" stroke="black" points="277.73,-328.56 275.09,-318.29 270.76,-327.96 277.73,-328.56"/>
<text text-anchor="middle" x="303.82" y="-383.3" font-family="Times,serif" font-size="14.00">(implements)</text>
</g>
<!-- Physical -->
<g id="node9" class="node">
<title>Physical</title>
<polygon fill="#7b68ee" stroke="black" points="380.82,-177 318.82,-177 318.82,-141 380.82,-141 380.82,-177"/>
<text text-anchor="middle" x="349.82" y="-155.3" font-family="Times,serif" font-size="14.00">Physical</text>
</g>
<!-- Physical&#45;&gt;Positioned -->
<g id="edge16" class="edge">
<title>Physical&#45;&gt;Positioned</title>
<path fill="none" stroke="black" stroke-dasharray="5,2" d="M347.87,-140.89C345.06,-119.83 338.83,-83.25 326.82,-54 325.57,-50.95 324.06,-47.86 322.42,-44.85"/>
<polygon fill="black" stroke="black" points="325.37,-42.97 317.25,-36.17 319.36,-46.55 325.37,-42.97"/>
<text text-anchor="middle" x="370.32" y="-101.3" font-family="Times,serif" font-size="14.00">(extends)</text>
</g>
<!-- Renderable -->
<g id="node11" class="node">
<title>Renderable</title>
<polygon fill="#7b68ee" stroke="black" points="314.82,-231 236.82,-231 236.82,-195 314.82,-195 314.82,-231"/>
<text text-anchor="middle" x="275.82" y="-209.3" font-family="Times,serif" font-size="14.00">Renderable</text>
</g>
<!-- Timed -->
<g id="node12" class="node">
<title>Timed</title>
<polygon fill="#7b68ee" stroke="black" points="88.82,-36 34.82,-36 34.82,0 88.82,0 88.82,-36"/>
<text text-anchor="middle" x="61.82" y="-14.3" font-family="Times,serif" font-size="14.00">Timed</text>
</g>
<!-- Trackable&#45;&gt;Identifiable -->
<g id="edge17" class="edge">
<title>Trackable&#45;&gt;Identifiable</title>
<path fill="none" stroke="black" stroke-dasharray="5,2" d="M133.55,-86.69C135.21,-76.52 138.47,-63.77 144.82,-54 147.35,-50.12 150.44,-46.48 153.82,-43.12"/>
<polygon fill="black" stroke="black" points="156.4,-45.5 161.52,-36.23 151.73,-40.28 156.4,-45.5"/>
<text text-anchor="middle" x="170.32" y="-57.8" font-family="Times,serif" font-size="14.00">(extends)</text>
</g>
<!-- Trackable&#45;&gt;Timed -->
<g id="edge18" class="edge">
<title>Trackable&#45;&gt;Timed</title>
<path fill="none" stroke="black" stroke-dasharray="5,2" d="M103.29,-86.97C96.29,-81.84 89.25,-75.75 83.82,-69 78.33,-62.17 73.93,-53.76 70.56,-45.79"/>
<polygon fill="black" stroke="black" points="73.81,-44.5 66.95,-36.43 67.28,-47.02 73.81,-44.5"/>
<text text-anchor="middle" x="109.32" y="-57.8" font-family="Times,serif" font-size="14.00">(extends)</text>
</g>
<!-- WorldObject&#45;&gt;GameEntity -->
<g id="edge4" class="edge">
<title>WorldObject&#45;&gt;GameEntity</title>
<path fill="none" stroke="black" stroke-dasharray="5,2" d="M246.9,-281.96C238.29,-276.53 228.98,-270.29 220.82,-264 210.55,-256.08 199.93,-246.57 190.85,-237.98"/>
<polygon fill="black" stroke="black" points="193.27,-235.45 183.63,-231.04 188.41,-240.5 193.27,-235.45"/>
<text text-anchor="middle" x="246.32" y="-252.8" font-family="Times,serif" font-size="14.00">(extends)</text>
</g>
<!-- WorldObject&#45;&gt;Physical -->
<g id="edge6" class="edge">
<title>WorldObject&#45;&gt;Physical</title>
<path fill="none" stroke="black" stroke-dasharray="5,2" d="M309.4,-281.97C316.39,-277.03 323.08,-271.04 327.82,-264 343.17,-241.25 348.11,-209.85 349.56,-187.52"/>
<polygon fill="black" stroke="black" points="353.06,-187.51 350.02,-177.36 346.07,-187.19 353.06,-187.51"/>
<text text-anchor="middle" x="360.32" y="-252.8" font-family="Times,serif" font-size="14.00">(extends)</text>
</g>
<!-- WorldObject&#45;&gt;Renderable -->
<g id="edge5" class="edge">
<title>WorldObject&#45;&gt;Renderable</title>
<path fill="none" stroke="black" stroke-dasharray="5,2" d="M275.82,-281.8C275.82,-270.16 275.82,-254.55 275.82,-241.24"/>
<polygon fill="black" stroke="black" points="279.32,-241.18 275.82,-231.18 272.32,-241.18 279.32,-241.18"/>
<text text-anchor="middle" x="301.32" y="-252.8" font-family="Times,serif" font-size="14.00">(extends)</text>
</g>
</g>
</svg>
