<?xml version="1.0" encoding="UTF-8" standalone="no"?>
<!DOCTYPE svg PUBLIC "-//W3C//DTD SVG 1.1//EN"
 "http://www.w3.org/Graphics/SVG/1.1/DTD/svg11.dtd">
<!-- Generated by graphviz version 2.43.0 (0)
 -->
<!-- Title: types Pages: 1 -->
<svg width="393pt" height="615pt"
 viewBox="0.00 0.00 392.50 615.00" xmlns="http://www.w3.org/2000/svg" xmlns:xlink="http://www.w3.org/1999/xlink">
<g id="graph0" class="graph" transform="scale(1 1) rotate(0) translate(4 611)">
<title>types</title>
<polygon fill="white" stroke="transparent" points="-4,4 -4,-611 388.5,-611 388.5,4 -4,4"/>
<text text-anchor="middle" x="192.25" y="-588.6" font-family="Times,serif" font-size="18.00">Boss Inheritance Tree</text>
<!-- Boss -->
<g id="node1" class="node">
<title>Boss</title>
<polygon fill="#ffd700" stroke="black" stroke-width="3" points="192.5,-579 138.5,-579 138.5,-543 192.5,-543 192.5,-579"/>
<text text-anchor="middle" x="165.5" y="-557.3" font-family="Times,serif" font-size="14.00">Boss</text>
</g>
<!-- NPC -->
<g id="node8" class="node">
<title>NPC</title>
<polygon fill="#4a90d9" stroke="black" points="192.5,-492 138.5,-492 138.5,-456 192.5,-456 192.5,-492"/>
<text text-anchor="middle" x="165.5" y="-470.3" font-family="Times,serif" font-size="14.00">NPC</text>
</g>
<!-- Boss&#45;&gt;NPC -->
<g id="edge1" class="edge">
<title>Boss&#45;&gt;NPC</title>
<path fill="none" stroke="black" stroke-dasharray="5,2" d="M165.5,-542.8C165.5,-531.16 165.5,-515.55 165.5,-502.24"/>
<polygon fill="black" stroke="black" points="169,-502.18 165.5,-492.18 162,-502.18 169,-502.18"/>
<text text-anchor="middle" x="191" y="-513.8" font-family="Times,serif" font-size="14.00">(extends)</text>
</g>
<!-- Combatant -->
<g id="node2" class="node">
<title>Combatant</title>
<polygon fill="#7b68ee" stroke="black" points="155,-318 78,-318 78,-282 155,-282 155,-318"/>
<text text-anchor="middle" x="116.5" y="-296.3" font-family="Times,serif" font-size="14.00">Combatant</text>
</g>
<!-- Damageable -->
<g id="node4" class="node">
<title>Damageable</title>
<polygon fill="#7b68ee" stroke="black" points="85,-231 0,-231 0,-195 85,-195 85,-231"/>
<text text-anchor="middle" x="42.5" y="-209.3" font-family="Times,serif" font-size="14.00">Damageable</text>
</g>
<!-- Combatant&#45;&gt;Damageable -->
<g id="edge6" class="edge">
<title>Combatant&#45;&gt;Damageable</title>
<path fill="none" stroke="black" stroke-dasharray="5,2" d="M80.05,-281.84C72.46,-276.94 65.08,-270.99 59.5,-264 54.19,-257.35 50.5,-248.95 47.94,-240.94"/>
<polygon fill="black" stroke="black" points="51.29,-239.9 45.29,-231.17 44.53,-241.74 51.29,-239.9"/>
<text text-anchor="middle" x="85" y="-252.8" font-family="Times,serif" font-size="14.00">(extends)</text>
</g>
<!-- GameEntity -->
<g id="node6" class="node">
<title>GameEntity</title>
<polygon fill="#7b68ee" stroke="black" points="196,-231 113,-231 113,-195 196,-195 196,-231"/>
<text text-anchor="middle" x="154.5" y="-209.3" font-family="Times,serif" font-size="14.00">GameEntity</text>
</g>
<!-- Combatant&#45;&gt;GameEntity -->
<g id="edge5" class="edge">
<title>Combatant&#45;&gt;GameEntity</title>
<path fill="none" stroke="black" stroke-dasharray="5,2" d="M113.63,-281.62C112.75,-271.66 113,-259.16 117.5,-249 119.1,-245.37 121.28,-241.94 123.78,-238.75"/>
<polygon fill="black" stroke="black" points="126.39,-241.09 130.52,-231.34 121.21,-236.38 126.39,-241.09"/>
<text text-anchor="middle" x="143" y="-252.8" font-family="Times,serif" font-size="14.00">(extends)</text>
</g>
<!-- Creature -->
<g id="node3" class="node">
<title>Creature</title>
<polygon fill="#4a90d9" stroke="black" points="197,-405 134,-405 134,-369 197,-369 197,-405"/>
<text text-anchor="middle" x="165.5" y="-383.3" font-family="Times,serif" font-size="14.00">Creature</text>
</g>
<!-- Creature&#45;&gt;Combatant -->
<g id="edge3" class="edge">
<title>Creature&#45;&gt;Combatant</title>
<path fill="none" stroke="black" stroke-dasharray="5,2" d="M135.05,-368.78C128.89,-363.85 123.18,-357.91 119.5,-351 115.84,-344.14 114.37,-335.98 114.01,-328.26"/>
<polygon fill="black" stroke="black" points="117.51,-328.2 114.1,-318.17 110.51,-328.13 117.51,-328.2"/>
<text text-anchor="middle" x="156.5" y="-339.8" font-family="Times,serif" font-size="14.00">(implements)</text>
</g>
<!-- WorldObject -->
<g id="node14" class="node">
<title>WorldObject</title>
<polygon fill="#7b68ee" stroke="black" points="284,-318 197,-318 197,-282 284,-282 284,-318"/>
<text text-anchor="middle" x="240.5" y="-296.3" font-family="Times,serif" font-size="14.00">WorldObject</text>
</g>
<!-- Creature&#45;&gt;WorldObject -->
<g id="edge4" class="edge">
<title>Creature&#45;&gt;WorldObject</title>
<path fill="none" stroke="black" stroke-dasharray="5,2" d="M180.68,-368.8C191.55,-356.47 206.37,-339.68 218.54,-325.89"/>
<polygon fill="black" stroke="black" points="221.35,-327.99 225.35,-318.18 216.1,-323.36 221.35,-327.99"/>
<text text-anchor="middle" x="244.5" y="-339.8" font-family="Times,serif" font-size="14.00">(implements)</text>
</g>
<!-- Entity -->
<g id="node5" class="node">
<title>Entity</title>
<polygon fill="#7b68ee" stroke="black" points="229.5,-123 175.5,-123 175.5,-87 229.5,-87 229.5,-123"/>
<text text-anchor="middle" x="202.5" y="-101.3" font-family="Times,serif" font-size="14.00">Entity</text>
</g>
<!-- Identifiable -->
<g id="node7" class="node">
<title>Identifiable</title>
<polygon fill="#7b68ee" stroke="black" points="217,-36 138,-36 138,0 217,0 217,-36"/>
<text text-anchor="middle" x="177.5" y="-14.3" font-family="Times,serif" font-size="14.00">Identifiable</text>
</g>
<!-- Entity&#45;&gt;Identifiable -->
<g id="edge13" class="edge">
<title>Entity&#45;&gt;Identifiable</title>
<path fill="none" stroke="black" stroke-dasharray="5,2" d="M197.44,-86.8C193.98,-75.05 189.33,-59.24 185.39,-45.84"/>
<polygon fill="black" stroke="black" points="188.73,-44.78 182.55,-36.18 182.02,-46.76 188.73,-44.78"/>
<text text-anchor="middle" x="217" y="-57.8" font-family="Times,serif" font-size="14.00">(extends)</text>
</g>
<!-- Positioned -->
<g id="node10" class="node">
<title>Positioned</title>
<polygon fill="#7b68ee" stroke="black" points="330.5,-36 256.5,-36 256.5,0 330.5,0 330.5,-36"/>
<text text-anchor="middle" x="293.5" y="-14.3" font-family="Times,serif" font-size="14.00">Positioned</text>
</g>
<!-- Entity&#45;&gt;Positioned -->
<g id="edge14" class="edge">
<title>Entity&#45;&gt;Positioned</title>
<path fill="none" stroke="black" stroke-dasharray="5,2" d="M225.4,-86.8C232.35,-81.31 239.89,-75.08 246.5,-69 255,-61.17 263.81,-52.1 271.47,-43.85"/>
<polygon fill="black" stroke="black" points="274.25,-45.99 278.41,-36.25 269.08,-41.27 274.25,-45.99"/>
<text text-anchor="middle" x="287" y="-57.8" font-family="Times,serif" font-size="14.00">(extends)</text>
</g>
<!-- GameEntity&#45;&gt;Entity -->
<g id="edge11" class="edge">
<title>GameEntity&#45;&gt;Entity</title>
<path fill="none" stroke="black" stroke-dasharray="5,2" d="M167.7,-194.78C171.52,-189.29 175.47,-183.06 178.5,-177 185.5,-163 191.22,-146.47 195.32,-132.89"/>
<polygon fill="black" stroke="black" points="198.72,-133.74 198.13,-123.17 191.99,-131.8 198.72,-133.74"/>
<text text-anchor="middle" x="218" y="-155.3" font-family="Times,serif" font-size="14.00">(extends)</text>
</g>
<!-- Trackable -->
<g id="node13" class="node">
<title>Trackable</title>
<polygon fill="#7b68ee" stroke="black" points="157,-123 86,-123 86,-87 157,-87 157,-123"/>
<text text-anchor="middle" x="121.5" y="-101.3" font-family="Times,serif" font-size="14.00">Trackable</text>
</g>
<!-- GameEntity&#45;&gt;Trackable -->
<g id="edge12" class="edge">
<title>GameEntity&#45;&gt;Trackable</title>
<path fill="none" stroke="black" stroke-dasharray="5,2" d="M138.04,-194.7C133.9,-189.4 129.95,-183.29 127.5,-177 122.16,-163.26 120.49,-146.93 120.23,-133.4"/>
<polygon fill="black" stroke="black" points="123.73,-133.27 120.29,-123.25 116.73,-133.23 123.73,-133.27"/>
<text text-anchor="middle" x="153" y="-155.3" font-family="Times,serif" font-size="14.00">(extends)</text>
</g>
<!-- NPC&#45;&gt;Creature -->
<g id="edge2" class="edge">
<title>NPC&#45;&gt;Creature</title>
<path fill="none" stroke="black" stroke-dasharray="5,2" d="M165.5,-455.8C165.5,-444.16 165.5,-428.55 165.5,-415.24"/>
<polygon fill="black" stroke="black" points="169,-415.18 165.5,-405.18 162,-415.18 169,-415.18"/>
<text text-anchor="middle" x="191" y="-426.8" font-family="Times,serif" font-size="14.00">(extends)</text>
</g>
<!-- Physical -->
<g id="node9" class="node">
<title>Physical</title>
<polygon fill="#7b68ee" stroke="black" points="369.5,-177 307.5,-177 307.5,-141 369.5,-141 369.5,-177"/>
<text text-anchor="middle" x="338.5" y="-155.3" font-family="Times,serif" font-size="14.00">Physical</text>
</g>
<!-- Physical&#45;&gt;Positioned -->
<g id="edge10" class="edge">
<title>Physical&#45;&gt;Positioned</title>
<path fill="none" stroke="black" stroke-dasharray="5,2" d="M336.85,-140.85C334.38,-119.75 328.64,-83.13 316.5,-54 315.21,-50.91 313.65,-47.81 311.94,-44.78"/>
<polygon fill="black" stroke="black" points="314.8,-42.75 306.56,-36.09 308.84,-46.43 314.8,-42.75"/>
<text text-anchor="middle" x="359" y="-101.3" font-family="Times,serif" font-size="14.00">(extends)</text>
</g>
<!-- Renderable -->
<g id="node11" class="node">
<title>Renderable</title>
<polygon fill="#7b68ee" stroke="black" points="303.5,-231 225.5,-231 225.5,-195 303.5,-195 303.5,-231"/>
<text text-anchor="middle" x="264.5" y="-209.3" font-family="Times,serif" font-size="14.00">Renderable</text>
</g>
<!-- Timed -->
<g id="node12" class="node">
<title>Timed</title>
<polygon fill="#7b68ee" stroke="black" points="77.5,-36 23.5,-36 23.5,0 77.5,0 77.5,-36"/>
<text text-anchor="middle" x="50.5" y="-14.3" font-family="Times,serif" font-size="14.00">Timed</text>
</g>
<!-- Trackable&#45;&gt;Identifiable -->
<g id="edge15" class="edge">
<title>Trackable&#45;&gt;Identifiable</title>
<path fill="none" stroke="black" stroke-dasharray="5,2" d="M123.27,-86.72C124.94,-76.55 128.2,-63.81 134.5,-54 136.97,-50.16 139.99,-46.54 143.29,-43.2"/>
<polygon fill="black" stroke="black" points="145.79,-45.65 150.82,-36.32 141.08,-40.48 145.79,-45.65"/>
<text text-anchor="middle" x="160" y="-57.8" font-family="Times,serif" font-size="14.00">(extends)</text>
</g>
<!-- Trackable&#45;&gt;Timed -->
<g id="edge16" class="edge">
<title>Trackable&#45;&gt;Timed</title>
<path fill="none" stroke="black" stroke-dasharray="5,2" d="M93.04,-86.91C86.04,-81.78 78.99,-75.7 73.5,-69 67.91,-62.17 63.35,-53.75 59.82,-45.78"/>
<polygon fill="black" stroke="black" points="63.02,-44.37 56.01,-36.43 56.54,-47.01 63.02,-44.37"/>
<text text-anchor="middle" x="99" y="-57.8" font-family="Times,serif" font-size="14.00">(extends)</text>
</g>
<!-- WorldObject&#45;&gt;GameEntity -->
<g id="edge7" class="edge">
<title>WorldObject&#45;&gt;GameEntity</title>
<path fill="none" stroke="black" stroke-dasharray="5,2" d="M216.93,-281.67C210.1,-276.27 202.79,-270.13 196.5,-264 188.7,-256.41 180.85,-247.48 174.07,-239.28"/>
<polygon fill="black" stroke="black" points="176.71,-236.98 167.7,-231.41 171.27,-241.38 176.71,-236.98"/>
<text text-anchor="middle" x="222" y="-252.8" font-family="Times,serif" font-size="14.00">(extends)</text>
</g>
<!-- WorldObject&#45;&gt;Physical -->
<g id="edge9" class="edge">
<title>WorldObject&#45;&gt;Physical</title>
<path fill="none" stroke="black" stroke-dasharray="5,2" d="M284.2,-283.71C293.63,-278.68 302.77,-272.21 309.5,-264 327.45,-242.1 334.32,-209.83 336.93,-187.05"/>
<polygon fill="black" stroke="black" points="340.42,-187.31 337.87,-177.03 333.45,-186.65 340.42,-187.31"/>
<text text-anchor="middle" x="344" y="-252.8" font-family="Times,serif" font-size="14.00">(extends)</text>
</g>
<!-- WorldObject&#45;&gt;Renderable -->
<g id="edge8" class="edge">
<title>WorldObject&#45;&gt;Renderable</title>
<path fill="none" stroke="black" stroke-dasharray="5,2" d="M245.36,-281.8C248.67,-270.05 253.14,-254.24 256.92,-240.84"/>
<polygon fill="black" stroke="black" points="260.3,-241.75 259.65,-231.18 253.56,-239.85 260.3,-241.75"/>
<text text-anchor="middle" x="280" y="-252.8" font-family="Times,serif" font-size="14.00">(extends)</text>
</g>
</g>
</svg>
