<?xml version="1.0" encoding="UTF-8" standalone="no"?>
<!DOCTYPE svg PUBLIC "-//W3C//DTD SVG 1.1//EN"
 "http://www.w3.org/Graphics/SVG/1.1/DTD/svg11.dtd">
<!-- Generated by graphviz version 2.43.0 (0)
 -->
<!-- Title: types Pages: 1 -->
<svg width="1508pt" height="768pt"
 viewBox="0.00 0.00 1507.93 768.00" xmlns="http://www.w3.org/2000/svg" xmlns:xlink="http://www.w3.org/1999/xlink">
<g id="graph0" class="graph" transform="scale(1 1) rotate(0) translate(4 764)">
<title>types</title>
<polygon fill="white" stroke="transparent" points="-4,4 -4,-764 1503.93,-764 1503.93,4 -4,4"/>
<text text-anchor="middle" x="749.97" y="-741.6" font-family="Times,serif" font-size="18.00">Entity System</text>
<!-- Armor -->
<g id="node1" class="node">
<title>Armor</title>
<polygon fill="#4a90d9" stroke="black" points="1066.93,-645 1012.93,-645 1012.93,-609 1066.93,-609 1066.93,-645"/>
<text text-anchor="middle" x="1039.93" y="-623.3" font-family="Times,serif" font-size="14.00">Armor</text>
</g>
<!-- Item -->
<g id="node11" class="node">
<title>Item</title>
<polygon fill="#4a90d9" stroke="black" points="882.93,-558 828.93,-558 828.93,-522 882.93,-522 882.93,-558"/>
<text text-anchor="middle" x="855.93" y="-536.3" font-family="Times,serif" font-size="14.00">Item</text>
</g>
<!-- Armor&#45;&gt;Item -->
<g id="edge44" class="edge">
<title>Armor&#45;&gt;Item</title>
<path fill="none" stroke="black" stroke-dasharray="5,2" d="M1012.93,-620.13C971.63,-611.07 896.99,-594.39 891.93,-591 882.86,-584.93 875.3,-575.76 869.49,-566.93"/>
<polygon fill="black" stroke="black" points="872.45,-565.06 864.27,-558.33 866.47,-568.69 872.45,-565.06"/>
<text text-anchor="middle" x="917.43" y="-579.8" font-family="Times,serif" font-size="14.00">(extends)</text>
</g>
<!-- string -->
<g id="node28" class="node">
<title>string</title>
<ellipse fill="#ffffe0" stroke="black" cx="1025.93" cy="-105" rx="30.59" ry="18"/>
<text text-anchor="middle" x="1025.93" y="-101.3" font-family="Times,serif" font-size="14.00">string</text>
</g>
<!-- Armor&#45;&gt;string -->
<g id="edge43" class="edge">
<title>Armor&#45;&gt;string</title>
<path fill="none" stroke="black" d="M1050.92,-608.89C1065.78,-585.52 1092.86,-542.17 1113.93,-504 1138.43,-459.63 1135.23,-443.07 1164.93,-402 1193.94,-361.89 1243.93,-373 1243.93,-323.5 1243.93,-323.5 1243.93,-323.5 1243.93,-191 1243.93,-153 1127.5,-125.15 1064.82,-112.9"/>
<polygon fill="black" stroke="black" points="1065.36,-109.44 1054.88,-111 1064.04,-116.32 1065.36,-109.44"/>
<text text-anchor="middle" x="1246.93" y="-362.3" font-family="Times,serif" font-size="14.00">slot</text>
</g>
<!-- uint16 -->
<g id="node29" class="node">
<title>uint16</title>
<ellipse fill="#ffffe0" stroke="black" cx="1058.93" cy="-366" rx="33.29" ry="18"/>
<text text-anchor="middle" x="1058.93" y="-362.3" font-family="Times,serif" font-size="14.00">uint16</text>
</g>
<!-- Armor&#45;&gt;uint16 -->
<g id="edge42" class="edge">
<title>Armor&#45;&gt;uint16</title>
<path fill="none" stroke="black" d="M1036.31,-608.65C1031.39,-582.61 1023.74,-531.88 1028.93,-489 1032.97,-455.65 1043.01,-418.28 1050.36,-393.79"/>
<polygon fill="black" stroke="black" points="1053.74,-394.72 1053.32,-384.13 1047.05,-392.66 1053.74,-394.72"/>
<text text-anchor="middle" x="1069.43" y="-492.8" font-family="Times,serif" font-size="14.00">defense_bonus</text>
</g>
<!-- Boss -->
<g id="node2" class="node">
<title>Boss</title>
<polygon fill="#4a90d9" stroke="black" points="879.93,-732 825.93,-732 825.93,-696 879.93,-696 879.93,-732"/>
<text text-anchor="middle" x="852.93" y="-710.3" font-family="Times,serif" font-size="14.00">Boss</text>
</g>
<!-- NPC -->
<g id="node14" class="node">
<title>NPC</title>
<polygon fill="#4a90d9" stroke="black" points="305.93,-645 251.93,-645 251.93,-609 305.93,-609 305.93,-645"/>
<text text-anchor="middle" x="278.93" y="-623.3" font-family="Times,serif" font-size="14.00">NPC</text>
</g>
<!-- Boss&#45;&gt;NPC -->
<g id="edge57" class="edge">
<title>Boss&#45;&gt;NPC</title>
<path fill="none" stroke="black" stroke-dasharray="5,2" d="M825.63,-708.96C731.95,-695.08 423.39,-649.39 316.1,-633.5"/>
<polygon fill="black" stroke="black" points="316.47,-630.02 306.06,-632.02 315.44,-636.94 316.47,-630.02"/>
<text text-anchor="middle" x="625.43" y="-666.8" font-family="Times,serif" font-size="14.00">(extends)</text>
</g>
<!-- Boss&#45;&gt;string -->
<g id="edge55" class="edge">
<title>Boss&#45;&gt;string</title>
<path fill="none" stroke="black" d="M880.03,-710.17C989.33,-698.6 1391.93,-654.2 1391.93,-628 1391.93,-628 1391.93,-628 1391.93,-191 1391.93,-124.82 1162.03,-110.15 1066.65,-106.91"/>
<polygon fill="black" stroke="black" points="1066.61,-103.41 1056.51,-106.59 1066.39,-110.41 1066.61,-103.41"/>
<text text-anchor="middle" x="1402.93" y="-405.8" font-family="Times,serif" font-size="14.00">title</text>
</g>
<!-- uint32 -->
<g id="node30" class="node">
<title>uint32</title>
<ellipse fill="#ffffe0" stroke="black" cx="977.93" cy="-192" rx="33.29" ry="18"/>
<text text-anchor="middle" x="977.93" y="-188.3" font-family="Times,serif" font-size="14.00">uint32</text>
</g>
<!-- Boss&#45;&gt;uint32 -->
<g id="edge56" class="edge">
<title>Boss&#45;&gt;uint32</title>
<path fill="none" stroke="black" d="M880,-704.06C915.91,-692.59 981.44,-672.99 1038.93,-663 1063.09,-658.8 1241.65,-662.41 1258.93,-645 1393.61,-509.27 1193.72,-402.33 1064.93,-261 1050.31,-244.96 1045.92,-241.51 1028.93,-228 1022.04,-222.52 1014.34,-216.97 1007.05,-211.94"/>
<polygon fill="black" stroke="black" points="1008.99,-209.04 998.75,-206.33 1005.07,-214.83 1008.99,-209.04"/>
<text text-anchor="middle" x="1305.43" y="-449.3" font-family="Times,serif" font-size="14.00">reward_gold</text>
</g>
<!-- uint8 -->
<g id="node32" class="node">
<title>uint8</title>
<ellipse fill="#ffffe0" stroke="black" cx="493.93" cy="-279" rx="28.7" ry="18"/>
<text text-anchor="middle" x="493.93" y="-275.3" font-family="Times,serif" font-size="14.00">uint8</text>
</g>
<!-- Boss&#45;&gt;uint8 -->
<g id="edge54" class="edge">
<title>Boss&#45;&gt;uint8</title>
<path fill="none" stroke="black" d="M825.9,-712.24C705.51,-708.51 223.93,-689.71 223.93,-628 223.93,-628 223.93,-628 223.93,-452 223.93,-370.62 323.04,-423.95 393.93,-384 429.11,-364.18 459.63,-328.08 477.42,-304.07"/>
<polygon fill="black" stroke="black" points="480.36,-305.97 483.38,-295.82 474.69,-301.87 480.36,-305.97"/>
<text text-anchor="middle" x="239.43" y="-492.8" font-family="Times,serif" font-size="14.00">phase</text>
</g>
<!-- Combatant -->
<g id="node3" class="node">
<title>Combatant</title>
<polygon fill="#7b68ee" stroke="black" points="829.43,-471 752.43,-471 752.43,-435 829.43,-435 829.43,-471"/>
<text text-anchor="middle" x="790.93" y="-449.3" font-family="Times,serif" font-size="14.00">Combatant</text>
</g>
<!-- Damageable -->
<g id="node5" class="node">
<title>Damageable</title>
<polygon fill="#7b68ee" stroke="black" points="892.43,-384 807.43,-384 807.43,-348 892.43,-348 892.43,-384"/>
<text text-anchor="middle" x="849.93" y="-362.3" font-family="Times,serif" font-size="14.00">Damageable</text>
</g>
<!-- Combatant&#45;&gt;Damageable -->
<g id="edge27" class="edge">
<title>Combatant&#45;&gt;Damageable</title>
<path fill="none" stroke="black" stroke-dasharray="5,2" d="M787.31,-434.69C786.11,-424.51 786.28,-411.77 791.93,-402 794.41,-397.71 797.65,-393.88 801.32,-390.48"/>
<polygon fill="black" stroke="black" points="803.72,-393.04 809.38,-384.09 799.37,-387.56 803.72,-393.04"/>
<text text-anchor="middle" x="817.43" y="-405.8" font-family="Times,serif" font-size="14.00">(extends)</text>
</g>
<!-- GameEntity -->
<g id="node9" class="node">
<title>GameEntity</title>
<polygon fill="#7b68ee" stroke="black" points="749.43,-384 666.43,-384 666.43,-348 749.43,-348 749.43,-384"/>
<text text-anchor="middle" x="707.93" y="-362.3" font-family="Times,serif" font-size="14.00">GameEntity</text>
</g>
<!-- Combatant&#45;&gt;GameEntity -->
<g id="edge26" class="edge">
<title>Combatant&#45;&gt;GameEntity</title>
<path fill="none" stroke="black" stroke-dasharray="5,2" d="M754.43,-434.89C746.34,-429.93 738.28,-423.94 731.93,-417 725.76,-410.26 720.87,-401.65 717.15,-393.48"/>
<polygon fill="black" stroke="black" points="720.38,-392.13 713.33,-384.23 713.91,-394.81 720.38,-392.13"/>
<text text-anchor="middle" x="757.43" y="-405.8" font-family="Times,serif" font-size="14.00">(extends)</text>
</g>
<!-- Combatant&#45;&gt;uint16 -->
<g id="edge24" class="edge">
<title>Combatant&#45;&gt;uint16</title>
<path fill="none" stroke="black" d="M816.49,-434.76C837.66,-420.51 864.52,-402.52 865.93,-402 927.23,-379.25 948.34,-399.21 1011.93,-384 1015.61,-383.12 1019.39,-382.05 1023.14,-380.87"/>
<polygon fill="black" stroke="black" points="1024.54,-384.1 1032.9,-377.59 1022.3,-377.46 1024.54,-384.1"/>
<text text-anchor="middle" x="882.43" y="-405.8" font-family="Times,serif" font-size="14.00">attack</text>
</g>
<!-- Combatant&#45;&gt;uint16 -->
<g id="edge25" class="edge">
<title>Combatant&#45;&gt;uint16</title>
<path fill="none" stroke="black" d="M829.65,-439.39C868.25,-426.86 924.86,-408.59 946.93,-402 975.65,-393.42 983.37,-393.1 1011.93,-384 1015.44,-382.88 1019.09,-381.66 1022.72,-380.41"/>
<polygon fill="black" stroke="black" points="1023.94,-383.69 1032.21,-377.07 1021.61,-377.09 1023.94,-383.69"/>
<text text-anchor="middle" x="967.93" y="-405.8" font-family="Times,serif" font-size="14.00">defense</text>
</g>
<!-- Creature -->
<g id="node4" class="node">
<title>Creature</title>
<polygon fill="#4a90d9" stroke="black" points="560.43,-558 497.43,-558 497.43,-522 560.43,-522 560.43,-558"/>
<text text-anchor="middle" x="528.93" y="-536.3" font-family="Times,serif" font-size="14.00">Creature</text>
</g>
<!-- Creature&#45;&gt;Combatant -->
<g id="edge34" class="edge">
<title>Creature&#45;&gt;Combatant</title>
<path fill="none" stroke="black" stroke-dasharray="5,2" d="M560.56,-537.6C616.42,-534.59 729.71,-525.91 761.93,-504 770.34,-498.28 776.64,-489.25 781.17,-480.44"/>
<polygon fill="black" stroke="black" points="784.46,-481.66 785.43,-471.11 778.09,-478.76 784.46,-481.66"/>
<text text-anchor="middle" x="811.93" y="-492.8" font-family="Times,serif" font-size="14.00">(implements)</text>
</g>
<!-- Faction -->
<g id="node8" class="node">
<title>Faction</title>
<polygon fill="#90ee90" stroke="black" points="579.43,-471 522.43,-471 522.43,-435 579.43,-435 579.43,-471"/>
<text text-anchor="middle" x="550.93" y="-449.3" font-family="Times,serif" font-size="14.00">Faction</text>
</g>
<!-- Creature&#45;&gt;Faction -->
<g id="edge33" class="edge">
<title>Creature&#45;&gt;Faction</title>
<path fill="none" stroke="black" d="M527.1,-521.55C526.62,-511.79 526.9,-499.51 529.93,-489 530.78,-486.03 531.96,-483.06 533.31,-480.17"/>
<polygon fill="black" stroke="black" points="536.42,-481.79 538.12,-471.33 530.27,-478.45 536.42,-481.79"/>
<text text-anchor="middle" x="548.93" y="-492.8" font-family="Times,serif" font-size="14.00">faction</text>
</g>
<!-- WorldObject -->
<g id="node23" class="node">
<title>WorldObject</title>
<polygon fill="#7b68ee" stroke="black" points="684.43,-471 597.43,-471 597.43,-435 684.43,-435 684.43,-471"/>
<text text-anchor="middle" x="640.93" y="-449.3" font-family="Times,serif" font-size="14.00">WorldObject</text>
</g>
<!-- Creature&#45;&gt;WorldObject -->
<g id="edge35" class="edge">
<title>Creature&#45;&gt;WorldObject</title>
<path fill="none" stroke="black" stroke-dasharray="5,2" d="M549.32,-521.98C561.28,-512.14 576.78,-499.64 590.93,-489 596.15,-485.07 601.76,-481 607.27,-477.09"/>
<polygon fill="black" stroke="black" points="609.6,-479.73 615.77,-471.12 605.57,-474.01 609.6,-479.73"/>
<text text-anchor="middle" x="627.93" y="-492.8" font-family="Times,serif" font-size="14.00">(implements)</text>
</g>
<!-- float32 -->
<g id="node26" class="node">
<title>float32</title>
<ellipse fill="#ffffe0" stroke="black" cx="224.93" cy="-105" rx="36" ry="18"/>
<text text-anchor="middle" x="224.93" y="-101.3" font-family="Times,serif" font-size="14.00">float32</text>
</g>
<!-- Creature&#45;&gt;float32 -->
<g id="edge31" class="edge">
<title>Creature&#45;&gt;float32</title>
<path fill="none" stroke="black" d="M508.32,-521.95C494.5,-511.22 475.49,-497.8 456.93,-489 430.62,-476.53 421.56,-480.19 393.93,-471 312.24,-443.82 296.19,-423.9 212.93,-402 161.2,-388.4 138.59,-413.44 93.93,-384 44.08,-351.15 16.97,-316.11 39.93,-261 68.21,-193.11 144.68,-145.46 189.96,-122.2"/>
<polygon fill="black" stroke="black" points="191.75,-125.22 199.12,-117.61 188.61,-118.96 191.75,-125.22"/>
<text text-anchor="middle" x="55.43" y="-318.8" font-family="Times,serif" font-size="14.00">speed</text>
</g>
<!-- Creature&#45;&gt;uint8 -->
<g id="edge32" class="edge">
<title>Creature&#45;&gt;uint8</title>
<path fill="none" stroke="black" d="M524.57,-521.78C521.24,-508.09 516.75,-488.42 513.93,-471 504.53,-413.04 498.6,-344.43 495.81,-307.26"/>
<polygon fill="black" stroke="black" points="499.3,-306.93 495.08,-297.21 492.32,-307.44 499.3,-306.93"/>
<text text-anchor="middle" x="519.43" y="-405.8" font-family="Times,serif" font-size="14.00">level</text>
</g>
<!-- int16 -->
<g id="node27" class="node">
<title>int16</title>
<ellipse fill="#ffffe0" stroke="black" cx="892.93" cy="-279" rx="28.7" ry="18"/>
<text text-anchor="middle" x="892.93" y="-275.3" font-family="Times,serif" font-size="14.00">int16</text>
</g>
<!-- Damageable&#45;&gt;int16 -->
<g id="edge8" class="edge">
<title>Damageable&#45;&gt;int16</title>
<path fill="none" stroke="black" d="M880.68,-347.94C886.83,-343 892.45,-337.01 895.93,-330 899.38,-323.04 900.06,-314.84 899.48,-307.12"/>
<polygon fill="black" stroke="black" points="902.92,-306.46 898.04,-297.05 895.99,-307.45 902.92,-306.46"/>
<text text-anchor="middle" x="905.93" y="-318.8" font-family="Times,serif" font-size="14.00">hp</text>
</g>
<!-- Damageable&#45;&gt;int16 -->
<g id="edge9" class="edge">
<title>Damageable&#45;&gt;int16</title>
<path fill="none" stroke="black" d="M844.82,-347.95C842.76,-337.86 841.91,-325.13 846.93,-315 850.42,-307.95 856.09,-301.94 862.27,-296.99"/>
<polygon fill="black" stroke="black" points="864.73,-299.54 870.86,-290.9 860.68,-293.83 864.73,-299.54"/>
<text text-anchor="middle" x="869.43" y="-318.8" font-family="Times,serif" font-size="14.00">max_hp</text>
</g>
<!-- Element -->
<g id="node6" class="node">
<title>Element</title>
<polygon fill="#90ee90" stroke="black" points="1011.93,-558 949.93,-558 949.93,-522 1011.93,-522 1011.93,-558"/>
<text text-anchor="middle" x="980.93" y="-536.3" font-family="Times,serif" font-size="14.00">Element</text>
</g>
<!-- Entity -->
<g id="node7" class="node">
<title>Entity</title>
<polygon fill="#7b68ee" stroke="black" points="632.93,-297 578.93,-297 578.93,-261 632.93,-261 632.93,-297"/>
<text text-anchor="middle" x="605.93" y="-275.3" font-family="Times,serif" font-size="14.00">Entity</text>
</g>
<!-- Identifiable -->
<g id="node10" class="node">
<title>Identifiable</title>
<polygon fill="#7b68ee" stroke="black" points="721.43,-210 642.43,-210 642.43,-174 721.43,-174 721.43,-210"/>
<text text-anchor="middle" x="681.93" y="-188.3" font-family="Times,serif" font-size="14.00">Identifiable</text>
</g>
<!-- Entity&#45;&gt;Identifiable -->
<g id="edge11" class="edge">
<title>Entity&#45;&gt;Identifiable</title>
<path fill="none" stroke="black" stroke-dasharray="5,2" d="M578.88,-266.53C557.3,-257.24 530.44,-245.35 528.93,-243 525.32,-237.39 524.64,-233.1 528.93,-228 542.62,-211.74 598.26,-214.98 632.41,-209.41"/>
<polygon fill="black" stroke="black" points="633.17,-212.83 642.25,-207.37 631.75,-205.98 633.17,-212.83"/>
<text text-anchor="middle" x="554.43" y="-231.8" font-family="Times,serif" font-size="14.00">(extends)</text>
</g>
<!-- Positioned -->
<g id="node17" class="node">
<title>Positioned</title>
<polygon fill="#7b68ee" stroke="black" points="291.93,-210 217.93,-210 217.93,-174 291.93,-174 291.93,-210"/>
<text text-anchor="middle" x="254.93" y="-188.3" font-family="Times,serif" font-size="14.00">Positioned</text>
</g>
<!-- Entity&#45;&gt;Positioned -->
<g id="edge12" class="edge">
<title>Entity&#45;&gt;Positioned</title>
<path fill="none" stroke="black" stroke-dasharray="5,2" d="M578.68,-271.4C519.07,-256.97 376.48,-222.43 302.02,-204.4"/>
<polygon fill="black" stroke="black" points="302.52,-200.92 291.98,-201.97 300.87,-207.73 302.52,-200.92"/>
<text text-anchor="middle" x="476.43" y="-231.8" font-family="Times,serif" font-size="14.00">(extends)</text>
</g>
<!-- Entity&#45;&gt;uint32 -->
<g id="edge10" class="edge">
<title>Entity&#45;&gt;uint32</title>
<path fill="none" stroke="black" d="M633.09,-264.53C636.36,-263.21 639.68,-261.99 642.93,-261 690.31,-246.53 706.74,-260.92 752.93,-243 764.31,-238.59 764.57,-232.47 775.93,-228 828.3,-207.4 893.03,-198.9 934.88,-195.4"/>
<polygon fill="black" stroke="black" points="935.3,-198.88 945,-194.62 934.76,-191.9 935.3,-198.88"/>
<text text-anchor="middle" x="781.43" y="-231.8" font-family="Times,serif" font-size="14.00">id</text>
</g>
<!-- GameEntity&#45;&gt;Entity -->
<g id="edge19" class="edge">
<title>GameEntity&#45;&gt;Entity</title>
<path fill="none" stroke="black" stroke-dasharray="5,2" d="M689.58,-347.96C678.8,-338.11 664.8,-325.61 651.93,-315 647.27,-311.16 642.25,-307.18 637.31,-303.35"/>
<polygon fill="black" stroke="black" points="639.2,-300.4 629.14,-297.1 634.95,-305.96 639.2,-300.4"/>
<text text-anchor="middle" x="694.43" y="-318.8" font-family="Times,serif" font-size="14.00">(extends)</text>
</g>
<!-- Trackable -->
<g id="node21" class="node">
<title>Trackable</title>
<polygon fill="#7b68ee" stroke="black" points="722.43,-297 651.43,-297 651.43,-261 722.43,-261 722.43,-297"/>
<text text-anchor="middle" x="686.93" y="-275.3" font-family="Times,serif" font-size="14.00">Trackable</text>
</g>
<!-- GameEntity&#45;&gt;Trackable -->
<g id="edge20" class="edge">
<title>GameEntity&#45;&gt;Trackable</title>
<path fill="none" stroke="black" stroke-dasharray="5,2" d="M739.29,-347.91C751.62,-338.85 761.26,-327.11 753.93,-315 748.68,-306.33 740.49,-299.7 731.63,-294.68"/>
<polygon fill="black" stroke="black" points="733.12,-291.52 722.61,-290.17 729.99,-297.78 733.12,-291.52"/>
<text text-anchor="middle" x="781.43" y="-318.8" font-family="Times,serif" font-size="14.00">(extends)</text>
</g>
<!-- Identifiable&#45;&gt;string -->
<g id="edge2" class="edge">
<title>Identifiable&#45;&gt;string</title>
<path fill="none" stroke="black" d="M704.31,-173.82C720.11,-162.61 742.24,-148.68 763.93,-141 838.8,-114.5 932.19,-107.83 984.84,-106.3"/>
<polygon fill="black" stroke="black" points="985.21,-109.79 995.12,-106.05 985.04,-102.79 985.21,-109.79"/>
<text text-anchor="middle" x="779.43" y="-144.8" font-family="Times,serif" font-size="14.00">name</text>
</g>
<!-- Item&#45;&gt;WorldObject -->
<g id="edge30" class="edge">
<title>Item&#45;&gt;WorldObject</title>
<path fill="none" stroke="black" stroke-dasharray="5,2" d="M828.88,-538.31C794.16,-536.37 733.02,-529.27 687.93,-504 677,-497.87 667.12,-488.34 659.26,-479.23"/>
<polygon fill="black" stroke="black" points="661.94,-476.98 652.91,-471.44 656.52,-481.4 661.94,-476.98"/>
<text text-anchor="middle" x="724.93" y="-492.8" font-family="Times,serif" font-size="14.00">(implements)</text>
</g>
<!-- Item&#45;&gt;float32 -->
<g id="edge28" class="edge">
<title>Item&#45;&gt;float32</title>
<path fill="none" stroke="black" d="M859.85,-521.65C861.19,-510.95 860.73,-497.66 852.93,-489 820.06,-452.53 789.27,-489.84 743.93,-471 718.64,-460.49 718.49,-447.1 693.93,-435 668.96,-422.7 654.16,-436.13 633.93,-417 610.23,-394.59 625.59,-376.04 608.93,-348 595.74,-325.8 551.75,-277.54 531.93,-261 452.94,-195.06 427.56,-183.69 333.93,-141 312.17,-131.08 286.79,-122.75 266,-116.71"/>
<polygon fill="black" stroke="black" points="266.77,-113.3 256.19,-113.94 264.86,-120.03 266.77,-113.3"/>
<text text-anchor="middle" x="614.43" y="-318.8" font-family="Times,serif" font-size="14.00">weight</text>
</g>
<!-- Item&#45;&gt;uint32 -->
<g id="edge29" class="edge">
<title>Item&#45;&gt;uint32</title>
<path fill="none" stroke="black" d="M878.06,-521.98C903.92,-500.64 945.49,-461.41 963.93,-417 991.47,-350.65 986.6,-263.68 981.72,-220.21"/>
<polygon fill="black" stroke="black" points="985.18,-219.64 980.5,-210.13 978.23,-220.48 985.18,-219.64"/>
<text text-anchor="middle" x="995.93" y="-362.3" font-family="Times,serif" font-size="14.00">value</text>
</g>
<!-- MagicWeapon -->
<g id="node12" class="node">
<title>MagicWeapon</title>
<polygon fill="#4a90d9" stroke="black" points="1172.43,-732 1075.43,-732 1075.43,-696 1172.43,-696 1172.43,-732"/>
<text text-anchor="middle" x="1123.93" y="-710.3" font-family="Times,serif" font-size="14.00">MagicWeapon</text>
</g>
<!-- Weapon -->
<g id="node22" class="node">
<title>Weapon</title>
<polygon fill="#4a90d9" stroke="black" points="952.93,-645 890.93,-645 890.93,-609 952.93,-609 952.93,-645"/>
<text text-anchor="middle" x="921.93" y="-623.3" font-family="Times,serif" font-size="14.00">Weapon</text>
</g>
<!-- MagicWeapon&#45;&gt;Weapon -->
<g id="edge53" class="edge">
<title>MagicWeapon&#45;&gt;Weapon</title>
<path fill="none" stroke="black" stroke-dasharray="5,2" d="M1083.05,-695.8C1047.96,-681.03 997.65,-659.86 962.61,-645.12"/>
<polygon fill="black" stroke="black" points="963.74,-641.8 953.16,-641.14 961.02,-648.25 963.74,-641.8"/>
<text text-anchor="middle" x="1060.43" y="-666.8" font-family="Times,serif" font-size="14.00">(extends)</text>
</g>
<!-- MagicWeapon&#45;&gt;string -->
<g id="edge52" class="edge">
<title>MagicWeapon&#45;&gt;string</title>
<path fill="none" stroke="black" d="M1172.68,-711.95C1242.93,-709.61 1368.33,-702.08 1405.93,-678 1427.95,-663.9 1436.93,-654.15 1436.93,-628 1436.93,-628 1436.93,-628 1436.93,-191 1436.93,-164.85 1428.17,-154.75 1405.93,-141 1350.08,-106.46 1152.87,-104.43 1066.72,-105.27"/>
<polygon fill="black" stroke="black" points="1066.49,-101.77 1056.53,-105.38 1066.57,-108.77 1066.49,-101.77"/>
<text text-anchor="middle" x="1468.43" y="-405.8" font-family="Times,serif" font-size="14.00">spell_name</text>
</g>
<!-- MagicWeapon&#45;&gt;uint16 -->
<g id="edge51" class="edge">
<title>MagicWeapon&#45;&gt;uint16</title>
<path fill="none" stroke="black" d="M1124.78,-695.86C1126.23,-657.98 1127.55,-564.51 1109.93,-489 1101.82,-454.22 1084.73,-416.66 1072.57,-392.54"/>
<polygon fill="black" stroke="black" points="1075.55,-390.67 1067.87,-383.38 1069.32,-393.87 1075.55,-390.67"/>
<text text-anchor="middle" x="1149.43" y="-536.3" font-family="Times,serif" font-size="14.00">mana_cost</text>
</g>
<!-- Merchant -->
<g id="node13" class="node">
<title>Merchant</title>
<polygon fill="#4a90d9" stroke="black" points="192.43,-732 123.43,-732 123.43,-696 192.43,-696 192.43,-732"/>
<text text-anchor="middle" x="157.93" y="-710.3" font-family="Times,serif" font-size="14.00">Merchant</text>
</g>
<!-- Merchant&#45;&gt;NPC -->
<g id="edge60" class="edge">
<title>Merchant&#45;&gt;NPC</title>
<path fill="none" stroke="black" stroke-dasharray="5,2" d="M182.42,-695.8C200.79,-682.9 226.12,-665.1 246.22,-650.98"/>
<polygon fill="black" stroke="black" points="248.31,-653.79 254.48,-645.18 244.29,-648.06 248.31,-653.79"/>
<text text-anchor="middle" x="250.43" y="-666.8" font-family="Times,serif" font-size="14.00">(extends)</text>
</g>
<!-- Merchant&#45;&gt;string -->
<g id="edge59" class="edge">
<title>Merchant&#45;&gt;string</title>
<path fill="none" stroke="black" d="M123.43,-702.51C91.17,-690.31 47.93,-666.74 47.93,-628 47.93,-628 47.93,-628 47.93,-495.5 47.93,-467.9 42.46,-454.57 61.93,-435 86.41,-410.39 106.03,-430.68 137.93,-417 203.02,-389.09 350.09,-287.81 404.93,-243 438.27,-215.76 437.25,-198.1 472.93,-174 504.46,-152.7 514.92,-149.85 551.93,-141 633.72,-121.44 885.74,-110.84 985.08,-107.33"/>
<polygon fill="black" stroke="black" points="985.44,-110.82 995.31,-106.98 985.2,-103.83 985.44,-110.82"/>
<text text-anchor="middle" x="191.43" y="-405.8" font-family="Times,serif" font-size="14.00">specialty</text>
</g>
<!-- Merchant&#45;&gt;uint32 -->
<g id="edge58" class="edge">
<title>Merchant&#45;&gt;uint32</title>
<path fill="none" stroke="black" d="M192.55,-706.18C246.35,-693.62 349.01,-661.38 398.93,-591 425.52,-553.51 409.64,-534.53 415.93,-489 430.02,-387.09 379.38,-329.73 455.93,-261 478.47,-240.77 698.81,-251.34 727.93,-243 741.5,-239.11 742.55,-232.5 755.93,-228 816.15,-207.77 889.57,-199.12 935.04,-195.49"/>
<polygon fill="black" stroke="black" points="935.43,-198.98 945.14,-194.74 934.9,-192 935.43,-198.98"/>
<text text-anchor="middle" x="430.43" y="-449.3" font-family="Times,serif" font-size="14.00">gold</text>
</g>
<!-- NPC&#45;&gt;Creature -->
<g id="edge47" class="edge">
<title>NPC&#45;&gt;Creature</title>
<path fill="none" stroke="black" stroke-dasharray="5,2" d="M306.16,-616.74C349.91,-601.87 436.15,-572.55 487.55,-555.07"/>
<polygon fill="black" stroke="black" points="488.69,-558.38 497.03,-551.85 486.43,-551.75 488.69,-558.38"/>
<text text-anchor="middle" x="443.43" y="-579.8" font-family="Times,serif" font-size="14.00">(extends)</text>
</g>
<!-- boolean -->
<g id="node24" class="node">
<title>boolean</title>
<ellipse fill="#ffffe0" stroke="black" cx="86.93" cy="-279" rx="38.19" ry="18"/>
<text text-anchor="middle" x="86.93" y="-275.3" font-family="Times,serif" font-size="14.00">boolean</text>
</g>
<!-- NPC&#45;&gt;boolean -->
<g id="edge46" class="edge">
<title>NPC&#45;&gt;boolean</title>
<path fill="none" stroke="black" d="M253.56,-608.99C215.58,-582.65 143.17,-528.96 93.93,-471 43.35,-411.46 -28.86,-381 12.93,-315 19.89,-304.01 31.33,-296.4 43.16,-291.17"/>
<polygon fill="black" stroke="black" points="44.62,-294.36 52.66,-287.46 42.07,-287.84 44.62,-294.36"/>
<text text-anchor="middle" x="125.93" y="-449.3" font-family="Times,serif" font-size="14.00">quest_giver</text>
</g>
<!-- NPC&#45;&gt;string -->
<g id="edge45" class="edge">
<title>NPC&#45;&gt;string</title>
<path fill="none" stroke="black" d="M277.15,-608.83C271.35,-551.34 254.34,-368.03 270.93,-348 298.34,-314.91 328.94,-351.87 365.93,-330 400.17,-309.76 393.76,-288.04 422.93,-261 490.76,-198.13 505.98,-172.51 592.93,-141 664.36,-115.11 891.57,-108.29 985.1,-106.56"/>
<polygon fill="black" stroke="black" points="985.37,-110.06 995.31,-106.39 985.25,-103.06 985.37,-110.06"/>
<text text-anchor="middle" x="293.43" y="-362.3" font-family="Times,serif" font-size="14.00">greeting</text>
</g>
<!-- Physical -->
<g id="node15" class="node">
<title>Physical</title>
<polygon fill="#7b68ee" stroke="black" points="164.93,-384 102.93,-384 102.93,-348 164.93,-348 164.93,-384"/>
<text text-anchor="middle" x="133.93" y="-362.3" font-family="Times,serif" font-size="14.00">Physical</text>
</g>
<!-- Physical&#45;&gt;Positioned -->
<g id="edge18" class="edge">
<title>Physical&#45;&gt;Positioned</title>
<path fill="none" stroke="black" stroke-dasharray="5,2" d="M165.09,-352.63C181.71,-345.51 199.95,-336.67 205.93,-330 233.86,-298.84 246.16,-250.64 251.37,-220.5"/>
<polygon fill="black" stroke="black" points="254.88,-220.7 252.98,-210.28 247.96,-219.61 254.88,-220.7"/>
<text text-anchor="middle" x="266.43" y="-275.3" font-family="Times,serif" font-size="14.00">(extends)</text>
</g>
<!-- Physical&#45;&gt;boolean -->
<g id="edge17" class="edge">
<title>Physical&#45;&gt;boolean</title>
<path fill="none" stroke="black" d="M122.62,-347.76C119.08,-342.16 115.24,-335.88 111.93,-330 107.6,-322.3 103.19,-313.76 99.3,-305.94"/>
<polygon fill="black" stroke="black" points="102.4,-304.32 94.86,-296.88 96.12,-307.4 102.4,-304.32"/>
<text text-anchor="middle" x="125.43" y="-318.8" font-family="Times,serif" font-size="14.00">solid</text>
</g>
<!-- Physical&#45;&gt;float32 -->
<g id="edge15" class="edge">
<title>Physical&#45;&gt;float32</title>
<path fill="none" stroke="black" d="M136.86,-347.96C137.7,-342.27 138.51,-335.88 138.93,-330 142.14,-284.78 129.88,-272.42 138.93,-228 147.32,-186.83 149.63,-173.77 175.93,-141 180.79,-134.95 186.95,-129.46 193.25,-124.72"/>
<polygon fill="black" stroke="black" points="195.62,-127.33 201.82,-118.74 191.62,-121.59 195.62,-127.33"/>
<text text-anchor="middle" x="154.43" y="-231.8" font-family="Times,serif" font-size="14.00">width</text>
</g>
<!-- Physical&#45;&gt;float32 -->
<g id="edge16" class="edge">
<title>Physical&#45;&gt;float32</title>
<path fill="none" stroke="black" d="M144.65,-347.93C147.89,-342.34 151.29,-336.03 153.93,-330 184.05,-261.28 207.54,-175.69 218.38,-132.93"/>
<polygon fill="black" stroke="black" points="221.82,-133.57 220.86,-123.02 215.03,-131.88 221.82,-133.57"/>
<text text-anchor="middle" x="206.93" y="-231.8" font-family="Times,serif" font-size="14.00">height</text>
</g>
<!-- Player -->
<g id="node16" class="node">
<title>Player</title>
<polygon fill="#4a90d9" stroke="black" points="1249.93,-645 1195.93,-645 1195.93,-609 1249.93,-609 1249.93,-645"/>
<text text-anchor="middle" x="1222.93" y="-623.3" font-family="Times,serif" font-size="14.00">Player</text>
</g>
<!-- Player&#45;&gt;Creature -->
<g id="edge50" class="edge">
<title>Player&#45;&gt;Creature</title>
<path fill="none" stroke="black" stroke-dasharray="5,2" d="M1195.74,-618.44C1154.44,-607.26 1073.24,-586.52 1002.93,-576 920.07,-563.6 670.43,-548.85 570.72,-543.28"/>
<polygon fill="black" stroke="black" points="570.89,-539.78 560.71,-542.72 570.51,-546.77 570.89,-539.78"/>
<text text-anchor="middle" x="1107.43" y="-579.8" font-family="Times,serif" font-size="14.00">(extends)</text>
</g>
<!-- Player&#45;&gt;string -->
<g id="edge49" class="edge">
<title>Player&#45;&gt;string</title>
<path fill="none" stroke="black" d="M1237.56,-608.88C1259.66,-581.77 1300.6,-526.34 1315.93,-471 1320.2,-455.58 1317.07,-450.96 1315.93,-435 1312.37,-385.06 1299.93,-373.56 1299.93,-323.5 1299.93,-323.5 1299.93,-323.5 1299.93,-191 1299.93,-142.6 1142,-118.7 1065.94,-109.99"/>
<polygon fill="black" stroke="black" points="1066.1,-106.49 1055.77,-108.86 1065.33,-113.45 1066.1,-106.49"/>
<text text-anchor="middle" x="1338.93" y="-362.3" font-family="Times,serif" font-size="14.00">class_name</text>
</g>
<!-- Player&#45;&gt;uint32 -->
<g id="edge48" class="edge">
<title>Player&#45;&gt;uint32</title>
<path fill="none" stroke="black" d="M1216.8,-608.91C1209.25,-588.18 1195.85,-552.24 1182.93,-522 1149.34,-443.38 1146.02,-420.63 1100.93,-348 1069.79,-297.85 1025.03,-245.18 998.97,-215.98"/>
<polygon fill="black" stroke="black" points="1001.43,-213.48 992.14,-208.38 996.23,-218.16 1001.43,-213.48"/>
<text text-anchor="middle" x="1153.43" y="-405.8" font-family="Times,serif" font-size="14.00">score</text>
</g>
<!-- Positioned&#45;&gt;float32 -->
<g id="edge3" class="edge">
<title>Positioned&#45;&gt;float32</title>
<path fill="none" stroke="black" d="M238.37,-173.73C234.23,-168.44 230.3,-162.32 227.93,-156 225.28,-148.92 224.08,-140.87 223.66,-133.34"/>
<polygon fill="black" stroke="black" points="227.15,-133.13 223.5,-123.18 220.15,-133.23 227.15,-133.13"/>
<text text-anchor="middle" x="231.43" y="-144.8" font-family="Times,serif" font-size="14.00">x</text>
</g>
<!-- Positioned&#45;&gt;float32 -->
<g id="edge4" class="edge">
<title>Positioned&#45;&gt;float32</title>
<path fill="none" stroke="black" d="M248.86,-173.8C244.68,-161.97 239.06,-146.03 234.31,-132.58"/>
<polygon fill="black" stroke="black" points="237.52,-131.15 230.89,-122.89 230.92,-133.48 237.52,-131.15"/>
<text text-anchor="middle" x="244.43" y="-144.8" font-family="Times,serif" font-size="14.00">y</text>
</g>
<!-- Prop -->
<g id="node18" class="node">
<title>Prop</title>
<polygon fill="#4a90d9" stroke="black" points="399.93,-558 345.93,-558 345.93,-522 399.93,-522 399.93,-558"/>
<text text-anchor="middle" x="372.93" y="-536.3" font-family="Times,serif" font-size="14.00">Prop</text>
</g>
<!-- Prop&#45;&gt;WorldObject -->
<g id="edge37" class="edge">
<title>Prop&#45;&gt;WorldObject</title>
<path fill="none" stroke="black" stroke-dasharray="5,2" d="M393.14,-521.99C407.71,-510.71 428.34,-496.63 448.93,-489 504.88,-468.27 525.69,-483.18 587.54,-470.99"/>
<polygon fill="black" stroke="black" points="588.35,-474.39 597.4,-468.89 586.89,-467.55 588.35,-474.39"/>
<text text-anchor="middle" x="485.93" y="-492.8" font-family="Times,serif" font-size="14.00">(implements)</text>
</g>
<!-- Prop&#45;&gt;boolean -->
<g id="edge36" class="edge">
<title>Prop&#45;&gt;boolean</title>
<path fill="none" stroke="black" d="M345.92,-522.86C306.7,-500.09 231.09,-458.68 161.93,-435 124.16,-422.07 99.17,-447.93 73.93,-417 48.55,-385.9 62.08,-336.62 74.38,-306.41"/>
<polygon fill="black" stroke="black" points="77.72,-307.52 78.45,-296.95 71.28,-304.75 77.72,-307.52"/>
<text text-anchor="middle" x="105.93" y="-405.8" font-family="Times,serif" font-size="14.00">destructible</text>
</g>
<!-- Renderable -->
<g id="node19" class="node">
<title>Renderable</title>
<polygon fill="#7b68ee" stroke="black" points="599.93,-384 521.93,-384 521.93,-348 599.93,-348 599.93,-384"/>
<text text-anchor="middle" x="560.93" y="-362.3" font-family="Times,serif" font-size="14.00">Renderable</text>
</g>
<!-- Renderable&#45;&gt;string -->
<g id="edge6" class="edge">
<title>Renderable&#45;&gt;string</title>
<path fill="none" stroke="black" d="M600.19,-350.72C616.34,-344.63 635.16,-337.27 651.93,-330 665.97,-323.91 668.84,-320.98 682.93,-315 704.29,-305.94 711.18,-307.38 731.93,-297 836.64,-244.59 949.99,-163.09 999.88,-125.82"/>
<polygon fill="black" stroke="black" points="1001.99,-128.61 1007.88,-119.81 997.78,-123.01 1001.99,-128.61"/>
<text text-anchor="middle" x="865.43" y="-231.8" font-family="Times,serif" font-size="14.00">sprite</text>
</g>
<!-- Renderable&#45;&gt;uint8 -->
<g id="edge7" class="edge">
<title>Renderable&#45;&gt;uint8</title>
<path fill="none" stroke="black" d="M547.37,-347.8C537.37,-335.1 523.63,-317.68 512.59,-303.67"/>
<polygon fill="black" stroke="black" points="515.06,-301.15 506.12,-295.46 509.56,-305.48 515.06,-301.15"/>
<text text-anchor="middle" x="544.93" y="-318.8" font-family="Times,serif" font-size="14.00">layer</text>
</g>
<!-- Timed -->
<g id="node20" class="node">
<title>Timed</title>
<polygon fill="#7b68ee" stroke="black" points="623.93,-210 569.93,-210 569.93,-174 623.93,-174 623.93,-210"/>
<text text-anchor="middle" x="596.93" y="-188.3" font-family="Times,serif" font-size="14.00">Timed</text>
</g>
<!-- uint64 -->
<g id="node31" class="node">
<title>uint64</title>
<ellipse fill="#ffffe0" stroke="black" cx="596.93" cy="-105" rx="33.29" ry="18"/>
<text text-anchor="middle" x="596.93" y="-101.3" font-family="Times,serif" font-size="14.00">uint64</text>
</g>
<!-- Timed&#45;&gt;uint64 -->
<g id="edge5" class="edge">
<title>Timed&#45;&gt;uint64</title>
<path fill="none" stroke="black" d="M596.93,-173.8C596.93,-162.16 596.93,-146.55 596.93,-133.24"/>
<polygon fill="black" stroke="black" points="600.43,-133.18 596.93,-123.18 593.43,-133.18 600.43,-133.18"/>
<text text-anchor="middle" x="624.93" y="-144.8" font-family="Times,serif" font-size="14.00">created_at</text>
</g>
<!-- Trackable&#45;&gt;Identifiable -->
<g id="edge13" class="edge">
<title>Trackable&#45;&gt;Identifiable</title>
<path fill="none" stroke="black" stroke-dasharray="5,2" d="M685.92,-260.8C685.23,-249.16 684.32,-233.55 683.53,-220.24"/>
<polygon fill="black" stroke="black" points="687.02,-219.95 682.94,-210.18 680.03,-220.36 687.02,-219.95"/>
<text text-anchor="middle" x="709.43" y="-231.8" font-family="Times,serif" font-size="14.00">(extends)</text>
</g>
<!-- Trackable&#45;&gt;Timed -->
<g id="edge14" class="edge">
<title>Trackable&#45;&gt;Timed</title>
<path fill="none" stroke="black" stroke-dasharray="5,2" d="M652.85,-260.98C644.48,-255.88 635.92,-249.81 628.93,-243 621.77,-236.03 615.45,-227.17 610.35,-218.85"/>
<polygon fill="black" stroke="black" points="613.36,-217.05 605.32,-210.15 607.3,-220.56 613.36,-217.05"/>
<text text-anchor="middle" x="654.43" y="-231.8" font-family="Times,serif" font-size="14.00">(extends)</text>
</g>
<!-- Weapon&#45;&gt;Element -->
<g id="edge40" class="edge">
<title>Weapon&#45;&gt;Element</title>
<path fill="none" stroke="black" d="M933.87,-608.8C942.27,-596.7 953.65,-580.3 963.11,-566.67"/>
<polygon fill="black" stroke="black" points="966.18,-568.39 969.01,-558.18 960.43,-564.39 966.18,-568.39"/>
<text text-anchor="middle" x="976.93" y="-579.8" font-family="Times,serif" font-size="14.00">element</text>
</g>
<!-- Weapon&#45;&gt;Item -->
<g id="edge41" class="edge">
<title>Weapon&#45;&gt;Item</title>
<path fill="none" stroke="black" stroke-dasharray="5,2" d="M890.78,-622.58C853.97,-617.82 796.05,-607.83 782.93,-591 769.17,-573.35 794.71,-559.6 819.27,-551.02"/>
<polygon fill="black" stroke="black" points="820.48,-554.31 828.91,-547.88 818.32,-547.65 820.48,-554.31"/>
<text text-anchor="middle" x="808.43" y="-579.8" font-family="Times,serif" font-size="14.00">(extends)</text>
</g>
<!-- Weapon&#45;&gt;float32 -->
<g id="edge39" class="edge">
<title>Weapon&#45;&gt;float32</title>
<path fill="none" stroke="black" d="M890.62,-622.93C770.63,-611.08 346.27,-568.49 336.93,-558 290.36,-505.71 390.85,-464.32 358.93,-402 352.69,-389.81 341.51,-395.4 333.93,-384 318.64,-361.02 319.93,-351.1 319.93,-323.5 319.93,-323.5 319.93,-323.5 319.93,-191 319.93,-158.33 288.35,-135.08 261.61,-121.24"/>
<polygon fill="black" stroke="black" points="262.93,-117.99 252.41,-116.74 259.85,-124.28 262.93,-117.99"/>
<text text-anchor="middle" x="368.93" y="-362.3" font-family="Times,serif" font-size="14.00">attack_range</text>
</g>
<!-- Weapon&#45;&gt;uint16 -->
<g id="edge38" class="edge">
<title>Weapon&#45;&gt;uint16</title>
<path fill="none" stroke="black" d="M922.63,-608.71C924.04,-587.47 928.26,-550.71 940.93,-522 964.27,-469.11 1009.05,-417.75 1036.23,-389.45"/>
<polygon fill="black" stroke="black" points="1038.93,-391.7 1043.4,-382.1 1033.91,-386.82 1038.93,-391.7"/>
<text text-anchor="middle" x="978.43" y="-492.8" font-family="Times,serif" font-size="14.00">damage</text>
</g>
<!-- WorldObject&#45;&gt;GameEntity -->
<g id="edge21" class="edge">
<title>WorldObject&#45;&gt;GameEntity</title>
<path fill="none" stroke="black" stroke-dasharray="5,2" d="M638.03,-434.99C637.18,-424.68 637.78,-411.69 643.93,-402 647.45,-396.46 652.16,-391.72 657.45,-387.7"/>
<polygon fill="black" stroke="black" points="659.73,-390.38 666.14,-381.94 655.87,-384.55 659.73,-390.38"/>
<text text-anchor="middle" x="669.43" y="-405.8" font-family="Times,serif" font-size="14.00">(extends)</text>
</g>
<!-- WorldObject&#45;&gt;Physical -->
<g id="edge23" class="edge">
<title>WorldObject&#45;&gt;Physical</title>
<path fill="none" stroke="black" stroke-dasharray="5,2" d="M597.42,-437.04C594.56,-436.29 591.72,-435.6 588.93,-435 515.51,-419.25 495.36,-427 420.93,-417 329.9,-404.77 307.27,-400.55 216.93,-384 203.21,-381.49 188.27,-378.5 174.89,-375.74"/>
<polygon fill="black" stroke="black" points="175.51,-372.3 165.01,-373.68 174.08,-379.15 175.51,-372.3"/>
<text text-anchor="middle" x="446.43" y="-405.8" font-family="Times,serif" font-size="14.00">(extends)</text>
</g>
<!-- WorldObject&#45;&gt;Renderable -->
<g id="edge22" class="edge">
<title>WorldObject&#45;&gt;Renderable</title>
<path fill="none" stroke="black" stroke-dasharray="5,2" d="M597.19,-437.29C572.66,-428.84 546.63,-419.43 544.93,-417 540.05,-410.02 540.86,-401.48 543.86,-393.44"/>
<polygon fill="black" stroke="black" points="547.05,-394.89 548.18,-384.36 540.72,-391.89 547.05,-394.89"/>
<text text-anchor="middle" x="570.43" y="-405.8" font-family="Times,serif" font-size="14.00">(extends)</text>
</g>
<!-- character -->
<g id="node25" class="node">
<title>character</title>
<ellipse fill="#ffffe0" stroke="black" cx="1025.93" cy="-18" rx="42.79" ry="18"/>
<text text-anchor="middle" x="1025.93" y="-14.3" font-family="Times,serif" font-size="14.00">character</text>
</g>
<!-- string&#45;&gt;character -->
<g id="edge1" class="edge">
<title>string&#45;&gt;character</title>
<path fill="none" stroke="black" d="M1025.93,-86.8C1025.93,-75.16 1025.93,-59.55 1025.93,-46.24"/>
<polygon fill="black" stroke="black" points="1029.43,-46.18 1025.93,-36.18 1022.43,-46.18 1029.43,-46.18"/>
<text text-anchor="middle" x="1030.93" y="-57.8" font-family="Times,serif" font-size="14.00">[]</text>
</g>
</g>
</svg>
