<?xml version="1.0" encoding="UTF-8" standalone="no"?>
<!DOCTYPE svg PUBLIC "-//W3C//DTD SVG 1.1//EN"
 "http://www.w3.org/Graphics/SVG/1.1/DTD/svg11.dtd">
<!-- Generated by graphviz version 2.43.0 (0)
 -->
<!-- Title: types Pages: 1 -->
<svg width="1797pt" height="768pt"
 viewBox="0.00 0.00 1797.00 768.00" xmlns="http://www.w3.org/2000/svg" xmlns:xlink="http://www.w3.org/1999/xlink">
<g id="graph0" class="graph" transform="scale(1 1) rotate(0) translate(4 764)">
<title>types</title>
<polygon fill="white" stroke="transparent" points="-4,4 -4,-764 1793,-764 1793,4 -4,4"/>
<text text-anchor="middle" x="894.5" y="-741.6" font-family="Times,serif" font-size="18.00">Entity System</text>
<!-- Armor -->
<g id="node1" class="node">
<title>Armor</title>
<polygon fill="#4a90d9" stroke="black" points="343,-645 289,-645 289,-609 343,-609 343,-645"/>
<text text-anchor="middle" x="316" y="-623.3" font-family="Times,serif" font-size="14.00">Armor</text>
</g>
<!-- Item -->
<g id="node11" class="node">
<title>Item</title>
<polygon fill="#4a90d9" stroke="black" points="385,-558 331,-558 331,-522 385,-522 385,-558"/>
<text text-anchor="middle" x="358" y="-536.3" font-family="Times,serif" font-size="14.00">Item</text>
</g>
<!-- Armor&#45;&gt;Item -->
<g id="edge45" class="edge">
<title>Armor&#45;&gt;Item</title>
<path fill="none" stroke="black" stroke-dasharray="5,2" d="M324.5,-608.8C330.36,-596.93 338.27,-580.93 344.93,-567.45"/>
<polygon fill="black" stroke="black" points="348.22,-568.69 349.51,-558.18 341.95,-565.59 348.22,-568.69"/>
<text text-anchor="middle" x="365.5" y="-579.8" font-family="Times,serif" font-size="14.00">(extends)</text>
</g>
<!-- WorldObject -->
<g id="node23" class="node">
<title>WorldObject</title>
<polygon fill="#7b68ee" stroke="black" points="1069.5,-471 982.5,-471 982.5,-435 1069.5,-435 1069.5,-471"/>
<text text-anchor="middle" x="1026" y="-449.3" font-family="Times,serif" font-size="14.00">WorldObject</text>
</g>
<!-- Armor&#45;&gt;WorldObject -->
<g id="edge46" class="edge">
<title>Armor&#45;&gt;WorldObject</title>
<path fill="none" stroke="black" stroke-dasharray="5,2" d="M343.29,-615.43C378.31,-602.07 437.24,-580.28 460,-576 512.78,-566.08 895.05,-582.19 943,-558 975.92,-541.39 1000.05,-505.07 1013.56,-480.07"/>
<polygon fill="black" stroke="black" points="1016.71,-481.59 1018.21,-471.1 1010.5,-478.37 1016.71,-481.59"/>
<text text-anchor="middle" x="1022" y="-536.3" font-family="Times,serif" font-size="14.00">(implements)</text>
</g>
<!-- string -->
<g id="node28" class="node">
<title>string</title>
<ellipse fill="#ffffe0" stroke="black" cx="1212" cy="-105" rx="30.59" ry="18"/>
<text text-anchor="middle" x="1212" y="-101.3" font-family="Times,serif" font-size="14.00">string</text>
</g>
<!-- Armor&#45;&gt;string -->
<g id="edge44" class="edge">
<title>Armor&#45;&gt;string</title>
<path fill="none" stroke="black" d="M288.75,-609.5C271.83,-597.56 251.54,-579.73 242,-558 229.65,-529.87 241.47,-519.38 246,-489 255.39,-426.05 235.05,-400.52 271,-348 295.67,-311.96 328.14,-331.44 355,-297 390.19,-251.88 354.73,-216.53 393,-174 399.23,-167.08 460.93,-143.09 470,-141 604.91,-109.98 1035.38,-106.37 1170.8,-106.02"/>
<polygon fill="black" stroke="black" points="1171.15,-109.52 1181.15,-105.99 1171.14,-102.52 1171.15,-109.52"/>
<text text-anchor="middle" x="281" y="-362.3" font-family="Times,serif" font-size="14.00">slot</text>
</g>
<!-- uint16 -->
<g id="node29" class="node">
<title>uint16</title>
<ellipse fill="#ffffe0" stroke="black" cx="333" cy="-366" rx="33.29" ry="18"/>
<text text-anchor="middle" x="333" y="-362.3" font-family="Times,serif" font-size="14.00">uint16</text>
</g>
<!-- Armor&#45;&gt;uint16 -->
<g id="edge43" class="edge">
<title>Armor&#45;&gt;uint16</title>
<path fill="none" stroke="black" d="M314.14,-608.77C310.89,-575.16 305.29,-498.57 314,-435 315.91,-421.05 319.93,-405.93 323.78,-393.5"/>
<polygon fill="black" stroke="black" points="327.18,-394.37 326.93,-383.78 320.52,-392.21 327.18,-394.37"/>
<text text-anchor="middle" x="350.5" y="-492.8" font-family="Times,serif" font-size="14.00">defense_bonus</text>
</g>
<!-- Boss -->
<g id="node2" class="node">
<title>Boss</title>
<polygon fill="#4a90d9" stroke="black" points="1662,-732 1608,-732 1608,-696 1662,-696 1662,-732"/>
<text text-anchor="middle" x="1635" y="-710.3" font-family="Times,serif" font-size="14.00">Boss</text>
</g>
<!-- Combatant -->
<g id="node3" class="node">
<title>Combatant</title>
<polygon fill="#7b68ee" stroke="black" points="712.5,-471 635.5,-471 635.5,-435 712.5,-435 712.5,-471"/>
<text text-anchor="middle" x="674" y="-449.3" font-family="Times,serif" font-size="14.00">Combatant</text>
</g>
<!-- Boss&#45;&gt;Combatant -->
<g id="edge65" class="edge">
<title>Boss&#45;&gt;Combatant</title>
<path fill="none" stroke="black" stroke-dasharray="5,2" d="M1607.99,-709.5C1559.65,-703.23 1455.15,-689.66 1367,-678 1078.05,-639.79 1003.58,-644.16 717,-591 688.7,-585.75 682.21,-581.7 654,-576 630.15,-571.18 562.57,-575.82 546,-558 525.06,-535.48 522.23,-513.35 541,-489 551.4,-475.5 591.55,-466.18 625.04,-460.57"/>
<polygon fill="black" stroke="black" points="625.86,-463.98 635.18,-458.94 624.75,-457.07 625.86,-463.98"/>
<text text-anchor="middle" x="754" y="-579.8" font-family="Times,serif" font-size="14.00">(implements)</text>
</g>
<!-- NPC -->
<g id="node14" class="node">
<title>NPC</title>
<polygon fill="#4a90d9" stroke="black" points="1192,-645 1138,-645 1138,-609 1192,-609 1192,-645"/>
<text text-anchor="middle" x="1165" y="-623.3" font-family="Times,serif" font-size="14.00">NPC</text>
</g>
<!-- Boss&#45;&gt;NPC -->
<g id="edge64" class="edge">
<title>Boss&#45;&gt;NPC</title>
<path fill="none" stroke="black" stroke-dasharray="5,2" d="M1607.7,-708.06C1527.62,-693.58 1293.25,-651.19 1201.98,-634.69"/>
<polygon fill="black" stroke="black" points="1202.55,-631.23 1192.08,-632.9 1201.3,-638.12 1202.55,-631.23"/>
<text text-anchor="middle" x="1453.5" y="-666.8" font-family="Times,serif" font-size="14.00">(extends)</text>
</g>
<!-- Boss&#45;&gt;WorldObject -->
<g id="edge66" class="edge">
<title>Boss&#45;&gt;WorldObject</title>
<path fill="none" stroke="black" stroke-dasharray="5,2" d="M1623.55,-695.89C1592.06,-650.67 1498.9,-528.75 1385,-489 1356.93,-479.21 1173,-464.69 1079.86,-457.84"/>
<polygon fill="black" stroke="black" points="1080,-454.34 1069.78,-457.1 1079.49,-461.32 1080,-454.34"/>
<text text-anchor="middle" x="1570" y="-579.8" font-family="Times,serif" font-size="14.00">(implements)</text>
</g>
<!-- Boss&#45;&gt;string -->
<g id="edge62" class="edge">
<title>Boss&#45;&gt;string</title>
<path fill="none" stroke="black" d="M1662.03,-708.16C1700.65,-699.52 1767,-677.47 1767,-628 1767,-628 1767,-628 1767,-191 1767,-172.6 1725.9,-154.97 1673,-141 1594.1,-120.17 1349.69,-110.35 1252.48,-107.19"/>
<polygon fill="black" stroke="black" points="1252.56,-103.69 1242.45,-106.87 1252.34,-110.69 1252.56,-103.69"/>
<text text-anchor="middle" x="1778" y="-405.8" font-family="Times,serif" font-size="14.00">title</text>
</g>
<!-- uint32 -->
<g id="node30" class="node">
<title>uint32</title>
<ellipse fill="#ffffe0" stroke="black" cx="1244" cy="-192" rx="33.29" ry="18"/>
<text text-anchor="middle" x="1244" y="-188.3" font-family="Times,serif" font-size="14.00">uint32</text>
</g>
<!-- Boss&#45;&gt;uint32 -->
<g id="edge63" class="edge">
<title>Boss&#45;&gt;uint32</title>
<path fill="none" stroke="black" d="M1636.95,-695.9C1639.3,-669.31 1641.26,-616.86 1626,-576 1615.46,-547.77 1603.3,-545.94 1585,-522 1555.35,-483.23 1555.76,-465.92 1518,-435 1492.32,-413.97 1482.62,-412.1 1451,-402 1403.39,-386.79 1379.64,-414.44 1340,-384 1279.73,-337.71 1308.44,-293.55 1270,-228 1267.85,-224.33 1265.38,-220.58 1262.85,-216.96"/>
<polygon fill="black" stroke="black" points="1265.66,-214.88 1256.93,-208.88 1260.01,-219.01 1265.66,-214.88"/>
<text text-anchor="middle" x="1585.5" y="-449.3" font-family="Times,serif" font-size="14.00">reward_gold</text>
</g>
<!-- uint8 -->
<g id="node32" class="node">
<title>uint8</title>
<ellipse fill="#ffffe0" stroke="black" cx="1488" cy="-279" rx="28.7" ry="18"/>
<text text-anchor="middle" x="1488" y="-275.3" font-family="Times,serif" font-size="14.00">uint8</text>
</g>
<!-- Boss&#45;&gt;uint8 -->
<g id="edge61" class="edge">
<title>Boss&#45;&gt;uint8</title>
<path fill="none" stroke="black" d="M1662.21,-700.28C1687.41,-686.39 1721,-661.59 1721,-628 1721,-628 1721,-628 1721,-495.5 1721,-398.74 1598.15,-456.44 1534,-384 1514.14,-361.57 1501.66,-329.19 1494.79,-306.53"/>
<polygon fill="black" stroke="black" points="1498.14,-305.53 1492.02,-296.88 1491.41,-307.46 1498.14,-305.53"/>
<text text-anchor="middle" x="1736.5" y="-492.8" font-family="Times,serif" font-size="14.00">phase</text>
</g>
<!-- Damageable -->
<g id="node5" class="node">
<title>Damageable</title>
<polygon fill="#7b68ee" stroke="black" points="1433.5,-384 1348.5,-384 1348.5,-348 1433.5,-348 1433.5,-384"/>
<text text-anchor="middle" x="1391" y="-362.3" font-family="Times,serif" font-size="14.00">Damageable</text>
</g>
<!-- Combatant&#45;&gt;Damageable -->
<g id="edge27" class="edge">
<title>Combatant&#45;&gt;Damageable</title>
<path fill="none" stroke="black" stroke-dasharray="5,2" d="M712.54,-449.64C784.91,-445 946.03,-433.66 1081,-417 1171.84,-405.78 1276.87,-387.77 1338.41,-376.7"/>
<polygon fill="black" stroke="black" points="1339.05,-380.14 1348.27,-374.92 1337.8,-373.26 1339.05,-380.14"/>
<text text-anchor="middle" x="1208.5" y="-405.8" font-family="Times,serif" font-size="14.00">(extends)</text>
</g>
<!-- GameEntity -->
<g id="node9" class="node">
<title>GameEntity</title>
<polygon fill="#7b68ee" stroke="black" points="807.5,-384 724.5,-384 724.5,-348 807.5,-348 807.5,-384"/>
<text text-anchor="middle" x="766" y="-362.3" font-family="Times,serif" font-size="14.00">GameEntity</text>
</g>
<!-- Combatant&#45;&gt;GameEntity -->
<g id="edge26" class="edge">
<title>Combatant&#45;&gt;GameEntity</title>
<path fill="none" stroke="black" stroke-dasharray="5,2" d="M694.68,-434.83C701.26,-429.24 708.51,-422.94 715,-417 723.82,-408.93 733.24,-399.84 741.55,-391.64"/>
<polygon fill="black" stroke="black" points="744.19,-393.96 748.82,-384.43 739.26,-388.99 744.19,-393.96"/>
<text text-anchor="middle" x="756.5" y="-405.8" font-family="Times,serif" font-size="14.00">(extends)</text>
</g>
<!-- Combatant&#45;&gt;uint16 -->
<g id="edge24" class="edge">
<title>Combatant&#45;&gt;uint16</title>
<path fill="none" stroke="black" d="M635.3,-452.05C582.88,-450.97 487.12,-444.89 411,-417 392.06,-410.06 372.96,-397.92 358.4,-387.35"/>
<polygon fill="black" stroke="black" points="360.49,-384.54 350.39,-381.35 356.3,-390.14 360.49,-384.54"/>
<text text-anchor="middle" x="427.5" y="-405.8" font-family="Times,serif" font-size="14.00">attack</text>
</g>
<!-- Combatant&#45;&gt;uint16 -->
<g id="edge25" class="edge">
<title>Combatant&#45;&gt;uint16</title>
<path fill="none" stroke="black" d="M660.35,-434.65C650.44,-423.37 636,-409.42 620,-402 577.66,-382.37 445.4,-372.79 376.19,-369.02"/>
<polygon fill="black" stroke="black" points="376.22,-365.51 366.05,-368.48 375.85,-372.5 376.22,-365.51"/>
<text text-anchor="middle" x="663" y="-405.8" font-family="Times,serif" font-size="14.00">defense</text>
</g>
<!-- Creature -->
<g id="node4" class="node">
<title>Creature</title>
<polygon fill="#4a90d9" stroke="black" points="1426.5,-558 1363.5,-558 1363.5,-522 1426.5,-522 1426.5,-558"/>
<text text-anchor="middle" x="1395" y="-536.3" font-family="Times,serif" font-size="14.00">Creature</text>
</g>
<!-- Creature&#45;&gt;Combatant -->
<g id="edge34" class="edge">
<title>Creature&#45;&gt;Combatant</title>
<path fill="none" stroke="black" stroke-dasharray="5,2" d="M1363.42,-526.04C1358.65,-524.46 1353.74,-523.04 1349,-522 1248.85,-500.02 1221.07,-513.73 1119,-504 974.65,-490.25 804.41,-469.99 722.64,-460.01"/>
<polygon fill="black" stroke="black" points="723,-456.53 712.64,-458.79 722.15,-463.48 723,-456.53"/>
<text text-anchor="middle" x="1156" y="-492.8" font-family="Times,serif" font-size="14.00">(implements)</text>
</g>
<!-- Faction -->
<g id="node8" class="node">
<title>Faction</title>
<polygon fill="#90ee90" stroke="black" points="1328.5,-471 1271.5,-471 1271.5,-435 1328.5,-435 1328.5,-471"/>
<text text-anchor="middle" x="1300" y="-449.3" font-family="Times,serif" font-size="14.00">Faction</text>
</g>
<!-- Creature&#45;&gt;Faction -->
<g id="edge33" class="edge">
<title>Creature&#45;&gt;Faction</title>
<path fill="none" stroke="black" d="M1366.73,-521.96C1358.73,-516.62 1350.24,-510.43 1343,-504 1334.66,-496.59 1326.43,-487.57 1319.44,-479.24"/>
<polygon fill="black" stroke="black" points="1321.94,-476.77 1312.91,-471.23 1316.52,-481.19 1321.94,-476.77"/>
<text text-anchor="middle" x="1362" y="-492.8" font-family="Times,serif" font-size="14.00">faction</text>
</g>
<!-- Creature&#45;&gt;WorldObject -->
<g id="edge35" class="edge">
<title>Creature&#45;&gt;WorldObject</title>
<path fill="none" stroke="black" stroke-dasharray="5,2" d="M1363.36,-526.3C1358.6,-524.68 1353.71,-523.18 1349,-522 1292.86,-507.88 1274.21,-524.3 1220,-504 1208.57,-499.72 1208.33,-493.55 1197,-489 1156.71,-472.83 1143.51,-479.8 1101,-471 1093.99,-469.55 1086.62,-467.96 1079.36,-466.35"/>
<polygon fill="black" stroke="black" points="1080.09,-462.93 1069.56,-464.17 1078.56,-469.76 1080.09,-462.93"/>
<text text-anchor="middle" x="1257" y="-492.8" font-family="Times,serif" font-size="14.00">(implements)</text>
</g>
<!-- float32 -->
<g id="node26" class="node">
<title>float32</title>
<ellipse fill="#ffffe0" stroke="black" cx="155" cy="-105" rx="36" ry="18"/>
<text text-anchor="middle" x="155" y="-101.3" font-family="Times,serif" font-size="14.00">float32</text>
</g>
<!-- Creature&#45;&gt;float32 -->
<g id="edge31" class="edge">
<title>Creature&#45;&gt;float32</title>
<path fill="none" stroke="black" d="M1363.17,-523.36C1350.92,-517.32 1336.8,-510.36 1324,-504 1310.65,-497.37 1307.58,-495.16 1294,-489 1292.54,-488.34 1082.54,-402.44 1081,-402 1036.34,-389.14 1023.57,-393.1 978,-384 974.65,-383.33 741.13,-331.36 738,-330 727.15,-325.28 726.94,-319.51 716,-315 675.46,-298.29 661.39,-308.2 619,-297 548.07,-278.25 531.25,-269.93 463,-243 362.14,-203.19 245.94,-149.24 189.44,-122.48"/>
<polygon fill="black" stroke="black" points="190.78,-119.24 180.24,-118.11 187.77,-125.56 190.78,-119.24"/>
<text text-anchor="middle" x="753.5" y="-318.8" font-family="Times,serif" font-size="14.00">speed</text>
</g>
<!-- Creature&#45;&gt;uint8 -->
<g id="edge32" class="edge">
<title>Creature&#45;&gt;uint8</title>
<path fill="none" stroke="black" d="M1397.72,-521.72C1401.29,-500.79 1408.4,-464.66 1419,-435 1436.53,-385.96 1451.02,-378.09 1471,-330 1474.13,-322.46 1477.14,-314.13 1479.73,-306.45"/>
<polygon fill="black" stroke="black" points="1483.08,-307.46 1482.88,-296.87 1476.43,-305.28 1483.08,-307.46"/>
<text text-anchor="middle" x="1446.5" y="-405.8" font-family="Times,serif" font-size="14.00">level</text>
</g>
<!-- int16 -->
<g id="node27" class="node">
<title>int16</title>
<ellipse fill="#ffffe0" stroke="black" cx="1393" cy="-279" rx="28.7" ry="18"/>
<text text-anchor="middle" x="1393" y="-275.3" font-family="Times,serif" font-size="14.00">int16</text>
</g>
<!-- Damageable&#45;&gt;int16 -->
<g id="edge8" class="edge">
<title>Damageable&#45;&gt;int16</title>
<path fill="none" stroke="black" d="M1391.4,-347.8C1391.68,-336.16 1392.05,-320.55 1392.36,-307.24"/>
<polygon fill="black" stroke="black" points="1395.86,-307.26 1392.6,-297.18 1388.86,-307.09 1395.86,-307.26"/>
<text text-anchor="middle" x="1399" y="-318.8" font-family="Times,serif" font-size="14.00">hp</text>
</g>
<!-- Damageable&#45;&gt;int16 -->
<g id="edge9" class="edge">
<title>Damageable&#45;&gt;int16</title>
<path fill="none" stroke="black" d="M1357.49,-347.91C1345.04,-339.11 1335.37,-327.58 1342,-315 1346.24,-306.94 1353.27,-300.38 1360.78,-295.21"/>
<polygon fill="black" stroke="black" points="1362.96,-297.98 1369.66,-289.77 1359.31,-292.01 1362.96,-297.98"/>
<text text-anchor="middle" x="1364.5" y="-318.8" font-family="Times,serif" font-size="14.00">max_hp</text>
</g>
<!-- Element -->
<g id="node6" class="node">
<title>Element</title>
<polygon fill="#90ee90" stroke="black" points="90,-558 28,-558 28,-522 90,-522 90,-558"/>
<text text-anchor="middle" x="59" y="-536.3" font-family="Times,serif" font-size="14.00">Element</text>
</g>
<!-- Entity -->
<g id="node7" class="node">
<title>Entity</title>
<polygon fill="#7b68ee" stroke="black" points="808,-297 754,-297 754,-261 808,-261 808,-297"/>
<text text-anchor="middle" x="781" y="-275.3" font-family="Times,serif" font-size="14.00">Entity</text>
</g>
<!-- Identifiable -->
<g id="node10" class="node">
<title>Identifiable</title>
<polygon fill="#7b68ee" stroke="black" points="799.5,-210 720.5,-210 720.5,-174 799.5,-174 799.5,-210"/>
<text text-anchor="middle" x="760" y="-188.3" font-family="Times,serif" font-size="14.00">Identifiable</text>
</g>
<!-- Entity&#45;&gt;Identifiable -->
<g id="edge11" class="edge">
<title>Entity&#45;&gt;Identifiable</title>
<path fill="none" stroke="black" stroke-dasharray="5,2" d="M769,-260.95C765.78,-255.47 762.71,-249.21 761,-243 759.02,-235.83 758.25,-227.87 758.11,-220.44"/>
<polygon fill="black" stroke="black" points="761.61,-220.48 758.26,-210.43 754.61,-220.37 761.61,-220.48"/>
<text text-anchor="middle" x="786.5" y="-231.8" font-family="Times,serif" font-size="14.00">(extends)</text>
</g>
<!-- Positioned -->
<g id="node17" class="node">
<title>Positioned</title>
<polygon fill="#7b68ee" stroke="black" points="257,-210 183,-210 183,-174 257,-174 257,-210"/>
<text text-anchor="middle" x="220" y="-188.3" font-family="Times,serif" font-size="14.00">Positioned</text>
</g>
<!-- Entity&#45;&gt;Positioned -->
<g id="edge12" class="edge">
<title>Entity&#45;&gt;Positioned</title>
<path fill="none" stroke="black" stroke-dasharray="5,2" d="M753.66,-271.41C739.97,-268.17 723.14,-264.27 708,-261 634.47,-245.13 616.35,-239.41 542,-228 490.31,-220.07 343.75,-205.19 267.46,-197.64"/>
<polygon fill="black" stroke="black" points="267.48,-194.12 257.18,-196.63 266.79,-201.09 267.48,-194.12"/>
<text text-anchor="middle" x="651.5" y="-231.8" font-family="Times,serif" font-size="14.00">(extends)</text>
</g>
<!-- Entity&#45;&gt;uint32 -->
<g id="edge10" class="edge">
<title>Entity&#45;&gt;uint32</title>
<path fill="none" stroke="black" d="M794.14,-260.96C804.02,-249.51 818.64,-235.23 835,-228 899.57,-199.46 1109.15,-194.13 1200.63,-193.18"/>
<polygon fill="black" stroke="black" points="1200.69,-196.68 1210.66,-193.09 1200.63,-189.68 1200.69,-196.68"/>
<text text-anchor="middle" x="840.5" y="-231.8" font-family="Times,serif" font-size="14.00">id</text>
</g>
<!-- GameEntity&#45;&gt;Entity -->
<g id="edge19" class="edge">
<title>GameEntity&#45;&gt;Entity</title>
<path fill="none" stroke="black" stroke-dasharray="5,2" d="M769.04,-347.8C771.09,-336.16 773.84,-320.55 776.19,-307.24"/>
<polygon fill="black" stroke="black" points="779.68,-307.63 777.97,-297.18 772.78,-306.41 779.68,-307.63"/>
<text text-anchor="middle" x="800.5" y="-318.8" font-family="Times,serif" font-size="14.00">(extends)</text>
</g>
<!-- Trackable -->
<g id="node21" class="node">
<title>Trackable</title>
<polygon fill="#7b68ee" stroke="black" points="699.5,-297 628.5,-297 628.5,-261 699.5,-261 699.5,-297"/>
<text text-anchor="middle" x="664" y="-275.3" font-family="Times,serif" font-size="14.00">Trackable</text>
</g>
<!-- GameEntity&#45;&gt;Trackable -->
<g id="edge20" class="edge">
<title>GameEntity&#45;&gt;Trackable</title>
<path fill="none" stroke="black" stroke-dasharray="5,2" d="M724.44,-361.62C703.04,-357.55 678.64,-348.76 665,-330 660.31,-323.55 658.86,-315.3 658.92,-307.37"/>
<polygon fill="black" stroke="black" points="662.42,-307.55 659.73,-297.3 655.44,-306.99 662.42,-307.55"/>
<text text-anchor="middle" x="690.5" y="-318.8" font-family="Times,serif" font-size="14.00">(extends)</text>
</g>
<!-- Identifiable&#45;&gt;string -->
<g id="edge2" class="edge">
<title>Identifiable&#45;&gt;string</title>
<path fill="none" stroke="black" d="M775.9,-173.98C787.71,-162.53 804.85,-148.26 823,-141 885.41,-116.05 1084.41,-108.75 1171.05,-106.73"/>
<polygon fill="black" stroke="black" points="1171.36,-110.23 1181.28,-106.5 1171.21,-103.23 1171.36,-110.23"/>
<text text-anchor="middle" x="838.5" y="-144.8" font-family="Times,serif" font-size="14.00">name</text>
</g>
<!-- Item&#45;&gt;WorldObject -->
<g id="edge30" class="edge">
<title>Item&#45;&gt;WorldObject</title>
<path fill="none" stroke="black" stroke-dasharray="5,2" d="M385.28,-531.89C428.43,-520.93 515.2,-500.01 590,-489 726.89,-468.84 889.79,-459.65 972.33,-456.02"/>
<polygon fill="black" stroke="black" points="972.63,-459.51 982.47,-455.59 972.33,-452.52 972.63,-459.51"/>
<text text-anchor="middle" x="627" y="-492.8" font-family="Times,serif" font-size="14.00">(implements)</text>
</g>
<!-- Item&#45;&gt;float32 -->
<g id="edge28" class="edge">
<title>Item&#45;&gt;float32</title>
<path fill="none" stroke="black" d="M369.57,-521.66C374.81,-511.48 378.52,-498.74 372,-489 367.74,-482.64 122.32,-389.51 117,-384 52.19,-316.82 89.95,-264.19 114,-174 118.11,-158.61 119.96,-154.75 128,-141 130.18,-137.27 132.7,-133.49 135.32,-129.87"/>
<polygon fill="black" stroke="black" points="138.2,-131.85 141.46,-121.77 132.63,-127.62 138.2,-131.85"/>
<text text-anchor="middle" x="103.5" y="-318.8" font-family="Times,serif" font-size="14.00">weight</text>
</g>
<!-- Item&#45;&gt;uint32 -->
<g id="edge29" class="edge">
<title>Item&#45;&gt;uint32</title>
<path fill="none" stroke="black" d="M385.42,-526.93C446.95,-499.68 591.96,-434.39 609,-417 643.93,-381.34 615.53,-344.21 656,-315 685.19,-293.93 781.55,-303.27 817,-297 962.13,-271.32 1131.35,-225.18 1205.68,-204.08"/>
<polygon fill="black" stroke="black" points="1206.87,-207.38 1215.53,-201.27 1204.95,-200.65 1206.87,-207.38"/>
<text text-anchor="middle" x="649" y="-362.3" font-family="Times,serif" font-size="14.00">value</text>
</g>
<!-- MagicWeapon -->
<g id="node12" class="node">
<title>MagicWeapon</title>
<polygon fill="#4a90d9" stroke="black" points="392.5,-732 295.5,-732 295.5,-696 392.5,-696 392.5,-732"/>
<text text-anchor="middle" x="344" y="-710.3" font-family="Times,serif" font-size="14.00">MagicWeapon</text>
</g>
<!-- Weapon -->
<g id="node22" class="node">
<title>Weapon</title>
<polygon fill="#4a90d9" stroke="black" points="166,-645 104,-645 104,-609 166,-609 166,-645"/>
<text text-anchor="middle" x="135" y="-623.3" font-family="Times,serif" font-size="14.00">Weapon</text>
</g>
<!-- MagicWeapon&#45;&gt;Weapon -->
<g id="edge59" class="edge">
<title>MagicWeapon&#45;&gt;Weapon</title>
<path fill="none" stroke="black" stroke-dasharray="5,2" d="M295.25,-711.18C260.19,-707.95 212.97,-699.53 177,-678 166.97,-672 158.21,-662.73 151.33,-653.79"/>
<polygon fill="black" stroke="black" points="154,-651.51 145.31,-645.44 148.32,-655.6 154,-651.51"/>
<text text-anchor="middle" x="202.5" y="-666.8" font-family="Times,serif" font-size="14.00">(extends)</text>
</g>
<!-- MagicWeapon&#45;&gt;WorldObject -->
<g id="edge60" class="edge">
<title>MagicWeapon&#45;&gt;WorldObject</title>
<path fill="none" stroke="black" stroke-dasharray="5,2" d="M392.77,-703.68C415.07,-698.18 441.28,-689.91 463,-678 493.25,-661.42 547.93,-588.7 580,-576 629.93,-556.22 1025.74,-596.68 1063,-558 1083.84,-536.37 1065.29,-502.23 1047.77,-479.02"/>
<polygon fill="black" stroke="black" points="1050.38,-476.68 1041.44,-471 1044.89,-481.02 1050.38,-476.68"/>
<text text-anchor="middle" x="617" y="-579.8" font-family="Times,serif" font-size="14.00">(implements)</text>
</g>
<!-- MagicWeapon&#45;&gt;string -->
<g id="edge58" class="edge">
<title>MagicWeapon&#45;&gt;string</title>
<path fill="none" stroke="black" d="M353.48,-695.99C374.61,-657.29 425.78,-559.2 452,-471 460.85,-441.23 454.34,-431.82 463,-402 486.48,-321.13 476.1,-285.1 538,-228 626.63,-146.23 676.94,-165.56 795,-141 930.59,-112.8 1095.47,-107.19 1170.83,-106.16"/>
<polygon fill="black" stroke="black" points="1171.33,-109.66 1181.29,-106.04 1171.25,-102.66 1171.33,-109.66"/>
<text text-anchor="middle" x="494.5" y="-405.8" font-family="Times,serif" font-size="14.00">spell_name</text>
</g>
<!-- MagicWeapon&#45;&gt;uint16 -->
<g id="edge57" class="edge">
<title>MagicWeapon&#45;&gt;uint16</title>
<path fill="none" stroke="black" d="M324.2,-695.9C310.3,-683.04 292.12,-664.38 280,-645 258.07,-609.94 254.46,-598.68 247,-558 235.16,-493.43 282.79,-424.94 311.9,-390.18"/>
<polygon fill="black" stroke="black" points="314.64,-392.35 318.5,-382.48 309.33,-387.79 314.64,-392.35"/>
<text text-anchor="middle" x="276.5" y="-536.3" font-family="Times,serif" font-size="14.00">mana_cost</text>
</g>
<!-- Merchant -->
<g id="node13" class="node">
<title>Merchant</title>
<polygon fill="#4a90d9" stroke="black" points="1139.5,-732 1070.5,-732 1070.5,-696 1139.5,-696 1139.5,-732"/>
<text text-anchor="middle" x="1105" y="-710.3" font-family="Times,serif" font-size="14.00">Merchant</text>
</g>
<!-- Merchant&#45;&gt;Combatant -->
<g id="edge70" class="edge">
<title>Merchant&#45;&gt;Combatant</title>
<path fill="none" stroke="black" stroke-dasharray="5,2" d="M1070.14,-711.73C950.32,-706.59 558.61,-682.88 483,-591 460.62,-563.81 417.89,-573.5 513,-489 529.41,-474.42 584.02,-464.74 625.12,-459.33"/>
<polygon fill="black" stroke="black" points="625.77,-462.77 635.25,-458.04 624.89,-455.83 625.77,-462.77"/>
<text text-anchor="middle" x="520" y="-579.8" font-family="Times,serif" font-size="14.00">(implements)</text>
</g>
<!-- Merchant&#45;&gt;NPC -->
<g id="edge69" class="edge">
<title>Merchant&#45;&gt;NPC</title>
<path fill="none" stroke="black" stroke-dasharray="5,2" d="M1117.14,-695.8C1125.68,-683.7 1137.26,-667.3 1146.88,-653.67"/>
<polygon fill="black" stroke="black" points="1149.97,-655.36 1152.88,-645.18 1144.25,-651.33 1149.97,-655.36"/>
<text text-anchor="middle" x="1163.5" y="-666.8" font-family="Times,serif" font-size="14.00">(extends)</text>
</g>
<!-- Merchant&#45;&gt;WorldObject -->
<g id="edge71" class="edge">
<title>Merchant&#45;&gt;WorldObject</title>
<path fill="none" stroke="black" stroke-dasharray="5,2" d="M1101.26,-695.73C1096.37,-672.2 1088.07,-628.65 1085,-591 1084.46,-584.36 1083.93,-582.58 1085,-576 1086.35,-567.68 1089.65,-566.32 1091,-558 1095.91,-527.73 1106.73,-515.33 1091,-489 1087.72,-483.51 1083.25,-478.83 1078.18,-474.86"/>
<polygon fill="black" stroke="black" points="1080.05,-471.89 1069.81,-469.17 1076.12,-477.69 1080.05,-471.89"/>
<text text-anchor="middle" x="1122" y="-579.8" font-family="Times,serif" font-size="14.00">(implements)</text>
</g>
<!-- Merchant&#45;&gt;string -->
<g id="edge68" class="edge">
<title>Merchant&#45;&gt;string</title>
<path fill="none" stroke="black" d="M1139.69,-713.12C1206.91,-712.63 1359.21,-707.96 1483,-678 1521.18,-668.76 1531.58,-665.65 1565,-645 1595.8,-625.96 1605.54,-620.87 1626,-591 1676.61,-517.09 1660.36,-484.18 1696,-402 1699.56,-393.79 1701.35,-392.16 1705,-384 1716.81,-357.59 1729,-352.43 1729,-323.5 1729,-323.5 1729,-323.5 1729,-191 1729,-133.63 1665.69,-154.79 1610,-141 1482.45,-109.42 1325.74,-105.41 1252.86,-105.46"/>
<polygon fill="black" stroke="black" points="1252.72,-101.96 1242.73,-105.5 1252.75,-108.96 1252.72,-101.96"/>
<text text-anchor="middle" x="1720.5" y="-405.8" font-family="Times,serif" font-size="14.00">specialty</text>
</g>
<!-- Merchant&#45;&gt;uint32 -->
<g id="edge67" class="edge">
<title>Merchant&#45;&gt;uint32</title>
<path fill="none" stroke="black" d="M1139.83,-710.15C1244.35,-700.79 1551.65,-667.14 1609,-591 1628.72,-564.81 1618.94,-592.6 1493,-471 1462.25,-441.31 1464.02,-421.53 1426,-402 1378.03,-377.36 1347.15,-418.86 1306,-384 1299.53,-378.52 1267.07,-271.01 1251.87,-219.75"/>
<polygon fill="black" stroke="black" points="1255.18,-218.61 1248.99,-210.01 1248.47,-220.59 1255.18,-218.61"/>
<text text-anchor="middle" x="1505.5" y="-449.3" font-family="Times,serif" font-size="14.00">gold</text>
</g>
<!-- NPC&#45;&gt;Combatant -->
<g id="edge50" class="edge">
<title>NPC&#45;&gt;Combatant</title>
<path fill="none" stroke="black" stroke-dasharray="5,2" d="M1137.58,-613.38C1133.11,-611.69 1128.48,-610.15 1124,-609 1111.41,-605.77 667.67,-567.68 659,-558 648.32,-546.09 657.27,-537.91 659,-522 660.49,-508.29 663.63,-493.3 666.66,-480.89"/>
<polygon fill="black" stroke="black" points="670.06,-481.71 669.13,-471.16 663.28,-479.99 670.06,-481.71"/>
<text text-anchor="middle" x="696" y="-536.3" font-family="Times,serif" font-size="14.00">(implements)</text>
</g>
<!-- NPC&#45;&gt;Creature -->
<g id="edge49" class="edge">
<title>NPC&#45;&gt;Creature</title>
<path fill="none" stroke="black" stroke-dasharray="5,2" d="M1192.29,-615.92C1232.28,-601.14 1307.12,-573.48 1353.82,-556.22"/>
<polygon fill="black" stroke="black" points="1355.17,-559.45 1363.34,-552.7 1352.74,-552.89 1355.17,-559.45"/>
<text text-anchor="middle" x="1318.5" y="-579.8" font-family="Times,serif" font-size="14.00">(extends)</text>
</g>
<!-- NPC&#45;&gt;WorldObject -->
<g id="edge51" class="edge">
<title>NPC&#45;&gt;WorldObject</title>
<path fill="none" stroke="black" stroke-dasharray="5,2" d="M1165.4,-608.84C1165.11,-580.24 1160.35,-522.65 1129,-489 1121.69,-481.15 1100.58,-473.38 1079.36,-467.16"/>
<polygon fill="black" stroke="black" points="1080.23,-463.76 1069.66,-464.41 1078.33,-470.5 1080.23,-463.76"/>
<text text-anchor="middle" x="1197" y="-536.3" font-family="Times,serif" font-size="14.00">(implements)</text>
</g>
<!-- boolean -->
<g id="node24" class="node">
<title>boolean</title>
<ellipse fill="#ffffe0" stroke="black" cx="308" cy="-279" rx="38.19" ry="18"/>
<text text-anchor="middle" x="308" y="-275.3" font-family="Times,serif" font-size="14.00">boolean</text>
</g>
<!-- NPC&#45;&gt;boolean -->
<g id="edge48" class="edge">
<title>NPC&#45;&gt;boolean</title>
<path fill="none" stroke="black" d="M1137.85,-625.91C1075.67,-625.18 918.43,-620.3 791,-591 772.5,-586.74 769.52,-580.2 751,-576 661.81,-555.76 632.13,-588.78 546,-558 481.4,-534.92 323.04,-444.66 291,-384 278.18,-359.73 286.22,-328.19 295.08,-306.23"/>
<polygon fill="black" stroke="black" points="298.37,-307.45 299.14,-296.88 291.95,-304.67 298.37,-307.45"/>
<text text-anchor="middle" x="417" y="-449.3" font-family="Times,serif" font-size="14.00">quest_giver</text>
</g>
<!-- NPC&#45;&gt;string -->
<g id="edge47" class="edge">
<title>NPC&#45;&gt;string</title>
<path fill="none" stroke="black" d="M1192.18,-624.01C1257.15,-619.05 1417.57,-605.47 1437,-591 1463.09,-571.57 1556,-356.03 1556,-323.5 1556,-323.5 1556,-323.5 1556,-191 1556,-129.16 1343.85,-112.03 1252.76,-107.52"/>
<polygon fill="black" stroke="black" points="1252.68,-104.01 1242.53,-107.04 1252.35,-111.01 1252.68,-104.01"/>
<text text-anchor="middle" x="1572.5" y="-362.3" font-family="Times,serif" font-size="14.00">greeting</text>
</g>
<!-- Physical -->
<g id="node15" class="node">
<title>Physical</title>
<polygon fill="#7b68ee" stroke="black" points="188,-384 126,-384 126,-348 188,-348 188,-384"/>
<text text-anchor="middle" x="157" y="-362.3" font-family="Times,serif" font-size="14.00">Physical</text>
</g>
<!-- Physical&#45;&gt;Positioned -->
<g id="edge18" class="edge">
<title>Physical&#45;&gt;Positioned</title>
<path fill="none" stroke="black" stroke-dasharray="5,2" d="M163.27,-347.88C174.26,-317.87 197.08,-255.58 210.18,-219.81"/>
<polygon fill="black" stroke="black" points="213.6,-220.65 213.75,-210.05 207.03,-218.24 213.6,-220.65"/>
<text text-anchor="middle" x="220.5" y="-275.3" font-family="Times,serif" font-size="14.00">(extends)</text>
</g>
<!-- Physical&#45;&gt;boolean -->
<g id="edge17" class="edge">
<title>Physical&#45;&gt;boolean</title>
<path fill="none" stroke="black" d="M182.38,-347.94C203.11,-334.03 229.39,-316.46 232,-315 244.33,-308.11 258.25,-301.4 270.78,-295.74"/>
<polygon fill="black" stroke="black" points="272.33,-298.88 280.04,-291.62 269.49,-292.48 272.33,-298.88"/>
<text text-anchor="middle" x="245.5" y="-318.8" font-family="Times,serif" font-size="14.00">solid</text>
</g>
<!-- Physical&#45;&gt;float32 -->
<g id="edge15" class="edge">
<title>Physical&#45;&gt;float32</title>
<path fill="none" stroke="black" d="M156.87,-347.6C156.52,-303.46 155.62,-186.83 155.21,-133.42"/>
<polygon fill="black" stroke="black" points="158.71,-133.29 155.13,-123.32 151.71,-133.35 158.71,-133.29"/>
<text text-anchor="middle" x="172.5" y="-231.8" font-family="Times,serif" font-size="14.00">width</text>
</g>
<!-- Physical&#45;&gt;float32 -->
<g id="edge16" class="edge">
<title>Physical&#45;&gt;float32</title>
<path fill="none" stroke="black" d="M149.56,-347.64C140.02,-324.34 124,-281.45 118,-243 111.85,-203.54 128.32,-159.13 141.23,-131.85"/>
<polygon fill="black" stroke="black" points="144.5,-133.14 145.78,-122.62 138.22,-130.04 144.5,-133.14"/>
<text text-anchor="middle" x="135" y="-231.8" font-family="Times,serif" font-size="14.00">height</text>
</g>
<!-- Player -->
<g id="node16" class="node">
<title>Player</title>
<polygon fill="#4a90d9" stroke="black" points="1412,-645 1358,-645 1358,-609 1412,-609 1412,-645"/>
<text text-anchor="middle" x="1385" y="-623.3" font-family="Times,serif" font-size="14.00">Player</text>
</g>
<!-- Player&#45;&gt;Combatant -->
<g id="edge55" class="edge">
<title>Player&#45;&gt;Combatant</title>
<path fill="none" stroke="black" stroke-dasharray="5,2" d="M1357.73,-618.84C1314.17,-607.7 1226.04,-586.43 1150,-576 1087.13,-567.37 922.04,-585.81 865,-558 845.76,-548.62 848.98,-536.25 833,-522 813.95,-505.01 808.9,-500.27 786,-489 766.07,-479.18 742.79,-471.38 722.63,-465.65"/>
<polygon fill="black" stroke="black" points="723.28,-462.2 712.71,-462.93 721.43,-468.95 723.28,-462.2"/>
<text text-anchor="middle" x="902" y="-536.3" font-family="Times,serif" font-size="14.00">(implements)</text>
</g>
<!-- Player&#45;&gt;Creature -->
<g id="edge54" class="edge">
<title>Player&#45;&gt;Creature</title>
<path fill="none" stroke="black" stroke-dasharray="5,2" d="M1387.02,-608.8C1388.39,-597.16 1390.23,-581.55 1391.8,-568.24"/>
<polygon fill="black" stroke="black" points="1395.29,-568.52 1392.98,-558.18 1388.33,-567.7 1395.29,-568.52"/>
<text text-anchor="middle" x="1415.5" y="-579.8" font-family="Times,serif" font-size="14.00">(extends)</text>
</g>
<!-- Player&#45;&gt;WorldObject -->
<g id="edge56" class="edge">
<title>Player&#45;&gt;WorldObject</title>
<path fill="none" stroke="black" stroke-dasharray="5,2" d="M1357.72,-621.32C1336.24,-616.56 1306.45,-607.47 1285,-591 1255.57,-568.4 1267.26,-544.81 1238,-522 1221.2,-508.9 1168.25,-495.61 1148,-489 1125.76,-481.74 1100.98,-474.48 1079.59,-468.47"/>
<polygon fill="black" stroke="black" points="1080.28,-465.03 1069.71,-465.72 1078.4,-471.78 1080.28,-465.03"/>
<text text-anchor="middle" x="1298" y="-536.3" font-family="Times,serif" font-size="14.00">(implements)</text>
</g>
<!-- Player&#45;&gt;string -->
<g id="edge53" class="edge">
<title>Player&#45;&gt;string</title>
<path fill="none" stroke="black" d="M1412.45,-617.31C1477.76,-594.72 1637,-527.65 1637,-410.5 1637,-410.5 1637,-410.5 1637,-191 1637,-113.08 1358.85,-105.6 1252.59,-105.59"/>
<polygon fill="black" stroke="black" points="1252.56,-102.09 1242.56,-105.61 1252.57,-109.09 1252.56,-102.09"/>
<text text-anchor="middle" x="1669" y="-362.3" font-family="Times,serif" font-size="14.00">class_name</text>
</g>
<!-- Player&#45;&gt;uint32 -->
<g id="edge52" class="edge">
<title>Player&#45;&gt;uint32</title>
<path fill="none" stroke="black" d="M1412,-621.41C1429.51,-616.88 1451.03,-608.04 1462,-591 1465.61,-585.39 1463.48,-582.5 1462,-576 1456.07,-550.03 1452.05,-543.26 1436,-522 1400.9,-475.52 1383.37,-471.52 1338,-435 1308.02,-410.86 1287.56,-417.15 1268,-384 1237.49,-332.3 1237.98,-259.13 1240.99,-220.06"/>
<polygon fill="black" stroke="black" points="1244.48,-220.26 1241.88,-209.99 1237.51,-219.64 1244.48,-220.26"/>
<text text-anchor="middle" x="1321.5" y="-405.8" font-family="Times,serif" font-size="14.00">score</text>
</g>
<!-- Positioned&#45;&gt;float32 -->
<g id="edge3" class="edge">
<title>Positioned&#45;&gt;float32</title>
<path fill="none" stroke="black" d="M205.91,-173.66C201.42,-168.06 196.46,-161.8 192,-156 185.65,-147.74 178.83,-138.61 172.79,-130.43"/>
<polygon fill="black" stroke="black" points="175.58,-128.32 166.84,-122.33 169.94,-132.46 175.58,-128.32"/>
<text text-anchor="middle" x="195.5" y="-144.8" font-family="Times,serif" font-size="14.00">x</text>
</g>
<!-- Positioned&#45;&gt;float32 -->
<g id="edge4" class="edge">
<title>Positioned&#45;&gt;float32</title>
<path fill="none" stroke="black" d="M214.69,-173.71C211.03,-163.55 205.47,-150.81 198,-141 194.02,-135.77 189.1,-130.85 184.04,-126.43"/>
<polygon fill="black" stroke="black" points="186.03,-123.54 176.06,-119.94 181.61,-128.97 186.03,-123.54"/>
<text text-anchor="middle" x="210.5" y="-144.8" font-family="Times,serif" font-size="14.00">y</text>
</g>
<!-- Prop -->
<g id="node18" class="node">
<title>Prop</title>
<polygon fill="#4a90d9" stroke="black" points="609,-558 555,-558 555,-522 609,-522 609,-558"/>
<text text-anchor="middle" x="582" y="-536.3" font-family="Times,serif" font-size="14.00">Prop</text>
</g>
<!-- Prop&#45;&gt;WorldObject -->
<g id="edge37" class="edge">
<title>Prop&#45;&gt;WorldObject</title>
<path fill="none" stroke="black" stroke-dasharray="5,2" d="M609.07,-527.24C639.96,-514 688.68,-493.73 708,-489 799.09,-466.71 908.36,-458.6 972.2,-455.66"/>
<polygon fill="black" stroke="black" points="972.59,-459.14 982.43,-455.21 972.29,-452.15 972.59,-459.14"/>
<text text-anchor="middle" x="745" y="-492.8" font-family="Times,serif" font-size="14.00">(implements)</text>
</g>
<!-- Prop&#45;&gt;boolean -->
<g id="edge36" class="edge">
<title>Prop&#45;&gt;boolean</title>
<path fill="none" stroke="black" d="M573.71,-521.69C571.14,-516.09 568.35,-509.82 566,-504 547.99,-459.43 561.11,-438.65 530,-402 481.41,-344.75 398.89,-309.6 349.3,-292.53"/>
<polygon fill="black" stroke="black" points="350.14,-289.12 339.55,-289.26 347.92,-295.76 350.14,-289.12"/>
<text text-anchor="middle" x="573" y="-405.8" font-family="Times,serif" font-size="14.00">destructible</text>
</g>
<!-- Renderable -->
<g id="node19" class="node">
<title>Renderable</title>
<polygon fill="#7b68ee" stroke="black" points="1065,-384 987,-384 987,-348 1065,-348 1065,-384"/>
<text text-anchor="middle" x="1026" y="-362.3" font-family="Times,serif" font-size="14.00">Renderable</text>
</g>
<!-- Renderable&#45;&gt;string -->
<g id="edge6" class="edge">
<title>Renderable&#45;&gt;string</title>
<path fill="none" stroke="black" d="M1038.49,-347.6C1070.83,-302.57 1157.35,-182.1 1194.58,-130.26"/>
<polygon fill="black" stroke="black" points="1197.53,-132.15 1200.52,-121.98 1191.84,-128.07 1197.53,-132.15"/>
<text text-anchor="middle" x="1138.5" y="-231.8" font-family="Times,serif" font-size="14.00">sprite</text>
</g>
<!-- Renderable&#45;&gt;uint8 -->
<g id="edge7" class="edge">
<title>Renderable&#45;&gt;uint8</title>
<path fill="none" stroke="black" d="M1065.26,-363.78C1149.91,-360.77 1347,-351.61 1410,-330 1429.46,-323.32 1448.94,-310.84 1463.57,-300.02"/>
<polygon fill="black" stroke="black" points="1465.77,-302.74 1471.59,-293.89 1461.51,-297.18 1465.77,-302.74"/>
<text text-anchor="middle" x="1453" y="-318.8" font-family="Times,serif" font-size="14.00">layer</text>
</g>
<!-- Timed -->
<g id="node20" class="node">
<title>Timed</title>
<polygon fill="#7b68ee" stroke="black" points="456,-210 402,-210 402,-174 456,-174 456,-210"/>
<text text-anchor="middle" x="429" y="-188.3" font-family="Times,serif" font-size="14.00">Timed</text>
</g>
<!-- uint64 -->
<g id="node31" class="node">
<title>uint64</title>
<ellipse fill="#ffffe0" stroke="black" cx="369" cy="-105" rx="33.29" ry="18"/>
<text text-anchor="middle" x="369" y="-101.3" font-family="Times,serif" font-size="14.00">uint64</text>
</g>
<!-- Timed&#45;&gt;uint64 -->
<g id="edge5" class="edge">
<title>Timed&#45;&gt;uint64</title>
<path fill="none" stroke="black" d="M416.86,-173.8C408.01,-161.27 395.91,-144.12 386.08,-130.2"/>
<polygon fill="black" stroke="black" points="388.94,-128.18 380.31,-122.03 383.22,-132.21 388.94,-128.18"/>
<text text-anchor="middle" x="431" y="-144.8" font-family="Times,serif" font-size="14.00">created_at</text>
</g>
<!-- Trackable&#45;&gt;Identifiable -->
<g id="edge13" class="edge">
<title>Trackable&#45;&gt;Identifiable</title>
<path fill="none" stroke="black" stroke-dasharray="5,2" d="M675.69,-260.57C683.06,-250.35 693.21,-237.61 704,-228 708.83,-223.7 714.26,-219.59 719.78,-215.8"/>
<polygon fill="black" stroke="black" points="722,-218.53 728.46,-210.13 718.17,-212.67 722,-218.53"/>
<text text-anchor="middle" x="729.5" y="-231.8" font-family="Times,serif" font-size="14.00">(extends)</text>
</g>
<!-- Trackable&#45;&gt;Timed -->
<g id="edge14" class="edge">
<title>Trackable&#45;&gt;Timed</title>
<path fill="none" stroke="black" stroke-dasharray="5,2" d="M628.15,-271.2C579.31,-261.87 497.21,-245.92 491,-243 477.34,-236.58 464.05,-226.54 453.31,-217.14"/>
<polygon fill="black" stroke="black" points="455.37,-214.29 445.62,-210.15 450.66,-219.47 455.37,-214.29"/>
<text text-anchor="middle" x="516.5" y="-231.8" font-family="Times,serif" font-size="14.00">(extends)</text>
</g>
<!-- Weapon&#45;&gt;Element -->
<g id="edge40" class="edge">
<title>Weapon&#45;&gt;Element</title>
<path fill="none" stroke="black" d="M103.88,-619.71C87.91,-614.75 69.8,-606.05 60,-591 55.65,-584.32 54.29,-576.01 54.34,-568.08"/>
<polygon fill="black" stroke="black" points="57.83,-568.3 55.08,-558.07 50.85,-567.78 57.83,-568.3"/>
<text text-anchor="middle" x="82" y="-579.8" font-family="Times,serif" font-size="14.00">element</text>
</g>
<!-- Weapon&#45;&gt;Item -->
<g id="edge41" class="edge">
<title>Weapon&#45;&gt;Item</title>
<path fill="none" stroke="black" stroke-dasharray="5,2" d="M166.01,-614.18C206.64,-598.69 277.82,-571.56 321.16,-555.04"/>
<polygon fill="black" stroke="black" points="322.66,-558.22 330.75,-551.39 320.16,-551.68 322.66,-558.22"/>
<text text-anchor="middle" x="285.5" y="-579.8" font-family="Times,serif" font-size="14.00">(extends)</text>
</g>
<!-- Weapon&#45;&gt;WorldObject -->
<g id="edge42" class="edge">
<title>Weapon&#45;&gt;WorldObject</title>
<path fill="none" stroke="black" stroke-dasharray="5,2" d="M166.4,-622.23C228.89,-614.64 364.58,-597.66 385,-591 398.42,-586.62 399.41,-579.82 413,-576 481.57,-556.73 671.88,-594.57 733,-558 749.09,-548.37 739.89,-533.11 755,-522 819.51,-474.56 913.52,-460.03 972.15,-455.69"/>
<polygon fill="black" stroke="black" points="972.57,-459.17 982.32,-455.01 972.11,-452.18 972.57,-459.17"/>
<text text-anchor="middle" x="792" y="-536.3" font-family="Times,serif" font-size="14.00">(implements)</text>
</g>
<!-- Weapon&#45;&gt;float32 -->
<g id="edge39" class="edge">
<title>Weapon&#45;&gt;float32</title>
<path fill="none" stroke="black" d="M103.69,-620.57C63.81,-611.64 0,-589.75 0,-541 0,-541 0,-541 0,-191 0,-140.35 64.41,-119.68 110.18,-111.39"/>
<polygon fill="black" stroke="black" points="110.93,-114.81 120.21,-109.71 109.77,-107.91 110.93,-114.81"/>
<text text-anchor="middle" x="35" y="-362.3" font-family="Times,serif" font-size="14.00">attack_range</text>
</g>
<!-- Weapon&#45;&gt;uint16 -->
<g id="edge38" class="edge">
<title>Weapon&#45;&gt;uint16</title>
<path fill="none" stroke="black" d="M137.22,-608.72C141.37,-581.43 152.23,-527.49 177,-489 193.73,-463.01 263.92,-413.34 304.21,-386.08"/>
<polygon fill="black" stroke="black" points="306.23,-388.95 312.57,-380.46 302.32,-383.14 306.23,-388.95"/>
<text text-anchor="middle" x="198.5" y="-492.8" font-family="Times,serif" font-size="14.00">damage</text>
</g>
<!-- WorldObject&#45;&gt;GameEntity -->
<g id="edge21" class="edge">
<title>WorldObject&#45;&gt;GameEntity</title>
<path fill="none" stroke="black" stroke-dasharray="5,2" d="M982.48,-437.77C936.9,-422.87 865.37,-399.49 817.13,-383.72"/>
<polygon fill="black" stroke="black" points="818.1,-380.35 807.51,-380.57 815.93,-387 818.1,-380.35"/>
<text text-anchor="middle" x="936.5" y="-405.8" font-family="Times,serif" font-size="14.00">(extends)</text>
</g>
<!-- WorldObject&#45;&gt;Physical -->
<g id="edge23" class="edge">
<title>WorldObject&#45;&gt;Physical</title>
<path fill="none" stroke="black" stroke-dasharray="5,2" d="M982.32,-449.43C923.11,-445.97 814.09,-439.72 721,-435 545.93,-426.12 500.28,-443.52 327,-417 270.2,-408.31 256.73,-401.51 202,-384 200.61,-383.55 199.2,-383.09 197.77,-382.61"/>
<polygon fill="black" stroke="black" points="198.92,-379.31 188.33,-379.31 196.61,-385.91 198.92,-379.31"/>
<text text-anchor="middle" x="352.5" y="-405.8" font-family="Times,serif" font-size="14.00">(extends)</text>
</g>
<!-- WorldObject&#45;&gt;Renderable -->
<g id="edge22" class="edge">
<title>WorldObject&#45;&gt;Renderable</title>
<path fill="none" stroke="black" stroke-dasharray="5,2" d="M1026,-434.8C1026,-423.16 1026,-407.55 1026,-394.24"/>
<polygon fill="black" stroke="black" points="1029.5,-394.18 1026,-384.18 1022.5,-394.18 1029.5,-394.18"/>
<text text-anchor="middle" x="1051.5" y="-405.8" font-family="Times,serif" font-size="14.00">(extends)</text>
</g>
<!-- character -->
<g id="node25" class="node">
<title>character</title>
<ellipse fill="#ffffe0" stroke="black" cx="1212" cy="-18" rx="42.79" ry="18"/>
<text text-anchor="middle" x="1212" y="-14.3" font-family="Times,serif" font-size="14.00">character</text>
</g>
<!-- string&#45;&gt;character -->
<g id="edge1" class="edge">
<title>string&#45;&gt;character</title>
<path fill="none" stroke="black" d="M1212,-86.8C1212,-75.16 1212,-59.55 1212,-46.24"/>
<polygon fill="black" stroke="black" points="1215.5,-46.18 1212,-36.18 1208.5,-46.18 1215.5,-46.18"/>
<text text-anchor="middle" x="1217" y="-57.8" font-family="Times,serif" font-size="14.00">[]</text>
</g>
</g>
</svg>
