<?xml version="1.0" encoding="UTF-8" standalone="no"?>
<!DOCTYPE svg PUBLIC "-//W3C//DTD SVG 1.1//EN"
 "http://www.w3.org/Graphics/SVG/1.1/DTD/svg11.dtd">
<!-- Generated by graphviz version 2.43.0 (0)
 -->
<!-- Title: types Pages: 1 -->
<svg width="1418pt" height="1189pt"
 viewBox="0.00 0.00 1417.98 1189.00" xmlns="http://www.w3.org/2000/svg" xmlns:xlink="http://www.w3.org/1999/xlink">
<g id="graph0" class="graph" transform="scale(1 1) rotate(0) translate(4 1185)">
<title>types</title>
<polygon fill="white" stroke="transparent" points="-4,4 -4,-1185 1413.98,-1185 1413.98,4 -4,4"/>
<text text-anchor="middle" x="704.99" y="-1162.6" font-family="Times,serif" font-size="18.00">Entity System &#45; Full Schema</text>
<!-- Armor -->
<g id="node1" class="node">
<title>Armor</title>
<polygon fill="#add8e6" stroke="black" points="242,-869 188,-869 188,-833 242,-833 242,-869"/>
<text text-anchor="middle" x="215" y="-847.3" font-family="Times,serif" font-size="14.00">Armor</text>
</g>
<!-- Item -->
<g id="node11" class="node">
<title>Item</title>
<polygon fill="#add8e6" stroke="black" points="391.5,-882 337.5,-882 337.5,-846 391.5,-846 391.5,-882"/>
<text text-anchor="middle" x="364.5" y="-860.3" font-family="Times,serif" font-size="14.00">Item</text>
</g>
<!-- Armor&#45;&gt;Item -->
<g id="edge44" class="edge">
<title>Armor&#45;&gt;Item</title>
<path fill="none" stroke="black" stroke-dasharray="5,2" d="M242.17,-849.62C262.19,-848.95 290.45,-848.88 315,-852 319,-852.51 323.15,-853.23 327.25,-854.06"/>
<polygon fill="black" stroke="black" points="326.75,-857.54 337.28,-856.33 328.3,-850.71 326.75,-857.54"/>
<text text-anchor="middle" x="289.5" y="-855.8" font-family="Times,serif" font-size="14.00">(extends)</text>
</g>
<!-- string -->
<g id="node28" class="node">
<title>string</title>
<ellipse fill="#ffffe0" stroke="black" cx="1242.44" cy="-557" rx="30.59" ry="18"/>
<text text-anchor="middle" x="1242.44" y="-553.3" font-family="Times,serif" font-size="14.00">string</text>
</g>
<!-- Armor&#45;&gt;string -->
<g id="edge43" class="edge">
<title>Armor&#45;&gt;string</title>
<path fill="none" stroke="black" d="M242.22,-846.58C277.25,-841.21 341.27,-833.32 396,-837 523.52,-845.58 554.37,-873.8 682,-867 727.97,-864.55 739.58,-863.53 785,-856 858.58,-843.8 880.29,-848.74 948.69,-819 1073.67,-764.66 1181.9,-635.54 1223.38,-581.47"/>
<polygon fill="black" stroke="black" points="1226.21,-583.54 1229.46,-573.46 1220.63,-579.31 1226.21,-583.54"/>
<text text-anchor="middle" x="742.5" y="-868.8" font-family="Times,serif" font-size="14.00">slot</text>
</g>
<!-- uint16 -->
<g id="node29" class="node">
<title>uint16</title>
<ellipse fill="#ffffe0" stroke="black" cx="742.5" cy="-970" rx="33.29" ry="18"/>
<text text-anchor="middle" x="742.5" y="-966.3" font-family="Times,serif" font-size="14.00">uint16</text>
</g>
<!-- Armor&#45;&gt;uint16 -->
<g id="edge42" class="edge">
<title>Armor&#45;&gt;uint16</title>
<path fill="none" stroke="black" d="M227.09,-869.13C235.6,-881.36 248.5,-896.74 264,-905 339.14,-945.05 596.66,-962.51 699.04,-967.98"/>
<polygon fill="black" stroke="black" points="699.14,-971.49 709.31,-968.51 699.51,-964.5 699.14,-971.49"/>
<text text-anchor="middle" x="454.5" y="-954.8" font-family="Times,serif" font-size="14.00">defense_bonus</text>
</g>
<!-- Boss -->
<g id="node2" class="node">
<title>Boss</title>
<polygon fill="#add8e6" stroke="black" points="75.5,-165 21.5,-165 21.5,-129 75.5,-129 75.5,-165"/>
<text text-anchor="middle" x="48.5" y="-143.3" font-family="Times,serif" font-size="14.00">Boss</text>
</g>
<!-- NPC -->
<g id="node14" class="node">
<title>NPC</title>
<polygon fill="#add8e6" stroke="black" points="242,-502 188,-502 188,-466 242,-466 242,-502"/>
<text text-anchor="middle" x="215" y="-480.3" font-family="Times,serif" font-size="14.00">NPC</text>
</g>
<!-- Boss&#45;&gt;NPC -->
<g id="edge57" class="edge">
<title>Boss&#45;&gt;NPC</title>
<path fill="none" stroke="black" stroke-dasharray="5,2" d="M58.34,-165.12C85.57,-220.89 168.22,-390.22 200.7,-456.75"/>
<polygon fill="black" stroke="black" points="197.58,-458.34 205.11,-465.79 203.87,-455.27 197.58,-458.34"/>
<text text-anchor="middle" x="140.5" y="-387.8" font-family="Times,serif" font-size="14.00">(extends)</text>
</g>
<!-- Boss&#45;&gt;string -->
<g id="edge55" class="edge">
<title>Boss&#45;&gt;string</title>
<path fill="none" stroke="black" d="M65.77,-128.84C93.26,-100.26 152,-48 214,-48 214,-48 214,-48 1076.19,-48 1147.06,-48 1157.37,-97.43 1188.69,-161 1220.75,-226.07 1235.64,-449.16 1240.01,-528.62"/>
<polygon fill="black" stroke="black" points="1236.53,-529.05 1240.56,-538.84 1243.52,-528.67 1236.53,-529.05"/>
<text text-anchor="middle" x="650" y="-51.8" font-family="Times,serif" font-size="14.00">title</text>
</g>
<!-- uint32 -->
<g id="node30" class="node">
<title>uint32</title>
<ellipse fill="#ffffe0" stroke="black" cx="1075.19" cy="-255" rx="33.29" ry="18"/>
<text text-anchor="middle" x="1075.19" y="-251.3" font-family="Times,serif" font-size="14.00">uint32</text>
</g>
<!-- Boss&#45;&gt;uint32 -->
<g id="edge56" class="edge">
<title>Boss&#45;&gt;uint32</title>
<path fill="none" stroke="black" d="M75.6,-162.13C107.26,-179.01 162.77,-204 214,-204 214,-204 214,-204 911.35,-204 958.06,-204 1009.01,-223.35 1041.26,-238.21"/>
<polygon fill="black" stroke="black" points="1040.1,-241.54 1050.64,-242.65 1043.1,-235.21 1040.1,-241.54"/>
<text text-anchor="middle" x="556.5" y="-207.8" font-family="Times,serif" font-size="14.00">reward_gold</text>
</g>
<!-- uint8 -->
<g id="node32" class="node">
<title>uint8</title>
<ellipse fill="#ffffe0" stroke="black" cx="910.35" cy="-323" rx="28.7" ry="18"/>
<text text-anchor="middle" x="910.35" y="-319.3" font-family="Times,serif" font-size="14.00">uint8</text>
</g>
<!-- Boss&#45;&gt;uint8 -->
<g id="edge54" class="edge">
<title>Boss&#45;&gt;uint8</title>
<path fill="none" stroke="black" d="M75.69,-139.56C113.78,-129.93 186.41,-116.05 246,-131 376.57,-163.76 384.69,-233.27 513,-274 546.8,-284.73 779.77,-309.61 871.94,-319.17"/>
<polygon fill="black" stroke="black" points="871.64,-322.65 881.95,-320.2 872.36,-315.69 871.64,-322.65"/>
<text text-anchor="middle" x="454.5" y="-270.8" font-family="Times,serif" font-size="14.00">phase</text>
</g>
<!-- Combatant -->
<g id="node3" class="node">
<title>Combatant</title>
<polygon fill="#ffb347" stroke="black" points="595,-454 518,-454 518,-418 595,-418 595,-454"/>
<text text-anchor="middle" x="556.5" y="-432.3" font-family="Times,serif" font-size="14.00">Combatant</text>
</g>
<!-- Damageable -->
<g id="node5" class="node">
<title>Damageable</title>
<polygon fill="#ffb347" stroke="black" points="785,-409 700,-409 700,-373 785,-373 785,-409"/>
<text text-anchor="middle" x="742.5" y="-387.3" font-family="Times,serif" font-size="14.00">Damageable</text>
</g>
<!-- Combatant&#45;&gt;Damageable -->
<g id="edge27" class="edge">
<title>Combatant&#45;&gt;Damageable</title>
<path fill="none" stroke="black" stroke-dasharray="5,2" d="M595.22,-425.85C602.75,-423.87 610.62,-421.84 618,-420 641.63,-414.1 667.88,-407.89 690.09,-402.73"/>
<polygon fill="black" stroke="black" points="691.03,-406.11 699.98,-400.45 689.45,-399.29 691.03,-406.11"/>
<text text-anchor="middle" x="650" y="-423.8" font-family="Times,serif" font-size="14.00">(extends)</text>
</g>
<!-- GameEntity -->
<g id="node9" class="node">
<title>GameEntity</title>
<polygon fill="#ffb347" stroke="black" points="784,-463 701,-463 701,-427 784,-427 784,-463"/>
<text text-anchor="middle" x="742.5" y="-441.3" font-family="Times,serif" font-size="14.00">GameEntity</text>
</g>
<!-- Combatant&#45;&gt;GameEntity -->
<g id="edge26" class="edge">
<title>Combatant&#45;&gt;GameEntity</title>
<path fill="none" stroke="black" stroke-dasharray="5,2" d="M595.18,-437.84C622.74,-439.19 660.42,-441.03 690.65,-442.51"/>
<polygon fill="black" stroke="black" points="690.84,-446.03 701,-443.02 691.18,-439.03 690.84,-446.03"/>
<text text-anchor="middle" x="650" y="-445.8" font-family="Times,serif" font-size="14.00">(extends)</text>
</g>
<!-- Combatant&#45;&gt;uint16 -->
<g id="edge24" class="edge">
<title>Combatant&#45;&gt;uint16</title>
<path fill="none" stroke="black" d="M563.27,-454.03C572.45,-483.44 590.35,-543.71 600,-596 606.9,-633.36 594.54,-736.12 618,-766 636.67,-789.77 662.68,-765.75 682,-789 713.94,-827.44 682.96,-853.02 700,-900 705.75,-915.86 715.17,-932.16 723.58,-945.04"/>
<polygon fill="black" stroke="black" points="720.7,-947.02 729.19,-953.35 726.5,-943.1 720.7,-947.02"/>
<text text-anchor="middle" x="650" y="-792.8" font-family="Times,serif" font-size="14.00">attack</text>
</g>
<!-- Combatant&#45;&gt;uint16 -->
<g id="edge25" class="edge">
<title>Combatant&#45;&gt;uint16</title>
<path fill="none" stroke="black" d="M563.38,-454.01C572.73,-483.39 590.85,-543.62 600,-596 615.97,-687.41 585.05,-717.26 618,-804 629.77,-834.98 688.75,-907.56 720.76,-945.66"/>
<polygon fill="black" stroke="black" points="718.4,-948.3 727.52,-953.68 723.75,-943.78 718.4,-948.3"/>
<text text-anchor="middle" x="650" y="-897.8" font-family="Times,serif" font-size="14.00">defense</text>
</g>
<!-- Creature -->
<g id="node4" class="node">
<title>Creature</title>
<polygon fill="#add8e6" stroke="black" points="396,-454 333,-454 333,-418 396,-418 396,-454"/>
<text text-anchor="middle" x="364.5" y="-432.3" font-family="Times,serif" font-size="14.00">Creature</text>
</g>
<!-- Creature&#45;&gt;Combatant -->
<g id="edge34" class="edge">
<title>Creature&#45;&gt;Combatant</title>
<path fill="none" stroke="black" stroke-dasharray="5,2" d="M396.03,-436C426.2,-436 472.79,-436 507.84,-436"/>
<polygon fill="black" stroke="black" points="507.86,-439.5 517.86,-436 507.86,-432.5 507.86,-439.5"/>
<text text-anchor="middle" x="454.5" y="-439.8" font-family="Times,serif" font-size="14.00">(implements)</text>
</g>
<!-- Faction -->
<g id="node8" class="node">
<title>Faction</title>
<polygon fill="#90ee90" stroke="black" points="585,-400 528,-400 528,-364 585,-364 585,-400"/>
<text text-anchor="middle" x="556.5" y="-378.3" font-family="Times,serif" font-size="14.00">Faction</text>
</g>
<!-- Creature&#45;&gt;Faction -->
<g id="edge33" class="edge">
<title>Creature&#45;&gt;Faction</title>
<path fill="none" stroke="black" d="M396.07,-423.33C401.97,-421.08 408.14,-418.86 414,-417 448.69,-405.97 489.07,-396.28 517.79,-389.92"/>
<polygon fill="black" stroke="black" points="518.79,-393.28 527.81,-387.72 517.3,-386.44 518.79,-393.28"/>
<text text-anchor="middle" x="454.5" y="-420.8" font-family="Times,serif" font-size="14.00">faction</text>
</g>
<!-- WorldObject -->
<g id="node23" class="node">
<title>WorldObject</title>
<polygon fill="#ffb347" stroke="black" points="600,-641 513,-641 513,-605 600,-605 600,-641"/>
<text text-anchor="middle" x="556.5" y="-619.3" font-family="Times,serif" font-size="14.00">WorldObject</text>
</g>
<!-- Creature&#45;&gt;WorldObject -->
<g id="edge35" class="edge">
<title>Creature&#45;&gt;WorldObject</title>
<path fill="none" stroke="black" stroke-dasharray="5,2" d="M379.01,-454.22C388.36,-466.45 401.36,-482.69 414,-496 449.94,-533.85 495.47,-573.4 525.03,-598.1"/>
<polygon fill="black" stroke="black" points="523,-600.96 532.92,-604.67 527.47,-595.58 523,-600.96"/>
<text text-anchor="middle" x="454.5" y="-573.8" font-family="Times,serif" font-size="14.00">(implements)</text>
</g>
<!-- float32 -->
<g id="node26" class="node">
<title>float32</title>
<ellipse fill="#ffffe0" stroke="black" cx="1242.44" cy="-909" rx="36" ry="18"/>
<text text-anchor="middle" x="1242.44" y="-905.3" font-family="Times,serif" font-size="14.00">float32</text>
</g>
<!-- Creature&#45;&gt;float32 -->
<g id="edge31" class="edge">
<title>Creature&#45;&gt;float32</title>
<path fill="none" stroke="black" d="M396.19,-449.26C402.03,-451.42 408.14,-453.46 414,-455 530.35,-485.59 563.55,-471.98 682,-493 840.34,-521.1 889.19,-531.32 1017.69,-628 1108.48,-696.3 1121.85,-726.14 1188.69,-818 1203.7,-838.62 1218.03,-863.82 1227.96,-882.47"/>
<polygon fill="black" stroke="black" points="1224.98,-884.34 1232.73,-891.57 1231.18,-881.09 1224.98,-884.34"/>
<text text-anchor="middle" x="828.5" y="-534.8" font-family="Times,serif" font-size="14.00">speed</text>
</g>
<!-- Creature&#45;&gt;uint8 -->
<g id="edge32" class="edge">
<title>Creature&#45;&gt;uint8</title>
<path fill="none" stroke="black" d="M381.62,-417.92C390.47,-408.87 402.04,-398.31 414,-391 453.95,-366.59 467.26,-364.97 513,-355 642.27,-326.81 800.14,-322.9 871.32,-322.71"/>
<polygon fill="black" stroke="black" points="871.59,-326.21 881.58,-322.7 871.58,-319.21 871.59,-326.21"/>
<text text-anchor="middle" x="650" y="-340.8" font-family="Times,serif" font-size="14.00">level</text>
</g>
<!-- int16 -->
<g id="node27" class="node">
<title>int16</title>
<ellipse fill="#ffffe0" stroke="black" cx="910.35" cy="-378" rx="28.7" ry="18"/>
<text text-anchor="middle" x="910.35" y="-374.3" font-family="Times,serif" font-size="14.00">int16</text>
</g>
<!-- Damageable&#45;&gt;int16 -->
<g id="edge8" class="edge">
<title>Damageable&#45;&gt;int16</title>
<path fill="none" stroke="black" d="M768.29,-372.99C778.52,-366.62 790.81,-360.24 803,-357 824.91,-351.18 831.7,-352.91 854,-357 861.8,-358.43 869.93,-360.91 877.48,-363.67"/>
<polygon fill="black" stroke="black" points="876.4,-367.01 886.99,-367.4 878.96,-360.49 876.4,-367.01"/>
<text text-anchor="middle" x="828.5" y="-360.8" font-family="Times,serif" font-size="14.00">hp</text>
</g>
<!-- Damageable&#45;&gt;int16 -->
<g id="edge9" class="edge">
<title>Damageable&#45;&gt;int16</title>
<path fill="none" stroke="black" d="M785.35,-387.72C811.92,-385.64 846.01,-382.96 871.72,-380.95"/>
<polygon fill="black" stroke="black" points="872.13,-384.43 881.83,-380.16 871.58,-377.45 872.13,-384.43"/>
<text text-anchor="middle" x="828.5" y="-389.8" font-family="Times,serif" font-size="14.00">max_hp</text>
</g>
<!-- Element -->
<g id="node6" class="node">
<title>Element</title>
<polygon fill="#90ee90" stroke="black" points="395.5,-1021 333.5,-1021 333.5,-985 395.5,-985 395.5,-1021"/>
<text text-anchor="middle" x="364.5" y="-999.3" font-family="Times,serif" font-size="14.00">Element</text>
</g>
<!-- Entity -->
<g id="node7" class="node">
<title>Entity</title>
<polygon fill="#ffb347" stroke="black" points="937.35,-510 883.35,-510 883.35,-474 937.35,-474 937.35,-510"/>
<text text-anchor="middle" x="910.35" y="-488.3" font-family="Times,serif" font-size="14.00">Entity</text>
</g>
<!-- Identifiable -->
<g id="node10" class="node">
<title>Identifiable</title>
<polygon fill="#ffb347" stroke="black" points="1114.69,-510 1035.69,-510 1035.69,-474 1114.69,-474 1114.69,-510"/>
<text text-anchor="middle" x="1075.19" y="-488.3" font-family="Times,serif" font-size="14.00">Identifiable</text>
</g>
<!-- Entity&#45;&gt;Identifiable -->
<g id="edge11" class="edge">
<title>Entity&#45;&gt;Identifiable</title>
<path fill="none" stroke="black" stroke-dasharray="5,2" d="M937.51,-492C961.13,-492 996.5,-492 1025.34,-492"/>
<polygon fill="black" stroke="black" points="1025.64,-495.5 1035.64,-492 1025.64,-488.5 1025.64,-495.5"/>
<text text-anchor="middle" x="992.19" y="-495.8" font-family="Times,serif" font-size="14.00">(extends)</text>
</g>
<!-- Positioned -->
<g id="node17" class="node">
<title>Positioned</title>
<polygon fill="#ffb347" stroke="black" points="1112.19,-843 1038.19,-843 1038.19,-807 1112.19,-807 1112.19,-843"/>
<text text-anchor="middle" x="1075.19" y="-821.3" font-family="Times,serif" font-size="14.00">Positioned</text>
</g>
<!-- Entity&#45;&gt;Positioned -->
<g id="edge12" class="edge">
<title>Entity&#45;&gt;Positioned</title>
<path fill="none" stroke="black" stroke-dasharray="5,2" d="M915.02,-510.22C922.12,-543.39 939.48,-615.33 966.69,-671 990.28,-719.26 1028.03,-769.18 1051.94,-798.64"/>
<polygon fill="black" stroke="black" points="1049.54,-801.23 1058.59,-806.74 1054.95,-796.79 1049.54,-801.23"/>
<text text-anchor="middle" x="992.19" y="-756.8" font-family="Times,serif" font-size="14.00">(extends)</text>
</g>
<!-- Entity&#45;&gt;uint32 -->
<g id="edge10" class="edge">
<title>Entity&#45;&gt;uint32</title>
<path fill="none" stroke="black" d="M933.45,-473.93C938.66,-469.28 944.05,-464.13 948.69,-459 957.88,-448.85 957.92,-444.51 966.69,-434 987.63,-408.89 1001.5,-409.4 1017.69,-381 1032.54,-354.96 1023.56,-343.41 1035.69,-316 1041.2,-303.56 1048.96,-290.7 1056.07,-280.01"/>
<polygon fill="black" stroke="black" points="1059.07,-281.83 1061.83,-271.6 1053.29,-277.88 1059.07,-281.83"/>
<text text-anchor="middle" x="992.19" y="-437.8" font-family="Times,serif" font-size="14.00">id</text>
</g>
<!-- GameEntity&#45;&gt;Entity -->
<g id="edge19" class="edge">
<title>GameEntity&#45;&gt;Entity</title>
<path fill="none" stroke="black" stroke-dasharray="5,2" d="M766.95,-463.1C780.06,-472.83 795.29,-483.36 803,-486 825.45,-493.69 852.11,-495.17 873.13,-494.75"/>
<polygon fill="black" stroke="black" points="873.38,-498.24 883.24,-494.39 873.13,-491.24 873.38,-498.24"/>
<text text-anchor="middle" x="828.5" y="-497.8" font-family="Times,serif" font-size="14.00">(extends)</text>
</g>
<!-- Trackable -->
<g id="node21" class="node">
<title>Trackable</title>
<polygon fill="#ffb347" stroke="black" points="945.85,-450 874.85,-450 874.85,-414 945.85,-414 945.85,-450"/>
<text text-anchor="middle" x="910.35" y="-428.3" font-family="Times,serif" font-size="14.00">Trackable</text>
</g>
<!-- GameEntity&#45;&gt;Trackable -->
<g id="edge20" class="edge">
<title>GameEntity&#45;&gt;Trackable</title>
<path fill="none" stroke="black" stroke-dasharray="5,2" d="M784.31,-435.71C790.54,-434.6 796.92,-433.64 803,-433 823.14,-430.89 845.55,-430.41 864.58,-430.54"/>
<polygon fill="black" stroke="black" points="864.72,-434.04 874.77,-430.67 864.81,-427.04 864.72,-434.04"/>
<text text-anchor="middle" x="828.5" y="-436.8" font-family="Times,serif" font-size="14.00">(extends)</text>
</g>
<!-- Identifiable&#45;&gt;string -->
<g id="edge2" class="edge">
<title>Identifiable&#45;&gt;string</title>
<path fill="none" stroke="black" d="M1114.8,-492.32C1137.3,-493.82 1165.68,-498.05 1188.69,-509 1200.92,-514.82 1212.33,-524.43 1221.39,-533.53"/>
<polygon fill="black" stroke="black" points="1218.99,-536.09 1228.41,-540.95 1224.08,-531.28 1218.99,-536.09"/>
<text text-anchor="middle" x="1160.69" y="-512.8" font-family="Times,serif" font-size="14.00">name</text>
</g>
<!-- Item&#45;&gt;WorldObject -->
<g id="edge30" class="edge">
<title>Item&#45;&gt;WorldObject</title>
<path fill="none" stroke="black" stroke-dasharray="5,2" d="M375.69,-845.82C397.58,-807.72 452.1,-717.81 513,-655 515.45,-652.47 518.12,-649.98 520.88,-647.58"/>
<polygon fill="black" stroke="black" points="523.3,-650.13 528.81,-641.08 518.86,-644.71 523.3,-650.13"/>
<text text-anchor="middle" x="454.5" y="-782.8" font-family="Times,serif" font-size="14.00">(implements)</text>
</g>
<!-- Item&#45;&gt;float32 -->
<g id="edge28" class="edge">
<title>Item&#45;&gt;float32</title>
<path fill="none" stroke="black" d="M391.7,-872.61C398.86,-874.67 406.67,-876.66 414,-878 656.43,-922.17 720.64,-908.51 966.69,-922 1065.24,-927.4 1091.33,-943.15 1188.69,-927 1193.87,-926.14 1199.22,-924.84 1204.44,-923.32"/>
<polygon fill="black" stroke="black" points="1205.77,-926.57 1214.23,-920.19 1203.64,-919.9 1205.77,-926.57"/>
<text text-anchor="middle" x="828.5" y="-919.8" font-family="Times,serif" font-size="14.00">weight</text>
</g>
<!-- Item&#45;&gt;uint32 -->
<g id="edge29" class="edge">
<title>Item&#45;&gt;uint32</title>
<path fill="none" stroke="black" d="M391.71,-864.74C446.38,-865.73 576.27,-865.16 682,-842 808.44,-814.3 844.33,-801.56 948.69,-725 984.69,-698.59 1000.09,-693.03 1017.69,-652 1047.18,-583.29 1013.01,-387.25 1035.69,-316 1039.79,-303.13 1047.26,-290.29 1054.54,-279.72"/>
<polygon fill="black" stroke="black" points="1057.51,-281.59 1060.54,-271.44 1051.84,-277.49 1057.51,-281.59"/>
<text text-anchor="middle" x="742.5" y="-840.8" font-family="Times,serif" font-size="14.00">value</text>
</g>
<!-- MagicWeapon -->
<g id="node12" class="node">
<title>MagicWeapon</title>
<polygon fill="#add8e6" stroke="black" points="97,-1044 0,-1044 0,-1008 97,-1008 97,-1044"/>
<text text-anchor="middle" x="48.5" y="-1022.3" font-family="Times,serif" font-size="14.00">MagicWeapon</text>
</g>
<!-- Weapon -->
<g id="node22" class="node">
<title>Weapon</title>
<polygon fill="#add8e6" stroke="black" points="246,-1044 184,-1044 184,-1008 246,-1008 246,-1044"/>
<text text-anchor="middle" x="215" y="-1022.3" font-family="Times,serif" font-size="14.00">Weapon</text>
</g>
<!-- MagicWeapon&#45;&gt;Weapon -->
<g id="edge53" class="edge">
<title>MagicWeapon&#45;&gt;Weapon</title>
<path fill="none" stroke="black" stroke-dasharray="5,2" d="M97.08,-1026C121.27,-1026 150.36,-1026 173.47,-1026"/>
<polygon fill="black" stroke="black" points="173.63,-1029.5 183.63,-1026 173.63,-1022.5 173.63,-1029.5"/>
<text text-anchor="middle" x="140.5" y="-1029.8" font-family="Times,serif" font-size="14.00">(extends)</text>
</g>
<!-- MagicWeapon&#45;&gt;string -->
<g id="edge52" class="edge">
<title>MagicWeapon&#45;&gt;string</title>
<path fill="none" stroke="black" d="M97.02,-1015.92C122.72,-1010.6 155.04,-1004.14 184,-999 249.98,-987.29 266.19,-981.13 333,-976 360.92,-973.86 370.7,-964.01 396,-976 407.42,-981.41 402.58,-992.59 414,-998 479.69,-1029.13 594.71,-1106.99 785,-997 798.79,-989.03 791.31,-976.83 803,-966 862.26,-911.1 890.56,-914.01 966.69,-887 1030.39,-864.4 1062.94,-895.47 1114.69,-852 1125.73,-842.73 1201.67,-655.88 1230.43,-584.44"/>
<polygon fill="black" stroke="black" points="1233.83,-585.36 1234.32,-574.78 1227.34,-582.75 1233.83,-585.36"/>
<text text-anchor="middle" x="650" y="-1056.8" font-family="Times,serif" font-size="14.00">spell_name</text>
</g>
<!-- MagicWeapon&#45;&gt;uint16 -->
<g id="edge51" class="edge">
<title>MagicWeapon&#45;&gt;uint16</title>
<path fill="none" stroke="black" d="M97.21,-1040.84C103.16,-1042.39 109.2,-1043.83 115,-1045 145.26,-1051.1 153.18,-1051.22 184,-1053 272.78,-1058.13 434.29,-1056.5 495,-1046 551.64,-1036.2 563.07,-1022.93 618,-1006 646.2,-997.31 678.19,-988 702.54,-981.02"/>
<polygon fill="black" stroke="black" points="703.82,-984.3 712.48,-978.19 701.9,-977.57 703.82,-984.3"/>
<text text-anchor="middle" x="364.5" y="-1058.8" font-family="Times,serif" font-size="14.00">mana_cost</text>
</g>
<!-- Merchant -->
<g id="node13" class="node">
<title>Merchant</title>
<polygon fill="#add8e6" stroke="black" points="83,-502 14,-502 14,-466 83,-466 83,-502"/>
<text text-anchor="middle" x="48.5" y="-480.3" font-family="Times,serif" font-size="14.00">Merchant</text>
</g>
<!-- Merchant&#45;&gt;NPC -->
<g id="edge60" class="edge">
<title>Merchant&#45;&gt;NPC</title>
<path fill="none" stroke="black" stroke-dasharray="5,2" d="M83.19,-484C110.69,-484 149.49,-484 177.68,-484"/>
<polygon fill="black" stroke="black" points="177.92,-487.5 187.92,-484 177.92,-480.5 177.92,-487.5"/>
<text text-anchor="middle" x="140.5" y="-487.8" font-family="Times,serif" font-size="14.00">(extends)</text>
</g>
<!-- Merchant&#45;&gt;string -->
<g id="edge59" class="edge">
<title>Merchant&#45;&gt;string</title>
<path fill="none" stroke="black" d="M83.08,-496.04C146.65,-518.1 289.35,-564.21 414,-580 470.84,-587.2 372.37,-611.22 1188.69,-562 1192.98,-561.74 1197.46,-561.41 1201.91,-561.04"/>
<polygon fill="black" stroke="black" points="1202.52,-564.5 1212.17,-560.13 1201.9,-557.53 1202.52,-564.5"/>
<text text-anchor="middle" x="650" y="-593.8" font-family="Times,serif" font-size="14.00">specialty</text>
</g>
<!-- Merchant&#45;&gt;uint32 -->
<g id="edge58" class="edge">
<title>Merchant&#45;&gt;uint32</title>
<path fill="none" stroke="black" d="M49.09,-465.88C49.26,-425.1 56.06,-326.15 115,-281 162.16,-244.88 589.6,-255 649,-255 649,-255 649,-255 911.35,-255 952.16,-255 998.74,-255 1031.59,-255"/>
<polygon fill="black" stroke="black" points="1031.75,-258.5 1041.75,-255 1031.75,-251.5 1031.75,-258.5"/>
<text text-anchor="middle" x="556.5" y="-257.8" font-family="Times,serif" font-size="14.00">gold</text>
</g>
<!-- NPC&#45;&gt;Creature -->
<g id="edge47" class="edge">
<title>NPC&#45;&gt;Creature</title>
<path fill="none" stroke="black" stroke-dasharray="5,2" d="M242.03,-475.53C264.54,-468.2 297.46,-457.49 323.34,-449.07"/>
<polygon fill="black" stroke="black" points="324.46,-452.39 332.89,-445.96 322.29,-445.73 324.46,-452.39"/>
<text text-anchor="middle" x="289.5" y="-470.8" font-family="Times,serif" font-size="14.00">(extends)</text>
</g>
<!-- boolean -->
<g id="node24" class="node">
<title>boolean</title>
<ellipse fill="#ffffe0" stroke="black" cx="910.35" cy="-698" rx="38.19" ry="18"/>
<text text-anchor="middle" x="910.35" y="-694.3" font-family="Times,serif" font-size="14.00">boolean</text>
</g>
<!-- NPC&#45;&gt;boolean -->
<g id="edge46" class="edge">
<title>NPC&#45;&gt;boolean</title>
<path fill="none" stroke="black" d="M227.87,-502.1C236.85,-514.97 249.99,-532.17 264,-545 322.73,-598.78 339.05,-616.09 414,-643 455.61,-657.94 746.47,-684.08 862.11,-694.01"/>
<polygon fill="black" stroke="black" points="862.15,-697.53 872.41,-694.9 862.75,-690.56 862.15,-697.53"/>
<text text-anchor="middle" x="556.5" y="-672.8" font-family="Times,serif" font-size="14.00">quest_giver</text>
</g>
<!-- NPC&#45;&gt;string -->
<g id="edge45" class="edge">
<title>NPC&#45;&gt;string</title>
<path fill="none" stroke="black" d="M242.29,-487.45C306.39,-495.75 475.91,-516.93 618,-528 838.18,-545.15 1102.96,-553.38 1201.74,-556.01"/>
<polygon fill="black" stroke="black" points="1201.78,-559.52 1211.87,-556.28 1201.96,-552.52 1201.78,-559.52"/>
<text text-anchor="middle" x="742.5" y="-541.8" font-family="Times,serif" font-size="14.00">greeting</text>
</g>
<!-- Physical -->
<g id="node15" class="node">
<title>Physical</title>
<polygon fill="#ffb347" stroke="black" points="773.5,-794 711.5,-794 711.5,-758 773.5,-758 773.5,-794"/>
<text text-anchor="middle" x="742.5" y="-772.3" font-family="Times,serif" font-size="14.00">Physical</text>
</g>
<!-- Physical&#45;&gt;Positioned -->
<g id="edge18" class="edge">
<title>Physical&#45;&gt;Positioned</title>
<path fill="none" stroke="black" stroke-dasharray="5,2" d="M773.72,-780.48C831.73,-789.07 959.02,-807.93 1027.84,-818.13"/>
<polygon fill="black" stroke="black" points="1027.55,-821.63 1037.96,-819.63 1028.58,-814.7 1027.55,-821.63"/>
<text text-anchor="middle" x="910.35" y="-809.8" font-family="Times,serif" font-size="14.00">(extends)</text>
</g>
<!-- Physical&#45;&gt;boolean -->
<g id="edge17" class="edge">
<title>Physical&#45;&gt;boolean</title>
<path fill="none" stroke="black" d="M773.91,-764.1C796.33,-755.08 827.43,-742.05 854,-729 861.44,-725.35 869.28,-721.17 876.66,-717.08"/>
<polygon fill="black" stroke="black" points="878.68,-719.96 885.67,-712 875.24,-713.86 878.68,-719.96"/>
<text text-anchor="middle" x="828.5" y="-755.8" font-family="Times,serif" font-size="14.00">solid</text>
</g>
<!-- Physical&#45;&gt;float32 -->
<g id="edge15" class="edge">
<title>Physical&#45;&gt;float32</title>
<path fill="none" stroke="black" d="M773.55,-789.76C782.91,-793.88 793.32,-798.28 803,-802 833.17,-813.59 841.04,-815.69 872,-825 986.89,-859.54 1015,-871.73 1132.69,-895 1153.68,-899.15 1177.21,-902.35 1196.99,-904.64"/>
<polygon fill="black" stroke="black" points="1196.64,-908.13 1206.96,-905.76 1197.41,-901.17 1196.64,-908.13"/>
<text text-anchor="middle" x="992.19" y="-871.8" font-family="Times,serif" font-size="14.00">width</text>
</g>
<!-- Physical&#45;&gt;float32 -->
<g id="edge16" class="edge">
<title>Physical&#45;&gt;float32</title>
<path fill="none" stroke="black" d="M767.86,-794.33C773.55,-798.73 779.53,-803.47 785,-808 793.24,-814.83 793.86,-818.43 803,-824 932.63,-902.94 981.38,-901.22 1132.69,-913 1153.77,-914.64 1177.19,-914.08 1196.89,-912.94"/>
<polygon fill="black" stroke="black" points="1197.36,-916.41 1207.11,-912.27 1196.91,-909.43 1197.36,-916.41"/>
<text text-anchor="middle" x="992.19" y="-906.8" font-family="Times,serif" font-size="14.00">height</text>
</g>
<!-- Player -->
<g id="node16" class="node">
<title>Player</title>
<polygon fill="#add8e6" stroke="black" points="242,-176 188,-176 188,-140 242,-140 242,-176"/>
<text text-anchor="middle" x="215" y="-154.3" font-family="Times,serif" font-size="14.00">Player</text>
</g>
<!-- Player&#45;&gt;Creature -->
<g id="edge50" class="edge">
<title>Player&#45;&gt;Creature</title>
<path fill="none" stroke="black" stroke-dasharray="5,2" d="M225.68,-176.24C250.94,-223.86 319,-352.13 348.98,-408.64"/>
<polygon fill="black" stroke="black" points="346.01,-410.5 353.79,-417.69 352.19,-407.22 346.01,-410.5"/>
<text text-anchor="middle" x="289.5" y="-341.8" font-family="Times,serif" font-size="14.00">(extends)</text>
</g>
<!-- Player&#45;&gt;string -->
<g id="edge49" class="edge">
<title>Player&#45;&gt;string</title>
<path fill="none" stroke="black" d="M242.07,-152.57C249.16,-151.24 256.85,-149.94 264,-149 434.14,-126.71 477.4,-120 649,-120 649,-120 649,-120 1076.19,-120 1164.05,-120 1221.54,-432.92 1237.15,-529.17"/>
<polygon fill="black" stroke="black" points="1233.7,-529.73 1238.73,-539.05 1240.61,-528.63 1233.7,-529.73"/>
<text text-anchor="middle" x="742.5" y="-123.8" font-family="Times,serif" font-size="14.00">class_name</text>
</g>
<!-- Player&#45;&gt;uint32 -->
<g id="edge48" class="edge">
<title>Player&#45;&gt;uint32</title>
<path fill="none" stroke="black" d="M242.21,-156.3C364.23,-148.77 876.58,-121.85 1017.69,-190 1035.09,-198.4 1049.31,-214.88 1059.14,-229.14"/>
<polygon fill="black" stroke="black" points="1056.29,-231.17 1064.68,-237.64 1062.15,-227.35 1056.29,-231.17"/>
<text text-anchor="middle" x="650" y="-149.8" font-family="Times,serif" font-size="14.00">score</text>
</g>
<!-- Positioned&#45;&gt;float32 -->
<g id="edge3" class="edge">
<title>Positioned&#45;&gt;float32</title>
<path fill="none" stroke="black" d="M1106.61,-843.15C1114.95,-847.88 1124.08,-852.81 1132.69,-857 1156.89,-868.76 1164.42,-868.39 1188.69,-880 1195.5,-883.26 1202.66,-886.98 1209.44,-890.65"/>
<polygon fill="black" stroke="black" points="1207.92,-893.81 1218.37,-895.58 1211.3,-887.68 1207.92,-893.81"/>
<text text-anchor="middle" x="1160.69" y="-883.8" font-family="Times,serif" font-size="14.00">x</text>
</g>
<!-- Positioned&#45;&gt;float32 -->
<g id="edge4" class="edge">
<title>Positioned&#45;&gt;float32</title>
<path fill="none" stroke="black" d="M1112.43,-822.08C1135.68,-821.84 1165.7,-824.73 1188.69,-838 1206.21,-848.11 1219.66,-866.6 1228.59,-882.18"/>
<polygon fill="black" stroke="black" points="1225.74,-884.26 1233.57,-891.4 1231.9,-880.94 1225.74,-884.26"/>
<text text-anchor="middle" x="1160.69" y="-841.8" font-family="Times,serif" font-size="14.00">y</text>
</g>
<!-- Prop -->
<g id="node18" class="node">
<title>Prop</title>
<polygon fill="#add8e6" stroke="black" points="391.5,-705 337.5,-705 337.5,-669 391.5,-669 391.5,-705"/>
<text text-anchor="middle" x="364.5" y="-683.3" font-family="Times,serif" font-size="14.00">Prop</text>
</g>
<!-- Prop&#45;&gt;WorldObject -->
<g id="edge37" class="edge">
<title>Prop&#45;&gt;WorldObject</title>
<path fill="none" stroke="black" stroke-dasharray="5,2" d="M387.56,-668.73C395.49,-662.94 404.76,-657.02 414,-653 442.08,-640.79 475.51,-633.41 502.82,-629.02"/>
<polygon fill="black" stroke="black" points="503.6,-632.44 512.97,-627.48 502.55,-625.52 503.6,-632.44"/>
<text text-anchor="middle" x="454.5" y="-656.8" font-family="Times,serif" font-size="14.00">(implements)</text>
</g>
<!-- Prop&#45;&gt;boolean -->
<g id="edge36" class="edge">
<title>Prop&#45;&gt;boolean</title>
<path fill="none" stroke="black" d="M391.65,-699.3C398.75,-702.06 406.54,-704.59 414,-706 449.37,-712.68 459,-706.35 495,-706 627.79,-704.72 784.48,-701.13 861.59,-699.22"/>
<polygon fill="black" stroke="black" points="862.02,-702.71 871.93,-698.96 861.84,-695.71 862.02,-702.71"/>
<text text-anchor="middle" x="650" y="-707.8" font-family="Times,serif" font-size="14.00">destructible</text>
</g>
<!-- Renderable -->
<g id="node19" class="node">
<title>Renderable</title>
<polygon fill="#ffb347" stroke="black" points="781.5,-644 703.5,-644 703.5,-608 781.5,-608 781.5,-644"/>
<text text-anchor="middle" x="742.5" y="-622.3" font-family="Times,serif" font-size="14.00">Renderable</text>
</g>
<!-- Renderable&#45;&gt;string -->
<g id="edge6" class="edge">
<title>Renderable&#45;&gt;string</title>
<path fill="none" stroke="black" d="M781.53,-631.15C788.65,-631.92 796.04,-632.59 803,-633 825.63,-634.33 831.34,-633.35 854,-633 1003.96,-630.71 1049.91,-646.86 1188.69,-590 1197.41,-586.43 1206.3,-581.46 1214.25,-576.47"/>
<polygon fill="black" stroke="black" points="1216.31,-579.3 1222.75,-570.88 1212.47,-573.45 1216.31,-579.3"/>
<text text-anchor="middle" x="992.19" y="-636.8" font-family="Times,serif" font-size="14.00">sprite</text>
</g>
<!-- Renderable&#45;&gt;uint8 -->
<g id="edge7" class="edge">
<title>Renderable&#45;&gt;uint8</title>
<path fill="none" stroke="black" d="M756.57,-607.86C765.81,-594.21 777.79,-574.72 785,-556 799.49,-518.34 776.79,-497.69 803,-467 818.71,-448.61 838.44,-466.52 854,-448 882.21,-414.43 848.88,-388.25 872,-351 874.26,-347.36 877.18,-344.03 880.39,-341.03"/>
<polygon fill="black" stroke="black" points="882.67,-343.69 888.23,-334.67 878.26,-338.25 882.67,-343.69"/>
<text text-anchor="middle" x="828.5" y="-470.8" font-family="Times,serif" font-size="14.00">layer</text>
</g>
<!-- Timed -->
<g id="node20" class="node">
<title>Timed</title>
<polygon fill="#ffb347" stroke="black" points="1102.19,-361 1048.19,-361 1048.19,-325 1102.19,-325 1102.19,-361"/>
<text text-anchor="middle" x="1075.19" y="-339.3" font-family="Times,serif" font-size="14.00">Timed</text>
</g>
<!-- uint64 -->
<g id="node31" class="node">
<title>uint64</title>
<ellipse fill="#ffffe0" stroke="black" cx="1242.44" cy="-18" rx="33.29" ry="18"/>
<text text-anchor="middle" x="1242.44" y="-14.3" font-family="Times,serif" font-size="14.00">uint64</text>
</g>
<!-- Timed&#45;&gt;uint64 -->
<g id="edge5" class="edge">
<title>Timed&#45;&gt;uint64</title>
<path fill="none" stroke="black" d="M1088.38,-324.91C1096.25,-312.95 1106.51,-296.79 1114.69,-282 1161.34,-197.69 1208.38,-93.52 1229.67,-45.11"/>
<polygon fill="black" stroke="black" points="1233.01,-46.21 1233.82,-35.65 1226.6,-43.4 1233.01,-46.21"/>
<text text-anchor="middle" x="1160.69" y="-249.8" font-family="Times,serif" font-size="14.00">created_at</text>
</g>
<!-- Trackable&#45;&gt;Identifiable -->
<g id="edge13" class="edge">
<title>Trackable&#45;&gt;Identifiable</title>
<path fill="none" stroke="black" stroke-dasharray="5,2" d="M945.88,-444.72C969.15,-453.3 1000.15,-464.72 1025.86,-474.19"/>
<polygon fill="black" stroke="black" points="1024.83,-477.54 1035.43,-477.72 1027.25,-470.98 1024.83,-477.54"/>
<text text-anchor="middle" x="992.19" y="-473.8" font-family="Times,serif" font-size="14.00">(extends)</text>
</g>
<!-- Trackable&#45;&gt;Timed -->
<g id="edge14" class="edge">
<title>Trackable&#45;&gt;Timed</title>
<path fill="none" stroke="black" stroke-dasharray="5,2" d="M940.04,-413.69C943.18,-411 946.15,-408.09 948.69,-405 960.82,-390.26 951.78,-377.92 966.69,-366 986.64,-350.05 1015.1,-344.49 1037.73,-342.82"/>
<polygon fill="black" stroke="black" points="1038.18,-346.3 1047.99,-342.29 1037.82,-339.31 1038.18,-346.3"/>
<text text-anchor="middle" x="992.19" y="-369.8" font-family="Times,serif" font-size="14.00">(extends)</text>
</g>
<!-- Weapon&#45;&gt;Element -->
<g id="edge40" class="edge">
<title>Weapon&#45;&gt;Element</title>
<path fill="none" stroke="black" d="M246.2,-1021.29C268.48,-1017.82 299,-1013.06 323.33,-1009.26"/>
<polygon fill="black" stroke="black" points="323.99,-1012.7 333.34,-1007.7 322.92,-1005.79 323.99,-1012.7"/>
<text text-anchor="middle" x="289.5" y="-1020.8" font-family="Times,serif" font-size="14.00">element</text>
</g>
<!-- Weapon&#45;&gt;Item -->
<g id="edge41" class="edge">
<title>Weapon&#45;&gt;Item</title>
<path fill="none" stroke="black" stroke-dasharray="5,2" d="M232.63,-1007.73C258.86,-978.93 309.91,-922.85 339.92,-889.9"/>
<polygon fill="black" stroke="black" points="342.56,-892.2 346.7,-882.45 337.38,-887.49 342.56,-892.2"/>
<text text-anchor="middle" x="289.5" y="-971.8" font-family="Times,serif" font-size="14.00">(extends)</text>
</g>
<!-- Weapon&#45;&gt;float32 -->
<g id="edge39" class="edge">
<title>Weapon&#45;&gt;float32</title>
<path fill="none" stroke="black" d="M228.17,-1044.49C250.75,-1076.31 302.41,-1138 363.5,-1138 363.5,-1138 363.5,-1138 1076.19,-1138 1174.45,-1138 1220.14,-997.66 1235.35,-936.71"/>
<polygon fill="black" stroke="black" points="1238.75,-937.51 1237.68,-926.97 1231.95,-935.88 1238.75,-937.51"/>
<text text-anchor="middle" x="742.5" y="-1141.8" font-family="Times,serif" font-size="14.00">attack_range</text>
</g>
<!-- Weapon&#45;&gt;uint16 -->
<g id="edge38" class="edge">
<title>Weapon&#45;&gt;uint16</title>
<path fill="none" stroke="black" d="M246.09,-1032.52C252,-1033.56 258.17,-1034.46 264,-1035 286.57,-1037.1 292.34,-1035.7 315,-1035 351.05,-1033.89 360.28,-1035.01 396,-1030 496.06,-1015.96 518.14,-996.4 618,-981 644.87,-976.86 675.29,-974.12 699.22,-972.42"/>
<polygon fill="black" stroke="black" points="699.64,-975.9 709.38,-971.73 699.16,-968.91 699.64,-975.9"/>
<text text-anchor="middle" x="454.5" y="-1030.8" font-family="Times,serif" font-size="14.00">damage</text>
</g>
<!-- WorldObject&#45;&gt;GameEntity -->
<g id="edge21" class="edge">
<title>WorldObject&#45;&gt;GameEntity</title>
<path fill="none" stroke="black" stroke-dasharray="5,2" d="M569.01,-604.88C580.36,-587.72 598.75,-561.72 618,-542 645.03,-514.3 680.06,-487.5 705.9,-469.11"/>
<polygon fill="black" stroke="black" points="708.13,-471.83 714.29,-463.21 704.1,-466.1 708.13,-471.83"/>
<text text-anchor="middle" x="650" y="-545.8" font-family="Times,serif" font-size="14.00">(extends)</text>
</g>
<!-- WorldObject&#45;&gt;Physical -->
<g id="edge23" class="edge">
<title>WorldObject&#45;&gt;Physical</title>
<path fill="none" stroke="black" stroke-dasharray="5,2" d="M587.43,-641.31C592.19,-645.32 596.64,-649.91 600,-655 618.41,-682.89 595.62,-703.18 618,-728 638.24,-750.45 653.84,-740.03 682,-751 688.45,-753.51 695.26,-756.27 701.87,-759.01"/>
<polygon fill="black" stroke="black" points="700.78,-762.34 711.36,-762.97 703.48,-755.89 700.78,-762.34"/>
<text text-anchor="middle" x="650" y="-754.8" font-family="Times,serif" font-size="14.00">(extends)</text>
</g>
<!-- WorldObject&#45;&gt;Renderable -->
<g id="edge22" class="edge">
<title>WorldObject&#45;&gt;Renderable</title>
<path fill="none" stroke="black" stroke-dasharray="5,2" d="M600.18,-623.7C627.97,-624.15 664.3,-624.74 693.16,-625.21"/>
<polygon fill="black" stroke="black" points="693.38,-628.72 703.43,-625.38 693.49,-621.72 693.38,-628.72"/>
<text text-anchor="middle" x="650" y="-628.8" font-family="Times,serif" font-size="14.00">(extends)</text>
</g>
<!-- character -->
<g id="node25" class="node">
<title>character</title>
<ellipse fill="#ffffe0" stroke="black" cx="1367.08" cy="-557" rx="42.79" ry="18"/>
<text text-anchor="middle" x="1367.08" y="-553.3" font-family="Times,serif" font-size="14.00">character</text>
</g>
<!-- string&#45;&gt;character -->
<g id="edge1" class="edge">
<title>string&#45;&gt;character</title>
<path fill="none" stroke="black" d="M1273.13,-557C1285.45,-557 1300.12,-557 1314.12,-557"/>
<polygon fill="black" stroke="black" points="1314.16,-560.5 1324.16,-557 1314.15,-553.5 1314.16,-560.5"/>
<text text-anchor="middle" x="1301.19" y="-560.8" font-family="Times,serif" font-size="14.00">[]</text>
</g>
</g>
</svg>
